<svg xmlns="http://www.w3.org/2000/svg" viewBox="0 0 14.63 21.65"><defs><style>.cls-1{fill:#fff;}</style></defs><title>Asset 61</title><g id="Layer_2" data-name="Layer 2"><g id="Capa_1" data-name="Capa 1"><path class="cls-1" d="M5.12,11H1.21A7.75,7.75,0,0,1,3.35,5.57a7,7,0,0,1,5.1-2,6.92,6.92,0,0,1,3.4.81A6.07,6.07,0,0,1,14.2,6.76a6.16,6.16,0,0,1,.89,3.11A9.28,9.28,0,0,1,14,13.92,22.27,22.27,0,0,1,10.1,19l-2.37,2.5h7.53v3.72H.63V23.33l6.53-6.66a19.06,19.06,0,0,0,3.15-3.85,5.71,5.71,0,0,0,.79-2.64,2.67,2.67,0,0,0-.82-2,2.84,2.84,0,0,0-2.08-.8A2.78,2.78,0,0,0,6,8.33,4,4,0,0,0,5.12,11Z" transform="translate(-0.63 -3.61)"/></g></g></svg>