<svg xmlns="http://www.w3.org/2000/svg" viewBox="0 0 531.11 723.07"><defs><style>.cls-1{opacity:0.1;}.cls-2{fill:#00acdd;}.cls-3{fill:#00559c;}.cls-4{fill:#5b7e71;}.cls-5{fill:#2765a8;}.cls-6{fill:#3b5a4f;}.cls-7{fill:#303030;}.cls-8{fill:#fff;}.cls-9{fill:#008bb2;}.cls-10{fill:#f7bb42;}.cls-11{fill:#0a5696;}.cls-12{fill:#edb23f;}</style></defs><title>Recurso 2nuevo</title><g id="Capa_2" data-name="Capa 2"><g id="Capa_1-2" data-name="Capa 1"><g class="cls-1"><path d="M2376.44,1752.78c0,12.81-70,23.2-156.28,23.2s-156.28-10.39-156.28-23.2,70-23.2,156.28-23.2,156.28,10.38,156.28,23.2" transform="translate(-1934.09 -1052.91)"/></g><path class="cls-2" d="M2427,1142.39c-3.11,5.62-15,22.62-52.14,52.58-46.57,37.51-71.29,31.55-71.29,31.55l14.18,43c68-16.37,112-84.7,133.89-117.6-8.14-3.8-15.86-7.58-24.64-9.56" transform="translate(-1934.09 -1052.91)"/><path class="cls-3" d="M2321.89,1213.11s-39.9,11.6-51.66,12.08c-16.9.69-5.39,54.35,14.49,55.42,7.71.41,53.87-8.58,53.87-8.58-2.18-17.57-11-43.24-16.7-58.92" transform="translate(-1934.09 -1052.91)"/><path class="cls-2" d="M2088.82,1186.77c-31.28-29.27-42.68-46.59-46.64-54-8.32,2.76-16.47,6-24.58,9.3,20.85,36.24,55.16,99.29,119.36,119.89l17.33-41.86s-21.81,7.58-65.47-33.28" transform="translate(-1934.09 -1052.91)"/><path class="cls-3" d="M2140.41,1204.8s36.6,14.88,47.57,16.34c15.75,2.1,1.8,54.53-16.85,53.93-7.23-.23-49.84-13-49.84-13,3.08-17.3,12.83-42.11,19.12-57.23" transform="translate(-1934.09 -1052.91)"/><path class="cls-4" d="M2155.47,1398s-6.94,218.49-3.22,289.89l40.58,4.84,25.65-222.57,5.35.21,27.76,223.94h36.84s6.1-237.44-13.76-304.49-119.2,8.18-119.2,8.18" transform="translate(-1934.09 -1052.91)"/><path class="cls-5" d="M2284.72,1280.61c-12.24-12.06-13.51-52.71-14.49-55.42-3.82-1-15.09-3.51-20-3.68l-60.58-2.45c-9.83-1.65-21.68,1.94-28.29,71.68-9.4,99.2-7.89,117.12-7.89,117.12s75.28,37.87,129.92,8.07c0,0-3-31.77,1.36-135.32" transform="translate(-1934.09 -1052.91)"/><path class="cls-2" d="M2185.78,1703.13l-.84,29.68-19.7,14.28s-9.31-12.55-9.13-14.28,1.83-37.48,1.83-37.48Z" transform="translate(-1934.09 -1052.91)"/><path class="cls-2" d="M2258.44,1703.13l.84,29.68,19.7,14.28s9.31-12.55,9.13-14.28-1.83-37.48-1.83-37.48Z" transform="translate(-1934.09 -1052.91)"/><path class="cls-6" d="M2151.09,1685.2l42.68,5.09a2,2,0,0,1,1.77,2.41l-2.89,15a2,2,0,0,1-2.29,1.64l-40-5.52a2,2,0,0,1-1.76-2l.18-14.62a2,2,0,0,1,2.29-2" transform="translate(-1934.09 -1052.91)"/><path class="cls-6" d="M2292,1686.34l-42.69,5.08a2.05,2.05,0,0,0-1.77,2.42l2.89,15.05a2,2,0,0,0,2.29,1.64l40-5.52a2.05,2.05,0,0,0,1.76-2.06l-.18-14.61a2,2,0,0,0-2.28-2" transform="translate(-1934.09 -1052.91)"/><path class="cls-7" d="M2190,1725.91l2.61,22.44c.32,2.77-1.23,5.28-3.26,5.28l-70.66-.13a5.17,5.17,0,0,1-4.61-3.31c-1-2.21-1.17-5.54,2-10,6.27-8.84,26.7-11,37-18.46a1.23,1.23,0,0,1,.72-.23l32.51.06c1.84,0,3.4,1.84,3.7,4.35" transform="translate(-1934.09 -1052.91)"/><path class="cls-7" d="M2291.56,1725.91l2.61,22.44c.32,2.77-1.23,5.28-3.26,5.28l-70.66-.13a5.17,5.17,0,0,1-4.61-3.31c-1-2.21-1.17-5.54,2-10,6.28-8.84,26.7-11,37-18.46a1.23,1.23,0,0,1,.72-.23l32.51.06c1.84,0,3.41,1.84,3.7,4.35" transform="translate(-1934.09 -1052.91)"/><path class="cls-2" d="M2179.06,1166.21a48.69,48.69,0,1,0,50.84-46.44,48.7,48.7,0,0,0-50.84,46.44" transform="translate(-1934.09 -1052.91)"/><path class="cls-8" d="M2227.65,1202.31c16.59,0,29.56-9.83,29.54-22.3h-5.44c0,8.87-11,16.38-24.11,16.41s-24.16-7.45-24.18-16.32H2198c0,12.48,13,22.23,29.63,22.19" transform="translate(-1934.09 -1052.91)"/><path class="cls-2" d="M2230.71,1230.22h-6.44a10.45,10.45,0,0,1-10.45-10.45v-9.84h27.34v9.84a10.45,10.45,0,0,1-10.45,10.45" transform="translate(-1934.09 -1052.91)"/><path class="cls-9" d="M2241.23,1215.12s-14.12,5-27.59.08c0,0,5.52,7.13,27.53,5.77Z" transform="translate(-1934.09 -1052.91)"/><path class="cls-7" d="M2274.94,1166.94a42,42,0,0,0-2.52-7c-1.63-3.83-2.89-7.82-4.6-11.62-1.07-2.4-2.68-5.54-4.86-7.21s-4.44-.83-6.78,0a84.89,84.89,0,0,1-43.77,3.72c-6.09-1.1-12.31-3-16.81-7.25s-6.8-11.34-4-16.85c1.74-3.37,5.05-5.64,8.4-7.43a59.36,59.36,0,0,1,54.77-.12,39.82,39.82,0,0,1,7.5,5c7.45,6.48,11.62,15.8,13.77,25.27a85.29,85.29,0,0,1,2.15,25,58,58,0,0,1-1.25,9,25.68,25.68,0,0,1-1.38,4.36c-.25.58-1.78,2.4-1.82,2.84.2-2.26,1-4.53,1.23-6.83s.34-4.73.36-7.1a16.59,16.59,0,0,0-.43-3.8" transform="translate(-1934.09 -1052.91)"/><path class="cls-7" d="M2201.23,1137.33c-.06,5.92-7.09,9.76-10.41,13.87-3,3.67-4,8.58-5.75,12.87a62,62,0,0,0-3.37,10.18,26.75,26.75,0,0,0-.63,5.43c0,1.52,0,3.59.79,4.94l.1.16c-1.47-3.17-3.79-6-4.86-9.35-1.12-3.51-1.38-7.41-1.77-11.06a52.07,52.07,0,0,1,5-28,19.72,19.72,0,0,1,7.18-8c1.7-1,5.42-3.39,7.51-2.35s6.26,9.35,6.24,11.37" transform="translate(-1934.09 -1052.91)"/><path class="cls-2" d="M2447.05,1158.81l7.5-11.17c3.75-5.58,7.13-10.68,9.4-17.2,1.72-4.92,1.85-10.62-.77-15.12s-8.41-7.29-13.3-5.49c-4.39,1.61-6.89,6.12-9,10.29q-2.62,5.12-5.24,10.22l-.84-4.83c-.33-1.91-.78-4-2.34-5.15-5.77-4.26-4.87,7.76-4.86,10l.05,10.89-5.58,9.3Z" transform="translate(-1934.09 -1052.91)"/><path class="cls-10" d="M2023.93,1068c3.72,0,12.9,12,31.89,14.46,19.92,2.54,14.11,29.38,11.15,46.91-3.45,20.46-23.64,44.64-43,43.58s-38.53-26-41.45-43.58-8.77-44.37,11.16-46.91c19-2.42,26.57-14.46,30.29-14.46" transform="translate(-1934.09 -1052.91)"/><path class="cls-11" d="M2023.37,1092.79h2.74l2.07.22a26.71,26.71,0,0,1,9.1,2.78,27.46,27.46,0,0,1,10.71,9.66,26.85,26.85,0,0,1,4.22,11.6c.09.71.15,1.43.22,2.15v2.58l-.06.37c-.21,1.48-.3,3-.64,4.43a27.25,27.25,0,0,1-13.62,18.16,26,26,0,0,1-10,3.23l-2,.22h-2.74a2.66,2.66,0,0,0-.37-.07,26.18,26.18,0,0,1-8.77-2,27.51,27.51,0,0,1-13.73-12.22,26.59,26.59,0,0,1-3.24-10c-.08-.69-.15-1.38-.22-2.07v-2.74c0-.11,0-.22.06-.33.21-1.48.31-3,.64-4.43a27.71,27.71,0,0,1,24.27-21.44l1.36-.13m23,27.7a21.64,21.64,0,1,0-21.65,21.63,21.62,21.62,0,0,0,21.65-21.63" transform="translate(-1934.09 -1052.91)"/><path class="cls-11" d="M2020.49,1123c.72-.75,1.39-1.44,2.07-2.12,3.74-3.75,7.48-7.51,11.24-11.24a3.93,3.93,0,0,1,6.5,1.36,4,4,0,0,1-1.16,4.49l-12.5,12.5c-1.1,1.1-2.2,2.21-3.31,3.3a3.94,3.94,0,0,1-5.47,0c-2.57-2.51-5.13-5-7.69-7.53a3.95,3.95,0,1,1,5.51-5.66c1.53,1.5,3,3,4.55,4.54a3.29,3.29,0,0,1,.26.32" transform="translate(-1934.09 -1052.91)"/><path class="cls-12" d="M1939.27,1147.56l2.93-.86a1.22,1.22,0,0,1,1.51,1.52l-.85,2.93a1.13,1.13,0,0,0,0,.68l.85,2.93a1.21,1.21,0,0,1-1.51,1.51l-2.93-.85a1.13,1.13,0,0,0-.68,0l-2.93.85a1.22,1.22,0,0,1-1.52-1.51l.86-2.93a1.13,1.13,0,0,0,0-.68l-.86-2.93a1.23,1.23,0,0,1,1.52-1.52l2.93.86a1.13,1.13,0,0,0,.68,0" transform="translate(-1934.09 -1052.91)"/><path class="cls-12" d="M2097.45,1068.52l2.92-.86a1.22,1.22,0,0,1,1.52,1.51l-.86,2.93a1.16,1.16,0,0,0,0,.69l.86,2.92a1.23,1.23,0,0,1-1.52,1.52l-2.92-.86a1.16,1.16,0,0,0-.69,0l-2.93.86a1.22,1.22,0,0,1-1.51-1.52l.86-2.92a1.34,1.34,0,0,0,0-.69l-.86-2.93a1.22,1.22,0,0,1,1.51-1.51l2.93.86a1.34,1.34,0,0,0,.69,0" transform="translate(-1934.09 -1052.91)"/><path class="cls-12" d="M1962,1162.59l2.93-.86a1.22,1.22,0,0,1,1.51,1.52l-.85,2.93a1.13,1.13,0,0,0,0,.68l.85,2.93a1.21,1.21,0,0,1-1.51,1.51l-2.93-.85a1.13,1.13,0,0,0-.68,0l-2.93.85a1.22,1.22,0,0,1-1.52-1.51l.86-2.93a1.13,1.13,0,0,0,0-.68l-.86-2.93a1.23,1.23,0,0,1,1.52-1.52l2.93.86a1.13,1.13,0,0,0,.68,0" transform="translate(-1934.09 -1052.91)"/><path class="cls-12" d="M1953.84,1123.25l3.7-1.09a1.54,1.54,0,0,1,1.91,1.91l-1.08,3.71a1.57,1.57,0,0,0,0,.86l1.08,3.71a1.54,1.54,0,0,1-1.91,1.91l-3.7-1.09a1.61,1.61,0,0,0-.87,0l-3.7,1.09a1.54,1.54,0,0,1-1.91-1.91l1.08-3.71a1.57,1.57,0,0,0,0-.86l-1.08-3.71a1.54,1.54,0,0,1,1.91-1.91l3.7,1.09a1.61,1.61,0,0,0,.87,0" transform="translate(-1934.09 -1052.91)"/><path class="cls-12" d="M2056.8,1061.67l-2.93.86a1.22,1.22,0,0,1-1.51-1.52l.86-2.93a1.31,1.31,0,0,0,0-.68l-.86-2.93a1.22,1.22,0,0,1,1.51-1.51l2.93.85a1.16,1.16,0,0,0,.69,0l2.92-.85a1.22,1.22,0,0,1,1.52,1.51l-.86,2.93a1.13,1.13,0,0,0,0,.68l.86,2.93a1.23,1.23,0,0,1-1.52,1.52l-2.92-.86a1.16,1.16,0,0,0-.69,0" transform="translate(-1934.09 -1052.91)"/><path class="cls-12" d="M2085.86,1117l-3.7,1.08a1.53,1.53,0,0,1-1.91-1.91l1.08-3.7a1.61,1.61,0,0,0,0-.87l-1.08-3.7a1.53,1.53,0,0,1,1.91-1.91l3.7,1.08a1.61,1.61,0,0,0,.87,0l3.7-1.08a1.53,1.53,0,0,1,1.91,1.91l-1.08,3.7a1.61,1.61,0,0,0,0,.87l1.08,3.7a1.53,1.53,0,0,1-1.91,1.91l-3.7-1.08a1.61,1.61,0,0,0-.87,0" transform="translate(-1934.09 -1052.91)"/></g></g></svg>