<svg xmlns="http://www.w3.org/2000/svg" viewBox="0 0 168.29 316.14"><defs><style>.cls-1{opacity:0.1;}.cls-2{fill:#4fafde;}.cls-3{fill:#2c4770;}.cls-4{fill:#243c56;}.cls-5{fill:#305490;}.cls-6{fill:#eabc42;}.cls-7{fill:#305596;}.cls-8{fill:#fff;}.cls-9{fill:#333;}.cls-10{fill:#e0b33f;}</style></defs><title>Asset 31</title><g id="Layer_2" data-name="Layer 2"><g id="Capa_1" data-name="Capa 1"><ellipse class="cls-1" cx="97.74" cy="305.67" rx="70.55" ry="10.47"/><rect class="cls-2" x="32.1" y="33.64" width="19.06" height="67.28" rx="9.53" transform="translate(-6.47 4.46) rotate(-5.69)"/><rect class="cls-2" x="47.26" y="81.24" width="19.06" height="46.03" rx="8.31" transform="translate(-57.09 70.69) rotate(-45)"/><path class="cls-3" d="M128.86,188.08a8.85,8.85,0,0,0-8.82-8.82H74.21a8.84,8.84,0,0,0-8.81,8.82v27a8.66,8.66,0,0,0,1.46,4.84,8.85,8.85,0,0,0-.14,1.55V254a8.76,8.76,0,0,0,.78,3.61,8.73,8.73,0,0,0-.78,3.61v32.53a8.84,8.84,0,0,0,8.81,8.81H87a8.84,8.84,0,0,0,8.81-8.81V261.21A8.73,8.73,0,0,0,95,257.6,8.76,8.76,0,0,0,95.8,254V223.88h3V254a8.76,8.76,0,0,0,.78,3.61,8.73,8.73,0,0,0-.78,3.61v32.53a8.84,8.84,0,0,0,8.81,8.81h11.46a8.84,8.84,0,0,0,8.81-8.81V261.21a8.73,8.73,0,0,0-.78-3.61,8.76,8.76,0,0,0,.78-3.61V221.46a8.39,8.39,0,0,0-.22-2,8.7,8.7,0,0,0,1.22-4.44Z"/><path class="cls-4" d="M79.4,287.34h3.71A12.69,12.69,0,0,1,95.8,300v6.08a1.73,1.73,0,0,1-1.73,1.73H68.45a1.73,1.73,0,0,1-1.73-1.73V300A12.69,12.69,0,0,1,79.4,287.34Z"/><path class="cls-4" d="M111.46,287.34h3.71A12.69,12.69,0,0,1,127.86,300v6.08a1.73,1.73,0,0,1-1.73,1.73H100.51a1.73,1.73,0,0,1-1.73-1.73V300a12.69,12.69,0,0,1,12.69-12.69Z"/><path class="cls-5" d="M79.25,98.11h36a15.19,15.19,0,0,1,15.19,15.19v83.17A4.58,4.58,0,0,1,125.9,201H68.63a4.58,4.58,0,0,1-4.58-4.58V113.3A15.19,15.19,0,0,1,79.25,98.11Z"/><path class="cls-5" d="M56,103.67h0C52.1,107.91,48.6,111,51,113.24l10.51,9.59c2.44,2.22,7.55.59,11.42-3.64h0c3.87-4.24,5-9.48,2.58-11.7L65,97.9C62.61,95.67,59.84,99.44,56,103.67Z"/><rect class="cls-2" x="141.14" y="33.64" width="19.06" height="67.28" rx="9.53" transform="translate(293.91 149.18) rotate(-174.31)"/><rect class="cls-2" x="125.98" y="81.24" width="19.06" height="46.03" rx="8.31" transform="translate(157.6 273.79) rotate(-135)"/><path class="cls-5" d="M134.94,105.05h0c3.87,4.24,7.37,7.34,4.93,9.56l-10.51,9.59c-2.44,2.23-7.55.6-11.41-3.64h0c-3.87-4.23-5-9.47-2.59-11.7l10.51-9.59C128.31,97.05,131.08,100.81,134.94,105.05Z"/><path class="cls-6" d="M38.66,5.53c1.68,0,5.82,5.44,14.39,6.53,9,1.15,6.37,13.27,5,21.18-1.56,9.24-10.68,20.15-19.43,19.67S21.26,41.16,19.94,33.24s-4-20,5-21.18C33.55,11,37,5.53,38.66,5.53Z"/><path class="cls-7" d="M38.4,16.73h1.24l.93.09a12,12,0,0,1,4.11,1.26,12.4,12.4,0,0,1,4.84,4.36,12,12,0,0,1,1.9,5.24c0,.32.07.64.1,1v1.17l0,.17c-.09.67-.13,1.34-.28,2a12.3,12.3,0,0,1-6.15,8.19,11.63,11.63,0,0,1-4.5,1.46l-.92.1H38.4l-.16,0a11.66,11.66,0,0,1-4-.9,12.41,12.41,0,0,1-6.2-5.52,11.92,11.92,0,0,1-1.46-4.5c0-.31-.07-.62-.1-.93V28.61l0-.15c.09-.67.14-1.34.28-2a12.53,12.53,0,0,1,11-9.68Zm10.38,12.5A9.77,9.77,0,1,0,39,39,9.75,9.75,0,0,0,48.78,29.23Z"/><path class="cls-7" d="M37.1,30.38l.94-1c1.69-1.69,3.37-3.39,5.07-5.07A1.79,1.79,0,1,1,45.52,27l-5.64,5.64c-.5.5-1,1-1.5,1.49a1.77,1.77,0,0,1-2.46,0l-3.48-3.4a1.79,1.79,0,0,1-.14-2.4,1.77,1.77,0,0,1,2.63-.15c.69.67,1.37,1.36,2,2C37,30.27,37,30.31,37.1,30.38Z"/><circle class="cls-2" cx="96.58" cy="70.75" r="25.06"/><path class="cls-8" d="M97.34,88.18c-8.53.34-15.41-4.41-15.67-10.83l2.8-.11c.18,4.56,6,8.18,12.75,7.91s12.26-4.35,12.07-8.91l2.8-.11C112.35,82.55,105.87,87.84,97.34,88.18Z"/><path class="cls-9" d="M88.62,41.2A24.54,24.54,0,0,0,71.28,59.69,32.92,32.92,0,0,0,71,70.76c.18,1.29,1.05,3.22.93,4.5,1.65-16.77,7.46-19.06,7.81-19.34,9.35,3.52,20.06,2.11,29-2.33l1-.48a30,30,0,0,0,5.13,9.4A24.88,24.88,0,0,1,121,75.42c.17,1.07,1.72-3.66,2.31-10.45C123.15,47.52,104.85,36.39,88.62,41.2Z"/><path class="cls-10" d="M2.57,33.09,4,32.66a.61.61,0,0,1,.75.75l-.43,1.46a.65.65,0,0,0,0,.34l.43,1.46a.61.61,0,0,1-.75.75L2.57,37a.65.65,0,0,0-.34,0l-1.45.43A.6.6,0,0,1,0,36.67l.42-1.46a.65.65,0,0,0,0-.34L0,33.41a.6.6,0,0,1,.75-.75l1.45.43A.65.65,0,0,0,2.57,33.09Z"/><path class="cls-10" d="M72.91,7.76l1.45-.43a.6.6,0,0,1,.75.75l-.42,1.46a.5.5,0,0,0,0,.34l.42,1.45a.6.6,0,0,1-.75.75l-1.45-.42a.65.65,0,0,0-.34,0l-1.46.42a.6.6,0,0,1-.75-.75l.42-1.45a.5.5,0,0,0,0-.34l-.42-1.46a.6.6,0,0,1,.75-.75l1.46.43A.65.65,0,0,0,72.91,7.76Z"/><path class="cls-10" d="M13.87,40.56l1.45-.43a.6.6,0,0,1,.75.75l-.42,1.46a.5.5,0,0,0,0,.34l.42,1.45a.6.6,0,0,1-.75.75l-1.45-.42a.65.65,0,0,0-.34,0l-1.46.42a.6.6,0,0,1-.75-.75l.43-1.45a.65.65,0,0,0,0-.34l-.43-1.46a.6.6,0,0,1,.75-.75l1.46.43A.65.65,0,0,0,13.87,40.56Z"/><path class="cls-10" d="M9.81,21l1.84-.54a.77.77,0,0,1,.95,1l-.54,1.84a.79.79,0,0,0,0,.43l.54,1.84a.77.77,0,0,1-.95.95l-1.84-.54a.79.79,0,0,0-.43,0l-1.84.54a.77.77,0,0,1-1-.95l.54-1.84a.79.79,0,0,0,0-.43l-.54-1.84a.77.77,0,0,1,1-1L9.38,21A.79.79,0,0,0,9.81,21Z"/><path class="cls-10" d="M52.71,4.35l-1.45.43A.61.61,0,0,1,50.5,4l.43-1.46a.65.65,0,0,0,0-.34L50.5.78A.61.61,0,0,1,51.26,0l1.45.42a.65.65,0,0,0,.34,0L54.51,0a.6.6,0,0,1,.75.75l-.43,1.45a.65.65,0,0,0,0,.34L55.26,4a.61.61,0,0,1-.75.75l-1.46-.43A.65.65,0,0,0,52.71,4.35Z"/><path class="cls-10" d="M67.15,31.82l-1.84.54a.77.77,0,0,1-1-.95l.54-1.84a.79.79,0,0,0,0-.43l-.54-1.84a.77.77,0,0,1,1-.95l1.84.54a.79.79,0,0,0,.43,0l1.84-.54a.77.77,0,0,1,1,.95l-.54,1.84a.79.79,0,0,0,0,.43l.54,1.84a.77.77,0,0,1-1,.95l-1.84-.54A.79.79,0,0,0,67.15,31.82Z"/></g></g></svg>