<svg xmlns="http://www.w3.org/2000/svg" xmlns:xlink="http://www.w3.org/1999/xlink" viewBox="0 0 2490 1080"><defs><style>.cls-1{fill:url(#Degradado_sin_nombre_19);}.cls-2{fill:url(#Degradado_sin_nombre_21);}.cls-3{fill:url(#Degradado_sin_nombre_23);}.cls-4{fill:url(#Degradado_sin_nombre_59);}.cls-20,.cls-47,.cls-5{fill:none;}.cls-6{isolation:isolate;}.cls-7{clip-path:url(#clip-path);}.cls-8{fill:#f9e5c1;}.cls-9{fill:#fefefe;}.cls-10{fill:#e8e0dd;}.cls-11{fill:#e8d6cd;}.cls-12{fill:#a8968e;}.cls-13{fill:#a5a2a0;}.cls-14{opacity:0.6;}.cls-15{clip-path:url(#clip-path-4);}.cls-16{clip-path:url(#clip-path-5);}.cls-17{mask:url(#mask);}.cls-18{fill:url(#Degradado_sin_nombre_18);}.cls-19{fill:#f4efed;}.cls-20{stroke:#a8968e;stroke-width:2.38px;}.cls-20,.cls-47{stroke-miterlimit:10;}.cls-21{fill:#ff8e7d;}.cls-22{clip-path:url(#clip-path-7);}.cls-23{clip-path:url(#clip-path-8);}.cls-24{mask:url(#mask-2);}.cls-25{fill:url(#Degradado_sin_nombre_20);}.cls-26{fill:#a58778;}.cls-27{fill:#bba497;}.cls-28{fill:#a19db9;}.cls-29{clip-path:url(#clip-path-9);}.cls-30{opacity:0.18;}.cls-31{clip-path:url(#clip-path-10);}.cls-32{fill:#fcceb6;}.cls-33{clip-path:url(#clip-path-11);}.cls-34{clip-path:url(#clip-path-12);}.cls-35{clip-path:url(#clip-path-13);}.cls-36{clip-path:url(#clip-path-14);}.cls-37{clip-path:url(#clip-path-15);}.cls-38{clip-path:url(#clip-path-16);}.cls-39{clip-path:url(#clip-path-17);}.cls-40{clip-path:url(#clip-path-18);}.cls-41{clip-path:url(#clip-path-19);}.cls-42{clip-path:url(#clip-path-20);}.cls-43{clip-path:url(#clip-path-21);}.cls-44{clip-path:url(#clip-path-22);}.cls-45{clip-path:url(#clip-path-23);}.cls-46{clip-path:url(#clip-path-24);}.cls-47{stroke:#8c746d;stroke-width:3.12px;}.cls-48{fill:#8c746d;}.cls-49{fill:#96939e;}.cls-50{fill:#7fa454;}.cls-51{fill:#7270a1;}.cls-52{fill:#b2d2ea;}.cls-53{fill:#f4f4f4;}.cls-54{opacity:0.24;}.cls-55{clip-path:url(#clip-path-26);}.cls-56{fill:#bcb4b1;}.cls-57{opacity:0.2;mix-blend-mode:multiply;}.cls-58{clip-path:url(#clip-path-27);}.cls-59{fill:#b5a9a5;}.cls-60{clip-path:url(#clip-path-28);}.cls-61{fill:#5b5857;}.cls-62{fill:#d1d0cb;}.cls-63{fill:#e8e8e8;}.cls-64{fill:#fff;}.cls-65{fill:#f4f2f2;}.cls-66{fill:#e86300;}.cls-67{fill:#ffe252;}.cls-68{fill:#e7ff80;}.cls-69{opacity:0.72;}.cls-70{clip-path:url(#clip-path-29);}.cls-71{clip-path:url(#clip-path-30);}.cls-72{clip-path:url(#clip-path-31);}.cls-73{clip-path:url(#clip-path-32);}.cls-74{clip-path:url(#clip-path-33);}.cls-75{clip-path:url(#clip-path-34);}.cls-76{fill:#bace65;}.cls-77{fill:#727070;}.cls-78{fill:#5f6684;}.cls-79{fill:#1f222b;}.cls-80{opacity:0.22;}.cls-81{clip-path:url(#clip-path-35);}.cls-82{fill:#7f7674;}.cls-83{fill:#c9b7b1;}.cls-84{clip-path:url(#clip-path-37);}.cls-85{clip-path:url(#clip-path-38);}.cls-86{mask:url(#mask-3);}.cls-87{fill:url(#Degradado_sin_nombre_22);}.cls-88{clip-path:url(#clip-path-40);}.cls-89{clip-path:url(#clip-path-41);}.cls-90{clip-path:url(#clip-path-42);}.cls-91{clip-path:url(#clip-path-43);}.cls-92{clip-path:url(#clip-path-44);}.cls-93{clip-path:url(#clip-path-45);}.cls-94{fill:#8e8583;}.cls-95{fill:#998e8c;}.cls-96{clip-path:url(#clip-path-46);}.cls-97{fill:#dbb26a;}.cls-98{fill:#a3af75;}.cls-99{fill:#ce9b49;}.cls-100{clip-path:url(#clip-path-47);}.cls-101{fill:#c9c9c9;}.cls-102{fill:#e0e0e0;}.cls-103{fill:#ebebeb;}.cls-104{opacity:0.1;}.cls-105{clip-path:url(#clip-path-49);}.cls-106{fill:#305596;}.cls-107{clip-path:url(#clip-path-50);}.cls-108{fill:#4198b7;}.cls-109{fill:#191919;}.cls-110{opacity:0.93;}.cls-110,.cls-112{mix-blend-mode:soft-light;}.cls-111{clip-path:url(#clip-path-51);}.cls-112{opacity:0.4;}.cls-113{clip-path:url(#clip-path-52);}.cls-114{fill:#3f2b4d;}.cls-115{fill:#222530;}.cls-116{fill:#181a1e;}.cls-117{fill:#4da9dd;}.cls-118{fill:#308ab2;}.cls-119{clip-path:url(#clip-path-53);}.cls-120{fill:#58b7e0;}.cls-121{fill:#231d18;}.cls-122{fill:#28211a;}.cls-123{fill:#233142;}.cls-124{clip-path:url(#clip-path-54);}.cls-125{clip-path:url(#clip-path-55);}.cls-126{fill:#15171e;}.cls-127{fill:#1c1f2d;}.cls-128{fill:#232323;}.cls-129{fill:#1e1d1e;}.cls-130{opacity:0.95;}.cls-131{clip-path:url(#clip-path-56);}.cls-132{clip-path:url(#clip-path-59);}.cls-133{clip-path:url(#clip-path-60);}.cls-134{mask:url(#mask-4);}.cls-135{fill:url(#Degradado_sin_nombre_58);}.cls-136{clip-path:url(#clip-path-61);}</style><linearGradient id="Degradado_sin_nombre_19" y1="1080" x2="1" y2="1080" gradientTransform="translate(2350.56 188707.21) rotate(180) scale(174.55)" gradientUnits="userSpaceOnUse"><stop offset="0" stop-color="#fff"/><stop offset="1"/></linearGradient><linearGradient id="Degradado_sin_nombre_21" y1="1080" y2="1080" gradientTransform="matrix(-104.43, 0, 0, -104.43, 2365.78, 113195.94)" xlink:href="#Degradado_sin_nombre_19"/><linearGradient id="Degradado_sin_nombre_23" y1="1080.33" y2="1080.33" gradientTransform="translate(1377.76 480450.52) rotate(180) scale(444.28)" xlink:href="#Degradado_sin_nombre_19"/><linearGradient id="Degradado_sin_nombre_59" x1="-102" y1="2180.33" x2="-101" y2="2180.33" gradientTransform="translate(-44040.47 970254.93) rotate(180) scale(444.28)" xlink:href="#Degradado_sin_nombre_19"/><clipPath id="clip-path"><rect class="cls-5" width="2490" height="1080"/></clipPath><clipPath id="clip-path-4"><rect class="cls-5" x="2274.57" y="107.53" width="90.05" height="177.11"/></clipPath><clipPath id="clip-path-5"><path class="cls-5" d="M2364.62,284.63c-2,0-89.33-43.47-89.33-43.47l-.72-133.63h90Z"/></clipPath><mask id="mask" x="2209.03" y="74.2" width="221.13" height="243.75" maskUnits="userSpaceOnUse"><rect class="cls-1" x="2220.39" y="119.07" width="198.4" height="154.02" transform="translate(1201.6 2237.91) rotate(-66.13)"/></mask><linearGradient id="Degradado_sin_nombre_18" y1="1080" x2="1" y2="1080" gradientTransform="translate(2350.55 188707.24) rotate(-180) scale(174.55)" gradientUnits="userSpaceOnUse"><stop offset="0" stop-color="#fff"/><stop offset="1" stop-color="#f2eae9"/></linearGradient><clipPath id="clip-path-7"><rect class="cls-5" x="2307.19" y="381.48" width="60.85" height="66.74"/></clipPath><clipPath id="clip-path-8"><polygon class="cls-5" points="2367.87 448.23 2307.19 416.98 2307.19 381.48 2368.03 381.48 2367.87 448.23"/></clipPath><mask id="mask-2" x="2275.25" y="352.36" width="124.73" height="124.98" maskUnits="userSpaceOnUse"><rect class="cls-2" x="2292.68" y="370.53" width="89.86" height="88.64" transform="translate(611.59 2044.99) rotate(-53.43)"/></mask><linearGradient id="Degradado_sin_nombre_20" y1="1080" y2="1080" gradientTransform="matrix(-104.43, 0, 0, -104.43, 2365.78, 113195.94)" xlink:href="#Degradado_sin_nombre_18"/><clipPath id="clip-path-9"><polygon class="cls-5" points="2163.5 673.73 2163.5 743.75 2163.5 905.89 2369.13 905.89 2369.13 744.44 2369.13 673.73 2163.5 673.73"/></clipPath><clipPath id="clip-path-10"><rect class="cls-5" x="2160.04" y="759.31" width="209.61" height="19.2"/></clipPath><clipPath id="clip-path-11"><rect class="cls-5" x="2257.53" y="672.71" width="114.09" height="27.86"/></clipPath><clipPath id="clip-path-12"><rect class="cls-5" x="2145.91" y="682.09" width="223.07" height="35.5"/></clipPath><clipPath id="clip-path-13"><rect class="cls-5" x="2160.55" y="703.17" width="112.63" height="47.85"/></clipPath><clipPath id="clip-path-14"><rect class="cls-5" x="2165.72" y="725.6" width="69.49" height="21.79"/></clipPath><clipPath id="clip-path-15"><rect class="cls-5" x="2303.95" y="737.1" width="68.63" height="6.87"/></clipPath><clipPath id="clip-path-16"><rect class="cls-5" x="2163.72" y="771.71" width="208.43" height="45.03"/></clipPath><clipPath id="clip-path-17"><rect class="cls-5" x="2209.06" y="745.86" width="121.28" height="17.09"/></clipPath><clipPath id="clip-path-18"><rect class="cls-5" x="2166.1" y="787.77" width="141.17" height="40.89"/></clipPath><clipPath id="clip-path-19"><rect class="cls-5" x="2166.6" y="799.61" width="100.89" height="25.85"/></clipPath><clipPath id="clip-path-20"><rect class="cls-5" x="2164.88" y="831.91" width="205.44" height="27.99"/></clipPath><clipPath id="clip-path-21"><rect class="cls-5" x="2155.51" y="823.07" width="94.45" height="13.19"/></clipPath><clipPath id="clip-path-22"><rect class="cls-5" x="2150.43" y="849.9" width="221.39" height="19.72"/></clipPath><clipPath id="clip-path-23"><rect class="cls-5" x="2155.96" y="876.88" width="217.4" height="27.37"/></clipPath><clipPath id="clip-path-24"><rect class="cls-5" x="2192.64" y="895.69" width="146.1" height="14.23"/></clipPath><clipPath id="clip-path-26"><rect class="cls-5" x="2180.77" y="634.12" width="50.9" height="40.79"/></clipPath><clipPath id="clip-path-27"><rect class="cls-5" x="783.45" y="892.8" width="603.86" height="45.07"/></clipPath><clipPath id="clip-path-28"><rect class="cls-5" x="1489.45" y="892.8" width="603.86" height="45.07"/></clipPath><clipPath id="clip-path-29"><rect class="cls-5" x="1703.16" y="600.84" width="105.54" height="2.89"/></clipPath><clipPath id="clip-path-30"><rect class="cls-5" x="1703.16" y="607.59" width="105.54" height="2.89"/></clipPath><clipPath id="clip-path-31"><rect class="cls-5" x="1703.16" y="636.28" width="105.54" height="2.89"/></clipPath><clipPath id="clip-path-32"><rect class="cls-5" x="1703.16" y="643.04" width="105.54" height="2.89"/></clipPath><clipPath id="clip-path-33"><rect class="cls-5" x="1703.16" y="613.77" width="105.54" height="2.89"/></clipPath><clipPath id="clip-path-34"><rect class="cls-5" x="1745.25" y="619.8" width="63.45" height="2.89"/></clipPath><clipPath id="clip-path-35"><rect class="cls-5" x="1766.65" y="790.89" width="142.63" height="14.81"/></clipPath><clipPath id="clip-path-37"><rect class="cls-5" x="611.21" y="232.56" width="849.97" height="505.3"/></clipPath><clipPath id="clip-path-38"><polygon class="cls-5" points="1024.19 232.56 611.21 737.86 1456.66 725.21 1461.18 232.56 1024.19 232.56"/></clipPath><mask id="mask-3" x="368.35" y="-175.95" width="1335.68" height="1322.32" maskUnits="userSpaceOnUse"><rect class="cls-3" x="578.67" y="-6.25" width="915.06" height="982.92" transform="matrix(0.6, -0.8, 0.8, 0.6, 25.11, 1020.79)"/></mask><linearGradient id="Degradado_sin_nombre_22" y1="1080.33" y2="1080.33" gradientTransform="translate(1377.76 480450.52) rotate(180) scale(444.28)" xlink:href="#Degradado_sin_nombre_18"/><clipPath id="clip-path-40"><rect class="cls-5" x="908.9" y="600.84" width="105.54" height="2.89"/></clipPath><clipPath id="clip-path-41"><rect class="cls-5" x="908.9" y="607.59" width="105.54" height="2.89"/></clipPath><clipPath id="clip-path-42"><rect class="cls-5" x="908.9" y="636.28" width="105.54" height="2.89"/></clipPath><clipPath id="clip-path-43"><rect class="cls-5" x="908.9" y="643.04" width="105.54" height="2.89"/></clipPath><clipPath id="clip-path-44"><rect class="cls-5" x="908.9" y="613.77" width="105.54" height="2.89"/></clipPath><clipPath id="clip-path-45"><rect class="cls-5" x="950.98" y="619.8" width="63.46" height="2.89"/></clipPath><clipPath id="clip-path-46"><rect class="cls-5" x="1195.47" y="789" width="126.92" height="14.81"/></clipPath><clipPath id="clip-path-47"><rect class="cls-5" x="965.81" y="788.41" width="142.63" height="14.81"/></clipPath><clipPath id="clip-path-49"><rect class="cls-5" x="-5.48" y="-5.43" width="2500.96" height="1090.86"/></clipPath><clipPath id="clip-path-50"><rect class="cls-5" x="163.57" y="951.7" width="569.47" height="84.76"/></clipPath><clipPath id="clip-path-51"><rect class="cls-5" x="306.39" y="615.43" width="60.68" height="361.17"/></clipPath><clipPath id="clip-path-52"><rect class="cls-5" x="271.98" y="667.14" width="81" height="41.48"/></clipPath><clipPath id="clip-path-53"><rect class="cls-5" x="259.33" y="496.12" width="105.25" height="88.44"/></clipPath><clipPath id="clip-path-54"><rect class="cls-5" x="542.45" y="602.79" width="62.71" height="373.25"/></clipPath><clipPath id="clip-path-55"><rect class="cls-5" x="557.01" y="656.23" width="83.71" height="42.87"/></clipPath><clipPath id="clip-path-56"><rect class="cls-5" x="-102" y="1100" width="2490" height="1080"/></clipPath><clipPath id="clip-path-59"><rect class="cls-5" x="509.21" y="1332.56" width="849.97" height="505.3"/></clipPath><clipPath id="clip-path-60"><polygon class="cls-5" points="922.19 1332.56 509.21 1837.86 1354.66 1825.21 1359.18 1332.56 922.19 1332.56"/></clipPath><mask id="mask-4" x="266.35" y="924.05" width="1335.68" height="1322.32" maskUnits="userSpaceOnUse"><rect class="cls-4" x="476.67" y="1093.75" width="915.06" height="982.92" transform="matrix(0.6, -0.8, 0.8, 0.6, -894.03, 1377.36)"/></mask><linearGradient id="Degradado_sin_nombre_58" x1="-102" y1="2180.33" x2="-101" y2="2180.33" gradientTransform="translate(-44040.47 970254.93) rotate(180) scale(444.28)" xlink:href="#Degradado_sin_nombre_18"/><clipPath id="clip-path-61"><rect class="cls-5" x="2408" y="1100" width="2490" height="1080"/></clipPath></defs><title>Mesa de trabajo 2</title><g class="cls-6"><g id="Capa_1" data-name="Capa 1"><g class="cls-7"><g class="cls-7"><rect class="cls-8" width="2490" height="1080"/><rect class="cls-9" x="1634.72" width="284.06" height="721.06"/><rect class="cls-9" x="730.28" width="85.69" height="721.06"/><rect class="cls-9" x="1634.74" width="414.59" height="721.06"/><rect class="cls-10" x="1632.55" y="358.37" width="423.44" height="13.17"/><rect class="cls-10" x="1632.55" y="166.61" width="423.44" height="3.26"/><rect class="cls-10" x="1632.55" y="553.68" width="423.44" height="3.26"/><polygon class="cls-10" points="1836.24 0 1836.24 731.18 1849.41 729.16 1849.41 0 1836.24 0"/><rect class="cls-10" x="1957.61" width="3.66" height="733.71"/><rect class="cls-10" x="1729.83" width="3.66" height="733.71"/><rect class="cls-9" x="402.65" width="414.6" height="721.06"/><rect class="cls-10" x="400.46" y="358.37" width="423.44" height="13.17"/><rect class="cls-10" x="400.46" y="166.61" width="423.44" height="3.26"/><rect class="cls-10" x="400.46" y="553.68" width="423.44" height="3.26"/><rect class="cls-10" x="604.15" width="13.17" height="721.91"/><rect class="cls-10" x="497.74" width="3.66" height="733.71"/><rect class="cls-9" x="1011.93" width="414.6" height="721.06"/><rect class="cls-10" x="1009.75" y="358.37" width="423.44" height="13.17"/><rect class="cls-10" x="1009.75" y="166.61" width="423.44" height="3.26"/><rect class="cls-10" x="1009.75" y="553.68" width="423.44" height="3.26"/><rect class="cls-10" x="1213.44" width="13.17" height="721.91"/><rect class="cls-10" x="1334.81" width="3.66" height="733.71"/><rect class="cls-10" x="1107.03" width="3.66" height="733.71"/><rect class="cls-11" x="2214.4" y="105.76" width="152.08" height="226.35"/><path class="cls-12" d="M2212.64,104h155.61V333.87H2212.64Zm152.08,3.52H2216.17V330.35h148.55Z"/><rect class="cls-9" x="2229.45" y="119.72" width="121.72" height="198.27"/><rect class="cls-13" x="2256.27" y="175.93" width="68.35" height="80.11"/><g class="cls-7"><g class="cls-14"><g class="cls-15"><g class="cls-16"><g class="cls-17"><rect class="cls-18" x="2220.39" y="119.07" width="198.4" height="154.02" transform="translate(1201.6 2237.91) rotate(-66.13)"/></g></g></g></g></g><rect class="cls-19" x="2211.35" y="380.02" width="157.92" height="69.97"/><rect class="cls-20" x="2211.35" y="380.02" width="157.92" height="69.97"/><rect class="cls-21" x="2235.66" y="405.75" width="105.48" height="22.46"/><g class="cls-7"><g class="cls-14"><g class="cls-22"><g class="cls-23"><g class="cls-24"><rect class="cls-25" x="2292.68" y="370.53" width="89.86" height="88.64" transform="translate(611.59 2044.99) rotate(-53.43)"/></g></g></g></g></g><rect class="cls-26" y="865.61" width="2490" height="6.33"/><rect class="cls-27" y="872.16" width="2490" height="207.84"/><polygon class="cls-28" points="2229.11 673.73 2229.11 743.75 2229.11 905.89 2369.13 905.89 2369.13 744.44 2369.13 673.73 2229.11 673.73"/><g class="cls-29"><g class="cls-30"><g class="cls-31"><path class="cls-32" d="M2160,761.58a10.44,10.44,0,0,1,2.12-.51l2.6-.5c1-.2,2.23-.31,3.58-.5a119.06,119.06,0,0,1,23-.4c4.85.39,10.15,1,15.79,1.89s11.62,2.09,17.89,3.45c12.54,2.7,26.16,6.33,40.68,8.9s28.59,3.77,41.27,2.57a96.29,96.29,0,0,0,17.72-3.29c2.68-.89,5.29-1.69,7.72-2.69s4.76-2,7-3c4.44-1.94,8.49-3.67,12.16-4.9a45.52,45.52,0,0,1,9.68-2.25,16.74,16.74,0,0,1,1.92-.16c.61,0,1.17-.09,1.7-.06,1,0,1.94,0,2.65.13a10.25,10.25,0,0,1,2.16.36c0,.22-3-.44-8.35.35a48.07,48.07,0,0,0-9.46,2.49c-3.6,1.29-7.58,3.08-12,5.09-2.21,1-4.52,2.06-7,3.08s-5.09,1.89-7.81,2.82a95.76,95.76,0,0,1-18,3.49c-12.86,1.3-27.11.15-41.7-2.46s-28.23-6.26-40.71-9c-6.24-1.4-12.2-2.61-17.79-3.58s-10.86-1.61-15.66-2.07a130.52,130.52,0,0,0-22.83-.12c-1.35.14-2.55.2-3.58.34l-2.61.35a11.42,11.42,0,0,1-2.18.19"/></g></g><g class="cls-30"><g class="cls-33"><path class="cls-32" d="M2257.53,672.71a27.51,27.51,0,0,1,4,2.59l2.07,1.45c.77.52,1.64,1,2.55,1.61,1.84,1.12,3.87,2.52,6.29,3.77l3.73,2.06c1.31.71,2.72,1.32,4.16,2,2.84,1.46,6,2.68,9.34,4a131.16,131.16,0,0,0,45.61,8.81c3.58,0,7,0,10.18-.28,1.59-.12,3.14-.16,4.61-.34l4.23-.52c2.71-.26,5.11-.8,7.24-1.16,1.06-.19,2.06-.34,3-.53l2.46-.59a26.15,26.15,0,0,1,4.66-.91,26.59,26.59,0,0,1-4.5,1.53l-2.45.72c-.9.24-1.89.43-3,.67-2.13.45-4.54,1.07-7.26,1.41l-4.26.63c-1.49.21-3,.28-4.65.43-3.22.36-6.67.36-10.3.44a125.61,125.61,0,0,1-46.13-8.91c-3.34-1.43-6.54-2.71-9.39-4.24-1.44-.73-2.86-1.38-4.16-2.13l-3.72-2.17c-2.4-1.32-4.4-2.8-6.21-4-.9-.61-1.75-1.17-2.5-1.72s-1.39-1.11-2-1.58a26.21,26.21,0,0,1-3.61-3.1"/></g></g><g class="cls-30"><g class="cls-34"><path class="cls-32" d="M2145.91,706.74a12.32,12.32,0,0,1,1.64-1.76l2.07-2.06c.82-.82,1.89-1.61,3-2.59a79.82,79.82,0,0,1,22-12.65,86.1,86.1,0,0,1,37.15-5.35,77.88,77.88,0,0,1,21.75,5c7.28,2.74,14.24,6.78,21.3,10.83s14,8,21.14,10.58c.89.33,1.79.62,2.68.92s1.82.5,2.71.76l2.69.71c.89.24,1.81.36,2.71.54l2.69.49c.88.18,1.79.23,2.68.35,1.78.2,3.54.45,5.3.51a185.67,185.67,0,0,0,20,.11c6.28-.22,12.13-.49,17.49-.55a134.27,134.27,0,0,1,14.46.51l3.07.3c1,.13,1.92.3,2.82.44l2.59.42c.82.14,1.58.37,2.31.53,1.46.37,2.76.65,3.87,1l2.75,1a13.2,13.2,0,0,1,2.24.89,14.51,14.51,0,0,1-2.34-.57l-2.78-.81c-1.11-.28-2.42-.51-3.87-.83a113.5,113.5,0,0,0-25.1-1.67c-5.33.13-11.17.47-17.45.75a182.2,182.2,0,0,1-20.13,0c-1.78-.05-3.57-.29-5.39-.49-.9-.11-1.82-.16-2.73-.34l-2.74-.49c-.92-.18-1.85-.29-2.76-.53l-2.76-.73c-.92-.25-1.86-.45-2.78-.76s-1.83-.6-2.75-.93c-7.32-2.66-14.33-6.61-21.4-10.68s-13.94-8-21.06-10.75a77.09,77.09,0,0,0-21.31-4.95,86,86,0,0,0-36.61,4.93,82.81,82.81,0,0,0-22,12.07c-1.16.93-2.26,1.68-3.11,2.45s-1.57,1.41-2.17,1.93a13.44,13.44,0,0,1-1.86,1.53"/></g></g><g class="cls-30"><g class="cls-35"><path class="cls-32" d="M2243.08,750.57c0-.15,2.3.09,6.41-.21a45.91,45.91,0,0,0,16.66-4.47,13.46,13.46,0,0,0,4.55-3.11,4.9,4.9,0,0,0,.71-5.24,13.52,13.52,0,0,0-4.09-4.84c-.88-.7-1.83-1.34-2.83-2l-3-2a245.39,245.39,0,0,0-27.61-15.61,105.67,105.67,0,0,0-15.15-6.16,47.49,47.49,0,0,0-14.88-2.22,40.63,40.63,0,0,0-13.33,2.68,63,63,0,0,0-10.72,5.3c-3.15,1.91-5.86,3.85-8.21,5.61s-4.32,3.33-6,4.62l-3.72,3a6.42,6.42,0,0,1-1.36,1,6.7,6.7,0,0,1,1.15-1.21c.79-.75,2-1.83,3.53-3.21s3.48-3,5.8-4.85a92.93,92.93,0,0,1,8.15-5.86,61.45,61.45,0,0,1,10.85-5.59,41.71,41.71,0,0,1,13.77-2.92,48.23,48.23,0,0,1,15.38,2.2,104.07,104.07,0,0,1,15.4,6.22,230,230,0,0,1,27.72,15.83l3,2c1,.67,2,1.35,2.9,2.11a14.78,14.78,0,0,1,4.44,5.43,6.47,6.47,0,0,1,.45,3.5,6.23,6.23,0,0,1-1.45,3.06,14.27,14.27,0,0,1-5,3.35,44.21,44.21,0,0,1-17.13,4.07,39.19,39.19,0,0,1-4.79-.15,6.32,6.32,0,0,1-1.65-.28"/></g></g><g class="cls-30"><g class="cls-36"><path class="cls-32" d="M2175.35,747.37a33.54,33.54,0,0,1,5.16-1.36c3.34-.77,8.19-1.83,14.18-3.11l21.08-4.4,12.46-2.55c1.06-.23,2.22-.43,3.2-.68s1.87-.73,2.08-1.43-.11-1.47-.88-2.13a7.8,7.8,0,0,0-2.76-1.47,72.29,72.29,0,0,0-25.77-2.93l-3,.23c-1,.11-1.92.26-2.86.38-1.9.21-3.69.66-5.45,1s-3.42.82-5,1.3-3.12.92-4.53,1.49a75.16,75.16,0,0,0-13,6.19c-.75.41-1.39.82-1.93,1.18l-1.41.89a4.69,4.69,0,0,1-1.22.66c0-.05.32-.36,1-.92l1.32-1c.53-.41,1.14-.86,1.87-1.32a66.21,66.21,0,0,1,12.94-6.72c1.42-.62,3-1.06,4.57-1.62s3.31-.94,5.07-1.41,3.61-.83,5.53-1.07c1-.14,1.93-.3,2.92-.42l3-.28a71.79,71.79,0,0,1,12.83.16,72.82,72.82,0,0,1,13.52,2.72,9.33,9.33,0,0,1,3.35,1.8,4.79,4.79,0,0,1,1.26,1.64,3,3,0,0,1,.07,2.26,3.33,3.33,0,0,1-1.39,1.68,6.46,6.46,0,0,1-1.78.75c-1.18.3-2.22.46-3.32.69L2216.07,740,2194.92,744c-6,1.13-10.9,2-14.29,2.6a33.61,33.61,0,0,1-5.28.74"/></g></g><g class="cls-30"><g class="cls-37"><path class="cls-32" d="M2304,743.94a8.9,8.9,0,0,1,2.51-1.16c.83-.34,1.85-.71,3.05-1.08s2.57-.85,4.11-1.23,3.22-.85,5.05-1.21,3.8-.73,5.88-1.07a108.68,108.68,0,0,1,13.64-1.09,109.93,109.93,0,0,1,13.66.77c2.08.3,4.07.55,5.9.93s3.54.72,5.08,1.1,2.93.78,4.14,1.13,2.24.7,3.07,1a9.16,9.16,0,0,1,2.53,1.1c-.08.26-3.82-.88-10-2.12-1.54-.3-3.23-.63-5.06-.89s-3.78-.52-5.84-.77a126.24,126.24,0,0,0-13.47-.63,127.52,127.52,0,0,0-13.46.94c-2.05.3-4,.55-5.82.91s-3.5.67-5,1c-6.13,1.38-9.85,2.6-9.94,2.35"/></g></g><g class="cls-30"><g class="cls-38"><path class="cls-32" d="M2372.14,816.74c-.08,0-.26-.73-.88-2a16.9,16.9,0,0,0-3.77-5,30.61,30.61,0,0,0-8.35-5.31,68.36,68.36,0,0,0-12.51-4.26,138.83,138.83,0,0,0-15.84-2.73c-5.75-.7-11.94-1.25-18.43-2.1-13.05-1.59-27-5.42-41.43-9.76-7.23-2.15-14.27-4.27-21.12-6.08s-13.53-3.27-20-4.29A182.15,182.15,0,0,0,2195.4,773a192.73,192.73,0,0,0-23.22,2.21c-2.72.44-4.83.79-6.26,1.06a11.2,11.2,0,0,1-2.2.29,11.79,11.79,0,0,1,2.13-.61c1.41-.37,3.51-.83,6.23-1.36a166.49,166.49,0,0,1,23.28-2.74,177,177,0,0,1,34.73,1.85,199.55,199.55,0,0,1,20.12,4.23c6.9,1.8,14,3.91,21.18,6.06,14.42,4.34,28.25,8.18,41.17,9.84,6.44.88,12.63,1.48,18.4,2.25a133.52,133.52,0,0,1,15.95,3,66.67,66.67,0,0,1,12.61,4.55,30.37,30.37,0,0,1,8.41,5.68,15.74,15.74,0,0,1,3.63,5.28,10.59,10.59,0,0,1,.5,1.59c.08.37.11.56.08.57"/></g></g><g class="cls-30"><g class="cls-39"><path class="cls-32" d="M2209.06,746.91c0-.06.41-.19,1.23-.4A25.84,25.84,0,0,1,2214,746a42.63,42.63,0,0,1,13.58,1.34c5.64,1.34,12,4,19,6.8a104.42,104.42,0,0,0,11.13,3.9l1.48.44c.49.14,1,.24,1.5.36l3.06.72c1,.22,2.08.38,3.13.57s2.11.39,3.19.49a89.49,89.49,0,0,0,24.35-.13,92.87,92.87,0,0,0,19.31-4.93A100.67,100.67,0,0,0,2326,749.9a29.62,29.62,0,0,1,4.37-2.38,29.38,29.38,0,0,1-4.05,2.92,81.6,81.6,0,0,1-12.16,6.15,87.93,87.93,0,0,1-44.29,5.6,90.65,90.65,0,0,1-23.84-6.7c-7-2.93-13.24-5.63-18.74-7.08A45.83,45.83,0,0,0,2214,746.6c-3.18.06-4.92.46-4.94.31"/></g></g><g class="cls-30"><g class="cls-40"><path class="cls-32" d="M2289.55,828.57s.11-.12.36-.28a5.07,5.07,0,0,1,1.2-.52,12.45,12.45,0,0,1,5-.22c1.07.09,2.27.27,3.53.31a9.26,9.26,0,0,0,4-.8,4,4,0,0,0,2.62-3.21c.12-1.53-1.06-2.94-2.52-4.06a156.64,156.64,0,0,0-53.8-25.34,165.6,165.6,0,0,0-32.5-5,159.31,159.31,0,0,0-26.87.84c-3.8.51-7.25.89-10.23,1.53s-5.6,1-7.67,1.55-3.71.89-4.82,1.12a7.46,7.46,0,0,1-1.72.29,7.4,7.4,0,0,1,1.63-.6c1.08-.34,2.68-.82,4.76-1.42s4.65-1.17,7.64-1.83,6.45-1.2,10.27-1.78a150.64,150.64,0,0,1,27.08-1.19,160.66,160.66,0,0,1,32.84,4.93,158.57,158.57,0,0,1,31.09,11.64,154,154,0,0,1,23,14.37,10.25,10.25,0,0,1,2,2.17,4.65,4.65,0,0,1,.78,2.86,4.13,4.13,0,0,1-1.17,2.55,6.65,6.65,0,0,1-2.11,1.42,9.86,9.86,0,0,1-4.36.74c-1.34-.08-2.52-.31-3.58-.46a14,14,0,0,0-4.85-.09c-1.08.24-1.6.55-1.64.49"/></g></g><g class="cls-30"><g class="cls-41"><path class="cls-32" d="M2257.29,825.24a3.72,3.72,0,0,1,1.23-.15,19,19,0,0,0,3.43-.44,7.81,7.81,0,0,0,2.24-.92,5.38,5.38,0,0,0,1.86-2.05,3.44,3.44,0,0,0,.21-2.94,7.66,7.66,0,0,0-2.45-2.65,63.85,63.85,0,0,0-7.21-5.1,67.61,67.61,0,0,0-9.1-4.47,75.42,75.42,0,0,0-22.6-5.07,93.29,93.29,0,0,0-23.21,1.37,134.88,134.88,0,0,0-18.49,4.73c-5.18,1.7-9.29,3.31-12.13,4.41a28.67,28.67,0,0,1-4.47,1.62,25.19,25.19,0,0,1,4.22-2.2c2.77-1.29,6.84-3.07,12-4.91a123,123,0,0,1,18.59-5.13,91.27,91.27,0,0,1,23.6-1.51,74.62,74.62,0,0,1,23.05,5.3,67.44,67.44,0,0,1,9.23,4.71,59.63,59.63,0,0,1,7.25,5.38,8.53,8.53,0,0,1,2.67,3.13,4.39,4.39,0,0,1-.37,3.76,6.18,6.18,0,0,1-2.26,2.28,8.17,8.17,0,0,1-2.5.88,15,15,0,0,1-3.57.15,3.4,3.4,0,0,1-1.23-.18"/></g></g><g class="cls-30"><g class="cls-42"><path class="cls-32" d="M2164.88,850a11.8,11.8,0,0,1,2-.65c.69-.18,1.53-.42,2.53-.66L2173,848a79.19,79.19,0,0,1,9.75-.85,105.17,105.17,0,0,1,12.95.65c4.78.52,10,1.34,15.51,2.41s11.4,2.35,17.59,3.6q4.65.93,9.52,1.79l4.95.72c1.67.22,3.34.53,5.05.67,3.41.31,6.87.76,10.41.89l5.34.29,5.41.06a195.19,195.19,0,0,0,40.72-4,201,201,0,0,0,32.12-9.35l3.25-1.26,1.57-.61,1.5-.65,5.56-2.44c3.43-1.6,6.35-3.07,8.75-4.24s4.19-2.24,5.44-2.89a10.8,10.8,0,0,1,2-.91,10.57,10.57,0,0,1-1.79,1.2c-1.2.73-3,1.8-5.3,3.16s-5.25,2.81-8.66,4.5l-5.54,2.56-1.5.69-1.56.64-3.25,1.32a194.67,194.67,0,0,1-73.26,13.91l-5.47-.07-5.38-.3c-3.57-.13-7.06-.59-10.5-.92-1.72-.14-3.41-.47-5.09-.7l-5-.75q-4.9-.87-9.56-1.85c-6.2-1.29-12.05-2.63-17.56-3.74s-10.65-2-15.37-2.59a111.07,111.07,0,0,0-12.81-.88,85.09,85.09,0,0,0-9.68.57l-3.5.48-2.55.51a10.08,10.08,0,0,1-2.13.33"/></g></g><g class="cls-30"><g class="cls-43"><path class="cls-32" d="M2155.51,831.41a17.35,17.35,0,0,1,3.83.05c2.46.15,6,.4,10.39.75l15.38,1.31c5.78.49,12.14,1,18.8,1.1a107.5,107.5,0,0,0,18.71-1.2,74,74,0,0,0,14.75-3.92c8.15-3.17,12.41-6.69,12.58-6.42,0,0-.2.29-.7.71a26.1,26.1,0,0,1-2.26,1.74,49.48,49.48,0,0,1-9.19,5,69,69,0,0,1-14.93,4.33,101.08,101.08,0,0,1-19,1.35c-6.74-.1-13.13-.66-18.92-1.23s-11-1.16-15.35-1.65-7.9-.93-10.34-1.27a17.31,17.31,0,0,1-3.77-.68"/></g></g><g class="cls-30"><g class="cls-44"><path class="cls-32" d="M2150.43,868.34a13.07,13.07,0,0,1,1.83-1.41c.62-.42,1.43-.9,2.38-1.48s2.09-1.15,3.41-1.72a60,60,0,0,1,23.74-5,104.61,104.61,0,0,1,16.77,1.16c6,.83,12.31,2.09,18.94,3.4,3.31.66,6.71,1.32,10.19,1.91,1.74.3,3.5.56,5.28.81s3.58.49,5.4.7A195.86,195.86,0,0,0,2261,868a193.82,193.82,0,0,0,43.44-5.15c6.57-1.52,12.69-3.4,18.43-5.21s11.1-3.49,16.07-4.76c9.94-2.63,18.36-3.31,24.1-2.84,1.44.06,2.7.27,3.8.42l1.51.23,1.24.29a11.38,11.38,0,0,1,2.22.62,12.78,12.78,0,0,1-2.29-.3l-1.24-.2c-.45-.07-1-.1-1.51-.16-1.09-.1-2.34-.26-3.76-.27-5.69-.27-13.95.57-23.77,3.32-4.92,1.33-10.24,3.07-16,4.93s-11.88,3.82-18.49,5.39a189.81,189.81,0,0,1-66.61,4c-1.84-.22-3.65-.43-5.45-.72s-3.57-.53-5.32-.84c-3.5-.61-6.9-1.29-10.22-2-6.63-1.35-12.91-2.66-18.83-3.54a106.06,106.06,0,0,0-16.57-1.34,61.78,61.78,0,0,0-23.5,4.38c-1.32.51-2.44,1.11-3.43,1.57s-1.79,1-2.44,1.33a12.46,12.46,0,0,1-2,1.13"/></g></g><g class="cls-30"><g class="cls-45"><path class="cls-32" d="M2156,897.05a13.41,13.41,0,0,1,1.39-1.89c.49-.58,1.15-1.26,1.93-2.08a37.83,37.83,0,0,1,2.93-2.54,41.6,41.6,0,0,1,9.19-5.35,57.09,57.09,0,0,1,13.54-3.84,87.69,87.69,0,0,1,17-.85c6.12.19,12.62.83,19.44,1.38,3.41.27,6.9.5,10.46.61s7.21.06,10.92-.11c7.42-.33,15.08-1.16,22.92-2.12s15.52-2,23-2.63a163,163,0,0,1,21.58-.62,96.18,96.18,0,0,1,35.5,8.26,94.31,94.31,0,0,1,21,12.84c1.14.9,2.1,1.77,2.94,2.51s1.53,1.39,2.07,1.93a12.84,12.84,0,0,1,1.61,1.69,12.43,12.43,0,0,1-1.83-1.45c-.58-.5-1.29-1.12-2.17-1.8s-1.85-1.53-3-2.38a100,100,0,0,0-21-12.29,96.79,96.79,0,0,0-35.1-7.82,166,166,0,0,0-21.38.72c-7.41.67-15.06,1.68-22.91,2.65s-15.56,1.79-23,2.1c-3.74.16-7.43.17-11,.07s-7.12-.38-10.54-.67c-6.83-.59-13.3-1.27-19.36-1.53a88.31,88.31,0,0,0-16.8.65,58.05,58.05,0,0,0-13.37,3.53,43.47,43.47,0,0,0-9.16,5c-1.18.82-2.12,1.68-3,2.38s-1.49,1.41-2,2a12,12,0,0,1-1.63,1.67"/></g></g><g class="cls-30"><g class="cls-46"><path class="cls-32" d="M2192.64,906.65a5.49,5.49,0,0,1,1.53.17l1.82.32,2.49.38a93.41,93.41,0,0,0,16,.74,156.75,156.75,0,0,0,23.59-2.94c8.81-1.68,18.41-4.08,28.6-6.16s20.09-3.49,29.17-3.47a79.16,79.16,0,0,1,23.76,3.42,54.45,54.45,0,0,1,14.59,7l2,1.51c.59.45,1,.87,1.43,1.2.75.66,1.13,1,1.09,1.08a6.1,6.1,0,0,1-1.3-.82c-.41-.29-.9-.67-1.5-1.08s-1.32-.85-2.11-1.37a59.17,59.17,0,0,0-14.57-6.44,80.58,80.58,0,0,0-23.42-3c-8.94.06-18.71,1.5-28.86,3.56s-19.76,4.43-28.64,6a144.71,144.71,0,0,1-23.84,2.61,80.94,80.94,0,0,1-16.12-1.26l-2.49-.52c-.71-.17-1.31-.35-1.8-.48a5.88,5.88,0,0,1-1.45-.49"/></g></g></g><line class="cls-47" x1="2369.13" y1="749.45" x2="2220.32" y2="749.45"/><line class="cls-47" x1="2369.13" y1="826.05" x2="2220.3" y2="826.05"/><rect class="cls-48" x="2277.79" y="749.45" width="31.43" height="6.67"/><rect class="cls-48" x="2277.79" y="673.73" width="31.43" height="6.67"/><rect class="cls-48" x="2277.79" y="825.65" width="31.43" height="6.67"/><rect class="cls-49" x="2172.83" y="673.72" width="56.82" height="232.29"/><rect class="cls-50" x="2349.05" y="578.08" width="20.07" height="95.64"/><rect class="cls-51" x="2324.87" y="587.82" width="13.99" height="85.9"/><rect class="cls-52" x="2340.52" y="587.82" width="7" height="85.9"/><g class="cls-7"><path class="cls-53" d="M2280.71,634.12l1.87,7.78-1.87,2.81v4.67l1.87,4.36-1.87,1.55v10.9l1.87,1.24-1.87,1.56v5.91h-99.94v-7.15l1.87-3.43-1.87-15.57,1.55-7.47s1.56-3.11,1.56-4-.31-3.11-.31-3.11Z"/><g class="cls-54"><g class="cls-55"><polygon class="cls-56" points="2229.28 674.9 2231.67 663.62 2229.28 658.97 2229.28 654.51 2231.67 652.18 2229.28 648.6 2229.28 634.12 2183.57 634.12 2183.88 637.23 2182.32 641.28 2180.77 648.75 2182.64 664.32 2180.77 667.75 2180.77 674.9 2229.28 674.9"/></g></g><g class="cls-57"><g class="cls-58"><path class="cls-59" d="M783.45,915.33c0,12.45,135.18,22.54,301.93,22.54s301.93-10.09,301.93-22.54-135.17-22.53-301.93-22.53-301.93,10.09-301.93,22.53"/></g></g><g class="cls-57"><g class="cls-60"><path class="cls-59" d="M1489.45,915.33c0,12.45,135.18,22.54,301.93,22.54s301.93-10.09,301.93-22.54-135.17-22.53-301.93-22.53-301.93,10.09-301.93,22.53"/></g></g><polygon class="cls-61" points="1767.81 677.16 1767.81 693.46 1818.23 693.46 1818.23 695.96 1681.73 695.96 1681.73 691.42 1729.65 691.93 1731.64 677.16 1767.81 677.16"/><rect class="cls-9" x="1683.66" y="589.94" width="132.69" height="72.72"/><polygon class="cls-62" points="1811.4 601.8 1811.4 604.89 1697.57 604.89 1698.71 600.84 1811.4 601.8"/><rect class="cls-61" x="1673.58" y="576.31" width="157.58" height="100.85"/><rect class="cls-63" x="1678.05" y="581.9" width="148.63" height="89.67"/><rect class="cls-64" x="1681.73" y="584.87" width="141.35" height="82.54"/><rect class="cls-65" x="1681.73" y="584.87" width="141.35" height="4.99"/><path class="cls-66" d="M1820.57,587.47a.68.68,0,0,0-.94-.26.69.69,0,1,0,.94.26"/><path class="cls-67" d="M1818,587.47a.69.69,0,0,0-1-.26.7.7,0,0,0-.26.95.7.7,0,0,0,1.21-.69"/><path class="cls-68" d="M1815.26,587.81a.7.7,0,1,0-.69.7.69.69,0,0,0,.69-.7"/><rect class="cls-65" x="1692.34" y="595.82" width="124.07" height="64.84"/><g class="cls-69"><g class="cls-70"><rect class="cls-56" x="1703.16" y="600.84" width="105.54" height="2.89"/></g></g><g class="cls-69"><g class="cls-71"><rect class="cls-56" x="1703.16" y="607.59" width="105.54" height="2.89"/></g></g><g class="cls-69"><g class="cls-72"><rect class="cls-56" x="1703.16" y="636.28" width="105.54" height="2.89"/></g></g><g class="cls-69"><g class="cls-73"><rect class="cls-56" x="1703.16" y="643.04" width="105.54" height="2.89"/></g></g><g class="cls-69"><g class="cls-74"><rect class="cls-56" x="1703.16" y="613.77" width="105.54" height="2.89"/></g></g><g class="cls-69"><g class="cls-75"><rect class="cls-56" x="1745.24" y="619.8" width="63.45" height="2.89"/></g></g><path class="cls-76" d="M1634.05,661.19l3.21-7s15.8.3,17-11.7-5-9.06-5-9.06-3.51-.59-3.51,7.31-3.81,9.36-6.44,9.36c0,0,6.44-19.59-10.53-20.77s-10.23,22.82-10.23,22.82-5.27-.34-4.68-6.9-3.8-7.73-3.8-7.73-7.32-.58-5.27,9.36,16.09,9.65,16.09,9.65v4.68Z"/><path class="cls-77" d="M1647.21,661.19c0,1.17-7.31,34.81-7.31,34.81h-23.11l-5.55-36Z"/><rect class="cls-56" x="1557.13" y="695.95" width="461.84" height="14.76"/><path class="cls-56" d="M1570.89,722.86V920.23H1999.8V721.06h-33.53V710.71h-28.18V724H1626.48v-18h-18.79v16.92Zm16,10.85h399.06v176.7H1586.85Z"/><path class="cls-78" d="M1763.16,785.68s.81,9.13,3.49,10.2,42.17,12.89,81.11,9.13,59.89-8.32,61.5-14v-5.37s-79.5-6.72-146.1,0"/><polygon class="cls-79" points="1831.59 805.68 1831.59 810.59 1856.23 810.59 1856.23 804.15 1831.59 805.68"/><rect class="cls-79" x="1840.52" y="810.59" width="6.26" height="35.96"/><path class="cls-79" d="M1836.14,846.54c-.67.89,0,59.26,0,59.26h15.31V846.54Z"/><rect class="cls-79" x="1763.67" y="904.32" width="148.93" height="6.21"/><path class="cls-79" d="M1912.61,917.19c0,3.68-2.69,6.66-6,6.66s-6-3-6-6.66,2.68-6.66,6-6.66,6,3,6,6.66"/><path class="cls-79" d="M1775.05,917.19a6.66,6.66,0,1,1-6.66-6.66,6.66,6.66,0,0,1,6.66,6.66"/><path class="cls-79" d="M1857.33,917.19a6.66,6.66,0,1,1-6.66-6.66,6.66,6.66,0,0,1,6.66,6.66"/><path class="cls-79" d="M1840.26,805.55s20.19-7.1,21.08-21.16h15.75s-5.57,18-25.54,20.31-1.09-.11-1.09-.11Z"/><path class="cls-78" d="M1793.16,683.24h0a36.21,36.21,0,0,0,36.21,36.21h66.33a36.21,36.21,0,0,0,0-72.42h-66.33a36.21,36.21,0,0,0-36.21,36.21"/><path class="cls-79" d="M1861.34,697v87.36h15.75l1.62-87.19a8.69,8.69,0,1,0-17.37-.17"/><g class="cls-80"><g class="cls-81"><path class="cls-82" d="M1766.65,795.88s91.57-6,142.61-4.83c0,0,2.94,10.32-72,14.61,0,0-38.67,1.17-70.65-9.78"/></g></g><rect class="cls-83" x="1010.06" y="-4.31" width="450.34" height="12.63"/><rect class="cls-83" x="1010.06" y="14.64" width="450.34" height="12.63"/><rect class="cls-83" x="1010.06" y="35.36" width="450.34" height="12.63"/><rect class="cls-83" x="1010.06" y="56.09" width="450.34" height="12.63"/><rect class="cls-83" x="1010.06" y="76.82" width="450.34" height="12.63"/><rect class="cls-83" x="1010.06" y="97.54" width="450.34" height="12.63"/><rect class="cls-83" x="1010.06" y="118.27" width="450.34" height="12.63"/><rect class="cls-83" x="1010.06" y="139" width="450.34" height="12.63"/><rect class="cls-83" x="1010.06" y="157.24" width="450.34" height="12.63"/><rect class="cls-83" x="1010.06" y="176.76" width="450.34" height="12.63"/><rect class="cls-83" x="1010.06" y="196.27" width="450.34" height="12.63"/><rect class="cls-83" x="1010.06" y="215.79" width="450.34" height="12.63"/></g><g class="cls-7"><g class="cls-14"><g class="cls-84"><g class="cls-85"><g class="cls-86"><rect class="cls-87" x="578.67" y="-6.25" width="915.06" height="982.92" transform="matrix(0.6, -0.8, 0.8, 0.6, 25.11, 1020.79)"/></g></g></g></g><rect class="cls-83" x="1629.57" y="-5.7" width="424.53" height="12.63"/><rect class="cls-83" x="1629.57" y="13.82" width="424.53" height="12.63"/><rect class="cls-83" x="1629.57" y="33.33" width="424.53" height="12.63"/><rect class="cls-56" x="806.37" y="695.95" width="461.84" height="14.76"/><path class="cls-56" d="M820.13,722.86V920.23H1249V721.06h-33.53V710.71h-28.19V724H875.72v-18h-18.8v16.92Zm16,10.85h399.06v176.7H836.09Z"/><polygon class="cls-61" points="973.55 677.16 973.55 693.46 1023.97 693.46 1023.97 695.96 887.47 695.96 887.47 691.42 935.39 691.93 937.38 677.16 973.55 677.16"/><rect class="cls-9" x="889.4" y="589.94" width="132.69" height="72.72"/><polygon class="cls-62" points="1017.14 601.8 1017.14 604.89 903.31 604.89 904.45 600.84 1017.14 601.8"/><rect class="cls-61" x="879.32" y="576.31" width="157.58" height="100.85"/><rect class="cls-63" x="883.79" y="581.9" width="148.63" height="89.67"/><rect class="cls-64" x="887.47" y="584.87" width="141.35" height="82.54"/><rect class="cls-65" x="887.47" y="584.87" width="141.35" height="4.99"/><path class="cls-66" d="M1026.31,587.47a.69.69,0,0,0-1-.26.7.7,0,0,0-.25.95.69.69,0,0,0,1.2-.69"/><path class="cls-67" d="M1023.7,587.47a.7.7,0,1,0-.26.94.69.69,0,0,0,.26-.94"/><path class="cls-68" d="M1021,587.81a.7.7,0,1,0-.69.7.69.69,0,0,0,.69-.7"/><rect class="cls-65" x="898.08" y="595.82" width="124.07" height="64.84"/></g><g class="cls-7"><g class="cls-69"><g class="cls-88"><rect class="cls-56" x="908.9" y="600.84" width="105.54" height="2.89"/></g></g><g class="cls-69"><g class="cls-89"><rect class="cls-56" x="908.9" y="607.59" width="105.54" height="2.89"/></g></g><g class="cls-69"><g class="cls-90"><rect class="cls-56" x="908.9" y="636.28" width="105.54" height="2.89"/></g></g><g class="cls-69"><g class="cls-91"><rect class="cls-56" x="908.9" y="643.04" width="105.54" height="2.89"/></g></g><g class="cls-69"><g class="cls-92"><rect class="cls-56" x="908.9" y="613.77" width="105.54" height="2.89"/></g></g><g class="cls-69"><g class="cls-93"><rect class="cls-56" x="950.98" y="619.8" width="63.45" height="2.89"/></g></g><polygon class="cls-61" points="1150.08 576.31 1150.08 680.76 1145.1 680.76 1145.1 577.26 1150.08 576.31"/><polygon class="cls-61" points="1145.1 648.93 1113.83 695.96 1150.08 695.96 1125.07 692.12 1145.1 658.41 1145.1 648.93"/><polygon class="cls-61" points="1208.23 695.96 1206.9 694.51 1162.63 693.68 1161.23 695.96 1208.23 695.96"/><polygon class="cls-82" points="1275.66 802.97 1275.66 807.87 1251.03 807.87 1251.03 801.43 1275.66 802.97"/><rect class="cls-94" x="1260.48" y="807.86" width="6.26" height="35.96"/><path class="cls-82" d="M1271.12,843.82c.67.89,0,59.26,0,59.26h-15.31V843.82Z"/><rect class="cls-82" x="1194.65" y="901.59" width="148.93" height="6.22"/><path class="cls-82" d="M1194.65,914.47c0,3.68,2.69,6.66,6,6.66s6-3,6-6.66-2.69-6.66-6-6.66-6,3-6,6.66"/><path class="cls-82" d="M1332.21,914.47a6.66,6.66,0,1,0,6.66-6.66,6.66,6.66,0,0,0-6.66,6.66"/><path class="cls-82" d="M1249.93,914.47a6.66,6.66,0,1,0,6.65-6.66,6.66,6.66,0,0,0-6.65,6.66"/><path class="cls-95" d="M1325.5,783.79s-.72,9.13-3.11,10.2-37.52,12.89-72.18,9.14-53.3-8.33-54.73-14v-5.37s70.75-6.72,130,0"/><g class="cls-80"><g class="cls-96"><path class="cls-82" d="M1322.39,794s-81.49-6-126.91-4.83c0,0-2.62,10.33,64,14.62,0,0,34.42,1.16,62.87-9.79"/></g></g><path class="cls-82" d="M1316.35,671.13s3.29.9,6,14.5-3,99.81-3,99.81l-12.12-3.3Z"/><path class="cls-95" d="M1302,735.72h0a12.29,12.29,0,0,0,13.91-10.42l9.83-68.57a12.28,12.28,0,1,0-24.31-3.48l-9.84,68.57a12.29,12.29,0,0,0,10.41,13.9"/><polygon class="cls-97" points="1100.68 660.55 1097.41 695.96 1071.82 695.96 1067.36 660.55 1100.68 660.55"/><path class="cls-98" d="M1117,590.32l-19.34,70.23h-25.88s-28.57-103-23.21-106.23l25.59,102.95s-14.29-90.16-13.1-93.43S1076,636.15,1076,636.15s-7.74-112.18-4.76-113.67,8.33,91.65,8.33,91.65-.37-72.31,2.94-73.2-.63,100.57,0,101.47,3-58.62,5.39-58.62.6,44.63.6,44.63,10.71-80.34,14.28-80.64-6.84,55.94-6.55,54.75,12.2-46.12,14.88-46.12-19.34,87.18-19.34,87.18,18.15-71.41,21.72-70.51-16.06,70.22-16.06,70.22,12.79-54.75,19.63-53"/><polygon class="cls-99" points="1097.67 660.55 1078.21 695.96 1097.41 695.96 1100.68 660.55 1097.67 660.55"/><path class="cls-95" d="M1111.93,783.2s-.81,9.13-3.49,10.2-42.17,12.89-81.11,9.13-59.89-8.32-61.5-14V783.2s79.49-6.72,146.1,0"/><polygon class="cls-82" points="1043.49 803.21 1043.49 808.11 1018.86 808.11 1018.86 801.67 1043.49 803.21"/><rect class="cls-94" x="1028.31" y="808.11" width="6.26" height="35.96"/><path class="cls-82" d="M1039,844.07c.67.88,0,59.26,0,59.26h-15.31V844.07Z"/><rect class="cls-82" x="962.48" y="901.84" width="148.93" height="6.21"/><path class="cls-82" d="M962.48,914.71c0,3.68,2.69,6.66,6,6.66s6-3,6-6.66-2.69-6.66-6-6.66-6,3-6,6.66"/><path class="cls-82" d="M1100,914.71a6.66,6.66,0,1,0,6.66-6.66,6.66,6.66,0,0,0-6.66,6.66"/><path class="cls-82" d="M1017.76,914.71a6.66,6.66,0,1,0,6.66-6.66,6.66,6.66,0,0,0-6.66,6.66"/><path class="cls-82" d="M1034.82,803.07s-20.18-7.1-21.07-21.15H998s5.58,18,25.54,20.3,1.1-.1,1.1-.1Z"/><path class="cls-95" d="M1081.93,680.76h0A36.21,36.21,0,0,1,1045.72,717H979.39a36.21,36.21,0,0,1,0-72.42h66.33a36.21,36.21,0,0,1,36.21,36.21"/><path class="cls-82" d="M1013.76,694.56v87.36H998l-1.62-87.2a8.69,8.69,0,1,1,17.38-.16"/><g class="cls-80"><g class="cls-100"><path class="cls-82" d="M1108.44,793.4s-91.57-6-142.61-4.83c0,0-2.94,10.33,72,14.62,0,0,38.67,1.17,70.65-9.79"/></g></g><rect class="cls-83" x="122.63" y="117.02" width="162.59" height="169.48"/><rect class="cls-101" x="144.49" y="139.8" width="118.88" height="123.92"/><path class="cls-102" d="M263.36,264.54a22.53,22.53,0,0,0,3,3.37c1.91,2,4.58,4.7,7.57,7.64s5.74,5.58,7.76,7.45a22.86,22.86,0,0,0,3.39,2.91,21.8,21.8,0,0,0-2.95-3.36c-1.91-2-4.59-4.7-7.59-7.66s-5.75-5.59-7.77-7.46a22.08,22.08,0,0,0-3.38-2.89"/><path class="cls-102" d="M144.49,264.24a22,22,0,0,0-3.37,3c-2,1.91-4.7,4.58-7.65,7.57s-5.58,5.73-7.45,7.75a22.05,22.05,0,0,0-2.9,3.4,21.86,21.86,0,0,0,3.35-3c2-1.91,4.71-4.59,7.66-7.59s5.59-5.74,7.47-7.76a22.67,22.67,0,0,0,2.89-3.38"/><path class="cls-102" d="M144.81,140.13a23.14,23.14,0,0,0-3-3.37c-1.91-2-4.58-4.69-7.57-7.64s-5.74-5.58-7.75-7.45a21.35,21.35,0,0,0-3.4-2.9,22.44,22.44,0,0,0,3,3.35c1.9,2,4.58,4.7,7.58,7.66s5.75,5.59,7.77,7.46a21.37,21.37,0,0,0,3.38,2.89"/><path class="cls-102" d="M263.69,140.44a23.61,23.61,0,0,0,3.36-3c2-1.91,4.7-4.59,7.65-7.58s5.58-5.73,7.45-7.75a22.05,22.05,0,0,0,2.9-3.4,22.59,22.59,0,0,0-3.35,3c-2,1.91-4.71,4.59-7.66,7.59s-5.59,5.75-7.46,7.76a21,21,0,0,0-2.89,3.39"/><path class="cls-102" d="M144.81,263.72s0-.21,0-.6,0-1,0-1.73c0-1.54,0-3.77.05-6.68,0-5.86.06-14.4.1-25.25.05-21.69.12-52.62.2-89.66l-.39.39,118.54.06h0l-.45-.45c0,45.48,0,88,.07,123.92l.38-.39-85.86.2-24.1.1-6.37,0-1.65,0c-.37,0-.57,0-.57,0l.53,0,1.6,0,6.3,0,24,.1,86.1.2h.38v-.38c0-35.88,0-78.44.07-123.92v-.45h-.46l-118.54.06h-.39v.39c.08,37.14.15,68.15.2,89.91,0,10.82.08,19.32.1,25.16,0,2.88,0,5.09.05,6.61,0,.72,0,1.28,0,1.68s0,.56,0,.56"/><path class="cls-103" d="M232,191.57s2.54,30.68-30.68,30.68c0-16.37,13.5-29.3,30.68-30.68"/><path class="cls-103" d="M171.19,191.59s30.68-2.54,30.68,30.68c-16.37,0-29.3-13.51-30.68-30.68"/><path class="cls-102" d="M202.78,174.8s25.06,22.5-1.37,47.45c-12.3-13-11.26-33.45,1.37-47.45"/></g><g class="cls-7"><g class="cls-104"><g class="cls-105"><rect class="cls-106" x="-5.48" y="-4.31" width="2500.95" height="1088.62"/></g></g><g class="cls-57"><g class="cls-107"><path class="cls-59" d="M163.57,994.08c0,23.41,127.48,42.38,284.74,42.38S733,1017.49,733,994.08,605.56,951.7,448.31,951.7s-284.74,19-284.74,42.38"/></g></g><path class="cls-108" d="M436.66,548.92l23.65,2.76a10.73,10.73,0,0,0,2.48-21.32l-23.65-2.76a10.73,10.73,0,0,0-2.48,21.32"/><path d="M321.94,986.62c4.89.71,9.84,1.37,14.73,2.36,8.62,1.76,9.16,19,1.32,21.06l-.17,0c-14.55,3.75-29.79,4.23-44.74,3.88-6.13-.13-12.56.83-18.51-1.09-6.85-2.22-10.73-8.91-10.84-15.93-.17-11,4-13.92,15.62-11.41,13.57,2.93,29-.88,42.59,1.09"/><path d="M366.34,969.91c4.89.71,9.84,1.37,14.73,2.37,8.62,1.75,9.16,19,1.32,21.05l-.17,0c-14.55,3.76-29.79,4.23-44.74,3.89-6.13-.14-12.56.83-18.51-1.1-6.85-2.22-10.73-8.9-10.84-15.93-.17-11,4-13.91,15.61-11.41,13.58,2.93,29-.88,42.6,1.09"/><path class="cls-109" d="M372.37,605.34s-10.87,223.4-6,262.83S366,966.1,366,966.1s-33.37,16.59-59.63,9.08L356.3,608Z"/><g class="cls-110"><g class="cls-111"><path d="M366.78,615.43l-14,18.24L306.39,975.18a50.54,50.54,0,0,0,6.92,1.42c8.1-25.06,49.86-157.1,53.26-224.68l.21-7c.64-71.75,0-129.46,0-129.46"/></g></g><path class="cls-109" d="M272.47,671.05s2.67,107,0,133.29-12.06,178.35-12.06,178.35,13.86,16.89,47.29,3.75c0,0,65.86-271.28,64.67-381.1L266.42,623.18Z"/><g class="cls-112"><g class="cls-113"><path class="cls-114" d="M272,667.14l.49,3.91s.4,16.22.74,37.57L353,697.8Z"/></g></g><path class="cls-115" d="M331.18,433s26.16,29.14,45.49,59c14.43,22.27,68.79,34.54,68.79,34.54l-6.82,27.6s-32.13,7.51-66.27-19.86S331.18,433,331.18,433"/><path class="cls-64" d="M294.21,430.28l24.36-1.92s21.05,21.31,36.89,57.72S381,656.58,381,656.58l-18.87,2.7s-21.08-151.56-67.89-229"/><path class="cls-116" d="M385.73,683.72c-2.12,7.74-12.45,10.68-17.32,14.28s6.76-74.12,2.74-137c-1.8-28-12.9-57.56-24.64-81.69v0a396.41,396.41,0,0,0-29.83-51.11l-.4-.56,12.53,2.84c.8.85,1.61,1.69,2.37,2.56.16.16.3.32.45.48C352.7,457,366,491.26,374.27,527q2.66,11.43,4.63,22.92c11.44,65.59,8.1,129.24,6.83,133.83"/><path class="cls-117" d="M306.69,435.06h5.64a9.16,9.16,0,0,0,9.16-9.16v-8.62h-24v8.62a9.16,9.16,0,0,0,9.16,9.16"/><path class="cls-118" d="M297.47,421.82s12.21,4,24-.26c0,0-4.68,6.59-24,5.39Z"/><path class="cls-115" d="M353,697.8c-10.19.71-101.72-3.52-106.64-19s12.21-142.21,16-175.3c3.64-32.19,7.85-92.17,38.21-77,.82.41,1.69.87,2.55,1.41,0,0,2.48,3.73,6.43,10.21l.95,1.56q1.35,2.24,2.9,4.83l.2.36c6.12,10.36,14.14,24.76,22,41.19,12.35,25.83,24.28,56.62,27.66,84.64,7.75,64.08,0,126.38-10.21,127.08"/><g class="cls-112"><g class="cls-119"><path class="cls-114" d="M364.58,584.09l-101.48-88c-.27,2.57-.54,5.05-.8,7.37-.65,5.72-1.7,14.24-3,24.51,0,0,15.6,62.54,105.25,56.1h0"/></g></g><path class="cls-117" d="M485.51,549.74l-12.66,3.88c-6.33,1.94-12,5.08-18.83,5.36-5.12.21-10.53-1.3-14-5.05s-4.46-10-1.38-14.08c2.78-3.68,7.74-4.75,12.26-5.57l11.13-2-4.32-2.18c-1.69-.86-3.54-1.87-4.17-3.67-2.37-6.65,8.69-2.37,10.83-1.72l10.23,3.16,9.6-3.45Z"/><path class="cls-120" d="M431.92,576l13.24-.26c6.61-.14,13,1.06,19.55-.79,4.93-1.4,9.6-4.52,11.74-9.17s1.12-10.89-3.09-13.81c-3.78-2.62-8.83-2.1-13.38-1.46l-11.2,1.57,3.42-3.42c1.35-1.34,2.78-2.88,2.83-4.78.17-7.07-9,.45-10.83,1.74l-8.74,6.19-10.19-.28Z"/><path class="cls-115" d="M282.94,427.56s-48.53,21-29.19,68.19,88.95,106.82,189.62,81.48V549.58a5.1,5.1,0,0,0-5.29-5.11c-24.77.94-142.52-1.22-155.14-116.91"/><path class="cls-64" d="M436.16,561.89a2.88,2.88,0,1,1-2.88-2.87,2.88,2.88,0,0,1,2.88,2.87"/><path class="cls-121" d="M543.2,969.13c-5.05.74-10.17,1.42-15.22,2.45-8.91,1.81-9.47,19.65-1.37,21.75l.18,0c15,3.88,30.79,4.37,46.24,4,6.33-.14,13,.86,19.13-1.13,7.07-2.3,11.08-9.2,11.19-16.46.18-11.33-4.11-14.38-16.13-11.79-14,3-30-.91-44,1.12"/><path class="cls-122" d="M589.08,986.4c-5.05.73-10.16,1.42-15.21,2.44-8.92,1.82-9.47,19.66-1.38,21.76l.19,0c15,3.88,30.78,4.36,46.23,4,6.33-.14,13,.86,19.13-1.13,7.08-2.3,11.09-9.2,11.2-16.46.18-11.34-4.11-14.38-16.14-11.79-14,3-30-.91-44,1.12"/><path class="cls-123" d="M537,592.36S548.2,823.24,543.2,864s.33,101.2.33,101.2,34.49,17.15,61.63,9.39L553.58,595.16Z"/><g class="cls-112"><g class="cls-124"><path class="cls-114" d="M542.74,602.79l14.44,18.85,48,352.94A51,51,0,0,1,598,976c-8.37-25.89-51.53-162.35-55-232.2q-.11-3.62-.22-7.26c-.66-74.15,0-133.79,0-133.79"/></g></g><path class="cls-123" d="M640.21,660.27s.35,104.42,3.11,131.58,9.35,190.49,9.35,190.49-14.32,17.46-48.87,3.88c0,0-68.06-280.36-66.83-393.86L646.46,610.8Z"/><g class="cls-112"><g class="cls-125"><path class="cls-114" d="M640.72,656.23l-.51,4s-.42,16.76-.77,38.83L557,687.92Z"/></g></g><path class="cls-126" d="M578.31,418.07S554,450.4,536.72,482.85C523.84,507.06,469,524.52,469,524.52l9.47,27.82s33.75,4.87,66.48-26.34,33.4-107.93,33.4-107.93"/><path class="cls-64" d="M617.75,411.44l-6-2.52a23.47,23.47,0,0,0-28.61,8.48,333.83,333.83,0,0,0-28.73,51.72c-16.37,37.63-20.37,123.24-20.37,123.24l19.5,2.8s15.78-103.69,64.17-183.72"/><path class="cls-127" d="M523.16,673.37c2.19,8,12.87,11,17.9,14.76s-7-76.61-2.83-141.62c1.85-29,13.33-59.49,25.46-84.43v0a410.52,410.52,0,0,1,30.83-52.81l.42-.58-12.24,2c-.83.88-2.38,2.64-3.17,3.53l-.46.5C557.3,439,543.56,474.47,535,511.37c-1.84,7.87-3.42,15.78-4.79,23.69-11.83,67.78-8.37,133.56-7.06,138.31"/><path class="cls-117" d="M599.14,413.92h5.64a9.16,9.16,0,0,0,9.16-9.16v-8.62H590v8.62a9.16,9.16,0,0,0,9.16,9.16"/><path class="cls-118" d="M589.92,400.68s12.21,4,24-.26c0,0-4.68,6.59-24,5.39Z"/><path class="cls-127" d="M557,687.92c10.53.73,105.12-3.65,110.2-19.65s-12.39-147-16.49-181.17c-4-33.11-2.33-85.13-41-79.14-.94.15-3.72,4.91-7.8,11.61l-1,1.61q-1.4,2.31-3,5l-.21.38c-6.33,10.7-14.61,25.58-22.73,42.57-12.76,26.68-25.09,58.51-28.58,87.47-8,66.21,0,130.6,10.55,131.33"/><path class="cls-117" d="M602.05,646.63l-10.2,8.45c-5.09,4.22-9.16,9.31-15.32,12.18-4.64,2.17-10.21,2.86-14.87.74s-8-7.52-6.69-12.48c1.15-4.45,5.32-7.35,9.18-9.85l9.5-6.13-4.82-.35c-1.9-.14-4-.37-5.27-1.78-4.74-5.23,7.11-5.53,9.34-5.75l10.66-1,7.53-6.87Z"/><path class="cls-126" d="M599,435.23c-3.27-19.2,21.72-30.07,33.19-14.33,4,5.48,7.63,13.45,10.47,24.83,14.72,58.87,34.08,152.59-39,207.19l-22-21.2a6.38,6.38,0,0,1-.65-8.46c32.53-43.06,44.61-31.76,18.07-188"/><path class="cls-64" d="M595.08,636.28a3.24,3.24,0,1,0-.08-4.58,3.23,3.23,0,0,0,.08,4.58"/><path class="cls-64" d="M547.24,361.69s2.65,7.32,4.39,11l21.37,5.6,31.33-15.86.71-10.65-13.48-7.53L564,359.65Z"/><path class="cls-117" d="M595,351.59,587,348.77c-4.23,12.09-21.72,17.58-39.6,13.12a55.57,55.57,0,1,1,4.06,10.22c20.17,2.91,38.18-5,43.61-20.52"/><path class="cls-128" d="M631.32,324s-31,4.9-80.54.81c-6-1.22-16-45.58-2.21-43.94,40.32,4.79,77.42-11.73,95.82,14.11,0,0,14.13,5.8,18,34.49,2.05,15-5.53,44.39-14.1,46.34,0,0-13-4.5-17.9-21.09,0,0-6.13-13.14.89-30.72"/><path class="cls-117" d="M361.78,384.82A55.93,55.93,0,1,0,357.33,395c2.9-7,3.54-9.43,4.45-10.13"/><path class="cls-64" d="M305.83,380.64a3.57,3.57,0,0,0-4,5.92c13.14,8.87,25.41,11.89,35.55,12.26a60.15,60.15,0,0,0,19.14-2.4,76.48,76.48,0,0,0,4.37-9.33c-3.86,1.91-27.63,12.06-55.06-6.45"/><path class="cls-129" d="M268.45,408.14a1.62,1.62,0,0,0,.38,0,5.72,5.72,0,0,0,3.72-2.06c6.47-6.7,5.08-16.26,4.94-24.76a30.44,30.44,0,0,1,1.57-11.49c1.62-4.21,2.84-7.4,1.47-12l-5.95-12.21c6.37,1.06,12.81-1.83,18.28-4.77,1.41-.75,15-7.68,12.88-10.55,2.87,3.83,6.72,6.83,11.4,7.79A20,20,0,0,0,331,335.81c4.73,4.68,12.68,6.31,19.08,4.45s11.37-4.61,12.86-11.11a18.8,18.8,0,0,0-24.44-22c-1.68-7.08-6.74-13.48-13.75-15.44a20.92,20.92,0,0,0-20.12,5.39,22.1,22.1,0,0,0-17.12-1.52,21.33,21.33,0,0,0-12.72,11.1c-8.69-2-18.54,1.91-23.78,9.12a23.52,23.52,0,0,0-1.19,25.23C244,345,239.65,352,240.15,359a20.46,20.46,0,0,0,11.21,16.62c.14.08,1.14,6.62,1.48,7.46a40,40,0,0,0,4.17,7.2c1.91,2.85,3.87,5.66,5.59,8.63,1.25,2.16,2.79,8.82,5.85,9.23"/><path d="M334.07,335.6a12.23,12.23,0,0,0,8.56-1.52,10.09,10.09,0,0,0,3.34-3.19,11.13,11.13,0,0,0,1.63-4.43,11,11,0,0,0-.38-4.7,10.27,10.27,0,0,0-2.35-4A12.32,12.32,0,0,0,337,314a10.85,10.85,0,0,1,9.19,2.3,11.07,11.07,0,0,1,3.35,4.61A12.13,12.13,0,0,1,348,332.31a11,11,0,0,1-4.47,3.54,10.84,10.84,0,0,1-9.46-.25"/><path d="M312,327.43a11.83,11.83,0,0,0,5.15-5.39,10.36,10.36,0,0,0-5-13.7,11.89,11.89,0,0,0-7.41-.81,10.09,10.09,0,0,1,8-.76,10.4,10.4,0,0,1,4.12,2.44,11.24,11.24,0,0,1,3.33,9.12,10.31,10.31,0,0,1-1.58,4.52,10.07,10.07,0,0,1-6.62,4.58"/><path d="M315.57,334.59a9.11,9.11,0,0,0,4.68-.13,6.28,6.28,0,0,0,3.77-3.1,5.05,5.05,0,0,0,.11-4.73,5.2,5.2,0,0,0-3.55-2.74,4.85,4.85,0,0,1,4.44,2.2,5.34,5.34,0,0,1,1,2.87,6.21,6.21,0,0,1-.71,3,6.84,6.84,0,0,1-2,2.34,6.68,6.68,0,0,1-2.74,1.14,7.27,7.27,0,0,1-4.92-.89"/><path d="M285.65,334.9a11.89,11.89,0,0,0,2.85-5.44,10.14,10.14,0,0,0-5-11.44,11.9,11.9,0,0,0-5.92-1.63,9.48,9.48,0,0,1,6.53.41,10.13,10.13,0,0,1,5.67,13.05,9.5,9.5,0,0,1-4.16,5"/><path d="M271.16,347.48a5.78,5.78,0,0,1-3.91.17,7.07,7.07,0,0,1-5.15-7.14,5.88,5.88,0,0,1,1.4-3.66,10.16,10.16,0,0,0,7.66,10.63"/><path d="M262.52,353.89a4.34,4.34,0,0,1-7.24-3.42,7.09,7.09,0,0,0,7.24,3.42"/></g></g></g><g class="cls-131"><g class="cls-131"><g class="cls-131"><g class="cls-14"><g class="cls-132"><g class="cls-133"><g class="cls-134"><rect class="cls-135" x="476.67" y="1093.75" width="915.06" height="982.92" transform="matrix(0.6, -0.8, 0.8, 0.6, -894.03, 1377.36)"/></g></g></g></g></g></g></g></g></g></svg>