<svg xmlns="http://www.w3.org/2000/svg" viewBox="0 0 20.18 24.09"><defs><style>.cls-1{fill:#305596;}</style></defs><title>Asset 31</title><g id="Layer_2" data-name="Layer 2"><g id="Capa_1" data-name="Capa 1"><path class="cls-1" d="M7.43.11c.17,0,.33,0,.49.08a9,9,0,0,0,4.34,0,1.53,1.53,0,0,1,1.65.46A8.09,8.09,0,0,0,17.48,3a1.31,1.31,0,0,1,1,1.25,6.54,6.54,0,0,0,1.36,3.67,1.22,1.22,0,0,1,0,1.6A6.81,6.81,0,0,0,18.5,13.3a1.14,1.14,0,0,1-.85,1.06,9,9,0,0,0-3.92,2.53,1.22,1.22,0,0,1-1.28.33,9.87,9.87,0,0,0-4.71,0,1.25,1.25,0,0,1-1.33-.37A8.91,8.91,0,0,0,2.6,14.38a1.17,1.17,0,0,1-.91-1.08A7.11,7.11,0,0,0,.23,9.37a1.05,1.05,0,0,1,0-1.31c.16-.23.28-.49.45-.72a4.71,4.71,0,0,0,.92-2.71A1.8,1.8,0,0,1,3,2.8,7.62,7.62,0,0,0,6.28.66a5.84,5.84,0,0,1,1-.66Zm2.55,14a5.87,5.87,0,0,0,6.24-5.29c.12-2.9-2.57-5.47-5.85-5.58S4.14,5.5,4,8.54,6.58,14,10,14.11Z"/><path class="cls-1" d="M3.87,16.12c.27.35.52.71.83,1a3.36,3.36,0,0,0,3.81,1.26L6.09,24.09c-.56-.45-1.14-.88-1.67-1.36a1.32,1.32,0,0,0-1.12-.4c-.76.07-1.52,0-2.34,0l2.62-6Z"/><path class="cls-1" d="M11.75,18.48c.24,0,.39,0,.52.06a2.75,2.75,0,0,0,2.54-.71c.56-.53,1.11-1.08,1.78-1.73l2.72,6.31c-.86,0-1.62-.05-2.37-.11a1.28,1.28,0,0,0-1.09.36c-.51.5-1.1.93-1.7,1.43Z"/><path class="cls-1" d="M10.15,10.63a14.39,14.39,0,0,1,1.61,0,2.62,2.62,0,0,1,1.08.33c.89.56.85,1-.06,1.56a5.71,5.71,0,0,1-5.71-.22c-.4-.25-.42-.49-.2-.82a1.79,1.79,0,0,1,1.55-.86C9,10.62,9.57,10.63,10.15,10.63Z"/><path class="cls-1" d="M10.09,9.77a2,2,0,0,1-2.16-2,2.08,2.08,0,0,1,2.24-1.92,2.06,2.06,0,0,1,2.13,2A2.06,2.06,0,0,1,10.09,9.77Z"/></g></g></svg>