<svg xmlns="http://www.w3.org/2000/svg" xmlns:xlink="http://www.w3.org/1999/xlink" viewBox="0 0 426.72 541.79"><defs><style>.cls-1{fill:none;}.cls-2{fill:#222221;}.cls-3{fill:#252828;}.cls-4{fill:#0e1111;}.cls-5{fill:#4da9dd;}.cls-6{fill:#e8bc28;}.cls-7{fill:#c6991a;}.cls-8{opacity:0.3;}.cls-9{clip-path:url(#clip-path);}.cls-10{fill:#020201;}.cls-11{clip-path:url(#clip-path-2);}.cls-12{fill:#fff;}.cls-13{fill:#23549b;}.cls-14{fill:#308ab2;}.cls-15{fill:#eabc42;}.cls-16{fill:#305596;}</style><clipPath id="clip-path"><rect class="cls-1" x="238.88" y="167.48" width="49.35" height="28.16"/></clipPath><clipPath id="clip-path-2"><rect class="cls-1" x="218.37" y="164.71" width="11.37" height="18.29"/></clipPath></defs><title>Recurso 7nuevo</title><g id="Capa_2" data-name="Capa 2"><g id="Capa_1-2" data-name="Capa 1"><path class="cls-2" d="M205.65,31.22c-19.89,56.23-37.58,50.37-42.3,78.87-1.08,6.52-1.13,13.29,1.1,19.61a26.71,26.71,0,0,0,13.66,15.35c8.12,3.82,18.23,3.43,26.28,7.36,11.54,5.64,15.7,18.42,26,25.69,12.68,9,31.66,7.39,46.55,1.59,15.8-6.15,29.34-16.48,38.35-29.24,16.73-23.71,16.91-53.24,15.34-81-.76-13.4-2-27.28-9.44-39.09-4.44-7-10.91-13-17.78-18.36,0,0-24.43-18.7-62.31-9.35,0,0-27.21,5.44-35.4,28.6"/><path class="cls-3" d="M175.42,329.47l-3.74,18.42c-1.25,13.44-5.15,15.7-6.62,19.86-13.44,38.18-16.51,156.78-15.39,171.61.24,4.22,7.05,1.69,12.16,1.56l16.95-.43,58.44-1.5c20.42-.52,40.83,1.88,61.24,1.36l25.06-.64s2.2-94.51-.56-116.37-11-33.75-11-33.75l-14.43-32.53-.82-16.54Z"/><path class="cls-4" d="M172.42,346s-.47.2.35.35.7.25,2.22.52l13.28,2.18c11.23,1.79,26.75,4.18,43.93,6.58S265,360,276.3,361.09c5.65.58,10.24,1,13.41,1.19l3.66.23a7.19,7.19,0,0,0,1.27,0,10.29,10.29,0,0,0-1.26-.18l-3.64-.37c-3.16-.31-7.74-.78-13.38-1.43-11.3-1.26-26.87-3.27-44.05-5.66s-32.71-4.71-44-6.37L175,346.58c-1.52-.21-1.34-.24-2.23-.37s-.38-.23-.38-.2"/><path class="cls-5" d="M60.14,147.88s-2.63,67.65-3.73,74.6,4.76,15.73,4.76,15.73,13.53,1.46,22.68-15.36l5.85-13.17a83.8,83.8,0,0,1-3.29-34.75C88.6,155.17,89.7,146,89.7,146Z"/><path class="cls-5" d="M54.22,121.52s-6.17,2-5,8,5,16.51,5,16.51l7.66,8.49L89.7,146a17.23,17.23,0,0,0,1.9-8.32c-.19-4.65,0-16.19,0-16.19a27.62,27.62,0,0,1-5-10.61c-.93-4.81-1.6-10.4-1.8-12.12a.5.5,0,0,0-.61-.44,7.17,7.17,0,0,0-5.4,4.93c-1.49,4.66-1.12,6-1.12,6Z"/><path class="cls-5" d="M72.16,90.44c-.67-2.62-2.8-9.81-4.69-11.74s-3.68-2.07-5.7-.5c-4,3.13,3.06,25.06,6.17,30.81,0,0-7.93-1.09-6.06,7.3,0,0-7.86-1.55-7.66,5.21,0,0-6.49,5.36-3.69,9.4S64.05,142.73,67,141.8s3.32-5,3.32-5,3.52-1.24,4.61-2.95-.31-4.35-.31-4.35,3.11-2.68,3.88-3.44,0-4.64,0-4.64l-4.19-4.82s6.06,3.26,7.46,2.33,3-1.71,1.71-3.73-5.88-6.69-5.88-6.69Z"/><path class="cls-5" d="M318.71,373.07l55.18-68.5s29.34,24.7,30.12,25.48-45.9,46.18-75.87,63.75l-9.43-6.24Z"/><path class="cls-5" d="M272.37,351.09c2.42-.39,4.84-.72,7.26-1,3.54-.45,7.85-1.6,11.32-.46a15.82,15.82,0,0,1,3.77,2.09c4.92,3.34,9.7,6.28,13.32,11.14,1.65,2.22,3.09,4.69,5.32,6.33a10.05,10.05,0,0,0,8.5,1.58c.3-.07,7.05,19.48,7.81,21.6,0,0-6,6.19-9.62,5.73-3.92-.49-8.11-3.31-11.56-5.07-4.1-2.09-8-4.59-12.29-6.33a21.88,21.88,0,0,0-5.46-1.69c-2-.25-4.07.24-6.1.08-3.62-.28-7.22-.69-10.42-2.54-1.68-1-1.88-2.15-1.85-3.93.05-.45,16.75-1.91,18.57-1.6l-5.05-3.34q-4.29-.25-8.58-.54c-3.25-.23-6.76.3-9.91-.75a4.93,4.93,0,0,1-2.79-2.1,6.91,6.91,0,0,1-.67-3.16c-.06-1.24-.08-2.49-.06-3.74a1.57,1.57,0,0,1,.38-1.22,1.59,1.59,0,0,1,.83-.28c2.36-.31,4.71-.68,7.07-1.06l5.79-.92c.47-.07,2.07-.62,2.51-.39,0,0-9.92-5-8.09-8.4"/><path class="cls-6" d="M56.29,224.86s-3.36,6-3.36,11.76,3.35,15.7,3.35,15.7l4.15,3.93s-2.73,12.5,13.1,16.07S177.92,225,177.92,225l2.47-67.61s-12.85,5.35-22.13,14.63-62.12,48.2-62.12,48.2S94,206.41,91.61,207.32s-35.32,17.54-35.32,17.54"/><path class="cls-6" d="M180.39,157.36l47.94-10.2L248,140.59l30.68-.76,35.08,14.34L343.87,171s-10.4,68.8-14.2,76.82-33.11,94.26-33.11,94.26L175.63,330l-1-55.52-3.48-26.87a79.7,79.7,0,0,1-.34-17.33c2.25-25.13,9.6-72.87,9.6-72.87"/><path class="cls-6" d="M358.1,321.07l39.39,27,13.76-19.62-3.68-3.27s20.33-16.8,19.1-28.65S404,254.22,404,254.22,358.1,179.05,343.87,171c-2-1.12-19.26,40.59-19.26,56.94s3.27,16.35,3.27,16.35c2.8,0,10.29,8.08,12.7,10.12,4.66,4,9.17,8.1,13.44,12.49,8.65,8.88,15.19,18.95,22.5,28.87Z"/><path class="cls-7" d="M238.09,196.33a6,6,0,0,0,.88-.59c.56-.4,1.36-1,2.45-1.77,2.14-1.53,5.33-3.65,9.37-6.16s8.94-5.42,14.36-8.71a175.07,175.07,0,0,0,17.14-11.52l-.53-.05c.58.74,1.17,1.55,1.72,2.39a33.34,33.34,0,0,1,4.72,11.28l.21,1,.45-.91a147,147,0,0,0,10.14-27,29.18,29.18,0,0,0,1-3.83c.2-.95.31-1.7.39-2.2a3.64,3.64,0,0,0,.09-.77,4.35,4.35,0,0,0-.21.75l-.51,2.18c-.44,1.91-.17.35-1.15,3.78A156.64,156.64,0,0,1,288.23,181l.66.08a33.89,33.89,0,0,0-4.79-11.5c-.57-.85-1.17-1.68-1.75-2.43l-.23-.3-.3.24a181.63,181.63,0,0,1-17,11.52c-5.39,3.32-10.27,6.26-14.27,8.83s-7.17,4.74-9.26,6.33c-1.06.78-1.84,1.43-2.37,1.86a6.16,6.16,0,0,0-.79.69"/><path class="cls-7" d="M230.49,146.12a2.21,2.21,0,0,0-.38.51c-.23.35-.57.86-1,1.53-.83,1.34-.81,1.48-2.15,4a93.29,93.29,0,0,0-8.36,21l-.22.86.77-.54a49.74,49.74,0,0,0,6.53-5.46,48.11,48.11,0,0,0,3.49-3.88l-.65-.17c.45,7.14.86,13.67,1.19,19v.06l0,0,6,9.69,1.68,2.64a4.74,4.74,0,0,0,.64.9,6.5,6.5,0,0,0-.49-1l-1.55-2.71-5.78-9.79,0,.11c-.29-5.36-.65-11.89-1-19l0-.9-.59.73a46.8,46.8,0,0,1-3.44,3.83,49.12,49.12,0,0,1-6.43,5.39l.56.31a99.94,99.94,0,0,1,8.09-21c1.28-2.54,1.19-2.69,2-4.07l.86-1.58a3.51,3.51,0,0,0,.27-.56"/><path class="cls-7" d="M170.13,233c.21,0,1.48-11.57,2.84-25.88s2.29-25.92,2.08-25.94-1.48,11.56-2.84,25.87S169.92,233,170.13,233"/><path class="cls-7" d="M345.65,213.17a8.42,8.42,0,0,0-.79,1.47l-1.93,4.09-6.42,13.48c-2.51,5.27-4.73,10.07-6.23,13.59-.75,1.76-1.33,3.19-1.71,4.19a7.66,7.66,0,0,0-.52,1.59,7,7,0,0,0,.79-1.47c.53-1.11,1.17-2.48,1.94-4.09l6.42-13.48c2.51-5.27,4.72-10.07,6.22-13.59.75-1.76,1.34-3.19,1.72-4.19a6.54,6.54,0,0,0,.51-1.59"/><path class="cls-7" d="M213.5,317.81a7.48,7.48,0,0,0,.16-1.13q.12-1.21.33-3.24c.25-2.82.66-6.9,1.19-11.93,1.1-10.06,2.81-23.95,5.74-39.11A366.38,366.38,0,0,1,230.38,224c.72-2.43,1.43-4.61,2.06-6.52s1.15-3.55,1.62-4.89l1-3.09a5.51,5.51,0,0,0,.31-1.1,6.71,6.71,0,0,0-.45,1c-.29.77-.68,1.78-1.17,3.05s-1.1,2.95-1.75,4.86-1.41,4.07-2.16,6.49a326.66,326.66,0,0,0-9.69,38.38c-2.94,15.19-4.57,29.11-5.54,39.19-.46,5.05-.79,9.14-.95,12-.07,1.36-.14,2.44-.18,3.26a5.19,5.19,0,0,0,0,1.14"/><g class="cls-8"><g class="cls-9"><path class="cls-10" d="M288.23,181c-1.84,3.76-6.06,3.54-9.16,6.35l.15-8c-12.2,5.42-28.15,10.85-40.34,16.27,13.09-9.38,29.93-18.77,43-28.16,2.15,3.61,2.78,4.62,4.92,8.23"/></g></g><g class="cls-8"><g class="cls-11"><path class="cls-10" d="M219.92,172.86c1.57-2.46,8.66-8.15,8.66-8.15.14,3.83.47,9.08.61,12.91l.55,5.37c-.57-3.2-1-5.56-1.55-8.76-2.27,2.15-7,5.37-9.27,7.52a10.73,10.73,0,0,1,1-8.89"/></g></g><path class="cls-12" d="M316.74,227.9a19.44,19.44,0,1,1-19.44-19.44,19.44,19.44,0,0,1,19.44,19.44"/><path class="cls-5" d="M283.25,226.1a4,4,0,1,1,4,4,4,4,0,0,1-4-4"/><path class="cls-12" d="M286.91,227.84c0-.54,0-1.29,0-1.73s0-1.22,0-1.76a1.81,1.81,0,0,0,0,3.49m.66.2a1.17,1.17,0,0,0,.06.38c.1.15.39.13.39.13v.08c-.35,0-.47,0-.79,0s-.44,0-.79,0v-.08s.29,0,.39-.13a1.17,1.17,0,0,0,.06-.38,2,2,0,0,1,0-3.9,1,1,0,0,0-.06-.35c-.1-.16-.39-.14-.39-.14v-.07c.35,0,.47,0,.79,0s.44-.05.79,0v.07s-.29,0-.39.14a1,1,0,0,0-.06.35,2,2,0,0,1,0,3.9m-.06-1.93c0,.44,0,1.19,0,1.73a1.81,1.81,0,0,0,0-3.49c0,.54,0,1.31,0,1.76"/><path class="cls-5" d="M294.06,227.93a.76.76,0,0,0-.44-.12l-.21,0-.19.07a.53.53,0,0,0-.13.13.39.39,0,0,0,0,.2.22.22,0,0,0,.08.18.41.41,0,0,0,.18.12l.27.07.3.07.3.08a1,1,0,0,1,.26.12.72.72,0,0,1,.19.2.56.56,0,0,1,.07.3.64.64,0,0,1-.09.34.73.73,0,0,1-.24.22,1,1,0,0,1-.32.13,1.45,1.45,0,0,1-.35,0,1.77,1.77,0,0,1-.41,0,1.19,1.19,0,0,1-.34-.16.71.71,0,0,1-.23-.26.8.8,0,0,1-.09-.39H293a.53.53,0,0,0,.06.26.52.52,0,0,0,.17.19.53.53,0,0,0,.24.1.86.86,0,0,0,.28,0l.23,0,.21-.07a.5.5,0,0,0,.15-.14.36.36,0,0,0,.06-.22.32.32,0,0,0-.07-.2.43.43,0,0,0-.19-.13l-.26-.08-.31-.07-.29-.07a1.69,1.69,0,0,1-.27-.11.66.66,0,0,1-.19-.18.61.61,0,0,1-.07-.28.63.63,0,0,1,.08-.32.78.78,0,0,1,.21-.23,1,1,0,0,1,.3-.13,1.34,1.34,0,0,1,.35,0,1.37,1.37,0,0,1,.36,0,.92.92,0,0,1,.3.14.82.82,0,0,1,.2.25.71.71,0,0,1,.08.34h-.32a.53.53,0,0,0-.2-.38"/><path class="cls-5" d="M296.37,229.93a.88.88,0,0,1-.53.15.92.92,0,0,1-.38-.07.77.77,0,0,1-.28-.19.75.75,0,0,1-.16-.29,1.51,1.51,0,0,1-.07-.38.94.94,0,0,1,.07-.37.79.79,0,0,1,.18-.29.92.92,0,0,1,.28-.19.78.78,0,0,1,.35-.07.76.76,0,0,1,.41.1.69.69,0,0,1,.26.25,1,1,0,0,1,.14.33,2,2,0,0,1,0,.34h-1.39a.55.55,0,0,0,0,.22.54.54,0,0,0,.11.18.46.46,0,0,0,.18.13.72.72,0,0,0,.27.05.52.52,0,0,0,.31-.09.38.38,0,0,0,.17-.26h.3a.69.69,0,0,1-.27.45m-.07-1.14a.61.61,0,0,0-.12-.16.44.44,0,0,0-.16-.1.46.46,0,0,0-.21,0,.54.54,0,0,0-.22,0,.42.42,0,0,0-.16.11.5.5,0,0,0-.11.16.58.58,0,0,0,0,.19h1.06a.71.71,0,0,0,0-.2"/><path class="cls-5" d="M298.38,230.55a.89.89,0,0,1-.65.21,1.24,1.24,0,0,1-.27,0,.5.5,0,0,1-.24-.09.4.4,0,0,1-.18-.16.36.36,0,0,1-.08-.24h.3a.19.19,0,0,0,.05.13l.12.09a.43.43,0,0,0,.16,0l.15,0a.63.63,0,0,0,.26-.05.39.39,0,0,0,.17-.14.51.51,0,0,0,.1-.21,1.12,1.12,0,0,0,0-.27v-.12h0a.64.64,0,0,1-.24.25.8.8,0,0,1-.34.07.87.87,0,0,1-.37-.07.83.83,0,0,1-.26-.19.73.73,0,0,1-.15-.29,1,1,0,0,1-.06-.34,1.26,1.26,0,0,1,.05-.33,1,1,0,0,1,.14-.3.84.84,0,0,1,.27-.22.82.82,0,0,1,.4-.09.73.73,0,0,1,.33.08.49.49,0,0,1,.23.22h0v-.26h.29v1.62a.93.93,0,0,1-.21.66m-.39-.8a.44.44,0,0,0,.17-.16.55.55,0,0,0,.1-.22,1,1,0,0,0,0-.25,1,1,0,0,0,0-.23.72.72,0,0,0-.09-.2.5.5,0,0,0-.17-.15.54.54,0,0,0-.24,0,.62.62,0,0,0-.25,0,.61.61,0,0,0-.17.14.51.51,0,0,0-.1.21,1,1,0,0,0,0,.24,1.94,1.94,0,0,0,0,.24.73.73,0,0,0,.09.22.41.41,0,0,0,.16.16.49.49,0,0,0,.25.06.53.53,0,0,0,.26-.06"/><path class="cls-5" d="M300.3,230.05v-.29h0a.75.75,0,0,1-.25.25.8.8,0,0,1-.36.07.87.87,0,0,1-.3,0,.5.5,0,0,1-.2-.13.53.53,0,0,1-.11-.21,1.09,1.09,0,0,1,0-.26v-1.17h.31v1.2a.33.33,0,0,0,.1.26.37.37,0,0,0,.28.1.61.61,0,0,0,.24,0,.52.52,0,0,0,.17-.12.59.59,0,0,0,.1-.17.85.85,0,0,0,0-.23v-1h.3v1.78Z"/><path class="cls-5" d="M301.33,228.27v.38h0a.72.72,0,0,1,.27-.32.76.76,0,0,1,.41-.1v.31a.91.91,0,0,0-.31.05.46.46,0,0,0-.21.14.78.78,0,0,0-.12.22,1.42,1.42,0,0,0,0,.31V230H301v-1.77Z"/><path class="cls-5" d="M302.14,228.8a.75.75,0,0,1,.18-.3.84.84,0,0,1,.28-.2,1.12,1.12,0,0,1,.78,0,1,1,0,0,1,.28.2.64.64,0,0,1,.17.3,1.11,1.11,0,0,1,0,.72.69.69,0,0,1-.17.3.77.77,0,0,1-.28.19,1.12,1.12,0,0,1-.78,0,.7.7,0,0,1-.28-.19.83.83,0,0,1-.18-.3,1.32,1.32,0,0,1,0-.72m.31.65a.74.74,0,0,0,.13.21.44.44,0,0,0,.18.12.59.59,0,0,0,.23.05.54.54,0,0,0,.22-.05.47.47,0,0,0,.19-.12.72.72,0,0,0,.12-.21.87.87,0,0,0,0-.58.72.72,0,0,0-.12-.21.64.64,0,0,0-.19-.13.54.54,0,0,0-.22,0,.59.59,0,0,0-.23,0,.59.59,0,0,0-.18.13.74.74,0,0,0-.13.21,1.07,1.07,0,0,0,0,.58"/><path class="cls-5" d="M304.49,229.65a.29.29,0,0,0,.11.11l.16.05.18,0h.15l.15,0a.28.28,0,0,0,.11-.08.25.25,0,0,0,0-.13.2.2,0,0,0-.09-.18,1,1,0,0,0-.23-.09l-.29-.07a.89.89,0,0,1-.29-.08.51.51,0,0,1-.23-.15.36.36,0,0,1-.09-.26.35.35,0,0,1,.07-.23.41.41,0,0,1,.16-.16.73.73,0,0,1,.22-.09,1.07,1.07,0,0,1,.25,0,1.36,1.36,0,0,1,.29,0,.43.43,0,0,1,.23.09.46.46,0,0,1,.17.17.67.67,0,0,1,.07.27h-.31a.26.26,0,0,0,0-.14.47.47,0,0,0-.1-.1l-.14-.05h-.29l-.12,0a.33.33,0,0,0-.1.06.21.21,0,0,0,0,.12.17.17,0,0,0,.05.12l.14.08.2.06.21,0,.23.06.19.09a.4.4,0,0,1,.14.15.33.33,0,0,1,0,.21.47.47,0,0,1-.07.27.59.59,0,0,1-.18.17,1,1,0,0,1-.26.09l-.28,0a1.36,1.36,0,0,1-.29,0,.63.63,0,0,1-.25-.1.51.51,0,0,1-.25-.46h.31a.28.28,0,0,0,.05.16"/><path class="cls-13" d="M295.25,223.44a1,1,0,0,0-.21-.25,1.11,1.11,0,0,0-.3-.17,1,1,0,0,0-.34-.06,1.08,1.08,0,0,0-.56.13,1,1,0,0,0-.37.35,1.4,1.4,0,0,0-.21.5,2.2,2.2,0,0,0-.07.58,2,2,0,0,0,.07.55,1.43,1.43,0,0,0,.21.49.94.94,0,0,0,.37.34,1.08,1.08,0,0,0,.56.13.89.89,0,0,0,.69-.27,1.35,1.35,0,0,0,.31-.74h.94a2.13,2.13,0,0,1-.19.77,1.79,1.79,0,0,1-1,1,2.34,2.34,0,0,1-1.67-.05,2.19,2.19,0,0,1-.69-.5,2.28,2.28,0,0,1-.42-.75,2.73,2.73,0,0,1-.15-.92,2.91,2.91,0,0,1,.15-1,2.44,2.44,0,0,1,.42-.76,2,2,0,0,1,.69-.5,2.1,2.1,0,0,1,.92-.19,2.26,2.26,0,0,1,.69.11,1.9,1.9,0,0,1,.58.31,1.84,1.84,0,0,1,.43.52,1.86,1.86,0,0,1,.21.69h-.95a.68.68,0,0,0-.11-.31"/><path class="cls-13" d="M297.63,223.48v.61h0a1.16,1.16,0,0,1,.41-.5,1.14,1.14,0,0,1,.29-.15,1.2,1.2,0,0,1,.33-.05l.19,0v.84l-.15,0h-.17a1,1,0,0,0-.41.08.75.75,0,0,0-.27.23.82.82,0,0,0-.14.33,1.84,1.84,0,0,0-.05.41v1.48h-.88v-3.28Z"/><path class="cls-13" d="M299.91,226a.8.8,0,0,0,.57.19.78.78,0,0,0,.46-.13.58.58,0,0,0,.24-.29H302a1.53,1.53,0,0,1-.58.84,1.62,1.62,0,0,1-.93.26,1.65,1.65,0,0,1-.68-.13,1.41,1.41,0,0,1-.51-.35,1.58,1.58,0,0,1-.33-.55,2,2,0,0,1,0-1.38,1.55,1.55,0,0,1,.34-.55,1.47,1.47,0,0,1,.52-.36,1.59,1.59,0,0,1,.66-.14,1.63,1.63,0,0,1,.72.16,1.52,1.52,0,0,1,.5.44,1.84,1.84,0,0,1,.28.62,2.21,2.21,0,0,1,.06.73H299.7a.94.94,0,0,0,.21.64m1-1.73a.62.62,0,0,0-.48-.18.87.87,0,0,0-.35.07.71.71,0,0,0-.23.19.65.65,0,0,0-.11.22.64.64,0,0,0,0,.22h1.43a1,1,0,0,0-.22-.52"/><path class="cls-13" d="M303.94,224.07a.56.56,0,0,0-.35.1.82.82,0,0,0-.24.25,1,1,0,0,0-.12.35,1.55,1.55,0,0,0,0,.37,1.47,1.47,0,0,0,0,.36.93.93,0,0,0,.12.33.67.67,0,0,0,.22.25.68.68,0,0,0,.35.09.66.66,0,0,0,.49-.18.89.89,0,0,0,.21-.48h.85a1.45,1.45,0,0,1-.49,1,1.75,1.75,0,0,1-1.71.22,1.39,1.39,0,0,1-.51-.34,1.53,1.53,0,0,1-.33-.53,1.87,1.87,0,0,1-.12-.68,2.07,2.07,0,0,1,.11-.71,1.55,1.55,0,0,1,.32-.56,1.34,1.34,0,0,1,.51-.37,1.71,1.71,0,0,1,.7-.14,2,2,0,0,1,.55.08,1.58,1.58,0,0,1,.47.23,1.17,1.17,0,0,1,.34.39,1.43,1.43,0,0,1,.15.55h-.87a.59.59,0,0,0-.65-.57"/><path class="cls-13" d="M306.79,226a.92.92,0,0,0,1,.06.58.58,0,0,0,.24-.29h.77a1.47,1.47,0,0,1-.57.84,1.81,1.81,0,0,1-1.61.13,1.37,1.37,0,0,1-.52-.35,1.43,1.43,0,0,1-.32-.55,2,2,0,0,1,0-1.38,1.68,1.68,0,0,1,.33-.55,1.57,1.57,0,0,1,.52-.36,1.64,1.64,0,0,1,.67-.14,1.58,1.58,0,0,1,.71.16,1.42,1.42,0,0,1,.5.44,1.67,1.67,0,0,1,.28.62,2.52,2.52,0,0,1,.07.73h-2.32a.94.94,0,0,0,.22.64m1-1.73a.63.63,0,0,0-.49-.18.91.91,0,0,0-.35.07.76.76,0,0,0-.34.41c0,.08,0,.16,0,.22H308a1.2,1.2,0,0,0-.22-.52"/><path class="cls-13" d="M310.12,223.48v.61h0a1.31,1.31,0,0,1,.17-.28,1,1,0,0,1,.24-.22,1.05,1.05,0,0,1,.3-.15,1.13,1.13,0,0,1,.32-.05l.19,0v.84l-.15,0H311a1,1,0,0,0-.41.08.75.75,0,0,0-.27.23,1,1,0,0,0-.14.33,1.84,1.84,0,0,0,0,.41v1.48h-.88v-3.28Z"/><polygon class="cls-13" points="293.5 233.28 293.5 232.22 293.03 233.04 292.96 233.04 292.48 232.22 292.48 233.28 292.36 233.28 292.36 231.99 292.49 231.99 292.99 232.88 293.5 231.99 293.63 231.99 293.63 233.28 293.5 233.28"/><path class="cls-13" d="M294.18,233.3a.27.27,0,0,1-.13,0,.39.39,0,0,1-.11-.06.21.21,0,0,1-.06-.1.2.2,0,0,1,0-.11.27.27,0,0,1,0-.12l.08-.09.13-.06.16,0h.15l.13,0v-.09a.27.27,0,0,0-.07-.2.29.29,0,0,0-.19-.07.45.45,0,0,0-.16,0l-.15.08,0-.08.18-.09.18,0a.35.35,0,0,1,.27.1.38.38,0,0,1,.11.28v.42s0,.06,0,.06v.1h-.05l-.07,0a.09.09,0,0,1,0-.07v-.07a.45.45,0,0,1-.17.13.45.45,0,0,1-.2,0m0-.09a.32.32,0,0,0,.16,0,.22.22,0,0,0,.13-.1s0,0,0,0a.06.06,0,0,0,0,0v-.15l-.13,0h-.13a.41.41,0,0,0-.21,0,.18.18,0,0,0-.09.15.24.24,0,0,0,0,.08l0,.06.08.05.1,0m.07-1.06-.08,0,.11-.17h.13Z"/><path class="cls-13" d="M295.25,233.3a.78.78,0,0,1-.22,0,.54.54,0,0,1-.18-.11l0-.08a.7.7,0,0,0,.17.09.33.33,0,0,0,.17,0,.36.36,0,0,0,.19-.05.16.16,0,0,0,.07-.13.14.14,0,0,0,0-.07l-.06,0a.19.19,0,0,0-.09,0l-.12,0-.14,0a.46.46,0,0,1-.1-.05.12.12,0,0,1-.06-.06.29.29,0,0,1,0-.09.28.28,0,0,1,0-.13.22.22,0,0,1,.07-.09.43.43,0,0,1,.12,0,.32.32,0,0,1,.14,0,.58.58,0,0,1,.19,0,.56.56,0,0,1,.15.1l-.06.07a.35.35,0,0,0-.13-.08.41.41,0,0,0-.16,0h-.09l-.07,0-.05.06a.11.11,0,0,0,0,.08.13.13,0,0,0,0,.06l0,0,.08,0,.11,0,.16,0,.11.05a.18.18,0,0,1,.07.08.15.15,0,0,1,0,.1.28.28,0,0,1-.1.21.45.45,0,0,1-.27.07"/><path class="cls-13" d="M296.6,233.3a.83.83,0,0,1-.22,0,.54.54,0,0,1-.18-.11l.06-.08a.65.65,0,0,0,.16.09.39.39,0,0,0,.18,0,.3.3,0,0,0,.18-.05.14.14,0,0,0,.07-.13.08.08,0,0,0,0-.07.1.1,0,0,0-.05,0l-.09,0-.13,0-.14,0-.1-.05-.06-.06a.29.29,0,0,1,0-.09.28.28,0,0,1,0-.13.24.24,0,0,1,.08-.09l.11,0a.34.34,0,0,1,.14,0,.64.64,0,0,1,.2,0,.39.39,0,0,1,.14.1l-.06.07a.29.29,0,0,0-.13-.08.4.4,0,0,0-.15,0h-.09l-.08,0-.05.06a.19.19,0,0,0,0,.08.14.14,0,0,0,0,.06.08.08,0,0,0,0,0l.07,0,.11,0,.16,0,.12.05a.27.27,0,0,1,.07.08.27.27,0,0,1-.08.31.45.45,0,0,1-.27.07"/><path class="cls-13" d="M297.17,232h.12v.18h-.12Zm0,.38h.12v.95h-.12Z"/><path class="cls-13" d="M299,233.28h-.12v-.53a.48.48,0,0,0-.05-.24.19.19,0,0,0-.16-.08l-.1,0a.18.18,0,0,0-.09.06.27.27,0,0,0-.07.08.54.54,0,0,0-.05.11v.58h-.13v-.53a.39.39,0,0,0-.05-.24.16.16,0,0,0-.15-.08.3.3,0,0,0-.2.08.52.52,0,0,0-.12.19v.58h-.12v-.95h.11v.22a.44.44,0,0,1,.16-.17.37.37,0,0,1,.21-.06.29.29,0,0,1,.19.06.31.31,0,0,1,.09.18.41.41,0,0,1,.37-.24.28.28,0,0,1,.13,0,.18.18,0,0,1,.09.08.5.5,0,0,1,0,.13.91.91,0,0,1,0,.17Z"/><path class="cls-13" d="M299.72,233.3a.43.43,0,0,1-.22-.06.4.4,0,0,1-.14-.15v.58h-.13v-1.34h.11v.19a.54.54,0,0,1,.15-.15.5.5,0,0,1,.21-.05.39.39,0,0,1,.18,0,.49.49,0,0,1,.14.11.62.62,0,0,1,.1.16.57.57,0,0,1,0,.18.58.58,0,0,1,0,.19.51.51,0,0,1-.09.16.36.36,0,0,1-.14.1.33.33,0,0,1-.17,0m0-.11a.32.32,0,0,0,.14,0,.31.31,0,0,0,.11-.09A.35.35,0,0,0,300,233a.59.59,0,0,0,0-.14.4.4,0,0,0,0-.15.37.37,0,0,0-.07-.12l-.11-.08a.35.35,0,0,0-.14,0,.18.18,0,0,0-.1,0l-.1.05-.07.07a.12.12,0,0,0,0,.09V233a.31.31,0,0,0,.05.1.6.6,0,0,0,.08.08l.09.05h.1"/><path class="cls-13" d="M300.36,232h.12v1.12a.1.1,0,0,0,.11.11h.05l.05,0,0,.1-.08,0h-.09a.19.19,0,0,1-.13-.05.17.17,0,0,1-.05-.14Z"/><path class="cls-13" d="M301.25,233.3a.41.41,0,0,1-.19,0,.4.4,0,0,1-.15-.1.54.54,0,0,1-.1-.16.43.43,0,0,1,0-.19.41.41,0,0,1,0-.19.54.54,0,0,1,.1-.16.4.4,0,0,1,.15-.1.47.47,0,0,1,.38,0,.4.4,0,0,1,.15.1.86.86,0,0,1,.1.16.57.57,0,0,1,0,.18v0h-.82a.66.66,0,0,0,0,.15.28.28,0,0,0,.08.11l.1.07a.31.31,0,0,0,.13,0l.1,0a.11.11,0,0,0,.08,0,.18.18,0,0,0,.07,0l.05-.07.1,0a.24.24,0,0,1-.06.09l-.09.08-.12,0a.27.27,0,0,1-.13,0m.35-.54a.32.32,0,0,0,0-.14,1,1,0,0,0-.08-.11.41.41,0,0,0-.11-.07.31.31,0,0,0-.13,0,.28.28,0,0,0-.13,0,.41.41,0,0,0-.11.07.44.44,0,0,0-.08.11.58.58,0,0,0,0,.14Z"/><path class="cls-13" d="M301.87,233.31h0s0,0,0,0v-.16H302v.18a.08.08,0,0,1,0,.05s0,0,0,0l-.05,0h-.05Z"/><path class="cls-13" d="M304.16,233.28H304v-.53a.38.38,0,0,0-.06-.24.16.16,0,0,0-.15-.08l-.11,0-.09.06-.07.08-.05.11v.58h-.12v-.53a.48.48,0,0,0-.05-.24.18.18,0,0,0-.16-.08.29.29,0,0,0-.19.08.52.52,0,0,0-.12.19v.58h-.12v-.95h.11v.22a.5.5,0,0,1,.15-.17.42.42,0,0,1,.21-.06.32.32,0,0,1,.2.06.3.3,0,0,1,.08.18.42.42,0,0,1,.37-.24.29.29,0,0,1,.14,0,.32.32,0,0,1,.09.08.5.5,0,0,1,0,.13.91.91,0,0,1,0,.17Z"/><path class="cls-13" d="M304.67,233.3a.27.27,0,0,1-.13,0,.39.39,0,0,1-.11-.06.21.21,0,0,1-.06-.1.2.2,0,0,1,0-.11.27.27,0,0,1,0-.12l.08-.09.13-.06.16,0h.15l.13,0v-.09a.27.27,0,0,0-.07-.2.29.29,0,0,0-.19-.07.45.45,0,0,0-.16,0l-.15.08,0-.08.18-.09.18,0a.33.33,0,0,1,.27.1.38.38,0,0,1,.11.28v.42s0,.06,0,.06v.1h-.05l-.06,0a.08.08,0,0,1,0-.07v-.07a.45.45,0,0,1-.17.13.45.45,0,0,1-.2,0m0-.09a.32.32,0,0,0,.16,0,.22.22,0,0,0,.13-.1s0,0,0,0a.06.06,0,0,0,0,0v-.15l-.13,0h-.13a.41.41,0,0,0-.21,0,.18.18,0,0,0-.09.15.24.24,0,0,0,0,.08l0,.06.08.05.1,0m.07-1.06-.08,0,.11-.17h.13Z"/><path class="cls-13" d="M305.74,233.3a.78.78,0,0,1-.22,0,.54.54,0,0,1-.18-.11l.05-.08a.7.7,0,0,0,.17.09.38.38,0,0,0,.36,0A.16.16,0,0,0,306,233a.14.14,0,0,0,0-.07.09.09,0,0,0-.06,0l-.08,0-.13,0-.14,0-.1-.05a.12.12,0,0,1-.06-.06.29.29,0,0,1,0-.09.28.28,0,0,1,0-.13.18.18,0,0,1,.08-.09l.11,0a.32.32,0,0,1,.14,0,.64.64,0,0,1,.2,0,.5.5,0,0,1,.14.1l-.06.07a.35.35,0,0,0-.13-.08.41.41,0,0,0-.16,0h-.09l-.07,0-.05.06a.19.19,0,0,0,0,.08.13.13,0,0,0,0,.06.08.08,0,0,0,0,0l.08,0,.11,0,.16,0,.11.05a.18.18,0,0,1,.07.08.15.15,0,0,1,0,.1.28.28,0,0,1-.1.21.45.45,0,0,1-.27.07"/><path class="cls-13" d="M306.71,232.81a.41.41,0,0,1,0-.19.42.42,0,0,1,.09-.16.65.65,0,0,1,.15-.1.45.45,0,0,1,.2,0,.41.41,0,0,1,.23.06.33.33,0,0,1,.15.16l-.12,0a.23.23,0,0,0-.11-.11.29.29,0,0,0-.16,0,.28.28,0,0,0-.13,0,.28.28,0,0,0-.11.08.36.36,0,0,0-.08.12.61.61,0,0,0,0,.15.4.4,0,0,0,0,.15.24.24,0,0,0,.07.12.28.28,0,0,0,.11.08.32.32,0,0,0,.14,0h.09l.08,0a.15.15,0,0,0,.06,0s0,0,0-.06l.12,0a.24.24,0,0,1-.06.09.36.36,0,0,1-.09.08l-.11,0h-.13a.41.41,0,0,1-.19,0,.4.4,0,0,1-.15-.1.39.39,0,0,1-.1-.16.43.43,0,0,1,0-.19"/><path class="cls-13" d="M308.19,233.3a.41.41,0,0,1-.19,0,.4.4,0,0,1-.15-.1.54.54,0,0,1-.1-.16.65.65,0,0,1,0-.19.58.58,0,0,1,0-.19.54.54,0,0,1,.1-.16.4.4,0,0,1,.15-.1.47.47,0,0,1,.38,0,.4.4,0,0,1,.15.1.86.86,0,0,1,.1.16.57.57,0,0,1,0,.18v0h-.81a.37.37,0,0,0,0,.15.44.44,0,0,0,.08.11l.1.07.13,0,.1,0a.11.11,0,0,0,.08,0,.18.18,0,0,0,.07,0l.05-.07.11,0-.07.09a.34.34,0,0,1-.09.08l-.12,0a.27.27,0,0,1-.13,0m.35-.54a.32.32,0,0,0,0-.14.44.44,0,0,0-.08-.11.41.41,0,0,0-.11-.07.3.3,0,0,0-.26,0,.41.41,0,0,0-.11.07.44.44,0,0,0-.08.11l0,.14Z"/><path class="cls-13" d="M309.32,232.44a.52.52,0,0,0-.22.07.46.46,0,0,0-.13.18v.59h-.12v-.95H309v.23a.7.7,0,0,1,.13-.16.26.26,0,0,1,.18-.07h.05Z"/><path class="cls-13" d="M309.43,232.81a.58.58,0,0,1,0-.19.44.44,0,0,1,.1-.16.4.4,0,0,1,.15-.1.41.41,0,0,1,.19,0,.48.48,0,0,1,.24.06.46.46,0,0,1,.15.16l-.12,0a.38.38,0,0,0-.11-.11.29.29,0,0,0-.16,0,.32.32,0,0,0-.14,0,.28.28,0,0,0-.11.08.35.35,0,0,0-.07.12.33.33,0,0,0,0,.15.4.4,0,0,0,0,.15.25.25,0,0,0,.08.12.23.23,0,0,0,.11.08.28.28,0,0,0,.13,0H310a.2.2,0,0,0,.08,0,.18.18,0,0,0,.07,0,.21.21,0,0,0,0-.06l.12,0-.06.09-.09.08-.12,0h-.13a.41.41,0,0,1-.19,0,.4.4,0,0,1-.15-.1.54.54,0,0,1-.1-.16.63.63,0,0,1,0-.19"/><path class="cls-13" d="M310.74,233.3l-.13,0-.1-.06a.36.36,0,0,1-.07-.1.2.2,0,0,1,0-.11.5.5,0,0,1,0-.12l.09-.09.12-.06.17,0H311l.14,0v-.09a.28.28,0,0,0-.08-.2.27.27,0,0,0-.19-.07.4.4,0,0,0-.15,0l-.16.08,0-.08.18-.09.18,0a.37.37,0,0,1,.28.1.35.35,0,0,1,.1.27v.43s0,0,0,0v.11h-.05l-.06,0a.16.16,0,0,1,0-.07v-.07a.53.53,0,0,1-.16.13.52.52,0,0,1-.21,0m0-.09a.35.35,0,0,0,.17,0,.31.31,0,0,0,.13-.1l0,0v-.19l-.13,0h-.13a.45.45,0,0,0-.22,0,.17.17,0,0,0-.08.15.22.22,0,0,0,0,.08l.05.06a.18.18,0,0,0,.07.05l.1,0"/><path class="cls-5" d="M325,70a61.71,61.71,0,1,1-64.44-58.85A61.71,61.71,0,0,1,325,70"/><path class="cls-12" d="M263.4,115.74c-21,0-37.47-12.46-37.44-28.27h6.89c0,11.24,14,20.77,30.56,20.8S294,98.84,294.05,87.6l6.89,0c0,15.81-16.52,28.16-37.54,28.12"/><path class="cls-5" d="M259.51,151.1h8.17a13.24,13.24,0,0,0,13.24-13.24V125.39H246.27v12.47a13.24,13.24,0,0,0,13.24,13.24"/><path class="cls-14" d="M246.19,132s17.88,6.3,35,.11c0,0-7,9-34.89,7.31Z"/><path class="cls-2" d="M324.81,88.79c-1.06-22.68-14.5-44-34.67-54.31C286.85,39,264.69,57,216.8,49.62c.32,20-9.45,25.55-15.51,34.57-.25.38-.41.27,0,0-10.08-3.66.67-16.91.92-24.86.24-7.67.67-15.42,3.26-22.75,0-.07.05-.14.08-.22,5.42-15,21.5-25.82,40.92-28.13,15.53-1.85,36.57-.76,57,11.66,39.48,24,21.32,68.9,21.32,68.9"/><path class="cls-15" d="M57.58,23.59c4.81,0,16.67,15.56,41.2,18.69,25.75,3.28,18.25,38,14.42,60.62-4.46,26.43-30.56,57.68-55.62,56.3S7.8,125.56,4,102.9-7.31,45.56,18.44,42.28C43,39.15,52.77,23.59,57.58,23.59"/><path class="cls-16" d="M56.85,55.63h3.54l2.68.28A34.68,34.68,0,0,1,74.83,59.5,35.56,35.56,0,0,1,88.67,72a34.78,34.78,0,0,1,5.45,15c.12.92.2,1.85.29,2.78v3.34c0,.16-.06.31-.08.47-.27,1.91-.39,3.85-.82,5.72a35.24,35.24,0,0,1-17.6,23.47A33.76,33.76,0,0,1,63,126.92c-.88.11-1.75.19-2.63.29H56.85a4.3,4.3,0,0,0-.47-.09A33.57,33.57,0,0,1,45,124.53a35.54,35.54,0,0,1-17.73-15.78,34.37,34.37,0,0,1-4.19-12.89c-.11-.89-.19-1.78-.29-2.67V89.65c0-.15.07-.29.09-.43.26-1.91.4-3.85.82-5.72A35.81,35.81,0,0,1,55.1,55.79l1.75-.16M86.57,91.41a28,28,0,1,0-28,28,27.93,27.93,0,0,0,28-28"/><path class="cls-16" d="M53.13,94.71c.94-1,1.8-1.86,2.67-2.74,4.84-4.84,9.67-9.7,14.53-14.52A5.13,5.13,0,1,1,77.24,85q-8.1,8.05-16.16,16.15c-1.43,1.42-2.84,2.85-4.28,4.26a5.08,5.08,0,0,1-7.06,0q-5-4.84-9.94-9.72a5.11,5.11,0,1,1,7.12-7.32c2,1.94,3.92,3.91,5.88,5.87.09.09.16.2.33.41"/></g></g></svg>