<svg xmlns="http://www.w3.org/2000/svg" xmlns:xlink="http://www.w3.org/1999/xlink" viewBox="0 0 392.68 553.93"><defs><style>.cls-1{fill:none;}.cls-2{fill:#1c1c1c;}.cls-3{fill:#469fc6;}.cls-4{fill:#f0f0f0;}.cls-5{fill:#4da9dd;}.cls-6{fill:#fff;}.cls-7{fill:#23549b;}.cls-8{fill:#308ab2;}.cls-9{clip-path:url(#clip-path);}.cls-10{fill:url(#Degradado_sin_nombre_4);}.cls-11{clip-path:url(#clip-path-2);}.cls-12{fill:url(#Degradado_sin_nombre_5);}.cls-13{clip-path:url(#clip-path-3);}.cls-14{fill:url(#Degradado_sin_nombre_6);}.cls-15{clip-path:url(#clip-path-4);}.cls-16{fill:url(#Degradado_sin_nombre_4-2);}.cls-17{fill:#333;}.cls-18{fill:#eabc42;}.cls-19{fill:#305596;}</style><clipPath id="clip-path" transform="translate(58.4 130.91)"><path class="cls-1" d="M51.82,36.67,68.21,31,50.82,4.92s.33,31.33,1,31.75"/></clipPath><linearGradient id="Degradado_sin_nombre_4" x1="1101.03" y1="813.91" x2="1102.04" y2="813.91" gradientTransform="matrix(0, -31.01, -31.01, 0, 25296.14, 34173.98)" gradientUnits="userSpaceOnUse"><stop offset="0" stop-color="#e3e2fb"/><stop offset="0.3" stop-color="#cbd0f4"/><stop offset="0.75" stop-color="#acb9eb"/><stop offset="1" stop-color="#a0b0e8"/></linearGradient><clipPath id="clip-path-2" transform="translate(58.4 130.91)"><polygon class="cls-1" points="50.82 4.92 68.21 31.02 87.64 30.1 50.3 2.78 50.82 4.92"/></clipPath><linearGradient id="Degradado_sin_nombre_5" x1="1098.42" y1="809.83" x2="1099.43" y2="809.83" gradientTransform="matrix(0, -35.28, -35.28, 0, 28642.7, 38790.58)" gradientUnits="userSpaceOnUse"><stop offset="0" stop-color="#f6f8f9"/><stop offset="0.94" stop-color="#d0d9fb"/><stop offset="1" stop-color="#cdd7fb"/><stop offset="1" stop-color="#cdd7fb"/></linearGradient><clipPath id="clip-path-3" transform="translate(58.4 130.91)"><polygon class="cls-1" points="0 7.53 20.32 55.87 52.47 31.14 15.59 0 0 7.53"/></clipPath><linearGradient id="Degradado_sin_nombre_6" x1="1083.7" y1="802.28" x2="1084.71" y2="802.28" gradientTransform="matrix(54.54, 0, 0, -54.54, -59108.49, 43785.22)" gradientUnits="userSpaceOnUse"><stop offset="0" stop-color="#f6f8f9"/><stop offset="0.32" stop-color="#edf1f9"/><stop offset="0.83" stop-color="#d6defb"/><stop offset="1" stop-color="#cdd7fb"/><stop offset="1" stop-color="#cdd7fb"/></linearGradient><clipPath id="clip-path-4" transform="translate(58.4 130.91)"><polygon class="cls-1" points="44.77 36.77 57.78 43.99 52.02 30.91 44.77 36.77"/></clipPath><linearGradient id="Degradado_sin_nombre_4-2" x1="1109.95" y1="871.1" x2="1110.95" y2="871.1" gradientTransform="matrix(0, -13.04, -13.04, 0, 11470.17, 14650.39)" xlink:href="#Degradado_sin_nombre_4"/></defs><title>Recurso 10nuevo</title><g id="Capa_2" data-name="Capa 2"><g id="Capa_1-2" data-name="Capa 1"><path class="cls-2" d="M-51.56,249.36A21.82,21.82,0,0,1-29.8,227.61H83.34a21.82,21.82,0,0,1,21.75,21.75l-3.26,162.7A21.52,21.52,0,0,1,99.9,421c1.24,2.72-69.17,2.72-67.94,0A21.67,21.67,0,0,1,30,412.06V341.42a3.67,3.67,0,0,0-7.34,0v70.64A21.67,21.67,0,0,1,20.76,421c1.23,2.72-69.18,2.72-67.94,0a21.52,21.52,0,0,1-1.93-8.92Z" transform="translate(58.4 130.91)"/><path class="cls-3" d="M68.37,9S36.64-5.64,4.05,8L50.8,28.86l10,11.94Z" transform="translate(58.4 130.91)"/><path class="cls-4" d="M243.35,90.46a80.2,80.2,0,0,1-22.87,1.71c-20.89-1.88-42.09-8-61.84-15.37-16.2-6-41.07-6.09-56.22-14.68C89.18,54.61,60.93,50.29,72.68,20.9c2-5-7.24-10.93,0-9.94,32.6,4.44,160.56,39.09,160.56,39.09Z" transform="translate(58.4 130.91)"/><path class="cls-5" d="M285.9-69.79,279.32-48.5a14.27,14.27,0,0,1-17.85,9.42,14.26,14.26,0,0,1-9.42-17.85l6.57-21.28a14.28,14.28,0,0,1,17.85-9.43,14.28,14.28,0,0,1,9.43,17.85" transform="translate(58.4 130.91)"/><path class="cls-4" d="M242.54,91s-35.75-8.4-31.91-33.12S252.44-60.08,252.44-60.08L280.27-48S265.88,74.88,242.54,91" transform="translate(58.4 130.91)"/><path class="cls-6" d="M99.31,47.35C97.85,25.49,77.58,8.06,51,3.72l1.88,33.91S12.11,1.42,12.08,1.38C9.6-1.24-3.84,5-6.53,6.09c-21,8.2-32.71,6-41,31.83-5.95,18.46-8.26,39.27-9.74,58.38a452.83,452.83,0,0,0-.3,58.48c2,38.21.76,73.32,4.7,111.36,1.15,11.14,23.55,11.45,33.61,13.88a162.87,162.87,0,0,0,43.22,4.38,164.86,164.86,0,0,0,57.46-12.25c6.63-2.73,18.38-6.3,22.66-12.47,4-5.79,2.41-15.81,2.27-22.39-1.26-59.94-3-129.91-7-189.94" transform="translate(58.4 130.91)"/><path class="cls-7" d="M71.79,47.82,63.55,74.5a1.57,1.57,0,0,1-2.92.22L48.07,48.65a1.57,1.57,0,0,1,1.37-2.26L56,46.2a1.56,1.56,0,0,1,1.45.87l.62,1.25a1.58,1.58,0,0,0,3-.72A1.56,1.56,0,0,1,62.59,46l7.65-.23a1.58,1.58,0,0,1,1.55,2" transform="translate(58.4 130.91)"/><path class="cls-7" d="M62.85,69h-3a1.56,1.56,0,0,0-1.57,1.49L50.61,206.39a1.6,1.6,0,0,0,.47,1.21l14.84,14.55a1.57,1.57,0,0,0,2.34-.15l12.85-16.31a1.57,1.57,0,0,0,.32-1.18l-17-134.17A1.58,1.58,0,0,0,62.85,69" transform="translate(58.4 130.91)"/><path class="cls-4" d="M8.29,183.59a20.61,20.61,0,0,1-18-8c-13.3-17.36-9.32-19.06-17.22-39.39A315.2,315.2,0,0,1-42.14,84.6c-3.13-15.44-16.69-66.43,17.72-62.77,8.58.92,15,6.71,19.27,13C14.34,63,34.62,155.72,34.62,155.72Z" transform="translate(58.4 130.91)"/><path class="cls-5" d="M142,83l11.2-5.85c5.59-2.92,11.58-4.62,16.37-9,3.62-3.28,6.29-7.93,6.14-12.82s-3.67-9.77-8.51-10.48c-4.34-.64-8.43,2-12.06,4.44l-8.9,6.09L147.69,51c.58-1.72,1.15-3.64.38-5.29-2.85-6.1-7.49,4.21-8.51,6.1l-4.83,9-8.83,4.09Z" transform="translate(58.4 130.91)"/><path class="cls-4" d="M8.42,191.63a14.72,14.72,0,0,1-18-6.44c-6.3-11-13.6-29.68-.06-42.29C10.51,124.06,65.74,101.4,132,54.11l16.63,30.06S49.51,175.72,8.42,191.63" transform="translate(58.4 130.91)"/><path class="cls-3" d="M31.22,15h7A11.32,11.32,0,0,0,49.52,3.68V-7H19.91V3.68A11.31,11.31,0,0,0,31.22,15" transform="translate(58.4 130.91)"/><path class="cls-8" d="M19.84-1.36S35.12,4,49.72-1.27c0,0-6,7.73-29.82,6.25Z" transform="translate(58.4 130.91)"/><g class="cls-9"><rect class="cls-10" x="47.31" y="3.31" width="24.4" height="34.96" transform="translate(55.17 145.56) rotate(-13.67)"/></g><g class="cls-11"><rect class="cls-12" x="47.49" y="-1.23" width="42.96" height="36.27" transform="translate(56.36 147.68) rotate(-13.67)"/></g><g class="cls-13"><rect class="cls-14" x="-5.04" y="-1.89" width="62.55" height="59.65" transform="translate(53.36 180.98) rotate(-82.09)"/></g><g class="cls-15"><rect class="cls-16" x="103.17" y="161.82" width="13.02" height="13.08"/></g><path class="cls-5" d="M92.39-59.94A58.52,58.52,0,0,1,36.57,1.17,58.52,58.52,0,0,1-24.54-54.65a58.54,58.54,0,0,1,55.82-61.11A58.54,58.54,0,0,1,92.39-59.94" transform="translate(58.4 130.91)"/><path class="cls-6" d="M34-16.55c-19.94,0-35.53-11.81-35.5-26.81H5c0,10.67,13.25,19.7,29,19.73s29-8.95,29.06-19.61h6.53c0,15-15.67,26.71-35.6,26.67" transform="translate(58.4 130.91)"/><path class="cls-17" d="M18.26-127c-20.8,5.23-37,20.68-42.29,41.47a76.1,76.1,0,0,0-1.75,25.79c.29,3,2.13,7.63,1.72,10.6,5.5-39,19.27-43.74,20.12-44.38,21.48,9.13,46.61,6.9,68-2.59l2.31-1c2.44,7.78,5.9,16,11,22.46,7.31,9.14,11.88,19,13.18,30.72.28,2.51,4.37-8.38,6.42-24.16C98.22-108.9,56.6-136.67,18.26-127" transform="translate(58.4 130.91)"/><path class="cls-18" d="M274.46-130.91c4.82,0,16.72,15.61,41.31,18.74,25.82,3.29,18.29,38.07,14.46,60.78-4.47,26.51-30.64,57.83-55.77,56.45s-49.91-33.73-53.69-56.45-11.36-57.49,14.45-60.78c24.6-3.13,34.43-18.74,39.24-18.74" transform="translate(58.4 130.91)"/><path class="cls-19" d="M273.73-98.78h3.55l2.68.28a34.69,34.69,0,0,1,11.8,3.6,35.67,35.67,0,0,1,13.88,12.51,35,35,0,0,1,5.46,15c.11.93.19,1.86.29,2.79v3.35c0,.16-.06.31-.08.47-.27,1.92-.39,3.86-.83,5.74a35.3,35.3,0,0,1-17.64,23.52,33.58,33.58,0,0,1-12.93,4.19l-2.63.28h-3.55a2.57,2.57,0,0,0-.47-.08,34,34,0,0,1-11.37-2.6,35.64,35.64,0,0,1-17.78-15.82,34.71,34.71,0,0,1-4.2-12.92c-.11-.89-.19-1.79-.29-2.68v-3.55c0-.15.07-.29.09-.43.27-1.92.4-3.86.83-5.74A35.11,35.11,0,0,1,254.2-91.76,35.07,35.07,0,0,1,272-98.61l1.75-.17m29.8,35.88a28,28,0,0,0-28-28,28,28,0,0,0-28,28,28,28,0,0,0,28,28.07,28,28,0,0,0,28-28" transform="translate(58.4 130.91)"/><path class="cls-19" d="M270-59.6c.94-1,1.8-1.87,2.68-2.75,4.85-4.85,9.7-9.72,14.57-14.55a5.08,5.08,0,0,1,8.42,1.76,5.14,5.14,0,0,1-1.5,5.82q-8.12,8.07-16.2,16.19c-1.43,1.42-2.85,2.86-4.29,4.27a5.09,5.09,0,0,1-7.08,0q-5-4.86-10-9.75a5.11,5.11,0,0,1-.42-6.89,5.1,5.1,0,0,1,7.56-.44c2,1.94,3.93,3.92,5.89,5.88.09.09.16.2.33.41" transform="translate(58.4 130.91)"/></g></g></svg>