<svg xmlns="http://www.w3.org/2000/svg" xmlns:xlink="http://www.w3.org/1999/xlink" viewBox="0 0 679.22 442.23"><defs><style>.cls-1,.cls-16{fill:none;}.cls-2{isolation:isolate;}.cls-3{clip-path:url(#clip-path);}.cls-4{opacity:0.9;fill:url(#linear-gradient);}.cls-5{fill:#ccb196;}.cls-6,.cls-8{opacity:0.5;}.cls-7{fill:#c4c4c4;}.cls-12,.cls-36,.cls-8{fill:#fff;}.cls-17,.cls-9{fill:#305596;}.cls-10,.cls-11{fill:#4da9dd;}.cls-10{stroke:#4da9dd;stroke-miterlimit:10;stroke-width:0.67px;}.cls-13{fill:#ff8e37;}.cls-14,.cls-15{fill:#ffbd30;}.cls-15{opacity:0.52;}.cls-16{stroke:#27426b;stroke-linecap:round;stroke-linejoin:round;stroke-width:1.33px;}.cls-17{opacity:0.1;}.cls-18{fill:#db742e;}.cls-19{fill:#ffb98a;}.cls-20{fill:#b7b7b7;}.cls-21,.cls-22{fill:#a9a5b0;}.cls-21{opacity:0.2;mix-blend-mode:multiply;}.cls-23{fill:#2c4770;}.cls-24{fill:#243c56;}.cls-25{fill:#eabc42;}.cls-26{opacity:0.8;}.cls-27{fill:#3d3139;}.cls-28{fill:#78546d;}.cls-29{fill:#5e3e56;}.cls-30{fill:#f0ca58;}.cls-31{fill:#f6e174;}.cls-32{fill:#52444d;}.cls-33{fill:#f9edac;}.cls-34{clip-path:url(#clip-path-2);}.cls-35{clip-path:url(#clip-path-3);}.cls-36{fill-rule:evenodd;}</style><clipPath id="clip-path"><rect class="cls-1" x="0.51" y="0.4" width="678.47" height="441.59" rx="18.73" ry="18.73"/></clipPath><linearGradient id="linear-gradient" x1="342.97" y1="498.36" x2="342.97" y2="-91.26" gradientUnits="userSpaceOnUse"><stop offset="0" stop-color="#fff"/><stop offset="0.19" stop-color="#f9fcfc"/><stop offset="0.43" stop-color="#e9f2f2"/><stop offset="0.71" stop-color="#cfe2e2"/><stop offset="0.76" stop-color="#c9dfdf"/><stop offset="0.91" stop-color="#a0ccdc"/><stop offset="1" stop-color="#8cc3db"/></linearGradient><clipPath id="clip-path-2"><rect class="cls-1" x="-1050.84" y="524.04" width="1932" height="1088"/></clipPath><clipPath id="clip-path-3"><rect class="cls-1" x="-1299.2" y="521.3" width="2440.33" height="924.11"/></clipPath></defs><title>SCTR-Y-VIDA-LEY-WEB-CRECER-SEGUROS</title><g class="cls-2"><g id="Capa_1" data-name="Capa 1"><g class="cls-3"><rect class="cls-4" x="-5.24" y="-14.03" width="696.42" height="413.2"/><path class="cls-5" d="M-413.07,387.82V493.36H786V390.54c-85.45-1.44-174.32-.84-261.75-.84-89.47,0-177.76-.72-266.64,0-91.28.73-182-1.2-273.22-.56-46,.31-86.36,1.91-132.89.64-35.7-1-72.52-1.76-109.14-2.1C-272.78,387.53-287.85,387.64-413.07,387.82Z"/><g class="cls-6"><path class="cls-7" d="M2.55,196.24v-67L-42.9,178.9v82.6H-72.18V143.12h-7.45l-21.2-19.81-21.32,19.81h-7.32V302.87H-237.21v87H73.54V196.24Zm-82.18,42.47H-122v-4.33h42.4Zm0-8.64H-122v-4.33h42.4Zm0-8.64H-122v-4.32h42.4Zm0-8.65H-122v-4.32h42.4Zm0-8.63H-122v-4.33h42.4Zm0-8.64H-122v-4.33h42.4Zm0-8.65H-122v-4.32h42.4Zm0-8.64H-122V173.9h42.4Zm0-8.64H-122v-4.32h42.4Zm0-8.63H-122v-4.33h42.4Zm0-8.65H-122V148h42.4ZM-3.22,362.8h-4.4V150.14l4.4-4.83Z"/><path class="cls-7" d="M323.49,196.24v-67L278,178.9v82.6H248.76V143.12h-7.45l-21.2-19.81-21.32,19.81h-7.32V302.87H83.74v87H394.49V196.24Zm-82.18,42.47H198.92v-4.33h42.39Zm0-8.64H198.92v-4.33h42.39Zm0-8.64H198.92v-4.32h42.39Zm0-8.65H198.92v-4.32h42.39Zm0-8.63H198.92v-4.33h42.39Zm0-8.64H198.92v-4.33h42.39Zm0-8.65H198.92v-4.32h42.39Zm0-8.64H198.92V173.9h42.39Zm0-8.64H198.92v-4.32h42.39Zm0-8.63H198.92v-4.33h42.39Zm0-8.65H198.92V148h42.39Zm76.41,210.5h-4.4V150.14l4.4-4.83Z"/><path class="cls-7" d="M207.5,308.81V157.35h-6.82V142h-52.8v15.32H141.1V347.76H91.55V261.53H19.4V374.68H-15.46V172H-86.53V327.72h-8.34V235h-12.86l-35.84-18.93V235h-7.84V349.5h-17.4v-155h-17.6V140.08h-2.41v54.39h-17.6V390.22H252V308.81Zm-380.56-14.72h-29v-3.37h29Zm0-7.8h-29v-3.37h29Zm0-7.8h-29v-3.37h29Zm0-7.8h-29v-3.37h29Zm0-7.8h-29v-3.37h29Zm0-7.8h-29v-3.37h29Zm0-7.8h-29v-3.37h29Zm0-7.8h-29v-3.37h29Zm0-7.8h-29v-3.37h29Zm0-7.8h-29v-3.37h29Zm0-7.8h-29v-3.37h29Zm0-7.8h-29v-3.37h29Zm0-7.8h-29v-3.37h29Zm101.84,46.43h-8.65v-8.64h8.65Zm0-14.41h-8.65v-8.64h8.65Zm0-14.41h-8.65v-8.64h8.65Zm0-14.4h-8.65v-8.65h8.65Zm0-14.42h-8.65v-8.65h8.65Zm16.42,57.64h-8.64v-8.64h8.64Zm0-14.41h-8.64v-8.64h8.64Zm0-14.41h-8.64v-8.64h8.64Zm0-14.4h-8.64v-8.65h8.64Zm0-14.42h-8.64v-8.65h8.64Zm16.43,57.64H-47v-8.64h8.65Zm0-14.41H-47v-8.64h8.65Zm0-14.41H-47v-8.64h8.65Zm0-14.4H-47v-8.65h8.65Zm0-14.42H-47v-8.65h8.65Zm16.42,57.64h-8.63v-8.64h8.63Zm0-14.41h-8.63v-8.64h8.63Zm0-14.41h-8.63v-8.64h8.63Zm0-14.4h-8.63v-8.65h8.63ZM214.31,380.09h-9v-9h9Zm0-18h-9v-9h9Zm0-18h-9v-9h9Zm0-18h-9v-9h9Zm16.67,54h-9v-9h9Zm0-18h-9v-9h9Zm0-18h-9v-9h9Zm0-18h-9v-9h9Zm16.67,54h-9v-9h9Zm0-18h-9v-9h9Zm0-18h-9v-9h9Zm0-18h-9v-9h9Z"/><path class="cls-7" d="M418.34,292.72V157.35h-6.83V142H358.72v15.32h-6.79V347.76H302.38V261.53H230.23V374.68H195.37V172H124.3V327.72H116V235H103.1L67.26,216.09V235H59.42V349.5H42v-155H24.42V140.08H22v54.39H4.41V390.22H462.8v-97.5ZM37.78,294.09h-29v-3.37h29Zm0-7.8h-29v-3.37h29Zm0-7.8h-29v-3.37h29Zm0-7.8h-29v-3.37h29Zm0-7.8h-29v-3.37h29Zm0-7.8h-29v-3.37h29Zm0-7.8h-29v-3.37h29Zm0-7.8h-29v-3.37h29Zm0-7.8h-29v-3.37h29Zm0-7.8h-29v-3.37h29Zm0-7.8h-29v-3.37h29Zm0-7.8h-29v-3.37h29Zm0-7.8h-29v-3.37h29Zm101.83,46.43H131v-8.64h8.65Zm0-14.41H131v-8.64h8.65Zm0-14.41H131v-8.64h8.65Zm0-14.4H131v-8.65h8.65Zm0-14.42H131v-8.65h8.65ZM156,246.92H147.4v-8.64H156Zm0-14.41H147.4v-8.64H156Zm0-14.41H147.4v-8.64H156Zm0-14.4H147.4v-8.65H156Zm0-14.42H147.4v-8.65H156Zm16.43,57.64h-8.64v-8.64h8.64Zm0-14.41h-8.64v-8.64h8.64Zm0-14.41h-8.64v-8.64h8.64Zm0-14.4h-8.64v-8.65h8.64Zm0-14.42h-8.64v-8.65h8.64Zm16.42,57.64h-8.63v-8.64h8.63Zm0-14.41h-8.63v-8.64h8.63Zm0-14.41h-8.63v-8.64h8.63Zm0-14.4h-8.63v-8.65h8.63ZM429.7,356.24h-7.76v-7.76h7.76Zm0-15.53h-7.76V333h7.76Zm0-15.54h-7.76v-7.75h7.76Zm0-15.53h-7.76v-7.76h7.76Zm14.39,46.6h-7.76v-7.76h7.76Zm0-15.53h-7.76V333h7.76Zm0-15.54h-7.76v-7.75h7.76Zm0-15.53h-7.76v-7.76h7.76Zm14.39,46.6h-7.76v-7.76h7.76Zm0-15.53h-7.76V333h7.76Zm0-15.54h-7.76v-7.75h7.76Zm0-15.53h-7.76v-7.76h7.76Z"/><rect class="cls-7" x="462.8" y="321.62" width="30.78" height="68.6"/><path class="cls-7" d="M534.51,390.73H-278.13a.92.92,0,0,1-.92-.92h0a.92.92,0,0,1,.92-.92H534.51a.92.92,0,0,1,.92.92h0A.92.92,0,0,1,534.51,390.73Z"/></g><path class="cls-8" d="M494.88,116.14H601.55c16.09,0,16.29-18.29,2-22A29.77,29.77,0,0,0,578.45,99s-3.87-44.95-40.6-39.68c-28.94,4.17-27.26,33.06-27.26,33.06S504.63,80.53,489,85C472.72,89.73,474.48,116.14,494.88,116.14Z"/><path class="cls-8" d="M181.48,73.11H98.91c-12.45,0-12.61-14.16-1.56-17a23,23,0,0,1,19.44,3.77s3-34.8,31.42-30.71c22.41,3.22,21.11,25.59,21.11,25.59S173.93,45.55,186,49C198.63,52.67,197.26,73.11,181.48,73.11Z"/><path class="cls-9" d="M576.3,403.58q-43,0-86,0c-7.85,0-15.74.37-23.54-.26-10.28-.83-17.7-6.58-21.74-16-3.95-9.19-3-18.21,3-26.43,5.47-7.56,13-11.14,22.28-11.13H609.24c23.71,0,47.43.13,71.15-.05,11.71-.1,20.66,4.38,26.11,14.78,9.37,17.85-3.86,39.09-24.31,39.12q-52.94.11-105.89,0Zm99.23-48.76H646.17c1.69,2.14,3.48,4.49,5.4,6.74a2.89,2.89,0,0,0,2,.87c3.72.09,7.44.08,11.16,0a3,3,0,0,0,1.74-.5C669.65,359.5,672.81,357,675.53,354.82Zm-198.86-.06c2.86,2.23,5.91,4.65,9,7a3.51,3.51,0,0,0,1.95.68c3.79.07,7.59.05,11.39,0,.51,0,1.37-.15,1.47-.43,1.13-3.28,3.53-5.38,7-7.26Zm29.89,43.82c-2.63-1.87-4.82-3.88-5.94-6.92-.15-.39-1-.71-1.57-.72-3.8-.06-7.61-.06-11.41,0a3.21,3.21,0,0,0-1.76.62c-3.17,2.38-6.3,4.82-9.15,7Zm169,0c-2.91-2.24-6-4.64-9.1-7a3.58,3.58,0,0,0-2-.69c-3.72-.07-7.45-.08-11.17,0a2.19,2.19,0,0,0-1.69.9,15.09,15.09,0,0,1-6,6.77Zm-63.36-43.8c3.56,1.77,5.77,3.87,7,6.94a1.7,1.7,0,0,0,1.33.71c3,.06,6,.06,9,0a1.72,1.72,0,0,0,1.29-.8c1.24-3,3.43-5.13,7-6.83Zm-40.29.08H548c1.55,1.36,3.73,2.38,4.37,4,1.5,3.86,4.32,3.81,7.5,3.6,1.45-.09,2.91.08,4.35-.06a2.24,2.24,0,0,0,1.62-1A13.94,13.94,0,0,1,571.88,354.88Zm-56.56-.06c1.58,1.34,3.67,2.27,4.25,3.78,1.69,4.43,5.07,4.09,8.62,3.89,1.13-.07,2.27.06,3.39-.05.56-.05,1.43-.33,1.57-.71,1.15-3.12,3.46-5.12,6.83-6.91Zm89.6.14H579.86c3.27,1.6,5.35,3.5,6.54,6.36a2.4,2.4,0,0,0,1.76,1.11c2.83.11,5.66.08,8.49,0,.55,0,1.41-.34,1.57-.74C599.41,358.6,601.67,356.56,604.92,355Zm31.89,43.6c-1.58-1.39-3.59-2.33-4.2-3.84-1.68-4.24-5-4-8.43-3.82-1.12.07-2.28-.11-3.38.06a3.37,3.37,0,0,0-1.89,1.07c-1.87,2.18-3.63,4.46-5.29,6.53Zm-32.42,0c-1.58-1.34-3.73-2.27-4.21-3.74-1.54-4.72-5.12-3.94-8.57-3.9a27.18,27.18,0,0,0-3.38,0,2.42,2.42,0,0,0-1.7.91,14.59,14.59,0,0,1-6.07,6.68Zm-32.6,0c-1.65-1.46-3.78-2.46-4.38-4-1.51-4-4.49-3.85-7.74-3.64-1.29.08-2.59,0-3.88,0-.53,0-1.39.14-1.51.44-1.24,3.16-3.48,5.39-7.09,7.21Zm-55.54-.12h22.86c-1.49-1.33-3.66-2.34-4.19-3.91-1.43-4.25-4.57-3.74-7.76-3.64-1.37,0-2.76-.09-4.11.06a2.89,2.89,0,0,0-1.62,1C519.62,394.17,517.88,396.41,516.25,398.46Zm-36.34-7.74a21.85,21.85,0,0,0-2.75,1.09,16.7,16.7,0,0,1-16.69.08,17.19,17.19,0,0,1-7.13-23.18,17.39,17.39,0,0,1,24-7.07,15.58,15.58,0,0,0,2.75.92c-6.75-6.7-18.87-5.69-25.41,1.64A19,19,0,0,0,456.46,391C463.81,397.41,475.17,396.37,479.91,390.72Zm192.34,0c6.31,6.7,18.61,5.83,25-1.22,7.36-8.06,6.6-19.94-1.75-27.25-6.46-5.66-18.72-5.66-24,.61,1.56-.57,2.46-1,3.4-1.22,2.93-.81,5.87-2.17,8.82-2.21A17,17,0,0,1,700,371.17a17.33,17.33,0,0,1-25.14,20.51A15.78,15.78,0,0,0,672.25,390.76Zm-203.8-9.66a4.4,4.4,0,1,0,.25-8.79,4.77,4.77,0,0,0-4.49,4.29A4.71,4.71,0,0,0,468.45,381.1Zm215-8.8a4.58,4.58,0,0,0-4.31,4.42,4.33,4.33,0,0,0,4.6,4.29,4.25,4.25,0,0,0,4.15-4.45A4.43,4.43,0,0,0,683.46,372.3Z"/><polygon class="cls-9" points="478.68 308.32 487.84 290.87 488.83 291.38 478.68 310.63 478.68 308.32"/><polygon class="cls-9" points="479.03 313.44 492.13 288.47 492.81 288.67 478.9 315.07 479.03 313.44"/><circle class="cls-9" cx="488.76" cy="290.67" r="1.79"/><circle class="cls-9" cx="492.81" cy="287.68" r="1.52"/><path class="cls-10" d="M488.78,292.27a3,3,0,0,0,3,3.33c9.89-.38,18-4.1,23.56-12.6a19.42,19.42,0,0,0,1.39-2.58,3,3,0,0,0-1.45-4.24,3,3,0,0,0-4.05,1.71,19.29,19.29,0,0,1-8.58,8.89,24.57,24.57,0,0,1-10.66,2.76A3,3,0,0,0,488.78,292.27Z"/><path class="cls-11" d="M504,254.6h0a8.18,8.18,0,0,0-5.34,10.22l.12.36a8.17,8.17,0,0,0,2.23,3.59,5.66,5.66,0,0,0,1.32-.24c2.15-.66,3.58-2.46,3.13-3.94l.89-.27c.64,2.07-1,4.36-3.72,5.19l-.5.14a8.05,8.05,0,0,0,6.78,1h0a8.18,8.18,0,0,0,5.34-10.22l-.12-.36A8.17,8.17,0,0,0,504,254.6Z"/><path class="cls-12" d="M506.35,264.32l-.89.27c.45,1.48-1,3.28-3.13,3.94a5.66,5.66,0,0,1-1.32.24,8.68,8.68,0,0,0,1.12.88l.5-.14C505.35,268.68,507,266.39,506.35,264.32Z"/><path class="cls-13" d="M497.82,261.34a18.56,18.56,0,0,0-2,1c-.8.56-1.17,1.71.13,1.86a6.93,6.93,0,0,0,2.39-.65Z"/><path class="cls-14" d="M501.76,260.44,498,262.76a8.18,8.18,0,0,1,15.64-4.58l-4.59.1A14.51,14.51,0,0,0,501.76,260.44Z"/><path class="cls-13" d="M497.45,263.09l.53-.33a8,8,0,0,0,.2.81s0,0,0,0l-.46.14a.36.36,0,0,1-.45-.24A.37.37,0,0,1,497.45,263.09Z"/><path class="cls-13" d="M513.62,258.18H514a.36.36,0,0,1,.34.24.35.35,0,0,1-.23.43l-.28.08a.83.83,0,0,1,0-.15Z"/><path class="cls-15" d="M498,262.76l3.78-2.32a14.51,14.51,0,0,1,7.27-2.16l4.59-.1.21.59a.83.83,0,0,0,0,.15l-15.67,4.69s0,0,0,0A8,8,0,0,1,498,262.76Z"/><path class="cls-14" d="M498,262.76l3.78-2.32a14.51,14.51,0,0,1,7.27-2.16l4.59-.1.21.59a.83.83,0,0,0,0,.15l-15.67,4.69s0,0,0,0A8,8,0,0,1,498,262.76Z"/><path class="cls-13" d="M497.85,262.84s14-4.65,15.77-4.66l.25.74-15.67,4.69Z"/><path class="cls-16" d="M525.74,292.46c-1.62,0-17.79,0-26.82,0a7.25,7.25,0,0,0-7.14,5.9l-4.29,22.46"/><path class="cls-9" d="M567.77,286.21c5.43,0,10.51,0,15.6,0q40.2-.06,80.4-.11c8.72,0,14.73,6.15,14.73,14.87q0,10.56,0,21.13c0,8.39-6.12,14.72-14.45,14.72q-76.41,0-152.8-.06c-7.85,0-15.7.08-23.55.06-8.56,0-14.7-6.16-14.71-14.69,0-13.77-.37-27.54.07-41.3.71-22.09,15.52-43.33,39.37-47.39a43.19,43.19,0,0,1,7-.51q16.51-.06,33,0c9.21,0,15.23,6,15.26,15.17,0,11.74,0,23.47,0,35.21Zm-37.46-47.1c-3.62,0-6.86.1-10.1,0-21-.71-40.3,18.93-40.58,39.91-.14,11-.06,22,0,33,0,5.06,3.17,8.16,8.21,8.2,4.61,0,9.24-.23,13.84.06,8.68.57,14-3.57,17.3-11.25,3.42-8,7-16,10.49-24a10.3,10.3,0,0,0,.81-3.95c.06-13,0-26.08,0-39.11Zm4,0v44H556c0-12.41.1-24.55-.06-36.68a7.36,7.36,0,0,0-6.91-7.24C544.21,239,539.36,239.13,534.33,239.13Zm100.92,69h12.37a53.75,53.75,0,0,0,5.82-.07c.84-.09,1.59-.9,2.39-1.39-.75-.53-1.48-1.07-2.25-1.56-.17-.11-.47,0-.71,0h-35a3.65,3.65,0,0,0-1.67.13c-.55.32-1.3,1-1.28,1.44s.79,1.12,1.37,1.37a5.08,5.08,0,0,0,1.92.09Zm.28-7.73c5.89,0,11.79.06,17.68-.06.89,0,2.45-.82,2.52-1.41.22-1.73-1.36-1.63-2.55-1.63-11.88,0-23.75,0-35.62.06-.9,0-2.51.85-2.56,1.41-.15,1.64,1.35,1.64,2.6,1.64Zm-.13,23.27h0c6.07,0,12.14.05,18.21-.08.76,0,1.49-1,2.24-1.55a23.74,23.74,0,0,0-2.18-1.4,3,3,0,0,0-1.2,0H618.23a6.11,6.11,0,0,0-2.15.18c-.5.2-1.13.84-1.13,1.28a1.92,1.92,0,0,0,1.06,1.39,5.41,5.41,0,0,0,2.14.21Zm.1-10.83c-5.91,0-11.82-.07-17.73.06-1,0-1.94.93-2.9,1.43.93.53,1.85,1.53,2.79,1.54,11.82.1,23.64.07,35.46.06,1.24,0,2.75.05,2.61-1.63-.05-.56-1.62-1.37-2.5-1.39C647.32,312.79,641.41,312.85,635.5,312.85Z"/><path class="cls-9" d="M307.11,194.55c4-5.46,7.87-10.72,11.87-16.15,5.32,3.56,10.53,7.06,15.75,10.54l80.89,54c6,4,12,7.93,17.92,12,1.36.94,2.19.74,3.33-.26,3.89-3.41,7.89-6.7,11.78-10.11a2,2,0,0,1,2.74-.29,69.18,69.18,0,0,0,7.1,3.68c2.1.91,2.45,2.29,2.24,4.38-.57,5.8-.9,11.61-1.41,17.42-.14,1.61.2,2.77,1.75,3.55,1.22.61,2.23,1.68,3.47,2.21,4.17,1.8,5.28,4.79,5.14,9.3-.36,12.21-.12,24.44-.12,36.67v2.62Zm36.11,10.89a4.12,4.12,0,0,0-4.31-4.24,4.28,4.28,0,0,0-4.25,4.35,4.4,4.4,0,0,0,4.24,4.16A4.2,4.2,0,0,0,343.22,205.44Z"/><path class="cls-9" d="M270,291.89l4.36,5.87c6.66-13.31,13.24-26.45,19.9-39.77l3.78,1.87c-2.28,4.6-4.48,9.07-6.7,13.53-4.48,9-9,17.93-13.39,26.94a3.17,3.17,0,0,0,.22,2.72c14.17,19.77,28.44,39.47,42.62,59.23a4.6,4.6,0,0,0,4.34,2.24c3.2-.08,6.74-.74,9,3.27-4.13.38-8.1.87-12.08,1.11-11.61.71-23.22,1.11-34.83-.06-7.26-.73-14.47-1.68-21-5.2a21.74,21.74,0,0,1-10.05-10.8c-2.52-5.86-1.29-11.59,1.51-16.81,4.05-7.54,8.64-14.79,13.15-22.07a4.38,4.38,0,0,0,.45-4.51c-1.29-2.87-2.66-5.71-3.9-8.6C265.64,296.92,266.33,294.66,270,291.89Zm12.67,30.27a3.67,3.67,0,0,0-4.41-2.75,3.56,3.56,0,0,0-2.68,4.41,3.62,3.62,0,0,0,4.22,2.67A3.68,3.68,0,0,0,282.7,322.16Z"/><path class="cls-9" d="M293,319.34c-3.35-4.57-6.51-8.83-9.56-13.16a2.58,2.58,0,0,1,.14-2.14q8-16.76,16-33.47,14.52-30.15,29.09-60.3c.28-.57.63-1.12,1.06-1.89L344.26,216Z"/><path class="cls-9" d="M502.53,347.27V339.4h89.32v7.87Z"/><path class="cls-9" d="M360.46,191.63,396,215c-1,1.59-2,3-3,4.66l-35.88-23.55-2.49,2.65-13.89-9.23c2.59-3.57,5.11-7.06,7.65-10.55.81-1.11,1.64-2.21,2.47-3.3a8.28,8.28,0,0,1,10.33-2.64c4,1.7,6.52,5.77,5.83,9.64a5.62,5.62,0,0,1-1.24,2.28C364.07,187.16,362.34,189.27,360.46,191.63Z"/><path class="cls-9" d="M398.53,213.88l47.39,31.2-8.68,7.16L392.7,222.73Z"/><path class="cls-9" d="M300.71,259.37l-7.18-3.6c8.75-17.52,17.43-34.92,26.24-52.59L327,206.7Z"/><path class="cls-9" d="M592.89,283.58c-.66-4.46,1.18-6.68,5.45-6.68q26.94,0,53.89,0c4.55,0,6.24,1.93,5.71,6.69Z"/><path class="cls-17" d="M530.31,239.11V242c0,13,0,26.07,0,39.11a10.3,10.3,0,0,1-.81,3.95c-3.45,8-7.07,16-10.49,24-3.27,7.68-8.62,11.82-17.3,11.25-4.6-.29-9.23,0-13.84-.06-5,0-8.19-3.14-8.21-8.2-.05-11-.13-22,0-33,.28-21,19.57-40.62,40.58-39.91C523.45,239.21,526.69,239.11,530.31,239.11Z"/><path class="cls-17" d="M534.33,239.13c5,0,9.88-.13,14.73,0a7.36,7.36,0,0,1,6.91,7.24c.16,12.13.06,24.27.06,36.68h-21.7Z"/><polygon class="cls-9" points="527.4 303.95 509.96 305.14 509.96 321.42 532.17 316.13 527.4 303.95"/><path class="cls-14" d="M521.91,278.41a9.91,9.91,0,0,0-5.34-6.27c-4.26-1.86-7.92.21-8.41,4.83a28.14,28.14,0,0,0,.15,4l.48.07c.55-1.27,1.12-2.53,1.65-3.81a3.92,3.92,0,0,1,4-2.49,3.75,3.75,0,0,1,3.44,3,5.1,5.1,0,0,1-.18,2.36A25.32,25.32,0,0,1,511,290.37a1.69,1.69,0,0,0-.62,1.62c.17,1.38.22,2.78.32,4.24l13.59.26A43.23,43.23,0,0,0,521.91,278.41Z"/><path class="cls-9" d="M510.7,296.34a7.36,7.36,0,0,1-.89.11c-.7,0-1.4.05-2.1,0a33,33,0,0,0-12,1.42,6,6,0,0,1-1.86.31,1.31,1.31,0,0,0-1.47,1.16,7.51,7.51,0,0,0-.23,3q2.64,11.2,5.48,22.37a4.68,4.68,0,0,0,7.34,2.67,4.81,4.81,0,0,0,1.73-5.32q-1.86-7.62-3.74-15.25c-.06-.23-.08-.47-.14-.83h3.61c3.46,0,6.92,0,10.37-.15,4.14-.2,6.68-2.8,7.21-6.94.1-.79.18-1.58.24-2.36l-13.59-.26A.41.41,0,0,1,510.7,296.34Z"/><polygon class="cls-18" points="226.3 291.55 172.82 291.55 172.82 302.57 104.79 302.57 104.79 312.88 91.09 312.88 91.09 390.07 226.3 390.07 226.3 291.55"/><rect class="cls-19" x="199.9" y="335.66" width="26.4" height="10.31"/><rect class="cls-19" x="186.69" y="346.69" width="26.4" height="10.31"/><rect class="cls-19" x="199.9" y="357.71" width="26.4" height="10.31"/><rect class="cls-19" x="199.9" y="379.76" width="26.4" height="10.31"/><rect class="cls-19" x="186.69" y="368.74" width="26.4" height="10.31"/><rect class="cls-19" x="172.82" y="335.66" width="26.4" height="10.31"/><rect class="cls-19" x="159.62" y="346.69" width="26.4" height="10.31"/><rect class="cls-19" x="172.82" y="357.71" width="26.4" height="10.31"/><rect class="cls-19" x="172.82" y="379.76" width="26.4" height="10.31"/><rect class="cls-19" x="159.62" y="368.74" width="26.4" height="10.31"/><rect class="cls-19" x="145.74" y="335.66" width="26.4" height="10.31"/><rect class="cls-19" x="132.54" y="346.69" width="26.4" height="10.31"/><rect class="cls-19" x="145.74" y="357.71" width="26.4" height="10.31"/><rect class="cls-19" x="145.74" y="379.76" width="26.4" height="10.31"/><rect class="cls-19" x="132.54" y="368.74" width="26.4" height="10.31"/><rect class="cls-19" x="118.66" y="335.66" width="26.4" height="10.31"/><rect class="cls-19" x="105.46" y="346.69" width="26.4" height="10.31"/><rect class="cls-19" x="118.66" y="357.71" width="26.4" height="10.31"/><rect class="cls-19" x="118.66" y="379.76" width="26.4" height="10.31"/><rect class="cls-19" x="105.46" y="368.74" width="26.4" height="10.31"/><rect class="cls-19" x="91.59" y="335.66" width="26.4" height="10.31"/><rect class="cls-19" x="78.39" y="346.69" width="26.4" height="10.31"/><rect class="cls-19" x="91.59" y="357.71" width="26.4" height="10.31"/><rect class="cls-19" x="199.9" y="313.61" width="26.4" height="10.31"/><rect class="cls-19" x="186.69" y="324.64" width="26.4" height="10.31"/><rect class="cls-19" x="172.82" y="313.61" width="26.4" height="10.31"/><rect class="cls-19" x="159.62" y="324.64" width="26.4" height="10.31"/><rect class="cls-19" x="145.74" y="313.61" width="26.4" height="10.31"/><rect class="cls-19" x="132.54" y="324.64" width="26.4" height="10.31"/><rect class="cls-19" x="118.66" y="313.61" width="26.4" height="10.31"/><rect class="cls-19" x="105.46" y="324.64" width="26.4" height="10.31"/><rect class="cls-19" x="91.59" y="313.61" width="26.4" height="10.31"/><rect class="cls-19" x="78.39" y="324.64" width="26.4" height="10.31"/><rect class="cls-19" x="199.9" y="291.55" width="26.4" height="10.31"/><rect class="cls-19" x="213.84" y="302.57" width="12.46" height="10.31"/><rect class="cls-19" x="213.84" y="324.64" width="12.46" height="10.31"/><rect class="cls-19" x="213.84" y="346.71" width="12.46" height="10.31"/><rect class="cls-19" x="213.84" y="368.78" width="12.46" height="10.31"/><rect class="cls-19" x="186.69" y="302.57" width="26.4" height="10.31"/><rect class="cls-19" x="172.82" y="291.55" width="26.4" height="10.31"/><rect class="cls-19" x="159.62" y="302.57" width="26.4" height="10.31"/><rect class="cls-19" x="132.54" y="302.57" width="26.4" height="10.31"/><rect class="cls-19" x="105.46" y="302.57" width="26.4" height="10.31"/><rect class="cls-19" x="91.59" y="379.76" width="26.4" height="10.31"/><rect class="cls-19" x="78.39" y="368.74" width="26.4" height="10.31"/><path class="cls-20" d="M225,290.28H185.07a2.07,2.07,0,0,0-2,1.35c-.22.66,0,1.31,1.89,1.25,3.73-.12,7.2-3,9.78-.82s2.12,5.47,4.14,4.54.65-3.84,5.85-3.78,6.74,3,8.88,1.53,6.74-3.49,9.43-2S228,290.28,225,290.28Z"/><ellipse class="cls-21" cx="568.8" cy="400.97" rx="157.74" ry="21.26"/><ellipse class="cls-21" cx="305.52" cy="403.63" rx="55.58" ry="10.69"/><path class="cls-22" d="M290.56,319.63s9.84-7.44,22.08-3.19,25,22.88,18.09,38.3-9.58,8.52-9.58,8.52Z"/><ellipse class="cls-21" cx="142.92" cy="421.98" rx="62.18" ry="14.55"/><ellipse class="cls-21" cx="45.92" cy="398.1" rx="32.06" ry="3.18"/><path class="cls-23" d="M116.56,336.39a7,7,0,0,1,7-7H160a7,7,0,0,1,7,7v21.47a7,7,0,0,1-1.16,3.85,7.12,7.12,0,0,1,.11,1.23V388.8a7.07,7.07,0,0,1-.62,2.87,7.07,7.07,0,0,1,.62,2.87V420.4a7,7,0,0,1-7,7h-9.11a7,7,0,0,1-7-7V394.54a6.91,6.91,0,0,1,.62-2.87,6.91,6.91,0,0,1-.62-2.87V364.86h-2.36V388.8a6.92,6.92,0,0,1-.63,2.87,6.92,6.92,0,0,1,.63,2.87V420.4a7,7,0,0,1-7,7h-9.11a7,7,0,0,1-7-7V394.54a6.91,6.91,0,0,1,.62-2.87,6.91,6.91,0,0,1-.62-2.87V362.94a7.22,7.22,0,0,1,.17-1.55,7,7,0,0,1-1-3.53Z"/><path class="cls-24" d="M143.75,415.32h21.31a.91.91,0,0,1,.91.91v8.71a6.67,6.67,0,0,1-6.67,6.67h-9.79a6.67,6.67,0,0,1-6.67-6.67v-8.71a.91.91,0,0,1,.91-.91Z" transform="translate(308.81 846.94) rotate(-180)"/><path class="cls-24" d="M118.26,415.32h21.31a.91.91,0,0,1,.91.91v8.71a6.67,6.67,0,0,1-6.67,6.67H124a6.67,6.67,0,0,1-6.67-6.67v-8.71a.91.91,0,0,1,.91-.91Z" transform="translate(257.82 846.94) rotate(-180)"/><rect class="cls-9" x="113.39" y="266.28" width="55.75" height="86.4" rx="7.5" ry="7.5" transform="translate(282.53 618.97) rotate(180)"/><rect class="cls-11" x="106.09" y="265.47" width="15.99" height="38.63" rx="7.02" ry="7.02" transform="translate(104.16 591.42) rotate(-156.31)"/><path class="cls-9" d="M114,284.73h0c4.41,1.94,7.81,3.88,8.93,1.35l4.79-10.94c1.12-2.54-1.56-6.16-6-8.1h0c-4.41-1.93-8.89-1.44-10,1.1l-4.8,10.93C105.82,281.61,109.56,282.8,114,284.73Z"/><rect class="cls-11" x="89.67" y="249.33" width="15.99" height="56.47" rx="7.02" ry="7.02" transform="translate(321.02 469.1) rotate(150)"/><rect class="cls-11" x="162.79" y="265.87" width="15.99" height="38.63" rx="7.02" ry="7.02" transform="translate(-102.18 95.49) rotate(-24.29)"/><path class="cls-9" d="M170.91,285.13h0c-4.39,2-7.78,4-8.91,1.44l-4.92-10.89c-1.14-2.52,1.5-6.18,5.88-8.16h0c4.39-2,8.87-1.53,10,1l4.91,10.89C179,281.92,175.3,283.15,170.91,285.13Z"/><rect class="cls-11" x="173.48" y="290.18" width="15.99" height="56.47" rx="7.02" ry="7.02" transform="translate(430.84 587.01) rotate(166.81)"/><path class="cls-11" d="M121,235a21.74,21.74,0,0,1,20.54-14.8h0a21.74,21.74,0,0,1,21.68,21.67v1a21.52,21.52,0,0,1-1.15,6.93,21.83,21.83,0,0,1-17.85,14.58,10.85,10.85,0,0,1-6.13-.11,21.74,21.74,0,0,1-18.23-21.4v-1A21.43,21.43,0,0,1,121,235Z"/><path class="cls-12" d="M141.57,255.78c7.64,0,13.62-4.5,13.62-10.25h-2.5c0,4.09-5.1,7.54-11.12,7.54s-11.12-3.45-11.12-7.54H128C128,251.28,133.93,255.78,141.57,255.78Z"/><path class="cls-14" d="M131.41,232.74l-11.33,2.94a21.59,21.59,0,0,1,43,.54l-11.65-3.28A38.3,38.3,0,0,0,131.41,232.74Z"/><path class="cls-13" d="M118.48,236.1l1.6-.42a19.83,19.83,0,0,0-.11,2.19V238h-1.25a1,1,0,0,1-.24-1.89Z"/><path class="cls-13" d="M163.08,236.22l1.08.31a.9.9,0,0,1,.66.86.91.91,0,0,1-.91.91h-.77c0-.14,0-.28,0-.42C163.15,237.31,163.12,236.76,163.08,236.22Z"/><path class="cls-15" d="M120.08,235.68l11.33-2.94a38.3,38.3,0,0,1,20,.2l11.65,3.28c0,.54.07,1.09.07,1.65,0,.14,0,.28,0,.42L120,238v-.13A19.83,19.83,0,0,1,120.08,235.68Z"/><path class="cls-13" d="M120.08,235.68l11.33-2.94a38.3,38.3,0,0,1,20,.2l11.65,3.28c0,.54.07,1.09.07,1.65,0,.14,0,.28,0,.42L120,238v-.13A19.83,19.83,0,0,1,120.08,235.68Z"/><path class="cls-14" d="M155.76,266.15s-.87,29.42,13.5,38v42.23a2.06,2.06,0,0,1-2.06,2.06h-52a2.06,2.06,0,0,1-2.06-2.06V303.84s12.22-3.51,13.83-37.76h6s-.94,23.88,8.19,33.55c0,0,7.52-4.27,8.6-33.56C149.79,266.07,155.76,266.5,155.76,266.15Z"/><polygon class="cls-13" points="169.4 315.19 141.59 307.34 113.12 315.19 113.12 323.88 141.19 315.61 169.46 323.88 169.4 315.19"/><polygon class="cls-13" points="169.4 331.91 141.59 324.06 113.12 331.91 113.12 340.6 141.19 332.33 169.46 340.6 169.4 331.91"/><rect class="cls-9" x="140.65" y="297.88" width="1.07" height="50.81" transform="translate(282.38 646.58) rotate(-180)"/><path class="cls-25" d="M80.31,230.47c1.78,0,6.17,5.77,15.26,6.93,9.54,1.21,6.76,14.06,5.34,22.45-1.65,9.79-11.32,21.36-20.6,20.85s-18.44-12.46-19.84-20.85-4.2-21.24,5.34-22.45C74.9,236.24,78.53,230.47,80.31,230.47Z"/><path class="cls-9" d="M80,242.34h1.31l1,.1a12.9,12.9,0,0,1,4.36,1.33,13.13,13.13,0,0,1,5.12,4.63,12.84,12.84,0,0,1,2,5.55c0,.34.07.68.11,1v1.23l0,.18a21.22,21.22,0,0,1-.31,2.12,13,13,0,0,1-6.51,8.69,12.57,12.57,0,0,1-4.78,1.55l-1,.1H80l-.18,0a12.71,12.71,0,0,1-4.2-1A13.18,13.18,0,0,1,69.09,262a12.8,12.8,0,0,1-1.55-4.78c0-.33-.07-.66-.1-1v-1.31l0-.16c.1-.71.15-1.42.3-2.12A13.26,13.26,0,0,1,79.39,242.4Zm11,13.25A10.36,10.36,0,1,0,80.69,266,10.35,10.35,0,0,0,91.05,255.59Z"/><path class="cls-9" d="M78.66,256.82c.35-.36.66-.69,1-1L85,250.42a1.9,1.9,0,1,1,2.56,2.8l-6,6c-.52.53-1,1.06-1.58,1.58a1.89,1.89,0,0,1-2.62,0l-3.68-3.6a1.89,1.89,0,1,1,2.64-2.71l2.18,2.17Z"/><g class="cls-26"><polygon class="cls-27" points="30.25 356.1 27.89 356.1 29.36 360.4 31.72 360.4 30.25 356.1"/><path class="cls-28" d="M19.11,390.78a6.73,6.73,0,1,0,8.52-4.23A6.72,6.72,0,0,0,19.11,390.78Z"/><path class="cls-29" d="M30.9,388.94a6.72,6.72,0,0,1-11.56,1.25,6,6,0,0,0-.23.59,6.73,6.73,0,1,0,11.79-1.84Z"/><path class="cls-30" d="M64.69,340.91v0l-3.13-23.13L56.81,314l-27.76-8.45L10,329.5,24.5,354.59l4.77,3.79,23.89-2.62,0,0c1.29-.31,3.91-2.62,6.39-5.61,2.89-3.47,5.3-7.5,5.17-9A1.29,1.29,0,0,0,64.69,340.91Z"/><path class="cls-31" d="M56.81,314l-27.76-8.45L18.12,319.27a73.35,73.35,0,0,0,12.46,10.85c13,9.05,26.63,12.93,34.06,10.36l-3.07-22.72Z"/><path class="cls-30" d="M22.38,391.88a3.28,3.28,0,1,0,4.15-2.06A3.27,3.27,0,0,0,22.38,391.88Z"/><polygon class="cls-27" points="44.03 379.12 36.74 379.12 67.04 399.65 69.16 399.65 44.03 379.12"/><path class="cls-32" d="M67.46,342.8,56.7,357.32l-27.47,2.62h0c0,.95,1.5,1.75,2.46,1.82l21,1.6L43,378.07H34.49l-8.73,14,.43.35,9.4-11.5h8.52l4.5-6.9a21.61,21.61,0,0,1,19.27-9.76h0C69.18,357.26,70.2,351.06,67.46,342.8Z"/><path class="cls-27" d="M56.89,363.26c-1.42,0-2.82.05-4.2.14L43,378.07H34.49l-8.73,14,.43.35,9.4-11.5h8.52l4.5-6.9a21.61,21.61,0,0,1,19.27-9.76l0-.11A65.23,65.23,0,0,0,56.89,363.26Z"/><polygon class="cls-32" points="48.92 338.27 48.14 339.32 63.01 351.76 65 349.13 48.92 338.27"/><path class="cls-32" d="M44.34,339.19a5,5,0,1,0,5-5A5,5,0,0,0,44.34,339.19Z"/><path class="cls-32" d="M24.29,392.53a1.26,1.26,0,1,0,1.59-.79A1.26,1.26,0,0,0,24.29,392.53Z"/><circle class="cls-30" cx="49.34" cy="339.19" r="2.05"/><ellipse class="cls-32" cx="19.45" cy="317.39" rx="14.53" ry="2.7" transform="translate(-239.37 132.65) rotate(-50.97)"/><path class="cls-27" d="M22.66,317.68c4.35-5.64,7-10.65,5.95-11.56-.81-.73-3.72,1.36-7.21,5A38.52,38.52,0,0,1,22.66,317.68Z"/><path class="cls-33" d="M51.13,317a61.53,61.53,0,0,0,8.92,1.88l0-.25-4.46-3.55-4.43-1.35Z"/><path class="cls-33" d="M47.17,312.52l-15.78-4.81c2.67,2.53,8.57,5.62,15.78,8.05Z"/></g></g><g class="cls-34"><g class="cls-35"><path class="cls-36" d="M5.75,1657.1h.92v-17.22H110.76v17.22h.92v-17.22H215.76v17.22h.92v-17.22H320.77v17.22h.92v-17.22H425.78v17.22h.91v-17.22H530.78v17.22h.92v-17.22H635.79v17.22h.91v-17.22H740.79v17.22h.92v-17.22H845.8v17.22h.92v-17.22H950.8v17.22h.92v-17.22h104.09v17.22h.92v-17.22h83.32V1639h-30.82v-30.19h30.82v-.92h-83.32v-30.19h83.32v-.92h-30.82v-30.2h30.82v-.91h-83.32v-30.2h83.32v-.92h-30.82v-30.19h30.82v-.92h-83.32v-30.19h83.32v-.92h-30.82v-30.2h30.82v-.92h-83.32V1391h83.32v-.92h-30.82v-30.19h30.82V1359h-83.32v-30.19h83.32v-.92h-30.82v-30.2h30.82v-.92h-83.32v-30.19h83.32v-.92h-30.82v-30.19h30.82v-.92h-83.32v-30.19h83.32v-.92h-30.82v-30.2h30.82v-.92h-83.32v-30.19h83.32v-.92h-30.82V1111h30.82v-.92h-83.32v-30.19h83.32v-.92h-30.82v-30.19h30.82v-.92h-83.32v-30.2h83.32v-.92h-30.82V986.52h30.82v-.92h-83.32V955.41h83.32v-.92h-30.82V924.3h30.82v-.92h-83.32v-30.2h83.32v-.92h-30.82V862.07h30.82v-.92h-83.32V831h83.32V830h-30.82V799.85h30.82v-.92h-83.32v-30.2h83.32v-.91h-30.82v-30.2h30.82v-.92h-83.32V706.51h83.32v-.92h-30.82V675.4h30.82v-.92h-83.32v-30.2h83.32v-.91h-30.82v-30.2h30.82v-.92h-83.32V582.06h83.32v-.92h-30.82V551h30.82V550h-83.32v-30.2h83.32v-.91h-30.82v-30.2h30.82v-.92h-83.32V457.61h83.32v-.92h-30.82V439.48h-.92v17.21H1004.22V439.48h-.91v17.21H899.22V439.48h-.92v17.21H794.21V439.48h-.92v17.21H689.21V439.48h-.92v17.21H584.2V439.48h-.92v17.21H479.2V439.48h-.92v17.21H374.19V439.48h-.92v17.21H269.19V439.48h-.92v17.21H164.18V439.48h-.92v17.21H59.18V439.48h-.92v17.21H-45.83V439.48h-.92v17.21H-77.57v.92H5.75V487.8H-77.57v.92h30.82v30.2H-77.57v.91H5.75V550H-77.57V551h30.82v30.19H-77.57v.92H5.75v30.19H-77.57v.92h30.82v30.2H-77.57v.91H5.75v30.2H-77.57v.92h30.82v30.19H-77.57v.92H5.75V736.7H-77.57v.92h30.82v30.2H-77.57v.91H5.75v30.2H-77.57v.92h30.82V830H-77.57V831H5.75v30.19H-77.57v.92h30.82v30.19H-77.57v.92H5.75v30.2H-77.57v.92h30.82v30.19H-77.57v.92H5.75V985.6H-77.57v.92h30.82v30.19H-77.57v.92H5.75v30.2H-77.57v.92h30.82v30.19H-77.57v.92H5.75v30.19H-77.57v.92h30.82v30.19H-77.57v.92H5.75v30.19H-77.57v.92h30.82v30.2H-77.57v.92H5.75v30.19H-77.57v.92h30.82v30.19H-77.57v.92H5.75v30.19H-77.57v.92h30.82v30.2H-77.57v.92H5.75V1359H-77.57v.92h30.82v30.19H-77.57v.92H5.75v30.19H-77.57v.92h30.82v30.2H-77.57v.92H5.75v30.19H-77.57v.92h30.82v30.19H-77.57v.92H5.75v30.2H-77.57v.91h30.82v30.2H-77.57v.92H5.75v30.19H-77.57v.92h30.82V1639H-77.57v.92H5.75v17.22Zm-51.58-48.33H58.26V1639H-45.83v-30.19Zm105,0H163.26V1639H59.18v-30.19Zm105,0H268.27V1639H164.18v-30.19Zm105,0H373.27V1639H269.19v-30.19Zm105,0H478.28V1639H374.19v-30.19Zm105,0H583.28V1639H479.2v-30.19Zm105,0H688.29V1639H584.2v-30.19Zm105,0H793.29V1639H689.21v-30.19Zm105,0H898.3V1639H794.21v-30.19Zm105,0h104.09V1639H899.22v-30.19Zm105,0h104.09V1639H1004.22v-30.19ZM6.67,1577.66H110.76v30.19H6.67v-30.19Zm105,0H215.76v30.19H111.68v-30.19Zm105,0H320.77v30.19H216.68v-30.19Zm105,0H425.78v30.19H321.69v-30.19Zm105,0H530.78v30.19H426.69v-30.19Zm105,0H635.79v30.19H531.7v-30.19Zm105,0H740.79v30.19H636.7v-30.19Zm105,0H845.8v30.19H741.71v-30.19Zm105,0H950.8v30.19H846.72v-30.19Zm105,0h104.09v30.19H951.72v-30.19Zm-997.55-31.12H58.26v30.2H-45.83v-30.2Zm105,0H163.26v30.2H59.18v-30.2Zm105,0H268.27v30.2H164.18v-30.2Zm105,0H373.27v30.2H269.19v-30.2Zm105,0H478.28v30.2H374.19v-30.2Zm105,0H583.28v30.2H479.2v-30.2Zm105,0H688.29v30.2H584.2v-30.2Zm105,0H793.29v30.2H689.21v-30.2Zm105,0H898.3v30.2H794.21v-30.2Zm105,0h104.09v30.2H899.22v-30.2Zm105,0h104.09v30.2H1004.22v-30.2ZM6.67,1515.43H110.76v30.2H6.67v-30.2Zm105,0H215.76v30.2H111.68v-30.2Zm105,0H320.77v30.2H216.68v-30.2Zm105,0H425.78v30.2H321.69v-30.2Zm105,0H530.78v30.2H426.69v-30.2Zm105,0H635.79v30.2H531.7v-30.2Zm105,0H740.79v30.2H636.7v-30.2Zm105,0H845.8v30.2H741.71v-30.2Zm105,0H950.8v30.2H846.72v-30.2Zm105,0h104.09v30.2H951.72v-30.2Zm-997.55-31.11H58.26v30.19H-45.83v-30.19Zm105,0H163.26v30.19H59.18v-30.19Zm105,0H268.27v30.19H164.18v-30.19Zm105,0H373.27v30.19H269.19v-30.19Zm105,0H478.28v30.19H374.19v-30.19Zm105,0H583.28v30.19H479.2v-30.19Zm105,0H688.29v30.19H584.2v-30.19Zm105,0H793.29v30.19H689.21v-30.19Zm105,0H898.3v30.19H794.21v-30.19Zm105,0h104.09v30.19H899.22v-30.19Zm105,0h104.09v30.19H1004.22v-30.19ZM6.67,1453.21H110.76v30.19H6.67v-30.19Zm105,0H215.76v30.19H111.68v-30.19Zm105,0H320.77v30.19H216.68v-30.19Zm105,0H425.78v30.19H321.69v-30.19Zm105,0H530.78v30.19H426.69v-30.19Zm105,0H635.79v30.19H531.7v-30.19Zm105,0H740.79v30.19H636.7v-30.19Zm105,0H845.8v30.19H741.71v-30.19Zm105,0H950.8v30.19H846.72v-30.19Zm105,0h104.09v30.19H951.72v-30.19Zm-997.55-31.12H58.26v30.2H-45.83v-30.2Zm105,0H163.26v30.2H59.18v-30.2Zm105,0H268.27v30.2H164.18v-30.2Zm105,0H373.27v30.2H269.19v-30.2Zm105,0H478.28v30.2H374.19v-30.2Zm105,0H583.28v30.2H479.2v-30.2Zm105,0H688.29v30.2H584.2v-30.2Zm105,0H793.29v30.2H689.21v-30.2Zm105,0H898.3v30.2H794.21v-30.2Zm105,0h104.09v30.2H899.22v-30.2Zm105,0h104.09v30.2H1004.22v-30.2ZM6.67,1391H110.76v30.19H6.67V1391Zm105,0H215.76v30.19H111.68V1391Zm105,0H320.77v30.19H216.68V1391Zm105,0H425.78v30.19H321.69V1391Zm105,0H530.78v30.19H426.69V1391Zm105,0H635.79v30.19H531.7V1391Zm105,0H740.79v30.19H636.7V1391Zm105,0H845.8v30.19H741.71V1391Zm105,0H950.8v30.19H846.72V1391Zm105,0h104.09v30.19H951.72V1391Zm-997.55-31.11H58.26v30.19H-45.83v-30.19Zm105,0H163.26v30.19H59.18v-30.19Zm105,0H268.27v30.19H164.18v-30.19Zm105,0H373.27v30.19H269.19v-30.19Zm105,0H478.28v30.19H374.19v-30.19Zm105,0H583.28v30.19H479.2v-30.19Zm105,0H688.29v30.19H584.2v-30.19Zm105,0H793.29v30.19H689.21v-30.19Zm105,0H898.3v30.19H794.21v-30.19Zm105,0h104.09v30.19H899.22v-30.19Zm105,0h104.09v30.19H1004.22v-30.19ZM6.67,1328.76H110.76V1359H6.67v-30.19Zm105,0H215.76V1359H111.68v-30.19Zm105,0H320.77V1359H216.68v-30.19Zm105,0H425.78V1359H321.69v-30.19Zm105,0H530.78V1359H426.69v-30.19Zm105,0H635.79V1359H531.7v-30.19Zm105,0H740.79V1359H636.7v-30.19Zm105,0H845.8V1359H741.71v-30.19Zm105,0H950.8V1359H846.72v-30.19Zm105,0h104.09V1359H951.72v-30.19Zm-997.55-31.12H58.26v30.2H-45.83v-30.2Zm105,0H163.26v30.2H59.18v-30.2Zm105,0H268.27v30.2H164.18v-30.2Zm105,0H373.27v30.2H269.19v-30.2Zm105,0H478.28v30.2H374.19v-30.2Zm105,0H583.28v30.2H479.2v-30.2Zm105,0H688.29v30.2H584.2v-30.2Zm105,0H793.29v30.2H689.21v-30.2Zm105,0H898.3v30.2H794.21v-30.2Zm105,0h104.09v30.2H899.22v-30.2Zm105,0h104.09v30.2H1004.22v-30.2ZM6.67,1266.53H110.76v30.19H6.67v-30.19Zm105,0H215.76v30.19H111.68v-30.19Zm105,0H320.77v30.19H216.68v-30.19Zm105,0H425.78v30.19H321.69v-30.19Zm105,0H530.78v30.19H426.69v-30.19Zm105,0H635.79v30.19H531.7v-30.19Zm105,0H740.79v30.19H636.7v-30.19Zm105,0H845.8v30.19H741.71v-30.19Zm105,0H950.8v30.19H846.72v-30.19Zm105,0h104.09v30.19H951.72v-30.19Zm-997.55-31.11H58.26v30.19H-45.83v-30.19Zm105,0H163.26v30.19H59.18v-30.19Zm105,0H268.27v30.19H164.18v-30.19Zm105,0H373.27v30.19H269.19v-30.19Zm105,0H478.28v30.19H374.19v-30.19Zm105,0H583.28v30.19H479.2v-30.19Zm105,0H688.29v30.19H584.2v-30.19Zm105,0H793.29v30.19H689.21v-30.19Zm105,0H898.3v30.19H794.21v-30.19Zm105,0h104.09v30.19H899.22v-30.19Zm105,0h104.09v30.19H1004.22v-30.19ZM6.67,1204.31H110.76v30.19H6.67v-30.19Zm105,0H215.76v30.19H111.68v-30.19Zm105,0H320.77v30.19H216.68v-30.19Zm105,0H425.78v30.19H321.69v-30.19Zm105,0H530.78v30.19H426.69v-30.19Zm105,0H635.79v30.19H531.7v-30.19Zm105,0H740.79v30.19H636.7v-30.19Zm105,0H845.8v30.19H741.71v-30.19Zm105,0H950.8v30.19H846.72v-30.19Zm105,0h104.09v30.19H951.72v-30.19Zm-997.55-31.12H58.26v30.2H-45.83v-30.2Zm105,0H163.26v30.2H59.18v-30.2Zm105,0H268.27v30.2H164.18v-30.2Zm105,0H373.27v30.2H269.19v-30.2Zm105,0H478.28v30.2H374.19v-30.2Zm105,0H583.28v30.2H479.2v-30.2Zm105,0H688.29v30.2H584.2v-30.2Zm105,0H793.29v30.2H689.21v-30.2Zm105,0H898.3v30.2H794.21v-30.2Zm105,0h104.09v30.2H899.22v-30.2Zm105,0h104.09v30.2H1004.22v-30.2ZM6.67,1142.08H110.76v30.19H6.67v-30.19Zm105,0H215.76v30.19H111.68v-30.19Zm105,0H320.77v30.19H216.68v-30.19Zm105,0H425.78v30.19H321.69v-30.19Zm105,0H530.78v30.19H426.69v-30.19Zm105,0H635.79v30.19H531.7v-30.19Zm105,0H740.79v30.19H636.7v-30.19Zm105,0H845.8v30.19H741.71v-30.19Zm105,0H950.8v30.19H846.72v-30.19Zm105,0h104.09v30.19H951.72v-30.19ZM-45.83,1111H58.26v30.19H-45.83V1111Zm105,0H163.26v30.19H59.18V1111Zm105,0H268.27v30.19H164.18V1111Zm105,0H373.27v30.19H269.19V1111Zm105,0H478.28v30.19H374.19V1111Zm105,0H583.28v30.19H479.2V1111Zm105,0H688.29v30.19H584.2V1111Zm105,0H793.29v30.19H689.21V1111Zm105,0H898.3v30.19H794.21V1111Zm105,0h104.09v30.19H899.22V1111Zm105,0h104.09v30.19H1004.22V1111ZM6.67,1079.86H110.76v30.19H6.67v-30.19Zm105,0H215.76v30.19H111.68v-30.19Zm105,0H320.77v30.19H216.68v-30.19Zm105,0H425.78v30.19H321.69v-30.19Zm105,0H530.78v30.19H426.69v-30.19Zm105,0H635.79v30.19H531.7v-30.19Zm105,0H740.79v30.19H636.7v-30.19Zm105,0H845.8v30.19H741.71v-30.19Zm105,0H950.8v30.19H846.72v-30.19Zm105,0h104.09v30.19H951.72v-30.19Zm-997.55-31.11H58.26v30.19H-45.83v-30.19Zm105,0H163.26v30.19H59.18v-30.19Zm105,0H268.27v30.19H164.18v-30.19Zm105,0H373.27v30.19H269.19v-30.19Zm105,0H478.28v30.19H374.19v-30.19Zm105,0H583.28v30.19H479.2v-30.19Zm105,0H688.29v30.19H584.2v-30.19Zm105,0H793.29v30.19H689.21v-30.19Zm105,0H898.3v30.19H794.21v-30.19Zm105,0h104.09v30.19H899.22v-30.19Zm105,0h104.09v30.19H1004.22v-30.19ZM6.67,1017.63H110.76v30.2H6.67v-30.2Zm105,0H215.76v30.2H111.68v-30.2Zm105,0H320.77v30.2H216.68v-30.2Zm105,0H425.78v30.2H321.69v-30.2Zm105,0H530.78v30.2H426.69v-30.2Zm105,0H635.79v30.2H531.7v-30.2Zm105,0H740.79v30.2H636.7v-30.2Zm105,0H845.8v30.2H741.71v-30.2Zm105,0H950.8v30.2H846.72v-30.2Zm105,0h104.09v30.2H951.72v-30.2ZM-45.83,986.52H58.26v30.19H-45.83V986.52Zm105,0H163.26v30.19H59.18V986.52Zm105,0H268.27v30.19H164.18V986.52Zm105,0H373.27v30.19H269.19V986.52Zm105,0H478.28v30.19H374.19V986.52Zm105,0H583.28v30.19H479.2V986.52Zm105,0H688.29v30.19H584.2V986.52Zm105,0H793.29v30.19H689.21V986.52Zm105,0H898.3v30.19H794.21V986.52Zm105,0h104.09v30.19H899.22V986.52Zm105,0h104.09v30.19H1004.22V986.52ZM6.67,955.41H110.76V985.6H6.67V955.41Zm105,0H215.76V985.6H111.68V955.41Zm105,0H320.77V985.6H216.68V955.41Zm105,0H425.78V985.6H321.69V955.41Zm105,0H530.78V985.6H426.69V955.41Zm105,0H635.79V985.6H531.7V955.41Zm105,0H740.79V985.6H636.7V955.41Zm105,0H845.8V985.6H741.71V955.41Zm105,0H950.8V985.6H846.72V955.41Zm105,0h104.09V985.6H951.72V955.41ZM-45.83,924.3H58.26v30.19H-45.83V924.3Zm105,0H163.26v30.19H59.18V924.3Zm105,0H268.27v30.19H164.18V924.3Zm105,0H373.27v30.19H269.19V924.3Zm105,0H478.28v30.19H374.19V924.3Zm105,0H583.28v30.19H479.2V924.3Zm105,0H688.29v30.19H584.2V924.3Zm105,0H793.29v30.19H689.21V924.3Zm105,0H898.3v30.19H794.21V924.3Zm105,0h104.09v30.19H899.22V924.3Zm105,0h104.09v30.19H1004.22V924.3ZM6.67,893.18H110.76v30.2H6.67v-30.2Zm105,0H215.76v30.2H111.68v-30.2Zm105,0H320.77v30.2H216.68v-30.2Zm105,0H425.78v30.2H321.69v-30.2Zm105,0H530.78v30.2H426.69v-30.2Zm105,0H635.79v30.2H531.7v-30.2Zm105,0H740.79v30.2H636.7v-30.2Zm105,0H845.8v30.2H741.71v-30.2Zm105,0H950.8v30.2H846.72v-30.2Zm105,0h104.09v30.2H951.72v-30.2ZM-45.83,862.07H58.26v30.19H-45.83V862.07Zm105,0H163.26v30.19H59.18V862.07Zm105,0H268.27v30.19H164.18V862.07Zm105,0H373.27v30.19H269.19V862.07Zm105,0H478.28v30.19H374.19V862.07Zm105,0H583.28v30.19H479.2V862.07Zm105,0H688.29v30.19H584.2V862.07Zm105,0H793.29v30.19H689.21V862.07Zm105,0H898.3v30.19H794.21V862.07Zm105,0h104.09v30.19H899.22V862.07Zm105,0h104.09v30.19H1004.22V862.07ZM6.67,831H110.76v30.19H6.67V831Zm105,0H215.76v30.19H111.68V831Zm105,0H320.77v30.19H216.68V831Zm105,0H425.78v30.19H321.69V831Zm105,0H530.78v30.19H426.69V831Zm105,0H635.79v30.19H531.7V831Zm105,0H740.79v30.19H636.7V831Zm105,0H845.8v30.19H741.71V831Zm105,0H950.8v30.19H846.72V831Zm105,0h104.09v30.19H951.72V831ZM-45.83,799.85H58.26V830H-45.83V799.85Zm105,0H163.26V830H59.18V799.85Zm105,0H268.27V830H164.18V799.85Zm105,0H373.27V830H269.19V799.85Zm105,0H478.28V830H374.19V799.85Zm105,0H583.28V830H479.2V799.85Zm105,0H688.29V830H584.2V799.85Zm105,0H793.29V830H689.21V799.85Zm105,0H898.3V830H794.21V799.85Zm105,0h104.09V830H899.22V799.85Zm105,0h104.09V830H1004.22V799.85ZM6.67,768.73H110.76v30.2H6.67v-30.2Zm105,0H215.76v30.2H111.68v-30.2Zm105,0H320.77v30.2H216.68v-30.2Zm105,0H425.78v30.2H321.69v-30.2Zm105,0H530.78v30.2H426.69v-30.2Zm105,0H635.79v30.2H531.7v-30.2Zm105,0H740.79v30.2H636.7v-30.2Zm105,0H845.8v30.2H741.71v-30.2Zm105,0H950.8v30.2H846.72v-30.2Zm105,0h104.09v30.2H951.72v-30.2ZM-45.83,737.62H58.26v30.2H-45.83v-30.2Zm105,0H163.26v30.2H59.18v-30.2Zm105,0H268.27v30.2H164.18v-30.2Zm105,0H373.27v30.2H269.19v-30.2Zm105,0H478.28v30.2H374.19v-30.2Zm105,0H583.28v30.2H479.2v-30.2Zm105,0H688.29v30.2H584.2v-30.2Zm105,0H793.29v30.2H689.21v-30.2Zm105,0H898.3v30.2H794.21v-30.2Zm105,0h104.09v30.2H899.22v-30.2Zm105,0h104.09v30.2H1004.22v-30.2ZM6.67,706.51H110.76V736.7H6.67V706.51Zm105,0H215.76V736.7H111.68V706.51Zm105,0H320.77V736.7H216.68V706.51Zm105,0H425.78V736.7H321.69V706.51Zm105,0H530.78V736.7H426.69V706.51Zm105,0H635.79V736.7H531.7V706.51Zm105,0H740.79V736.7H636.7V706.51Zm105,0H845.8V736.7H741.71V706.51Zm105,0H950.8V736.7H846.72V706.51Zm105,0h104.09V736.7H951.72V706.51ZM-45.83,675.4H58.26v30.19H-45.83V675.4Zm105,0H163.26v30.19H59.18V675.4Zm105,0H268.27v30.19H164.18V675.4Zm105,0H373.27v30.19H269.19V675.4Zm105,0H478.28v30.19H374.19V675.4Zm105,0H583.28v30.19H479.2V675.4Zm105,0H688.29v30.19H584.2V675.4Zm105,0H793.29v30.19H689.21V675.4Zm105,0H898.3v30.19H794.21V675.4Zm105,0h104.09v30.19H899.22V675.4Zm105,0h104.09v30.19H1004.22V675.4ZM6.67,644.28H110.76v30.2H6.67v-30.2Zm105,0H215.76v30.2H111.68v-30.2Zm105,0H320.77v30.2H216.68v-30.2Zm105,0H425.78v30.2H321.69v-30.2Zm105,0H530.78v30.2H426.69v-30.2Zm105,0H635.79v30.2H531.7v-30.2Zm105,0H740.79v30.2H636.7v-30.2Zm105,0H845.8v30.2H741.71v-30.2Zm105,0H950.8v30.2H846.72v-30.2Zm105,0h104.09v30.2H951.72v-30.2ZM-45.83,613.17H58.26v30.2H-45.83v-30.2Zm105,0H163.26v30.2H59.18v-30.2Zm105,0H268.27v30.2H164.18v-30.2Zm105,0H373.27v30.2H269.19v-30.2Zm105,0H478.28v30.2H374.19v-30.2Zm105,0H583.28v30.2H479.2v-30.2Zm105,0H688.29v30.2H584.2v-30.2Zm105,0H793.29v30.2H689.21v-30.2Zm105,0H898.3v30.2H794.21v-30.2Zm105,0h104.09v30.2H899.22v-30.2Zm105,0h104.09v30.2H1004.22v-30.2ZM6.67,582.06H110.76v30.19H6.67V582.06Zm105,0H215.76v30.19H111.68V582.06Zm105,0H320.77v30.19H216.68V582.06Zm105,0H425.78v30.19H321.69V582.06Zm105,0H530.78v30.19H426.69V582.06Zm105,0H635.79v30.19H531.7V582.06Zm105,0H740.79v30.19H636.7V582.06Zm105,0H845.8v30.19H741.71V582.06Zm105,0H950.8v30.19H846.72V582.06Zm105,0h104.09v30.19H951.72V582.06ZM-45.83,551H58.26v30.19H-45.83V551Zm105,0H163.26v30.19H59.18V551Zm105,0H268.27v30.19H164.18V551Zm105,0H373.27v30.19H269.19V551Zm105,0H478.28v30.19H374.19V551Zm105,0H583.28v30.19H479.2V551Zm105,0H688.29v30.19H584.2V551Zm105,0H793.29v30.19H689.21V551Zm105,0H898.3v30.19H794.21V551Zm105,0h104.09v30.19H899.22V551Zm105,0h104.09v30.19H1004.22V551ZM6.67,519.83H110.76V550H6.67v-30.2Zm105,0H215.76V550H111.68v-30.2Zm105,0H320.77V550H216.68v-30.2Zm105,0H425.78V550H321.69v-30.2Zm105,0H530.78V550H426.69v-30.2Zm105,0H635.79V550H531.7v-30.2Zm105,0H740.79V550H636.7v-30.2Zm105,0H845.8V550H741.71v-30.2Zm105,0H950.8V550H846.72v-30.2Zm105,0h104.09V550H951.72v-30.2ZM-45.83,488.72H58.26v30.2H-45.83v-30.2Zm105,0H163.26v30.2H59.18v-30.2Zm105,0H268.27v30.2H164.18v-30.2Zm105,0H373.27v30.2H269.19v-30.2Zm105,0H478.28v30.2H374.19v-30.2Zm105,0H583.28v30.2H479.2v-30.2Zm105,0H688.29v30.2H584.2v-30.2Zm105,0H793.29v30.2H689.21v-30.2Zm105,0H898.3v30.2H794.21v-30.2Zm105,0h104.09v30.2H899.22v-30.2Zm105,0h104.09v30.2H1004.22v-30.2ZM6.67,457.61H110.76V487.8H6.67V457.61Zm105,0H215.76V487.8H111.68V457.61Zm105,0H320.77V487.8H216.68V457.61Zm105,0H425.78V487.8H321.69V457.61Zm105,0H530.78V487.8H426.69V457.61Zm105,0H635.79V487.8H531.7V457.61Zm105,0H740.79V487.8H636.7V457.61Zm105,0H845.8V487.8H741.71V457.61Zm105,0H950.8V487.8H846.72V457.61Zm105,0h104.09V487.8H951.72Z"/></g></g></g></g></svg>