<svg xmlns="http://www.w3.org/2000/svg" viewBox="0 0 58.61 42.8"><defs><style>.cls-1{fill:#305596;}</style></defs><title>Asset 51</title><g id="Layer_2" data-name="Layer 2"><g id="Capa_1" data-name="Capa 1"><path class="cls-1" d="M48.74,12.47h6.8a3,3,0,0,1,3.07,3c0,.73,0,1.46,0,2.19,0,1.6,0,3.2,0,4.8,0,5.67,0,11.34,0,17a3.11,3.11,0,0,1-1,2.58,2.92,2.92,0,0,1-2,.71H14.35A2.84,2.84,0,0,1,12,41.66a.22.22,0,0,0-.3-.1c-.29.09-.6.13-.9.22a2.71,2.71,0,0,1-3.12-1.72c-.47-1.36-.88-2.75-1.32-4.12q-2.47-7.84-5-15.7C1,18.87.49,17.5.11,16.11a2.77,2.77,0,0,1,.48-2.49,2.35,2.35,0,0,1,1.2-.8L10,10.23,24.69,5.58l3.15-1,14-4.42a2.76,2.76,0,0,1,3.64,2q1.58,5,3.16,10C48.66,12.25,48.7,12.35,48.74,12.47ZM35.16,14.28H14.3a1,1,0,0,0-1,.91c0,1.33,0,2.65,0,4,0,.82,0,1.65,0,2.47v13c0,1.7,0,3.41,0,5.11a1,1,0,0,0,1.1,1.1H56a1,1,0,0,0,1-1v-7c0-5.81,0-11.63,0-17.45a1.08,1.08,0,0,0-1.14-1.15C49,14.29,42.07,14.28,35.16,14.28ZM2.53,17.55,3,17.42c2.78-.87,5.57-1.75,8.35-2.64a.31.31,0,0,0,.19-.2,2.86,2.86,0,0,1,2.85-2.19h4.27a2.09,2.09,0,0,0,.55-.08L31.05,8.55,42.34,5,44.2,4.4c-.16-.53-.32-1.05-.47-1.56a1.08,1.08,0,0,0-1.56-.79Q35,4.33,27.88,6.57L22.4,8.3l-8.85,2.79-6.5,2.06L2.54,14.57a.79.79,0,0,0-.62.94,3.2,3.2,0,0,0,.15.61C2.22,16.6,2.37,17.07,2.53,17.55Zm2.29,7.26q1.56,4.95,3.11,9.86.73,2.3,1.45,4.59a1,1,0,0,0,1.24.65c.19,0,.37-.13.56-.17s.24-.13.24-.32c0-1.66,0-3.31,0-5V22.72Zm40-18.61L25.32,12.35c.67,0,1.34,0,2,0H37.54a1.54,1.54,0,0,0,.48-.06l5.79-1.82,2.11-.68ZM4.25,23l.17,0,3.45-1.09c1.1-.34,2.2-.7,3.31-1,.24-.07.26-.21.26-.41l0-3.45a1.65,1.65,0,0,0,0-.21L3.1,19.37Zm42.47-10.6-.23-.75-2.26.71v0Z" transform="translate(0 0)"/><path class="cls-1" d="M42.23,25.7V17.49H54.42V25.7Z" transform="translate(0 0)"/><path class="cls-1" d="M24.92,25.85a4.25,4.25,0,0,1-2.07-.51.3.3,0,0,0-.33,0,4.34,4.34,0,1,1-2.71-8.14,4.21,4.21,0,0,1,2.68.45.33.33,0,0,0,.36,0,4.35,4.35,0,1,1,2.58,8.17Zm-4.43-2.18a2.18,2.18,0,1,0-2.16-2.18A2.2,2.2,0,0,0,20.49,23.67Zm3.84-.09a2.11,2.11,0,0,0,2.34-.87,2.18,2.18,0,0,0-.14-2.63,2,2,0,0,0-2.2-.65A4.28,4.28,0,0,1,24.33,23.58Z" transform="translate(0 0)"/><path class="cls-1" d="M15.83,31.46V30H43.61v1.45Z" transform="translate(0 0)"/><path class="cls-1" d="M27.43,34.49v1.44H15.84V34.49Z" transform="translate(0 0)"/><path class="cls-1" d="M54.43,30v1.45H46.56V30Z" transform="translate(0 0)"/><path class="cls-1" d="M44.36,35.22v1.47H42.89V35.22Z" transform="translate(0 0)"/><path class="cls-1" d="M47.67,35.21h1.45v1.48H47.67Z" transform="translate(0 0)"/><path class="cls-1" d="M53.9,35.22v1.47H52.45V35.22Z" transform="translate(0 0)"/></g></g></svg>