<svg xmlns="http://www.w3.org/2000/svg" viewBox="0 0 45.14 36.71"><defs><style>.cls-1{fill:#305596;}</style></defs><title>Asset 41</title><g id="Layer_2" data-name="Layer 2"><g id="Capa_1" data-name="Capa 1"><path class="cls-1" d="M36.86,18.23c-1.12,0-2.08,0-3,0s-1.33-.57-.73-1.41q2.22-3,4.54-6a1.52,1.52,0,0,1,2.64,0c1.54,2,3,4,4.52,6,.62.85.38,1.31-.67,1.41h-.28c-2.76.1-2.76.1-3.17,2.82A18,18,0,0,1,25.82,36.39a17.77,17.77,0,0,1-14.88-3.86c-1.27-1-1.21-1.44.07-3.05.85-1.07,1.56-.72,2.42,0a14.39,14.39,0,0,0,23.41-8.88A14.94,14.94,0,0,0,36.86,18.23Z"/><path class="cls-1" d="M22.17,0A19,19,0,0,1,34.3,4.28c1.18,1,1.12,1.31-.12,3-.81,1.06-1.5.84-2.4.12A14.37,14.37,0,0,0,8.33,16.15c-.07.4-.05.82-.1,1.23-.12.87.2,1.29,1.12,1.24.73,0,1.46,0,2.19,0s1.09.5.61,1.17Q9.81,23,7.37,26.15a1.32,1.32,0,0,1-2.24.07C3.45,24.11,1.83,22,.24,19.77c-.48-.65-.23-1.09.64-1.15C2,18.55,3.4,18.8,4,18.22s.38-2.06.56-3.14A18.19,18.19,0,0,1,20.25.23C21,.15,21.79.05,22.17,0Z"/><path class="cls-1" d="M22,12.84l-1.83,1.62a2.59,2.59,0,0,0-2-1.35,1.19,1.19,0,0,0-.79.26.76.76,0,0,0-.31.59,1,1,0,0,0,.22.62,17,17,0,0,0,1.81,1.67c.95.79,1.52,1.29,1.72,1.49a5.31,5.31,0,0,1,1.07,1.45,3.66,3.66,0,0,1,.31,1.52,3.48,3.48,0,0,1-1.1,2.64,4,4,0,0,1-2.89,1,4.26,4.26,0,0,1-2.42-.68,5.39,5.39,0,0,1-1.76-2.13l2.08-1.26c.62,1.15,1.34,1.72,2.16,1.72a1.58,1.58,0,0,0,1.07-.37,1.08,1.08,0,0,0,.43-.85,1.49,1.49,0,0,0-.33-.89A9.56,9.56,0,0,0,18,18.58a14.39,14.39,0,0,1-2.74-2.67A3.42,3.42,0,0,1,14.68,14a3.07,3.07,0,0,1,1-2.32,3.59,3.59,0,0,1,2.54-1,4.06,4.06,0,0,1,1.86.46A6.67,6.67,0,0,1,22,12.84Z"/><path class="cls-1" d="M23.5,26.38,29.33,10.7h1.72L25.21,26.38Z"/></g></g></svg>