<svg xmlns="http://www.w3.org/2000/svg" xmlns:xlink="http://www.w3.org/1999/xlink" viewBox="0 0 679.22 442.23"><defs><style>.cls-1,.cls-10,.cls-12,.cls-14,.cls-15,.cls-17,.cls-41{fill:none;}.cls-2{isolation:isolate;}.cls-3{clip-path:url(#clip-path);}.cls-4{fill:#eaeaea;}.cls-4,.cls-5{opacity:0.9;}.cls-5{fill:#b9c3ce;}.cls-6{fill:#777f86;}.cls-40,.cls-7{fill:#a4b5e0;}.cls-7{opacity:0.1;}.cls-8{fill:#e79b80;}.cls-9{fill:#c8d2fc;}.cls-10,.cls-12{stroke:#c8d2fc;}.cls-10,.cls-12,.cls-14,.cls-15,.cls-17,.cls-41{stroke-miterlimit:10;}.cls-10,.cls-41{stroke-width:1.29px;}.cls-11{fill:#73819e;}.cls-12,.cls-14{stroke-width:1.33px;}.cls-13{fill:#d4defc;}.cls-14{stroke:#73819e;}.cls-15{stroke:#cce0a6;}.cls-15,.cls-17{stroke-width:2.67px;}.cls-16{fill:#cce0a6;}.cls-17{stroke:#e79b80;}.cls-18,.cls-43{fill:#a9a5b0;}.cls-18{opacity:0.2;}.cls-18,.cls-21,.cls-23,.cls-43{mix-blend-mode:multiply;}.cls-19{fill:#141827;}.cls-20{fill:#2b2b2b;}.cls-21{fill:url(#linear-gradient);}.cls-22{fill:#7e7e7e;}.cls-23{fill:url(#linear-gradient-2);}.cls-24{fill:#4da9dd;}.cls-25{fill:#f0f0f0;}.cls-26{fill:#2b4b82;}.cls-27{fill:#23549b;}.cls-28,.cls-54,.cls-57{fill:#fff;}.cls-29{fill:url(#linear-gradient-3);}.cls-30{fill:url(#linear-gradient-4);}.cls-31{fill:url(#linear-gradient-5);}.cls-32{fill:url(#linear-gradient-6);}.cls-33{fill:#2d343a;}.cls-34{fill:#303030;}.cls-35{fill:#3a3a3a;}.cls-36{fill:#2c3c4f;}.cls-37{fill:#232323;}.cls-38{fill:#2c4770;}.cls-39{fill:#e6b338;}.cls-41{stroke:#a4b5e0;}.cls-42{fill:#4b596d;}.cls-43{opacity:0.4;}.cls-44{fill:#a5b386;}.cls-45{fill:#f7e4c3;}.cls-46{fill:#ba9171;}.cls-47{fill:#deba97;}.cls-48{fill:#ecb5a2;}.cls-49{fill:#dbdbdb;}.cls-50{clip-path:url(#clip-path-2);}.cls-51{fill:#ccb196;}.cls-52,.cls-54{opacity:0.5;}.cls-53{fill:#c4c4c4;}.cls-55{clip-path:url(#clip-path-3);}.cls-56{clip-path:url(#clip-path-4);}.cls-57{fill-rule:evenodd;}</style><clipPath id="clip-path"><rect class="cls-1" x="0.38" y="0.32" width="678.47" height="441.59" rx="18.73" ry="18.73"/></clipPath><linearGradient id="linear-gradient" x1="41.81" y1="259.36" x2="99.29" y2="259.36" gradientUnits="userSpaceOnUse"><stop offset="0" stop-color="#d5c353"/><stop offset="0.19" stop-color="#d5c45b"/><stop offset="0.48" stop-color="#d5c66f"/><stop offset="0.84" stop-color="#d6c991"/><stop offset="1" stop-color="#d6cba3"/></linearGradient><linearGradient id="linear-gradient-2" x1="55.18" y1="330.75" x2="82.88" y2="330.75" xlink:href="#linear-gradient"/><linearGradient id="linear-gradient-3" x1="-1019.22" y1="-128.29" x2="-1019.22" y2="-139.09" gradientTransform="translate(1134.64 264.44) rotate(-4.69)" gradientUnits="userSpaceOnUse"><stop offset="0" stop-color="#e3e2fb"/><stop offset="0.29" stop-color="#cbd0f4"/><stop offset="0.75" stop-color="#acb9eb"/><stop offset="1" stop-color="#a0b0e8"/></linearGradient><linearGradient id="linear-gradient-4" x1="-1014.76" y1="-127.56" x2="-1014.76" y2="-139.85" gradientTransform="translate(1134.64 264.44) rotate(-4.69)" gradientUnits="userSpaceOnUse"><stop offset="0" stop-color="#f6f8f9"/><stop offset="1" stop-color="#cdd7fb"/></linearGradient><linearGradient id="linear-gradient-5" x1="-945.63" y1="225.82" x2="-945.63" y2="206.97" gradientTransform="translate(1039.6)" gradientUnits="userSpaceOnUse"><stop offset="0" stop-color="#f6f8f9"/><stop offset="0.32" stop-color="#edf1f9"/><stop offset="0.85" stop-color="#d5defb"/><stop offset="1" stop-color="#cdd7fb"/></linearGradient><linearGradient id="linear-gradient-6" x1="-936.34" y1="220.05" x2="-936.34" y2="215.51" gradientTransform="translate(1039.6)" xlink:href="#linear-gradient-3"/><clipPath id="clip-path-2"><rect class="cls-1" x="740.51" y="0.4" width="678.47" height="441.59" rx="18.73" ry="18.73"/></clipPath><clipPath id="clip-path-3"><rect class="cls-1" x="-310.84" y="524.04" width="1932" height="1088"/></clipPath><clipPath id="clip-path-4"><rect class="cls-1" x="-559.2" y="521.3" width="2440.33" height="924.11"/></clipPath></defs><title>SCTR-Y-VIDA-LEY-WEB-CRECER-SEGUROS</title><g class="cls-2"><g id="Capa_1" data-name="Capa 1"><g class="cls-3"><rect class="cls-4" x="-6.32" y="-17.52" width="685.18" height="396.55"/><rect class="cls-5" x="-17.32" y="346.24" width="700.69" height="140.81"/><polygon class="cls-6" points="662.9 349.79 -29.21 349.79 -32.43 343.36 659.68 343.36 662.9 349.79"/><path class="cls-7" d="M288.88,426.48c0,5.1-37.26,9.24-83.2,9.24s-83.22-4.14-83.22-9.24c0-1.7,4.15-3.3,11.39-4.68-39.3-.75-69.21-4.55-69.21-9.12,0-5.12,37.26-9.24,83.22-9.24,26.76,0,50.57,1.4,65.79,3.58,15.21-2.19,39-3.58,65.79-3.58,45.94,0,83.21,4.12,83.21,9.24s-37.27,9.25-83.21,9.25h-1.3C285,423.27,288.88,424.83,288.88,426.48Z"/><rect class="cls-8" x="51.22" y="64.53" width="1.53" height="14.47" rx="0.71" ry="0.71" transform="translate(37.99 159.27) rotate(-135)"/><rect class="cls-9" x="61.13" y="59.79" width="1.53" height="11.94" rx="0.71" ry="0.71" transform="translate(110.68 -10.24) rotate(75.96)"/><circle class="cls-10" cx="56.73" cy="66.98" r="35.16" transform="translate(-9.47 9.35) rotate(-8.69)"/><circle class="cls-10" cx="56.73" cy="66.98" r="28.01" transform="translate(-4.59 4.18) rotate(-4.05)"/><path class="cls-11" d="M58.28,67a1.55,1.55,0,1,1-1.55-1.55A1.55,1.55,0,0,1,58.28,67Z"/><rect class="cls-11" x="55.75" y="42.32" width="1.97" height="6.77" rx="0.85" ry="0.85"/><rect class="cls-11" x="45.11" y="45.17" width="1.97" height="6.77" rx="0.85" ry="0.85" transform="translate(-18.11 29.59) rotate(-30.03)"/><rect class="cls-11" x="37.32" y="52.96" width="1.97" height="6.77" rx="0.85" ry="0.85" transform="translate(-29.64 61.36) rotate(-60.01)"/><rect class="cls-11" x="34.47" y="63.6" width="1.97" height="6.77" rx="0.85" ry="0.85" transform="translate(-31.52 102.44) rotate(-90)"/><rect class="cls-11" x="37.32" y="74.23" width="1.97" height="6.77" rx="0.85" ry="0.85" transform="translate(-9.76 149.6) rotate(-119.99)"/><rect class="cls-11" x="45.11" y="82.02" width="1.97" height="6.77" rx="0.85" ry="0.85" transform="translate(43.3 182.41) rotate(-149.99)"/><rect class="cls-11" x="55.75" y="84.87" width="1.97" height="6.77" rx="0.85" ry="0.85" transform="translate(113.47 176.51) rotate(180)"/><rect class="cls-11" x="66.38" y="82.02" width="1.97" height="6.77" rx="0.85" ry="0.85" transform="translate(168.42 125.69) rotate(150.01)"/><rect class="cls-11" x="74.17" y="74.23" width="1.97" height="6.77" rx="0.85" ry="0.85" transform="translate(179.95 51.33) rotate(119.99)"/><rect class="cls-11" x="77.02" y="63.6" width="1.97" height="6.77" rx="0.85" ry="0.85" transform="translate(144.99 -11.03) rotate(90)"/><rect class="cls-11" x="74.17" y="52.96" width="1.97" height="6.77" rx="0.85" ry="0.85" transform="translate(86.38 -36.92) rotate(60.01)"/><rect class="cls-11" x="66.38" y="45.17" width="1.97" height="6.77" rx="0.85" ry="0.85" transform="translate(33.33 -27.19) rotate(30.02)"/><rect class="cls-12" x="229.27" y="42.4" width="270.16" height="181.79"/><rect class="cls-13" x="239.68" y="52.92" width="249.34" height="160.77"/><line class="cls-14" x1="421.58" y1="108.27" x2="463.43" y2="108.27"/><line class="cls-14" x1="421.58" y1="111.8" x2="439.52" y2="111.8"/><line class="cls-14" x1="443.48" y1="111.8" x2="463.43" y2="111.8"/><line class="cls-14" x1="421.58" y1="115.33" x2="454.26" y2="115.33"/><line class="cls-14" x1="421.58" y1="122.38" x2="463.43" y2="122.38"/><line class="cls-14" x1="421.58" y1="125.91" x2="446.11" y2="125.91"/><line class="cls-14" x1="449.59" y1="125.91" x2="463.43" y2="125.91"/><line class="cls-14" x1="421.58" y1="129.44" x2="448.83" y2="129.44"/><line class="cls-14" x1="271.44" y1="182.62" x2="313.29" y2="182.62"/><line class="cls-14" x1="271.44" y1="186.14" x2="289.38" y2="186.14"/><line class="cls-14" x1="293.34" y1="186.14" x2="313.29" y2="186.14"/><line class="cls-14" x1="271.44" y1="189.67" x2="304.12" y2="189.67"/><line class="cls-14" x1="347.47" y1="182.21" x2="389.33" y2="182.21"/><line class="cls-14" x1="347.47" y1="185.74" x2="372.01" y2="185.74"/><line class="cls-14" x1="375.49" y1="185.74" x2="389.33" y2="185.74"/><line class="cls-14" x1="347.47" y1="189.26" x2="374.72" y2="189.26"/><polyline class="cls-14" points="271.44 88.24 271.44 169.11 463.43 169.11"/><polyline class="cls-15" points="271.44 169.11 295.35 149.05 301.28 149.05 306.18 153.95 320.18 133.3 325.18 135.39 346.11 112.05 367.43 117.72 378.53 116.05 391.31 129.69 429.66 90.42"/><polygon class="cls-16" points="429.18 97.38 429.11 90.98 422.71 91.06 425.39 88.31 431.79 88.24 431.87 94.63 429.18 97.38"/><polyline class="cls-17" points="272.34 168.98 300.52 139.73 320.84 150.12 332.85 137.45 346.11 135.91 359.74 124.64 382.41 147.56 407.1 125.91 427.47 147.83"/><polygon class="cls-8" points="420.54 147.01 426.93 147.25 427.16 140.86 429.78 143.67 429.54 150.06 423.15 149.83 420.54 147.01"/><ellipse class="cls-18" cx="341.38" cy="420.5" rx="384.39" ry="19.58"/><path class="cls-19" d="M64.37,335.48c-6.68-.82-11-3.52-12.93-8-5.29-12.59,7.88-37.62,13.4-46.2l.1-.14a1.23,1.23,0,0,0-.3-1.64l-2.42-1.81a1.21,1.21,0,0,0-1.75.31h0c-.88,1.37-21.5,33.73-13.88,51.85,2.72,6.49,8.5,10.32,17.18,11.38h0a1.23,1.23,0,0,0,1.36-1.08l.34-3.29a1.22,1.22,0,0,0-1.06-1.34Z"/><path class="cls-20" d="M86.09,309.76H56.58c-8.16,0-14.77-9.05-14.77-20.2V228.48c0-11.16,6.61-20.2,14.77-20.2H86.09c8.15,0,14.77,9,14.77,20.2v61.08C100.86,300.71,94.24,309.76,86.09,309.76Z"/><path class="cls-21" d="M95.52,299.26H66c-8.16,0-14.77-9.05-14.77-20.21V218a26,26,0,0,1,1.57-9c-6.33,2.28-11,10.14-11,19.51v61.08c0,11.15,6.61,20.2,14.77,20.2H86.09c5.78,0,10.78-4.56,13.2-11.19A11.19,11.19,0,0,1,95.52,299.26Z"/><rect class="cls-19" x="54.49" y="341.34" width="76.13" height="6.26" transform="translate(185.12 688.94) rotate(180)"/><rect class="cls-19" x="86.5" y="352.86" width="12.11" height="3.79" transform="translate(185.12 709.51) rotate(180)"/><rect class="cls-19" x="90.15" y="356.65" width="4.82" height="22.98" transform="translate(185.12 736.28) rotate(180)"/><rect class="cls-22" x="89.47" y="379.63" width="6.17" height="26.63" transform="translate(185.12 785.88) rotate(180)"/><polygon class="cls-19" points="89.41 347.6 95.71 347.6 103.48 347.6 100.32 352.86 95.71 352.86 89.41 352.86 84.79 352.86 81.63 347.6 89.41 347.6"/><path class="cls-20" d="M96.33,319.72h-.1l-.76,0-1.38,0H91l-1.37,0-.77,0h-.1c-12.51.62-37.77,3.92-33,21.62h73.58C134.11,323.64,108.85,320.34,96.33,319.72Z"/><path class="cls-23" d="M67.2,329.51c4.08-6.52,15.68-9.34,15.68-9.34-13.11,1.38-31.21,6-27.11,21.17H66.08C65,339.28,64.39,334,67.2,329.51Z"/><path class="cls-19" d="M94.29,404.86l30.85,14a8,8,0,0,0-1.74-5.39c-2.12-2.52-18-9.91-29.11-14.74Z"/><path class="cls-22" d="M116.34,419.15a3.81,3.81,0,1,0,3.8-3.8A3.8,3.8,0,0,0,116.34,419.15Z"/><path class="cls-19" d="M90.82,398.75c-11.15,4.83-27,12.22-29.1,14.74A8,8,0,0,0,60,418.88l30.85-14Z"/><path class="cls-22" d="M68.78,419.15a3.81,3.81,0,1,1-3.81-3.8A3.81,3.81,0,0,1,68.78,419.15Z"/><rect class="cls-24" x="169.73" y="226.17" width="18.35" height="10.31" rx="5.15" ry="5.15" transform="translate(-91.69 120.44) rotate(-30)"/><path class="cls-25" d="M140.72,265.91a25.59,25.59,0,0,1-6.18-4.49,77.69,77.69,0,0,1-12.11-17.33,103.43,103.43,0,0,1-6.86-15.86c-1.62-4.8-11.8-15.74-1-16a8.64,8.64,0,0,1,6.52,3.35c7.22,8.18,26.35,37.65,26.35,37.65Z"/><path class="cls-25" d="M140.43,266s-8-9.91-1.73-15.88,36.57-23.5,36.57-23.5l5.07,9.24S150.26,266.5,140.43,266Z"/><path class="cls-26" d="M177.66,296.61c-14.3-4.71-29.61-6.29-44.55-7.48-7.43-.59-16.07-1.89-23.51-2.5-16.43-1.35-29.17-6.07-26.65,10.93.92,6.19,2.23,12.95,6,18.26,4,5.76,11.08,8.25,17.78,9.41,7.57,1.31,9.94-1.49,17.58-1.76,6.71-.23,9.76-.76,16.46-.18,10.09.89,22.87.54,31-1.94C181.83,311.11,177.66,296.61,177.66,296.61Z"/><path class="cls-26" d="M177.66,296.61s3.3-.42,3.82,8.39,3.33,101.23,3.33,101.23l-25.14.75s-2-68.69-.89-100.27C158.78,306.71,165.2,291.79,177.66,296.61Z"/><path class="cls-27" d="M148.55,302.41c-.11-.11,3.62.46,3.51.35-2.51-2.28-10.2-3.59-13.43-4.11-23.22-3.82-34.68-5.75-58.15-7.42-3.93-.28-8-1.21-10.63,2.23-2.11,2.72-2.6,6.46-2.71,9.79a26.67,26.67,0,0,0,1.6,11.12,15.85,15.85,0,0,0,9.51,8.75c13.63,4.78,37.35,4.42,50.45,4.6,9.07.12,17.17-5.75,20.7-14.35C150.81,309.93,151.33,305.34,148.55,302.41Z"/><path class="cls-24" d="M75.51,217.12c4.08-6.87,11.57-9.19,19.19-8.87a56.36,56.36,0,0,1,12.29,2.1c3.87,1,8.9,2,11.88,4.77,3.66,3.46,4.39,8.63,4.71,13.39.34,5.12.42,10.25.28,15.37-.25,9.89-1,19.72-.6,29.62.18,5.12.38,11.12-5.13,13.56-2.88,1.27-6.17,1.35-9.27,1.52a108.45,108.45,0,0,0-15.24,1.77c-4.71.94-9.25,2.82-14.11,2.93-4.11.09-7.57-1.87-7.64-6.25s2.48-9.87,3.2-14.38c1.38-8.6,1.77-17.61.09-26.2C73.3,236.92,70.15,226.16,75.51,217.12Z"/><path class="cls-25" d="M125.31,224.1c-.51-7.6-14.71-14.83-18.37-15.35L105.62,220s-17-12.77-17-12.79c-.18-.23-6.8,2.91-7.61,3.27-17,7.54-13.19,30-13.14,44.89q0,11,.07,21.92c0,3.74.18,7.52,0,11.26-.13,3.35-.13,11.69,3,13.47,3.51,2,7,.7,10.6-.36,4.15-1.23,11.45-3.89,15.75-4.51,5.68-.82,9.24-6.44,15-6.6,4.85-.14,9,.36,11-5a18.69,18.69,0,0,0,.84-6.91C123.74,257.76,126.7,245,125.31,224.1Z"/><path class="cls-27" d="M109.34,222.66l-2.86,9.27a.55.55,0,0,1-1,.08L101.1,223a.54.54,0,0,1,.48-.78l2.28-.07a.55.55,0,0,1,.51.3l.21.44a.55.55,0,0,0,1-.25h0a.55.55,0,0,1,.53-.56l2.66-.08A.54.54,0,0,1,109.34,222.66Z"/><path class="cls-27" d="M106.24,230h-1a.55.55,0,0,0-.55.51L102,277.75a.54.54,0,0,0,.16.42l5.15,5.06a.56.56,0,0,0,.82-.05l4.46-5.67a.55.55,0,0,0,.11-.41l-5.91-46.61A.54.54,0,0,0,106.24,230Z"/><path class="cls-28" d="M88.86,273.86s-.85,4.08-3.34.83c-4.62-6-4-9.94-6.78-17a109.06,109.06,0,0,1-5.27-17.94c-1.09-5.37-5.8-23.08,6.16-21.81a9.6,9.6,0,0,1,6.69,4.51c6.77,9.78,15.92,45.56,15.92,45.56Z"/><rect class="cls-24" x="125.32" y="230.61" width="18.35" height="10.31" rx="5.15" ry="5.15" transform="translate(-99.86 98.83) rotate(-30)"/><path class="cls-28" d="M89.6,277a3.6,3.6,0,0,1-4-1.59c-2.24-3.5-6-11-.74-15.88,7-6.54,22.4-12.34,45.42-28.77l5.78,10.44S103,273.25,89.6,277Z"/><path class="cls-27" d="M155,303.74a5.33,5.33,0,0,1,1.14,1.08c1.62,2.13,1.17,5.64.84,8.08-1.19,8.76-9.56,93.36-9.56,93.36l-24-.67c-.79-7.42,5.54-98.33,15-102.21C142,301.88,151.6,301.33,155,303.74Z"/><path class="cls-29" d="M105.36,220.15l5.93-1-4.55-9.91S105.15,220,105.36,220.15Z"/><polygon class="cls-30" points="106.73 209.2 111.29 219.11 118 219.84 106.67 208.44 106.73 209.2"/><polygon class="cls-31" points="84.38 210.16 93.69 225.82 103.56 215.77 88.45 206.97 84.38 210.16"/><polygon class="cls-32" points="103.52 215.51 105.52 220.05 101 217.55 103.52 215.51"/><path class="cls-24" d="M121,191.87s-1.09,3-1.81,4.52l-8.8,2.31-12.92-6.54-.29-4.39,5.55-3.1L114,191Z"/><path class="cls-24" d="M101.26,187.71l3.32-1.17c1.74,5,9,7.25,16.32,5.41a22.9,22.9,0,1,0-1.67,4.21C110.92,197.37,103.49,194.1,101.26,187.71Z"/><path class="cls-28" d="M98,191.07a1.46,1.46,0,1,0-1.55,2.48A27.5,27.5,0,0,0,111.13,198a24.84,24.84,0,0,0,7.79-1.26,31.74,31.74,0,0,0,1.65-3.88C119,193.73,109.45,198.24,98,191.07Z"/><path class="cls-33" d="M81.55,196.65a1.25,1.25,0,0,1-2.3.87,53.62,53.62,0,0,1-5-11.77,19.89,19.89,0,0,1-.28-8.31A20.72,20.72,0,0,1,87.71,161a30.38,30.38,0,0,1,9.78-1.38c3.83.05,7.45,1.12,11.22.45a27.11,27.11,0,0,1,7.13.19,7.69,7.69,0,0,1,6.18,4.67,6,6,0,0,1,.35,1.25,12,12,0,0,1-.77,7.53c-2.47,4.63-9.42,3.89-13.63,2.6a26.17,26.17,0,0,1-3.81-1.54l-.79-.36a1.25,1.25,0,0,0-1.66,1.65l0,.05a1.25,1.25,0,0,1-1.29,1.76,11.23,11.23,0,0,1-7.38-4.21,1.26,1.26,0,0,0-2,0A50.28,50.28,0,0,0,87.67,179C85.42,183.25,80,187.49,81.55,196.65Z"/><path class="cls-34" d="M173.93,404.28s18.57-3,21.55,7.92a3.88,3.88,0,0,1-3.73,4.92H160.56a2.51,2.51,0,0,1-2.5-2.67l.64-10.17Z"/><path class="cls-35" d="M139.23,405.57s20.23-3.27,23.48,8.62a4.23,4.23,0,0,1-4.06,5.36h-34a2.73,2.73,0,0,1-2.72-2.9l.69-11.08Z"/><path class="cls-36" d="M495.46,407.94a16.45,16.45,0,0,1-3-1.74,3,3,0,0,1-.23-4.79,1.94,1.94,0,0,0,.39-2.48,38.75,38.75,0,0,1-1.58-4.42c-1.72-6.49-6.37-10.06-12.33-12.09a33.62,33.62,0,0,0-8.62-1.64c-4.12-.28-8.27-.07-12.64-.07V387c0,3.83,0,7.66,0,11.48a2.31,2.31,0,0,0,.7,1.69c1.52,1,2.72,2.14,2.4,4.08s-1.82,2.89-3.59,3.44a6.71,6.71,0,0,0-.68.3H454c-.46-.17-.93-.33-1.38-.53-1.52-.64-2.78-1.58-2.94-3.35a3.87,3.87,0,0,1,2.26-3.79,1.78,1.78,0,0,0,.88-1.21c.06-6.06,0-12.12,0-18.36-9.26.05-18.51-1.23-26.7,4.36a15.54,15.54,0,0,0-6.41,8.07c-.44,1.37-1,2.71-1.45,4.07-.62,1.7-1.52,3.23.29,5,1.26,1.25.37,3.47-1.43,4.6a18.6,18.6,0,0,1-2.34,1.11h-2.64a5.66,5.66,0,0,1-1.78-.92c-.87-1-2-2-2.21-3.23a2.9,2.9,0,0,1,2.19-3.34c2.37-.54,2.87-2.28,3.44-4.14.33-1.08.8-2.11,1.13-3.19,2.8-9.36,9.74-14.19,18.72-16,5.41-1.08,11.09-.76,16.65-1.07l2.41-.11c-.75-7.69-1.49-15.12-2.19-22.55-.1-1.1-.53-1.49-1.65-1.47-3.7.06-7.41,0-11.11,0a32.49,32.49,0,0,1-18.52-5.34,7,7,0,0,0-3.39-1.16c-11.63-.42-21.27-9.45-21.8-21.1-.4-9-.16-18.08-.19-27.12a7.64,7.64,0,0,1,.21-1.49,4.38,4.38,0,0,1,4.48-3.52,4.3,4.3,0,0,1,4.2,3.61,17.54,17.54,0,0,1,.2,2.81c0,8.35-.09,16.7.17,25,.16,5.53,3.28,9.3,8.26,11.59,1.6.74,3,1.13,4-.94a5.61,5.61,0,0,1,2.07-1.87,16.45,16.45,0,0,1,8.75-2.51c6.59-.09,13.18-.05,19.78-.07h2.1c-.15-2.18-.29-4-.43-6-6.59,0-13,0-19.38,0-10.41-.07-17.76-7.95-16.92-18.3,1.89-23.58,4-47.15,5.77-70.74.92-12,9.95-19.7,20-19.79,12-.1,24-.12,36,0,7.3.08,12.94,3.44,16.92,9.58,2.49,3.84,2.9,8.18,3.25,12.59,1.87,22.89,3.82,45.78,5.71,68.67a16.15,16.15,0,0,1-13.75,17.6c-4.44.61-9,.31-13.53.37-3,.05-6,0-9.08,0l-.44,6h2.23c6.6,0,13.19-.09,19.78.1,4.08.11,8.14,1,10.74,4.48,1.23,1.65,2.23,1.59,3.7.9a18.36,18.36,0,0,0,2.33-1.21c4.51-2.93,6.37-7.2,6.35-12.47,0-7.91,0-15.82,0-23.73,0-1.8.17-3.54,1.75-4.75a4.29,4.29,0,0,1,4.61-.59c2.13.95,2.72,2.82,2.72,4.95,0,8.29.13,16.58,0,24.87-.23,12.07-7.93,21.09-19.68,22.71a20.9,20.9,0,0,0-8.08,2.86c-5.27,3.11-11.13,4.06-17.2,4-3.75-.06-7.51,0-11.47,0-.8,8.06-1.59,15.95-2.41,24.11h10.32a34.31,34.31,0,0,1,12.73,2.12c5.95,2.35,11,5.77,13.62,11.92,1.05,2.48,1.9,5.05,2.73,7.61a3.08,3.08,0,0,0,2.29,2.36,3.75,3.75,0,0,1,2.94,3.53c.08,1.77-1.09,2.85-2.58,3.6l-1.49.72ZM478.24,235.15c.7,0,1.58.2,2.07-.13.84-.56,1.94-1.45,2-2.26s-.93-1.85-1.72-2.45c-.51-.4-1.49-.25-2.26-.26q-23.1,0-46.21,0a12.19,12.19,0,0,0-1.48,0c-1.59.2-2.71.95-2.59,2.72s1.19,2.32,2.73,2.33c3.81,0,7.63,0,11.44,0h36Zm-.12,15.35c.78,0,1.73.19,2.28-.18.83-.55,1.89-1.52,1.9-2.32s-1-1.81-1.82-2.38c-.54-.39-1.5-.24-2.27-.24H431.79c-2.62,0-3.83.87-3.79,2.64s1.16,2.48,3.71,2.48c7.91,0,15.82,0,23.74,0Zm-46.45,10.32a5.24,5.24,0,0,0-2.79.65,2.36,2.36,0,0,0,.67,4.1,8.4,8.4,0,0,0,2.71.32h46a14.62,14.62,0,0,0,1.48,0c1.59-.16,2.75-.86,2.69-2.64s-1.24-2.42-2.85-2.42q-8.37,0-16.74,0H455C447.21,260.79,439.44,260.77,431.67,260.82Z"/><path class="cls-24" d="M420.17,254.65c-2,8.61-4.65,8.06-6.64,16.67-1.32,6.36-3.56,12.33-4.88,18.69-1.17,5.28-.43,9.05,6,8.89,11.6-.2,11-14.19,12.65-22.5,1.85-8.37,3-17.17,4.68-25.29Z"/><path class="cls-37" d="M476.82,196.79s-.17,2.55,5.27,24c2,7.84-6,14.82-14.7,17-2.89.72-26.82,2.24-40-7.51-2.69-2-10.09-10-1.67-24.9,5.46-9.65.65-33.72,24.3-29.14S476.82,196.79,476.82,196.79Z"/><circle class="cls-24" cx="452.25" cy="204.64" r="22.92"/><path class="cls-28" d="M451.07,219.46a16.1,16.1,0,0,1-5-.8,17.32,17.32,0,0,1-7.05-4.42,1.7,1.7,0,0,1,0-2.2,1.28,1.28,0,0,1,2,0c.37.41,8.87,9.62,21.53-.19a1.29,1.29,0,0,1,1.93.4,1.68,1.68,0,0,1-.35,2.16C459.12,218.26,454.67,219.46,451.07,219.46Z"/><path class="cls-37" d="M444.44,182.38c-.13,1.25.7,3.06,1.11,4.19a26.25,26.25,0,0,0,5.23,8.79,25.28,25.28,0,0,0,9.2,6.39c5.38,2.19,11.42,3.29,16.57,0,1.09-4.87.42-16.1-6.88-21.73S445.79,169.79,444.44,182.38Z"/><path class="cls-38" d="M474.06,341.49c11.92-10.31,5.06-39.66,5.06-39.66L473.59,304a7.28,7.28,0,0,0-5.65-2.68H429.77a7.36,7.36,0,0,0-7.34,7.34V341a7.3,7.3,0,0,0,1,3.7,7.18,7.18,0,0,0-.18,1.62v27.08a7.23,7.23,0,0,0,.65,3,7.23,7.23,0,0,0-.65,3v27.08a7.36,7.36,0,0,0,7.34,7.34h9.54a7.36,7.36,0,0,0,7.34-7.34V379.39a7.39,7.39,0,0,0-.65-3,7.39,7.39,0,0,0,.65-3V348.3H450v25.07a7.23,7.23,0,0,0,.65,3,7.23,7.23,0,0,0-.65,3v27.08a7.36,7.36,0,0,0,7.34,7.34h9.54a7.36,7.36,0,0,0,7.34-7.34V379.39a7.39,7.39,0,0,0-.65-3,7.39,7.39,0,0,0,.65-3V346.29c0-.44,0-4.38-.12-4.8Z"/><path class="cls-35" d="M459,402.14s-19.27-3.11-22.36,8.21a4,4,0,0,0,3.86,5.11h32.36a2.6,2.6,0,0,0,2.6-2.77l-.66-10.55Z"/><path class="cls-39" d="M459.77,230.24c5.79.25,17.78,2.89,19.81,7.58,3.64,8.46-1.54,29.34-.42,44.73.52,6.92,1.34,14.09.73,21-4.23,1-8.17,2.63-12.54,3.28-4.54.64-10.74,1.81-15,1.63-2.67-3.57-2.63-7.84-5.07-11.15-2.71,3.09-3.37,7.23-6.07,10.2a118.24,118.24,0,0,1-17.32-5.84c-2.21-1-4-1.12-4.55-2.8-.57-1.93,7.28-34.9,7.32-35.85-1.44-.3-12.44-1.15-13.37-2,0,0,.87-2.19,1.42-3.71,1-4.24,4.3-9.8,5.76-13.9,2.23-6.92,7.89-9.54,17-11.42,1.46-.29,2.93-.71,4.39-.88C443.64,234.32,459.77,230.24,459.77,230.24Z"/><path class="cls-28" d="M453.32,245.57c1,.67,10.18,1.64,10.18,1.64s3.83-10.2,3.4-12.41c-.85-4.35-4.37-4.76-5.74-5.08C461.16,229.72,455.56,241.45,453.32,245.57Z"/><path class="cls-28" d="M448.23,246.35c-2.14.28-7.5.43-9.9,1-.21-5.18-.21-5.37-.26-9,0-1.52-.07-4,1-5.19a6.89,6.89,0,0,1,4.18-1.82Z"/><path class="cls-25" d="M461.16,229.72S446,229,443.08,231.1L452,258Z"/><path class="cls-24" d="M418.8,286.67s22.33,1.45,22.24,1.17-.72,12.88-.72,12.88-29.18-1.89-30-2.6S418.8,286.67,418.8,286.67Z"/><path class="cls-24" d="M484.83,248.57c2,8.61,4.64,8.07,6.64,16.68,1.32,6.35,3.56,12.32,4.88,18.68,1.16,5.28.43,9.05-6,8.9-11.59-.21-11-14.19-12.65-22.51-1.85-8.36-3-17.17-4.67-25.29Z"/><path class="cls-24" d="M486.19,280.59s-38,1.45-37.94,1.17.72,12.88.72,12.88,44.89-1.89,45.72-2.6S486.19,280.59,486.19,280.59Z"/><path class="cls-39" d="M494.83,270.31s-3.16-9.81-4.37-13.19a107.84,107.84,0,0,0-4.95-10.83,26.5,26.5,0,0,0-8.25-9.49s-4.08.48-5.74,2c-4.71,4.23-5.5,12.39-5.2,18.49.2,5.76,1.85,11.25,3.5,16.74.67,2.47.26,4.22,3.37,4a7.83,7.83,0,0,0,1.21-.19C484.59,277.88,495.17,273.19,494.83,270.31Z"/><rect class="cls-40" x="255.82" y="291.74" width="28.22" height="4.93"/><path class="cls-28" d="M260,275s-3.14,16.74-7.21,16.74H238.2C234.13,291.74,231,275,231,275Z"/><path class="cls-28" d="M256.66,289.73a14,14,0,0,1-1.55-.09l.29-2.56c5.37.61,7.32-2.67,7.79-3.68.75-1.61.55-3,0-3.58-1.78-1.68-4.54.07-4.66.14l-1.4-2.16c.18-.12,4.57-2.93,7.83.14,1.51,1.42,1.75,4.05.59,6.54A9.4,9.4,0,0,1,256.66,289.73Z"/><rect class="cls-9" x="-23.59" y="291.74" width="279.41" height="4.93"/><rect class="cls-40" x="-23" y="296.68" width="47.16" height="129.31"/><rect class="cls-9" x="144.36" y="296.68" width="84.62" height="129.31"/><rect class="cls-40" x="228.98" y="296.68" width="47.16" height="129.31"/><rect class="cls-41" x="150.67" y="317.49" width="68.17" height="42.82"/><rect class="cls-40" x="172.68" y="329.53" width="16.85" height="8.53"/><rect class="cls-41" x="177.66" y="330.18" width="16.85" height="7.24"/><rect class="cls-41" x="150.67" y="369.32" width="68.17" height="42.82"/><rect class="cls-40" x="172.68" y="381.37" width="16.85" height="8.53"/><rect class="cls-41" x="177.66" y="382.01" width="16.85" height="7.24"/><rect class="cls-42" x="90.28" y="287.95" width="69.98" height="3.9"/><polygon class="cls-42" points="200.78 291.87 134.01 291.87 144.76 249.39 211.53 249.39 200.78 291.87"/><polygon class="cls-40" points="200.78 291.87 137.98 291.87 148.73 249.39 211.53 249.39 200.78 291.87"/><circle class="cls-42" cx="175.47" cy="268.89" r="3.93"/><ellipse class="cls-43" cx="545.31" cy="368.76" rx="19.28" ry="3.33"/><path class="cls-16" d="M561.1,291.32c-5.37,17.58-14.48,34.37-15.51,52.94q0,2.08,0,4.17a.07.07,0,0,1-.07.07v.33a.36.36,0,0,1-.72,0,65,65,0,0,1,.59-10q.15-12.54,1.24-25c.42-4.86.84-9.75,1.64-14.57a31.91,31.91,0,0,1,4.25-12.09,18.67,18.67,0,0,1,3.83-4.39c1-.87,2.56-2,4-1.3,1.24.58,1.6,2.17,1.74,3.4A16.16,16.16,0,0,1,561.1,291.32Z"/><path class="cls-44" d="M546.2,314.41c.4,7.68.69,23.82.62,22.44a222.88,222.88,0,0,1-8.38-24.7c-2.07-7.66-4.54-16-3.39-24,.39-2.68,1.8-6,5-6.06s4.32,3.54,4.62,6.06c.51,4.28.55,8.66.8,13S546,310,546.2,314.41Z"/><path class="cls-16" d="M543.11,328.55a133.73,133.73,0,0,1,3,23.42.08.08,0,0,1-.16,0c-.12-1.54-1.58-11.36-9.88-25.8-1.69-2.93-3.51-5.78-5-8.83a28,28,0,0,1-3-8.76c-.22-1.9.05-5.72,2.51-6.19s4.89,3,5.9,4.83a49.26,49.26,0,0,1,3.62,9.66Q541.83,322.64,543.11,328.55Z"/><path class="cls-44" d="M567.74,306.41A49.2,49.2,0,0,1,561,316.74c-2.59,3.32-5.13,6.68-7.43,10.21-3.59,5.53-9,22.64-9,23.53,0,.27-.42.19-.41-.07.14-2.17,2.84-18.07,4.65-23.71,2.5-7.83,5.51-16.17,10.5-22.79a29,29,0,0,1,3.9-4.23c1.07-.95,2.45-2.15,4-1.56C570.5,299.4,568.76,304.11,567.74,306.41Z"/><path class="cls-45" d="M551.58,367.11c0,1.51-6.27,1.65-6.27,1.65s-6.28-.14-6.28-1.65-3.54-36.1-2.81-36.1H554.4C555.13,331,551.58,365.61,551.58,367.11Z"/><rect class="cls-45" x="534.03" y="328.57" width="22.56" height="7.49" rx="1.72" ry="1.72"/><rect class="cls-42" x="430.17" y="287.82" width="69.98" height="3.9" transform="translate(930.32 579.55) rotate(180)"/><polygon class="cls-42" points="389.65 291.74 456.42 291.74 445.67 249.26 378.9 249.26 389.65 291.74"/><polygon class="cls-40" points="389.65 291.74 452.45 291.74 441.7 249.26 378.9 249.26 389.65 291.74"/><circle class="cls-42" cx="414.96" cy="268.76" r="3.93"/><path class="cls-8" d="M528.72,275s3.14,16.74,7.21,16.74h14.62c4.07,0,7.21-16.74,7.21-16.74Z"/><path class="cls-8" d="M532.09,289.73a14.1,14.1,0,0,0,1.55-.09l-.29-2.56c-5.37.61-7.32-2.67-7.8-3.68-.74-1.61-.54-3,0-3.58,1.79-1.68,4.55.07,4.66.14l1.41-2.16c-.19-.12-4.57-2.93-7.83.14-1.51,1.42-1.75,4.05-.59,6.54A9.4,9.4,0,0,0,532.09,289.73Z"/><rect class="cls-9" x="318.97" y="291.74" width="371.11" height="4.93"/><rect class="cls-9" x="326.63" y="296.68" width="84.62" height="129.31"/><rect class="cls-40" x="411.25" y="296.68" width="47.16" height="129.31"/><rect class="cls-41" x="334.86" y="317.49" width="68.17" height="42.82"/><rect class="cls-40" x="356.86" y="329.53" width="16.85" height="8.53"/><rect class="cls-41" x="361.84" y="330.18" width="16.85" height="7.24"/><rect class="cls-41" x="334.86" y="369.32" width="68.17" height="42.82"/><rect class="cls-40" x="356.86" y="381.37" width="16.85" height="8.53"/><rect class="cls-41" x="361.84" y="382.01" width="16.85" height="7.24"/><rect class="cls-9" x="578.61" y="296.68" width="84.62" height="129.31"/><rect class="cls-40" x="663.23" y="296.68" width="47.16" height="129.31"/><rect class="cls-41" x="584.92" y="317.49" width="68.17" height="42.82"/><rect class="cls-40" x="606.93" y="329.53" width="16.85" height="8.53"/><rect class="cls-41" x="611.91" y="330.18" width="16.85" height="7.24"/><rect class="cls-41" x="584.92" y="369.32" width="68.17" height="42.82"/><rect class="cls-40" x="606.93" y="381.37" width="16.85" height="8.53"/><rect class="cls-41" x="611.91" y="382.01" width="16.85" height="7.24"/><rect class="cls-46" x="607.27" y="266.4" width="60.11" height="14.27"/><rect class="cls-47" x="644.76" y="266.4" width="12.97" height="14.27"/><rect class="cls-47" x="626.63" y="266.4" width="7.69" height="14.27"/><rect class="cls-42" x="610.85" y="280.67" width="59.7" height="11.02" transform="translate(1281.4 572.36) rotate(180)"/><rect class="cls-45" x="657.35" y="280.67" width="7.64" height="11.02" transform="translate(1322.33 572.36) rotate(180)"/><rect class="cls-45" x="616.9" y="280.67" width="7.64" height="11.02" transform="translate(1241.45 572.36) rotate(180)"/><rect class="cls-8" x="614.03" y="258.14" width="53.43" height="8.4"/><rect class="cls-48" x="619" y="258.14" width="6.84" height="8.4"/><rect class="cls-48" x="655.2" y="258.14" width="6.84" height="8.4"/><rect class="cls-28" x="616.81" y="223.48" width="36.06" height="34.66"/><rect class="cls-9" x="652.87" y="223.48" width="13.71" height="34.66"/><polygon class="cls-9" points="616.81 240.81 652.87 240.81 624.71 241.7 616.81 240.81"/><polygon class="cls-9" points="652.87 253.95 616.81 253.95 644.97 254.84 652.87 253.95"/><polygon class="cls-9" points="616.81 231.12 639.65 231.12 619.34 231.85 616.81 231.12"/><polygon class="cls-9" points="652.87 248.85 630.03 248.85 650.33 249.58 652.87 248.85"/><polygon class="cls-9" points="625.46 227.26 651.22 227.26 646.93 227.7 625.46 227.26"/><polygon class="cls-9" points="620.31 244.53 646.08 244.53 641.78 244.96 620.31 244.53"/><polygon class="cls-28" points="636.16 234.42 652.87 234.42 655.86 235.59 636.16 234.42"/><polygon class="cls-28" points="612.2 234.42 628.92 234.42 631.9 235.59 612.2 234.42"/><polygon class="cls-28" points="633.65 250 616.93 250 613.95 251.16 633.65 250"/><polygon class="cls-9" points="652.87 246.04 666.29 246.04 669.28 247.21 652.87 246.04"/><polygon class="cls-9" points="657.56 240.81 667.96 240.81 666.58 239.86 657.56 240.81"/><path class="cls-49" d="M107.68,219s-13.11-2.42-17.61-1.7l14.11,8.15,1.91,3.75Z"/></g><g class="cls-50"><path class="cls-51" d="M326.93,387.82V493.36H1526V390.54c-85.45-1.44-174.32-.84-261.75-.84-89.47,0-177.76-.72-266.64,0-91.28.73-182-1.2-273.22-.56-46.05.31-86.36,1.91-132.89.64-35.7-1-72.52-1.76-109.14-2.1C467.22,387.53,452.15,387.64,326.93,387.82Z"/><g class="cls-52"><path class="cls-53" d="M742.55,196.24v-67L697.1,178.9v82.6H667.82V143.12h-7.45l-21.2-19.81-21.32,19.81h-7.32V302.87H502.79v87H813.54V196.24Zm-82.18,42.47H618v-4.33h42.4Zm0-8.64H618v-4.33h42.4Zm0-8.64H618v-4.32h42.4Zm0-8.65H618v-4.32h42.4Zm0-8.63H618v-4.33h42.4Zm0-8.64H618v-4.33h42.4Zm0-8.65H618v-4.32h42.4Zm0-8.64H618V173.9h42.4Zm0-8.64H618v-4.32h42.4Zm0-8.63H618v-4.33h42.4Zm0-8.65H618V148h42.4Zm76.41,210.5h-4.4V150.14l4.4-4.83Z"/><path class="cls-53" d="M947.5,308.81V157.35h-6.82V142h-52.8v15.32H881.1V347.76H831.55V261.53H759.4V374.68H724.54V172H653.47V327.72h-8.34V235H632.27l-35.84-18.93V235h-7.84V349.5h-17.4v-155h-17.6V140.08h-2.41v54.39h-17.6V390.22H992V308.81ZM566.94,294.09h-29v-3.37h29Zm0-7.8h-29v-3.37h29Zm0-7.8h-29v-3.37h29Zm0-7.8h-29v-3.37h29Zm0-7.8h-29v-3.37h29Zm0-7.8h-29v-3.37h29Zm0-7.8h-29v-3.37h29Zm0-7.8h-29v-3.37h29Zm0-7.8h-29v-3.37h29Zm0-7.8h-29v-3.37h29Zm0-7.8h-29v-3.37h29Zm0-7.8h-29v-3.37h29Zm0-7.8h-29v-3.37h29Zm101.84,46.43h-8.65v-8.64h8.65Zm0-14.41h-8.65v-8.64h8.65Zm0-14.41h-8.65v-8.64h8.65Zm0-14.4h-8.65v-8.65h8.65Zm0-14.42h-8.65v-8.65h8.65Zm16.42,57.64h-8.64v-8.64h8.64Zm0-14.41h-8.64v-8.64h8.64Zm0-14.41h-8.64v-8.64h8.64Zm0-14.4h-8.64v-8.65h8.64Zm0-14.42h-8.64v-8.65h8.64Zm16.43,57.64H693v-8.64h8.65Zm0-14.41H693v-8.64h8.65Zm0-14.41H693v-8.64h8.65Zm0-14.4H693v-8.65h8.65Zm0-14.42H693v-8.65h8.65Zm16.42,57.64h-8.63v-8.64h8.63Zm0-14.41h-8.63v-8.64h8.63Zm0-14.41h-8.63v-8.64h8.63Zm0-14.4h-8.63v-8.65h8.63ZM954.31,380.09h-9v-9h9Zm0-18h-9v-9h9Zm0-18h-9v-9h9Zm0-18h-9v-9h9Zm16.67,54h-9v-9h9Zm0-18h-9v-9h9Zm0-18h-9v-9h9Zm0-18h-9v-9h9Zm16.67,54h-9v-9h9Zm0-18h-9v-9h9Zm0-18h-9v-9h9Zm0-18h-9v-9h9Z"/><path class="cls-53" d="M1274.51,390.73H461.87a.92.92,0,0,1-.92-.92h0a.92.92,0,0,1,.92-.92h812.64a.92.92,0,0,1,.92.92h0A.92.92,0,0,1,1274.51,390.73Z"/></g><path class="cls-54" d="M572.17,124.27H489.6c-12.45,0-12.6-14.16-1.55-17A23,23,0,0,1,507.49,111s3-34.79,31.42-30.71c22.4,3.22,21.1,25.59,21.1,25.59s4.61-9.2,16.7-5.72C589.32,103.82,588,124.27,572.17,124.27Z"/></g><g class="cls-55"><g class="cls-56"><path class="cls-57" d="M745.75,1657.1h.92v-17.22H850.76v17.22h.92v-17.22H955.76v17.22h.92v-17.22h104.09v17.22h.92v-17.22h104.09v17.22h.91v-17.22h104.09v17.22h.92v-17.22h104.09v17.22h.91v-17.22h104.09v17.22h.92v-17.22H1585.8v17.22h.92v-17.22H1690.8v17.22h.92v-17.22h104.09v17.22h.92v-17.22h83.32V1639h-30.82v-30.19h30.82v-.92h-83.32v-30.19h83.32v-.92h-30.82v-30.2h30.82v-.91h-83.32v-30.2h83.32v-.92h-30.82v-30.19h30.82v-.92h-83.32v-30.19h83.32v-.92h-30.82v-30.2h30.82v-.92h-83.32V1391h83.32v-.92h-30.82v-30.19h30.82V1359h-83.32v-30.19h83.32v-.92h-30.82v-30.2h30.82v-.92h-83.32v-30.19h83.32v-.92h-30.82v-30.19h30.82v-.92h-83.32v-30.19h83.32v-.92h-30.82v-30.2h30.82v-.92h-83.32v-30.19h83.32v-.92h-30.82V1111h30.82v-.92h-83.32v-30.19h83.32v-.92h-30.82v-30.19h30.82v-.92h-83.32v-30.2h83.32v-.92h-30.82V986.52h30.82v-.92h-83.32V955.41h83.32v-.92h-30.82V924.3h30.82v-.92h-83.32v-30.2h83.32v-.92h-30.82V862.07h30.82v-.92h-83.32V831h83.32V830h-30.82V799.85h30.82v-.92h-83.32v-30.2h83.32v-.91h-30.82v-30.2h30.82v-.92h-83.32V706.51h83.32v-.92h-30.82V675.4h30.82v-.92h-83.32v-30.2h83.32v-.91h-30.82v-30.2h30.82v-.92h-83.32V582.06h83.32v-.92h-30.82V551h30.82V550h-83.32v-30.2h83.32v-.91h-30.82v-30.2h30.82v-.92h-83.32V457.61h83.32v-.92h-30.82V439.48h-.92v17.21H1744.22V439.48h-.91v17.21H1639.22V439.48h-.92v17.21H1534.21V439.48h-.92v17.21H1429.21V439.48h-.92v17.21H1324.2V439.48h-.92v17.21H1219.2V439.48h-.92v17.21H1114.19V439.48h-.92v17.21H1009.19V439.48h-.92v17.21H904.18V439.48h-.92v17.21H799.18V439.48h-.92v17.21H694.17V439.48h-.92v17.21H662.43v.92h83.32V487.8H662.43v.92h30.82v30.2H662.43v.91h83.32V550H662.43V551h30.82v30.19H662.43v.92h83.32v30.19H662.43v.92h30.82v30.2H662.43v.91h83.32v30.2H662.43v.92h30.82v30.19H662.43v.92h83.32V736.7H662.43v.92h30.82v30.2H662.43v.91h83.32v30.2H662.43v.92h30.82V830H662.43V831h83.32v30.19H662.43v.92h30.82v30.19H662.43v.92h83.32v30.2H662.43v.92h30.82v30.19H662.43v.92h83.32V985.6H662.43v.92h30.82v30.19H662.43v.92h83.32v30.2H662.43v.92h30.82v30.19H662.43v.92h83.32v30.19H662.43v.92h30.82v30.19H662.43v.92h83.32v30.19H662.43v.92h30.82v30.2H662.43v.92h83.32v30.19H662.43v.92h30.82v30.19H662.43v.92h83.32v30.19H662.43v.92h30.82v30.2H662.43v.92h83.32V1359H662.43v.92h30.82v30.19H662.43v.92h83.32v30.19H662.43v.92h30.82v30.2H662.43v.92h83.32v30.19H662.43v.92h30.82v30.19H662.43v.92h83.32v30.2H662.43v.91h30.82v30.2H662.43v.92h83.32v30.19H662.43v.92h30.82V1639H662.43v.92h83.32v17.22Zm-51.58-48.33H798.26V1639H694.17v-30.19Zm105,0H903.26V1639H799.18v-30.19Zm105,0h104.09V1639H904.18v-30.19Zm105,0h104.08V1639H1009.19v-30.19Zm105,0h104.09V1639H1114.19v-30.19Zm105,0h104.08V1639H1219.2v-30.19Zm105,0h104.09V1639H1324.2v-30.19Zm105,0h104.08V1639H1429.21v-30.19Zm105,0H1638.3V1639H1534.21v-30.19Zm105,0h104.09V1639H1639.22v-30.19Zm105,0h104.09V1639H1744.22v-30.19Zm-997.55-31.11H850.76v30.19H746.67v-30.19Zm105,0H955.76v30.19H851.68v-30.19Zm105,0h104.09v30.19H956.68v-30.19Zm105,0h104.09v30.19H1061.69v-30.19Zm105,0h104.09v30.19H1166.69v-30.19Zm105,0h104.09v30.19H1271.7v-30.19Zm105,0h104.09v30.19H1376.7v-30.19Zm105,0H1585.8v30.19H1481.71v-30.19Zm105,0H1690.8v30.19H1586.72v-30.19Zm105,0h104.09v30.19H1691.72v-30.19Zm-997.55-31.12H798.26v30.2H694.17v-30.2Zm105,0H903.26v30.2H799.18v-30.2Zm105,0h104.09v30.2H904.18v-30.2Zm105,0h104.08v30.2H1009.19v-30.2Zm105,0h104.09v30.2H1114.19v-30.2Zm105,0h104.08v30.2H1219.2v-30.2Zm105,0h104.09v30.2H1324.2v-30.2Zm105,0h104.08v30.2H1429.21v-30.2Zm105,0H1638.3v30.2H1534.21v-30.2Zm105,0h104.09v30.2H1639.22v-30.2Zm105,0h104.09v30.2H1744.22v-30.2Zm-997.55-31.11H850.76v30.2H746.67v-30.2Zm105,0H955.76v30.2H851.68v-30.2Zm105,0h104.09v30.2H956.68v-30.2Zm105,0h104.09v30.2H1061.69v-30.2Zm105,0h104.09v30.2H1166.69v-30.2Zm105,0h104.09v30.2H1271.7v-30.2Zm105,0h104.09v30.2H1376.7v-30.2Zm105,0H1585.8v30.2H1481.71v-30.2Zm105,0H1690.8v30.2H1586.72v-30.2Zm105,0h104.09v30.2H1691.72v-30.2Zm-997.55-31.11H798.26v30.19H694.17v-30.19Zm105,0H903.26v30.19H799.18v-30.19Zm105,0h104.09v30.19H904.18v-30.19Zm105,0h104.08v30.19H1009.19v-30.19Zm105,0h104.09v30.19H1114.19v-30.19Zm105,0h104.08v30.19H1219.2v-30.19Zm105,0h104.09v30.19H1324.2v-30.19Zm105,0h104.08v30.19H1429.21v-30.19Zm105,0H1638.3v30.19H1534.21v-30.19Zm105,0h104.09v30.19H1639.22v-30.19Zm105,0h104.09v30.19H1744.22v-30.19Zm-997.55-31.11H850.76v30.19H746.67v-30.19Zm105,0H955.76v30.19H851.68v-30.19Zm105,0h104.09v30.19H956.68v-30.19Zm105,0h104.09v30.19H1061.69v-30.19Zm105,0h104.09v30.19H1166.69v-30.19Zm105,0h104.09v30.19H1271.7v-30.19Zm105,0h104.09v30.19H1376.7v-30.19Zm105,0H1585.8v30.19H1481.71v-30.19Zm105,0H1690.8v30.19H1586.72v-30.19Zm105,0h104.09v30.19H1691.72v-30.19Zm-997.55-31.12H798.26v30.2H694.17v-30.2Zm105,0H903.26v30.2H799.18v-30.2Zm105,0h104.09v30.2H904.18v-30.2Zm105,0h104.08v30.2H1009.19v-30.2Zm105,0h104.09v30.2H1114.19v-30.2Zm105,0h104.08v30.2H1219.2v-30.2Zm105,0h104.09v30.2H1324.2v-30.2Zm105,0h104.08v30.2H1429.21v-30.2Zm105,0H1638.3v30.2H1534.21v-30.2Zm105,0h104.09v30.2H1639.22v-30.2Zm105,0h104.09v30.2H1744.22v-30.2ZM746.67,1391H850.76v30.19H746.67V1391Zm105,0H955.76v30.19H851.68V1391Zm105,0h104.09v30.19H956.68V1391Zm105,0h104.09v30.19H1061.69V1391Zm105,0h104.09v30.19H1166.69V1391Zm105,0h104.09v30.19H1271.7V1391Zm105,0h104.09v30.19H1376.7V1391Zm105,0H1585.8v30.19H1481.71V1391Zm105,0H1690.8v30.19H1586.72V1391Zm105,0h104.09v30.19H1691.72V1391Zm-997.55-31.11H798.26v30.19H694.17v-30.19Zm105,0H903.26v30.19H799.18v-30.19Zm105,0h104.09v30.19H904.18v-30.19Zm105,0h104.08v30.19H1009.19v-30.19Zm105,0h104.09v30.19H1114.19v-30.19Zm105,0h104.08v30.19H1219.2v-30.19Zm105,0h104.09v30.19H1324.2v-30.19Zm105,0h104.08v30.19H1429.21v-30.19Zm105,0H1638.3v30.19H1534.21v-30.19Zm105,0h104.09v30.19H1639.22v-30.19Zm105,0h104.09v30.19H1744.22v-30.19Zm-997.55-31.11H850.76V1359H746.67v-30.19Zm105,0H955.76V1359H851.68v-30.19Zm105,0h104.09V1359H956.68v-30.19Zm105,0h104.09V1359H1061.69v-30.19Zm105,0h104.09V1359H1166.69v-30.19Zm105,0h104.09V1359H1271.7v-30.19Zm105,0h104.09V1359H1376.7v-30.19Zm105,0H1585.8V1359H1481.71v-30.19Zm105,0H1690.8V1359H1586.72v-30.19Zm105,0h104.09V1359H1691.72v-30.19Zm-997.55-31.12H798.26v30.2H694.17v-30.2Zm105,0H903.26v30.2H799.18v-30.2Zm105,0h104.09v30.2H904.18v-30.2Zm105,0h104.08v30.2H1009.19v-30.2Zm105,0h104.09v30.2H1114.19v-30.2Zm105,0h104.08v30.2H1219.2v-30.2Zm105,0h104.09v30.2H1324.2v-30.2Zm105,0h104.08v30.2H1429.21v-30.2Zm105,0H1638.3v30.2H1534.21v-30.2Zm105,0h104.09v30.2H1639.22v-30.2Zm105,0h104.09v30.2H1744.22v-30.2Zm-997.55-31.11H850.76v30.19H746.67v-30.19Zm105,0H955.76v30.19H851.68v-30.19Zm105,0h104.09v30.19H956.68v-30.19Zm105,0h104.09v30.19H1061.69v-30.19Zm105,0h104.09v30.19H1166.69v-30.19Zm105,0h104.09v30.19H1271.7v-30.19Zm105,0h104.09v30.19H1376.7v-30.19Zm105,0H1585.8v30.19H1481.71v-30.19Zm105,0H1690.8v30.19H1586.72v-30.19Zm105,0h104.09v30.19H1691.72v-30.19Zm-997.55-31.11H798.26v30.19H694.17v-30.19Zm105,0H903.26v30.19H799.18v-30.19Zm105,0h104.09v30.19H904.18v-30.19Zm105,0h104.08v30.19H1009.19v-30.19Zm105,0h104.09v30.19H1114.19v-30.19Zm105,0h104.08v30.19H1219.2v-30.19Zm105,0h104.09v30.19H1324.2v-30.19Zm105,0h104.08v30.19H1429.21v-30.19Zm105,0H1638.3v30.19H1534.21v-30.19Zm105,0h104.09v30.19H1639.22v-30.19Zm105,0h104.09v30.19H1744.22v-30.19Zm-997.55-31.11H850.76v30.19H746.67v-30.19Zm105,0H955.76v30.19H851.68v-30.19Zm105,0h104.09v30.19H956.68v-30.19Zm105,0h104.09v30.19H1061.69v-30.19Zm105,0h104.09v30.19H1166.69v-30.19Zm105,0h104.09v30.19H1271.7v-30.19Zm105,0h104.09v30.19H1376.7v-30.19Zm105,0H1585.8v30.19H1481.71v-30.19Zm105,0H1690.8v30.19H1586.72v-30.19Zm105,0h104.09v30.19H1691.72v-30.19Zm-997.55-31.12H798.26v30.2H694.17v-30.2Zm105,0H903.26v30.2H799.18v-30.2Zm105,0h104.09v30.2H904.18v-30.2Zm105,0h104.08v30.2H1009.19v-30.2Zm105,0h104.09v30.2H1114.19v-30.2Zm105,0h104.08v30.2H1219.2v-30.2Zm105,0h104.09v30.2H1324.2v-30.2Zm105,0h104.08v30.2H1429.21v-30.2Zm105,0H1638.3v30.2H1534.21v-30.2Zm105,0h104.09v30.2H1639.22v-30.2Zm105,0h104.09v30.2H1744.22v-30.2Zm-997.55-31.11H850.76v30.19H746.67v-30.19Zm105,0H955.76v30.19H851.68v-30.19Zm105,0h104.09v30.19H956.68v-30.19Zm105,0h104.09v30.19H1061.69v-30.19Zm105,0h104.09v30.19H1166.69v-30.19Zm105,0h104.09v30.19H1271.7v-30.19Zm105,0h104.09v30.19H1376.7v-30.19Zm105,0H1585.8v30.19H1481.71v-30.19Zm105,0H1690.8v30.19H1586.72v-30.19Zm105,0h104.09v30.19H1691.72v-30.19ZM694.17,1111H798.26v30.19H694.17V1111Zm105,0H903.26v30.19H799.18V1111Zm105,0h104.09v30.19H904.18V1111Zm105,0h104.08v30.19H1009.19V1111Zm105,0h104.09v30.19H1114.19V1111Zm105,0h104.08v30.19H1219.2V1111Zm105,0h104.09v30.19H1324.2V1111Zm105,0h104.08v30.19H1429.21V1111Zm105,0H1638.3v30.19H1534.21V1111Zm105,0h104.09v30.19H1639.22V1111Zm105,0h104.09v30.19H1744.22V1111Zm-997.55-31.11H850.76v30.19H746.67v-30.19Zm105,0H955.76v30.19H851.68v-30.19Zm105,0h104.09v30.19H956.68v-30.19Zm105,0h104.09v30.19H1061.69v-30.19Zm105,0h104.09v30.19H1166.69v-30.19Zm105,0h104.09v30.19H1271.7v-30.19Zm105,0h104.09v30.19H1376.7v-30.19Zm105,0H1585.8v30.19H1481.71v-30.19Zm105,0H1690.8v30.19H1586.72v-30.19Zm105,0h104.09v30.19H1691.72v-30.19Zm-997.55-31.11H798.26v30.19H694.17v-30.19Zm105,0H903.26v30.19H799.18v-30.19Zm105,0h104.09v30.19H904.18v-30.19Zm105,0h104.08v30.19H1009.19v-30.19Zm105,0h104.09v30.19H1114.19v-30.19Zm105,0h104.08v30.19H1219.2v-30.19Zm105,0h104.09v30.19H1324.2v-30.19Zm105,0h104.08v30.19H1429.21v-30.19Zm105,0H1638.3v30.19H1534.21v-30.19Zm105,0h104.09v30.19H1639.22v-30.19Zm105,0h104.09v30.19H1744.22v-30.19Zm-997.55-31.12H850.76v30.2H746.67v-30.2Zm105,0H955.76v30.2H851.68v-30.2Zm105,0h104.09v30.2H956.68v-30.2Zm105,0h104.09v30.2H1061.69v-30.2Zm105,0h104.09v30.2H1166.69v-30.2Zm105,0h104.09v30.2H1271.7v-30.2Zm105,0h104.09v30.2H1376.7v-30.2Zm105,0H1585.8v30.2H1481.71v-30.2Zm105,0H1690.8v30.2H1586.72v-30.2Zm105,0h104.09v30.2H1691.72v-30.2ZM694.17,986.52H798.26v30.19H694.17V986.52Zm105,0H903.26v30.19H799.18V986.52Zm105,0h104.09v30.19H904.18V986.52Zm105,0h104.08v30.19H1009.19V986.52Zm105,0h104.09v30.19H1114.19V986.52Zm105,0h104.08v30.19H1219.2V986.52Zm105,0h104.09v30.19H1324.2V986.52Zm105,0h104.08v30.19H1429.21V986.52Zm105,0H1638.3v30.19H1534.21V986.52Zm105,0h104.09v30.19H1639.22V986.52Zm105,0h104.09v30.19H1744.22V986.52ZM746.67,955.41H850.76V985.6H746.67V955.41Zm105,0H955.76V985.6H851.68V955.41Zm105,0h104.09V985.6H956.68V955.41Zm105,0h104.09V985.6H1061.69V955.41Zm105,0h104.09V985.6H1166.69V955.41Zm105,0h104.09V985.6H1271.7V955.41Zm105,0h104.09V985.6H1376.7V955.41Zm105,0H1585.8V985.6H1481.71V955.41Zm105,0H1690.8V985.6H1586.72V955.41Zm105,0h104.09V985.6H1691.72V955.41ZM694.17,924.3H798.26v30.19H694.17V924.3Zm105,0H903.26v30.19H799.18V924.3Zm105,0h104.09v30.19H904.18V924.3Zm105,0h104.08v30.19H1009.19V924.3Zm105,0h104.09v30.19H1114.19V924.3Zm105,0h104.08v30.19H1219.2V924.3Zm105,0h104.09v30.19H1324.2V924.3Zm105,0h104.08v30.19H1429.21V924.3Zm105,0H1638.3v30.19H1534.21V924.3Zm105,0h104.09v30.19H1639.22V924.3Zm105,0h104.09v30.19H1744.22V924.3ZM746.67,893.18H850.76v30.2H746.67v-30.2Zm105,0H955.76v30.2H851.68v-30.2Zm105,0h104.09v30.2H956.68v-30.2Zm105,0h104.09v30.2H1061.69v-30.2Zm105,0h104.09v30.2H1166.69v-30.2Zm105,0h104.09v30.2H1271.7v-30.2Zm105,0h104.09v30.2H1376.7v-30.2Zm105,0H1585.8v30.2H1481.71v-30.2Zm105,0H1690.8v30.2H1586.72v-30.2Zm105,0h104.09v30.2H1691.72v-30.2ZM694.17,862.07H798.26v30.19H694.17V862.07Zm105,0H903.26v30.19H799.18V862.07Zm105,0h104.09v30.19H904.18V862.07Zm105,0h104.08v30.19H1009.19V862.07Zm105,0h104.09v30.19H1114.19V862.07Zm105,0h104.08v30.19H1219.2V862.07Zm105,0h104.09v30.19H1324.2V862.07Zm105,0h104.08v30.19H1429.21V862.07Zm105,0H1638.3v30.19H1534.21V862.07Zm105,0h104.09v30.19H1639.22V862.07Zm105,0h104.09v30.19H1744.22V862.07ZM746.67,831H850.76v30.19H746.67V831Zm105,0H955.76v30.19H851.68V831Zm105,0h104.09v30.19H956.68V831Zm105,0h104.09v30.19H1061.69V831Zm105,0h104.09v30.19H1166.69V831Zm105,0h104.09v30.19H1271.7V831Zm105,0h104.09v30.19H1376.7V831Zm105,0H1585.8v30.19H1481.71V831Zm105,0H1690.8v30.19H1586.72V831Zm105,0h104.09v30.19H1691.72V831ZM694.17,799.85H798.26V830H694.17V799.85Zm105,0H903.26V830H799.18V799.85Zm105,0h104.09V830H904.18V799.85Zm105,0h104.08V830H1009.19V799.85Zm105,0h104.09V830H1114.19V799.85Zm105,0h104.08V830H1219.2V799.85Zm105,0h104.09V830H1324.2V799.85Zm105,0h104.08V830H1429.21V799.85Zm105,0H1638.3V830H1534.21V799.85Zm105,0h104.09V830H1639.22V799.85Zm105,0h104.09V830H1744.22V799.85ZM746.67,768.73H850.76v30.2H746.67v-30.2Zm105,0H955.76v30.2H851.68v-30.2Zm105,0h104.09v30.2H956.68v-30.2Zm105,0h104.09v30.2H1061.69v-30.2Zm105,0h104.09v30.2H1166.69v-30.2Zm105,0h104.09v30.2H1271.7v-30.2Zm105,0h104.09v30.2H1376.7v-30.2Zm105,0H1585.8v30.2H1481.71v-30.2Zm105,0H1690.8v30.2H1586.72v-30.2Zm105,0h104.09v30.2H1691.72v-30.2ZM694.17,737.62H798.26v30.2H694.17v-30.2Zm105,0H903.26v30.2H799.18v-30.2Zm105,0h104.09v30.2H904.18v-30.2Zm105,0h104.08v30.2H1009.19v-30.2Zm105,0h104.09v30.2H1114.19v-30.2Zm105,0h104.08v30.2H1219.2v-30.2Zm105,0h104.09v30.2H1324.2v-30.2Zm105,0h104.08v30.2H1429.21v-30.2Zm105,0H1638.3v30.2H1534.21v-30.2Zm105,0h104.09v30.2H1639.22v-30.2Zm105,0h104.09v30.2H1744.22v-30.2ZM746.67,706.51H850.76V736.7H746.67V706.51Zm105,0H955.76V736.7H851.68V706.51Zm105,0h104.09V736.7H956.68V706.51Zm105,0h104.09V736.7H1061.69V706.51Zm105,0h104.09V736.7H1166.69V706.51Zm105,0h104.09V736.7H1271.7V706.51Zm105,0h104.09V736.7H1376.7V706.51Zm105,0H1585.8V736.7H1481.71V706.51Zm105,0H1690.8V736.7H1586.72V706.51Zm105,0h104.09V736.7H1691.72V706.51ZM694.17,675.4H798.26v30.19H694.17V675.4Zm105,0H903.26v30.19H799.18V675.4Zm105,0h104.09v30.19H904.18V675.4Zm105,0h104.08v30.19H1009.19V675.4Zm105,0h104.09v30.19H1114.19V675.4Zm105,0h104.08v30.19H1219.2V675.4Zm105,0h104.09v30.19H1324.2V675.4Zm105,0h104.08v30.19H1429.21V675.4Zm105,0H1638.3v30.19H1534.21V675.4Zm105,0h104.09v30.19H1639.22V675.4Zm105,0h104.09v30.19H1744.22V675.4ZM746.67,644.28H850.76v30.2H746.67v-30.2Zm105,0H955.76v30.2H851.68v-30.2Zm105,0h104.09v30.2H956.68v-30.2Zm105,0h104.09v30.2H1061.69v-30.2Zm105,0h104.09v30.2H1166.69v-30.2Zm105,0h104.09v30.2H1271.7v-30.2Zm105,0h104.09v30.2H1376.7v-30.2Zm105,0H1585.8v30.2H1481.71v-30.2Zm105,0H1690.8v30.2H1586.72v-30.2Zm105,0h104.09v30.2H1691.72v-30.2ZM694.17,613.17H798.26v30.2H694.17v-30.2Zm105,0H903.26v30.2H799.18v-30.2Zm105,0h104.09v30.2H904.18v-30.2Zm105,0h104.08v30.2H1009.19v-30.2Zm105,0h104.09v30.2H1114.19v-30.2Zm105,0h104.08v30.2H1219.2v-30.2Zm105,0h104.09v30.2H1324.2v-30.2Zm105,0h104.08v30.2H1429.21v-30.2Zm105,0H1638.3v30.2H1534.21v-30.2Zm105,0h104.09v30.2H1639.22v-30.2Zm105,0h104.09v30.2H1744.22v-30.2ZM746.67,582.06H850.76v30.19H746.67V582.06Zm105,0H955.76v30.19H851.68V582.06Zm105,0h104.09v30.19H956.68V582.06Zm105,0h104.09v30.19H1061.69V582.06Zm105,0h104.09v30.19H1166.69V582.06Zm105,0h104.09v30.19H1271.7V582.06Zm105,0h104.09v30.19H1376.7V582.06Zm105,0H1585.8v30.19H1481.71V582.06Zm105,0H1690.8v30.19H1586.72V582.06Zm105,0h104.09v30.19H1691.72V582.06ZM694.17,551H798.26v30.19H694.17V551Zm105,0H903.26v30.19H799.18V551Zm105,0h104.09v30.19H904.18V551Zm105,0h104.08v30.19H1009.19V551Zm105,0h104.09v30.19H1114.19V551Zm105,0h104.08v30.19H1219.2V551Zm105,0h104.09v30.19H1324.2V551Zm105,0h104.08v30.19H1429.21V551Zm105,0H1638.3v30.19H1534.21V551Zm105,0h104.09v30.19H1639.22V551Zm105,0h104.09v30.19H1744.22V551ZM746.67,519.83H850.76V550H746.67v-30.2Zm105,0H955.76V550H851.68v-30.2Zm105,0h104.09V550H956.68v-30.2Zm105,0h104.09V550H1061.69v-30.2Zm105,0h104.09V550H1166.69v-30.2Zm105,0h104.09V550H1271.7v-30.2Zm105,0h104.09V550H1376.7v-30.2Zm105,0H1585.8V550H1481.71v-30.2Zm105,0H1690.8V550H1586.72v-30.2Zm105,0h104.09V550H1691.72v-30.2ZM694.17,488.72H798.26v30.2H694.17v-30.2Zm105,0H903.26v30.2H799.18v-30.2Zm105,0h104.09v30.2H904.18v-30.2Zm105,0h104.08v30.2H1009.19v-30.2Zm105,0h104.09v30.2H1114.19v-30.2Zm105,0h104.08v30.2H1219.2v-30.2Zm105,0h104.09v30.2H1324.2v-30.2Zm105,0h104.08v30.2H1429.21v-30.2Zm105,0H1638.3v30.2H1534.21v-30.2Zm105,0h104.09v30.2H1639.22v-30.2Zm105,0h104.09v30.2H1744.22v-30.2ZM746.67,457.61H850.76V487.8H746.67V457.61Zm105,0H955.76V487.8H851.68V457.61Zm105,0h104.09V487.8H956.68V457.61Zm105,0h104.09V487.8H1061.69V457.61Zm105,0h104.09V487.8H1166.69V457.61Zm105,0h104.09V487.8H1271.7V457.61Zm105,0h104.09V487.8H1376.7V457.61Zm105,0H1585.8V487.8H1481.71V457.61Zm105,0H1690.8V487.8H1586.72V457.61Zm105,0h104.09V487.8H1691.72Z"/><path class="cls-57" d="M-472.07,1657.1h.92v-17.22h104.08v17.22h.92v-17.22h104.09v17.22h.92v-17.22h104.08v17.22h.92v-17.22H-52v17.22h.92v-17.22H53v17.22h.92v-17.22H158v17.22h.92v-17.22H263v17.22h.91v-17.22H368v17.22h.92v-17.22H473v17.22h.91v-17.22H578v17.22h.92v-17.22h83.32V1639H631.4v-30.19h30.82v-.92H578.9v-30.19h83.32v-.92H631.4v-30.2h30.82v-.91H578.9v-30.2h83.32v-.92H631.4v-30.19h30.82v-.92H578.9v-30.19h83.32v-.92H631.4v-30.2h30.82v-.92H578.9V1391h83.32v-.92H631.4v-30.19h30.82V1359H578.9v-30.19h83.32v-.92H631.4v-30.2h30.82v-.92H578.9v-30.19h83.32v-.92H631.4v-30.19h30.82v-.92H578.9v-30.19h83.32v-.92H631.4v-30.2h30.82v-.92H578.9v-30.19h83.32v-.92H631.4V1111h30.82v-.92H578.9v-30.19h83.32v-.92H631.4v-30.19h30.82v-.92H578.9v-30.2h83.32v-.92H631.4V986.52h30.82v-.92H578.9V955.41h83.32v-.92H631.4V924.3h30.82v-.92H578.9v-30.2h83.32v-.92H631.4V862.07h30.82v-.92H578.9V831h83.32V830H631.4V799.85h30.82v-.92H578.9v-30.2h83.32v-.91H631.4v-30.2h30.82v-.92H578.9V706.51h83.32v-.92H631.4V675.4h30.82v-.92H578.9v-30.2h83.32v-.91H631.4v-30.2h30.82v-.92H578.9V582.06h83.32v-.92H631.4V551h30.82V550H578.9v-30.2h83.32v-.91H631.4v-30.2h30.82v-.92H578.9V457.61h83.32v-.92H631.4V439.48h-.92v17.21H526.4V439.48h-.92v17.21H421.39V439.48h-.92v17.21H316.39V439.48h-.92v17.21H211.38V439.48h-.92v17.21H106.37V439.48h-.91v17.21H1.37V439.48H.45v17.21H-103.63V439.48h-.92v17.21H-208.64V439.48h-.92v17.21H-313.65V439.48h-.91v17.21H-418.65V439.48h-.92v17.21H-523.66V439.48h-.91v17.21H-555.4v.92h83.33V487.8H-555.4v.92h30.83v30.2H-555.4v.91h83.33V550H-555.4V551h30.83v30.19H-555.4v.92h83.33v30.19H-555.4v.92h30.83v30.2H-555.4v.91h83.33v30.2H-555.4v.92h30.83v30.19H-555.4v.92h83.33V736.7H-555.4v.92h30.83v30.2H-555.4v.91h83.33v30.2H-555.4v.92h30.83V830H-555.4V831h83.33v30.19H-555.4v.92h30.83v30.19H-555.4v.92h83.33v30.2H-555.4v.92h30.83v30.19H-555.4v.92h83.33V985.6H-555.4v.92h30.83v30.19H-555.4v.92h83.33v30.2H-555.4v.92h30.83v30.19H-555.4v.92h83.33v30.19H-555.4v.92h30.83v30.19H-555.4v.92h83.33v30.19H-555.4v.92h30.83v30.2H-555.4v.92h83.33v30.19H-555.4v.92h30.83v30.19H-555.4v.92h83.33v30.19H-555.4v.92h30.83v30.2H-555.4v.92h83.33V1359H-555.4v.92h30.83v30.19H-555.4v.92h83.33v30.19H-555.4v.92h30.83v30.2H-555.4v.92h83.33v30.19H-555.4v.92h30.83v30.19H-555.4v.92h83.33v30.2H-555.4v.91h30.83v30.2H-555.4v.92h83.33v30.19H-555.4v.92h30.83V1639H-555.4v.92h83.33v17.22Zm-51.59-48.33h104.09V1639H-523.66v-30.19Zm105,0h104.09V1639H-418.65v-30.19Zm105,0h104.09V1639H-313.65v-30.19Zm105,0h104.09V1639H-208.64v-30.19Zm105,0H.45V1639H-103.63v-30.19Zm105,0H105.46V1639H1.37v-30.19Zm105,0H210.46V1639H106.37v-30.19Zm105,0H315.47V1639H211.38v-30.19Zm105,0H420.47V1639H316.39v-30.19Zm105,0H525.48V1639H421.39v-30.19Zm105,0H630.48V1639H526.4v-30.19Zm-997.55-31.11h104.08v30.19H-471.15v-30.19Zm105,0h104.09v30.19H-366.15v-30.19Zm105,0h104.08v30.19H-261.14v-30.19Zm105,0H-52v30.19H-156.14v-30.19Zm105,0H53v30.19H-51.13v-30.19Zm105,0H158v30.19H53.87v-30.19Zm105,0H263v30.19H158.88v-30.19Zm105,0H368v30.19H263.88v-30.19Zm105,0H473v30.19H368.89v-30.19Zm105,0H578v30.19H473.89v-30.19Zm-997.55-31.12h104.09v30.2H-523.66v-30.2Zm105,0h104.09v30.2H-418.65v-30.2Zm105,0h104.09v30.2H-313.65v-30.2Zm105,0h104.09v30.2H-208.64v-30.2Zm105,0H.45v30.2H-103.63v-30.2Zm105,0H105.46v30.2H1.37v-30.2Zm105,0H210.46v30.2H106.37v-30.2Zm105,0H315.47v30.2H211.38v-30.2Zm105,0H420.47v30.2H316.39v-30.2Zm105,0H525.48v30.2H421.39v-30.2Zm105,0H630.48v30.2H526.4v-30.2Zm-997.55-31.11h104.08v30.2H-471.15v-30.2Zm105,0h104.09v30.2H-366.15v-30.2Zm105,0h104.08v30.2H-261.14v-30.2Zm105,0H-52v30.2H-156.14v-30.2Zm105,0H53v30.2H-51.13v-30.2Zm105,0H158v30.2H53.87v-30.2Zm105,0H263v30.2H158.88v-30.2Zm105,0H368v30.2H263.88v-30.2Zm105,0H473v30.2H368.89v-30.2Zm105,0H578v30.2H473.89v-30.2Zm-997.55-31.11h104.09v30.19H-523.66v-30.19Zm105,0h104.09v30.19H-418.65v-30.19Zm105,0h104.09v30.19H-313.65v-30.19Zm105,0h104.09v30.19H-208.64v-30.19Zm105,0H.45v30.19H-103.63v-30.19Zm105,0H105.46v30.19H1.37v-30.19Zm105,0H210.46v30.19H106.37v-30.19Zm105,0H315.47v30.19H211.38v-30.19Zm105,0H420.47v30.19H316.39v-30.19Zm105,0H525.48v30.19H421.39v-30.19Zm105,0H630.48v30.19H526.4v-30.19Zm-997.55-31.11h104.08v30.19H-471.15v-30.19Zm105,0h104.09v30.19H-366.15v-30.19Zm105,0h104.08v30.19H-261.14v-30.19Zm105,0H-52v30.19H-156.14v-30.19Zm105,0H53v30.19H-51.13v-30.19Zm105,0H158v30.19H53.87v-30.19Zm105,0H263v30.19H158.88v-30.19Zm105,0H368v30.19H263.88v-30.19Zm105,0H473v30.19H368.89v-30.19Zm105,0H578v30.19H473.89v-30.19Zm-997.55-31.12h104.09v30.2H-523.66v-30.2Zm105,0h104.09v30.2H-418.65v-30.2Zm105,0h104.09v30.2H-313.65v-30.2Zm105,0h104.09v30.2H-208.64v-30.2Zm105,0H.45v30.2H-103.63v-30.2Zm105,0H105.46v30.2H1.37v-30.2Zm105,0H210.46v30.2H106.37v-30.2Zm105,0H315.47v30.2H211.38v-30.2Zm105,0H420.47v30.2H316.39v-30.2Zm105,0H525.48v30.2H421.39v-30.2Zm105,0H630.48v30.2H526.4v-30.2ZM-471.15,1391h104.08v30.19H-471.15V1391Zm105,0h104.09v30.19H-366.15V1391Zm105,0h104.08v30.19H-261.14V1391Zm105,0H-52v30.19H-156.14V1391Zm105,0H53v30.19H-51.13V1391Zm105,0H158v30.19H53.87V1391Zm105,0H263v30.19H158.88V1391Zm105,0H368v30.19H263.88V1391Zm105,0H473v30.19H368.89V1391Zm105,0H578v30.19H473.89V1391Zm-997.55-31.11h104.09v30.19H-523.66v-30.19Zm105,0h104.09v30.19H-418.65v-30.19Zm105,0h104.09v30.19H-313.65v-30.19Zm105,0h104.09v30.19H-208.64v-30.19Zm105,0H.45v30.19H-103.63v-30.19Zm105,0H105.46v30.19H1.37v-30.19Zm105,0H210.46v30.19H106.37v-30.19Zm105,0H315.47v30.19H211.38v-30.19Zm105,0H420.47v30.19H316.39v-30.19Zm105,0H525.48v30.19H421.39v-30.19Zm105,0H630.48v30.19H526.4v-30.19Zm-997.55-31.11h104.08V1359H-471.15v-30.19Zm105,0h104.09V1359H-366.15v-30.19Zm105,0h104.08V1359H-261.14v-30.19Zm105,0H-52V1359H-156.14v-30.19Zm105,0H53V1359H-51.13v-30.19Zm105,0H158V1359H53.87v-30.19Zm105,0H263V1359H158.88v-30.19Zm105,0H368V1359H263.88v-30.19Zm105,0H473V1359H368.89v-30.19Zm105,0H578V1359H473.89v-30.19Zm-997.55-31.12h104.09v30.2H-523.66v-30.2Zm105,0h104.09v30.2H-418.65v-30.2Zm105,0h104.09v30.2H-313.65v-30.2Zm105,0h104.09v30.2H-208.64v-30.2Zm105,0H.45v30.2H-103.63v-30.2Zm105,0H105.46v30.2H1.37v-30.2Zm105,0H210.46v30.2H106.37v-30.2Zm105,0H315.47v30.2H211.38v-30.2Zm105,0H420.47v30.2H316.39v-30.2Zm105,0H525.48v30.2H421.39v-30.2Zm105,0H630.48v30.2H526.4v-30.2Zm-997.55-31.11h104.08v30.19H-471.15v-30.19Zm105,0h104.09v30.19H-366.15v-30.19Zm105,0h104.08v30.19H-261.14v-30.19Zm105,0H-52v30.19H-156.14v-30.19Zm105,0H53v30.19H-51.13v-30.19Zm105,0H158v30.19H53.87v-30.19Zm105,0H263v30.19H158.88v-30.19Zm105,0H368v30.19H263.88v-30.19Zm105,0H473v30.19H368.89v-30.19Zm105,0H578v30.19H473.89v-30.19Zm-997.55-31.11h104.09v30.19H-523.66v-30.19Zm105,0h104.09v30.19H-418.65v-30.19Zm105,0h104.09v30.19H-313.65v-30.19Zm105,0h104.09v30.19H-208.64v-30.19Zm105,0H.45v30.19H-103.63v-30.19Zm105,0H105.46v30.19H1.37v-30.19Zm105,0H210.46v30.19H106.37v-30.19Zm105,0H315.47v30.19H211.38v-30.19Zm105,0H420.47v30.19H316.39v-30.19Zm105,0H525.48v30.19H421.39v-30.19Zm105,0H630.48v30.19H526.4v-30.19Zm-997.55-31.11h104.08v30.19H-471.15v-30.19Zm105,0h104.09v30.19H-366.15v-30.19Zm105,0h104.08v30.19H-261.14v-30.19Zm105,0H-52v30.19H-156.14v-30.19Zm105,0H53v30.19H-51.13v-30.19Zm105,0H158v30.19H53.87v-30.19Zm105,0H263v30.19H158.88v-30.19Zm105,0H368v30.19H263.88v-30.19Zm105,0H473v30.19H368.89v-30.19Zm105,0H578v30.19H473.89v-30.19Zm-997.55-31.12h104.09v30.2H-523.66v-30.2Zm105,0h104.09v30.2H-418.65v-30.2Zm105,0h104.09v30.2H-313.65v-30.2Zm105,0h104.09v30.2H-208.64v-30.2Zm105,0H.45v30.2H-103.63v-30.2Zm105,0H105.46v30.2H1.37v-30.2Zm105,0H210.46v30.2H106.37v-30.2Zm105,0H315.47v30.2H211.38v-30.2Zm105,0H420.47v30.2H316.39v-30.2Zm105,0H525.48v30.2H421.39v-30.2Zm105,0H630.48v30.2H526.4v-30.2Zm-997.55-31.11h104.08v30.19H-471.15v-30.19Zm105,0h104.09v30.19H-366.15v-30.19Zm105,0h104.08v30.19H-261.14v-30.19Zm105,0H-52v30.19H-156.14v-30.19Zm105,0H53v30.19H-51.13v-30.19Zm105,0H158v30.19H53.87v-30.19Zm105,0H263v30.19H158.88v-30.19Zm105,0H368v30.19H263.88v-30.19Zm105,0H473v30.19H368.89v-30.19Zm105,0H578v30.19H473.89v-30.19ZM-523.66,1111h104.09v30.19H-523.66V1111Zm105,0h104.09v30.19H-418.65V1111Zm105,0h104.09v30.19H-313.65V1111Zm105,0h104.09v30.19H-208.64V1111Zm105,0H.45v30.19H-103.63V1111Zm105,0H105.46v30.19H1.37V1111Zm105,0H210.46v30.19H106.37V1111Zm105,0H315.47v30.19H211.38V1111Zm105,0H420.47v30.19H316.39V1111Zm105,0H525.48v30.19H421.39V1111Zm105,0H630.48v30.19H526.4V1111Zm-997.55-31.11h104.08v30.19H-471.15v-30.19Zm105,0h104.09v30.19H-366.15v-30.19Zm105,0h104.08v30.19H-261.14v-30.19Zm105,0H-52v30.19H-156.14v-30.19Zm105,0H53v30.19H-51.13v-30.19Zm105,0H158v30.19H53.87v-30.19Zm105,0H263v30.19H158.88v-30.19Zm105,0H368v30.19H263.88v-30.19Zm105,0H473v30.19H368.89v-30.19Zm105,0H578v30.19H473.89v-30.19Zm-997.55-31.11h104.09v30.19H-523.66v-30.19Zm105,0h104.09v30.19H-418.65v-30.19Zm105,0h104.09v30.19H-313.65v-30.19Zm105,0h104.09v30.19H-208.64v-30.19Zm105,0H.45v30.19H-103.63v-30.19Zm105,0H105.46v30.19H1.37v-30.19Zm105,0H210.46v30.19H106.37v-30.19Zm105,0H315.47v30.19H211.38v-30.19Zm105,0H420.47v30.19H316.39v-30.19Zm105,0H525.48v30.19H421.39v-30.19Zm105,0H630.48v30.19H526.4v-30.19Zm-997.55-31.12h104.08v30.2H-471.15v-30.2Zm105,0h104.09v30.2H-366.15v-30.2Zm105,0h104.08v30.2H-261.14v-30.2Zm105,0H-52v30.2H-156.14v-30.2Zm105,0H53v30.2H-51.13v-30.2Zm105,0H158v30.2H53.87v-30.2Zm105,0H263v30.2H158.88v-30.2Zm105,0H368v30.2H263.88v-30.2Zm105,0H473v30.2H368.89v-30.2Zm105,0H578v30.2H473.89v-30.2Zm-997.55-31.11h104.09v30.19H-523.66V986.52Zm105,0h104.09v30.19H-418.65V986.52Zm105,0h104.09v30.19H-313.65V986.52Zm105,0h104.09v30.19H-208.64V986.52Zm105,0H.45v30.19H-103.63V986.52Zm105,0H105.46v30.19H1.37V986.52Zm105,0H210.46v30.19H106.37V986.52Zm105,0H315.47v30.19H211.38V986.52Zm105,0H420.47v30.19H316.39V986.52Zm105,0H525.48v30.19H421.39V986.52Zm105,0H630.48v30.19H526.4V986.52Zm-997.55-31.11h104.08V985.6H-471.15V955.41Zm105,0h104.09V985.6H-366.15V955.41Zm105,0h104.08V985.6H-261.14V955.41Zm105,0H-52V985.6H-156.14V955.41Zm105,0H53V985.6H-51.13V955.41Zm105,0H158V985.6H53.87V955.41Zm105,0H263V985.6H158.88V955.41Zm105,0H368V985.6H263.88V955.41Zm105,0H473V985.6H368.89V955.41Zm105,0H578V985.6H473.89V955.41ZM-523.66,924.3h104.09v30.19H-523.66V924.3Zm105,0h104.09v30.19H-418.65V924.3Zm105,0h104.09v30.19H-313.65V924.3Zm105,0h104.09v30.19H-208.64V924.3Zm105,0H.45v30.19H-103.63V924.3Zm105,0H105.46v30.19H1.37V924.3Zm105,0H210.46v30.19H106.37V924.3Zm105,0H315.47v30.19H211.38V924.3Zm105,0H420.47v30.19H316.39V924.3Zm105,0H525.48v30.19H421.39V924.3Zm105,0H630.48v30.19H526.4V924.3Zm-997.55-31.12h104.08v30.2H-471.15v-30.2Zm105,0h104.09v30.2H-366.15v-30.2Zm105,0h104.08v30.2H-261.14v-30.2Zm105,0H-52v30.2H-156.14v-30.2Zm105,0H53v30.2H-51.13v-30.2Zm105,0H158v30.2H53.87v-30.2Zm105,0H263v30.2H158.88v-30.2Zm105,0H368v30.2H263.88v-30.2Zm105,0H473v30.2H368.89v-30.2Zm105,0H578v30.2H473.89v-30.2Zm-997.55-31.11h104.09v30.19H-523.66V862.07Zm105,0h104.09v30.19H-418.65V862.07Zm105,0h104.09v30.19H-313.65V862.07Zm105,0h104.09v30.19H-208.64V862.07Zm105,0H.45v30.19H-103.63V862.07Zm105,0H105.46v30.19H1.37V862.07Zm105,0H210.46v30.19H106.37V862.07Zm105,0H315.47v30.19H211.38V862.07Zm105,0H420.47v30.19H316.39V862.07Zm105,0H525.48v30.19H421.39V862.07Zm105,0H630.48v30.19H526.4V862.07ZM-471.15,831h104.08v30.19H-471.15V831Zm105,0h104.09v30.19H-366.15V831Zm105,0h104.08v30.19H-261.14V831Zm105,0H-52v30.19H-156.14V831Zm105,0H53v30.19H-51.13V831Zm105,0H158v30.19H53.87V831Zm105,0H263v30.19H158.88V831Zm105,0H368v30.19H263.88V831Zm105,0H473v30.19H368.89V831Zm105,0H578v30.19H473.89V831Zm-997.55-31.11h104.09V830H-523.66V799.85Zm105,0h104.09V830H-418.65V799.85Zm105,0h104.09V830H-313.65V799.85Zm105,0h104.09V830H-208.64V799.85Zm105,0H.45V830H-103.63V799.85Zm105,0H105.46V830H1.37V799.85Zm105,0H210.46V830H106.37V799.85Zm105,0H315.47V830H211.38V799.85Zm105,0H420.47V830H316.39V799.85Zm105,0H525.48V830H421.39V799.85Zm105,0H630.48V830H526.4V799.85Zm-997.55-31.12h104.08v30.2H-471.15v-30.2Zm105,0h104.09v30.2H-366.15v-30.2Zm105,0h104.08v30.2H-261.14v-30.2Zm105,0H-52v30.2H-156.14v-30.2Zm105,0H53v30.2H-51.13v-30.2Zm105,0H158v30.2H53.87v-30.2Zm105,0H263v30.2H158.88v-30.2Zm105,0H368v30.2H263.88v-30.2Zm105,0H473v30.2H368.89v-30.2Zm105,0H578v30.2H473.89v-30.2Zm-997.55-31.11h104.09v30.2H-523.66v-30.2Zm105,0h104.09v30.2H-418.65v-30.2Zm105,0h104.09v30.2H-313.65v-30.2Zm105,0h104.09v30.2H-208.64v-30.2Zm105,0H.45v30.2H-103.63v-30.2Zm105,0H105.46v30.2H1.37v-30.2Zm105,0H210.46v30.2H106.37v-30.2Zm105,0H315.47v30.2H211.38v-30.2Zm105,0H420.47v30.2H316.39v-30.2Zm105,0H525.48v30.2H421.39v-30.2Zm105,0H630.48v30.2H526.4v-30.2Zm-997.55-31.11h104.08V736.7H-471.15V706.51Zm105,0h104.09V736.7H-366.15V706.51Zm105,0h104.08V736.7H-261.14V706.51Zm105,0H-52V736.7H-156.14V706.51Zm105,0H53V736.7H-51.13V706.51Zm105,0H158V736.7H53.87V706.51Zm105,0H263V736.7H158.88V706.51Zm105,0H368V736.7H263.88V706.51Zm105,0H473V736.7H368.89V706.51Zm105,0H578V736.7H473.89V706.51ZM-523.66,675.4h104.09v30.19H-523.66V675.4Zm105,0h104.09v30.19H-418.65V675.4Zm105,0h104.09v30.19H-313.65V675.4Zm105,0h104.09v30.19H-208.64V675.4Zm105,0H.45v30.19H-103.63V675.4Zm105,0H105.46v30.19H1.37V675.4Zm105,0H210.46v30.19H106.37V675.4Zm105,0H315.47v30.19H211.38V675.4Zm105,0H420.47v30.19H316.39V675.4Zm105,0H525.48v30.19H421.39V675.4Zm105,0H630.48v30.19H526.4V675.4Zm-997.55-31.12h104.08v30.2H-471.15v-30.2Zm105,0h104.09v30.2H-366.15v-30.2Zm105,0h104.08v30.2H-261.14v-30.2Zm105,0H-52v30.2H-156.14v-30.2Zm105,0H53v30.2H-51.13v-30.2Zm105,0H158v30.2H53.87v-30.2Zm105,0H263v30.2H158.88v-30.2Zm105,0H368v30.2H263.88v-30.2Zm105,0H473v30.2H368.89v-30.2Zm105,0H578v30.2H473.89v-30.2Zm-997.55-31.11h104.09v30.2H-523.66v-30.2Zm105,0h104.09v30.2H-418.65v-30.2Zm105,0h104.09v30.2H-313.65v-30.2Zm105,0h104.09v30.2H-208.64v-30.2Zm105,0H.45v30.2H-103.63v-30.2Zm105,0H105.46v30.2H1.37v-30.2Zm105,0H210.46v30.2H106.37v-30.2Zm105,0H315.47v30.2H211.38v-30.2Zm105,0H420.47v30.2H316.39v-30.2Zm105,0H525.48v30.2H421.39v-30.2Zm105,0H630.48v30.2H526.4v-30.2Zm-997.55-31.11h104.08v30.19H-471.15V582.06Zm105,0h104.09v30.19H-366.15V582.06Zm105,0h104.08v30.19H-261.14V582.06Zm105,0H-52v30.19H-156.14V582.06Zm105,0H53v30.19H-51.13V582.06Zm105,0H158v30.19H53.87V582.06Zm105,0H263v30.19H158.88V582.06Zm105,0H368v30.19H263.88V582.06Zm105,0H473v30.19H368.89V582.06Zm105,0H578v30.19H473.89V582.06ZM-523.66,551h104.09v30.19H-523.66V551Zm105,0h104.09v30.19H-418.65V551Zm105,0h104.09v30.19H-313.65V551Zm105,0h104.09v30.19H-208.64V551Zm105,0H.45v30.19H-103.63V551Zm105,0H105.46v30.19H1.37V551Zm105,0H210.46v30.19H106.37V551Zm105,0H315.47v30.19H211.38V551Zm105,0H420.47v30.19H316.39V551Zm105,0H525.48v30.19H421.39V551Zm105,0H630.48v30.19H526.4V551Zm-997.55-31.12h104.08V550H-471.15v-30.2Zm105,0h104.09V550H-366.15v-30.2Zm105,0h104.08V550H-261.14v-30.2Zm105,0H-52V550H-156.14v-30.2Zm105,0H53V550H-51.13v-30.2Zm105,0H158V550H53.87v-30.2Zm105,0H263V550H158.88v-30.2Zm105,0H368V550H263.88v-30.2Zm105,0H473V550H368.89v-30.2Zm105,0H578V550H473.89v-30.2Zm-997.55-31.11h104.09v30.2H-523.66v-30.2Zm105,0h104.09v30.2H-418.65v-30.2Zm105,0h104.09v30.2H-313.65v-30.2Zm105,0h104.09v30.2H-208.64v-30.2Zm105,0H.45v30.2H-103.63v-30.2Zm105,0H105.46v30.2H1.37v-30.2Zm105,0H210.46v30.2H106.37v-30.2Zm105,0H315.47v30.2H211.38v-30.2Zm105,0H420.47v30.2H316.39v-30.2Zm105,0H525.48v30.2H421.39v-30.2Zm105,0H630.48v30.2H526.4v-30.2Zm-997.55-31.11h104.08V487.8H-471.15V457.61Zm105,0h104.09V487.8H-366.15V457.61Zm105,0h104.08V487.8H-261.14V457.61Zm105,0H-52V487.8H-156.14V457.61Zm105,0H53V487.8H-51.13V457.61Zm105,0H158V487.8H53.87V457.61Zm105,0H263V487.8H158.88V457.61Zm105,0H368V487.8H263.88V457.61Zm105,0H473V487.8H368.89V457.61Zm105,0H578V487.8H473.89Z"/></g></g></g></g></svg>