<svg xmlns="http://www.w3.org/2000/svg" viewBox="0 0 14.57 22.18"><defs><style>.cls-1{fill:#fff;}</style></defs><title>Asset 71</title><g id="Layer_2" data-name="Layer 2"><g id="Capa_1" data-name="Capa 1"><path class="cls-1" d="M5.58,9.35H1.72A6.39,6.39,0,0,1,3.4,5.59a6.47,6.47,0,0,1,4.84-2A6.15,6.15,0,0,1,12.6,5.26a5.2,5.2,0,0,1,1.75,3.92,4.58,4.58,0,0,1-.76,2.57,5.59,5.59,0,0,1-2.24,1.88,5.65,5.65,0,0,1,3,2A5.43,5.43,0,0,1,15.44,19a6.33,6.33,0,0,1-2.09,4.81,7.47,7.47,0,0,1-5.34,2,6.93,6.93,0,0,1-5-1.86A7.3,7.3,0,0,1,.88,18.87h4A4,4,0,0,0,6,21.3a3.23,3.23,0,0,0,2.23.8,3.2,3.2,0,0,0,2.34-.91,3,3,0,0,0-.33-4.63,5.8,5.8,0,0,0-3.6-1V12.09a6.17,6.17,0,0,0,2.16-.45,2.66,2.66,0,0,0,1.11-.92,2.24,2.24,0,0,0,.39-1.25A1.88,1.88,0,0,0,9.69,8a2.2,2.2,0,0,0-1.58-.57A2.59,2.59,0,0,0,6.54,8,2.68,2.68,0,0,0,5.58,9.35Z" transform="translate(-0.88 -3.61)"/></g></g></svg>