<svg xmlns="http://www.w3.org/2000/svg" viewBox="0 0 12.91 19.41"><defs><style>.cls-1{fill:#fff;}</style></defs><title>Recurso 6nuevo</title><g id="Capa_2" data-name="Capa 2"><g id="Capa_1-2" data-name="Capa 1"><path class="cls-1" d="M3.78,0h8.87V3.33H6.47L5.7,6.77a5.44,5.44,0,0,1,.63-.13,4.28,4.28,0,0,1,.6,0,5.74,5.74,0,0,1,4.28,1.76,6.21,6.21,0,0,1,1.7,4.5A6.34,6.34,0,0,1,11,17.51a6.18,6.18,0,0,1-4.58,1.9A6.48,6.48,0,0,1,2.28,18,6.4,6.4,0,0,1,0,14.26H3.78a3.37,3.37,0,0,0,1.16,1.35,2.87,2.87,0,0,0,1.57.45,2.72,2.72,0,0,0,2-.86A3.06,3.06,0,0,0,9.38,13a3,3,0,0,0-.78-2.16A2.45,2.45,0,0,0,6.72,10a2.63,2.63,0,0,0-1.17.29,4.42,4.42,0,0,0-1.12.89l-2.94-.65Z"/></g></g></svg>