<svg id="Capa_1" data-name="Capa 1" xmlns="http://www.w3.org/2000/svg" viewBox="0 0 251.99 251.99"><defs><style>.cls-1{fill:#00559c;}</style></defs><title>CANAL-DE-VENTA-CRECER-SEGUROS-AVANCE</title><path class="cls-1" d="M125.5.42A125.57,125.57,0,0,0,1,110.21c33.09,0,119.47,0,142.94,0h3.66c-.91-1-1.46-1.71-2.09-2.33-6-6-12.07-11.89-18-17.91-4.44-4.47-6.16-9.81-4.23-15.93,2.85-9.09,14.36-12.31,22.31-6.33a32.74,32.74,0,0,1,3.39,3.06c13.81,13.79,27.57,27.63,41.42,41.37,3.33,3.31,6.48,6.66,8,11.23v5.14c-1.33,4.55-4.37,7.88-7.65,11.13q-21.18,21-42.22,42.19c-4.14,4.16-8.89,6.61-14.87,5.18a14.35,14.35,0,0,1-7.63-23.5c4.38-5.23,9.58-9.78,14.4-14.66,2.25-2.28,4.47-4.59,7.23-7.42h-3.79c-23.37,0-110.55,0-142.85,0A125.56,125.56,0,1,0,125.5.42Z"/></svg>