<svg xmlns="http://www.w3.org/2000/svg" viewBox="0 0 1941 1099"><defs><style>.cls-1{isolation:isolate;}.cls-2{opacity:0.35;}.cls-3{opacity:0.7;}.cls-4{fill:#ccd3e2;}.cls-5{fill:#e4e7ea;}.cls-15,.cls-21,.cls-22,.cls-24,.cls-29,.cls-31,.cls-5{mix-blend-mode:multiply;}.cls-6{fill:#524f62;}.cls-7{opacity:0.4;}.cls-8{fill:#e54b4e;}.cls-9{fill:#5a90c9;}.cls-10{fill:#fcd36e;}.cls-11{fill:#6dbfd8;}.cls-12{fill:#6b4c94;}.cls-13{fill:#b6c4ce;opacity:0.9;}.cls-14{fill:#94a0a5;}.cls-15{fill:#aba6b1;opacity:0.2;}.cls-16{fill:#1e1e1e;}.cls-17{fill:#00b1de;}.cls-18{fill:#fff;}.cls-19{fill:#0a5696;}.cls-20{fill:#f5b238;}.cls-21,.cls-25{fill:#e0c8c2;}.cls-22{fill:#d6ced9;}.cls-23{fill:#e1e4e7;}.cls-26{fill:#005da4;}.cls-27{fill:#0f202f;}.cls-28{fill:#043355;}.cls-29{fill:#eaded9;}.cls-30{fill:#e59b4d;}.cls-31{fill:#dcdcdc;opacity:0;}.cls-32{fill:#e5e7e8;}.cls-33{fill:#303030;}</style></defs><title>Asset 11</title><g class="cls-1"><g id="Layer_2" data-name="Layer 2"><g id="Capa_1" data-name="Capa 1"><rect class="cls-2" width="1941" height="1099"/><g class="cls-3"><rect class="cls-4" x="583.34" y="125.62" width="775.3" height="463.85"/><rect class="cls-5" x="583.34" y="125.62" width="775.3" height="30.65"/><rect class="cls-5" x="583.34" y="557.92" width="775.3" height="30.65"/><rect class="cls-6" x="572" y="115" width="798" height="29.46"/><rect class="cls-6" x="572" y="570.44" width="798" height="29.46"/><rect class="cls-6" x="698.5" y="588.32" width="10.13" height="318.44"/><rect class="cls-6" x="693.2" y="900.48" width="20.74" height="11.1"/><rect class="cls-6" x="1247.44" y="588.32" width="10.13" height="318.44"/><rect class="cls-6" x="1242.13" y="900.48" width="20.75" height="11.1"/><g class="cls-7"><path class="cls-8" d="M994.66,429.87c-7.54,10.87-36.1,68.41-39.9,74.85a42.41,42.41,0,0,0,39.9-74.85Z"/><path class="cls-9" d="M974.73,467.44c3.59-7.06,18-31.05,21.1-36.92a42.41,42.41,0,1,0-39,75.21S971.4,474,974.73,467.44Z"/><path class="cls-10" d="M974.73,467.23c8.9,0,41.16-.39,42.24-.35,0-25.47-19.47-42.05-42.38-42.05a42.2,42.2,0,0,0-28.52,11C946.49,436.24,969.26,460.56,974.73,467.23Z"/><path class="cls-9" d="M1233.4,466.52v43.35h.1a42.4,42.4,0,0,0,42.4-42.4c0-.32,0-.63,0-1Z"/><path class="cls-6" d="M1233.75,467.23h42.14a42.4,42.4,0,0,0-42.14-42.16Z"/><path class="cls-11" d="M1234,425.08h-.5a42.4,42.4,0,1,0,0,84.8h.5Z"/><path class="cls-10" d="M691.6,467.53v43.36h.1a42.41,42.41,0,0,0,42.4-42.41c0-.32,0-.63,0-1Z"/><path class="cls-6" d="M692,468.25H734.1A42.4,42.4,0,0,0,692,426.08Z"/><path class="cls-11" d="M692.2,426.09h-.5a42.41,42.41,0,1,0,0,84.81h.5Z"/><path class="cls-8" d="M659.87,496.49a42.32,42.32,0,0,0,31.83,14.4h.5V468.24Z"/></g><g class="cls-7"><rect class="cls-12" x="890.24" y="232.42" width="29.11" height="140.73"/><rect class="cls-6" x="1036.16" y="232.42" width="29.12" height="140.73"/><rect class="cls-10" x="926.72" y="289.27" width="29.12" height="83.88"/><rect class="cls-9" x="963.19" y="208.85" width="29.12" height="164.3"/><rect class="cls-8" x="999.68" y="341.26" width="29.12" height="31.89"/><rect class="cls-6" x="872.39" y="182.37" width="5.2" height="201.04"/><rect class="cls-6" x="863.19" y="370.41" width="219.53" height="5.2"/></g></g><rect class="cls-13" x="5.01" y="941.45" width="1928.89" height="147.17"/><rect class="cls-14" x="0.35" y="924.8" width="1937.38" height="20.65"/><ellipse class="cls-15" cx="280.2" cy="1001.92" rx="220.48" ry="26.83"/><ellipse class="cls-15" cx="1594.2" cy="1003.92" rx="220.48" ry="26.83"/><path class="cls-16" d="M1664.87,320.54s0,7.38,17.08,68.87c6.26,22.46-13.07,43.73-35,51.18-7.28,2.47-68.23,10-103.49-16.52-7.2-5.41-27.31-27.63-8-71.89,12.49-28.68-3.42-97.76,57.72-87.61S1664.87,320.54,1664.87,320.54Z"/><circle class="cls-17" cx="1602.58" cy="334.95" r="57.35"/><path class="cls-16" d="M1580.2,280.35c-.18,3.14,2.14,7.55,3.3,10.32a66.12,66.12,0,0,0,14.21,21.3,63.2,63.2,0,0,0,23.82,14.77c13.73,4.77,29,6.73,41.38-2.26,2.11-12.29-1-40.26-20-53.4S1582,248.71,1580.2,280.35Z"/><path class="cls-18" d="M1662.88,619.19c9.95-37.18,12-206.81,4.12-211.72-13.06-8.17-107.19-14-124.31,3.1-6.17,6.17-5.57,158.7-1,206.43Z"/><path class="cls-17" d="M1540,986.88l40.32.33,23.92-303.92,7,32,8.7,272,40.13-.33c2.48-37.17,14.22-225.24,24.83-314.4,3.66-30.76-1.23-60.24-1.23-60.24l-79,5.19-81.15-3.55s-2.59,33.12.92,56.56C1535.62,744.42,1539.16,948,1540,986.88Z"/><path class="cls-19" d="M1525,822.75h159c3.79-61.67,1.38-118.27,3.26-141.92,3.53-44.36-3.55-68.59-3.55-68.59l-160.15,1.87s-3.18,6.69-1,61.89C1523.47,697.82,1522.24,758.09,1525,822.75Z"/><path class="cls-20" d="M1673.85,559.46c-9.18-31.73,6-67.12,6.14-87.69.29-32.8-7.65-54.83-11.68-63.86-3.55-8-29.13-6.34-42.33-8.1,0,0-14.63,187-3.22,218.21,3.86,10.54,61-5.12,61-5.12S1688.49,610.12,1673.85,559.46Z"/><path class="cls-21" d="M1657.22,605.56c-7,1-14.67,2-20.7-2.65-6.57-5-8.39-15-8.92-22.63-.83-12.16.23-24.38-.25-36.56-1.08-26.45,1.66-135.66,1-143.64-.84-.08-1.66-.17-2.41-.27,0,0-14.63,187-3.22,218.21,3.86,10.54,61-5.12,61-5.12s1.65-1-.07-12.4C1675.2,603.39,1666.12,604.29,1657.22,605.56Z"/><path class="cls-20" d="M1589.2,399.79c-31-.05-41.17,5.34-45.58,9.92-6,6.28-12.66,35.12-9.74,60,3,25.52,3.56,64.07-3.51,89.59-9.62,34.77-7.89,56.22-7.89,56.22s51.59,11.22,60.76,1.61S1590.53,408,1589.2,399.79Z"/><path class="cls-21" d="M1589.2,399.79c-.68,0-4-.06-4.65-.05v3.85c-.1,28.94-1.59,54.33-1.75,83.27-.15,27.69,3.43,58.87,1.55,86.51-.61,9-.72,21.64-6.4,29.21-4,5.27-10.35,8-16.63,9.44-11.86,2.65-27.59,2.87-38.93-3.27-.1,4.41.09,6.78.09,6.78s51.59,11.22,60.76,1.61S1590.53,408,1589.2,399.79Z"/><path class="cls-22" d="M1683.8,612.9l-12.72,3.22c3.06,21,3.07,79.26-7,155.2-1.24,9.28-4.1,19.31-9.13,27.38-4.8,7.7-11.73,10.67-20.6,11.12-14.63.72-103.8,1.27-109.87-1.29.23,4.81.45,9.57.64,14.22h159c3.79-61.67,1.38-118.27,3.26-141.92C1690.84,636.47,1683.8,612.9,1683.8,612.9Z"/><rect class="cls-17" x="1484.21" y="607.17" width="24.76" height="40.75" rx="12.38" transform="translate(241.35 -401.03) rotate(16.58)"/><polygon class="cls-23" points="1510.04 627.88 1511.85 622.89 1486.37 615.51 1485.1 620.46 1510.04 627.88"/><path class="cls-20" d="M1512.92,623.31l33-158.17,14-30.75c13.45-16.87,7.06-31.95-2.1-31.58-12.56.5-19.48,6.41-25.78,17.92-25.12,45.87-47.2,194.92-47.2,194.92C1484.39,617.81,1511.8,625.12,1512.92,623.31Z"/><g class="cls-24"><path class="cls-25" d="M1485.63,610.07c4.56,1.11,9,2.75,13.79,2.6,4.37-.15,5.87-3.43,6.69-7.28,3.28-15.11,17.63-78,22.37-95,4.26-15.15,7.3-30.27,16.7-42.31l-32.26,155.21c-1.12,1.81-28.53-5.5-28.14-7.66C1484.78,615.65,1485.07,613.65,1485.63,610.07Z"/></g><polygon class="cls-18" points="1630.88 607.5 1529.5 609 1533.79 456.13 1635.62 458 1630.88 607.5"/><path class="cls-17" d="M1559.14,525.8a5.79,5.79,0,1,1,5.79,5.79,5.79,5.79,0,0,1-5.79-5.79"/><path class="cls-18" d="M1564.46,528.33c0-.78,0-1.88,0-2.53s0-1.76,0-2.55a2.64,2.64,0,0,0,0,5.08m1,.29a1.4,1.4,0,0,0,.09.55c.15.22.57.2.57.2v.1c-.52,0-.69-.06-1.15-.05s-.64.08-1.15.05v-.1s.41,0,.56-.2a1.56,1.56,0,0,0,.1-.55,2.84,2.84,0,0,1,0-5.68,1.37,1.37,0,0,0-.09-.5c-.15-.23-.56-.21-.56-.21v-.1c.51,0,.68.06,1.15,0s.63-.07,1.15,0v.1s-.42,0-.57.21a1.37,1.37,0,0,0-.09.5,2.84,2.84,0,0,1,0,5.68m-.08-2.82c0,.65,0,1.75.06,2.53a2.64,2.64,0,0,0,0-5.08c-.05.79-.06,1.9-.06,2.55"/><path class="cls-17" d="M1574.85,528.46a1.09,1.09,0,0,0-.63-.17,1.55,1.55,0,0,0-.31,0,.79.79,0,0,0-.27.1.5.5,0,0,0-.19.19.59.59,0,0,0-.07.29.36.36,0,0,0,.1.26.7.7,0,0,0,.28.17,2.9,2.9,0,0,0,.38.11l.44.09a3,3,0,0,1,.43.12,1.17,1.17,0,0,1,.39.18.94.94,0,0,1,.27.29.84.84,0,0,1,.1.44.82.82,0,0,1-.13.48,1,1,0,0,1-.34.33,1.5,1.5,0,0,1-.47.19,3.05,3.05,0,0,1-.52.05,2.27,2.27,0,0,1-.59-.07,1.48,1.48,0,0,1-.49-.23,1.07,1.07,0,0,1-.34-.39,1.19,1.19,0,0,1-.12-.56h.47a.8.8,0,0,0,.09.39.78.78,0,0,0,.24.27,1,1,0,0,0,.35.15,1.84,1.84,0,0,0,.41.05l.34,0a1,1,0,0,0,.3-.1.61.61,0,0,0,.22-.2.53.53,0,0,0,.09-.32.44.44,0,0,0-.11-.3.67.67,0,0,0-.27-.18,1.89,1.89,0,0,0-.38-.12l-.44-.09-.44-.11a1.46,1.46,0,0,1-.38-.17.75.75,0,0,1-.27-.26.76.76,0,0,1-.11-.41.85.85,0,0,1,.12-.46,1,1,0,0,1,.31-.33,1.4,1.4,0,0,1,.43-.19,2.07,2.07,0,0,1,.5-.06,1.79,1.79,0,0,1,.53.07,1.27,1.27,0,0,1,.44.2,1,1,0,0,1,.29.35,1.28,1.28,0,0,1,.12.51h-.47a.74.74,0,0,0-.3-.56"/><path class="cls-17" d="M1578.22,531.37a1.25,1.25,0,0,1-.77.22,1.4,1.4,0,0,1-.56-.1,1.15,1.15,0,0,1-.4-.28,1.07,1.07,0,0,1-.24-.43,1.57,1.57,0,0,1-.09-.54,1.53,1.53,0,0,1,.09-.54,1.29,1.29,0,0,1,.26-.42,1.15,1.15,0,0,1,.41-.28,1.19,1.19,0,0,1,.51-.1,1.11,1.11,0,0,1,.6.14,1.09,1.09,0,0,1,.38.36,1.68,1.68,0,0,1,.2.48,2.11,2.11,0,0,1,0,.49h-2a.83.83,0,0,0,0,.32.59.59,0,0,0,.15.27.77.77,0,0,0,.27.19.86.86,0,0,0,.38.07.81.81,0,0,0,.46-.12.63.63,0,0,0,.24-.38h.44a1,1,0,0,1-.39.65m-.11-1.66a.73.73,0,0,0-.16-.23,1,1,0,0,0-.24-.15.81.81,0,0,0-.31-.06.76.76,0,0,0-.71.45.88.88,0,0,0-.06.28h1.55a1,1,0,0,0-.07-.29"/><path class="cls-17" d="M1581.14,532.26a1.27,1.27,0,0,1-1,.32,2.58,2.58,0,0,1-.38,0,1.4,1.4,0,0,1-.36-.13.75.75,0,0,1-.26-.24.64.64,0,0,1-.12-.35h.45a.26.26,0,0,0,.07.19.52.52,0,0,0,.17.13.62.62,0,0,0,.23.07.91.91,0,0,0,.23,0,.84.84,0,0,0,.37-.08.67.67,0,0,0,.25-.19.8.8,0,0,0,.14-.31,1.6,1.6,0,0,0,0-.39v-.17h0a.79.79,0,0,1-.35.35,1.21,1.21,0,0,1-.49.11,1.22,1.22,0,0,1-.53-.11,1.08,1.08,0,0,1-.38-.28,1.09,1.09,0,0,1-.23-.41,1.68,1.68,0,0,1-.07-.5,2,2,0,0,1,.06-.47,1.19,1.19,0,0,1,.21-.44,1.16,1.16,0,0,1,.39-.33,1.29,1.29,0,0,1,.59-.12,1,1,0,0,1,.47.1.81.81,0,0,1,.33.33h0V529h.42v2.36a1.27,1.27,0,0,1-.31.94m-.56-1.16a.59.59,0,0,0,.24-.23.84.84,0,0,0,.14-.32,1.49,1.49,0,0,0,0-.36,1.86,1.86,0,0,0,0-.33,1,1,0,0,0-.14-.3.61.61,0,0,0-.24-.21.72.72,0,0,0-.35-.08.81.81,0,0,0-.37.08.72.72,0,0,0-.25.21.87.87,0,0,0-.14.29,1.47,1.47,0,0,0,0,.36,2.16,2.16,0,0,0,0,.35,1.07,1.07,0,0,0,.13.31.63.63,0,0,0,.23.23.7.7,0,0,0,.37.09.76.76,0,0,0,.38-.09"/><path class="cls-17" d="M1583.94,531.53v-.4h0a1,1,0,0,1-.36.35,1.21,1.21,0,0,1-.52.11,1.18,1.18,0,0,1-.45-.07.7.7,0,0,1-.28-.19.62.62,0,0,1-.16-.3,1.48,1.48,0,0,1,0-.38V529h.44v1.74a.49.49,0,0,0,.15.38.57.57,0,0,0,.4.14.88.88,0,0,0,.35-.06.65.65,0,0,0,.25-.17.61.61,0,0,0,.15-.26.8.8,0,0,0,.05-.32V529h.45v2.57Z"/><path class="cls-17" d="M1585.43,529v.54h0a1.14,1.14,0,0,1,.4-.46,1,1,0,0,1,.59-.14v.45a1.25,1.25,0,0,0-.45.07.59.59,0,0,0-.3.2.74.74,0,0,0-.17.33,1.44,1.44,0,0,0,0,.44v1.14H1585V529Z"/><path class="cls-17" d="M1586.61,529.72a1.22,1.22,0,0,1,.25-.43,1.26,1.26,0,0,1,.42-.29,1.4,1.4,0,0,1,.56-.1,1.42,1.42,0,0,1,.57.1,1.22,1.22,0,0,1,.41.29,1.09,1.09,0,0,1,.25.43,1.51,1.51,0,0,1,.09.53,1.55,1.55,0,0,1-.09.53,1.12,1.12,0,0,1-.25.42,1.22,1.22,0,0,1-.41.29,1.42,1.42,0,0,1-.57.1,1.4,1.4,0,0,1-.56-.1,1.17,1.17,0,0,1-.67-.71,1.84,1.84,0,0,1-.08-.53,1.78,1.78,0,0,1,.08-.53m.46.94a.73.73,0,0,0,.18.31.77.77,0,0,0,.27.19.87.87,0,0,0,.32.06.88.88,0,0,0,.33-.06,1,1,0,0,0,.27-.19.73.73,0,0,0,.18-.31,1.3,1.3,0,0,0,.07-.41,1.32,1.32,0,0,0-.07-.42.87.87,0,0,0-.18-.31.8.8,0,0,0-.27-.18.72.72,0,0,0-.33-.07.71.71,0,0,0-.32.07.64.64,0,0,0-.27.18.87.87,0,0,0-.18.31,1.09,1.09,0,0,0-.07.42,1.07,1.07,0,0,0,.07.41"/><path class="cls-17" d="M1590,531a.5.5,0,0,0,.17.15.69.69,0,0,0,.23.09l.26,0h.22a.65.65,0,0,0,.21-.06.33.33,0,0,0,.16-.12.29.29,0,0,0,.06-.19.27.27,0,0,0-.13-.25,1.06,1.06,0,0,0-.32-.14,2.72,2.72,0,0,0-.43-.09,2.7,2.7,0,0,1-.43-.12,1,1,0,0,1-.32-.22.53.53,0,0,1-.13-.39.58.58,0,0,1,.09-.33.72.72,0,0,1,.23-.23,1.2,1.2,0,0,1,.33-.13,1.47,1.47,0,0,1,.36,0,2.77,2.77,0,0,1,.42,0,1.15,1.15,0,0,1,.34.13.82.82,0,0,1,.24.25.93.93,0,0,1,.1.39h-.44a.4.4,0,0,0-.07-.2.43.43,0,0,0-.14-.13.7.7,0,0,0-.2-.08l-.22,0-.2,0a.59.59,0,0,0-.19.05.32.32,0,0,0-.13.1.21.21,0,0,0,0,.16.22.22,0,0,0,.08.18.56.56,0,0,0,.2.12,2,2,0,0,0,.29.08l.31.07.33.08a1.22,1.22,0,0,1,.28.14.64.64,0,0,1,.2.2.62.62,0,0,1,.08.31.67.67,0,0,1-.11.39.69.69,0,0,1-.26.25,1.14,1.14,0,0,1-.38.13,1.84,1.84,0,0,1-.41,0,2,2,0,0,1-.43-.05,1.13,1.13,0,0,1-.36-.14.81.81,0,0,1-.25-.27.86.86,0,0,1-.1-.41h.44a.56.56,0,0,0,.07.24"/><path class="cls-26" d="M1576.59,521.93a1.56,1.56,0,0,0-.31-.37,1.64,1.64,0,0,0-.43-.24,1.43,1.43,0,0,0-.5-.09,1.57,1.57,0,0,0-.81.19,1.5,1.5,0,0,0-.55.51,2.11,2.11,0,0,0-.3.72,3.86,3.86,0,0,0-.09.84,3.59,3.59,0,0,0,.09.81,2.14,2.14,0,0,0,.3.71,1.47,1.47,0,0,0,.55.5,1.57,1.57,0,0,0,.81.19,1.26,1.26,0,0,0,1-.41,1.81,1.81,0,0,0,.45-1.07h1.37a3.24,3.24,0,0,1-.28,1.12,2.75,2.75,0,0,1-.59.85,2.6,2.6,0,0,1-.87.54,3.2,3.2,0,0,1-1.09.18,3.29,3.29,0,0,1-1.33-.26,2.85,2.85,0,0,1-1-.73,3.12,3.12,0,0,1-.62-1.08,4,4,0,0,1-.22-1.35,4.06,4.06,0,0,1,.22-1.37,3.21,3.21,0,0,1,.62-1.1,2.75,2.75,0,0,1,1-.74,3.13,3.13,0,0,1,1.33-.27,3,3,0,0,1,1,.16,2.57,2.57,0,0,1,.85.45,2.4,2.4,0,0,1,.62.75,2.85,2.85,0,0,1,.31,1h-1.37a1.23,1.23,0,0,0-.17-.45"/><path class="cls-26" d="M1580.05,522v.88h0a1.91,1.91,0,0,1,.24-.41,1.78,1.78,0,0,1,.35-.32,1.9,1.9,0,0,1,.43-.21,1.45,1.45,0,0,1,.47-.07,1,1,0,0,1,.28,0v1.22l-.22,0h-.24a1.34,1.34,0,0,0-.6.12,1,1,0,0,0-.39.33,1.23,1.23,0,0,0-.21.48,2.35,2.35,0,0,0-.07.6v2.15h-1.28V522Z"/><path class="cls-26" d="M1583.37,525.62a1.13,1.13,0,0,0,.83.28,1.15,1.15,0,0,0,.67-.19.84.84,0,0,0,.34-.42h1.13a2.17,2.17,0,0,1-.83,1.22,2.35,2.35,0,0,1-1.35.37,2.66,2.66,0,0,1-1-.18,2.17,2.17,0,0,1-.75-.51,2.4,2.4,0,0,1-.47-.79,3,3,0,0,1-.17-1,3,3,0,0,1,.17-1,2.5,2.5,0,0,1,.49-.8,2.31,2.31,0,0,1,.76-.53,2.33,2.33,0,0,1,1-.19,2.23,2.23,0,0,1,1,.23,2.05,2.05,0,0,1,.73.64,2.47,2.47,0,0,1,.41.9,3.38,3.38,0,0,1,.09,1.06h-3.37a1.37,1.37,0,0,0,.32.93m1.45-2.51a.86.86,0,0,0-.7-.26,1.13,1.13,0,0,0-.51.1,1,1,0,0,0-.33.27,1,1,0,0,0-.17.33,2.37,2.37,0,0,0-.06.31h2.09a1.53,1.53,0,0,0-.32-.75"/><path class="cls-26" d="M1589.23,522.85a.86.86,0,0,0-.52.14,1.17,1.17,0,0,0-.33.37,1.67,1.67,0,0,0-.19.5,2.47,2.47,0,0,0,0,.54,2.44,2.44,0,0,0,0,.53,1.54,1.54,0,0,0,.18.48,1,1,0,0,0,.33.36.87.87,0,0,0,.5.13.91.91,0,0,0,.71-.26,1.26,1.26,0,0,0,.31-.71h1.24a2.18,2.18,0,0,1-.73,1.45,2.23,2.23,0,0,1-1.52.5,2.49,2.49,0,0,1-1-.18,2.15,2.15,0,0,1-.75-.5,2.31,2.31,0,0,1-.47-.77,2.63,2.63,0,0,1-.18-1,3.49,3.49,0,0,1,.16-1,2.38,2.38,0,0,1,.47-.82,2.07,2.07,0,0,1,.75-.54,2.46,2.46,0,0,1,1-.19,2.71,2.71,0,0,1,.8.11,1.89,1.89,0,0,1,.68.34,1.66,1.66,0,0,1,.49.56,1.79,1.79,0,0,1,.22.8h-1.25a.87.87,0,0,0-1-.82"/><path class="cls-26" d="M1593.37,525.62a1.13,1.13,0,0,0,.83.28,1.15,1.15,0,0,0,.67-.19.84.84,0,0,0,.34-.42h1.13a2.17,2.17,0,0,1-.83,1.22,2.35,2.35,0,0,1-1.35.37,2.66,2.66,0,0,1-1-.18,2.17,2.17,0,0,1-.75-.51,2.4,2.4,0,0,1-.47-.79,3,3,0,0,1-.17-1,3,3,0,0,1,.17-1,2.5,2.5,0,0,1,.49-.8,2.31,2.31,0,0,1,.76-.53,2.33,2.33,0,0,1,1-.19,2.23,2.23,0,0,1,1,.23,2.05,2.05,0,0,1,.73.64,2.47,2.47,0,0,1,.41.9,3.71,3.71,0,0,1,.09,1.06h-3.37a1.37,1.37,0,0,0,.32.93m1.45-2.51a.86.86,0,0,0-.7-.26,1.13,1.13,0,0,0-.51.1,1,1,0,0,0-.33.27,1,1,0,0,0-.17.33,2.37,2.37,0,0,0-.06.31h2.09a1.53,1.53,0,0,0-.32-.75"/><path class="cls-26" d="M1598.22,522v.88h0a1.57,1.57,0,0,1,.24-.41,1.78,1.78,0,0,1,.35-.32,1.65,1.65,0,0,1,.42-.21,1.53,1.53,0,0,1,.47-.07,1,1,0,0,1,.28,0v1.22l-.21,0h-.25a1.32,1.32,0,0,0-.59.12,1,1,0,0,0-.39.33,1.41,1.41,0,0,0-.22.48,2.91,2.91,0,0,0-.06.6v2.15H1597V522Z"/><polygon class="cls-26" points="1574.05 536.25 1574.05 534.7 1573.36 535.89 1573.25 535.89 1572.56 534.7 1572.56 536.25 1572.38 536.25 1572.38 534.36 1572.57 534.36 1573.31 535.65 1574.04 534.36 1574.23 534.36 1574.23 536.25 1574.05 536.25"/><path class="cls-26" d="M1575,536.27a.54.54,0,0,1-.19,0,.38.38,0,0,1-.15-.09.33.33,0,0,1-.1-.14.42.42,0,0,1,0-.16.34.34,0,0,1,0-.17.41.41,0,0,1,.12-.14.75.75,0,0,1,.18-.08.88.88,0,0,1,.24,0h.21a.85.85,0,0,1,.19.06v-.13a.39.39,0,0,0-.1-.29.38.38,0,0,0-.28-.11.54.54,0,0,0-.22,0,1.27,1.27,0,0,0-.23.12l-.06-.12a1.34,1.34,0,0,1,.26-.14.8.8,0,0,1,.27,0,.5.5,0,0,1,.54.55V536a.07.07,0,0,0,.07.08v.16h-.07a.17.17,0,0,1-.1,0,.11.11,0,0,1,0-.1V536a.5.5,0,0,1-.24.19.66.66,0,0,1-.3.07m0-.14a.52.52,0,0,0,.24,0,.45.45,0,0,0,.19-.14l0-.05a.11.11,0,0,0,0,0v-.23l-.18-.05-.2,0a.59.59,0,0,0-.31.08.24.24,0,0,0-.12.21.27.27,0,0,0,.09.21l.1.07.15,0m.11-1.53-.12,0,.16-.25h.19Z"/><path class="cls-26" d="M1576.58,536.27a1.06,1.06,0,0,1-.31,0,.87.87,0,0,1-.27-.15l.08-.13a1.05,1.05,0,0,0,.24.15.75.75,0,0,0,.26,0,.54.54,0,0,0,.27-.06.25.25,0,0,0,.1-.2.14.14,0,0,0,0-.09.19.19,0,0,0-.08-.07l-.13-.05-.18,0-.21-.06-.14-.06a.28.28,0,0,1-.09-.1.25.25,0,0,1,0-.13.35.35,0,0,1,0-.18.3.3,0,0,1,.11-.14.39.39,0,0,1,.16-.07.64.64,0,0,1,.2,0,.88.88,0,0,1,.29,0,.55.55,0,0,1,.21.14l-.09.1a.57.57,0,0,0-.18-.12.93.93,0,0,0-.23,0l-.14,0a.19.19,0,0,0-.1,0,.16.16,0,0,0-.08.08.36.36,0,0,0,0,.11s0,.07,0,.09,0,0,.06.06l.1,0,.16,0,.24.06a.6.6,0,0,1,.16.08.27.27,0,0,1,.11.1.33.33,0,0,1,0,.15.34.34,0,0,1-.15.3.62.62,0,0,1-.39.11"/><path class="cls-26" d="M1578.55,536.27a1.06,1.06,0,0,1-.31,0,1,1,0,0,1-.27-.15l.08-.13a1.05,1.05,0,0,0,.24.15.75.75,0,0,0,.26,0,.54.54,0,0,0,.27-.06.25.25,0,0,0,.1-.2.14.14,0,0,0,0-.09.19.19,0,0,0-.08-.07l-.13-.05-.18,0-.21-.06-.14-.06a.28.28,0,0,1-.09-.1.25.25,0,0,1,0-.13.34.34,0,0,1,0-.18.3.3,0,0,1,.11-.14.39.39,0,0,1,.16-.07.69.69,0,0,1,.2,0,.84.84,0,0,1,.29,0,.55.55,0,0,1,.21.14l-.09.1a.57.57,0,0,0-.18-.12.93.93,0,0,0-.23,0l-.14,0a.19.19,0,0,0-.1,0,.2.2,0,0,0-.08.08.36.36,0,0,0,0,.11s0,.07,0,.09,0,0,.06.06l.11,0,.15,0,.24.06.17.08a.32.32,0,0,1,.1.1.33.33,0,0,1,0,.15.36.36,0,0,1-.14.3.68.68,0,0,1-.4.11"/><path class="cls-26" d="M1579.38,534.31h.18v.26h-.18Zm0,.55h.18v1.39h-.18Z"/><path class="cls-26" d="M1582,536.25h-.18v-.78a.63.63,0,0,0-.07-.35.26.26,0,0,0-.23-.12l-.15,0a.38.38,0,0,0-.13.09.43.43,0,0,0-.11.12.44.44,0,0,0-.06.16v.85h-.19v-.78a.63.63,0,0,0-.07-.35.25.25,0,0,0-.23-.12.45.45,0,0,0-.28.11.56.56,0,0,0-.17.29v.85H1580v-1.39h.16v.32a.62.62,0,0,1,.23-.25.53.53,0,0,1,.3-.09.37.37,0,0,1,.28.1.38.38,0,0,1,.13.25.6.6,0,0,1,.54-.35.38.38,0,0,1,.19,0,.37.37,0,0,1,.13.12.54.54,0,0,1,.07.19,1,1,0,0,1,0,.25Z"/><path class="cls-26" d="M1583.09,536.27a.54.54,0,0,1-.31-.09.66.66,0,0,1-.22-.22v.85h-.18v-1.95h.16v.27a.63.63,0,0,1,.22-.21.61.61,0,0,1,.3-.08.58.58,0,0,1,.26.06.65.65,0,0,1,.21.16.58.58,0,0,1,.13.23.59.59,0,0,1,0,.27.84.84,0,0,1,0,.27.86.86,0,0,1-.13.23.59.59,0,0,1-.2.15.54.54,0,0,1-.25.06m0-.16a.45.45,0,0,0,.2,0,.64.64,0,0,0,.15-.13.4.4,0,0,0,.1-.18.48.48,0,0,0,0-.2.78.78,0,0,0,0-.22,1,1,0,0,0-.11-.17.48.48,0,0,0-.16-.13.49.49,0,0,0-.21,0l-.14,0a.37.37,0,0,0-.14.07.38.38,0,0,0-.11.11.31.31,0,0,0-.06.13v.42a.64.64,0,0,0,.08.14.38.38,0,0,0,.11.11l.14.08.15,0"/><path class="cls-26" d="M1584,534.31h.18v1.62a.16.16,0,0,0,0,.12.17.17,0,0,0,.12.05h.07l.07,0,0,.14-.13,0h-.12a.24.24,0,0,1-.27-.27Z"/><path class="cls-26" d="M1585.32,536.27a.61.61,0,0,1-.28-.06.57.57,0,0,1-.22-.15.7.7,0,0,1-.15-.23.87.87,0,0,1-.05-.28.76.76,0,0,1,.05-.27.61.61,0,0,1,.15-.23.57.57,0,0,1,.22-.15.6.6,0,0,1,.27-.06.64.64,0,0,1,.28.06.66.66,0,0,1,.22.15.88.88,0,0,1,.14.23.76.76,0,0,1,0,.27v.07h-1.18a.65.65,0,0,0,0,.2.71.71,0,0,0,.11.17.54.54,0,0,0,.16.1.41.41,0,0,0,.19,0h.14l.12,0,.1-.08a.41.41,0,0,0,.07-.11l.15,0a.55.55,0,0,1-.09.14l-.13.11-.17.07-.19,0m.51-.79a.66.66,0,0,0-.06-.2.46.46,0,0,0-.11-.16.44.44,0,0,0-.16-.1.41.41,0,0,0-.19,0,.43.43,0,0,0-.19,0,.54.54,0,0,0-.16.1.5.5,0,0,0-.15.36Z"/><path class="cls-26" d="M1586.22,536.28h0s0,0,0,0V536h.15v.27a.14.14,0,0,1,0,.07.12.12,0,0,1-.05,0,.09.09,0,0,1-.07,0h-.07Z"/><path class="cls-26" d="M1589.55,536.25h-.18v-.78a.62.62,0,0,0-.08-.35.26.26,0,0,0-.23-.12l-.15,0a.38.38,0,0,0-.13.09.4.4,0,0,0-.1.12.46.46,0,0,0-.07.16v.85h-.18v-.78a.62.62,0,0,0-.08-.35.25.25,0,0,0-.23-.12.4.4,0,0,0-.27.11.58.58,0,0,0-.18.29v.85h-.18v-1.39h.17v.32a.6.6,0,0,1,.22-.25.53.53,0,0,1,.3-.09.37.37,0,0,1,.28.1.34.34,0,0,1,.13.25.6.6,0,0,1,.54-.35.38.38,0,0,1,.19,0,.3.3,0,0,1,.13.12.4.4,0,0,1,.07.19,1,1,0,0,1,0,.25Z"/><path class="cls-26" d="M1590.29,536.27a.64.64,0,0,1-.2,0,.6.6,0,0,1-.15-.09.42.42,0,0,1-.09-.14.29.29,0,0,1,0-.16.47.47,0,0,1,0-.17.41.41,0,0,1,.12-.14l.19-.08a.88.88,0,0,1,.24,0h.21a.85.85,0,0,1,.19.06v-.13a.39.39,0,0,0-.1-.29.4.4,0,0,0-.29-.11.63.63,0,0,0-.22,0,1.19,1.19,0,0,0-.22.12l-.06-.12a1.1,1.1,0,0,1,.26-.14.75.75,0,0,1,.26,0,.54.54,0,0,1,.4.15.52.52,0,0,1,.15.4V536s0,.08.07.08v.16H1591l-.09,0a.11.11,0,0,1-.05-.1V536a.53.53,0,0,1-.23.19.66.66,0,0,1-.3.07m0-.14a.52.52,0,0,0,.24,0,.45.45,0,0,0,.19-.14l0-.05a.11.11,0,0,0,0,0v-.23l-.19-.05-.19,0a.57.57,0,0,0-.31.08.24.24,0,0,0-.12.21.2.2,0,0,0,0,.11.21.21,0,0,0,.06.1.41.41,0,0,0,.11.07l.15,0m.11-1.53-.12,0,.16-.25h.19Z"/><path class="cls-26" d="M1591.84,536.27a1.19,1.19,0,0,1-.32,0,.93.93,0,0,1-.26-.15l.08-.13a1.05,1.05,0,0,0,.24.15.71.71,0,0,0,.26,0,.48.48,0,0,0,.26-.06.22.22,0,0,0,.1-.2.24.24,0,0,0,0-.09.27.27,0,0,0-.08-.07l-.13-.05-.18,0-.21-.06-.15-.06a.39.39,0,0,1-.08-.1.25.25,0,0,1,0-.13.48.48,0,0,1,0-.18.53.53,0,0,1,.11-.14.51.51,0,0,1,.17-.07.64.64,0,0,1,.2,0,.88.88,0,0,1,.29,0,.64.64,0,0,1,.21.14l-.09.1a.52.52,0,0,0-.19-.12.85.85,0,0,0-.23,0l-.13,0a.22.22,0,0,0-.11,0,.19.19,0,0,0-.07.08.21.21,0,0,0,0,.2l.06.06.11,0,.16,0,.23.06a.54.54,0,0,1,.17.08.19.19,0,0,1,.1.1.24.24,0,0,1,0,.15.34.34,0,0,1-.15.3.67.67,0,0,1-.39.11"/><path class="cls-26" d="M1593.26,535.55a.66.66,0,0,1,0-.28.64.64,0,0,1,.14-.22.6.6,0,0,1,.22-.16.82.82,0,0,1,.28,0,.64.64,0,0,1,.34.09.56.56,0,0,1,.22.24l-.17.05a.48.48,0,0,0-.4-.22.41.41,0,0,0-.19,0,.4.4,0,0,0-.16.12.42.42,0,0,0-.11.17.54.54,0,0,0,0,.22.78.78,0,0,0,0,.22.54.54,0,0,0,.11.18.61.61,0,0,0,.16.12.45.45,0,0,0,.2,0,.32.32,0,0,0,.13,0l.12-.05.09-.07a.24.24,0,0,0,.06-.09l.17,0a.34.34,0,0,1-.08.14l-.13.1a.53.53,0,0,1-.17.08l-.19,0a.67.67,0,0,1-.28-.06.66.66,0,0,1-.22-.15.68.68,0,0,1-.14-.23.66.66,0,0,1,0-.28"/><path class="cls-26" d="M1595.41,536.27a.67.67,0,0,1-.28-.06.66.66,0,0,1-.22-.15.68.68,0,0,1-.14-.23.66.66,0,0,1,0-.28.75.75,0,0,1,.19-.5.66.66,0,0,1,.22-.15.64.64,0,0,1,.28-.06.6.6,0,0,1,.27.06.57.57,0,0,1,.22.15.68.68,0,0,1,.14.23.59.59,0,0,1,0,.27v.07h-1.18a.46.46,0,0,0,0,.2.5.5,0,0,0,.11.17.44.44,0,0,0,.16.1.41.41,0,0,0,.19,0h.13l.12,0,.1-.08a.41.41,0,0,0,.07-.11l.16,0a.55.55,0,0,1-.09.14l-.14.11-.17.07-.19,0m.51-.79a.65.65,0,0,0-.05-.2.64.64,0,0,0-.11-.16.54.54,0,0,0-.16-.1.43.43,0,0,0-.19,0,.41.41,0,0,0-.19,0,.44.44,0,0,0-.16.1.46.46,0,0,0-.11.16.65.65,0,0,0,0,.2Z"/><path class="cls-26" d="M1597.05,535a.67.67,0,0,0-.32.1.53.53,0,0,0-.19.27v.86h-.18v-1.39h.17v.33a.88.88,0,0,1,.19-.24.42.42,0,0,1,.25-.1h.08Z"/><path class="cls-26" d="M1597.2,535.55a.87.87,0,0,1,0-.28.66.66,0,0,1,.15-.22.6.6,0,0,1,.22-.16.78.78,0,0,1,.28,0,.64.64,0,0,1,.34.09.56.56,0,0,1,.22.24l-.18.05a.41.41,0,0,0-.16-.16.44.44,0,0,0-.23-.06.45.45,0,0,0-.2,0,.61.61,0,0,0-.16.12.4.4,0,0,0-.1.17.62.62,0,0,0,0,.44.54.54,0,0,0,.11.18.48.48,0,0,0,.16.12.41.41,0,0,0,.19,0,.27.27,0,0,0,.13,0l.13-.05.09-.07a.24.24,0,0,0,.06-.09l.17,0a1,1,0,0,1-.08.14l-.13.1a.53.53,0,0,1-.17.08l-.19,0a.67.67,0,0,1-.28-.06.66.66,0,0,1-.22-.15.83.83,0,0,1-.2-.51"/><path class="cls-26" d="M1599.12,536.27a.54.54,0,0,1-.19,0,.38.38,0,0,1-.15-.09.33.33,0,0,1-.1-.14.42.42,0,0,1,0-.16.34.34,0,0,1,0-.17.32.32,0,0,1,.12-.14.75.75,0,0,1,.18-.08.88.88,0,0,1,.24,0h.21a.85.85,0,0,1,.19.06v-.13a.39.39,0,0,0-.1-.29.38.38,0,0,0-.28-.11.64.64,0,0,0-.23,0l-.22.12-.06-.12a1.1,1.1,0,0,1,.26-.14.77.77,0,0,1,.27,0,.55.55,0,0,1,.4.15.52.52,0,0,1,.14.4V536a.07.07,0,0,0,.07.08v.16h-.07a.17.17,0,0,1-.1,0,.11.11,0,0,1,0-.1V536a.43.43,0,0,1-.23.19.66.66,0,0,1-.3.07m0-.14a.52.52,0,0,0,.24,0,.45.45,0,0,0,.19-.14l0-.05a.11.11,0,0,0,0,0v-.23l-.18-.05-.2,0a.59.59,0,0,0-.31.08.24.24,0,0,0-.12.21.36.36,0,0,0,0,.11.23.23,0,0,0,.07.1l.1.07.15,0"/><rect class="cls-17" x="1488.44" y="550.36" width="24.76" height="40.75" rx="12.38" transform="translate(2071.56 -930.09) rotate(90)"/><polygon class="cls-18" points="1504.89 586.97 1508.95 586.97 1508.95 554.51 1505.53 554.6 1504.89 586.97"/><path class="cls-20" d="M1661,401.81c-10.3-.35-12.43,5.89-13.25,15.85l-13,116.74-126.59,19.48-.84,34,147.08-14.78a19.81,19.81,0,0,0,13.79-5.71,18.45,18.45,0,0,0,5.57-11.7l9.64-120.57C1682,412.41,1671.31,402.16,1661,401.81Z"/><path class="cls-21" d="M1672.4,518.49a91.13,91.13,0,0,1-4.05,17.13c-1.72,5-3,10.21-5.55,14.87-5.08,9.21-13.48,13.66-23.9,14.44-25.43,1.92-108.54,14.4-115.6,12.78-7.64-1.76-14-17.63-12.67-24l-2.54.15-.7,34.06,147.08-14.78a19.81,19.81,0,0,0,13.79-5.71,18.45,18.45,0,0,0,5.57-11.7l7.07-86.17C1680,472.92,1673.25,512.63,1672.4,518.49Z"/><path class="cls-18" d="M1602.7,375.88c-20.34,0-36.26-12.05-36.23-27.36l6.67,0c0,10.88,13.52,20.09,29.58,20.13s29.63-9.14,29.65-20l6.67,0C1639,364,1623.05,375.92,1602.7,375.88Z"/><rect class="cls-17" x="313.37" y="959.53" width="37.14" height="27"/><rect class="cls-17" x="186.15" y="949.97" width="26.99" height="41.47" transform="translate(-774.11 1154.88) rotate(-89.09)"/><polygon class="cls-27" points="340.11 590.4 383.87 803.81 364.22 967.67 300.11 966.65 295.81 807.45 267.06 671.24 262.33 590.3 340.11 590.4"/><path class="cls-27" d="M179.25,588.91S171.93,639,179,709.35c2.88,28.49-8.92,259.31-8.92,259.31l62.77.29,41.27-265.51.65-114.71Z"/><path class="cls-28" d="M197.8,383c3.41-4.62,15.25-7.84,28.16-9.56,0,0,17.76,7.39,63.12,1.13,13.83,2.18,26.29,5.72,30.6,10.19,18.62,19.32,22.54,206.58,22.54,206.58s-39.38,4.09-84.8,4.09c-40.77,0-82.41-7-82.41-7s10.8-85.61,16.15-146.57C193.92,410.42,192.06,390.81,197.8,383Z"/><path class="cls-29" d="M191.16,441.92c.28-3.2,5.32,49.85,4.71,64.49-.46,10.73.2,37.41.58,48.15.29,7.93,7.62,14.38,15.29,18.07s31.91,3.23,40,3.39c48.88,1,85.7,1.92,90.08,1.19.27,8.87,2.63,13.74,2.63,13.74s-41.64,4.51-87.06,4.51c-40.77,0-82.41-6.15-82.41-6.15S185.81,502.88,191.16,441.92Z"/><polygon class="cls-18" points="274.33 363.87 256.7 376.13 269.53 403.01 289.08 374.6 274.33 363.87"/><polygon class="cls-18" points="236.52 363.2 256.7 376.13 245.01 402.27 225.96 373.79 236.52 363.2"/><path d="M257.45,418.08a3.55,3.55,0,1,0,3.55-3.55A3.55,3.55,0,0,0,257.45,418.08Z"/><path d="M256.86,448.8a3.55,3.55,0,1,0,3.55-3.54A3.55,3.55,0,0,0,256.86,448.8Z"/><path class="cls-30" d="M256.28,479.52a3.54,3.54,0,1,0,3.54-3.54A3.54,3.54,0,0,0,256.28,479.52Z"/><path class="cls-30" d="M255.68,510.25a3.55,3.55,0,1,0,3.55-3.55A3.55,3.55,0,0,0,255.68,510.25Z"/><path class="cls-30" d="M255.09,541a3.55,3.55,0,1,0,3.55-3.55A3.55,3.55,0,0,0,255.09,541Z"/><path class="cls-30" d="M254.5,571.69a3.55,3.55,0,1,0,3.55-3.54A3.54,3.54,0,0,0,254.5,571.69Z"/><polygon class="cls-18" points="200.73 598.35 312.05 596.79 317.24 445.43 207.23 446.93 200.73 598.35"/><path class="cls-31" d="M312.05,596.79l-112.34,2.3L207,446.33h14c-3.69,43.2-6.94,120.37,2.39,131.17,5.79,6.73,66.66,4,89.28,3.5Z"/><rect class="cls-17" x="317.06" y="524.27" width="26.03" height="44.07" rx="13.01" transform="matrix(-0.07, 1, -1, -0.07, 898.36, 255.71)"/><polygon class="cls-23" points="324.49 531.27 318.5 530.76 316.25 560.33 322.12 560.92 324.49 531.27"/><path class="cls-28" d="M139.69,530.83s23.57-98,38.21-128.32c8.24-17,15.35-20.23,27.55-22.3,11.56-2,9.46,26.52,7,35.71l-30.5,97.16,139.55,14.83-3.3,34.23-162.12-9.87a18.26,18.26,0,0,1-13.49-7A16.55,16.55,0,0,1,139.69,530.83Z"/><polygon class="cls-32" points="274.33 363.87 236.52 363.2 256.7 376.13 274.33 363.87"/><circle class="cls-17" cx="256.8" cy="309.14" r="59.72"/><path class="cls-18" d="M256.87,350.72c-20.35,0-36.26-12.06-36.23-27.36h6.67c0,10.88,13.52,20.1,29.57,20.13s29.63-9.13,29.65-20h6.68C293.18,338.8,277.21,350.76,256.87,350.72Z"/><path class="cls-33" d="M240.82,238c-21.23,5.33-37.74,21.1-43.15,42.31a77.49,77.49,0,0,0-1.79,26.33c.29,3.1,2.17,7.79,1.75,10.82,5.62-39.78,19.67-44.64,20.53-45.29,21.93,9.32,47.57,7,69.36-2.64l2.35-1.05c2.5,7.94,6,16.37,11.27,22.92,7.45,9.33,12.11,19.39,13.44,31.35.29,2.57,4.46-8.55,6.55-24.66C322.42,256.47,280,228.13,240.82,238Z"/><path class="cls-17" d="M241.32,507.31a5.79,5.79,0,1,1,5.79,5.79,5.79,5.79,0,0,1-5.79-5.79"/><path class="cls-18" d="M246.64,509.84c0-.79.06-1.88.06-2.53s0-1.77-.06-2.56a2.64,2.64,0,0,0,0,5.09m1,.29a1.55,1.55,0,0,0,.09.54c.15.23.57.2.57.2V511c-.52,0-.68-.06-1.15-.05s-.64.07-1.15.05v-.11s.42,0,.56-.2a1.49,1.49,0,0,0,.1-.54,2.84,2.84,0,0,1,0-5.68,1.33,1.33,0,0,0-.1-.51c-.14-.23-.56-.2-.56-.2v-.1c.51,0,.68.05,1.15,0s.63-.07,1.15,0v.1s-.42,0-.57.2a1.39,1.39,0,0,0-.09.51,2.84,2.84,0,0,1,0,5.68m-.08-2.82c0,.65,0,1.74.06,2.53a2.65,2.65,0,0,0,0-5.09c-.05.79-.06,1.91-.06,2.56"/><path class="cls-17" d="M257,510a1.08,1.08,0,0,0-.64-.18,1.63,1.63,0,0,0-.31,0,1.08,1.08,0,0,0-.27.1.58.58,0,0,0-.19.19.65.65,0,0,0-.07.29.37.37,0,0,0,.11.27.7.7,0,0,0,.27.17,1.91,1.91,0,0,0,.38.1l.44.1.44.11a1.91,1.91,0,0,1,.38.18.93.93,0,0,1,.27.29.87.87,0,0,1,.11.44.88.88,0,0,1-.14.49,1.19,1.19,0,0,1-.34.33,1.76,1.76,0,0,1-.47.18,2.24,2.24,0,0,1-.52.06,2.33,2.33,0,0,1-.59-.08,1.47,1.47,0,0,1-.49-.22,1.17,1.17,0,0,1-.34-.39,1.25,1.25,0,0,1-.12-.56h.47a.74.74,0,0,0,.09.38.78.78,0,0,0,.24.27,1.25,1.25,0,0,0,.35.16,1.84,1.84,0,0,0,.41.05l.34,0a1,1,0,0,0,.3-.11.46.46,0,0,0,.22-.19.55.55,0,0,0,.09-.32.47.47,0,0,0-.1-.3.73.73,0,0,0-.28-.19,1.89,1.89,0,0,0-.38-.12l-.44-.09-.43-.11a1.38,1.38,0,0,1-.39-.16.87.87,0,0,1-.27-.27.7.7,0,0,1-.1-.4.88.88,0,0,1,.11-.47,1,1,0,0,1,.31-.32,1.2,1.2,0,0,1,.43-.19,2.07,2.07,0,0,1,.5-.06,2.35,2.35,0,0,1,.54.06,1.3,1.3,0,0,1,.43.2,1,1,0,0,1,.29.36,1.27,1.27,0,0,1,.12.5h-.47A.74.74,0,0,0,257,510"/><path class="cls-17" d="M260.4,512.87a1.24,1.24,0,0,1-.76.22,1.42,1.42,0,0,1-.57-.1,1,1,0,0,1-.4-.27,1.14,1.14,0,0,1-.24-.43,1.63,1.63,0,0,1-.09-.55,1.51,1.51,0,0,1,.09-.53,1.12,1.12,0,0,1,.27-.43,1.15,1.15,0,0,1,.4-.28,1.36,1.36,0,0,1,.51-.1,1.07,1.07,0,0,1,1,.51,1.31,1.31,0,0,1,.2.47,1.75,1.75,0,0,1,0,.5h-2a1.12,1.12,0,0,0,0,.32.72.72,0,0,0,.15.27.77.77,0,0,0,.27.19,1.07,1.07,0,0,0,.38.07.81.81,0,0,0,.46-.13.6.6,0,0,0,.24-.38h.44a1,1,0,0,1-.39.65m-.11-1.65a.63.63,0,0,0-.16-.23.78.78,0,0,0-.24-.16,1,1,0,0,0-.62,0,.78.78,0,0,0-.24.16.7.7,0,0,0-.15.23.89.89,0,0,0-.07.28h1.55a.68.68,0,0,0-.07-.28"/><path class="cls-17" d="M263.33,513.77a1.29,1.29,0,0,1-1,.31,1.69,1.69,0,0,1-.38,0,1.11,1.11,0,0,1-.36-.13,1,1,0,0,1-.26-.23.7.7,0,0,1-.12-.36h.45a.35.35,0,0,0,.07.2.83.83,0,0,0,.18.13,1.14,1.14,0,0,0,.22.07l.23,0a.82.82,0,0,0,.37-.07.62.62,0,0,0,.25-.2.75.75,0,0,0,.15-.31,1.61,1.61,0,0,0,0-.39v-.17h0a.7.7,0,0,1-.35.35,1,1,0,0,1-.49.11,1.22,1.22,0,0,1-.53-.1,1.08,1.08,0,0,1-.38-.28,1.22,1.22,0,0,1-.23-.42,1.59,1.59,0,0,1-.07-.5,2,2,0,0,1,.06-.47,1.27,1.27,0,0,1,.21-.44,1.12,1.12,0,0,1,.39-.32,1.32,1.32,0,0,1,.59-.13,1,1,0,0,1,.47.11.78.78,0,0,1,.33.32h0v-.37h.42v2.36a1.34,1.34,0,0,1-.3.95m-.57-1.16a.92.92,0,0,0,.25-.23,1.13,1.13,0,0,0,.13-.32,1.49,1.49,0,0,0,.05-.36,1.19,1.19,0,0,0,0-.33.92.92,0,0,0-.14-.3.66.66,0,0,0-.23-.21.68.68,0,0,0-.36-.08.69.69,0,0,0-.62.28,1,1,0,0,0-.14.3,1.55,1.55,0,0,0,0,.7.88.88,0,0,0,.12.32.76.76,0,0,0,.24.23.66.66,0,0,0,.36.09.76.76,0,0,0,.38-.09"/><path class="cls-17" d="M266.12,513v-.41h0a.81.81,0,0,1-.36.35,1.08,1.08,0,0,1-.52.11,1.33,1.33,0,0,1-.44-.06.77.77,0,0,1-.29-.19.73.73,0,0,1-.16-.3,1.53,1.53,0,0,1,0-.38v-1.7h.44v1.75a.5.5,0,0,0,.15.38.57.57,0,0,0,.4.14,1,1,0,0,0,.36-.06.74.74,0,0,0,.25-.17.82.82,0,0,0,.14-.26.86.86,0,0,0,0-.32v-1.46h.45V513Z"/><path class="cls-17" d="M267.61,510.46V511h0a1.18,1.18,0,0,1,.4-.47,1.11,1.11,0,0,1,.6-.14v.45a1.27,1.27,0,0,0-.46.07.74.74,0,0,0-.3.21.82.82,0,0,0-.17.32,2,2,0,0,0-.05.44V513h-.45v-2.58Z"/><path class="cls-17" d="M268.79,511.22a1.27,1.27,0,0,1,.26-.43,1.2,1.2,0,0,1,.41-.28,1.41,1.41,0,0,1,.57-.11,1.4,1.4,0,0,1,.56.11,1.11,1.11,0,0,1,.41.28,1.27,1.27,0,0,1,.26.43,1.84,1.84,0,0,1,.08.53,1.78,1.78,0,0,1-.08.53,1.18,1.18,0,0,1-.26.43,1.11,1.11,0,0,1-.41.28,1.4,1.4,0,0,1-.56.1,1.42,1.42,0,0,1-.57-.1,1.2,1.2,0,0,1-.41-.28,1.18,1.18,0,0,1-.26-.43,1.78,1.78,0,0,1-.08-.53,1.84,1.84,0,0,1,.08-.53m.46.95a.75.75,0,0,0,.18.3.7.7,0,0,0,.27.19.79.79,0,0,0,.65,0,.64.64,0,0,0,.27-.19.75.75,0,0,0,.18-.3,1.09,1.09,0,0,0,.07-.42,1.07,1.07,0,0,0-.07-.41.79.79,0,0,0-.18-.31.74.74,0,0,0-.27-.19.87.87,0,0,0-.32-.06.88.88,0,0,0-.33.06.83.83,0,0,0-.27.19.79.79,0,0,0-.18.31,1.07,1.07,0,0,0-.07.41,1.09,1.09,0,0,0,.07.42"/><path class="cls-17" d="M272.2,512.46a.44.44,0,0,0,.17.16.78.78,0,0,0,.23.08,1.09,1.09,0,0,0,.26,0l.22,0,.21-.05a.4.4,0,0,0,.16-.12.27.27,0,0,0,.07-.2.3.3,0,0,0-.13-.25,1.26,1.26,0,0,0-.33-.13l-.43-.1a2.58,2.58,0,0,1-.42-.12.71.71,0,0,1-.33-.22.52.52,0,0,1-.13-.38.62.62,0,0,1,.09-.34.84.84,0,0,1,.23-.23,1.18,1.18,0,0,1,.33-.12,1.49,1.49,0,0,1,.36-.05,2.72,2.72,0,0,1,.42,0,.93.93,0,0,1,.34.13.64.64,0,0,1,.24.25.86.86,0,0,1,.11.39h-.45a.48.48,0,0,0-.07-.21.35.35,0,0,0-.14-.13.68.68,0,0,0-.2-.07.78.78,0,0,0-.22,0h-.2l-.18,0a.5.5,0,0,0-.14.1.31.31,0,0,0,0,.17.25.25,0,0,0,.08.18.53.53,0,0,0,.21.12,1.58,1.58,0,0,0,.28.08l.31.06.33.09a1,1,0,0,1,.28.13.67.67,0,0,1,.2.21.57.57,0,0,1,.08.31.71.71,0,0,1-.11.39.78.78,0,0,1-.26.25,1.47,1.47,0,0,1-.37.13l-.41,0a2,2,0,0,1-.43,0,1,1,0,0,1-.36-.15.84.84,0,0,1-.26-.27.94.94,0,0,1-.1-.4h.44a.52.52,0,0,0,.07.23"/><path class="cls-26" d="M258.77,503.43a1.34,1.34,0,0,0-.31-.36,1.45,1.45,0,0,0-.93-.34,1.67,1.67,0,0,0-.81.19,1.47,1.47,0,0,0-.54.51,2.51,2.51,0,0,0-.31.73,3.86,3.86,0,0,0-.09.84,3.59,3.59,0,0,0,.09.81,2.33,2.33,0,0,0,.31.7,1.47,1.47,0,0,0,.54.51,1.67,1.67,0,0,0,.81.19,1.29,1.29,0,0,0,1-.41,1.84,1.84,0,0,0,.45-1.07h1.37a3.35,3.35,0,0,1-.28,1.12,2.87,2.87,0,0,1-.59.85,2.58,2.58,0,0,1-.87.53,2.94,2.94,0,0,1-1.09.19,3.16,3.16,0,0,1-1.33-.27,2.7,2.7,0,0,1-1-.72,3.16,3.16,0,0,1-.62-1.09,3.88,3.88,0,0,1-.22-1.34,4.06,4.06,0,0,1,.22-1.37,3.25,3.25,0,0,1,.62-1.11,2.87,2.87,0,0,1,1-.74,3.16,3.16,0,0,1,1.33-.26,3.38,3.38,0,0,1,1,.15,2.86,2.86,0,0,1,.84.46,2.47,2.47,0,0,1,.62.74,2.77,2.77,0,0,1,.31,1h-1.37a1.21,1.21,0,0,0-.17-.46"/><path class="cls-26" d="M262.23,503.49v.89h0a1.52,1.52,0,0,1,.24-.41,1.5,1.5,0,0,1,.35-.32,1.9,1.9,0,0,1,.43-.21,1.5,1.5,0,0,1,.47-.08,1,1,0,0,1,.28.05v1.22l-.22,0-.24,0a1.34,1.34,0,0,0-.6.12,1,1,0,0,0-.39.33,1.28,1.28,0,0,0-.21.49,2.74,2.74,0,0,0-.07.6v2.15H261v-4.78Z"/><path class="cls-26" d="M265.55,507.12a1.28,1.28,0,0,0,1.5.09.77.77,0,0,0,.34-.42h1.13a2.23,2.23,0,0,1-.83,1.23,2.35,2.35,0,0,1-1.35.37,2.66,2.66,0,0,1-1-.18,2,2,0,0,1-.74-.51,2.31,2.31,0,0,1-.48-.8,3,3,0,0,1-.16-1,2.73,2.73,0,0,1,.17-1,2.22,2.22,0,0,1,.48-.8,2.26,2.26,0,0,1,.76-.53,2.34,2.34,0,0,1,1-.2,2.08,2.08,0,0,1,1.76.87,2.6,2.6,0,0,1,.41.91,3.11,3.11,0,0,1,.09,1.06h-3.36a1.31,1.31,0,0,0,.31.92m1.45-2.51a.9.9,0,0,0-.7-.26,1.13,1.13,0,0,0-.51.11,1.09,1.09,0,0,0-.55.91h2.08a1.57,1.57,0,0,0-.32-.76"/><path class="cls-26" d="M271.41,504.35a.83.83,0,0,0-.51.15,1,1,0,0,0-.34.36,1.78,1.78,0,0,0-.19.5,3.5,3.5,0,0,0-.05.54,3.17,3.17,0,0,0,.05.53,1.9,1.9,0,0,0,.18.49,1,1,0,0,0,.33.35.89.89,0,0,0,.5.14.94.94,0,0,0,.71-.26,1.22,1.22,0,0,0,.31-.71h1.24a2.2,2.2,0,0,1-.72,1.45,2.33,2.33,0,0,1-1.53.5,2.49,2.49,0,0,1-1-.18,2.15,2.15,0,0,1-.74-.5,2.22,2.22,0,0,1-.48-.78,2.55,2.55,0,0,1-.17-1,3.42,3.42,0,0,1,.15-1,2.29,2.29,0,0,1,.47-.82,2.07,2.07,0,0,1,.75-.54,2.46,2.46,0,0,1,1-.2,3,3,0,0,1,.8.11,2.28,2.28,0,0,1,.68.34,1.72,1.72,0,0,1,.5.57,1.92,1.92,0,0,1,.21.79h-1.25a.87.87,0,0,0-.95-.82"/><path class="cls-26" d="M275.55,507.12a1.13,1.13,0,0,0,.83.29,1.15,1.15,0,0,0,.67-.2.77.77,0,0,0,.34-.42h1.13a2.23,2.23,0,0,1-.83,1.23,2.35,2.35,0,0,1-1.35.37,2.66,2.66,0,0,1-1-.18,2,2,0,0,1-.74-.51,2.31,2.31,0,0,1-.48-.8,3,3,0,0,1-.16-1,2.73,2.73,0,0,1,.17-1,2.22,2.22,0,0,1,.48-.8,2.26,2.26,0,0,1,.76-.53,2.34,2.34,0,0,1,1-.2,2.08,2.08,0,0,1,1.76.87,2.6,2.6,0,0,1,.41.91,3.11,3.11,0,0,1,.09,1.06h-3.36a1.31,1.31,0,0,0,.31.92m1.45-2.51a.9.9,0,0,0-.7-.26,1.13,1.13,0,0,0-.51.11,1.09,1.09,0,0,0-.55.91h2.08a1.57,1.57,0,0,0-.32-.76"/><path class="cls-26" d="M280.4,503.49v.89h0a1.52,1.52,0,0,1,.24-.41,1.32,1.32,0,0,1,.35-.32,1.72,1.72,0,0,1,.43-.21,1.45,1.45,0,0,1,.47-.08,1.11,1.11,0,0,1,.28.05v1.22l-.22,0-.24,0a1.34,1.34,0,0,0-.6.12,1,1,0,0,0-.39.33,1.28,1.28,0,0,0-.21.49,2.25,2.25,0,0,0-.07.6v2.15h-1.28v-4.78Z"/><polygon class="cls-26" points="256.23 517.75 256.23 516.2 255.54 517.4 255.43 517.4 254.74 516.2 254.74 517.75 254.56 517.75 254.56 515.87 254.75 515.87 255.49 517.16 256.22 515.87 256.41 515.87 256.41 517.75 256.23 517.75"/><path class="cls-26" d="M257.21,517.78a.41.41,0,0,1-.19,0,.38.38,0,0,1-.15-.09.41.41,0,0,1-.1-.13.45.45,0,0,1,0-.16.34.34,0,0,1,0-.18.37.37,0,0,1,.12-.13.51.51,0,0,1,.18-.09.88.88,0,0,1,.24,0l.21,0,.2,0v-.12a.4.4,0,0,0-.11-.29.38.38,0,0,0-.28-.11.54.54,0,0,0-.22,0,1.27,1.27,0,0,0-.23.12l-.06-.12a1.26,1.26,0,0,1,.26-.13.86.86,0,0,1,.27,0,.52.52,0,0,1,.55.55v.63c0,.05,0,.07.06.07v.16h-.07a.13.13,0,0,1-.1,0,.13.13,0,0,1-.05-.09v-.11a.65.65,0,0,1-.24.19.82.82,0,0,1-.3.07m.05-.14a.59.59,0,0,0,.23,0,.47.47,0,0,0,.19-.14l0-.06a.08.08,0,0,0,0,0v-.22a1.39,1.39,0,0,0-.19-.06h-.19a.61.61,0,0,0-.32.07.26.26,0,0,0-.12.22.43.43,0,0,0,0,.11.31.31,0,0,0,.07.09.3.3,0,0,0,.11.07.33.33,0,0,0,.15,0m.11-1.53-.12-.05.15-.25h.19Z"/><path class="cls-26" d="M258.76,517.78a.85.85,0,0,1-.31-.06.72.72,0,0,1-.27-.15l.08-.12a1,1,0,0,0,.24.14.75.75,0,0,0,.26,0,.45.45,0,0,0,.27-.07.23.23,0,0,0,.1-.19.17.17,0,0,0,0-.1.29.29,0,0,0-.08-.07l-.13-.05-.18,0-.21-.06-.14-.07a.2.2,0,0,1-.09-.09.52.52,0,0,1,0-.14.34.34,0,0,1,0-.18.28.28,0,0,1,.11-.13.48.48,0,0,1,.16-.08.69.69,0,0,1,.2,0,.65.65,0,0,1,.29.06.54.54,0,0,1,.21.13l-.09.11a.57.57,0,0,0-.18-.12.62.62,0,0,0-.23,0h-.13a.28.28,0,0,0-.11,0,.18.18,0,0,0-.07.08.21.21,0,0,0,0,.12.15.15,0,0,0,0,.09l.06.06.11,0,.15,0,.24.07.17.07a.47.47,0,0,1,.1.1.4.4,0,0,1,0,.15.4.4,0,0,1-.14.31.68.68,0,0,1-.4.11"/><path class="cls-26" d="M260.73,517.78a.85.85,0,0,1-.31-.06.72.72,0,0,1-.27-.15l.09-.12a.79.79,0,0,0,.23.14.75.75,0,0,0,.26,0,.45.45,0,0,0,.27-.07.23.23,0,0,0,.1-.19.17.17,0,0,0,0-.1.29.29,0,0,0-.08-.07l-.13-.05-.18,0-.21-.06-.14-.07a.14.14,0,0,1-.08-.09.29.29,0,0,1,0-.14.34.34,0,0,1,0-.18.35.35,0,0,1,.11-.13.48.48,0,0,1,.16-.08.69.69,0,0,1,.2,0,.65.65,0,0,1,.29.06.54.54,0,0,1,.21.13l-.08.11a.76.76,0,0,0-.19-.12.59.59,0,0,0-.23,0h-.13l-.11,0a.18.18,0,0,0-.07.08.21.21,0,0,0,0,.12.29.29,0,0,0,0,.09l.06.06.11,0,.15,0,.24.07.17.07a.32.32,0,0,1,.1.1.4.4,0,0,1,0,.15.4.4,0,0,1-.14.31.68.68,0,0,1-.4.11"/><path class="cls-26" d="M261.56,515.81h.18v.27h-.18Zm0,.56h.18v1.38h-.18Z"/><path class="cls-26" d="M264.19,517.75H264V517a.69.69,0,0,0-.08-.36.27.27,0,0,0-.23-.11l-.15,0a.57.57,0,0,0-.13.08.64.64,0,0,0-.1.13.39.39,0,0,0-.07.16v.84h-.18V517a.64.64,0,0,0-.08-.36.26.26,0,0,0-.23-.11.4.4,0,0,0-.27.11.59.59,0,0,0-.18.28v.85h-.18v-1.38h.16v.31a.7.7,0,0,1,.23-.25.53.53,0,0,1,.3-.09.41.41,0,0,1,.28.1.41.41,0,0,1,.13.26.6.6,0,0,1,.54-.36.38.38,0,0,1,.19,0,.3.3,0,0,1,.13.12.47.47,0,0,1,.07.19.88.88,0,0,1,0,.24Z"/><path class="cls-26" d="M265.27,517.78a.54.54,0,0,1-.31-.09.8.8,0,0,1-.22-.23v.86h-.18v-2h.16v.27a.63.63,0,0,1,.22-.21.53.53,0,0,1,.3-.09.58.58,0,0,1,.26.06.83.83,0,0,1,.21.16,1.09,1.09,0,0,1,.14.23.86.86,0,0,1,0,.27.87.87,0,0,1,0,.28.61.61,0,0,1-.13.22.53.53,0,0,1-.2.16.51.51,0,0,1-.25.06m0-.16a.46.46,0,0,0,.2,0,.48.48,0,0,0,.16-.13.56.56,0,0,0,.09-.17.57.57,0,0,0,0-.42.54.54,0,0,0-.11-.18.61.61,0,0,0-.16-.12.5.5,0,0,0-.21,0l-.14,0a.39.39,0,0,0-.14.08.52.52,0,0,0-.11.1.42.42,0,0,0-.06.14v.42a.64.64,0,0,0,.08.14l.11.11.14.07.15,0"/><path class="cls-26" d="M266.2,515.81h.18v1.63a.14.14,0,0,0,.16.16h.07l.08,0,0,.15-.13,0-.12,0a.3.3,0,0,1-.2-.07.27.27,0,0,1-.07-.2Z"/><path class="cls-26" d="M267.5,517.78a.64.64,0,0,1-.28-.06.6.6,0,0,1-.22-.16.76.76,0,0,1-.15-.23.81.81,0,0,1-.05-.27.87.87,0,0,1,.05-.28.86.86,0,0,1,.15-.22.67.67,0,0,1,.49-.22.61.61,0,0,1,.28.06.6.6,0,0,1,.22.16.64.64,0,0,1,.14.22.86.86,0,0,1,.05.27v.05s0,0,0,0H267a1.08,1.08,0,0,0,.05.21.48.48,0,0,0,.12.16.33.33,0,0,0,.15.11.43.43,0,0,0,.19,0l.14,0,.12,0a.39.39,0,0,0,.1-.08.36.36,0,0,0,.07-.1l.15,0a.42.42,0,0,1-.09.14.69.69,0,0,1-.13.11.51.51,0,0,1-.17.07.63.63,0,0,1-.19,0M268,517a1.08,1.08,0,0,0-.05-.21.44.44,0,0,0-.12-.15.42.42,0,0,0-.15-.11.64.64,0,0,0-.2,0,.63.63,0,0,0-.19,0,.42.42,0,0,0-.15.11.33.33,0,0,0-.11.15.5.5,0,0,0-.05.21Z"/><path class="cls-26" d="M268.4,517.79h0a.06.06,0,0,0,0,0v-.24h.15v.27a.11.11,0,0,1,0,.08l0,0-.06,0h-.08Z"/><path class="cls-26" d="M271.73,517.75h-.18V517a.69.69,0,0,0-.08-.36.26.26,0,0,0-.23-.11l-.15,0-.13.08a.64.64,0,0,0-.1.13.59.59,0,0,0-.07.16v.84h-.18V517a.75.75,0,0,0-.07-.36.27.27,0,0,0-.23-.11.41.41,0,0,0-.28.11.68.68,0,0,0-.18.28v.85h-.18v-1.38h.17v.31a.6.6,0,0,1,.22-.25.54.54,0,0,1,.31-.09.43.43,0,0,1,.28.1.4.4,0,0,1,.12.26.6.6,0,0,1,.54-.36.36.36,0,0,1,.19,0,.3.3,0,0,1,.13.12.47.47,0,0,1,.08.19,1.66,1.66,0,0,1,0,.24Z"/><path class="cls-26" d="M272.47,517.78a.38.38,0,0,1-.19,0,.38.38,0,0,1-.15-.09.31.31,0,0,1-.1-.13.47.47,0,0,1,0-.16.35.35,0,0,1,.05-.18.25.25,0,0,1,.12-.13.51.51,0,0,1,.18-.09.88.88,0,0,1,.24,0l.21,0,.19,0v-.12a.36.36,0,0,0-.38-.4.54.54,0,0,0-.22,0,1.27,1.27,0,0,0-.23.12l-.06-.12a1.05,1.05,0,0,1,.26-.13.76.76,0,0,1,.27,0,.55.55,0,0,1,.4.15.57.57,0,0,1,.14.4v.63a.06.06,0,0,0,.07.07v.16h-.07a.13.13,0,0,1-.1,0,.11.11,0,0,1-.05-.09v-.11a.75.75,0,0,1-.24.19.82.82,0,0,1-.3.07m0-.14a.69.69,0,0,0,.24,0,.55.55,0,0,0,.19-.14l0-.06a.07.07,0,0,0,0,0v-.22l-.18-.06h-.2a.59.59,0,0,0-.31.07.26.26,0,0,0-.12.22.43.43,0,0,0,0,.11.31.31,0,0,0,.07.09.26.26,0,0,0,.1.07l.15,0m.11-1.53-.12-.05.16-.25h.19Z"/><path class="cls-26" d="M274,517.78a.81.81,0,0,1-.31-.06.59.59,0,0,1-.27-.15l.08-.12a1,1,0,0,0,.24.14.75.75,0,0,0,.26,0,.45.45,0,0,0,.27-.07.22.22,0,0,0,.09-.19.16.16,0,0,0,0-.1l-.08-.07-.13-.05-.18,0-.21-.06a.37.37,0,0,1-.14-.07.2.2,0,0,1-.09-.09.29.29,0,0,1,0-.14.48.48,0,0,1,0-.18.37.37,0,0,1,.12-.13.4.4,0,0,1,.16-.08.64.64,0,0,1,.2,0,.68.68,0,0,1,.29.06.54.54,0,0,1,.21.13l-.09.11a.57.57,0,0,0-.18-.12.62.62,0,0,0-.23,0h-.14l-.1,0a.2.2,0,0,0-.08.08.22.22,0,0,0,0,.12.15.15,0,0,0,0,.09l.06.06.1,0,.16,0,.23.07a.54.54,0,0,1,.17.07.36.36,0,0,1,.11.1.4.4,0,0,1,0,.15.37.37,0,0,1-.15.31.62.62,0,0,1-.39.11"/><path class="cls-26" d="M275.44,517.06a.66.66,0,0,1,.05-.28.68.68,0,0,1,.14-.23.71.71,0,0,1,.22-.15.64.64,0,0,1,.28-.06.62.62,0,0,1,.34.09.56.56,0,0,1,.22.24l-.17.06a.52.52,0,0,0-.16-.17.48.48,0,0,0-.24-.06.41.41,0,0,0-.19,0,.36.36,0,0,0-.16.11.54.54,0,0,0-.11.18.72.72,0,0,0,0,.22.85.85,0,0,0,0,.22,1,1,0,0,0,.11.17.36.36,0,0,0,.16.12.46.46,0,0,0,.2,0l.13,0,.12-.05a.39.39,0,0,0,.1-.08.41.41,0,0,0,0-.09l.18,0a.42.42,0,0,1-.09.14.69.69,0,0,1-.13.11.51.51,0,0,1-.17.07.58.58,0,0,1-.19,0,.67.67,0,0,1-.28-.06.82.82,0,0,1-.22-.16.59.59,0,0,1-.14-.23.81.81,0,0,1-.05-.27"/><path class="cls-26" d="M277.59,517.78a.67.67,0,0,1-.28-.06.82.82,0,0,1-.22-.16.59.59,0,0,1-.14-.23.62.62,0,0,1-.05-.27.66.66,0,0,1,.05-.28.64.64,0,0,1,.14-.22.82.82,0,0,1,.22-.16.68.68,0,0,1,.56,0,.65.65,0,0,1,.21.16.64.64,0,0,1,.14.22.65.65,0,0,1,0,.27v.07h-1.18a.46.46,0,0,0,.05.21.64.64,0,0,0,.11.16.42.42,0,0,0,.16.11.41.41,0,0,0,.19,0l.13,0,.13,0a.34.34,0,0,0,.09-.08.23.23,0,0,0,.07-.1l.16,0a.42.42,0,0,1-.09.14l-.14.11a.51.51,0,0,1-.17.07.58.58,0,0,1-.19,0m.51-.79a.46.46,0,0,0-.05-.21.58.58,0,0,0-.11-.15.57.57,0,0,0-.16-.11.62.62,0,0,0-.38,0,.57.57,0,0,0-.16.11.58.58,0,0,0-.11.15.72.72,0,0,0-.05.21Z"/><path class="cls-26" d="M279.23,516.53a.48.48,0,0,0-.31.1.52.52,0,0,0-.2.26v.86h-.17v-1.38h.16v.33a.65.65,0,0,1,.19-.24.36.36,0,0,1,.25-.1h.08Z"/><path class="cls-26" d="M279.39,517.06a.66.66,0,0,1,.05-.28.68.68,0,0,1,.14-.23.71.71,0,0,1,.22-.15.69.69,0,0,1,.62,0,.56.56,0,0,1,.22.24l-.17.06a.46.46,0,0,0-.17-.17.44.44,0,0,0-.23-.06.41.41,0,0,0-.19,0,.31.31,0,0,0-.16.11.54.54,0,0,0-.11.18.51.51,0,0,0,0,.22.57.57,0,0,0,0,.22.62.62,0,0,0,.11.17.36.36,0,0,0,.16.12.46.46,0,0,0,.2,0l.13,0,.12-.05a.34.34,0,0,0,.09-.08.24.24,0,0,0,.06-.09l.17,0a.39.39,0,0,1-.08.14.69.69,0,0,1-.13.11.51.51,0,0,1-.17.07.58.58,0,0,1-.19,0,.67.67,0,0,1-.28-.06.69.69,0,0,1-.22-.16.59.59,0,0,1-.14-.23.62.62,0,0,1-.05-.27"/><path class="cls-26" d="M281.3,517.78a.41.41,0,0,1-.19,0,.38.38,0,0,1-.15-.09.41.41,0,0,1-.1-.13.45.45,0,0,1,0-.16.34.34,0,0,1,0-.18.37.37,0,0,1,.12-.13.51.51,0,0,1,.18-.09.88.88,0,0,1,.24,0l.21,0,.2,0v-.12a.4.4,0,0,0-.11-.29.38.38,0,0,0-.28-.11.54.54,0,0,0-.22,0,1.27,1.27,0,0,0-.23.12l-.06-.12a1.26,1.26,0,0,1,.26-.13.86.86,0,0,1,.27,0,.52.52,0,0,1,.55.55v.63c0,.05,0,.07.06.07v.16H282a.13.13,0,0,1-.1,0,.13.13,0,0,1-.05-.09v-.11a.65.65,0,0,1-.24.19.82.82,0,0,1-.3.07m.05-.14a.64.64,0,0,0,.23,0,.55.55,0,0,0,.19-.14l0-.06a.08.08,0,0,0,0,0v-.22a1.39,1.39,0,0,0-.19-.06h-.19a.61.61,0,0,0-.32.07.26.26,0,0,0-.12.22.43.43,0,0,0,0,.11.31.31,0,0,0,.07.09.3.3,0,0,0,.11.07.33.33,0,0,0,.15,0"/><rect class="cls-17" x="492.17" y="378.51" width="27.66" height="42.78" rx="13.4" transform="translate(430.97 -240.67) rotate(45)"/><polygon class="cls-23" points="488.25 395.76 483.8 399.92 505.65 421.31 509.54 416.93 488.25 395.76"/><path class="cls-28" d="M295.62,387.9a19,19,0,0,1,26.86-1.81l88.59,80.09,73.95-69L510,421.75l-82.18,91.52a19.05,19.05,0,0,1-26.34,1.25l-108.76-95C284.75,412.62,288.71,395.82,295.62,387.9Z"/><path d="M203.9,984.55s34.42-5.55,39.93,14.67a7.19,7.19,0,0,1-6.9,9.12H179.14a4.64,4.64,0,0,1-4.64-4.94l1.18-18.85Z"/><path d="M337,984.85s34.42-5.55,39.93,14.67a7.19,7.19,0,0,1-6.91,9.12H312.25a4.66,4.66,0,0,1-4.65-4.94l1.19-18.85Z"/><path d="M1550.86,982s-39.17-6.72-45.45,17.76c-1.42,5.55,2.45,11,7.86,11H1579a5.5,5.5,0,0,0,5.29-6L1583,982Z"/><path d="M1631.12,982s-39.16-6.72-45.44,17.76c-1.42,5.55,2.45,11,7.86,11h65.76a5.49,5.49,0,0,0,5.28-6L1663.23,982Z"/></g></g></g></svg>