<svg xmlns="http://www.w3.org/2000/svg" xmlns:xlink="http://www.w3.org/1999/xlink" viewBox="0 0 2490 1080"><defs><style>.cls-1,.cls-11,.cls-20{fill:none;}.cls-2{isolation:isolate;}.cls-3{clip-path:url(#clip-path);}.cls-4{fill:#e8e0dd;}.cls-5{fill:#fefefe;}.cls-6{fill:#e8d6cd;}.cls-7{fill:#a8968e;}.cls-8{fill:#a5a2a0;}.cls-13,.cls-46,.cls-9{opacity:0.6;}.cls-9{fill:url(#Degradado_sin_nombre_23);}.cls-10{fill:#f4efed;}.cls-11{stroke:#a8968e;stroke-width:2.38px;}.cls-11,.cls-20{stroke-miterlimit:10;}.cls-12{fill:#ff8e7d;}.cls-13{fill:url(#Degradado_sin_nombre_23-2);}.cls-14{fill:#918a87;}.cls-15,.cls-28{fill:#b5a9a5;}.cls-16{clip-path:url(#clip-path-2);}.cls-17{fill:#a19db9;}.cls-18{opacity:0.18;}.cls-19{fill:#fcceb6;}.cls-20{stroke:#8c746d;stroke-width:3.12px;}.cls-21{fill:#8c746d;}.cls-22{fill:#afa19e;}.cls-23{fill:#7fa454;}.cls-24{fill:#7270a1;}.cls-25{fill:#b2d2ea;}.cls-26{fill:#f4f4f4;}.cls-27,.cls-37,.cls-40{fill:#bcb4b1;}.cls-27{opacity:0.24;}.cls-28{opacity:0.2;mix-blend-mode:multiply;}.cls-29{fill:#5b5857;}.cls-30{fill:#d1d0cb;}.cls-31{fill:#e8e8e8;}.cls-32{fill:#fff;}.cls-33{fill:#f4f2f2;}.cls-34{fill:#e86300;}.cls-35{fill:#ffe252;}.cls-36{fill:#e7ff80;}.cls-37{opacity:0.72;}.cls-38{fill:#bace65;}.cls-39{fill:#727070;}.cls-41{fill:#5f6684;}.cls-42{fill:#1f222b;}.cls-43,.cls-47{fill:#7f7674;}.cls-43{opacity:0.22;}.cls-44{clip-path:url(#clip-path-3);}.cls-45{fill:#c9b7b1;}.cls-46{fill:url(#Degradado_sin_nombre_23-3);}.cls-48{fill:#8e8583;}.cls-49{fill:#998e8c;}.cls-50{fill:#dbb26a;}.cls-51{fill:#a3af75;}.cls-52{fill:#ce9b49;}.cls-53{fill:#c9c9c9;}.cls-54{fill:#e0e0e0;}.cls-55{fill:#ebebeb;}.cls-56{opacity:0.25;fill:url(#Degradado_sin_nombre_78);}.cls-57{fill:#4198b7;}.cls-58{fill:#191919;}.cls-59{opacity:0.93;}.cls-59,.cls-60{mix-blend-mode:soft-light;}.cls-60{fill:#3f2b4d;opacity:0.4;}.cls-61{fill:#222530;}.cls-62{fill:#181a1e;}.cls-63{fill:#4da9dd;}.cls-64{fill:#58b7e0;}.cls-65{fill:#231d18;}.cls-66{fill:#28211a;}.cls-67{fill:#233142;}.cls-68{fill:#15171e;}.cls-69{fill:#1c1f2d;}.cls-70{fill:#232323;}.cls-71{fill:#1e1d1e;}.cls-72{opacity:0.1;}.cls-73{font-size:14px;fill:#ccc;font-family:CenturyGothic-Bold, Century Gothic;font-weight:700;}</style><clipPath id="clip-path"><rect class="cls-1" x="-17.2" y="-4.65" width="2526.82" height="1089.84" transform="translate(2492.42 1080.54) rotate(-180)"/></clipPath><linearGradient id="Degradado_sin_nombre_23" x1="133.77" y1="167.43" x2="204.41" y2="327.04" gradientTransform="matrix(-1, 0, 0, 1, 2466.42, 0)" gradientUnits="userSpaceOnUse"><stop offset="0" stop-color="#fff"/><stop offset="1" stop-color="#f2eae9" stop-opacity="0"/></linearGradient><linearGradient id="Degradado_sin_nombre_23-2" x1="111.58" y1="391.9" x2="173.81" y2="475.76" xlink:href="#Degradado_sin_nombre_23"/><clipPath id="clip-path-2"><polygon class="cls-1" points="2369.65 673.39 2369.65 744.1 2369.65 905.56 2164.02 905.56 2164.02 743.42 2164.02 673.39 2369.65 673.39"/></clipPath><clipPath id="clip-path-3"><rect class="cls-1" x="-19.2" y="-4.65" width="2518.82" height="1085.49" transform="translate(2480.42 1076.2) rotate(-180)"/></clipPath><linearGradient id="Degradado_sin_nombre_23-3" x1="1107.21" y1="300.21" x2="1374.57" y2="655.03" xlink:href="#Degradado_sin_nombre_23"/><linearGradient id="Degradado_sin_nombre_78" x1="1250.75" y1="1382.74" x2="1250.75" y2="-172.12" gradientUnits="userSpaceOnUse"><stop offset="0" stop-color="#e3e3e3"/><stop offset="0.46" stop-color="#c9e0e0"/><stop offset="0.76" stop-color="#bddfdf"/><stop offset="0.89" stop-color="#a0cfdd"/><stop offset="1" stop-color="#8cc3db"/></linearGradient></defs><title>SCTR-Y-VIDA-LEY-WEB-CRECER-SEGUROS-ACTUALIZADO</title><g class="cls-2"><g id="Capa_1" data-name="Capa 1"><g class="cls-3"><rect class="cls-4" x="-14.58" y="-8.65" width="2503.88" height="1097.65" transform="translate(2474.71 1080.35) rotate(-180)"/><rect class="cls-5" x="1635.24" y="-4.65" width="284.06" height="725.37" transform="translate(3554.53 716.08) rotate(-180)"/><rect class="cls-5" x="730.8" y="-4.65" width="85.69" height="725.37" transform="translate(1547.28 716.08) rotate(-180)"/><rect class="cls-5" x="1635.26" y="-4.65" width="414.6" height="725.37" transform="translate(3685.11 716.08) rotate(-180)"/><rect class="cls-4" x="1633.07" y="358.04" width="423.44" height="13.17"/><rect class="cls-4" x="1633.07" y="166.28" width="423.44" height="3.26"/><rect class="cls-4" x="1633.07" y="553.34" width="423.44" height="3.26"/><polygon class="cls-4" points="1836.76 730.84 1836.76 -12.74 1849.93 -12.74 1849.93 728.82 1836.76 730.84"/><rect class="cls-4" x="1958.13" y="-0.94" width="3.66" height="734.32"/><rect class="cls-4" x="1730.35" y="-0.94" width="3.66" height="734.32"/><rect class="cls-5" x="403.17" y="-4.65" width="414.6" height="725.37" transform="translate(1220.93 716.08) rotate(-180)"/><rect class="cls-4" x="400.98" y="358.04" width="423.44" height="13.17"/><rect class="cls-4" x="400.98" y="166.28" width="423.44" height="3.26"/><rect class="cls-4" x="400.98" y="553.34" width="423.44" height="3.26"/><rect class="cls-4" x="604.67" y="-12.74" width="13.17" height="734.32"/><rect class="cls-4" x="498.26" y="-0.94" width="3.66" height="734.32"/><rect class="cls-5" x="1012.45" y="-4.65" width="414.6" height="725.37" transform="translate(2439.5 716.08) rotate(-180)"/><rect class="cls-4" x="1010.27" y="358.04" width="423.44" height="13.17"/><rect class="cls-4" x="1010.27" y="166.28" width="423.44" height="3.26"/><rect class="cls-4" x="1010.27" y="553.34" width="423.44" height="3.26"/><rect class="cls-4" x="1213.96" y="-12.74" width="13.17" height="734.32"/><rect class="cls-4" x="1335.33" y="-0.94" width="3.66" height="734.32"/><rect class="cls-4" x="1107.55" y="-0.94" width="3.66" height="734.32"/></g><rect class="cls-6" x="2214.92" y="105.42" width="152.08" height="226.35"/><path class="cls-7" d="M2213.16,103.66h155.6V333.53h-155.6Zm152.08,3.52H2216.69V330h148.55Z"/><rect class="cls-5" x="2229.97" y="119.39" width="121.72" height="198.27"/><rect class="cls-8" x="2256.79" y="175.6" width="68.35" height="80.11" transform="translate(4581.93 431.3) rotate(-180)"/><path class="cls-9" d="M2365.14,284.3c-2,0-89.33-43.48-89.33-43.48l-.72-133.63h90Z"/><rect class="cls-10" x="2211.87" y="379.68" width="157.92" height="69.97"/><rect class="cls-11" x="2211.87" y="379.68" width="157.92" height="69.97"/><rect class="cls-12" x="2236.18" y="405.42" width="105.48" height="22.46"/><polygon class="cls-13" points="2368.39 447.89 2307.7 416.65 2307.7 381.14 2368.55 381.14 2368.39 447.89"/><rect class="cls-14" x="-13.62" y="865.28" width="2505.04" height="6.33" transform="translate(2477.79 1736.89) rotate(-180)"/><rect class="cls-15" x="-19.2" y="871.82" width="2510.56" height="210.02" transform="translate(2472.15 1953.67) rotate(-180)"/><g class="cls-16"><polygon class="cls-17" points="2435.26 673.39 2435.26 744.1 2435.26 905.56 2229.63 905.56 2229.63 743.42 2229.63 673.39 2435.26 673.39"/><g class="cls-18"><path class="cls-19" d="M2160.56,761.24a11.38,11.38,0,0,1,2.12-.51l2.6-.5c1-.19,2.23-.31,3.58-.49a119.06,119.06,0,0,1,23-.4c4.85.39,10.15,1,15.79,1.89s11.62,2.08,17.89,3.45c12.54,2.7,26.16,6.32,40.68,8.9s28.59,3.76,41.27,2.56a96.3,96.3,0,0,0,17.72-3.28c2.68-.9,5.29-1.7,7.72-2.7s4.76-2,7-3c4.44-2,8.49-3.68,12.16-4.91a46.14,46.14,0,0,1,9.68-2.25c.67-.11,1.32-.12,1.92-.16s1.17-.09,1.7-.06c1,0,1.94,0,2.65.13a12.27,12.27,0,0,1,2.16.36c0,.22-3-.44-8.35.36a48,48,0,0,0-9.46,2.48c-3.6,1.3-7.58,3.08-12,5.1-2.21,1-4.52,2-7,3.07s-5.09,1.89-7.81,2.83a95.77,95.77,0,0,1-18,3.48c-12.86,1.3-27.11.16-41.7-2.45s-28.23-6.27-40.71-9c-6.24-1.4-12.2-2.62-17.79-3.58s-10.86-1.62-15.66-2.08a130.34,130.34,0,0,0-22.83-.11c-1.35.13-2.55.19-3.58.34l-2.61.35A10.77,10.77,0,0,1,2160.56,761.24Z"/></g><g class="cls-18"><path class="cls-19" d="M2258.05,672.38a26.76,26.76,0,0,1,4,2.58l2.07,1.46c.77.51,1.64,1,2.55,1.6,1.84,1.13,3.87,2.52,6.29,3.77l3.73,2.06c1.3.71,2.72,1.32,4.16,2,2.84,1.45,6,2.68,9.34,4a131.45,131.45,0,0,0,45.61,8.8c3.58,0,7,0,10.18-.28,1.59-.12,3.14-.16,4.61-.33l4.23-.52c2.71-.26,5.11-.8,7.24-1.16,1.06-.2,2.06-.35,3-.54l2.46-.58a26.15,26.15,0,0,1,4.66-.91,27.77,27.77,0,0,1-4.5,1.52l-2.45.72c-.9.24-1.89.44-3,.68-2.13.44-4.54,1.07-7.27,1.4l-4.26.63c-1.48.21-3,.28-4.64.44-3.22.35-6.67.35-10.3.43a125.07,125.07,0,0,1-46.13-8.91c-3.34-1.42-6.54-2.71-9.39-4.23-1.44-.74-2.86-1.39-4.16-2.13l-3.72-2.17c-2.4-1.33-4.4-2.81-6.21-4-.9-.62-1.75-1.17-2.5-1.73l-2-1.58A26.7,26.7,0,0,1,2258.05,672.38Z"/></g><g class="cls-18"><path class="cls-19" d="M2146.43,706.4a13,13,0,0,1,1.64-1.76l2.07-2c.82-.82,1.89-1.62,3-2.59a79.57,79.57,0,0,1,22-12.65,86,86,0,0,1,37.15-5.35,77.85,77.85,0,0,1,21.75,5c7.28,2.74,14.24,6.78,21.3,10.83s14,8,21.14,10.59c.89.33,1.79.61,2.68.92s1.81.5,2.71.75l2.69.72c.89.24,1.81.35,2.71.53l2.69.5c.88.18,1.79.22,2.68.34,1.78.21,3.54.45,5.3.52a188.29,188.29,0,0,0,20,.11c6.28-.23,12.13-.49,17.49-.56a139.64,139.64,0,0,1,14.46.51l3.07.3c1,.13,1.92.3,2.82.44l2.59.43c.82.14,1.58.36,2.31.53,1.46.37,2.76.64,3.87,1l2.76,1a14,14,0,0,1,2.23.88,12.17,12.17,0,0,1-2.34-.57l-2.78-.8c-1.11-.29-2.42-.52-3.87-.83a112.79,112.79,0,0,0-25.1-1.68c-5.33.14-11.17.47-17.45.75a182.1,182.1,0,0,1-20.13,0c-1.78-.06-3.57-.3-5.39-.49-.9-.12-1.82-.16-2.73-.34l-2.74-.49c-.92-.18-1.85-.3-2.77-.54l-2.75-.72c-.92-.26-1.86-.46-2.78-.76s-1.83-.61-2.75-.94c-7.32-2.65-14.33-6.61-21.4-10.67s-13.94-8.05-21.06-10.75a77.12,77.12,0,0,0-21.31-5,86.28,86.28,0,0,0-36.61,4.93,83.39,83.39,0,0,0-22,12.07c-1.16.93-2.26,1.68-3.11,2.46l-2.17,1.93A13.72,13.72,0,0,1,2146.43,706.4Z"/></g><g class="cls-18"><path class="cls-19" d="M2243.6,750.23c0-.14,2.3.09,6.41-.2a46.12,46.12,0,0,0,16.66-4.47,13.35,13.35,0,0,0,4.55-3.12,4.89,4.89,0,0,0,.71-5.24,13.49,13.49,0,0,0-4.09-4.83c-.88-.71-1.84-1.35-2.83-2l-3-2a242.31,242.31,0,0,0-27.61-15.61,104.53,104.53,0,0,0-15.15-6.16,47.22,47.22,0,0,0-14.88-2.23A40.89,40.89,0,0,0,2191,707a62.73,62.73,0,0,0-10.73,5.31c-3.14,1.91-5.85,3.85-8.2,5.6s-4.32,3.34-6,4.62l-3.72,3a6.48,6.48,0,0,1-1.37,1,6.67,6.67,0,0,1,1.16-1.21c.78-.76,2-1.84,3.53-3.21s3.48-3,5.8-4.85a90.89,90.89,0,0,1,8.15-5.86,62.13,62.13,0,0,1,10.85-5.6,41.71,41.71,0,0,1,13.77-2.91,48,48,0,0,1,15.38,2.2,103.46,103.46,0,0,1,15.39,6.21,230.14,230.14,0,0,1,27.73,15.83l3,2c1,.68,2,1.35,2.9,2.11a14.81,14.81,0,0,1,4.44,5.44,6.52,6.52,0,0,1,.45,3.49,6.24,6.24,0,0,1-1.46,3.07,14.25,14.25,0,0,1-5,3.34,44.21,44.21,0,0,1-17.13,4.07,41.81,41.81,0,0,1-4.79-.14A6,6,0,0,1,2243.6,750.23Z"/></g><g class="cls-18"><path class="cls-19" d="M2175.87,747a34.47,34.47,0,0,1,5.16-1.35c3.34-.77,8.19-1.84,14.18-3.11l21.08-4.41,12.46-2.55c1.06-.23,2.22-.42,3.2-.68s1.87-.72,2.08-1.43-.11-1.46-.88-2.13a8,8,0,0,0-2.76-1.47,72.52,72.52,0,0,0-25.77-2.93l-3,.24c-1,.1-1.92.26-2.86.38-1.9.21-3.69.66-5.45,1s-3.42.81-5,1.29-3.13.92-4.53,1.5a75.25,75.25,0,0,0-13,6.18c-.75.41-1.39.82-1.94,1.19l-1.4.89a4.41,4.41,0,0,1-1.22.65s.32-.36,1-.92l1.32-1a21.07,21.07,0,0,1,1.87-1.32,65.57,65.57,0,0,1,12.94-6.73c1.42-.61,3-1.06,4.57-1.62s3.31-.94,5.07-1.4,3.61-.84,5.53-1.07c1-.14,1.93-.31,2.92-.43l3-.27a71.79,71.79,0,0,1,12.83.16,73.6,73.6,0,0,1,13.52,2.71,9.49,9.49,0,0,1,3.35,1.8,4.64,4.64,0,0,1,1.25,1.64,3,3,0,0,1,.08,2.27,3.37,3.37,0,0,1-1.39,1.68,6.54,6.54,0,0,1-1.78.74c-1.18.3-2.22.46-3.32.69l-12.48,2.46-21.14,4.06c-6,1.14-10.9,2-14.28,2.61A34.34,34.34,0,0,1,2175.87,747Z"/></g><g class="cls-18"><path class="cls-19" d="M2304.47,743.6a9.43,9.43,0,0,1,2.51-1.16c.83-.33,1.85-.71,3.05-1.08s2.57-.84,4.11-1.22,3.22-.86,5.05-1.22,3.8-.72,5.88-1.07a101.18,101.18,0,0,1,27.3-.31c2.08.29,4.07.55,5.9.93s3.54.72,5.08,1.1,2.93.78,4.14,1.13,2.24.69,3.07,1a8.47,8.47,0,0,1,2.53,1.1c-.08.26-3.82-.88-10-2.12-1.54-.3-3.23-.63-5.06-.89s-3.78-.52-5.84-.77a126.13,126.13,0,0,0-13.47-.64,124.79,124.79,0,0,0-13.46,1c-2.05.3-4,.54-5.82.9s-3.5.67-5,1C2308.28,742.63,2304.56,743.86,2304.47,743.6Z"/></g><g class="cls-18"><path class="cls-19" d="M2372.66,816.4c-.08,0-.26-.72-.88-2a16.65,16.65,0,0,0-3.77-5,30.62,30.62,0,0,0-8.35-5.32,68.38,68.38,0,0,0-12.51-4.25,136.67,136.67,0,0,0-15.84-2.73c-5.75-.71-11.94-1.26-18.43-2.1-13.05-1.6-27-5.42-41.43-9.76-7.23-2.16-14.27-4.28-21.12-6.08a203.87,203.87,0,0,0-20-4.3,182.91,182.91,0,0,0-34.45-2.17,193.1,193.1,0,0,0-23.22,2.2c-2.72.44-4.83.79-6.26,1.06a11.84,11.84,0,0,1-2.21.3,10.87,10.87,0,0,1,2.14-.62c1.41-.37,3.51-.82,6.23-1.36a166.76,166.76,0,0,1,23.28-2.73,176.18,176.18,0,0,1,34.73,1.84,199.67,199.67,0,0,1,20.12,4.24c6.9,1.79,14,3.91,21.18,6.06,14.42,4.34,28.25,8.17,41.17,9.84,6.44.88,12.63,1.48,18.4,2.24a133.52,133.52,0,0,1,15.95,3,67.37,67.37,0,0,1,12.61,4.55,30.37,30.37,0,0,1,8.41,5.68,15.94,15.94,0,0,1,3.63,5.28,10.63,10.63,0,0,1,.5,1.6C2372.66,816.21,2372.69,816.4,2372.66,816.4Z"/></g><g class="cls-18"><path class="cls-19" d="M2209.58,746.57a3.83,3.83,0,0,1,1.23-.39,25.84,25.84,0,0,1,3.68-.55,42.57,42.57,0,0,1,13.58,1.33c5.64,1.34,12,4,19,6.8a102.26,102.26,0,0,0,11.13,3.91l1.48.44c.49.13,1,.24,1.5.36l3.06.71c1,.23,2.08.38,3.13.57s2.11.4,3.19.5a89.89,89.89,0,0,0,24.35-.13,92.84,92.84,0,0,0,19.31-4.94,99.15,99.15,0,0,0,12.26-5.62,30.25,30.25,0,0,1,4.37-2.38,28.78,28.78,0,0,1-4.05,2.93,81.72,81.72,0,0,1-12.16,6.14,87.77,87.77,0,0,1-44.29,5.61,90.65,90.65,0,0,1-23.84-6.71c-7-2.93-13.24-5.62-18.73-7.08a46.65,46.65,0,0,0-13.27-1.81C2211.34,746.33,2209.6,746.72,2209.58,746.57Z"/></g><g class="cls-18"><path class="cls-19" d="M2290.07,828.23s.11-.12.36-.27a5.45,5.45,0,0,1,1.2-.53,12.82,12.82,0,0,1,5-.22c1.07.1,2.27.28,3.53.32a9.28,9.28,0,0,0,4-.81,4,4,0,0,0,2.62-3.21c.12-1.52-1.06-2.94-2.52-4.06a156.89,156.89,0,0,0-53.8-25.33,164.86,164.86,0,0,0-32.5-5,158.26,158.26,0,0,0-26.87.84c-3.8.5-7.25.88-10.23,1.53s-5.6,1-7.67,1.55-3.71.88-4.82,1.12a7.46,7.46,0,0,1-1.72.29,7,7,0,0,1,1.63-.61c1.08-.34,2.68-.82,4.76-1.42s4.65-1.16,7.64-1.82,6.45-1.2,10.27-1.78a150.56,150.56,0,0,1,27.08-1.2,160.71,160.71,0,0,1,32.84,4.94,157.94,157.94,0,0,1,31.09,11.64,153.22,153.22,0,0,1,23,14.37,10,10,0,0,1,2,2.16,4.65,4.65,0,0,1,.78,2.86,4.13,4.13,0,0,1-1.17,2.56,6.46,6.46,0,0,1-2.11,1.41,9.88,9.88,0,0,1-4.36.75c-1.35-.09-2.52-.32-3.58-.46a13.5,13.5,0,0,0-4.85-.09C2290.63,828,2290.11,828.3,2290.07,828.23Z"/></g><g class="cls-18"><path class="cls-19" d="M2257.81,824.91a3.72,3.72,0,0,1,1.23-.15,19.92,19.92,0,0,0,3.43-.44,8.11,8.11,0,0,0,2.24-.92,5.62,5.62,0,0,0,1.86-2,3.46,3.46,0,0,0,.21-3,7.73,7.73,0,0,0-2.45-2.64,61.4,61.4,0,0,0-7.21-5.1,69.45,69.45,0,0,0-9.1-4.48,75.73,75.73,0,0,0-22.6-5.07,93.29,93.29,0,0,0-23.21,1.37,134.78,134.78,0,0,0-18.49,4.74c-5.18,1.69-9.29,3.3-12.13,4.41a30.08,30.08,0,0,1-4.47,1.62,23.78,23.78,0,0,1,4.22-2.2c2.77-1.29,6.84-3.07,12-4.92a121.93,121.93,0,0,1,18.59-5.12,90.77,90.77,0,0,1,23.59-1.52,74.91,74.91,0,0,1,23.06,5.3,67.46,67.46,0,0,1,9.23,4.72,59.61,59.61,0,0,1,7.25,5.37,8.41,8.41,0,0,1,2.66,3.13,4.37,4.37,0,0,1-.36,3.77,6.25,6.25,0,0,1-2.26,2.28,8.13,8.13,0,0,1-2.5.87,15.09,15.09,0,0,1-3.57.16A3.7,3.7,0,0,1,2257.81,824.91Z"/></g><g class="cls-18"><path class="cls-19" d="M2165.4,849.65a10.79,10.79,0,0,1,2-.65c.69-.19,1.53-.42,2.53-.67l3.52-.64a77.48,77.48,0,0,1,9.75-.84,103.09,103.09,0,0,1,12.95.64c4.77.52,10,1.35,15.51,2.41s11.4,2.35,17.59,3.6q4.65.94,9.52,1.79l4.95.72c1.67.22,3.34.54,5.05.67,3.41.32,6.87.77,10.41.89l5.34.29,5.41.07a196.54,196.54,0,0,0,40.72-4,203.1,203.1,0,0,0,32.12-9.35l3.25-1.27,1.57-.6,1.5-.66,5.56-2.44c3.43-1.6,6.35-3.07,8.75-4.23s4.18-2.25,5.44-2.89a10,10,0,0,1,2-.91,11.93,11.93,0,0,1-1.79,1.19c-1.2.74-3,1.81-5.3,3.16s-5.25,2.82-8.67,4.51l-5.53,2.56-1.5.68-1.56.64-3.25,1.33a193.26,193.26,0,0,1-32.23,9.74,191.11,191.11,0,0,1-41,4.16l-5.46-.06-5.38-.3c-3.57-.14-7.06-.6-10.5-.93-1.72-.14-3.41-.46-5.09-.69l-5-.75q-4.91-.87-9.56-1.85c-6.2-1.3-12.05-2.64-17.56-3.75s-10.65-2-15.37-2.59a108.69,108.69,0,0,0-12.81-.87,85.35,85.35,0,0,0-9.68.56l-3.5.49-2.55.51A11.11,11.11,0,0,1,2165.4,849.65Z"/></g><g class="cls-18"><path class="cls-19" d="M2156,831.08a16.6,16.6,0,0,1,3.83,0c2.46.14,6,.4,10.39.75l15.38,1.3c5.78.5,12.14,1,18.8,1.1a107.5,107.5,0,0,0,18.71-1.2,73.34,73.34,0,0,0,14.75-3.92c8.15-3.16,12.41-6.69,12.58-6.42,0,0-.2.29-.7.72a27.62,27.62,0,0,1-2.25,1.73,50.7,50.7,0,0,1-9.19,5,69.3,69.3,0,0,1-14.94,4.33,100.27,100.27,0,0,1-19,1.34c-6.74-.09-13.13-.65-18.92-1.23s-11-1.16-15.35-1.65-7.9-.93-10.34-1.26A17.31,17.31,0,0,1,2156,831.08Z"/></g><g class="cls-18"><path class="cls-19" d="M2151,868a12.18,12.18,0,0,1,1.83-1.41c.62-.43,1.43-.9,2.38-1.48s2.09-1.16,3.41-1.73a60.17,60.17,0,0,1,23.74-4.94,104.54,104.54,0,0,1,16.77,1.15c6,.83,12.31,2.1,18.94,3.41,3.31.65,6.71,1.31,10.19,1.9,1.74.31,3.5.56,5.28.82s3.58.48,5.4.69a192.83,192.83,0,0,0,66.08-3.9c6.57-1.52,12.69-3.41,18.43-5.22s11.1-3.48,16.07-4.76c9.94-2.62,18.36-3.3,24.1-2.83a33.11,33.11,0,0,1,3.8.42c.54.08,1.05.14,1.51.23l1.24.29a13.07,13.07,0,0,1,2.22.61,12,12,0,0,1-2.29-.29l-1.24-.21c-.45-.06-1-.1-1.5-.15a35.81,35.81,0,0,0-3.77-.27c-5.68-.27-13.95.57-23.77,3.31-4.92,1.34-10.24,3.07-16,4.94s-11.88,3.81-18.49,5.38a189.11,189.11,0,0,1-66.61,4c-1.84-.21-3.65-.43-5.45-.72s-3.57-.52-5.32-.84c-3.5-.61-6.9-1.29-10.22-2-6.63-1.36-12.91-2.66-18.83-3.55a107.21,107.21,0,0,0-16.57-1.33,62,62,0,0,0-23.5,4.37c-1.32.52-2.44,1.11-3.43,1.57s-1.79,1-2.44,1.34A13.58,13.58,0,0,1,2151,868Z"/></g><g class="cls-18"><path class="cls-19" d="M2156.48,896.71a12.75,12.75,0,0,1,1.39-1.88c.49-.59,1.15-1.27,1.93-2.08a35.79,35.79,0,0,1,2.93-2.54,42.23,42.23,0,0,1,9.19-5.36,57.1,57.1,0,0,1,13.54-3.83,87.66,87.66,0,0,1,17-.86c6.12.2,12.62.83,19.44,1.38,3.41.27,6.9.51,10.46.62s7.21.05,10.92-.12c7.42-.33,15.08-1.16,22.92-2.12s15.51-2,23-2.62a161.41,161.41,0,0,1,21.58-.63,96.18,96.18,0,0,1,35.5,8.26,93.91,93.91,0,0,1,21,12.85c1.14.89,2.1,1.77,2.94,2.5s1.53,1.39,2.07,1.93a12.84,12.84,0,0,1,1.61,1.69,12.43,12.43,0,0,1-1.83-1.45c-.58-.5-1.29-1.11-2.17-1.8s-1.85-1.52-3-2.37a98.87,98.87,0,0,0-21-12.29,97,97,0,0,0-35.1-7.83,166,166,0,0,0-21.38.72c-7.41.67-15.06,1.69-22.91,2.65s-15.56,1.79-23,2.1c-3.74.16-7.43.17-11,.08s-7.12-.39-10.54-.68c-6.83-.59-13.3-1.27-19.36-1.52a88.35,88.35,0,0,0-16.8.64,58,58,0,0,0-13.37,3.54,42.78,42.78,0,0,0-9.16,5c-1.18.82-2.12,1.68-3,2.39s-1.49,1.4-2,1.95A11.46,11.46,0,0,1,2156.48,896.71Z"/></g><g class="cls-18"><path class="cls-19" d="M2193.16,906.31a5.84,5.84,0,0,1,1.53.18l1.82.32,2.49.37a93.41,93.41,0,0,0,16,.74,155.47,155.47,0,0,0,23.59-2.94c8.81-1.68,18.41-4.07,28.6-6.16s20.09-3.48,29.17-3.47a79.16,79.16,0,0,1,23.76,3.42,54.76,54.76,0,0,1,14.59,7l2,1.51c.59.45,1,.88,1.43,1.2.75.67,1.13,1,1.09,1.08a5.61,5.61,0,0,1-1.3-.82c-.41-.28-.9-.66-1.5-1.07l-2.11-1.37a58.75,58.75,0,0,0-14.57-6.45,81.27,81.27,0,0,0-23.42-3c-8.94.07-18.71,1.51-28.86,3.57s-19.76,4.42-28.64,6a145.92,145.92,0,0,1-23.84,2.62,80.81,80.81,0,0,1-16.12-1.27l-2.49-.52c-.71-.16-1.31-.34-1.8-.47A5.15,5.15,0,0,1,2193.16,906.31Z"/></g></g><path class="cls-20" d="M2369.65,749.11H2220.84"/><path class="cls-20" d="M2369.65,825.71H2220.82"/><rect class="cls-21" x="2278.31" y="749.11" width="31.43" height="6.67"/><rect class="cls-21" x="2278.31" y="673.39" width="31.43" height="6.67"/><rect class="cls-21" x="2278.31" y="825.31" width="31.43" height="6.67"/><rect class="cls-22" x="2173.35" y="673.39" width="56.82" height="232.29"/><rect class="cls-23" x="2349.57" y="577.75" width="20.08" height="95.64"/><rect class="cls-24" x="2325.39" y="587.48" width="13.99" height="85.9"/><rect class="cls-25" x="2341.04" y="587.48" width="7" height="85.9"/><path class="cls-26" d="M2281.23,633.78l1.87,7.79-1.87,2.8V649l1.87,4.36-1.87,1.56v10.89l1.87,1.25-1.87,1.56v5.91h-99.94v-7.16l1.86-3.42-1.86-15.57,1.55-7.47s1.56-3.12,1.56-4.05-.31-3.12-.31-3.12Z"/><polygon class="cls-27" points="2229.8 674.57 2232.19 663.28 2229.8 658.63 2229.8 654.18 2232.19 651.84 2229.8 648.27 2229.8 633.78 2184.09 633.78 2184.4 636.9 2182.84 640.95 2181.29 648.42 2183.16 663.99 2181.29 667.41 2181.29 674.57 2229.8 674.57"/><ellipse class="cls-28" cx="1085.9" cy="915" rx="301.93" ry="22.54"/><ellipse class="cls-28" cx="1791.9" cy="915" rx="301.93" ry="22.54"/><polyline class="cls-29" points="1768.33 676.83 1768.33 693.13 1818.75 693.13 1818.75 695.62 1818.75 695.62 1682.25 695.62 1682.25 691.09 1730.17 691.6 1732.16 676.83 1768.33 676.83"/><rect class="cls-5" x="1684.18" y="589.6" width="132.69" height="72.72"/><polygon class="cls-30" points="1811.92 601.47 1811.92 604.56 1698.09 604.56 1699.23 600.5 1811.92 601.47"/><rect class="cls-29" x="1674.1" y="575.98" width="157.58" height="100.85" transform="translate(3505.78 1252.8) rotate(-180)"/><rect class="cls-31" x="1678.57" y="581.57" width="148.63" height="89.67"/><rect class="cls-32" x="1682.25" y="584.53" width="141.35" height="82.54" transform="translate(3505.84 1251.6) rotate(-180)"/><rect class="cls-33" x="1682.25" y="584.53" width="141.35" height="4.99" transform="translate(3505.84 1174.05) rotate(-180)"/><path class="cls-34" d="M1821.09,587.13a.69.69,0,0,0-1.2.69.69.69,0,1,0,1.2-.69Z"/><path class="cls-35" d="M1818.48,587.13a.69.69,0,0,0-1-.25.68.68,0,0,0-.26.94.7.7,0,0,0,1.21-.69Z"/><path class="cls-36" d="M1815.78,587.48a.7.7,0,1,0-.69.69A.69.69,0,0,0,1815.78,587.48Z"/><rect class="cls-33" x="1692.86" y="595.49" width="124.08" height="64.84" transform="translate(3509.8 1255.81) rotate(-180)"/><rect class="cls-37" x="1703.68" y="600.51" width="105.54" height="2.89" transform="translate(3512.9 1203.9) rotate(-180)"/><rect class="cls-37" x="1703.68" y="607.26" width="105.54" height="2.89" transform="translate(3512.9 1217.41) rotate(-180)"/><rect class="cls-37" x="1703.68" y="635.95" width="105.54" height="2.89" transform="translate(3512.9 1274.79) rotate(-180)"/><rect class="cls-37" x="1703.68" y="642.7" width="105.54" height="2.89" transform="translate(3512.9 1288.3) rotate(-180)"/><rect class="cls-37" x="1703.68" y="613.43" width="105.54" height="2.89" transform="translate(3512.9 1229.76) rotate(-180)"/><rect class="cls-37" x="1745.77" y="619.46" width="63.45" height="2.89" transform="translate(3554.98 1241.82) rotate(-180)"/><path class="cls-38" d="M1634.57,660.86l3.21-7s15.8.29,17-11.7-5-9.06-5-9.06-3.51-.59-3.51,7.3-3.81,9.36-6.44,9.36c0,0,6.44-19.59-10.53-20.76s-10.23,22.81-10.23,22.81-5.27-.33-4.68-6.89-3.8-7.73-3.8-7.73-7.32-.59-5.27,9.36,16.09,9.65,16.09,9.65v4.68Z"/><path class="cls-39" d="M1647.73,660.86c0,1.17-7.31,34.8-7.31,34.8h-23.11l-5.55-36Z"/><rect class="cls-40" x="1557.65" y="695.62" width="461.84" height="14.76"/><path class="cls-40" d="M1571.41,722.52V919.89h428.91V720.72h-33.53V710.38h-28.18v13.23H1627v-18h-18.79v16.91Zm16,10.86h399.06v176.7H1587.37Z"/><path class="cls-41" d="M1763.68,785.34s.81,9.13,3.49,10.21,42.17,12.89,81.11,9.13,59.89-8.33,61.5-14v-5.37S1830.28,778.62,1763.68,785.34Z"/><polygon class="cls-42" points="1832.11 805.35 1832.11 810.25 1856.75 810.25 1856.75 803.82 1832.11 805.35"/><rect class="cls-42" x="1841.04" y="810.25" width="6.26" height="35.96"/><path class="cls-42" d="M1836.66,846.21c-.67.89,0,59.26,0,59.26H1852V846.21Z"/><rect class="cls-42" x="1764.19" y="903.98" width="148.93" height="6.21"/><path class="cls-42" d="M1913.13,916.86c0,3.67-2.69,6.65-6,6.65s-6-3-6-6.65,2.68-6.66,6-6.66S1913.13,913.18,1913.13,916.86Z"/><path class="cls-42" d="M1775.56,916.86a6.66,6.66,0,1,1-6.65-6.66A6.65,6.65,0,0,1,1775.56,916.86Z"/><path class="cls-42" d="M1857.85,916.86a6.66,6.66,0,1,1-6.66-6.66A6.66,6.66,0,0,1,1857.85,916.86Z"/><path class="cls-42" d="M1840.78,805.21s20.19-7.1,21.08-21.15h15.75s-5.57,18-25.54,20.3-1.09-.1-1.09-.1Z"/><path class="cls-41" d="M1793.68,682.91h0a36.21,36.21,0,0,0,36.21,36.21h66.33a36.21,36.21,0,0,0,36.15-38.22h0a36.2,36.2,0,0,0-36.15-34.2h-66.33A36.21,36.21,0,0,0,1793.68,682.91Z"/><path class="cls-42" d="M1861.86,696.7v87.36h15.75l1.62-87.2a8.69,8.69,0,0,0-8.36-8.84h0A8.68,8.68,0,0,0,1861.86,696.7Z"/><path class="cls-43" d="M1767.17,795.55s91.57-6,142.61-4.84c0,0,2.94,10.33-72,14.62C1837.82,805.33,1799.15,806.5,1767.17,795.55Z"/><g class="cls-44"><rect class="cls-45" x="1010.58" y="-4.65" width="450.34" height="12.63"/><rect class="cls-45" x="1010.58" y="14.3" width="450.34" height="12.63"/><rect class="cls-45" x="1010.58" y="35.03" width="450.34" height="12.63"/><rect class="cls-45" x="1010.58" y="55.75" width="450.34" height="12.63"/><rect class="cls-45" x="1010.58" y="76.48" width="450.34" height="12.63"/><rect class="cls-45" x="1010.58" y="97.21" width="450.34" height="12.63"/><rect class="cls-45" x="1010.58" y="117.94" width="450.34" height="12.63"/><rect class="cls-45" x="1010.58" y="138.66" width="450.34" height="12.63"/><rect class="cls-45" x="1010.58" y="156.91" width="450.34" height="12.63"/><rect class="cls-45" x="1010.58" y="176.42" width="450.34" height="12.63"/><rect class="cls-45" x="1010.58" y="195.94" width="450.34" height="12.63"/><rect class="cls-45" x="1010.58" y="215.45" width="450.34" height="12.63"/><polygon class="cls-46" points="1024.71 232.23 611.73 737.52 1457.18 724.87 1461.7 232.23 1024.71 232.23"/><rect class="cls-45" x="1630.09" y="-6.03" width="424.53" height="12.63"/><rect class="cls-45" x="1630.09" y="13.48" width="424.53" height="12.63"/><rect class="cls-45" x="1630.09" y="33" width="424.53" height="12.63"/></g><rect class="cls-40" x="806.89" y="695.62" width="461.84" height="14.76"/><path class="cls-40" d="M820.65,722.52V919.89h428.91V720.72H1216V710.38h-28.18v13.23H876.23v-18H857.44v16.91Zm16,10.86h399.06v176.7H836.61Z"/><polyline class="cls-29" points="974.07 676.83 974.07 693.13 1024.49 693.13 1024.49 695.62 1024.49 695.62 887.99 695.62 887.99 691.09 935.91 691.6 937.9 676.83 974.07 676.83"/><rect class="cls-5" x="889.92" y="589.6" width="132.69" height="72.72"/><polygon class="cls-30" points="1017.66 601.47 1017.66 604.56 903.83 604.56 904.97 600.5 1017.66 601.47"/><rect class="cls-29" x="879.84" y="575.98" width="157.58" height="100.85" transform="translate(1917.26 1252.8) rotate(-180)"/><rect class="cls-31" x="884.31" y="581.57" width="148.63" height="89.67"/><rect class="cls-32" x="887.99" y="584.53" width="141.35" height="82.54" transform="translate(1917.32 1251.6) rotate(-180)"/><rect class="cls-33" x="887.99" y="584.53" width="141.35" height="4.99" transform="translate(1917.32 1174.05) rotate(-180)"/><path class="cls-34" d="M1026.83,587.13a.69.69,0,1,0-.25,1A.7.7,0,0,0,1026.83,587.13Z"/><path class="cls-35" d="M1024.21,587.13a.69.69,0,0,0-1.2.69.69.69,0,1,0,1.2-.69Z"/><path class="cls-36" d="M1021.52,587.48a.7.7,0,1,0-.69.69A.69.69,0,0,0,1021.52,587.48Z"/><rect class="cls-33" x="898.6" y="595.49" width="124.07" height="64.84" transform="translate(1921.27 1255.81) rotate(-180)"/><rect class="cls-37" x="909.42" y="600.51" width="105.54" height="2.89" transform="translate(1924.38 1203.9) rotate(-180)"/><rect class="cls-37" x="909.42" y="607.26" width="105.54" height="2.89" transform="translate(1924.38 1217.41) rotate(-180)"/><rect class="cls-37" x="909.42" y="635.95" width="105.54" height="2.89" transform="translate(1924.38 1274.79) rotate(-180)"/><rect class="cls-37" x="909.42" y="642.7" width="105.54" height="2.89" transform="translate(1924.38 1288.3) rotate(-180)"/><rect class="cls-37" x="909.42" y="613.43" width="105.54" height="2.89" transform="translate(1924.38 1229.76) rotate(-180)"/><rect class="cls-37" x="951.5" y="619.46" width="63.45" height="2.89" transform="translate(1966.46 1241.82) rotate(-180)"/><polygon class="cls-29" points="1150.6 575.98 1150.6 680.43 1145.62 680.43 1145.62 576.93 1150.6 575.98"/><polygon class="cls-29" points="1145.62 648.6 1114.35 695.62 1150.6 695.62 1125.59 691.78 1145.62 658.08 1145.62 648.6"/><polygon class="cls-29" points="1208.75 695.62 1207.42 694.18 1163.15 693.35 1161.75 695.62 1208.75 695.62"/><polygon class="cls-47" points="1276.18 802.63 1276.18 807.53 1251.55 807.53 1251.55 801.1 1276.18 802.63"/><rect class="cls-48" x="1261" y="807.53" width="6.26" height="35.96"/><path class="cls-47" d="M1271.64,843.49c.67.89,0,59.26,0,59.26h-15.31V843.49Z"/><rect class="cls-47" x="1195.17" y="901.26" width="148.93" height="6.22"/><path class="cls-47" d="M1195.17,914.13c0,3.68,2.68,6.66,6,6.66s6-3,6-6.66-2.69-6.65-6-6.65S1195.17,910.46,1195.17,914.13Z"/><path class="cls-47" d="M1332.73,914.13a6.66,6.66,0,1,0,6.66-6.65A6.66,6.66,0,0,0,1332.73,914.13Z"/><path class="cls-47" d="M1250.45,914.13a6.66,6.66,0,1,0,6.65-6.65A6.66,6.66,0,0,0,1250.45,914.13Z"/><path class="cls-49" d="M1326,783.45s-.72,9.13-3.11,10.21-37.52,12.89-72.18,9.13-53.3-8.33-54.73-14v-5.37S1266.75,776.74,1326,783.45Z"/><path class="cls-43" d="M1322.91,793.66s-81.49-6-126.91-4.84c0,0-2.62,10.33,64,14.62C1260,803.44,1294.46,804.61,1322.91,793.66Z"/><path class="cls-47" d="M1316.87,670.8s3.29.89,6,14.49-3,99.82-3,99.82l-12.12-3.3Z"/><path class="cls-49" d="M1302.49,735.38h0A12.29,12.29,0,0,0,1316.4,725l9.83-68.57a12.28,12.28,0,0,0-10.41-13.9h0a12.26,12.26,0,0,0-13.9,10.41l-9.84,68.57A12.28,12.28,0,0,0,1302.49,735.38Z"/><polygon class="cls-50" points="1101.2 660.21 1097.93 695.62 1072.34 695.62 1067.88 660.21 1101.2 660.21"/><path class="cls-51" d="M1117.53,590l-19.34,70.22h-25.88s-28.57-103-23.21-106.23l25.59,103s-14.29-90.16-13.1-93.43,14.88,72.3,14.88,72.3-7.74-112.18-4.76-113.66,8.33,91.64,8.33,91.64-.37-72.3,2.94-73.2-.63,100.58,0,101.47,3-58.62,5.39-58.62.6,44.63.6,44.63,10.71-80.33,14.28-80.63-6.84,55.94-6.55,54.75,12.2-46.12,14.88-46.12-19.34,87.18-19.34,87.18,18.15-71.41,21.72-70.52S1097.9,643,1097.9,643,1110.69,588.2,1117.53,590Z"/><polygon class="cls-52" points="1098.19 660.21 1078.73 695.62 1097.93 695.62 1101.2 660.21 1098.19 660.21"/><path class="cls-49" d="M1112.45,782.86s-.81,9.13-3.49,10.21-42.17,12.89-81.11,9.13-59.89-8.33-61.5-14v-5.37S1045.84,776.15,1112.45,782.86Z"/><polygon class="cls-47" points="1044.02 802.87 1044.02 807.77 1019.38 807.77 1019.38 801.34 1044.02 802.87"/><rect class="cls-48" x="1028.83" y="807.77" width="6.26" height="35.96"/><path class="cls-47" d="M1039.47,843.73c.67.89,0,59.26,0,59.26h-15.31V843.73Z"/><rect class="cls-47" x="963" y="901.5" width="148.93" height="6.21"/><path class="cls-47" d="M963,914.38c0,3.67,2.69,6.65,6,6.65s6-3,6-6.65-2.69-6.66-6-6.66S963,910.7,963,914.38Z"/><path class="cls-47" d="M1100.56,914.38a6.66,6.66,0,1,0,6.66-6.66A6.66,6.66,0,0,0,1100.56,914.38Z"/><path class="cls-47" d="M1018.28,914.38a6.66,6.66,0,1,0,6.66-6.66A6.66,6.66,0,0,0,1018.28,914.38Z"/><path class="cls-47" d="M1035.34,802.73s-20.18-7.09-21.07-21.15H998.52s5.57,18,25.53,20.3,1.1-.1,1.1-.1Z"/><path class="cls-49" d="M1082.45,680.43h0a36.21,36.21,0,0,1-36.21,36.21H979.91a36.21,36.21,0,0,1-36.15-38.22h0a36.2,36.2,0,0,1,36.15-34.2h66.33A36.21,36.21,0,0,1,1082.45,680.43Z"/><path class="cls-47" d="M1014.27,694.22v87.36H998.52l-1.62-87.2a8.69,8.69,0,0,1,8.36-8.84h0A8.69,8.69,0,0,1,1014.27,694.22Z"/><path class="cls-43" d="M1109,793.07s-91.57-6-142.61-4.84c0,0-2.94,10.33,72,14.62C1038.31,802.85,1077,804,1109,793.07Z"/><rect class="cls-45" x="123.15" y="116.68" width="162.59" height="169.48" transform="translate(408.89 402.85) rotate(-180)"/><rect class="cls-53" x="145.01" y="139.47" width="118.87" height="123.92" transform="translate(408.89 402.85) rotate(-180)"/><path class="cls-54" d="M263.88,264.21a22.82,22.82,0,0,0,3,3.36c1.91,2,4.58,4.7,7.57,7.65s5.74,5.58,7.76,7.45a21.76,21.76,0,0,0,3.39,2.9,21.86,21.86,0,0,0-3-3.35c-1.9-2-4.58-4.71-7.58-7.66s-5.75-5.59-7.77-7.46A20.7,20.7,0,0,0,263.88,264.21Z"/><path class="cls-54" d="M145,263.9a22,22,0,0,0-3.37,3c-2,1.91-4.7,4.58-7.65,7.58s-5.58,5.73-7.45,7.75a22.33,22.33,0,0,0-2.9,3.39,22.07,22.07,0,0,0,3.35-2.95c2-1.91,4.71-4.59,7.66-7.59s5.59-5.75,7.46-7.77A21.87,21.87,0,0,0,145,263.9Z"/><path class="cls-54" d="M145.33,139.8a22,22,0,0,0-3-3.37c-1.91-2-4.58-4.7-7.57-7.65s-5.74-5.57-7.76-7.45a21.76,21.76,0,0,0-3.39-2.9,22.16,22.16,0,0,0,3,3.36c1.9,2,4.58,4.7,7.58,7.65s5.75,5.59,7.77,7.47A22.08,22.08,0,0,0,145.33,139.8Z"/><path class="cls-54" d="M264.2,140.1a22,22,0,0,0,3.37-3c2-1.91,4.7-4.58,7.65-7.57s5.58-5.74,7.45-7.76a21.76,21.76,0,0,0,2.9-3.39,21.86,21.86,0,0,0-3.35,3c-2,1.9-4.71,4.58-7.66,7.58s-5.59,5.75-7.46,7.77A21.87,21.87,0,0,0,264.2,140.1Z"/><path class="cls-54" d="M145.33,263.38s0-.21,0-.6,0-1,0-1.72c0-1.54,0-3.78,0-6.68,0-5.86.06-14.4.1-25.25,0-21.7.12-52.63.2-89.66l-.39.38,118.54.06h0l-.45-.44c0,45.48.05,88,.07,123.91l.38-.38-85.86.19-24.1.1-6.37,0-1.65,0-.57,0a5.12,5.12,0,0,0,.53,0l1.6,0,6.3,0,24,.1,86.1.2h.38v-.39c0-35.88,0-78.43.07-123.91V139h-.46l-118.54.06h-.39v.39c.08,37.13.15,68.15.2,89.91,0,10.81.08,19.32.1,25.16,0,2.87,0,5.08,0,6.6,0,.73,0,1.28,0,1.69S145.33,263.38,145.33,263.38Z"/><path class="cls-55" d="M232.51,191.23s2.54,30.68-30.68,30.68C201.83,205.54,215.33,192.62,232.51,191.23Z"/><path class="cls-55" d="M171.71,191.26s30.68-2.55,30.68,30.68C186,221.94,173.09,208.43,171.71,191.26Z"/><path class="cls-54" d="M203.3,174.46s25.06,22.5-1.37,47.45C189.63,208.89,190.67,188.46,203.3,174.46Z"/><rect class="cls-56" x="-3.5" y="-1.3" width="2508.5" height="1089.63"/><ellipse class="cls-28" cx="448.35" cy="990.19" rx="281.38" ry="41.88"/><path class="cls-57" d="M436.84,550.28,460.21,553A10.62,10.62,0,0,0,472,543.49h0a10.62,10.62,0,0,0-9.33-11.57L439.3,529.2a10.62,10.62,0,0,0-11.79,9.51h0A10.62,10.62,0,0,0,436.84,550.28Z"/><path d="M323.48,982.81c4.83.7,9.72,1.36,14.55,2.34,8.52,1.73,9.05,18.8,1.31,20.8l-.17,0c-14.38,3.71-29.44,4.17-44.22,3.84-6.05-.14-12.41.82-18.29-1.09-6.77-2.19-10.6-8.8-10.71-15.74-.16-10.83,3.94-13.75,15.43-11.27C294.8,984.63,310,980.87,323.48,982.81Z"/><path d="M367.36,966.3c4.82.7,9.71,1.36,14.55,2.34,8.52,1.73,9,18.8,1.31,20.8l-.18,0c-14.38,3.71-29.44,4.17-44.21,3.84-6.05-.14-12.41.82-18.29-1.09-6.77-2.19-10.6-8.8-10.71-15.74-.17-10.83,3.93-13.75,15.43-11.27C338.68,968.12,353.91,964.36,367.36,966.3Z"/><path class="cls-58" d="M373.31,606s-10.74,220.78-6,259.74-.32,96.78-.32,96.78-33,16.39-58.92,9L357.43,608.7Z"/><path class="cls-59" d="M367.79,616,354,634,308.11,971.51a48,48,0,0,0,6.84,1.4c8-24.76,49.27-155.25,52.63-222l.21-7C368.42,673,367.79,616,367.79,616Z"/><path class="cls-58" d="M274.59,671s2.64,105.75,0,131.72-11.91,176.25-11.91,176.25,13.69,16.69,46.73,3.71c0,0,65.08-268.09,63.9-376.62l-104.7,17.63Z"/><path class="cls-60" d="M274.1,667.1l.49,3.86s.4,16,.73,37.13l78.83-10.69Z"/><path class="cls-61" d="M332.61,435.68s25.85,28.81,44.95,58.3c14.26,22,68,34.14,68,34.14l-6.75,27.27s-31.75,7.42-65.49-19.63S332.61,435.68,332.61,435.68Z"/><path class="cls-32" d="M296.07,433l24.08-1.9s20.79,21.06,36.45,57,25.21,168.49,25.21,168.49l-18.64,2.67S342.33,509.55,296.07,433Z"/><path class="cls-62" d="M386.51,683.48c-2.09,7.65-12.3,10.55-17.11,14.12s6.68-73.25,2.7-135.42c-1.77-27.71-12.74-56.89-24.34-80.73v0a391.49,391.49,0,0,0-29.48-50.5l-.4-.56,12.38,2.81c.8.83,1.59,1.67,2.35,2.52.16.16.3.32.44.48,20.82,23.25,34,57.13,42.14,92.42,1.75,7.53,3.26,15.09,4.58,22.65C391.07,616,387.77,678.94,386.51,683.48Z"/><path class="cls-61" d="M354.15,697.4c-10.07.69-100.52-3.49-105.38-18.79s12.06-140.53,15.77-173.24c3.6-31.81,7.76-91.08,37.76-76.05a24.65,24.65,0,0,1,2.52,1.39s2.45,3.68,6.35,10.09l.94,1.53c.89,1.48,1.85,3.07,2.86,4.78l.2.36c6.05,10.23,14,24.46,21.74,40.7,12.2,25.52,24,56,27.33,83.65C371.9,635.13,364.22,696.7,354.15,697.4Z"/><path class="cls-60" d="M365.62,585,265.33,498.09c-.27,2.54-.54,5-.79,7.28-.65,5.66-1.68,14.08-2.93,24.22,0,0,15.41,61.81,104,55.44Z"/><path class="cls-63" d="M485.7,547.22l-23.82,4.87a11,11,0,0,1-13-8.73h0a11,11,0,0,1,8.58-12.74l23.82-4.88a11,11,0,0,1,13,8.74h0A11,11,0,0,1,485.7,547.22Z"/><path class="cls-64" d="M437.47,572.19l23.37-2.73a10.62,10.62,0,0,0,9.27-12h0a10.59,10.59,0,0,0-11.74-9.1L435,551.13a10.6,10.6,0,0,0-9.28,12h0A10.6,10.6,0,0,0,437.47,572.19Z"/><path class="cls-61" d="M284.94,430.34s-48,20.77-28.85,67.39S344,603.29,443.48,578.25V550.92a5,5,0,0,0-5.24-5C413.77,546.8,297.41,544.67,284.94,430.34Z"/><circle class="cls-32" cx="433.51" cy="563.09" r="2.84"/><path class="cls-65" d="M542.13,965.53c-5,.73-10,1.4-15,2.42-8.81,1.79-9.36,19.42-1.36,21.5l.18,0c14.86,3.84,30.43,4.32,45.7,4,6.25-.14,12.83.85,18.9-1.12,7-2.27,11-9.09,11.06-16.26.18-11.2-4.06-14.22-15.94-11.66C571.76,967.41,556,963.52,542.13,965.53Z"/><path class="cls-66" d="M587.47,982.6c-5,.72-10,1.4-15,2.41-8.82,1.79-9.36,19.43-1.36,21.5l.18,0c14.86,3.83,30.42,4.31,45.69,4,6.26-.14,12.83.85,18.9-1.12,7-2.27,11-9.09,11.07-16.26.18-11.2-4.06-14.21-15.94-11.65C617.11,984.47,601.37,980.59,587.47,982.6Z"/><path class="cls-67" d="M536,593.2s11.1,228.16,6.16,268.42.33,100,.33,100,34.08,16.94,60.9,9.27L552.38,596Z"/><path class="cls-60" d="M541.68,603.51l14.26,18.63,47.42,348.77a49.65,49.65,0,0,1-7.08,1.45C588,946.77,545.36,811.92,541.9,742.9c-.07-2.39-.15-4.78-.22-7.18C541,662.45,541.68,603.51,541.68,603.51Z"/><path class="cls-67" d="M638,660.31s.34,103.19,3.07,130,9.24,188.24,9.24,188.24-14.15,17.26-48.3,3.83c0,0-67.25-277-66-389.21l108.21,18.22Z"/><path class="cls-60" d="M638.5,656.32l-.5,4s-.42,16.56-.76,38.37l-81.46-11Z"/><path class="cls-68" d="M576.83,421s-24.05,32-41.1,64c-12.73,23.94-67,41.19-67,41.19l9.37,27.49s33.35,4.81,65.69-26S576.83,421,576.83,421Z"/><path class="cls-32" d="M615.8,414.41l-5.89-2.49a23.19,23.19,0,0,0-28.27,8.38,329.43,329.43,0,0,0-28.39,51.11C537.07,508.6,533.11,593.2,533.11,593.2L552.38,596S568,493.5,615.8,414.41Z"/><path class="cls-69" d="M522.33,673.25c2.16,7.9,12.71,10.9,17.69,14.59s-6.91-75.71-2.8-140c1.83-28.63,13.17-58.79,25.16-83.44v0a405.44,405.44,0,0,1,30.47-52.19l.41-.57-12.1,2c-.82.87-2.34,2.61-3.13,3.49l-.45.5c-21.52,24-35.09,59-43.55,95.51-1.81,7.77-3.37,15.59-4.73,23.41C517.62,603.56,521,668.56,522.33,673.25Z"/><path class="cls-69" d="M555.78,687.63c10.41.72,103.88-3.6,108.9-19.42s-12.25-145.26-16.29-179c-3.92-32.72-2.31-84.13-40.5-78.21-.93.15-12.09-.55-13,0,0,0,9.3,4.85,5.27,11.48l-1,1.58q-1.38,2.28-3,4.94l-.21.37c-6.25,10.57-14.44,25.28-22.46,42.07-12.61,26.37-24.79,57.82-28.24,86.44C537.43,623.28,545.37,686.91,555.78,687.63Z"/><path class="cls-63" d="M602,644.48l-20,17.4a12,12,0,0,1-17-1.36h0a12,12,0,0,1,1.33-16.71l20-17.4a12,12,0,0,1,17,1.36h0A12,12,0,0,1,602,644.48Z"/><path class="cls-68" d="M597.25,437.92c-3.22-19,21.47-29.72,32.8-14.16,3.94,5.41,7.54,13.29,10.35,24.54C655,506.47,674.08,599.09,601.82,653L580,632.09a6.32,6.32,0,0,1-.65-8.36C611.54,581.18,623.48,592.35,597.25,437.92Z"/><circle class="cls-32" cx="595.62" cy="634.3" r="3.2"/><path class="cls-32" d="M542.73,360.81s2.62,7.23,4.34,10.84l21.11,5.54,31-15.68.71-10.52-13.32-7.45L559.3,358.79Z"/><path class="cls-63" d="M590,350.82,582,348c-4.18,11.95-21.46,17.38-39.13,13a54.87,54.87,0,1,1,4,10.1C566.79,374,584.59,366.16,590,350.82Z"/><path class="cls-70" d="M626.6,321.24S596,326.08,547,322c-5.9-1.2-15.83-45-2.19-43.42,39.85,4.73,76.51-11.59,94.69,13.94,0,0,14,5.74,17.84,34.08,2,14.82-5.47,43.87-13.94,45.8,0,0-12.89-4.45-17.69-20.85C625.72,351.59,619.66,338.61,626.6,321.24Z"/><path class="cls-63" d="M362.84,388.1a55.24,55.24,0,1,0-4.39,10C361.32,391.23,362,388.79,362.84,388.1Z"/><path class="cls-32" d="M307.56,384a3.53,3.53,0,1,0-3.95,5.85c13,8.75,25.1,11.75,35.12,12.11a59.65,59.65,0,0,0,18.91-2.37,75.49,75.49,0,0,0,4.33-9.22C358.16,392.23,334.67,402.26,307.56,384Z"/><path class="cls-71" d="M270.62,411.15a1.53,1.53,0,0,0,.37,0,5.67,5.67,0,0,0,3.68-2c6.39-6.62,5-16.07,4.88-24.46a29.94,29.94,0,0,1,1.56-11.36c1.6-4.16,2.8-7.31,1.45-11.9l-5.89-12.06c6.3,1,12.66-1.81,18.07-4.71,1.39-.75,14.85-7.6,12.73-10.44a19.13,19.13,0,0,0,11.27,7.71,19.76,19.76,0,0,0,13.69-2.24c4.67,4.63,12.53,6.23,18.85,4.4s11.24-4.56,12.71-11a18.58,18.58,0,0,0-24.15-21.71c-1.66-7-6.66-13.33-13.59-15.26a20.67,20.67,0,0,0-19.88,5.33,21.81,21.81,0,0,0-16.91-1.51,21.14,21.14,0,0,0-12.58,11c-8.59-1.94-18.32,1.89-23.5,9a23.28,23.28,0,0,0-1.18,24.94c-5.71,3.89-10,10.83-9.55,17.73A20.26,20.26,0,0,0,253.73,379c.14.07,1.12,6.54,1.46,7.36a40.07,40.07,0,0,0,4.12,7.12c1.89,2.82,3.83,5.59,5.53,8.53C266.07,404.16,267.59,410.75,270.62,411.15Z"/><path d="M335.46,339.46a12.1,12.1,0,0,0,8.47-1.5,10,10,0,0,0,3.29-3.15,10.88,10.88,0,0,0,1.24-9,10.08,10.08,0,0,0-2.33-3.93,12.17,12.17,0,0,0-7.75-3.72,10.74,10.74,0,0,1,9.08,2.28,11,11,0,0,1,3.31,4.56,11.92,11.92,0,0,1-1.54,11.23,11,11,0,0,1-4.41,3.5A10.72,10.72,0,0,1,335.46,339.46Z"/><path d="M313.61,331.39a11.71,11.71,0,0,0,5.09-5.33,10.22,10.22,0,0,0-4.94-13.53,11.7,11.7,0,0,0-7.33-.8,10,10,0,0,1,7.92-.76,10.21,10.21,0,0,1,4.08,2.42,11,11,0,0,1,2.67,4.13,11.25,11.25,0,0,1,.62,4.87,10.31,10.31,0,0,1-1.57,4.48A10,10,0,0,1,313.61,331.39Z"/><path d="M317.18,338.47a9.13,9.13,0,0,0,4.63-.13,6.21,6.21,0,0,0,3.73-3.07,5,5,0,0,0,.1-4.67,5.14,5.14,0,0,0-3.51-2.71,4.81,4.81,0,0,1,4.39,2.18,5.18,5.18,0,0,1,.94,2.83,6,6,0,0,1-.71,3,6.5,6.5,0,0,1-2,2.32,6.68,6.68,0,0,1-2.7,1.12A7.23,7.23,0,0,1,317.18,338.47Z"/><path d="M287.61,338.77a11.65,11.65,0,0,0,2.82-5.37,10,10,0,0,0-4.91-11.31,11.83,11.83,0,0,0-5.85-1.61,9.36,9.36,0,0,1,6.45.4,10,10,0,0,1,5.6,12.9A9.28,9.28,0,0,1,287.61,338.77Z"/><path d="M273.29,351.21a5.89,5.89,0,0,1-3.86.17,7.15,7.15,0,0,1-3.77-2.65,7.07,7.07,0,0,1-1.32-4.41,5.76,5.76,0,0,1,1.39-3.62,10,10,0,0,0,7.56,10.51Z"/><path d="M264.76,357.54a4.3,4.3,0,0,1-7.16-3.38,7,7,0,0,0,7.16,3.38Z"/><rect class="cls-72" x="-1.1" y="-12.21" width="2506.1" height="1095.34"/><text class="cls-73" transform="translate(1297.8 578.68)">Importe, entidad, ubicación, plazo</text></g></g></svg>