<svg xmlns="http://www.w3.org/2000/svg" xmlns:xlink="http://www.w3.org/1999/xlink" viewBox="0 0 2490 1080"><defs><style>.cls-1{isolation:isolate;}.cls-2{opacity:0.9;fill:url(#linear-gradient);}.cls-3{fill:#ccb196;}.cls-4,.cls-6{opacity:0.5;}.cls-5{fill:#c4c4c4;}.cls-17,.cls-6{fill:#fff;}.cls-7{fill:#db742e;}.cls-8{fill:#ffb98a;}.cls-9{fill:#b7b7b7;}.cls-10,.cls-23{mix-blend-mode:multiply;}.cls-11{fill:#f4b490;}.cls-12{fill:#e5c4b1;}.cls-13{fill:#ffcaa6;}.cls-14,.cls-22{fill:#305596;}.cls-15,.cls-16{fill:#4da9dd;}.cls-15{stroke:#4da9dd;stroke-miterlimit:10;stroke-width:1.19px;}.cls-18{fill:#ff8e37;}.cls-19,.cls-20{fill:#ffbd30;}.cls-20{opacity:0.52;}.cls-21{fill:none;stroke:#27426b;stroke-linecap:round;stroke-linejoin:round;stroke-width:2.39px;}.cls-22{opacity:0.1;}.cls-23,.cls-24{fill:#a9a5b0;}.cls-23{opacity:0.2;}.cls-25{fill:#2c4770;}.cls-26{fill:#243c56;}.cls-27{fill:#514f60;}.cls-28{fill:#c4c5c5;}.cls-29{fill:#b3b4b4;}.cls-30{fill:#e8bb55;}.cls-31{fill:#d3a03f;}.cls-32{fill:#dead51;}.cls-33{fill:#909090;}.cls-34{fill:#666665;}.cls-35{fill:#eabc42;}.cls-36{fill:#3d3139;}.cls-37{fill:#78546d;}.cls-38{fill:#5e3e56;}.cls-39{fill:#f0ca58;}.cls-40{fill:#f6e174;}.cls-41{fill:#52444d;}.cls-42{fill:#f9edac;}.cls-43{opacity:0.08;}</style><linearGradient id="linear-gradient" x1="1240.51" y1="1098.7" x2="1240.51" y2="-165.67" gradientUnits="userSpaceOnUse"><stop offset="0" stop-color="#fff"/><stop offset="0.19" stop-color="#f9fcfc"/><stop offset="0.43" stop-color="#e9f2f2"/><stop offset="0.71" stop-color="#cfe2e2"/><stop offset="0.76" stop-color="#c9dfdf"/><stop offset="0.91" stop-color="#a0ccdc"/><stop offset="1" stop-color="#8cc3db"/></linearGradient></defs><title>SCTR-Y-VIDA-LEY-WEB-CRECER-SEGUROS-ACTUALIZADO</title><g class="cls-1"><g id="Capa_1" data-name="Capa 1"><rect class="cls-2" x="-4.98" y="-0.05" width="2490.98" height="886.05"/><path class="cls-3" d="M-10,862.24V1083H2498V867.93c-178.73-3-364.63-1.74-547.49-1.74-187.14,0-371.81-1.52-557.7,0-190.94,1.53-380.77-2.5-571.48-1.18-96.32.66-180.62,4-277.95,1.35-74.67-2-151.69-3.69-228.28-4.4C283.46,861.64,251.94,861.87-10,862.24Z"/><g class="cls-4"><path class="cls-5" d="M859.34,461.53V321.37l-95.06,103.9V598H703V350.44H687.46L643.11,309l-44.58,41.44H583.21V684.57H357.87v182h650v-405ZM687.46,550.37H598.79v-9h88.67Zm0-18.07H598.79v-9.06h88.67Zm0-18.08H598.79v-9h88.67Zm0-18.08H598.79v-9h88.67Zm0-18.06H598.79V469h88.67Zm0-18.07H598.79V451h88.67Zm0-18.08H598.79v-9h88.67Zm0-18.08H598.79v-9h88.67Zm0-18.08H598.79v-9h88.67Zm0-18H598.79v-9.06h88.67Zm0-18.08H598.79v-9h88.67ZM847.28,809.91h-9.2V365.11l9.2-10.09Z"/><path class="cls-5" d="M2136.63,461.53V321.37l-95.06,103.9V598h-61.25V350.44h-15.57L1920.4,309l-44.58,41.44H1860.5V684.57H1635.16v182h650v-405Zm-171.88,88.84h-88.68v-9h88.68Zm0-18.07h-88.68v-9.06h88.68Zm0-18.08h-88.68v-9h88.68Zm0-18.08h-88.68v-9h88.68Zm0-18.06h-88.68V469h88.68Zm0-18.07h-88.68V451h88.68Zm0-18.08h-88.68v-9h88.68Zm0-18.08h-88.68v-9h88.68Zm0-18.08h-88.68v-9h88.68Zm0-18h-88.68v-9.06h88.68Zm0-18.08h-88.68v-9h88.68Zm159.82,440.27h-9.2V365.11l9.2-10.09Z"/><path class="cls-5" d="M1288,697V380.2h-14.28V348.15H1163.33V380.2h-14.19V778.45H1045.5V598.1H894.59V834.76H821.68V410.83H673V736.54H655.58V542.66H628.69l-75-39.6v39.6h-16.4V782.1h-36.4V457.84H464.11V344.08h-5V457.84H422.26V867.26H1381V697Zm-796-30.79H431.32v-7.05h60.73Zm0-16.31H431.32v-7h60.73Zm0-16.33H431.32v-7h60.73Zm0-16.3H431.32v-7h60.73Zm0-16.31H431.32V593.9h60.73Zm0-16.33H431.32v-7h60.73Zm0-16.31H431.32v-7h60.73Zm0-16.3H431.32v-7h60.73Zm0-16.33H431.32v-7h60.73Zm0-16.31H431.32v-7h60.73Zm0-16.31H431.32v-7h60.73Zm0-16.33H431.32v-7h60.73Zm0-16.3H431.32v-7.05h60.73Zm213,97.11H687V549.47H705Zm0-30.13H687V519.32H705Zm0-30.15H687V489.2H705Zm0-30.13H687V459.05H705ZM705,447H687V428.9H705Zm34.35,120.56H721.33V549.47h18.06Zm0-30.13H721.33V519.32h18.06Zm0-30.15H721.33V489.2h18.06Zm0-30.13H721.33V459.05h18.06Zm0-30.15H721.33V428.9h18.06Zm34.37,120.56H755.68V549.47h18.08Zm0-30.13H755.68V519.32h18.08Zm0-30.15H755.68V489.2h18.08Zm0-30.13H755.68V459.05h18.08Zm0-30.15H755.68V428.9h18.08Zm34.35,120.56H790.05V549.47h18.06Zm0-30.13H790.05V519.32h18.06Zm0-30.15H790.05V489.2h18.06Zm0-30.13H790.05V459.05h18.06Zm494.15,369h-18.79v-18.8h18.79Zm0-37.63h-18.79v-18.8h18.79Zm0-37.64h-18.79V752h18.79Zm0-37.63h-18.79V714.39h18.79Zm34.87,112.9h-18.79v-18.8h18.79Zm0-37.63h-18.79v-18.8h18.79Zm0-37.64h-18.79V752h18.79Zm0-37.63h-18.79V714.39h18.79ZM1372,846.08h-18.82v-18.8H1372Zm0-37.63h-18.82v-18.8H1372Zm0-37.64h-18.82V752H1372Zm0-37.63h-18.82V714.39H1372Z"/><path class="cls-5" d="M1729,663.33V380.2h-14.27V348.15H1604.31V380.2h-14.19V778.45H1486.49V598.1H1335.57V834.76h-72.91V410.83H1114V736.54h-17.45V542.66h-26.89l-75-39.6v39.6H978.31V782.1h-36.4V457.84H905.1V344.08h-5V457.84H863.25V867.26H1822V663.33ZM933,666.2H872.3v-7.05H933Zm0-16.31H872.3v-7H933Zm0-16.33H872.3v-7H933Zm0-16.3H872.3v-7H933ZM933,601H872.3V593.9H933Zm0-16.33H872.3v-7H933Zm0-16.31H872.3v-7H933Zm0-16.3H872.3v-7H933Zm0-16.33H872.3v-7H933Zm0-16.31H872.3v-7H933Zm0-16.31H872.3v-7H933Zm0-16.33H872.3v-7H933Zm0-16.3H872.3v-7.05H933Zm213,97.11h-18.09V549.47H1146Zm0-30.13h-18.09V519.32H1146Zm0-30.15h-18.09V489.2H1146Zm0-30.13h-18.09V459.05H1146Zm0-30.15h-18.09V428.9H1146Zm34.34,120.56h-18.06V549.47h18.06Zm0-30.13h-18.06V519.32h18.06Zm0-30.15h-18.06V489.2h18.06Zm0-30.13h-18.06V459.05h18.06Zm0-30.15h-18.06V428.9h18.06Zm34.37,120.56h-18.08V549.47h18.08Zm0-30.13h-18.08V519.32h18.08Zm0-30.15h-18.08V489.2h18.08Zm0-30.13h-18.08V459.05h18.08Zm0-30.15h-18.08V428.9h18.08Zm34.35,120.56H1231V549.47h18.06Zm0-30.13H1231V519.32h18.06Zm0-30.15H1231V489.2h18.06Zm0-30.13H1231V459.05h18.06Zm503.69,319.06h-16.23V780h16.23Zm0-32.49h-16.23V747.48h16.23Zm0-32.48h-16.23V715h16.23Zm0-32.49h-16.23V682.5h16.23Zm30.1,97.46h-16.22V780h16.22Zm0-32.49h-16.22V747.48h16.22Zm0-32.48h-16.22V715h16.22Zm0-32.49h-16.22V682.5h16.22ZM1813,796.19h-16.25V780H1813Zm0-32.49h-16.25V747.48H1813Zm0-32.48h-16.25V715H1813Zm0-32.49h-16.25V682.5H1813Z"/><rect class="cls-5" x="2283" y="723.79" width="209.41" height="143.48"/><path class="cls-5" d="M1972,868.33H272.27a1.91,1.91,0,0,1-1.91-1.92h0a1.9,1.9,0,0,1,1.91-1.91H1972a1.91,1.91,0,0,1,1.92,1.91h0A1.92,1.92,0,0,1,1972,868.33Z"/></g><path class="cls-6" d="M1889.11,294h223.12c33.65,0,34.07-38.26,4.21-45.95a62.23,62.23,0,0,0-52.53,10.19s-8.1-94-84.91-83c-60.55,8.7-57,69.15-57,69.15s-12.47-24.88-45.13-15.47C1842.76,238.75,1846.46,294,1889.11,294Z"/><path class="cls-6" d="M1233.59,204h-172.7c-26,0-26.36-29.61-3.25-35.57a48.17,48.17,0,0,1,40.66,7.89s6.27-72.78,65.72-64.24c46.87,6.74,44.14,53.53,44.14,53.53s9.65-19.26,34.93-12C1269.47,161.24,1266.61,204,1233.59,204Z"/><path class="cls-6" d="M503,311H330.28c-26,0-26.37-29.61-3.25-35.57a48.17,48.17,0,0,1,40.66,7.89s6.27-72.78,65.72-64.24c46.86,6.74,44.14,53.53,44.14,53.53s9.65-19.26,34.93-12C538.86,268.24,536,311,503,311Z"/><polygon class="cls-7" points="1231.91 727.8 1146.29 727.8 1146.29 745.45 1037.38 745.45 1037.38 761.95 1015.45 761.95 1015.45 868.3 1231.91 868.3 1231.91 727.8"/><rect class="cls-8" x="1189.64" y="798.43" width="42.27" height="16.51"/><rect class="cls-8" x="1168.5" y="816.08" width="42.27" height="16.51"/><rect class="cls-8" x="1189.64" y="833.73" width="42.27" height="16.51"/><rect class="cls-8" x="1168.5" y="851.38" width="42.27" height="16.51"/><rect class="cls-8" x="1146.29" y="798.43" width="42.27" height="16.51"/><rect class="cls-8" x="1125.15" y="816.08" width="42.27" height="16.51"/><rect class="cls-8" x="1146.29" y="833.73" width="42.27" height="16.51"/><rect class="cls-8" x="1125.15" y="851.38" width="42.27" height="16.51"/><rect class="cls-8" x="1102.94" y="798.43" width="42.27" height="16.51"/><rect class="cls-8" x="1081.8" y="816.08" width="42.27" height="16.51"/><rect class="cls-8" x="1102.94" y="833.73" width="42.27" height="16.51"/><rect class="cls-8" x="1081.8" y="851.38" width="42.27" height="16.51"/><rect class="cls-8" x="1059.59" y="798.43" width="42.27" height="16.51"/><rect class="cls-8" x="1038.45" y="816.08" width="42.27" height="16.51"/><rect class="cls-8" x="1059.59" y="833.73" width="42.27" height="16.51"/><rect class="cls-8" x="1038.45" y="851.38" width="42.27" height="16.51"/><rect class="cls-8" x="1016.24" y="798.43" width="42.27" height="16.51"/><rect class="cls-8" x="995.1" y="816.08" width="42.27" height="16.51"/><rect class="cls-8" x="1016.24" y="833.73" width="42.27" height="16.51"/><rect class="cls-8" x="1189.64" y="763.13" width="42.27" height="16.51"/><rect class="cls-8" x="1168.5" y="780.78" width="42.27" height="16.51"/><rect class="cls-8" x="1146.29" y="763.13" width="42.27" height="16.51"/><rect class="cls-8" x="1125.15" y="780.78" width="42.27" height="16.51"/><rect class="cls-8" x="1102.94" y="763.13" width="42.27" height="16.51"/><rect class="cls-8" x="1081.8" y="780.78" width="42.27" height="16.51"/><rect class="cls-8" x="1059.59" y="763.13" width="42.27" height="16.51"/><rect class="cls-8" x="1038.45" y="780.78" width="42.27" height="16.51"/><rect class="cls-8" x="1016.24" y="763.13" width="42.27" height="16.51"/><rect class="cls-8" x="995.1" y="780.78" width="42.27" height="16.51"/><rect class="cls-8" x="1189.64" y="727.8" width="42.27" height="16.51"/><rect class="cls-8" x="1211.96" y="745.45" width="19.95" height="16.51"/><rect class="cls-8" x="1211.96" y="780.78" width="19.95" height="16.51"/><rect class="cls-8" x="1211.96" y="816.11" width="19.95" height="16.51"/><rect class="cls-8" x="1211.96" y="851.44" width="19.95" height="16.51"/><rect class="cls-8" x="1168.5" y="745.45" width="42.27" height="16.51"/><rect class="cls-8" x="1146.29" y="727.8" width="42.27" height="16.51"/><rect class="cls-8" x="1125.15" y="745.45" width="42.27" height="16.51"/><rect class="cls-8" x="1081.8" y="745.45" width="42.27" height="16.51"/><rect class="cls-8" x="1038.45" y="745.45" width="42.27" height="16.51"/><rect class="cls-8" x="995.1" y="851.38" width="42.27" height="16.51"/><path class="cls-9" d="M1229.83,725.76h-63.92a3.35,3.35,0,0,0-3.21,2.16c-.35,1.07,0,2.12,3,2,6-.2,11.53-4.81,15.66-1.33s3.39,8.77,6.62,7.27,1-6.14,9.38-6,10.78,4.8,14.21,2.45,10.78-5.59,15.09-3.14S1234.67,725.76,1229.83,725.76Z"/><g class="cls-10"><rect class="cls-11" x="352.31" y="451.99" width="273.8" height="14.55"/><path class="cls-12" d="M761.87,235.65h-1.44l-45.85-59-44.52,59H488.76l-94.84,93.91h93.54V423L378.07,450.26v16.28h4.42V453.71L489.67,427l106.26,26.68v12.83h4.42V450.26L491.88,423V329.56h86.37l.24.24.24-.24h2.07l.24.24.24-.24h86.37V870.17h94.22V329.56h86.37l.24.24.24-.24H851l94.83-93.91Zm-357.21,89.5,82.8-82v82Zm170.06-85.08-39.86,39.86L495,240.07Zm-82.84,3.12,39.86,39.86-39.86,39.86Zm4,82,39-39,39,39Zm81.38-2.81L538,283.05l39.29-39.28Zm87.25-82.27-39.86,39.86-39.85-39.86Zm-82.84,3.12,39.86,39.86-39.86,39.86Zm4,82,39-39,39,39Zm82-2.24-39.86-39.86,39.86-39.86Zm47-139,40.21,51.7H675.59Zm39.54,56.12-39.49,39.49-39.5-39.49ZM675.76,772.2l38.92-38.92L753.6,772.2Zm78.83,4.42-39.91,39.91-39.91-39.91ZM675,687.33h79.4L714.68,727Zm.57-4.41,39.13-39.14,39.13,39.14Zm-.37-84.87h79l-39.49,39.49Zm.16-4.42,39.34-39.34L754,593.63Zm0-84.87H754l-39.28,39.29Zm-.26-4.41,39.55-39.55,39.55,39.55Zm0-85.29h79l-39.49,39.49Zm.16-4.42,39.34-39.34L754,414.64Zm-.16-85.08h79l-39.49,39.5Zm.16-4.41,39.34-39.34L754,325.15Zm-3.28-82,39.5,39.5-39.5,39.49Zm0,89.5,39.5,39.49-39.5,39.5Zm0,89.49,39.5,39.49-39.5,39.5Zm0,89.49,39.5,39.5-39.5,39.49Zm0,89.5,39.5,39.49-39.5,39.5Zm0,89.49,39.5,39.5-39.5,39.49Zm0,89.5,39.5,39.49-39.5,39.49Zm85.39,85.59H672.06v-.36l42.62-42.62,42.77,42.77Zm0-6.45L717.8,819.65,757.45,780Zm0-89.5L717.8,730.16l39.65-39.65Zm0-89.49L717.8,640.66,757.45,601Zm0-89.49L717.8,551.17l39.65-39.65Zm0-89.5L717.8,461.67,757.45,422Zm0-89.49L717.8,372.18l39.65-39.65Zm0-89.5L717.8,282.69,757.45,243Zm87.26-82.26-39.86,39.86L765,240.07Zm-82.84,3.12,39.86,39.86-39.86,39.86Zm4,82,39-39,39,39Zm82-2.24L808,283.05l39.86-39.86Zm4.42-82.84h82.8l-82.8,82Z"/><path class="cls-13" d="M613.71,320.18v63.44h63.46V320.18Z"/><rect class="cls-6" x="617.85" y="324.58" width="16.84" height="54.37"/><rect class="cls-6" x="638.31" y="324.58" width="16.84" height="54.37"/></g><path class="cls-14" d="M2245.86,894.07q-76.93,0-153.88-.06c-14.05,0-28.17.67-42.13-.47-18.4-1.5-31.67-11.79-38.9-28.58-7.07-16.44-5.33-32.59,5.32-47.3,9.8-13.53,23.23-19.93,39.89-19.92q124.34.09,248.67.08c42.44,0,84.89.26,127.34-.06,21-.16,37,7.86,46.74,26.46,16.76,32-6.94,70-43.54,70q-94.76.15-189.51,0Zm177.61-87.24h-52.54c3,3.83,6.23,8,9.66,12.08a5.31,5.31,0,0,0,3.53,1.56c6.65.16,13.31.14,20,.07a5.52,5.52,0,0,0,3.13-.9C2413,815.22,2418.61,810.68,2423.47,806.83Zm-355.92-.19c5.12,4,10.58,8.31,16.14,12.51a6.4,6.4,0,0,0,3.49,1.22c6.8.12,13.6.1,20.39,0,.92,0,2.46-.27,2.64-.78,2-5.86,6.31-9.62,12.46-13ZM2121,885.07c-4.71-3.34-8.62-7-10.63-12.39-.26-.7-1.83-1.27-2.8-1.29q-10.21-.17-20.43,0a5.74,5.74,0,0,0-3.15,1.12c-5.68,4.26-11.28,8.62-16.38,12.55Zm302.42.12c-5.2-4-10.69-8.3-16.27-12.47a6.45,6.45,0,0,0-3.52-1.25c-6.66-.12-13.32-.14-20,0-1.06,0-2.7.77-3,1.6-2.18,5.29-6,8.94-10.82,12.12Zm-113.38-78.42c6.37,3.17,10.33,6.93,12.49,12.43a3.09,3.09,0,0,0,2.38,1.27q8,.16,16,0a3,3,0,0,0,2.3-1.43c2.24-5.41,6.16-9.18,12.57-12.23Zm-72.1.12h-42.83c2.76,2.43,6.67,4.27,7.81,7.18,2.68,6.9,7.72,6.83,13.43,6.45,2.59-.17,5.21.14,7.78-.11a4,4,0,0,0,2.9-1.79C2229.26,813.4,2233,809.87,2238,806.89Zm-101.23-.13c2.82,2.41,6.56,4.07,7.59,6.78,3,7.91,9.08,7.32,15.43,6.94,2-.11,4.07.12,6.08-.07,1-.1,2.55-.59,2.81-1.28,2-5.57,6.18-9.16,12.21-12.36Zm160.37.29-44.87,0c5.86,2.88,9.59,6.29,11.72,11.39a4.19,4.19,0,0,0,3.14,2c5.06.21,10.13.16,15.2,0,1,0,2.52-.61,2.8-1.32C2287.23,813.56,2291.28,809.92,2297.11,807.05Zm57,78.05c-2.82-2.48-6.43-4.17-7.51-6.88-3-7.58-8.86-7.21-15.09-6.83-2,.12-4.08-.21-6.05.11a6,6,0,0,0-3.38,1.9c-3.34,3.91-6.49,8-9.47,11.69Zm-58,0c-2.83-2.41-6.67-4.07-7.53-6.7-2.75-8.44-9.16-7.06-15.33-7a50.77,50.77,0,0,0-6.05.09c-1.1.14-2.67.78-3,1.63a26.14,26.14,0,0,1-10.87,11.95Zm-58.33,0c-3-2.62-6.78-4.41-7.84-7.24-2.71-7.21-8-6.9-13.86-6.53-2.31.15-4.64-.05-7,.06-.94.05-2.49.25-2.7.79-2.21,5.65-6.23,9.63-12.68,12.9Zm-99.41-.25h40.91c-2.67-2.38-6.55-4.2-7.5-7-2.56-7.59-8.17-6.69-13.88-6.52-2.46.07-4.94-.16-7.37.12a5,5,0,0,0-2.88,1.83C2144.41,877.19,2141.3,881.19,2138.38,884.87Zm-65-13.88a43.93,43.93,0,0,0-4.93,2c-9.95,5.31-20,5.49-29.87.14-15.09-8.19-20.69-26.9-12.74-41.49A31.11,31.11,0,0,1,2068.7,819a27.58,27.58,0,0,0,4.92,1.64c-12.08-12-33.77-10.19-45.47,2.92-12.33,13.82-10.92,35.45,3.22,47.89C2044.52,883,2064.85,881.1,2073.34,871Zm344.25.17c11.28,12,33.3,10.44,44.82-2.17,13.18-14.43,11.81-35.69-3.13-48.77-11.56-10.13-33.51-10.14-42.91,1.08,2.8-1,4.4-1.72,6.08-2.18,5.24-1.45,10.5-3.89,15.78-4,13.34-.19,24.79,8.6,29,21a31.31,31.31,0,0,1-9.31,33.51c-10.22,8.55-23.92,9.73-35.7,3.17A28.92,28.92,0,0,0,2417.59,871.16Zm-364.76-17.39a7.87,7.87,0,1,0,.45-15.73,8.54,8.54,0,0,0-8,7.68C2045,849.5,2049,853.71,2052.83,853.77Zm384.83-15.64a8.19,8.19,0,0,0-7.72,7.91,7.76,7.76,0,0,0,8.23,7.68,7.61,7.61,0,0,0,7.43-8A7.92,7.92,0,0,0,2437.66,838.13Z"/><polygon class="cls-14" points="2071.18 723.52 2087.58 692.28 2089.35 693.21 2071.18 727.65 2071.18 723.52"/><polygon class="cls-14" points="2071.8 732.69 2095.26 687.99 2096.49 688.36 2071.57 735.59 2071.8 732.69"/><circle class="cls-14" cx="2089.23" cy="691.93" r="3.2"/><circle class="cls-14" cx="2096.49" cy="686.58" r="2.72"/><path class="cls-15" d="M2089.26,694.79a5.27,5.27,0,0,0,5.29,6c17.69-.67,32.24-7.32,42.16-22.54a34.69,34.69,0,0,0,2.49-4.61c1.42-3.17.31-6.29-2.59-7.58s-5.77-.07-7.25,3.05A34.47,34.47,0,0,1,2114,685a44,44,0,0,1-19.07,4.93C2091.65,690.07,2089.56,691.9,2089.26,694.79Z"/><path class="cls-16" d="M2116.51,627.39h0a14.62,14.62,0,0,0-9.54,18.27l.2.65a14.69,14.69,0,0,0,4,6.43,10.38,10.38,0,0,0,2.35-.42c3.85-1.18,6.42-4.41,5.61-7.06l1.6-.49c1.14,3.72-1.79,7.81-6.67,9.3q-.45.13-.9.24a14.38,14.38,0,0,0,12.15,1.8h0a14.63,14.63,0,0,0,9.55-18.28l-.2-.65A14.63,14.63,0,0,0,2116.51,627.39Z"/><path class="cls-17" d="M2120.73,644.77l-1.6.49c.81,2.65-1.76,5.88-5.61,7.06a10.38,10.38,0,0,1-2.35.42,14.92,14.92,0,0,0,2,1.57q.45-.1.9-.24C2118.94,652.58,2121.87,648.49,2120.73,644.77Z"/><path class="cls-18" d="M2105.46,639.43a30.61,30.61,0,0,0-3.5,1.82c-1.44,1-2.11,3,.23,3.32,1.31.15,3-.75,4.28-1.16Z"/><path class="cls-19" d="M2112.51,637.82l-6.77,4.17a14.64,14.64,0,0,1,28-8.2l-8.2.19A26,26,0,0,0,2112.51,637.82Z"/><path class="cls-18" d="M2104.79,642.57l.95-.58a14.29,14.29,0,0,0,.37,1.43s0,.06,0,.09l-.81.24a.65.65,0,0,1-.81-.43A.66.66,0,0,1,2104.79,642.57Z"/><path class="cls-18" d="M2133.73,633.79h.77a.61.61,0,0,1,.18,1.2l-.5.15c0-.1,0-.19-.07-.28C2134,634.49,2133.87,634.14,2133.73,633.79Z"/><path class="cls-20" d="M2105.74,642l6.77-4.17a26,26,0,0,1,13-3.84l8.2-.19c.14.35.27.7.38,1.06,0,.09,0,.18.07.28l-28,8.38s0-.06,0-.09A14.29,14.29,0,0,1,2105.74,642Z"/><path class="cls-19" d="M2105.74,642l6.77-4.17a26,26,0,0,1,13-3.84l8.2-.19c.14.35.27.7.38,1.06,0,.09,0,.18.07.28l-28,8.38s0-.06,0-.09A14.29,14.29,0,0,1,2105.74,642Z"/><path class="cls-18" d="M2105.51,642.13s25-8.32,28.22-8.34l.45,1.34-28,8.38Z"/><path class="cls-21" d="M2155.41,695.15c-2.9.07-31.84,0-48,0a13,13,0,0,0-12.79,10.56l-7.68,40.2"/><path class="cls-14" d="M2230.64,684c9.71,0,18.82,0,27.92,0q71.94-.09,143.9-.16c15.62,0,26.36,11,26.37,26.62q0,18.91,0,37.83c0,15-11,26.32-25.88,26.32q-136.74,0-273.47-.18c-14.05,0-28.11.13-42.16.1-15.31,0-26.3-11-26.32-26.3,0-24.64-.64-49.3.16-73.91,1.27-39.54,27.79-77.56,70.48-84.81a77.28,77.28,0,0,1,12.55-.9q29.57-.12,59.13,0c16.49,0,27.25,10.72,27.31,27.15.07,21,0,42,0,63Zm-67-84.31c-6.48,0-12.27.16-18.06,0-37.62-1.28-72.15,33.87-72.65,71.4-.27,19.71-.12,39.42-.05,59.13,0,9.06,5.67,14.6,14.69,14.67,8.26.07,16.55-.41,24.78.13,15.53,1,25.11-6.39,31-20.14,6.13-14.37,12.61-28.59,18.78-42.94a18.53,18.53,0,0,0,1.46-7.08c.11-23.33.08-46.66.08-70Zm7.2,0,0,78.69h38.84c0-22.21.19-43.94-.09-65.66a13.16,13.16,0,0,0-12.37-13C2188.51,599.48,2179.82,599.71,2170.81,599.7ZM2351.4,723.26h22.15a97.6,97.6,0,0,0,10.41-.11c1.5-.16,2.85-1.62,4.28-2.49-1.34-.94-2.65-1.92-4-2.8-.31-.2-.85,0-1.29,0h-62.54c-1,0-2.2-.21-3,.24-1,.56-2.32,1.73-2.28,2.58s1.41,2,2.44,2.45,2.28.16,3.43.16Zm.51-13.82c10.55,0,21.1.11,31.65-.11,1.59,0,4.38-1.46,4.51-2.51.39-3.1-2.44-2.92-4.58-2.93-21.24,0-42.49-.08-63.74.09-1.61,0-4.49,1.52-4.58,2.53-.26,2.93,2.42,2.93,4.65,2.93Zm-.25,41.64v0c10.87,0,21.73.11,32.6-.12,1.35,0,2.67-1.81,4-2.78a42.1,42.1,0,0,0-3.89-2.5,5.09,5.09,0,0,0-2.15-.08h-61.28a11,11,0,0,0-3.86.33c-.89.35-2,1.5-2,2.29a3.5,3.5,0,0,0,1.9,2.49,9.93,9.93,0,0,0,3.84.37Q2336.24,751.09,2351.66,751.08Zm.19-19.39c-10.58,0-21.16-.12-31.74.12-1.74,0-3.46,1.65-5.19,2.54,1.67,1,3.32,2.75,5,2.77,21.15.19,42.31.13,63.47.13,2.22,0,4.93.07,4.66-2.93-.08-1-2.88-2.46-4.47-2.49C2373,731.6,2362.43,731.71,2351.85,731.69Z"/><path class="cls-14" d="M1787.71,519.8l20.22-28.89,26.82,18.87,137.74,96.71c10.19,7.15,20.43,14.2,30.51,21.51,2.33,1.69,3.73,1.33,5.67-.46,6.63-6.09,13.45-12,20.08-18.08,1.62-1.5,2.81-1.63,4.66-.52a116.21,116.21,0,0,0,12.09,6.59c3.58,1.62,4.17,4.1,3.82,7.84-1,10.37-1.55,20.79-2.41,31.17-.24,2.9.33,5,3,6.36,2.07,1.1,3.79,3,5.9,4,7.1,3.23,9,8.58,8.76,16.65-.62,21.86-.22,43.74-.23,65.62v4.69Zm61.5,19.52c0-4.45-3-7.58-7.35-7.59a7.48,7.48,0,0,0-7.24,7.77c.11,4,3.5,7.47,7.23,7.46A7.33,7.33,0,0,0,1849.21,539.32Z"/><path class="cls-14" d="M1724.52,694l7.43,10.51c11.35-23.83,22.55-47.33,33.9-71.17l6.45,3.34c-3.89,8.24-7.65,16.24-11.43,24.22-7.63,16.06-15.32,32.08-22.81,48.2a6,6,0,0,0,.36,4.87c24.13,35.39,48.42,70.66,72.56,106,2,2.89,4,4.08,7.4,4,5.45-.14,11.47-1.31,15.26,5.86-7,.69-13.8,1.55-20.58,2-19.77,1.26-39.55,2-59.32-.11-12.36-1.31-24.63-3-35.82-9.32a38.27,38.27,0,0,1-17.1-19.33c-4.3-10.51-2.2-20.76,2.58-30.1,6.9-13.49,14.72-26.46,22.4-39.49,1.67-2.82,2-5.24.77-8.07-2.2-5.14-4.53-10.22-6.65-15.4C1717,703,1718.22,699,1724.52,694Zm21.56,54.17a6.24,6.24,0,0,0-7.5-4.91,6.38,6.38,0,0,0-4.58,7.89,6.15,6.15,0,0,0,7.2,4.77A6.58,6.58,0,0,0,1746.08,748.18Z"/><path class="cls-14" d="M1763.61,743.14c-5.7-8.18-11.09-15.79-16.28-23.55-.55-.83-.26-2.73.24-3.83q13.58-30,27.31-59.89,24.76-54,49.59-107.91c.47-1,1.06-2,1.79-3.39L1851,558.15C1821.85,619.81,1792.85,681.21,1763.61,743.14Z"/><path class="cls-14" d="M2113.85,793.25V779.16l159.86,0v14.09Z"/><path class="cls-14" d="M1878.57,514.6,1939,556.5l-5.14,8.35-61.09-42.17-4.24,4.74L1844.9,510.9c4.41-6.39,8.72-12.65,13-18.89,1.38-2,2.8-3.94,4.21-5.9,4.3-5.94,10.89-7.71,17.59-4.71s11.11,10.32,9.93,17.25a10.63,10.63,0,0,1-2.11,4.08C1884.73,506.61,1881.78,510.39,1878.57,514.6Z"/><path class="cls-14" d="M1943.41,554.44l80.68,55.87c-5.15,4.47-9.89,8.59-14.78,12.82l-75.84-52.85Z"/><path class="cls-14" d="M1776.79,635.82l-12.23-6.44c14.91-31.37,29.69-62.5,44.72-94.11l12.28,6.3Z"/><path class="cls-14" d="M2275.6,679.29c-1.17-8,2.12-11.95,9.76-12q48.22,0,96.46,0c8.13,0,11.16,3.47,10.21,12Z"/><path class="cls-22" d="M2163.61,599.68v5.14c0,23.34,0,46.67-.08,70a18.53,18.53,0,0,1-1.46,7.08c-6.17,14.35-12.65,28.57-18.78,42.94-5.86,13.75-15.44,21.15-31,20.14-8.23-.54-16.52-.06-24.78-.13-9-.07-14.65-5.61-14.69-14.67-.07-19.71-.22-39.42.05-59.13.5-37.53,35-72.68,72.65-71.4C2151.34,599.84,2157.13,599.68,2163.61,599.68Z"/><path class="cls-22" d="M2170.81,599.7c9,0,17.7-.22,26.36.09a13.16,13.16,0,0,1,12.37,13c.28,21.72.09,43.45.09,65.66h-38.84Z"/><polygon class="cls-14" points="2158.37 715.73 2127.18 717.84 2127.17 746.97 2166.92 737.53 2158.37 715.73"/><path class="cls-19" d="M2148.57,670c-1.76-5-4.56-9-9.55-11.21-7.63-3.33-14.18.37-15.06,8.63a50.3,50.3,0,0,0,.26,7.14l.86.12c1-2.27,2-4.52,3-6.8a7,7,0,0,1,7.11-4.47,6.69,6.69,0,0,1,6.15,5.42A8.84,8.84,0,0,1,2141,673,45.27,45.27,0,0,1,2129,691.4a3,3,0,0,0-1.12,2.91c.31,2.47.4,5,.58,7.58l24.32.48A77.72,77.72,0,0,0,2148.57,670Z"/><path class="cls-14" d="M2128.49,702.09a15.59,15.59,0,0,1-1.59.2c-1.26,0-2.51.09-3.76,0a59.12,59.12,0,0,0-21.43,2.55,10.83,10.83,0,0,1-3.32.54,2.35,2.35,0,0,0-2.64,2.09c-.33,1.73-.79,3.64-.4,5.29q4.72,20.06,9.78,40a8.39,8.39,0,0,0,13.15,4.79c2.92-2.09,4.06-5.58,3.1-9.53l-6.69-27.3c-.1-.41-.15-.84-.26-1.48,2.24,0,4.36,0,6.47,0,6.19-.06,12.39,0,18.57-.26,7.4-.35,11.94-5,12.9-12.43.18-1.41.32-2.81.43-4.21l-24.32-.48A1.34,1.34,0,0,1,2128.49,702.09Z"/><ellipse class="cls-23" cx="2212.62" cy="892" rx="277.43" ry="37.4"/><ellipse class="cls-23" cx="1761.75" cy="891.07" rx="97.75" ry="18.81"/><path class="cls-24" d="M1757,740.53s17.31-13.1,38.83-5.61,44,40.23,31.81,67.36-16.84,15-16.84,15Z"/><path class="cls-12" d="M424,865,154.39,461.27c0-.19-.1-.38-.14-.57s0-.1,0-.15a39.87,39.87,0,0,0-2.45-7.55c-.15-.35-.32-.72-.5-1.07a38.79,38.79,0,0,0-1.92-3.53c-.46-.76-.94-1.5-1.46-2.22-.11-.17-.24-.35-.37-.52-.37-.51-.8-1-1.19-1.46l-.06-.06a40.32,40.32,0,0,0-5.52-5.79c-.3-.26-.6-.5-.92-.76-1-.83-2.14-1.62-3.27-2.35-.73-.48-1.49-.93-2.26-1.35a6.32,6.32,0,0,0-.56-.33c-.56-.3-1.16-.52-1.74-.8h0a41.17,41.17,0,0,0-7.5-2.84l-1.15-.26a38.54,38.54,0,0,0-4-.7c-.87-.11-1.75-.2-2.62-.25h0l-.64,0h-.52v-1h25V414.25h-4.7V402.42h4v-2.29H115.55V383.66h30.16V376L124.4,364.19h-66L36.38,376v7.65H66.55v16.47H42.24v2.29h4v11.83H41.49v13.44H66.55V475.1H42.23v2.28h4v11.83H41.49v13.44H66.55V862.5h2.8v-.36l21.47-13.33,21.93,13.62v.07h2.8V510.9a41.86,41.86,0,0,0,6.61-.69l1.16-.24c.71-.17,1.41-.4,2.11-.6L137,528.61h0l17.84,29.76h0L171.34,586h0l16.55,27.66h0l15.31,25.54h0l16.55,27.63h0l17.83,29.77h0l16.55,27.65h0l15.28,25.54h0L286,777.45h0l17.82,29.76,0,0,16,26.15L337,862.51h25.39l-26.5-39.92h0L320.55,797h0L304,769.4h0l-16.57-27.65h0L270.87,714.1h0l-16.56-27.65h0L237.75,658.8h0L219.93,629h0l-16.56-27.66h0l-15.29-25.51h0L171.49,548.2h0l-17.82-29.76h0L142.44,499.7c.13-.13.27-.24.41-.37.63-.61,1.25-1.24,1.84-1.9l.42-.48c.42-.47.76-1,1.15-1.48l.08-.1a41.32,41.32,0,0,0,4.4-6.64c.19-.35.36-.7.52-1.06a34,34,0,0,0,1.57-3.72c.3-.82.58-1.65.83-2.49.05-.21.12-.42.17-.62.17-.59.25-1.2.39-1.8,0-.07,0-.14,0-.21a40.63,40.63,0,0,0,1.06-7.83v0c0-.4,0-.79,0-1.17,0-.87-.07-1.73-.13-2.6L419.33,865ZM69.35,446.72,78.1,450c-.17.31-.39.6-.55.92s-.35.71-.52,1.06a38,38,0,0,0-1.57,3.72c-.31.82-.58,1.65-.82,2.5a6.32,6.32,0,0,0-.18.62c-.14.5-.21,1-.32,1.52H69.35Zm4.29,35.65,1.5.55c.42,1.24.85,2.49,1.38,3.69.17.35.33.71.51,1.06.25.53.57,1,.84,1.54H73.64ZM141,456.87a29.57,29.57,0,0,1,2.9,12.17H125.55a11.6,11.6,0,0,0-1.14-4.28l15.9-9.18C140.54,456,140.81,456.43,141,456.87ZM140.31,484l-4.42-2.55v-4.09h4V475.1H127.7l-2.23-3.73c0-.27.06-.53.08-.8h18.37a29.56,29.56,0,0,1-2.9,12.16C140.81,483.17,140.54,483.59,140.31,484Zm-48.75,5.19-.31-.35,1,.35ZM98.43,469l4.51-1.67a12.92,12.92,0,0,0-.19,1.67ZM88.9,453.92l17.27,6.37h-7l-10.48-6.05C88.79,454.14,88.84,454,88.9,453.92Zm34.55,35.29v-1.77l1,1.77Zm-10.7-8.07v2.27l-1.53-2.56A9.83,9.83,0,0,0,112.75,481.14Zm-8.92,8.07,4.61-8v8Zm7.16,0v-3.94l1.76,2.93v1Zm8.2-9.15.4.7-.8-.48Zm7,9.15-1.39-2.4,4,2.4Zm-21.45-26c-.05.08-.12.14-.17.22l-.37-.22Zm.81,14.18a10.44,10.44,0,0,0,1.53,1.44l.47.79-5.55,9.6h-1.67l-1.84-.67v-8.85l4-2.31Zm-16.41,7.71,6.8-3.92v6.42Zm9.35-7.16v-.55h.94ZM96,479.4,88,484c-.23-.43-.5-.85-.71-1.29a29.93,29.93,0,0,1-1.17-2.82v-2.53H96Zm19.56,8.68v-6.87l4.35,2.62.29,5.38h-4Zm7.9-5v-5.7h2.3l.68.4,6.66,11.1Zm-7.9-24.61V440.06a30.78,30.78,0,0,1,5.24.66,29.6,29.6,0,0,1,7.58,2.92l-9.18,15.9A11.52,11.52,0,0,0,115.55,458.47Zm-2.8,0a11.11,11.11,0,0,0-2.09.46l-2.42-.89-8.32-14.4a29.59,29.59,0,0,1,7.6-2.92,30.54,30.54,0,0,1,5.23-.66ZM106,457.21,90.6,451.54a29.69,29.69,0,0,1,5-5.05,27.64,27.64,0,0,1,3-2.11Zm-18.72-.34c.21-.44.48-.86.71-1.29l8.16,4.71H85.9A27.41,27.41,0,0,1,87.27,456.87Zm13.92,6.33,1.92,1.11L90.28,469H84.37a29.32,29.32,0,0,1,.7-5.84Zm-15.07,7.37-1.71.63c0-.21,0-.42,0-.63Zm8.15,0h8.48a11.13,11.13,0,0,0,1.14,4.27l-.44.26H84.85c-.06-.33-.12-.66-.17-1Zm36.56,9.75,2.51,1.45v2.74Zm-1.62-2.71-.14-.23h4.27V480Zm-4.8-2.77a2.53,2.53,0,0,0,.12-.23l.28.46Zm-3.88-14.57,9.18-15.89a28.64,28.64,0,0,1,3,2.11,30.09,30.09,0,0,1,6.83,7.75l-15.89,9.18A11.62,11.62,0,0,0,120.53,460.27Zm16.2,28.94h-.57l-.27-.45v-5.52l3.68,2.12A30.57,30.57,0,0,1,136.73,489.21Zm-63.09-11,.21-.08c.06.29.14.56.2.84,0,0,0,.05,0,.08,0,.19.09.37.13.56l-.56-.21Zm62.46,26.41.21,3.92-3.45-2.08C134,505.85,135,505.25,136.1,504.58Zm-66.75-23.8,1.74.64v7.79H69.35ZM129.68,508l.55-.23,6.24,3.75.68,12.66-9.29-15.51C128.47,508.42,129.08,508.2,129.68,508Zm22.45,14.32.75,13.89L141,529Zm-12.37,4.63L139,513l11.85,7.13ZM153,539.15l.68,12.66-11.46-19.15Zm3.28,15.41-.74-13.88,11.84,7.12Zm13.27,12.23.69,12.65-11.47-19.15Zm-12-10.12,11.1-6.75.74,13.88Zm27.66,20.9.75,13.87-11.85-7.12,5.22-3.18Zm-5.95.74-6.41,3.9-.75-13.89L184,575.45Zm6.86,16.12.68,12.67-11.49-19.18Zm15.66,10.77.75,13.9L190.72,612l9.76-6Zm-4.93.12-7.45,4.54L188.7,596l11.85,7.13Zm5.84,16.77.67,12.66-11.48-19.16Zm11.71,13.18,3.95-2.41.74,13.9-11.86-7.13ZM206,637.51l-.75-13.89,11.85,7.13Zm13.26,12.23.68,12.64L208.5,643.25ZM235,660.51l.73,13.88-11.83-7.13Zm-6.83,1.26-5.55,3.37-.74-13.87,11.84,7.13Zm7.72,15.61.68,12.64-11.46-19.13Zm15.67,10.78.74,13.88-11.84-7.13Zm-12.38,4.63-.74-13.88L250.23,686ZM252.41,705l.68,12.68-11.48-19.17Zm3.29,15.42L255,706.57l11.84,7.12ZM269,732.67l.67,12.66-11.46-19.14Zm-12-10.11,11.11-6.75.74,13.89Zm14.56,11.65,11.84,7.12-11.1,6.76Zm14,26.12.68,12.64-11.46-19.13Zm-12-10.12,11.1-6.75.75,13.88Zm27.67,20.89.74,13.89-11.83-7.13ZM293,773.18l-4.2,2.56-.74-13.88L299.93,769ZM302.09,788l.67,12.64-11.45-19.13Zm3.29,15.41-.74-13.88,11.84,7.13Zm13.17,12.18.56,11.82-11.17-18.2Zm-11.9-10.06,11.1-6.74.65,13.83Zm21.92,23.78,5.75-2.93.81,15.27-12.25-9.29Zm-1.14-2.18-5.75,2.95-.61-13,11.81,7.11Zm7.86,17.37.6,11.35-11.24-19.18Zm2.56,1.89,17.3,12.75H338.53Zm-.15-2.8-.78-14.65,17.83,27.58Zm-16.77-29.45-.6-12.64,11.5,19.21Zm-16.45-27.59-.68-12.64L315.27,793Zm-16.56-27.64-.68-12.66,11.48,19.16Zm-16.56-27.65-.67-12.64,11.46,19.14ZM254.8,703.58l-.67-12.66,11.46,19.15Zm-16.57-27.66-.68-12.65L249,682.42Zm-16.56-27.64L221,635.65l11.46,19.12Zm-16.56-27.65L204.43,608l11.46,19.13ZM188.54,593l-.67-12.63,11.47,19.13ZM172,565.33l-.68-12.65,11.46,19.14Zm-16.56-27.64-.66-12.63,11.45,19.13ZM138.86,510l-.38-7c.13-.09.28-.17.41-.27l.1-.08h1.6v-1.23l9,15.1Zm-5.52-95.79h-9.89V402.42h9.89Zm-12.46-11.83v11.83h-5.33V402.42ZM71.09,414.25H69.35V402.42h1.74Zm2.55-11.83h9.9v11.83h-9.9Zm12.46,0H96v11.83H86.1Zm12.44,0h9.9v11.83h-9.9Zm12.45,0h1.76v11.83H111ZM69.35,383.66h43.4v16.47H69.35Zm-20.6,30.59V402.42h9.9v11.83Zm12.45,0V402.42h5.35v11.83Zm51.55,13.44v1a40.72,40.72,0,0,0-6.61.69l-1.17.25c-1.3.3-2.61.65-3.88,1.08-.83.28-1.65.59-2.47.93a4.38,4.38,0,0,0-.58.23c-.59.25-1.14.58-1.71.85l0,0a40.19,40.19,0,0,0-6.88,4.1c-.32.23-.63.49-.93.72-1,.85-2.07,1.73-3,2.68-.64.61-1.24,1.24-1.83,1.89l-.43.48a42.38,42.38,0,0,0-3.59,4.84l-10.24-3.77v-16ZM69.35,463.2h4.16a40.93,40.93,0,0,0-.53,5.42c0,.4,0,.79,0,1.19,0,.24,0,.49,0,.73,0,0,0-.07,0-.11,0,1.14.05,2.28.17,3.41,0,.42.1.84.16,1.26h-4Zm-20.6,26V477.38h9.9v11.83Zm12.45,0V477.38h5.35v11.83Zm28.17,13.44.7.5-20.72,7.63v-8.13Zm-20,28.64h36.74L69.35,544.83Zm43.4,270.83L72,787.12l40.71-15Zm-1.92,2.31-20,12.43L69.35,803.53V789.14ZM69.35,755.08l36.76,13.56H69.35Zm43.4,13L72,753.07l40.72-15Zm-43.4-47,36.73,13.53H69.35Zm43.4,13L72,719l40.71-15Zm-43.4-49,42,15.48h-42Zm43.4,13L72,683l40.71-15Zm-43.4-47,36.73,13.54H69.35Zm43.4,13L72,649l40.71-15Zm-43.4-47,36.75,13.55H69.35Zm43.4,13L72,614.94l40.71-15Zm-43.4-47,36.75,13.54H69.35Zm43.4,13L72,580.9l40.71-15Zm-43.4-47,36.75,13.55H69.35Zm43.4,13L72,546.85l40.72-15Zm-43.4,3.48H106.1L69.35,578.88Zm0,34H106.1L69.35,612.92Zm0,34H106.1L69.35,647Zm0,34.05h36.76L69.35,681Zm0,36H106.1L69.35,717Zm0,34h36.74L69.35,751.05Zm0,34H106.1L69.35,785.09Zm0,35.23L88.2,818.49l-18.85,11.7Zm21.47,13.34,20.48,12.71L90.82,845.55,70.34,832.83Zm2.62-1.63,19.31-12v24ZM69.35,528.37V514.84l36.73,13.53Zm0,330.52V835.47L88.2,847.18Zm24.09-11.71,19.31-12v24Zm19.31-319.37-40.7-15L93,505.1c.34.2.68.43,1,.63.18.11.37.21.56.31.55.29,1.13.51,1.69.78l.17.08a40.31,40.31,0,0,0,7.4,2.79L105,510c1.32.29,2.65.52,4,.68.86.12,1.74.2,2.62.26l.64,0c.18,0,.36,0,.53,0Z"/><ellipse class="cls-23" cx="787.8" cy="880.17" rx="108.38" ry="9.16"/><path class="cls-25" d="M763,802.9A6,6,0,0,0,757,797H726.1a6,6,0,0,0-6,5.94v18.21a5.93,5.93,0,0,1,.9,4.31v21.94a6,6,0,0,1,0,4.87v21.94a6,6,0,0,0,5.94,6h7.73a6,6,0,0,0,5.95-6V852.23a5.86,5.86,0,0,1,0-4.87v-20.3h2v20.3a5.86,5.86,0,0,1,0,4.87v21.94a6,6,0,0,0,6,6h7.73a6,6,0,0,0,5.94-6V852.23a6,6,0,0,1,0-4.87V825.42a5.66,5.66,0,0,0-.15-1.31,5.89,5.89,0,0,0,.82-3Z"/><path class="cls-26" d="M727.77,869.86h6.17a6.73,6.73,0,0,1,6.73,6.73v6.18a.92.92,0,0,1-.92.92H722a.92.92,0,0,1-.92-.92v-6.18a6.73,6.73,0,0,1,6.73-6.73Z"/><path class="cls-26" d="M749.4,869.86h6.17a6.73,6.73,0,0,1,6.73,6.73v6.18a.92.92,0,0,1-.92.92H743.59a.92.92,0,0,1-.92-.92v-6.18a6.73,6.73,0,0,1,6.73-6.73Z"/><rect class="cls-14" x="718.36" y="743.43" width="47.29" height="73.3" rx="7.57" ry="7.57"/><path class="cls-19" d="M729.81,743.28s.74,24.86-11.36,32.08V811a1.73,1.73,0,0,0,1.73,1.74H764a1.73,1.73,0,0,0,1.73-1.74V775.12s-10.29-3-11.65-31.89H749s.8,20.17-6.89,28.34c0,0-6.34-3.6-7.24-28.35C734.85,743.22,729.81,743.58,729.81,743.28Z"/><polygon class="cls-18" points="718.34 784.72 741.75 778.08 765.72 784.72 765.72 792.06 742.09 785.07 718.28 792.06 718.34 784.72"/><polygon class="cls-18" points="718.34 798.84 741.75 792.2 765.72 798.84 765.72 806.18 742.09 799.19 718.28 806.18 718.34 798.84"/><rect class="cls-14" x="741.63" y="770.09" width="0.9" height="42.93"/><rect class="cls-16" x="710.47" y="743.43" width="13.57" height="32.77" rx="5.96" ry="5.96" transform="translate(1167.51 1702.72) rotate(-162.18)"/><path class="cls-14" d="M717.15,759.78h0c3.89,1.25,6.93,2.6,7.65.36l3.1-9.64c.72-2.24-1.85-5.07-5.73-6.32h0c-3.89-1.25-7.63-.45-8.35,1.79l-3.1,9.65C710,757.86,713.26,758.53,717.15,759.78Z"/><rect class="cls-16" x="704.64" y="764.9" width="13.57" height="47.91" rx="5.96" ry="5.96" transform="translate(97.36 -77.94) rotate(6.73)"/><rect class="cls-16" x="762.2" y="743.61" width="13.57" height="32.77" rx="5.96" ry="5.96" transform="translate(-157.49 202.71) rotate(-13.64)"/><path class="cls-14" d="M769.1,760h0c-4,1-7.11,2.09-7.66-.2l-2.39-9.84c-.55-2.29,2.22-4.92,6.18-5.88h0c4-1,7.64.11,8.19,2.39l2.39,9.85C776.37,758.57,773.07,759,769.1,760Z"/><rect class="cls-16" x="765.91" y="765.43" width="13.57" height="47.91" rx="5.96" ry="5.96" transform="translate(1579.62 1543.72) rotate(177.46)"/><path class="cls-16" d="M759.17,716.86a18.45,18.45,0,0,0-17.43-12.56h0a18.45,18.45,0,0,0-17.42,12.55,18.24,18.24,0,0,0-1,5.84v.85a18.22,18.22,0,0,0,1,5.88,18.51,18.51,0,0,0,15.14,12.36,9.12,9.12,0,0,0,5.2-.09,18.39,18.39,0,0,0,15.46-18.15v-.85A18.13,18.13,0,0,0,759.17,716.86Z"/><path class="cls-17" d="M741.75,734.51c-6.48,0-11.56-3.82-11.56-8.69h2.12c0,3.46,4.32,6.39,9.44,6.39s9.43-2.93,9.43-6.39h2.12C753.3,730.69,748.23,734.51,741.75,734.51Z"/><path class="cls-19" d="M750.36,715l9.62,2.51a18.31,18.31,0,0,0-36.48.45l9.88-2.78A32.39,32.39,0,0,1,750.36,715Z"/><path class="cls-18" d="M761.33,717.82l-1.35-.35c.06.6.09,1.22.09,1.85v.11h1.06a.81.81,0,0,0,.2-1.6Z"/><path class="cls-18" d="M723.5,717.92l-.92.26a.76.76,0,0,0,.21,1.5h.66c0-.12,0-.24,0-.36C723.44,718.85,723.46,718.38,723.5,717.92Z"/><path class="cls-20" d="M760,717.47,750.36,715a32.39,32.39,0,0,0-17,.18l-9.88,2.78c0,.46-.06.93-.06,1.4,0,.12,0,.24,0,.36l36.62-.25v-.11C760.07,718.69,760,718.07,760,717.47Z"/><path class="cls-18" d="M760,717.47,750.36,715a32.39,32.39,0,0,0-17,.18l-9.88,2.78c0,.46-.06.93-.06,1.4,0,.12,0,.24,0,.36l36.62-.25v-.11C760.07,718.69,760,718.07,760,717.47Z"/><path class="cls-27" d="M712.63,801.48a2.66,2.66,0,0,0-2-.91h-8a2.67,2.67,0,0,0-2.65,3l1.09,8.14a2.85,2.85,0,0,0,2.82,2.46h0v7.36h5.38V814.2h0a2.85,2.85,0,0,0,2.82-2.46l1.08-8.14A2.64,2.64,0,0,0,712.63,801.48Zm-1.7,1.8-1.09,8.14a.48.48,0,0,1-.47.42h-5.45a.49.49,0,0,1-.48-.42l-1.08-8.14a.29.29,0,0,1,.07-.24.3.3,0,0,1,.23-.11h8a.28.28,0,0,1,.23.11A.29.29,0,0,1,710.93,803.28Z"/><rect class="cls-28" x="704.66" y="821.56" width="3.96" height="33.76"/><rect class="cls-29" x="704.66" y="821.56" width="1.98" height="33.76"/><path class="cls-30" d="M716.8,863.33v16.29a5.37,5.37,0,0,1-2.67,4.64l-2.79,1.63-4.7,2.74-7.49-4.37a5.37,5.37,0,0,1-2.66-4.64V863.33a.93.93,0,0,1,.93-.93h18.44A.94.94,0,0,1,716.8,863.33Z"/><path class="cls-31" d="M704,853.35V864a15.85,15.85,0,0,0,.84,5.07l1.41,4.13a.46.46,0,0,0,.88,0l1.41-4.13a15.58,15.58,0,0,0,.84-5.07V853.35Z"/><path class="cls-32" d="M711.34,885.89l-4.7,2.74-7.49-4.37a5.37,5.37,0,0,1-2.66-4.64V863.33a.93.93,0,0,1,.93-.93h3.1c-.32,4.6-.45,9.18,1.54,13.55a22.94,22.94,0,0,0,7.2,8.49C709.94,885,710.63,885.44,711.34,885.89Z"/><circle class="cls-27" cx="855.92" cy="866.13" r="19.48"/><circle class="cls-33" cx="855.92" cy="866.13" r="14.31"/><circle class="cls-34" cx="855.92" cy="866.13" r="5.96" transform="translate(-136.41 1571.87) rotate(-80.76)"/><path class="cls-28" d="M814.53,887.56A12.53,12.53,0,0,1,802,875.05V846.18h-3.86a7.62,7.62,0,0,1-6.49-3.57L776,817.84,736.84,802H715.75a2,2,0,0,1,0-3.9h21.47a2,2,0,0,1,.73.14L778,814.45a2,2,0,0,1,.92.77l16,25.3a3.78,3.78,0,0,0,3.2,1.76H835.6a13.84,13.84,0,0,1,11.83,6.59l10.15,16.23a2,2,0,0,1,.23,1.55,2,2,0,0,1-1,1.22l-34.5,17.8A17,17,0,0,1,814.53,887.56Zm-8.61-41.38v28.87a8.62,8.62,0,0,0,8.61,8.61,13.06,13.06,0,0,0,6-1.46l32.61-16.83-9-14.44a10,10,0,0,0-8.52-4.75Z"/><path class="cls-27" d="M732.93,796.75H715.45a3.15,3.15,0,0,0-3.14,3.46,3.25,3.25,0,0,0,3.27,2.84h17.35a.81.81,0,0,0,.81-.81v-4.68A.81.81,0,0,0,732.93,796.75Z"/><path class="cls-30" d="M876.45,814.59l-7.32,9.81-5.28,7.1a27.62,27.62,0,0,1-22.13,11.1H794.91l-6.45-10.39-11.34-18.27Z"/><path class="cls-31" d="M877.15,811.06H777.93a2.6,2.6,0,1,0,0,5.2h99.22a2.6,2.6,0,0,0,0-5.2Z"/><path class="cls-32" d="M869.13,824.4l-5.28,7.1a27.62,27.62,0,0,1-22.13,11.1H794.91l-6.45-10.39c2.63.21,54.77,2.7,66.36-2C859.6,828.27,864.51,826.71,869.13,824.4Z"/><path class="cls-24" d="M790,810.34l4.42-13.91s7-3.79,9.48-6.32,16.43-7.58,16.43-7.58,11.38,3.79,15.8,8.21,7.59,2.53,10.12,3.8,4.42,0,6.32,5.05-1.27,12-1.27,12Z"/><ellipse class="cls-23" cx="646.51" cy="886.31" rx="4.79" ry="1.28"/><ellipse class="cls-23" cx="573.11" cy="893.97" rx="7.18" ry="1.91"/><rect class="cls-30" x="606.97" y="831.68" width="6.85" height="83.13" transform="translate(1151.58 -44.5) rotate(65.48)"/><rect class="cls-31" x="607.98" y="830.13" width="3.43" height="83.13" transform="translate(1149.74 -44.78) rotate(65.48)"/><path class="cls-28" d="M645.54,886.55c0-.68,0-1.38,0-2.08A65.63,65.63,0,0,0,625,839.33h0c-.52-.47-1.06-.91-1.59-1.33a.44.44,0,0,1,.37-.77c8.52,1.81,17.11,9.16,22,19.9s4.81,22,.59,29.65A.44.44,0,0,1,645.54,886.55Z"/><path class="cls-29" d="M645.58,884.47A65.63,65.63,0,0,0,625,839.33c7.3,2.84,14.27,9.58,18.49,18.83S648.22,877.1,645.58,884.47Z"/><ellipse class="cls-23" cx="418.29" cy="986.45" rx="153.71" ry="35.97"/><path class="cls-25" d="M349.34,763.5a17.38,17.38,0,0,1,17.33-17.32h90.09a17.38,17.38,0,0,1,17.32,17.32v53.06a17.22,17.22,0,0,1-2.87,9.52,17.9,17.9,0,0,1,.27,3v63.93a17,17,0,0,1-1.54,7.1,17.09,17.09,0,0,1,1.54,7.11v63.93a17.37,17.37,0,0,1-17.32,17.32H431.63a17.38,17.38,0,0,1-17.32-17.32V907.26a17.09,17.09,0,0,1,1.54-7.11,17,17,0,0,1-1.54-7.1V833.89h-5.85v59.16a17.2,17.2,0,0,1-1.53,7.1,17.24,17.24,0,0,1,1.53,7.11v63.93a17.37,17.37,0,0,1-17.32,17.32H368.62a17.38,17.38,0,0,1-17.33-17.32V907.26a17.09,17.09,0,0,1,1.54-7.11,17,17,0,0,1-1.54-7.1V829.12a16.64,16.64,0,0,1,.44-3.82,17.12,17.12,0,0,1-2.39-8.74Z"/><path class="cls-26" d="M416.56,958.62h52.67a2.25,2.25,0,0,1,2.25,2.25v21.54A16.49,16.49,0,0,1,455,998.9H430.8a16.49,16.49,0,0,1-16.49-16.49V960.87a2.25,2.25,0,0,1,2.25-2.25Z" transform="translate(885.79 1957.53) rotate(-180)"/><path class="cls-26" d="M353.54,958.62h52.67a2.25,2.25,0,0,1,2.25,2.25v21.54A16.49,16.49,0,0,1,392,998.9H367.78a16.49,16.49,0,0,1-16.49-16.49V960.87a2.25,2.25,0,0,1,2.25-2.25Z" transform="translate(759.75 1957.53) rotate(-180)"/><rect class="cls-14" x="341.51" y="590.19" width="137.81" height="213.58" rx="18.55" ry="18.55" transform="translate(820.83 1393.96) rotate(180)"/><rect class="cls-16" x="323.47" y="588.18" width="39.54" height="95.5" rx="17.36" ry="17.36" transform="translate(402.08 1356.17) rotate(-156.31)"/><path class="cls-14" d="M342.93,635.8h0c10.9,4.78,19.32,9.59,22.07,3.32l11.86-27c2.76-6.27-3.85-15.23-14.75-20h0c-10.89-4.78-22-3.57-24.71,2.7l-11.86,27C322.79,628.08,332,631,342.93,635.8Z"/><rect class="cls-16" x="282.86" y="548.27" width="39.54" height="139.6" rx="17.36" ry="17.36" transform="translate(873.75 1002.01) rotate(150)"/><rect class="cls-16" x="463.63" y="589.16" width="39.54" height="95.5" rx="17.36" ry="17.36" transform="translate(-219.18 255.19) rotate(-24.29)"/><path class="cls-14" d="M483.7,636.78h0c-10.85,4.89-19.22,9.79-22,3.55l-12.14-26.91c-2.82-6.24,3.69-15.27,14.54-20.17h0c10.84-4.89,21.92-3.8,24.74,2.44l12.14,26.91C503.76,628.85,494.54,631.88,483.7,636.78Z"/><rect class="cls-16" x="490.05" y="649.26" width="39.54" height="139.6" rx="17.36" ry="17.36" transform="translate(1170.3 1302.79) rotate(166.81)"/><path class="cls-16" d="M360.38,512.77a53.78,53.78,0,0,1,50.79-36.58h0A53.77,53.77,0,0,1,462,512.76a53,53,0,0,1,2.8,17v2.47a53.1,53.1,0,0,1-2.84,17.13,53.87,53.87,0,0,1-44.11,36,26.68,26.68,0,0,1-15.15-.26,53.69,53.69,0,0,1-45.07-52.9v-2.47A53.2,53.2,0,0,1,360.38,512.77Z"/><path class="cls-17" d="M411.16,564.22c18.89,0,33.68-11.13,33.68-25.33h-6.19c0,10.1-12.59,18.63-27.49,18.63s-27.48-8.53-27.48-18.63h-6.19C377.49,553.09,392.28,564.22,411.16,564.22Z"/><path class="cls-19" d="M386.06,507.26l-28,7.29a53.37,53.37,0,0,1,106.31,1.32l-28.79-8.11A94.53,94.53,0,0,0,386.06,507.26Z"/><path class="cls-18" d="M354.1,515.57l3.93-1c-.17,1.77-.27,3.57-.27,5.39,0,.11,0,.22,0,.33l-3.09,0a2.38,2.38,0,0,1-.58-4.68Z"/><path class="cls-18" d="M464.34,515.87l2.67.75a2.24,2.24,0,0,1-.62,4.39l-1.91,0c0-.35,0-.7,0-1C464.51,518.57,464.44,517.22,464.34,515.87Z"/><path class="cls-20" d="M358,514.55l28-7.29a94.53,94.53,0,0,1,49.49.5l28.79,8.11c.1,1.35.17,2.7.17,4.07,0,.35,0,.7,0,1l-106.71-.72c0-.11,0-.22,0-.33C357.76,518.12,357.86,516.32,358,514.55Z"/><path class="cls-18" d="M358,514.55l28-7.29a94.53,94.53,0,0,1,49.49.5l28.79,8.11c.1,1.35.17,2.7.17,4.07,0,.35,0,.7,0,1l-106.71-.72c0-.11,0-.22,0-.33C357.76,518.12,357.86,516.32,358,514.55Z"/><path class="cls-19" d="M446.26,589.85s-2.16,72.73,33.37,93.87V788.13a5.08,5.08,0,0,1-5.09,5.08H345.92a5.08,5.08,0,0,1-5.09-5.08V683s30.22-8.67,34.2-93.34H390s-2.32,59,20.26,82.94c0,0,18.59-10.55,21.25-83C431.48,589.66,446.26,590.72,446.26,589.85Z"/><polygon class="cls-18" points="479.96 711.09 411.23 691.69 340.83 711.09 340.83 732.58 410.23 712.13 480.12 732.58 479.96 711.09"/><polygon class="cls-18" points="479.96 752.41 411.23 733.01 340.83 752.41 340.83 773.9 410.23 753.45 480.12 773.9 479.96 752.41"/><rect class="cls-14" x="408.9" y="668.31" width="2.66" height="125.62" transform="translate(820.46 1462.23) rotate(-180)"/><path class="cls-35" d="M259.72,501.66c4.41,0,15.27,14.25,37.73,17.11,23.58,3,16.71,34.77,13.2,55.51-4.08,24.21-28,52.82-50.93,51.56s-45.58-30.81-49-51.56-10.37-52.5,13.21-55.51C246.35,515.91,255.32,501.66,259.72,501.66Z"/><path class="cls-14" d="M259.06,531h3.24c.81.08,1.63.16,2.45.26a31.54,31.54,0,0,1,10.77,3.28A32.53,32.53,0,0,1,288.19,546a31.93,31.93,0,0,1,5,13.73c.1.84.17,1.69.26,2.54v3.06c0,.14-.06.29-.08.43-.24,1.75-.35,3.53-.75,5.24a32.29,32.29,0,0,1-16.11,21.49,31,31,0,0,1-11.81,3.82l-2.4.26h-3.24a3.39,3.39,0,0,0-.44-.08,30.9,30.9,0,0,1-10.38-2.37A32.5,32.5,0,0,1,232,579.64a31.4,31.4,0,0,1-3.84-11.8c-.1-.82-.18-1.63-.26-2.45v-3.24c0-.13.05-.26.07-.4.25-1.74.37-3.52.76-5.23a32.78,32.78,0,0,1,28.71-25.37Zm27.21,32.76a25.6,25.6,0,1,0-25.61,25.6A25.58,25.58,0,0,0,286.27,563.76Z"/><path class="cls-14" d="M255.65,566.78c.86-.88,1.64-1.7,2.45-2.51,4.43-4.43,8.85-8.88,13.3-13.29a4.64,4.64,0,0,1,7.69,1.61,4.71,4.71,0,0,1-1.37,5.32q-7.41,7.37-14.79,14.78c-1.31,1.3-2.61,2.61-3.92,3.9a4.66,4.66,0,0,1-6.47,0q-4.56-4.44-9.1-8.91A4.67,4.67,0,1,1,250,561c1.81,1.77,3.59,3.57,5.38,5.36C255.43,566.49,255.49,566.59,255.65,566.78Z"/><ellipse class="cls-23" cx="1147.82" cy="877.98" rx="56.26" ry="8.46"/><polygon class="cls-36" points="1128.02 810.72 1124.26 810.72 1126.61 817.57 1130.37 817.57 1128.02 810.72"/><path class="cls-37" d="M1110.26,866a10.72,10.72,0,1,0,13.58-6.74A10.72,10.72,0,0,0,1110.26,866Z"/><path class="cls-38" d="M1129.05,863.07a10.71,10.71,0,0,1-18.42,2c-.13.31-.26.62-.37.94a10.72,10.72,0,1,0,18.79-2.93Z"/><path class="cls-39" d="M1182.92,786.5l0,0-5-36.88-7.59-6-44.25-13.47-30.4,38.23,23.15,40,7.59,6,38.1-4.18,0,0c2.06-.5,6.23-4.19,10.19-9,4.59-5.52,8.45-11.94,8.23-14.33A1.69,1.69,0,0,0,1182.92,786.5Z"/><path class="cls-40" d="M1170.36,743.55l-44.25-13.47L1108.68,752a117.06,117.06,0,0,0,19.87,17.3c20.71,14.42,42.45,20.61,54.3,16.51l-4.9-36.22Z"/><path class="cls-39" d="M1115.47,867.76a5.22,5.22,0,1,0,6.62-3.29A5.22,5.22,0,0,0,1115.47,867.76Z"/><polygon class="cls-36" points="1149.99 847.41 1138.37 847.41 1186.67 880.14 1190.05 880.14 1149.99 847.41"/><path class="cls-41" d="M1187.34,789.52l-17.15,23.14-43.79,4.17h0c0,1.53,2.39,2.8,3.92,2.91l33.51,2.55-15.53,23.44h-13.52l-13.91,22.4.68.56,15-18.35h13.57l7.18-11A34.47,34.47,0,0,1,1188,823.78h0C1190.08,812.56,1191.71,802.69,1187.34,789.52Z"/><path class="cls-36" d="M1170.49,822.14q-3.39,0-6.7.21l-15.49,23.38h-13.52l-13.91,22.4.68.56,15-18.35h13.57l7.18-11A34.47,34.47,0,0,1,1188,823.78l0-.16A103.61,103.61,0,0,0,1170.49,822.14Z"/><polygon class="cls-41" points="1157.79 782.3 1156.54 783.96 1180.25 803.8 1183.42 799.6 1157.79 782.3"/><path class="cls-41" d="M1150.48,783.77a8,8,0,1,0,8-8A8,8,0,0,0,1150.48,783.77Z"/><path class="cls-41" d="M1118.52,868.78a2,2,0,1,0,2.54-1.26A2,2,0,0,0,1118.52,868.78Z"/><circle class="cls-39" cx="1158.45" cy="783.77" r="3.27"/><ellipse class="cls-41" cx="1110.81" cy="749" rx="23.16" ry="4.31" transform="translate(-170.5 1140.34) rotate(-50.97)"/><path class="cls-36" d="M1115.92,749.46c6.94-9,11.12-17,9.5-18.43-1.31-1.16-5.94,2.17-11.5,7.93A61.92,61.92,0,0,1,1115.92,749.46Z"/><path class="cls-42" d="M1161.31,748.37a97.58,97.58,0,0,0,14.22,3l0-.4-7.11-5.65-7.06-2.15Z"/><path class="cls-42" d="M1155,741.24l-25.15-7.66c4.26,4,13.67,8.95,25.15,12.83Z"/><rect class="cls-43" x="-1.85" y="-8.84" width="2503.84" height="1095.34"/></g></g></svg>