<svg xmlns="http://www.w3.org/2000/svg" xmlns:xlink="http://www.w3.org/1999/xlink" viewBox="0 0 2609.88 1096.34"><defs><style>.cls-1,.cls-12,.cls-36,.cls-42,.cls-44,.cls-45,.cls-46,.cls-54{fill:none;}.cls-2{isolation:isolate;}.cls-3{fill:#eaeaea;}.cls-3,.cls-4{opacity:0.9;}.cls-4{fill:#b9c3ce;}.cls-5{fill:#777f86;}.cls-14,.cls-6{fill:#a9a5b0;}.cls-6{opacity:0.4;}.cls-14,.cls-20,.cls-22,.cls-6{mix-blend-mode:multiply;}.cls-7{fill:#cce0a6;}.cls-8{fill:#a5b386;}.cls-9{fill:#f7e4c3;}.cls-10{fill:#e79b80;}.cls-11{fill:#c8d2fc;}.cls-12,.cls-42{stroke:#c8d2fc;}.cls-12,.cls-36,.cls-42,.cls-44,.cls-45,.cls-46,.cls-54{stroke-miterlimit:10;}.cls-12{stroke-width:2.53px;}.cls-13{fill:#73819e;}.cls-14{opacity:0.2;}.cls-15{fill:#f5f5f5;}.cls-16{fill:#c1c1c1;}.cls-17{fill:#e0e0e0;}.cls-18{fill:#141827;}.cls-19{fill:#2b2b2b;}.cls-20{fill:url(#linear-gradient);}.cls-21{fill:#7e7e7e;}.cls-22{fill:url(#linear-gradient-2);}.cls-23{fill:#4fafde;}.cls-24{fill:#fff;}.cls-25{fill:#2b4b82;}.cls-26{fill:#255ca3;}.cls-27{fill:#f4f4f4;}.cls-28{fill:url(#linear-gradient-3);}.cls-29{fill:url(#linear-gradient-4);}.cls-30{fill:url(#linear-gradient-5);}.cls-31{fill:url(#linear-gradient-6);}.cls-32{fill:#2d343a;}.cls-33{fill:#303030;}.cls-34{fill:#3a3a3a;}.cls-35{fill:#a4b5e0;}.cls-36,.cls-54{stroke:#a4b5e0;}.cls-36{stroke-width:2.64px;}.cls-37{fill:#4b596d;}.cls-38{fill:#dbdbdb;}.cls-39{fill:#fafafa;}.cls-40{fill:#ebebeb;}.cls-41{opacity:0.8;}.cls-42,.cls-44{stroke-width:2.43px;}.cls-43{fill:#d4defc;}.cls-44{stroke:#73819e;}.cls-45{stroke:#cce0a6;}.cls-45,.cls-46{stroke-width:4.87px;}.cls-46{stroke:#e79b80;}.cls-47{opacity:0.08;}.cls-48{clip-path:url(#clip-path);}.cls-49{fill:#2c3c4f;}.cls-50{fill:#232323;}.cls-51{fill:#2c4770;}.cls-52{fill:#e6b338;}.cls-53{fill:#f0f0f0;}.cls-54{stroke-width:2.61px;}.cls-55{fill:#ba9171;}.cls-56{fill:#deba97;}.cls-57{fill:#ecb5a2;}</style><linearGradient id="linear-gradient" x1="281.96" y1="631.24" x2="399.75" y2="631.24" gradientUnits="userSpaceOnUse"><stop offset="0" stop-color="#d5c353"/><stop offset="0.19" stop-color="#d5c45b"/><stop offset="0.48" stop-color="#d5c66f"/><stop offset="0.84" stop-color="#d6c991"/><stop offset="1" stop-color="#d6cba3"/></linearGradient><linearGradient id="linear-gradient-2" x1="309.36" y1="777.52" x2="366.12" y2="777.52" xlink:href="#linear-gradient"/><linearGradient id="linear-gradient-3" x1="-564.5" y1="430.03" x2="-564.5" y2="407.9" gradientTransform="translate(945.73 75.66) rotate(-4.69)" gradientUnits="userSpaceOnUse"><stop offset="0" stop-color="#e3e2fb"/><stop offset="0.29" stop-color="#cbd0f4"/><stop offset="0.75" stop-color="#acb9eb"/><stop offset="1" stop-color="#a0b0e8"/></linearGradient><linearGradient id="linear-gradient-4" x1="-555.37" y1="431.51" x2="-555.37" y2="406.33" gradientTransform="translate(945.73 75.66) rotate(-4.69)" gradientUnits="userSpaceOnUse"><stop offset="0" stop-color="#f6f8f9"/><stop offset="1" stop-color="#cdd7fb"/></linearGradient><linearGradient id="linear-gradient-5" x1="-650.75" y1="562.5" x2="-650.75" y2="523.89" gradientTransform="translate(1039.6)" gradientUnits="userSpaceOnUse"><stop offset="0" stop-color="#f6f8f9"/><stop offset="0.32" stop-color="#edf1f9"/><stop offset="0.85" stop-color="#d5defb"/><stop offset="1" stop-color="#cdd7fb"/></linearGradient><linearGradient id="linear-gradient-6" x1="-631.72" y1="550.69" x2="-631.72" y2="541.38" gradientTransform="translate(1039.6)" xlink:href="#linear-gradient-3"/><clipPath id="clip-path"><rect class="cls-1" x="1655.88" y="413.34" width="855" height="600"/></clipPath></defs><title>Asset 21</title><g class="cls-2"><g id="Layer_2" data-name="Layer 2"><g id="Capa_1" data-name="Capa 1"><rect class="cls-3" x="5.99" y="7.34" width="2504.89" height="908"/><rect class="cls-4" y="884.36" width="2504.88" height="211.97"/><polygon class="cls-5" points="2512.88 887.08 17.48 887.08 5.88 874.42 2501.28 874.42 2512.88 887.08"/><ellipse class="cls-6" cx="2042.08" cy="874.71" rx="30.28" ry="5.23"/><path class="cls-7" d="M2082.89,753.13c-8.43,27.6-22.73,54-24.36,83.12,0,2.18,0,4.36-.05,6.54a.11.11,0,0,1-.1.12v.52a.57.57,0,0,1-1.13,0,102.32,102.32,0,0,1,.92-15.67q.26-19.66,1.95-39.3c.66-7.63,1.31-15.32,2.58-22.87,1.11-6.66,3-13.27,6.67-19a29.76,29.76,0,0,1,6-6.9c1.64-1.35,4-3.09,6.25-2,1.95.92,2.5,3.41,2.72,5.34C2084.75,746.43,2083.88,749.86,2082.89,753.13Z"/><path class="cls-8" d="M2059.5,789.39c.63,12.05,1.08,37.39,1,35.23a349.8,349.8,0,0,1-13.16-38.79c-3.26-12-7.13-25.05-5.32-37.61.61-4.22,2.83-9.48,7.87-9.52,4.88,0,6.78,5.56,7.25,9.52.79,6.71.86,13.59,1.24,20.34Q2059,779,2059.5,789.39Z"/><path class="cls-7" d="M2054.64,811.58a210.63,210.63,0,0,1,4.65,36.77c0,.17-.25.17-.26,0-.18-2.42-2.48-17.82-15.51-40.5-2.64-4.61-5.51-9.08-7.82-13.86-2.09-4.3-4.18-9-4.73-13.76-.35-3,.08-9,3.93-9.72s7.69,4.71,9.27,7.58c2.61,4.7,4.12,10,5.69,15.16Q2052.64,802.31,2054.64,811.58Z"/><path class="cls-8" d="M2093.32,776.82c-2.62,6-6.65,11.13-10.63,16.22s-8.06,10.48-11.67,16c-5.64,8.68-14.07,35.54-14.21,36.95,0,.42-.67.3-.64-.11.22-3.41,4.46-28.37,7.29-37.24,3.93-12.28,8.65-25.38,16.5-35.77a45.29,45.29,0,0,1,6.11-6.64c1.69-1.49,3.84-3.38,6.25-2.46C2097.64,765.82,2094.91,773.21,2093.32,776.82Z"/><path class="cls-9" d="M2067.94,872.13c0,2.36-9.85,2.58-9.85,2.58s-9.85-.22-9.85-2.58-5.57-56.69-4.42-56.69h28.55C2073.52,815.44,2067.94,869.77,2067.94,872.13Z"/><rect class="cls-9" x="2040.38" y="811.61" width="35.42" height="11.76" rx="2.69"/><rect class="cls-10" x="460.34" y="298.02" width="3.01" height="28.46" rx="1.4" transform="translate(567.59 859.63) rotate(-135)"/><rect class="cls-11" x="479.83" y="288.7" width="3.01" height="23.49" rx="1.4" transform="translate(656.07 -239.39) rotate(75.96)"/><circle class="cls-12" cx="471.18" cy="302.84" r="69.15" transform="matrix(0.99, -0.15, 0.15, 0.99, -40.36, 74.7)"/><circle class="cls-12" cx="471.18" cy="302.84" r="55.09" transform="translate(-20.22 34.06) rotate(-4.05)"/><path class="cls-13" d="M474.23,302.84a3,3,0,1,1-3.05-3A3.06,3.06,0,0,1,474.23,302.84Z"/><rect class="cls-13" x="469.24" y="254.35" width="3.88" height="13.31" rx="1.67"/><rect class="cls-13" x="448.32" y="259.95" width="3.88" height="13.31" rx="1.67" transform="translate(-72.98 261.14) rotate(-30.03)"/><rect class="cls-13" x="433.01" y="275.27" width="3.88" height="13.31" rx="1.67" transform="translate(-26.66 517.68) rotate(-60.01)"/><rect class="cls-13" x="427.4" y="296.19" width="3.88" height="13.31" rx="1.67" transform="translate(126.5 732.19) rotate(-90)"/><rect class="cls-13" x="433.01" y="317.11" width="3.88" height="13.31" rx="1.67" transform="translate(371.98 862.32) rotate(-119.99)"/><rect class="cls-13" x="448.32" y="332.43" width="3.88" height="13.31" rx="1.67" transform="translate(670.59 857.9) rotate(-149.99)"/><rect class="cls-13" x="469.24" y="338.03" width="3.88" height="13.31" rx="1.67" transform="translate(942.37 689.38) rotate(180)"/><rect class="cls-13" x="490.16" y="332.43" width="3.88" height="13.31" rx="1.67" transform="translate(1087.82 386.74) rotate(150.01)"/><rect class="cls-13" x="505.48" y="317.11" width="3.88" height="13.31" rx="1.67" transform="translate(1041.49 46.16) rotate(119.99)"/><rect class="cls-13" x="511.09" y="296.19" width="3.88" height="13.31" rx="1.67" transform="translate(815.87 -210.18) rotate(90)"/><rect class="cls-13" x="505.48" y="275.27" width="3.88" height="13.31" rx="1.67" transform="translate(497.92 -298.48) rotate(60.01)"/><rect class="cls-13" x="490.16" y="259.95" width="3.88" height="13.31" rx="1.67" transform="matrix(0.87, 0.5, -0.5, 0.87, 199.38, -210.42)"/><ellipse class="cls-14" cx="469.22" cy="955.16" rx="423" ry="33.87"/><path class="cls-15" d="M70.89,594.86s-7,5.31-7,12.33v35.93h52.39V605.58s-.74-9.21-6.89-10.72Z"/><path class="cls-16" d="M67.84,641.17a100.8,100.8,0,0,1-.77-11A8.84,8.84,0,0,1,73.21,622c2.76-.76,5.65.25,8.47.72a22.43,22.43,0,0,0,13.56-2c3.54-1.75,6.78-4.5,10.71-4.86,2.57-.24,5.54,1,6.26,3.45a8.65,8.65,0,0,1-.06,3.65c-.84,5.54.24,12.41.24,17.73-14.67.69-29.87.2-44.55.52"/><polyline class="cls-17" points="60.55 648.2 68.44 643.12 116.26 643.12 123.93 648.2 60.55 648.2"/><path class="cls-15" d="M59.06,531.33v53.48h64.87V648.2H60.55v15.2H169.9V531.33a11.39,11.39,0,0,0-11.39-11.39H70.45A11.39,11.39,0,0,0,59.06,531.33Z"/><path class="cls-17" d="M169.9,532.54c0,.26-24.81.47-55.42.47s-55.42-.21-55.42-.47,24.81-.47,55.42-.47S169.9,532.28,169.9,532.54Z"/><path class="cls-17" d="M139.13,663.4c-.26,0-.47-32-.47-71.54s.21-71.55.47-71.55.47,32,.47,71.55S139.39,663.4,139.13,663.4Z"/><path class="cls-17" d="M53.19,625.79l-.65-16.2a21.84,21.84,0,0,1,3.52-13.22c2.09-3.06,5.17-5.79,9.55-5.79h43.76v4.28H66.42s-7.73.81-8.75,11.39a104.43,104.43,0,0,0,0,19.54Z"/><rect class="cls-16" x="92.96" y="870.77" width="19.19" height="34.59"/><rect class="cls-16" x="177.74" y="870.77" width="19.19" height="34.59"/><rect class="cls-16" x="50.79" y="663.4" width="158.92" height="207.38"/><rect class="cls-15" x="21.68" y="663.4" width="154.8" height="207.38"/><rect class="cls-15" x="35.36" y="870.77" width="19.19" height="34.59"/><rect class="cls-15" x="145.69" y="870.77" width="19.19" height="34.59"/><path class="cls-17" d="M164.16,847.08s0-.31,0-.91,0-1.5,0-2.65c0-2.34,0-5.76-.05-10.17,0-8.82-.07-21.59-.12-37.46l.22.22-132.84.09h0l.31-.31c0,17.89,0,35.19,0,51.19l-.3-.3,95.17.14,27.67.09,7.42,0h1.92l.67,0s-.21,0-.63,0l-1.89,0-7.35,0-27.61.08-95.37.14H31v-.3c0-16,0-33.3,0-51.19v-.31h.33l132.84.1h.22v.21c0,15.93-.09,28.74-.12,37.59,0,4.39,0,7.79,0,10.12q0,1.7,0,2.61C164.18,846.79,164.16,847.08,164.16,847.08Z"/><path class="cls-17" d="M101.75,821.49a7.46,7.46,0,0,1-.25-1,4,4,0,0,0-1.47-2.07,3.82,3.82,0,0,0-3.56-.48,3.73,3.73,0,0,0,0,7,3.79,3.79,0,0,0,3.56-.48,4,4,0,0,0,1.47-2.06,6.88,6.88,0,0,1,.25-1,1.84,1.84,0,0,1,0,1,4,4,0,0,1-1.44,2.35,4.23,4.23,0,0,1-4,.68,4.28,4.28,0,0,1,0-8.08,4.23,4.23,0,0,1,4,.67,4,4,0,0,1,1.44,2.36A1.86,1.86,0,0,1,101.75,821.49Z"/><path class="cls-17" d="M164.16,785.78s0-.32,0-.92,0-1.49,0-2.65c0-2.34,0-5.75-.05-10.16,0-8.83-.07-21.59-.12-37.46l.22.21-132.84.1h0l.31-.31c0,17.89,0,35.18,0,51.19l-.3-.3,95.17.14,27.67.08,7.42,0,1.92,0,.67,0-.63,0-1.89,0-7.35,0-27.61.09-95.37.14H31v-.3c0-16,0-33.3,0-51.19v-.32h.33l132.84.1h.22v.22c0,15.92-.09,28.73-.12,37.59,0,4.39,0,7.79,0,10.11,0,1.14,0,2,0,2.62S164.16,785.78,164.16,785.78Z"/><path class="cls-17" d="M101.75,760.18a6.88,6.88,0,0,1-.25-.95,4,4,0,0,0-1.47-2.06,3.79,3.79,0,0,0-3.56-.48,3.73,3.73,0,0,0,0,7,3.82,3.82,0,0,0,3.56-.48,4,4,0,0,0,1.47-2.07,7.46,7.46,0,0,1,.25-1,1.86,1.86,0,0,1,0,1,4,4,0,0,1-1.44,2.36,4.23,4.23,0,0,1-4,.67,4.28,4.28,0,0,1,0-8.08,4.2,4.2,0,0,1,4,.68,4,4,0,0,1,1.44,2.35A1.86,1.86,0,0,1,101.75,760.18Z"/><path class="cls-17" d="M164.16,725.3s0-.32,0-.92,0-1.49,0-2.65c0-2.33,0-5.75-.05-10.16,0-8.82-.07-21.59-.12-37.46l.22.22-132.84.09h0l.31-.31c0,17.89,0,35.19,0,51.19l-.3-.3,95.17.14,27.67.08,7.42,0,1.92,0,.67,0-.63,0-1.89,0-7.35,0-27.61.08-95.37.14H31v-.3c0-16,0-33.3,0-51.19v-.31h.33l132.84.09h.22v.22c0,15.92-.09,28.74-.12,37.59,0,4.39,0,7.79,0,10.12q0,1.7,0,2.61C164.18,725,164.16,725.3,164.16,725.3Z"/><path class="cls-17" d="M101.75,699.7c-.06,0-.07-.35-.25-1a4,4,0,0,0-1.47-2.06,3.79,3.79,0,0,0-3.56-.48,3.73,3.73,0,0,0,0,7,3.79,3.79,0,0,0,3.56-.48,4,4,0,0,0,1.47-2.07,7.46,7.46,0,0,1,.25-.95,1.86,1.86,0,0,1,0,1,4,4,0,0,1-1.44,2.36,4.23,4.23,0,0,1-4,.67,4.28,4.28,0,0,1,0-8.07,4.23,4.23,0,0,1,4,.67,4,4,0,0,1,1.44,2.36A1.8,1.8,0,0,1,101.75,699.7Z"/><path class="cls-17" d="M168.31,663.4c0,.25-24.1.46-53.83.46s-53.83-.21-53.83-.46,24.1-.47,53.83-.47S168.31,663.14,168.31,663.4Z"/><path class="cls-18" d="M328.19,787.19c-13.7-1.67-22.62-7.21-26.5-16.46-10.84-25.8,16.15-77.08,27.46-94.66l.2-.3a2.51,2.51,0,0,0-.61-3.36l-4.95-3.71a2.5,2.5,0,0,0-3.6.65h0c-1.81,2.8-44,69.1-28.44,106.24,5.58,13.3,17.43,21.14,35.22,23.31h0a2.49,2.49,0,0,0,2.79-2.22l.71-6.73a2.49,2.49,0,0,0-2.18-2.74Z"/><path class="cls-19" d="M372.68,734.5H312.23C295.51,734.5,282,716,282,693.1V568c0-22.87,13.55-41.4,30.27-41.4h60.45c16.72,0,30.27,18.53,30.27,41.4V693.1C403,716,389.4,734.5,372.68,734.5Z"/><path class="cls-20" d="M392,713H331.55c-16.71,0-30.26-18.53-30.26-41.4V546.44a54,54,0,0,1,3.2-18.47c-13,4.68-22.53,20.79-22.53,40V693.1c0,22.87,13.55,41.4,30.27,41.4h60.45c11.86,0,22.1-9.35,27.07-22.94A22.58,22.58,0,0,1,392,713Z"/><rect class="cls-18" x="307.95" y="799.21" width="155.99" height="12.82" transform="translate(771.89 1611.24) rotate(180)"/><rect class="cls-18" x="373.54" y="822.82" width="24.81" height="7.76" transform="translate(771.89 1653.4) rotate(180)"/><rect class="cls-18" x="381.01" y="830.58" width="9.87" height="47.08" transform="translate(771.89 1708.24) rotate(180)"/><rect class="cls-21" x="379.62" y="877.66" width="12.65" height="54.56" transform="translate(771.89 1809.87) rotate(180)"/><polygon class="cls-18" points="379.5 812.03 392.4 812.03 408.33 812.03 401.86 822.82 392.4 822.82 379.5 822.82 370.03 822.82 363.56 812.03 379.5 812.03"/><path class="cls-19" d="M393.68,754.9h-.21l-1.56-.07-2.82-.1h-.63l-1.55,0H385l-1.55,0h-.63l-2.82.1-1.56.07h-.21c-25.64,1.28-77.4,8.05-67.65,44.31H461.33C471.09,763,419.32,756.18,393.68,754.9Z"/><path class="cls-22" d="M334,775c8.36-13.35,32.14-19.13,32.14-19.13-26.86,2.83-63.94,12.21-55.56,43.38h21.13C329.41,795,328.22,784.15,334,775Z"/><path class="cls-18" d="M389.5,929.36l63.22,28.73a16.47,16.47,0,0,0-3.58-11c-4.33-5.16-36.78-20.31-59.64-30.2Z"/><path class="cls-21" d="M434.67,958.65a7.8,7.8,0,1,0,7.8-7.8A7.8,7.8,0,0,0,434.67,958.65Z"/><path class="cls-18" d="M382.39,916.85c-22.86,9.89-55.3,25-59.64,30.2a16.4,16.4,0,0,0-3.57,11l63.21-28.73Z"/><path class="cls-21" d="M337.22,958.65a7.8,7.8,0,1,1-7.8-7.8A7.8,7.8,0,0,1,337.22,958.65Z"/><rect class="cls-23" x="544.07" y="563.22" width="37.6" height="21.12" rx="10.56" transform="translate(-211.48 358.31) rotate(-30)"/><path class="cls-24" d="M484.62,644.65a52.59,52.59,0,0,1-12.66-9.2c-9.94-10.24-18-22.88-24.8-35.51a212.86,212.86,0,0,1-14.07-32.5c-3.32-9.84-24.17-32.25-2-32.73,5.53-.11,10.07,3.14,13.36,6.87,14.8,16.78,54,77.14,54,77.14Z"/><path class="cls-24" d="M484,644.74s-16.47-20.3-3.53-32.55S555.42,564,555.42,564L565.81,583S504.17,645.87,484,644.74Z"/><path class="cls-25" d="M560.32,707.57c-29.3-9.67-60.67-12.9-91.29-15.33-15.21-1.21-32.93-3.89-48.16-5.14-33.66-2.77-59.77-12.43-54.61,22.41,1.88,12.68,4.57,26.54,12.21,37.42,8.29,11.79,22.7,16.88,36.43,19.26,15.51,2.69,20.36-3.05,36-3.6,13.74-.47,20-1.56,33.73-.36,20.67,1.81,46.86,1.1,63.46-4C568.87,737.26,560.32,707.57,560.32,707.57Z"/><path class="cls-25" d="M560.32,707.57s6.76-.88,7.83,17.18S575,932.17,575,932.17l-51.51,1.54S519.29,793,521.63,728.26C521.63,728.26,534.8,697.68,560.32,707.57Z"/><path class="cls-26" d="M500.67,719.43c-.21-.22,7.43,1,7.19.73-5.14-4.67-20.9-7.35-27.5-8.43-47.59-7.82-71.06-11.78-119.17-15.19-8.05-.57-16.31-2.48-21.78,4.57-4.31,5.56-5.33,13.23-5.54,20-.23,7.73.28,15.66,3.28,22.79a32.37,32.37,0,0,0,19.49,17.92c27.92,9.79,76.52,9.07,103.35,9.43,18.59.25,35.2-11.78,42.42-29.4C505.3,734.84,506.38,725.44,500.67,719.43Z"/><path class="cls-23" d="M351,544.68c8.35-14.07,23.7-18.84,39.32-18.17a116.31,116.31,0,0,1,25.17,4.29c7.93,2.15,18.24,4,24.36,9.78,7.49,7.09,9,17.68,9.64,27.43.7,10.49.86,21,.58,31.51-.53,20.25-1.95,40.41-1.23,60.68.36,10.49.77,22.78-10.52,27.78-5.89,2.62-12.64,2.77-19,3.12a221.27,221.27,0,0,0-31.23,3.62c-9.66,1.93-19,5.79-28.91,6-8.42.19-15.51-3.82-15.67-12.8-.16-9.21,5.08-20.22,6.56-29.46,2.83-17.64,3.62-36.09.19-53.69C346.49,585.25,340,563.2,351,544.68Z"/><path class="cls-24" d="M453.05,559c-1-15.56-30.13-30.38-37.63-31.44l-2.71,23L377.9,524.28c-.38-.49-13.93,6-15.59,6.68-34.87,15.46-27,61.53-26.93,92l.15,44.91c0,7.67.36,15.41.07,23.07-.25,6.86-.25,23.95,6.22,27.61,7.19,4.07,14.41,1.41,21.71-.74,8.52-2.52,23.47-8,32.28-9.25,11.64-1.68,18.92-13.19,30.67-13.52,9.93-.28,18.46.73,22.53-10.27,1.66-4.48,1.84-9.37,1.74-14.15C449.85,627.94,455.9,601.71,453.05,559Z"/><path class="cls-26" d="M420.34,556l-5.87,19a1.12,1.12,0,0,1-2.08.16l-8.94-18.56a1.13,1.13,0,0,1,1-1.61l4.67-.14a1.12,1.12,0,0,1,1,.63l.44.88a1.12,1.12,0,0,0,2.13-.51h0a1.12,1.12,0,0,1,1.08-1.14l5.45-.16A1.12,1.12,0,0,1,420.34,556Z"/><path class="cls-26" d="M414,571.09h-2.16a1.13,1.13,0,0,0-1.12,1l-5.44,96.78a1.15,1.15,0,0,0,.34.86l10.56,10.36a1.12,1.12,0,0,0,1.67-.11L427,668.42a1.11,1.11,0,0,0,.23-.84l-12.11-95.51A1.12,1.12,0,0,0,414,571.09Z"/><path class="cls-27" d="M392.41,680.92a57.72,57.72,0,0,1-12.61-11.63c-9.47-12.35-16.54-27-22.17-41.49A223.74,223.74,0,0,1,346.84,591c-2.23-11-11.88-47.3,12.61-44.68,6.11.65,10.64,4.77,13.72,9.22,13.87,20,38.22,99.54,38.22,99.54Z"/><rect class="cls-23" x="453.08" y="574.04" width="37.6" height="21.12" rx="10.56" transform="translate(-229.08 314.26) rotate(-30)"/><path class="cls-27" d="M372.8,669.7s-18.66-23.06-4.28-36.46,45.91-25.3,93.06-59l11.85,21.4S395.41,671.41,372.8,669.7Z"/><path class="cls-26" d="M513.79,722.16a11,11,0,0,1,2.33,2.23c3.32,4.36,2.41,11.55,1.73,16.55-2.44,17.94-19.6,191.28-19.6,191.28L449,930.87c-1.61-15.21,11.34-201.48,30.74-209.44C487.27,718.35,506.93,717.23,513.79,722.16Z"/><path class="cls-28" d="M412.17,550.9l12.15-2.15L415,528.46S411.75,550.53,412.17,550.9Z"/><polygon class="cls-29" points="415 528.46 424.32 548.75 438.09 550.26 414.87 526.9 415 528.46"/><polygon class="cls-30" points="369.19 530.41 388.26 562.5 408.5 541.92 377.54 523.89 369.19 530.41"/><polygon class="cls-31" points="408.4 541.38 412.51 550.69 403.24 545.55 408.4 541.38"/><path class="cls-23" d="M444.13,492.94s-2.24,6.18-3.71,9.27l-18.05,4.73-26.46-13.4-.6-9,11.38-6.36,23.27,13Z"/><path class="cls-23" d="M403.77,484.41l6.81-2.38c3.57,10.21,18.35,14.85,33.45,11.08a46.95,46.95,0,1,0-3.43,8.63C423.56,504.2,408.35,497.52,403.77,484.41Z"/><path class="cls-24" d="M397,491.3a3,3,0,1,0-3.17,5.09c11.28,7,21.66,9.2,30.17,9.2A50.65,50.65,0,0,0,440,503a63.73,63.73,0,0,0,3.38-7.95C440.18,496.76,420.55,506,397,491.3Z"/><path class="cls-32" d="M363.38,502.73a2.56,2.56,0,0,1-4.71,1.78,110.18,110.18,0,0,1-10.26-24.1,40.77,40.77,0,0,1-.57-17c2.61-15.53,13.21-28.77,28.17-33.67a62,62,0,0,1,20-2.82c7.85.11,15.27,2.29,23,.91,3.81-.67,9.78-.23,14.61.41a15.74,15.74,0,0,1,12.66,9.56,12.2,12.2,0,0,1,.72,2.56c.84,5.19.88,10.78-1.59,15.43-5,9.49-19.3,8-27.91,5.32a51.33,51.33,0,0,1-7.82-3.15c-.27-.14-.88-.4-1.62-.74a2.56,2.56,0,0,0-3.39,3.4l0,.1a2.56,2.56,0,0,1-2.65,3.6A23,23,0,0,1,387,455.65a2.57,2.57,0,0,0-4.13,0,99.51,99.51,0,0,0-6.91,10.93C371.31,475.27,360.3,484,363.38,502.73Z"/><path class="cls-33" d="M552.68,928.17s38.06-6.14,44.15,16.23a7.94,7.94,0,0,1-7.63,10.08H525.29a5.13,5.13,0,0,1-5.13-5.46l1.31-20.85Z"/><path class="cls-34" d="M481.59,930.81s41.45-6.69,48.09,17.67a8.66,8.66,0,0,1-8.32,11H451.75a5.6,5.6,0,0,1-5.59-6l1.43-22.71Z"/><rect class="cls-35" x="720.48" y="697.58" width="57.83" height="10.11"/><path class="cls-24" d="M729.1,663.28s-6.43,34.29-14.78,34.29h-30c-8.35,0-14.78-34.29-14.78-34.29Z"/><path class="cls-24" d="M722.19,693.46a27.2,27.2,0,0,1-3.18-.19l.6-5.24c11,1.25,15-5.46,16-7.55,1.53-3.3,1.12-6.24,0-7.33-3.65-3.43-9.32.14-9.55.29L723.11,669c.38-.25,9.37-6,16,.28,3.09,2.92,3.58,8.3,1.21,13.4C737.86,688.11,731.84,693.46,722.19,693.46Z"/><rect class="cls-11" x="147.96" y="697.58" width="572.51" height="10.11"/><rect class="cls-35" x="149.16" y="707.69" width="96.64" height="264.95"/><rect class="cls-11" x="492.09" y="707.69" width="173.39" height="264.95"/><rect class="cls-35" x="665.48" y="707.69" width="96.64" height="264.95"/><rect class="cls-36" x="505.02" y="750.34" width="139.69" height="87.75"/><rect class="cls-35" x="550.12" y="775.02" width="34.52" height="17.47"/><rect class="cls-36" x="560.32" y="776.34" width="34.53" height="14.83"/><rect class="cls-36" x="505.02" y="856.54" width="139.69" height="87.75"/><rect class="cls-35" x="550.12" y="881.23" width="34.52" height="17.47"/><rect class="cls-36" x="560.32" y="882.54" width="34.53" height="14.83"/><rect class="cls-37" x="381.28" y="689.81" width="143.39" height="8"/><polygon class="cls-37" points="607.7 697.84 470.89 697.84 492.91 610.81 629.73 610.81 607.7 697.84"/><polygon class="cls-35" points="607.7 697.84 479.02 697.84 501.04 610.81 629.73 610.81 607.7 697.84"/><circle class="cls-37" cx="555.83" cy="650.76" r="8.06"/><path class="cls-38" d="M416.94,548.46s-26.87-5-36.09-3.47l28.9,16.69,3.93,7.68Z"/><rect class="cls-39" x="1796.06" y="246.83" width="177.93" height="159.18"/><path class="cls-17" d="M1974,406s0-1,0-2.95,0-4.81,0-8.53c0-7.48-.06-18.4-.1-32.32,0-27.81-.13-67.55-.21-115.38l.4.4-177.91.07h0l.48-.47c0,57.91,0,112.41-.06,159.18l-.42-.42,128.69.21,36.3.11,9.61,0,2.48,0c.56,0,.85,0,.85,0s-.26,0-.81,0l-2.43,0-9.52.05-36.21.11-129,.21h-.41V406c0-46.77,0-101.27-.06-159.18v-.48h.49l177.91.07h.41v.41c-.08,47.93-.15,87.77-.2,115.64,0,13.88-.08,24.77-.11,32.22,0,3.69,0,6.52,0,8.45S1974,406,1974,406Z"/><path class="cls-17" d="M1864.29,275.11c0,.26-9.37.48-20.92.48s-20.91-.22-20.91-.48,9.36-.47,20.91-.47S1864.29,274.85,1864.29,275.11Z"/><path class="cls-17" d="M1939.68,287.06c0,.27-25.73.48-57.46.48s-57.47-.21-57.47-.48,25.73-.47,57.47-.47S1939.68,286.8,1939.68,287.06Z"/><rect class="cls-17" x="1822.76" y="307.31" width="7.5" height="7.5"/><rect class="cls-17" x="1841.21" y="307.31" width="7.5" height="7.5"/><rect class="cls-17" x="1860.01" y="306.97" width="7.5" height="7.5"/><rect class="cls-17" x="1878.12" y="307.31" width="7.5" height="7.5"/><rect class="cls-17" x="1896.57" y="307.31" width="7.5" height="7.5"/><rect class="cls-17" x="1915.02" y="307.31" width="7.5" height="7.5"/><rect class="cls-40" x="1933.47" y="307.31" width="7.5" height="7.5"/><rect class="cls-40" x="1822.76" y="323.24" width="7.5" height="7.5"/><rect class="cls-17" x="1841.21" y="323.24" width="7.5" height="7.5"/><rect class="cls-40" x="1859.67" y="323.24" width="7.5" height="7.5"/><rect class="cls-17" x="1878.12" y="323.24" width="7.5" height="7.5"/><rect class="cls-17" x="1896.57" y="323.24" width="7.5" height="7.5"/><rect class="cls-17" x="1915.36" y="322.9" width="7.5" height="7.5"/><rect class="cls-17" x="1933.47" y="323.24" width="7.5" height="7.5"/><rect class="cls-17" x="1822.76" y="339.18" width="7.5" height="7.5"/><rect class="cls-17" x="1841.55" y="338.84" width="7.5" height="7.5"/><rect class="cls-17" x="1859.67" y="339.18" width="7.5" height="7.5"/><rect class="cls-40" x="1878.12" y="339.18" width="7.5" height="7.5"/><rect class="cls-17" x="1896.57" y="339.18" width="7.5" height="7.5"/><rect class="cls-17" x="1915.02" y="339.18" width="7.5" height="7.5"/><rect class="cls-17" x="1933.47" y="339.18" width="7.5" height="7.5"/><rect class="cls-17" x="1822.76" y="355.12" width="7.5" height="7.5"/><rect class="cls-17" x="1841.21" y="355.12" width="7.5" height="7.5"/><rect class="cls-17" x="1859.67" y="355.12" width="7.5" height="7.5"/><rect class="cls-17" x="1878.46" y="354.78" width="7.5" height="7.5"/><rect class="cls-17" x="1896.57" y="355.12" width="7.5" height="7.5"/><rect class="cls-40" x="1915.02" y="355.12" width="7.5" height="7.5"/><rect class="cls-17" x="1933.47" y="355.12" width="7.5" height="7.5"/><rect class="cls-17" x="1822.76" y="371.05" width="7.5" height="7.5"/><rect class="cls-40" x="1841.21" y="371.05" width="7.5" height="7.5"/><rect class="cls-17" x="1859.67" y="371.05" width="7.5" height="7.5"/><rect class="cls-17" x="1878.12" y="371.05" width="7.5" height="7.5"/><rect class="cls-17" x="1896.57" y="371.05" width="7.5" height="7.5"/><rect class="cls-17" x="1915.36" y="370.71" width="7.5" height="7.5"/><rect class="cls-17" x="1933.47" y="371.05" width="7.5" height="7.5"/><path class="cls-24" d="M2426.44,448.1l-4.77,0-18.6.07-70.49.14-249.63.27h-.53v-.54c0-81.76,0-175.44-.06-274.56v-.6h.63L2428,173h.5v.5c-.11,82.86-.2,151.55-.26,199.54-.06,23.94-.1,42.7-.13,55.51,0,6.37,0,11.25-.06,14.56s0,4.95,0,4.95"/><rect class="cls-17" x="2127.56" y="224.39" width="12.48" height="139.35"/><rect class="cls-40" x="2151.65" y="271.72" width="12.48" height="92.02"/><rect class="cls-17" x="2175.74" y="241.72" width="12.48" height="122.74"/><rect class="cls-40" x="2199.83" y="229.78" width="12.48" height="133.97"/><rect class="cls-17" x="2223.92" y="274.56" width="12.48" height="89.19"/><rect class="cls-40" x="2248.01" y="292.05" width="12.48" height="71.7"/><rect class="cls-17" x="2272.1" y="238.7" width="12.48" height="125.05"/><rect class="cls-40" x="2296.19" y="261.24" width="12.48" height="102.51"/><rect class="cls-17" x="2320.28" y="243.23" width="12.48" height="120.52"/><rect class="cls-40" x="2344.36" y="281.64" width="12.48" height="82.11"/><rect class="cls-17" x="2368.45" y="266.01" width="12.48" height="97.73"/><path class="cls-17" d="M2386,373.45c0,.29-59.19.52-132.19.52s-132.19-.23-132.19-.52,59.17-.51,132.19-.51S2386,373.17,2386,373.45Z"/><path class="cls-17" d="M2145.36,384.42c0,.29-4.15.51-9.26.51s-9.26-.22-9.26-.51,4.14-.51,9.26-.51S2145.36,384.14,2145.36,384.42Z"/><path class="cls-17" d="M2176.07,385c0,.28-5,.51-11.06.51s-11.07-.23-11.07-.51,4.95-.51,11.07-.51S2176.07,384.7,2176.07,385Z"/><path class="cls-17" d="M2202.27,385c0,.28-4.95.51-11.07.51s-11.06-.23-11.06-.51,5-.51,11.06-.51S2202.27,384.7,2202.27,385Z"/><path class="cls-17" d="M2228.47,385c0,.28-5,.51-11.07.51s-11.06-.23-11.06-.51,4.95-.51,11.06-.51S2228.47,384.7,2228.47,385Z"/><path class="cls-17" d="M2254.67,385c0,.28-5,.51-11.07.51s-11.07-.23-11.07-.51,5-.51,11.07-.51S2254.67,384.7,2254.67,385Z"/><path class="cls-17" d="M2280.87,385c0,.28-5,.51-11.07.51s-11.07-.23-11.07-.51,5-.51,11.07-.51S2280.87,384.7,2280.87,385Z"/><path class="cls-17" d="M2307.07,385c0,.28-5,.51-11.07.51s-11.07-.23-11.07-.51,5-.51,11.07-.51S2307.07,384.7,2307.07,385Z"/><path class="cls-17" d="M2333.26,385c0,.28-5,.51-11.06.51s-11.07-.23-11.07-.51,5-.51,11.07-.51S2333.26,384.7,2333.26,385Z"/><path class="cls-17" d="M2359.46,385c0,.28-4.95.51-11.06.51s-11.07-.23-11.07-.51,5-.51,11.07-.51S2359.46,384.7,2359.46,385Z"/><path class="cls-17" d="M2385.66,385c0,.28-4.95.51-11.06.51s-11.07-.23-11.07-.51,4.95-.51,11.07-.51S2385.66,384.7,2385.66,385Z"/><rect class="cls-40" x="2071.9" y="171.88" width="365.92" height="10.32"/><g class="cls-41"><rect class="cls-42" x="1010.39" y="80.94" width="492.99" height="331.73"/><rect class="cls-43" x="1029.39" y="100.12" width="454.99" height="293.37"/><line class="cls-44" x1="1361.31" y1="201.14" x2="1437.68" y2="201.14"/><line class="cls-44" x1="1361.31" y1="207.58" x2="1394.05" y2="207.58"/><line class="cls-44" x1="1401.27" y1="207.58" x2="1437.68" y2="207.58"/><line class="cls-44" x1="1361.31" y1="214.01" x2="1420.95" y2="214.01"/><line class="cls-44" x1="1361.31" y1="226.89" x2="1437.68" y2="226.89"/><line class="cls-44" x1="1361.31" y1="233.32" x2="1406.08" y2="233.32"/><line class="cls-44" x1="1412.43" y1="233.32" x2="1437.68" y2="233.32"/><line class="cls-44" x1="1361.31" y1="239.76" x2="1411.03" y2="239.76"/><line class="cls-44" x1="1087.33" y1="336.8" x2="1163.7" y2="336.8"/><line class="cls-44" x1="1087.33" y1="343.23" x2="1120.08" y2="343.23"/><line class="cls-44" x1="1127.3" y1="343.23" x2="1163.7" y2="343.23"/><line class="cls-44" x1="1087.33" y1="349.67" x2="1146.97" y2="349.67"/><line class="cls-44" x1="1226.09" y1="336.05" x2="1302.45" y2="336.05"/><line class="cls-44" x1="1226.09" y1="342.49" x2="1270.86" y2="342.49"/><line class="cls-44" x1="1277.2" y1="342.49" x2="1302.45" y2="342.49"/><line class="cls-44" x1="1226.09" y1="348.93" x2="1275.81" y2="348.93"/><polyline class="cls-44" points="1087.33 164.58 1087.33 312.16 1437.68 312.16"/><polyline class="cls-45" points="1087.33 312.16 1130.96 275.55 1141.79 275.55 1150.73 284.5 1176.27 246.81 1185.4 250.63 1223.59 208.03 1262.5 218.38 1282.75 215.33 1306.08 240.22 1376.06 168.56"/><polygon class="cls-7" points="1375.19 181.26 1375.05 169.59 1363.38 169.73 1368.27 164.72 1379.94 164.58 1380.08 176.25 1375.19 181.26"/><polyline class="cls-46" points="1088.97 311.92 1140.39 258.54 1177.48 277.5 1199.39 254.38 1223.59 251.57 1248.47 231 1289.83 272.84 1334.88 233.32 1372.06 273.31"/><polygon class="cls-10" points="1359.41 271.83 1371.08 272.26 1371.5 260.6 1376.27 265.73 1375.84 277.39 1364.18 276.96 1359.41 271.83"/></g><rect class="cls-47" x="1.04" width="2503.84" height="1095.34"/><g class="cls-48"><ellipse class="cls-14" cx="2123.88" cy="950.41" rx="486" ry="35.51"/><path class="cls-49" d="M2089.94,920.84c-2.07-1.16-4.41-2-6.15-3.53-3.28-2.91-3.5-6.64-.47-9.72,1.72-1.75,1.58-3.09.8-5a76,76,0,0,1-3.2-9c-3.49-13.16-12.93-20.4-25-24.53a68.76,68.76,0,0,0-17.49-3.33c-8.34-.55-16.76-.14-25.63-.14v12.66c0,7.77-.06,15.53.07,23.29,0,1.18.54,2.86,1.41,3.42,3.1,2,5.53,4.35,4.88,8.28s-3.7,5.85-7.29,7a9.86,9.86,0,0,0-1.37.61h-4.59c-.93-.36-1.89-.68-2.81-1.07-3.06-1.31-5.64-3.2-6-6.79s1.63-5.92,4.6-7.69a3.7,3.7,0,0,0,1.78-2.45c.12-12.3.08-24.59.08-37.25-18.78.11-37.54-2.49-54.14,8.86-6.06,4.14-10.7,9.28-13,16.36-.9,2.78-2,5.5-2.94,8.24-1.26,3.46-3.08,6.55.58,10.2,2.55,2.55.75,7-2.89,9.34a41.32,41.32,0,0,1-4.75,2.25h-5.35c-1.23-.6-2.79-.92-3.63-1.87-1.76-2-4-4.14-4.48-6.55a5.9,5.9,0,0,1,4.45-6.77c4.8-1.1,5.82-4.62,7-8.4.67-2.18,1.62-4.28,2.28-6.47,5.69-19,19.77-28.76,38-32.38,11-2.19,22.49-1.54,33.77-2.17l4.89-.23c-1.53-15.58-3-30.65-4.45-45.72-.2-2.23-1.07-3-3.34-3-7.51.12-15,0-22.54,0-13.55,0-26.14-3.22-37.55-10.82a14.11,14.11,0,0,0-6.88-2.36c-23.58-.85-43.14-19.16-44.2-42.8-.82-18.29-.32-36.65-.38-55a14.76,14.76,0,0,1,.43-3,8.87,8.87,0,0,1,9.07-7.15,8.72,8.72,0,0,1,8.52,7.32,34.89,34.89,0,0,1,.4,5.69c.1,16.94-.17,33.88.34,50.79.34,11.22,6.67,18.86,16.76,23.51,3.24,1.49,6,2.29,8.08-1.91.77-1.58,2.6-2.78,4.18-3.79a33.28,33.28,0,0,1,17.75-5.09c13.37-.19,26.74-.11,40.11-.15h4.27c-.32-4.41-.59-8.16-.87-12.14-13.37,0-26.34.07-39.31,0-21.11-.15-36-16.13-34.32-37.12,3.84-47.82,8.07-95.62,11.71-143.46,1.86-24.4,20.18-40,40.58-40.12,24.31-.21,48.64-.26,73,0,14.81.17,26.24,7,34.32,19.43,5.06,7.79,5.87,16.59,6.6,25.53q5.68,69.63,11.58,139.25c1.46,17.56-10.45,33.33-27.89,35.7-9,1.23-18.28.62-27.43.76-6.09.09-12.17,0-18.43,0l-.88,12.14H2027c13.36,0,26.74-.18,40.1.2,8.27.24,16.52,2,21.79,9.09,2.49,3.34,4.52,3.23,7.49,1.83a40.68,40.68,0,0,0,4.73-2.45c9.13-6,12.92-14.61,12.87-25.3-.07-16,0-32.08,0-48.13,0-3.64.36-7.17,3.54-9.62a8.69,8.69,0,0,1,9.35-1.19c4.32,1.93,5.53,5.71,5.53,10,0,16.81.27,33.62-.06,50.42-.47,24.47-16.09,42.77-39.91,46a42.4,42.4,0,0,0-16.39,5.82c-10.69,6.3-22.57,8.21-34.88,8-7.61-.11-15.23,0-23.26,0L2013,856.23c7.26,0,14.1,0,20.93,0,8.84,0,17.52,1,25.81,4.28,12.07,4.78,22.34,11.72,27.61,24.19,2.13,5,3.86,10.23,5.55,15.42.81,2.47,1.9,4,4.65,4.79a7.61,7.61,0,0,1,5.94,7.16c.16,3.59-2.21,5.77-5.23,7.29-1,.5-2,1-3,1.47ZM2055,570.44c1.43,0,3.2.42,4.21-.26,1.69-1.14,3.92-2.95,4-4.58s-1.89-3.75-3.48-5c-1.05-.8-3-.51-4.59-.51q-46.84,0-93.7,0a25.16,25.16,0,0,0-3,.07c-3.22.41-5.49,1.93-5.25,5.52.22,3.3,2.4,4.71,5.53,4.73,7.73,0,15.47,0,23.21,0H2055Zm-.23,31.13c1.57,0,3.5.38,4.62-.37,1.68-1.12,3.82-3.07,3.84-4.7s-2.05-3.66-3.69-4.83c-1.09-.79-3-.48-4.6-.48q-46.63,0-93.27,0h-.85c-5.32.07-7.77,1.78-7.69,5.36s2.35,5,7.52,5q24.06,0,48.13,0Q2031.81,601.58,2054.8,601.57Zm-94.2,20.92a10.67,10.67,0,0,0-5.66,1.34c-3.08,2.08-2.22,7,1.35,8.31a16.71,16.71,0,0,0,5.49.63q46.63.06,93.27,0a27.49,27.49,0,0,0,3,0c3.21-.34,5.56-1.75,5.45-5.35s-2.52-4.91-5.78-4.92c-11.32,0-22.64,0-34,0-5.31,0-10.61,0-15.91,0C1992.11,622.44,1976.35,622.39,1960.6,622.49Z"/><path class="cls-23" d="M1937.27,610c-4,17.46-9.42,16.35-13.47,33.81-2.66,12.89-7.22,25-9.88,37.89-2.37,10.71-.88,18.34,12.11,18,23.5-.42,22.29-28.78,25.65-45.64,3.75-17,6-34.82,9.47-51.28Z"/><path class="cls-50" d="M2052.16,492.66s-.35,5.16,10.67,48.7c4,15.91-12.14,30.06-29.8,34.48-5.86,1.46-54.38,4.53-81.19-15.24-5.47-4-20.46-20.27-3.39-50.48,11.07-19.58,1.33-68.38,49.28-59.1S2052.16,492.66,2052.16,492.66Z"/><circle class="cls-23" cx="2002.32" cy="508.57" r="46.48"/><path class="cls-24" d="M1999.93,538.62a32.58,32.58,0,0,1-10.16-1.62,35,35,0,0,1-14.31-9,3.44,3.44,0,0,1,0-4.46,2.61,2.61,0,0,1,4,0c.75.84,18,19.51,43.65-.37a2.64,2.64,0,0,1,3.92.8,3.41,3.41,0,0,1-.72,4.39C2016.26,536.2,2007.25,538.62,1999.93,538.62Z"/><path class="cls-50" d="M1986.5,463.43c-.28,2.54,1.41,6.21,2.24,8.5a53.5,53.5,0,0,0,10.61,17.83A51,51,0,0,0,2018,502.71c10.91,4.44,23.15,6.67,33.59-.09,2.22-9.86.86-32.63-13.94-44.06S1989.24,437.89,1986.5,463.43Z"/><path class="cls-51" d="M2046.56,786.1c24.16-20.91,10.26-80.44,10.26-80.44L2045.61,710a14.85,14.85,0,0,0-11.47-5.43h-77.39a14.93,14.93,0,0,0-14.89,14.89V785a14.75,14.75,0,0,0,2.05,7.51,14.79,14.79,0,0,0-.37,3.28v54.93a14.69,14.69,0,0,0,1.32,6.1,14.65,14.65,0,0,0-1.32,6.1v54.92a14.92,14.92,0,0,0,14.88,14.89h19.35a14.92,14.92,0,0,0,14.88-14.89V862.94a14.65,14.65,0,0,0-1.32-6.1,14.69,14.69,0,0,0,1.32-6.1V799.91h5v50.83a14.69,14.69,0,0,0,1.32,6.1,14.65,14.65,0,0,0-1.32,6.1v54.92a14.93,14.93,0,0,0,14.88,14.89h19.35a14.92,14.92,0,0,0,14.88-14.89V862.94a14.65,14.65,0,0,0-1.32-6.1,14.69,14.69,0,0,0,1.32-6.1V795.81c0-.89-.08-8.86-.23-9.71Z"/><path class="cls-34" d="M2016.07,909.07s-39.08-6.3-45.34,16.66a8.17,8.17,0,0,0,7.84,10.36h65.62a5.29,5.29,0,0,0,5.27-5.62l-1.35-21.4Z"/><path class="cls-52" d="M2017.58,560.49c11.74.5,36.06,5.85,40.16,15.37,7.39,17.15-3.12,59.5-.83,90.71,1,14,2.72,28.57,1.48,42.51-8.59,2-16.57,5.33-25.45,6.64-9.2,1.3-21.77,3.67-30.41,3.3-5.41-7.24-5.33-15.9-10.28-22.61-5.49,6.28-6.82,14.66-12.31,20.7a243.09,243.09,0,0,1-35.12-11.85c-4.48-2.12-8.07-2.27-9.23-5.69-1.15-3.91,14.76-70.77,14.84-72.7-2.91-.6-25.21-2.33-27.1-4.1,0,0,1.76-4.44,2.87-7.53,2-8.6,8.73-19.87,11.69-28.18,4.51-14,16-19.36,34.45-23.17,3-.59,5.94-1.43,8.9-1.79C1984.88,568.76,2017.58,560.49,2017.58,560.49Z"/><path class="cls-24" d="M2004.5,591.58c2,1.35,20.64,3.32,20.64,3.32s7.76-20.68,6.89-25.17c-1.71-8.81-8.84-9.65-11.63-10.3C2020.4,559.43,2009,583.23,2004.5,591.58Z"/><path class="cls-24" d="M1994.17,593.15c-4.33.58-15.21.88-20.07,2-.43-10.51-.41-10.89-.53-18.33,0-3.08-.14-8.07,2-10.52,3.19-3.42,8.47-3.7,8.47-3.7Z"/><path class="cls-53" d="M2020.4,559.43s-30.8-1.51-36.67,2.79l18,54.49Z"/><path class="cls-23" d="M1934.5,674.92s45.29,2.93,45.1,2.37-1.47,26.12-1.47,26.12-59.17-3.84-60.85-5.28S1934.5,674.92,1934.5,674.92Z"/><path class="cls-23" d="M2068.39,597.67c4.06,17.45,9.42,16.35,13.47,33.8,2.67,12.9,7.22,25,9.89,37.89,2.37,10.72.88,18.35-12.11,18-23.51-.41-22.29-28.77-25.65-45.64-3.76-17-6-34.81-9.48-51.28Z"/><path class="cls-23" d="M2071.16,662.6s-77.13,2.93-76.94,2.37,1.47,26.11,1.47,26.11,91-3.83,92.7-5.27S2071.16,662.6,2071.16,662.6Z"/><path class="cls-52" d="M2088.68,641.74s-6.41-19.88-8.86-26.74a217.45,217.45,0,0,0-10.05-22c-4.25-7.79-10-14.85-16.72-19.25,0,0-8.28,1-11.64,4.07-9.56,8.57-11.15,25.11-10.55,37.48.4,11.69,3.75,22.83,7.1,34,1.36,5,.53,8.55,6.84,8.15a15.08,15.08,0,0,0,2.45-.39C2067.9,657.1,2089.36,647.58,2088.68,641.74Z"/><rect class="cls-35" x="2484.61" y="685.2" width="57.24" height="10.01"/><rect class="cls-37" x="1957.55" y="677.25" width="141.91" height="7.92" transform="translate(4057.02 1362.43) rotate(180)"/><polygon class="cls-37" points="1875.38 685.2 2010.78 685.2 1988.98 599.06 1853.58 599.06 1875.38 685.2"/><polygon class="cls-35" points="1875.38 685.2 2002.73 685.2 1980.94 599.06 1853.58 599.06 1875.38 685.2"/><circle class="cls-37" cx="1926.71" cy="638.61" r="7.97"/><path class="cls-10" d="M2157.4,651.25s6.36,33.94,14.62,33.94h29.64c8.26,0,14.62-33.94,14.62-33.94Z"/><path class="cls-10" d="M2164.23,681.12a28.63,28.63,0,0,0,3.14-.18l-.59-5.19c-10.88,1.24-14.84-5.4-15.8-7.47-1.51-3.26-1.11-6.17,0-7.26,3.62-3.39,9.22.14,9.45.3l2.85-4.39c-.38-.24-9.27-5.93-15.88.29-3.06,2.88-3.54,8.21-1.2,13.26C2148.72,675.83,2154.68,681.12,2164.23,681.12Z"/><rect class="cls-11" x="1732.05" y="685.2" width="752.55" height="10.01"/><rect class="cls-11" x="1747.59" y="695.21" width="171.6" height="262.22"/><rect class="cls-35" x="1919.19" y="695.21" width="95.64" height="262.22"/><rect class="cls-54" x="1764.27" y="737.41" width="138.25" height="86.84"/><rect class="cls-35" x="1808.9" y="761.84" width="34.17" height="17.29"/><rect class="cls-54" x="1819" y="763.15" width="34.17" height="14.68"/><rect class="cls-54" x="1764.27" y="842.52" width="138.25" height="86.84"/><rect class="cls-35" x="1808.9" y="866.95" width="34.17" height="17.29"/><rect class="cls-54" x="1819" y="868.26" width="34.17" height="14.68"/><rect class="cls-11" x="2258.58" y="695.21" width="171.6" height="262.22"/><rect class="cls-35" x="2430.18" y="695.21" width="95.64" height="262.22"/><rect class="cls-54" x="2271.38" y="737.41" width="138.25" height="86.84"/><rect class="cls-35" x="2316" y="761.84" width="34.17" height="17.29"/><rect class="cls-54" x="2326.1" y="763.15" width="34.17" height="14.68"/><rect class="cls-54" x="2271.38" y="842.52" width="138.25" height="86.84"/><rect class="cls-35" x="2316" y="866.95" width="34.17" height="17.29"/><rect class="cls-54" x="2326.1" y="868.26" width="34.17" height="14.68"/><rect class="cls-55" x="2316.7" y="633.81" width="121.9" height="28.94"/><rect class="cls-56" x="2392.72" y="633.81" width="26.3" height="28.94"/><rect class="cls-56" x="2355.95" y="633.81" width="15.6" height="28.94"/><rect class="cls-37" x="2323.95" y="662.75" width="121.06" height="22.35" transform="translate(4768.96 1347.85) rotate(180)"/><rect class="cls-9" x="2418.24" y="662.75" width="15.5" height="22.35" transform="translate(4851.97 1347.85) rotate(180)"/><rect class="cls-9" x="2336.22" y="662.75" width="15.5" height="22.35" transform="translate(4687.95 1347.85) rotate(180)"/><rect class="cls-10" x="2330.39" y="617.07" width="108.35" height="17.03"/><rect class="cls-57" x="2340.48" y="617.07" width="13.87" height="17.03"/><rect class="cls-57" x="2413.88" y="617.07" width="13.87" height="17.03"/><rect class="cls-24" x="2336.03" y="546.78" width="73.13" height="70.28"/><rect class="cls-11" x="2409.16" y="546.78" width="27.79" height="70.28"/><polygon class="cls-11" points="2336.03 581.92 2409.16 581.92 2352.05 583.73 2336.03 581.92"/><polygon class="cls-11" points="2409.16 608.57 2336.03 608.57 2393.15 610.38 2409.16 608.57"/><polygon class="cls-11" points="2336.03 562.28 2382.35 562.28 2341.17 563.75 2336.03 562.28"/><polygon class="cls-11" points="2409.16 598.22 2362.84 598.22 2404.02 599.7 2409.16 598.22"/><polygon class="cls-11" points="2353.57 554.45 2405.82 554.45 2397.11 555.34 2353.57 554.45"/><polygon class="cls-11" points="2343.14 589.45 2395.39 589.45 2386.68 590.34 2343.14 589.45"/><polygon class="cls-24" points="2375.27 568.97 2409.16 568.97 2415.22 571.33 2375.27 568.97"/><polygon class="cls-24" points="2326.69 568.97 2360.59 568.97 2366.64 571.33 2326.69 568.97"/><polygon class="cls-24" points="2370.18 600.55 2336.29 600.55 2330.23 602.91 2370.18 600.55"/><polygon class="cls-11" points="2409.16 592.53 2436.38 592.53 2442.44 594.89 2409.16 592.53"/><polygon class="cls-11" points="2418.66 581.92 2439.77 581.92 2436.96 579.99 2418.66 581.92"/></g></g></g></g></svg>