<svg xmlns="http://www.w3.org/2000/svg" xmlns:xlink="http://www.w3.org/1999/xlink" viewBox="0 0 650 424"><defs><style>.cls-1{fill:none;}.cls-2{isolation:isolate;}.cls-3{clip-path:url(#clip-path);}.cls-4{clip-path:url(#clip-path-2);}.cls-5{fill:#e8e0dd;}.cls-6{fill:#fefefe;}.cls-7{fill:#918a87;}.cls-34,.cls-8{fill:#b5a9a5;}.cls-9{fill:#5b5857;}.cls-10{fill:#d1d0cb;}.cls-11{fill:#e8e8e8;}.cls-12{fill:#fff;}.cls-13{fill:#f4f2f2;}.cls-14{fill:#e86300;}.cls-15{fill:#ffe252;}.cls-16{fill:#e7ff80;}.cls-17,.cls-20{fill:#bcb4b1;}.cls-17{opacity:0.72;}.cls-18{fill:#bace65;}.cls-19{fill:#727070;}.cls-21{fill:#5f6684;}.cls-22{fill:#1f222b;}.cls-23,.cls-27{fill:#7f7674;}.cls-23{opacity:0.22;}.cls-24{clip-path:url(#clip-path-3);}.cls-25{fill:#c9b7b1;}.cls-26{opacity:0.6;fill:url(#Degradado_sin_nombre_23);}.cls-28{fill:#8e8583;}.cls-29{fill:#998e8c;}.cls-30{fill:#dbb26a;}.cls-31{fill:#a3af75;}.cls-32{fill:#ce9b49;}.cls-33{opacity:0.25;fill:url(#Degradado_sin_nombre_78);}.cls-34{opacity:0.2;mix-blend-mode:multiply;}.cls-35{fill:#4198b7;}.cls-36{fill:#191919;}.cls-37{opacity:0.93;}.cls-37,.cls-38{mix-blend-mode:soft-light;}.cls-38{fill:#3f2b4d;opacity:0.4;}.cls-39{fill:#222530;}.cls-40{fill:#181a1e;}.cls-41{fill:#4da9dd;}.cls-42{fill:#58b7e0;}.cls-43{fill:#231d18;}.cls-44{fill:#28211a;}.cls-45{fill:#233142;}.cls-46{fill:#15171e;}.cls-47{fill:#1c1f2d;}.cls-48{fill:#232323;}.cls-49{fill:#1e1d1e;}</style><clipPath id="clip-path"><rect class="cls-1" x="1.91" y="1.06" width="645.2" height="419.94" rx="17.81" ry="17.81"/></clipPath><clipPath id="clip-path-2"><rect class="cls-1" x="-194.45" y="-36.31" width="1085.39" height="467.76" transform="translate(696.5 395.14) rotate(-180)"/></clipPath><clipPath id="clip-path-3"><rect class="cls-1" x="-195.3" y="-36.31" width="1081.95" height="465.89" transform="translate(691.35 393.28) rotate(-180)"/></clipPath><linearGradient id="Degradado_sin_nombre_23" x1="252.71" y1="94.53" x2="367.46" y2="246.83" gradientTransform="matrix(-1, 0, 0, 1, 649.02, 0)" gradientUnits="userSpaceOnUse"><stop offset="0" stop-color="#fff"/><stop offset="1" stop-color="#f2eae9" stop-opacity="0"/></linearGradient><linearGradient id="Degradado_sin_nombre_78" x1="306.27" y1="559.16" x2="306.27" y2="-108.19" gradientTransform="matrix(1, 0, 0, -1, 36.48, 397.93)" gradientUnits="userSpaceOnUse"><stop offset="0" stop-color="#e3e3e3"/><stop offset="0.46" stop-color="#c9e0e0"/><stop offset="0.76" stop-color="#bddfdf"/><stop offset="0.89" stop-color="#a0cfdd"/><stop offset="1" stop-color="#8cc3db"/></linearGradient></defs><title>SCTR-Y-VIDA-LEY-WEB-CRECER-SEGUROS-ACTUALIZADO</title><g class="cls-2"><g id="Capa_1" data-name="Capa 1"><g class="cls-3"><g class="cls-4"><rect class="cls-5" x="-193.32" y="-38.03" width="1074.66" height="471.11" transform="translate(688.02 395.06) rotate(-180)"/><rect class="cls-6" x="514.78" y="-36.31" width="121.92" height="311.33" transform="translate(1151.48 238.71) rotate(-180)"/><rect class="cls-6" x="126.6" y="-36.31" width="36.78" height="311.33" transform="translate(289.97 238.71) rotate(-180)"/><rect class="cls-6" x="514.79" y="-36.31" width="177.94" height="311.33" transform="translate(1207.52 238.71) rotate(-180)"/><rect class="cls-5" x="513.85" y="119.36" width="181.74" height="5.65"/><rect class="cls-5" x="513.85" y="37.05" width="181.74" height="1.4"/><rect class="cls-5" x="513.85" y="203.18" width="181.74" height="1.4"/><polygon class="cls-5" points="601.27 279.36 601.27 -39.78 606.93 -39.78 606.93 278.5 601.27 279.36"/><rect class="cls-5" x="555.6" y="-34.72" width="1.57" height="315.17"/><rect class="cls-6" x="-14.02" y="-36.31" width="177.94" height="311.33" transform="translate(149.9 238.71) rotate(-180)"/><rect class="cls-5" x="-14.96" y="119.36" width="181.74" height="5.65"/><rect class="cls-5" x="-14.96" y="37.05" width="181.74" height="1.4"/><rect class="cls-5" x="-14.96" y="203.18" width="181.74" height="1.4"/><rect class="cls-5" x="72.46" y="-39.78" width="5.65" height="315.17"/><rect class="cls-5" x="26.79" y="-34.72" width="1.57" height="315.17"/><rect class="cls-6" x="247.48" y="-36.31" width="177.94" height="311.33" transform="translate(672.91 238.71) rotate(-180)"/><rect class="cls-5" x="246.55" y="119.36" width="181.74" height="5.65"/><rect class="cls-5" x="246.55" y="37.05" width="181.74" height="1.4"/><rect class="cls-5" x="246.55" y="203.18" width="181.74" height="1.4"/><rect class="cls-5" x="333.97" y="-39.78" width="5.65" height="315.17"/><rect class="cls-5" x="386.06" y="-34.72" width="1.57" height="315.17"/><rect class="cls-5" x="288.3" y="-34.72" width="1.57" height="315.17"/></g><rect class="cls-7" x="-192.91" y="337.06" width="1070.58" height="2.72" transform="translate(684.77 676.84) rotate(-180)"/><rect class="cls-8" x="-195.3" y="339.87" width="1074.1" height="90.14" transform="translate(683.49 769.89) rotate(-180)"/><polyline class="cls-9" points="516.5 256.18 516.5 263.18 538.15 263.18 538.15 264.25 538.15 264.25 479.56 264.25 479.56 262.3 500.13 262.52 500.98 256.18 516.5 256.18"/><rect class="cls-6" x="480.39" y="218.74" width="56.95" height="31.21"/><polygon class="cls-10" points="535.21 223.84 535.21 225.16 486.36 225.16 486.85 223.42 535.21 223.84"/><rect class="cls-9" x="476.06" y="212.89" width="67.63" height="43.29" transform="translate(1019.76 469.07) rotate(-180)"/><rect class="cls-11" x="477.98" y="215.29" width="63.79" height="38.49"/><rect class="cls-12" x="479.56" y="216.57" width="60.67" height="35.43" transform="translate(1019.78 468.56) rotate(-180)"/><rect class="cls-13" x="479.56" y="216.57" width="60.67" height="2.14" transform="translate(1019.78 435.28) rotate(-180)"/><path class="cls-14" d="M539.15,217.68a.29.29,0,0,0-.4-.11.29.29,0,0,0-.11.41.3.3,0,1,0,.51-.3Z"/><path class="cls-15" d="M538,217.68a.3.3,0,1,0-.11.41A.31.31,0,0,0,538,217.68Z"/><path class="cls-16" d="M536.87,217.83a.3.3,0,1,0-.59,0,.3.3,0,1,0,.59,0Z"/><rect class="cls-13" x="484.11" y="221.27" width="53.25" height="27.83" transform="translate(1021.48 470.36) rotate(-180)"/><rect class="cls-17" x="488.76" y="223.42" width="45.3" height="1.24" transform="translate(1022.81 448.09) rotate(-180)"/><rect class="cls-17" x="488.76" y="226.32" width="45.3" height="1.24" transform="translate(1022.81 453.88) rotate(-180)"/><rect class="cls-17" x="488.76" y="238.64" width="45.3" height="1.24" transform="translate(1022.81 478.51) rotate(-180)"/><rect class="cls-17" x="488.76" y="241.53" width="45.3" height="1.24" transform="translate(1022.81 484.31) rotate(-180)"/><rect class="cls-17" x="488.76" y="228.97" width="45.3" height="1.24" transform="translate(1022.81 459.18) rotate(-180)"/><rect class="cls-17" x="506.82" y="231.56" width="27.23" height="1.24" transform="translate(1040.88 464.36) rotate(-180)"/><path class="cls-18" d="M459.1,249.33l1.38-3s6.77.13,7.28-5-2.14-3.89-2.14-3.89-1.5-.25-1.5,3.14-1.64,4-2.77,4c0,0,2.77-8.41-4.51-8.92s-4.4,9.79-4.4,9.79-2.26-.14-2-3-1.63-3.32-1.63-3.32-3.14-.25-2.26,4,6.91,4.14,6.91,4.14v2Z"/><path class="cls-19" d="M464.74,249.33c0,.5-3.13,14.93-3.13,14.93h-9.92l-2.39-15.44Z"/><rect class="cls-20" x="426.08" y="264.25" width="198.22" height="6.33"/><path class="cls-20" d="M432,275.79V360.5H616.08V275H601.69v-4.44h-12.1v5.68H455.85v-7.73h-8.07v7.26Zm6.85,4.66H610.11v75.84H438.84Z"/><path class="cls-21" d="M514.51,302.75s.35,3.92,1.5,4.38,18.1,5.54,34.81,3.92,25.7-3.57,26.4-6v-2.31S543.1,299.87,514.51,302.75Z"/><polygon class="cls-22" points="543.88 311.34 543.88 313.44 554.46 313.44 554.46 310.68 543.88 311.34"/><rect class="cls-22" x="547.71" y="313.45" width="2.69" height="15.43"/><path class="cls-22" d="M545.83,328.88c-.28.38,0,25.43,0,25.43h6.57V328.88Z"/><rect class="cls-22" x="514.73" y="353.67" width="63.92" height="2.67"/><path class="cls-22" d="M578.65,359.2a2.58,2.58,0,1,1-2.57-2.86A2.73,2.73,0,0,1,578.65,359.2Z"/><path class="cls-22" d="M519.61,359.2a2.86,2.86,0,1,1-2.86-2.86A2.86,2.86,0,0,1,519.61,359.2Z"/><path class="cls-22" d="M554.93,359.2a2.86,2.86,0,1,1-2.86-2.86A2.86,2.86,0,0,1,554.93,359.2Z"/><path class="cls-22" d="M547.6,311.28s8.67-3,9-9.08h6.76a13.29,13.29,0,0,1-11,8.72c-8.57,1-.47-.05-.47-.05Z"/><path class="cls-21" d="M527.39,258.79h0a15.54,15.54,0,0,0,15.54,15.54H571.4a15.53,15.53,0,0,0,15.51-16.4h0a15.53,15.53,0,0,0-15.51-14.68H542.93A15.54,15.54,0,0,0,527.39,258.79Z"/><path class="cls-22" d="M556.65,264.71V302.2h6.76l.69-37.42a3.73,3.73,0,0,0-3.58-3.8h0A3.72,3.72,0,0,0,556.65,264.71Z"/><path class="cls-23" d="M516,307.13s39.3-2.58,61.21-2.07c0,0,1.26,4.43-30.89,6.27C546.33,311.33,529.73,311.83,516,307.13Z"/><g class="cls-24"><rect class="cls-25" x="246.68" y="-1.49" width="193.29" height="5.42"/><rect class="cls-25" x="246.68" y="7.41" width="193.29" height="5.42"/><rect class="cls-25" x="246.68" y="16.3" width="193.29" height="5.42"/><rect class="cls-25" x="246.68" y="25.2" width="193.29" height="5.42"/><rect class="cls-25" x="246.68" y="33.03" width="193.29" height="5.42"/><rect class="cls-25" x="246.68" y="41.41" width="193.29" height="5.42"/><rect class="cls-25" x="246.68" y="49.78" width="193.29" height="5.42"/><rect class="cls-25" x="246.68" y="58.16" width="193.29" height="5.42"/><polygon class="cls-26" points="252.74 65.36 75.49 282.23 438.36 276.8 440.3 65.36 252.74 65.36"/></g><rect class="cls-20" x="14.17" y="264.25" width="198.22" height="6.33"/><path class="cls-20" d="M20.08,275.79V360.5H204.17V275H189.78v-4.44h-12.1v5.68H43.94v-7.73H35.87v7.26Zm6.85,4.66H198.2v75.84H26.93Z"/><polyline class="cls-9" points="85.92 256.18 85.92 263.18 107.57 263.18 107.57 264.25 107.57 264.25 48.98 264.25 48.98 262.3 69.55 262.52 70.4 256.18 85.92 256.18"/><rect class="cls-6" x="49.81" y="218.74" width="56.95" height="31.21"/><polygon class="cls-10" points="104.63 223.84 104.63 225.16 55.78 225.16 56.27 223.42 104.63 223.84"/><rect class="cls-9" x="45.48" y="212.89" width="67.63" height="43.29" transform="translate(158.6 469.07) rotate(-180)"/><rect class="cls-11" x="47.4" y="215.29" width="63.79" height="38.49"/><rect class="cls-12" x="48.98" y="216.57" width="60.67" height="35.43" transform="translate(158.62 468.56) rotate(-180)"/><rect class="cls-13" x="48.98" y="216.57" width="60.67" height="2.14" transform="translate(158.62 435.28) rotate(-180)"/><path class="cls-14" d="M108.57,217.68a.3.3,0,0,0-.41-.11.3.3,0,1,0,.41.11Z"/><path class="cls-15" d="M107.45,217.68a.3.3,0,1,0-.11.41A.31.31,0,0,0,107.45,217.68Z"/><path class="cls-16" d="M106.29,217.83a.3.3,0,1,0-.59,0,.3.3,0,1,0,.59,0Z"/><rect class="cls-13" x="53.53" y="221.27" width="53.25" height="27.83" transform="translate(160.32 470.36) rotate(-180)"/><rect class="cls-17" x="58.18" y="223.42" width="45.3" height="1.24" transform="translate(161.65 448.09) rotate(-180)"/><rect class="cls-17" x="58.18" y="226.32" width="45.3" height="1.24" transform="translate(161.65 453.88) rotate(-180)"/><rect class="cls-17" x="58.18" y="238.64" width="45.3" height="1.24" transform="translate(161.65 478.51) rotate(-180)"/><rect class="cls-17" x="58.18" y="241.53" width="45.3" height="1.24" transform="translate(161.65 484.31) rotate(-180)"/><rect class="cls-17" x="58.18" y="228.97" width="45.3" height="1.24" transform="translate(161.65 459.18) rotate(-180)"/><rect class="cls-17" x="76.24" y="231.56" width="27.23" height="1.24" transform="translate(179.72 464.36) rotate(-180)"/><polygon class="cls-9" points="161.69 212.9 161.69 257.73 159.56 257.73 159.56 213.3 161.69 212.9"/><polygon class="cls-9" points="159.56 244.06 146.13 264.25 161.69 264.25 150.96 262.6 159.56 248.13 159.56 244.06"/><polygon class="cls-9" points="186.65 264.25 186.08 263.63 167.08 263.27 166.48 264.25 186.65 264.25"/><polygon class="cls-27" points="215.59 310.17 215.59 312.28 205.02 312.28 205.02 309.52 215.59 310.17"/><rect class="cls-28" x="209.08" y="312.28" width="2.69" height="15.43"/><path class="cls-27" d="M213.64,327.71c.29.38,0,25.44,0,25.44h-6.57V327.71Z"/><rect class="cls-27" x="180.82" y="352.51" width="63.92" height="2.67"/><path class="cls-27" d="M180.82,358a2.59,2.59,0,1,0,2.58-2.86A2.73,2.73,0,0,0,180.82,358Z"/><path class="cls-27" d="M239.86,358a2.86,2.86,0,1,0,2.86-2.86A2.86,2.86,0,0,0,239.86,358Z"/><path class="cls-27" d="M204.55,358a2.86,2.86,0,1,0,2.85-2.86A2.86,2.86,0,0,0,204.55,358Z"/><path class="cls-29" d="M237,301.94s-.3,3.92-1.33,4.38-16.11,5.54-31,3.92-22.88-3.57-23.49-6v-2.31S211.54,299.06,237,301.94Z"/><path class="cls-23" d="M235.65,306.32s-35-2.59-54.47-2.07c0,0-1.12,4.43,27.49,6.27C208.67,310.52,223.44,311,235.65,306.32Z"/><path class="cls-27" d="M233.06,253.59s1.41.39,2.59,6.22-1.3,42.84-1.3,42.84l-5.2-1.41Z"/><path class="cls-29" d="M226.89,281.31h0a5.27,5.27,0,0,0,6-4.47l4.22-29.43a5.25,5.25,0,0,0-4.47-6h0a5.25,5.25,0,0,0-6,4.46l-4.22,29.44A5.25,5.25,0,0,0,226.89,281.31Z"/><polygon class="cls-30" points="140.49 249.05 139.09 264.25 128.1 264.25 126.19 249.05 140.49 249.05"/><path class="cls-31" d="M147.5,218.91l-8.3,30.14H128.09s-12.26-44.19-10-45.59l11,44.18S123,209,123.49,207.54s6.39,31,6.39,31-3.32-48.15-2-48.79,3.58,39.34,3.58,39.34-.16-31,1.26-31.42-.27,43.16,0,43.55S134,216.1,135,216.1s.25,19.16.25,19.16,4.6-34.49,6.13-34.61-2.94,24-2.81,23.49,5.24-19.79,6.39-19.79-8.3,37.42-8.3,37.42,7.79-30.65,9.32-30.27-6.9,30.14-6.9,30.14S144.56,218.14,147.5,218.91Z"/><polygon class="cls-32" points="139.2 249.05 130.85 264.25 139.09 264.25 140.49 249.05 139.2 249.05"/><path class="cls-29" d="M145.32,301.69s-.35,3.92-1.5,4.38S125.72,311.6,109,310s-25.71-3.57-26.4-6v-2.31S116.73,298.81,145.32,301.69Z"/><polygon class="cls-27" points="115.95 310.28 115.95 312.38 105.37 312.38 105.37 309.62 115.95 310.28"/><rect class="cls-28" x="109.43" y="312.38" width="2.69" height="15.43"/><path class="cls-27" d="M114,327.81c.28.39,0,25.44,0,25.44h-6.58V327.81Z"/><rect class="cls-27" x="81.18" y="352.61" width="63.92" height="2.67"/><path class="cls-27" d="M81.18,358.14a2.58,2.58,0,1,0,2.57-2.86A2.72,2.72,0,0,0,81.18,358.14Z"/><path class="cls-27" d="M140.22,358.14a2.86,2.86,0,1,0,2.85-2.86A2.86,2.86,0,0,0,140.22,358.14Z"/><path class="cls-27" d="M104.9,358.14a2.86,2.86,0,1,0,2.86-2.86A2.86,2.86,0,0,0,104.9,358.14Z"/><path class="cls-27" d="M112.23,310.22s-8.67-3.05-9-9.08H96.42a13.29,13.29,0,0,0,11,8.71c8.57,1,.47,0,.47,0Z"/><path class="cls-29" d="M132.44,257.73h0a15.54,15.54,0,0,1-15.54,15.54H88.43a15.54,15.54,0,0,1-15.51-16.41h0a15.53,15.53,0,0,1,15.51-14.68H116.9A15.55,15.55,0,0,1,132.44,257.73Z"/><path class="cls-27" d="M103.18,263.65v37.49H96.42l-.7-37.43a3.73,3.73,0,0,1,3.59-3.79h0A3.72,3.72,0,0,1,103.18,263.65Z"/><path class="cls-23" d="M143.82,306.07s-39.3-2.59-61.21-2.07c0,0-1.26,4.43,30.89,6.27C113.5,310.27,130.1,310.77,143.82,306.07Z"/><rect class="cls-33" x="-193.32" y="-34.87" width="1072.14" height="467.67" transform="translate(685.5 397.93) rotate(-180)"/><ellipse class="cls-34" cx="335.51" cy="397.94" rx="131.12" ry="19.52"/><path class="cls-35" d="M330.15,192.94,341,194.21a5,5,0,0,0,5.49-4.43h0a4.94,4.94,0,0,0-4.35-5.39l-10.89-1.27a4.94,4.94,0,0,0-5.49,4.43h0A4.94,4.94,0,0,0,330.15,192.94Z"/><path d="M277.32,394.5c2.25.33,4.53.63,6.78,1.09,4,.81,4.22,8.76.61,9.7l-.08,0c-6.7,1.72-13.72,1.94-20.6,1.78-2.83-.06-5.79.39-8.53-.5a7.6,7.6,0,0,1-5-7.34c-.08-5,1.83-6.4,7.19-5.25C264,395.35,271.05,393.6,277.32,394.5Z"/><path d="M297.76,386.81c2.25.32,4.53.63,6.78,1.09,4,.8,4.22,8.76.62,9.69l-.08,0c-6.71,1.73-13.72,1.95-20.61,1.79-2.82-.06-5.78.38-8.52-.51a7.58,7.58,0,0,1-5-7.33c-.08-5.05,1.83-6.41,7.19-5.25C284.4,387.65,291.5,385.9,297.76,386.81Z"/><path class="cls-36" d="M300.54,218.92s-5,102.88-2.78,121-.15,45.1-.15,45.1-15.36,7.64-27.45,4.18l23-169.07Z"/><path class="cls-37" d="M298,223.57l-6.44,8.4L270.16,389.23a23,23,0,0,0,3.18.66c3.73-11.54,23-72.35,24.53-103.47,0-1.08.06-2.16.1-3.24C298.26,250.14,298,223.57,298,223.57Z"/><path class="cls-36" d="M254.54,249.18s1.22,49.28,0,61.38S249,392.69,249,392.69s6.38,7.78,21.78,1.73c0,0,30.33-124.93,29.78-175.5l-48.79,8.21Z"/><path class="cls-38" d="M254.31,247.38l.23,1.8s.18,7.47.34,17.3l36.73-5Z"/><path class="cls-39" d="M281.57,139.54a254.33,254.33,0,0,1,20.95,27.17c6.65,10.25,31.68,15.9,31.68,15.9l-3.14,12.71s-14.8,3.46-30.52-9.14S281.57,139.54,281.57,139.54Z"/><path class="cls-12" d="M264.55,138.3l11.22-.88s9.69,9.81,17,26.58,11.75,78.51,11.75,78.51l-8.69,1.25S286.11,174,264.55,138.3Z"/><path class="cls-40" d="M306.69,255c-1,3.57-5.73,4.92-8,6.58s3.11-34.13,1.26-63.1c-.83-12.91-5.94-26.51-11.35-37.62v0a184.39,184.39,0,0,0-13.73-23.54,2.52,2.52,0,0,1-.19-.26l5.77,1.31c.37.39.74.78,1.09,1.18.08.07.14.15.21.22,9.7,10.84,15.82,26.62,19.63,43.07q1.23,5.26,2.14,10.56C308.82,223.59,307.28,252.9,306.69,255Z"/><path class="cls-39" d="M291.61,261.5c-4.69.32-46.84-1.63-49.11-8.76s5.63-65.49,7.35-80.73c1.68-14.82,3.62-42.44,17.6-35.44a12.55,12.55,0,0,1,1.17.65s1.15,1.72,3,4.7l.44.72c.42.68.86,1.43,1.34,2.22l.09.17c2.82,4.77,6.51,11.4,10.13,19,5.68,11.89,11.17,26.07,12.73,39C299.88,232.48,296.3,261.17,291.61,261.5Z"/><path class="cls-38" d="M297,209.13l-46.73-40.51c-.13,1.19-.25,2.33-.37,3.39-.3,2.64-.78,6.57-1.36,11.29,0,0,7.18,28.8,48.46,25.84Z"/><path class="cls-41" d="M352.91,191.51l-11.1,2.28a5.1,5.1,0,0,1-6-4.08h0a5.1,5.1,0,0,1,4-5.93l11.1-2.27a5.09,5.09,0,0,1,6,4.07h0A5.09,5.09,0,0,1,352.91,191.51Z"/><path class="cls-42" d="M330.44,203.15l10.89-1.27a5,5,0,0,0,4.32-5.58h0a4.94,4.94,0,0,0-5.47-4.24l-10.89,1.28a4.94,4.94,0,0,0-4.33,5.57h0A4.94,4.94,0,0,0,330.44,203.15Z"/><path class="cls-39" d="M259.36,137.05s-22.35,9.68-13.45,31.4,41,49.2,87.33,37.52V193.24a2.35,2.35,0,0,0-2.44-2.35C319.39,191.32,265.17,190.33,259.36,137.05Z"/><circle class="cls-12" cx="328.59" cy="198.91" r="1.32"/><path class="cls-43" d="M379.21,386.45c-2.33.34-4.68.65-7,1.12-4.1.84-4.36,9.06-.63,10l.08,0c6.93,1.78,14.18,2,21.29,1.84,2.92-.06,6,.4,8.81-.52a7.86,7.86,0,0,0,5.16-7.58c.08-5.22-1.89-6.62-7.43-5.43C393,387.32,385.68,385.51,379.21,386.45Z"/><path class="cls-44" d="M400.34,394.4c-2.33.34-4.68.65-7,1.13-4.1.83-4.36,9.05-.63,10l.08,0c6.93,1.78,14.18,2,21.3,1.84,2.91-.06,6,.4,8.8-.52a7.85,7.85,0,0,0,5.16-7.58c.08-5.22-1.89-6.62-7.43-5.43C414.15,395.28,406.82,393.46,400.34,394.4Z"/><path class="cls-45" d="M376.34,212.94s5.17,106.33,2.87,125.09.15,46.61.15,46.61,15.88,7.89,28.38,4.32L384,214.23Z"/><path class="cls-38" d="M379,217.75l6.65,8.68L407.74,389a24.42,24.42,0,0,1-3.3.67c-3.85-11.92-23.72-74.76-25.34-106.93,0-1.11-.07-2.23-.1-3.34C378.69,245.21,379,217.75,379,217.75Z"/><path class="cls-45" d="M423.88,244.21s.16,48.09,1.44,60.6,4.3,87.72,4.3,87.72-6.59,8-22.51,1.79c0,0-31.34-129.11-30.77-181.38l50.42,8.49Z"/><path class="cls-38" d="M424.12,242.35l-.24,1.86s-.19,7.72-.35,17.89l-38-5.15Z"/><path class="cls-46" d="M395.38,132.68a263.43,263.43,0,0,0-19.15,29.83C370.29,173.66,345,181.7,345,181.7l4.36,12.81s15.54,2.24,30.62-12.13S395.38,132.68,395.38,132.68Z"/><path class="cls-12" d="M413.54,129.63l-2.74-1.16a10.8,10.8,0,0,0-13.18,3.9,153.13,153.13,0,0,0-13.23,23.82c-7.54,17.33-9.38,56.75-9.38,56.75l9,1.29S391.26,166.48,413.54,129.63Z"/><path class="cls-47" d="M370,250.25c1,3.68,5.93,5.08,8.25,6.79s-3.23-35.27-1.31-65.21c.85-13.35,6.14-27.4,11.73-38.88v0a187.67,187.67,0,0,1,14.19-24.32,3.28,3.28,0,0,0,.19-.27l-5.63.94c-.38.41-1.1,1.22-1.46,1.63l-.21.23c-10,11.2-16.35,27.51-20.29,44.51q-1.28,5.43-2.21,10.91C367.79,217.77,369.38,248.06,370,250.25Z"/><path class="cls-47" d="M385.57,257c4.85.33,48.41-1.68,50.75-9s-5.71-67.69-7.59-83.43c-1.83-15.25-1.08-39.2-18.88-36.44-.43.06-5.63-.26-6,0,0,0,4.33,2.26,2.45,5.34l-.45.74-1.38,2.3-.09.17c-2.92,4.93-6.73,11.78-10.47,19.61-5.88,12.29-11.55,26.94-13.16,40.28C377,227,380.72,256.61,385.57,257Z"/><path class="cls-41" d="M407.11,236.84,397.77,245a5.58,5.58,0,0,1-7.93-.63h0a5.58,5.58,0,0,1,.62-7.79l9.34-8.11a5.57,5.57,0,0,1,7.93.63h0A5.58,5.58,0,0,1,407.11,236.84Z"/><path class="cls-46" d="M404.89,140.58c-1.5-8.84,10-13.85,15.29-6.6,1.84,2.52,3.51,6.2,4.82,11.44,6.78,27.11,15.7,70.27-18,95.41l-10.16-9.76a3,3,0,0,1-.3-3.9C411.56,207.34,417.12,212.55,404.89,140.58Z"/><circle class="cls-12" cx="404.14" cy="232.09" r="1.49"/><path class="cls-12" d="M379.49,104.65s1.22,3.37,2,5l9.84,2.58,14.43-7.3.33-4.91L399.9,96.6l-12.69,7.11Z"/><path class="cls-41" d="M401.49,100l-3.71-1.3c-1.95,5.57-10,8.1-18.24,6a25.61,25.61,0,1,1,1.87,4.7C390.7,110.79,399,107.14,401.49,100Z"/><path class="cls-48" d="M418.57,86.21s-14.28,2.25-37.09.37c-2.74-.56-7.37-21-1-20.23,18.57,2.2,35.66-5.4,44.13,6.5,0,0,6.51,2.67,8.31,15.88.94,6.9-2.55,20.44-6.49,21.34,0,0-6-2.07-8.25-9.72C418.16,100.35,415.34,94.3,418.57,86.21Z"/><path class="cls-41" d="M295.66,117.37a25.77,25.77,0,1,0-2.05,4.66C295,118.82,295.25,117.69,295.66,117.37Z"/><path class="cls-12" d="M269.9,115.44a1.65,1.65,0,1,0-1.84,2.73,31,31,0,0,0,16.37,5.65,27.88,27.88,0,0,0,8.81-1.11,35,35,0,0,0,2-4.29C293.48,119.29,282.53,124,269.9,115.44Z"/><path class="cls-49" d="M252.69,128.11h.17a2.67,2.67,0,0,0,1.71-1c3-3.09,2.34-7.49,2.28-11.4a14.21,14.21,0,0,1,.72-5.3c.75-1.93,1.31-3.4.68-5.54l-2.74-5.62c2.93.49,5.89-.85,8.42-2.2.64-.35,6.91-3.54,5.93-4.86a8.87,8.87,0,0,0,5.25,3.59,9.22,9.22,0,0,0,6.38-1,9.31,9.31,0,0,0,8.78,2c3-.86,5.24-2.13,5.93-5.12a8.66,8.66,0,0,0-11.26-10.11,9.47,9.47,0,0,0-6.33-7.11A9.61,9.61,0,0,0,269.35,77a10.12,10.12,0,0,0-7.89-.7,9.81,9.81,0,0,0-5.86,5.11,11,11,0,0,0-10.95,4.2,10.84,10.84,0,0,0-.55,11.61c-2.66,1.82-4.68,5.05-4.45,8.27a9.44,9.44,0,0,0,5.16,7.65c.07,0,.53,3.05.69,3.44a18.48,18.48,0,0,0,1.91,3.31c.89,1.31,1.79,2.61,2.58,4C250.56,124.85,251.27,127.92,252.69,128.11Z"/><path d="M282.9,94.7a5.66,5.66,0,0,0,4-.7,4.58,4.58,0,0,0,1.53-1.47,5,5,0,0,0,.75-2,5.08,5.08,0,0,0-.17-2.16,4.68,4.68,0,0,0-1.09-1.83,5.62,5.62,0,0,0-3.61-1.73A5.13,5.13,0,0,1,290,88a5.54,5.54,0,0,1-.71,5.24,5.12,5.12,0,0,1-2.06,1.63A5,5,0,0,1,282.9,94.7Z"/><path d="M272.72,90.94a5.44,5.44,0,0,0,2.37-2.48,4.77,4.77,0,0,0-2.3-6.31,5.44,5.44,0,0,0-3.41-.37,4.61,4.61,0,0,1,3.68-.36,4.76,4.76,0,0,1,1.9,1.13,5.11,5.11,0,0,1,1.25,1.92,5.23,5.23,0,0,1,.29,2.28,4.88,4.88,0,0,1-.73,2.08A4.68,4.68,0,0,1,272.72,90.94Z"/><path d="M274.38,94.24a4.3,4.3,0,0,0,2.16-.06,2.94,2.94,0,0,0,1.74-1.43,2.34,2.34,0,0,0,0-2.18,2.39,2.39,0,0,0-1.63-1.26,2.22,2.22,0,0,1,2,1,2.42,2.42,0,0,1,.44,1.32,2.73,2.73,0,0,1-.33,1.4,3,3,0,0,1-.93,1.08,3,3,0,0,1-1.26.52A3.35,3.35,0,0,1,274.38,94.24Z"/><path d="M260.6,94.38a5.51,5.51,0,0,0,1.32-2.51,5,5,0,0,0-.24-3,4.9,4.9,0,0,0-2.05-2.24,5.39,5.39,0,0,0-2.73-.75,4.35,4.35,0,0,1,3,.18,4.66,4.66,0,0,1,2.61,6A4.33,4.33,0,0,1,260.6,94.38Z"/><path d="M253.93,100.17a2.66,2.66,0,0,1-1.8.08A3.28,3.28,0,0,1,250.37,99a3.36,3.36,0,0,1-.61-2.06,2.69,2.69,0,0,1,.65-1.68,4.65,4.65,0,0,0,3.52,4.89Z"/><path d="M250,103.13a1.94,1.94,0,0,1-2.19.31,1.92,1.92,0,0,1-1.14-1.89,3.64,3.64,0,0,0,1.42,1.3A3.74,3.74,0,0,0,250,103.13Z"/></g></g></g></svg>