<svg xmlns="http://www.w3.org/2000/svg" viewBox="0 0 222.76 90.05"><defs><style>.cls-1{opacity:0.9;}.cls-2{fill:#fff;}.cls-3{fill:#4fafde;}.cls-4{fill:#255ca3;}</style></defs><title>Asset 51</title><g id="Layer_2" data-name="Layer 2"><g id="Capa_1" data-name="Capa 1"><g class="cls-1"><rect class="cls-2" width="222.76" height="90.05" rx="45.03"/></g><path class="cls-3" d="M25.16,34.3A23.8,23.8,0,1,1,49,58.1,23.81,23.81,0,0,1,25.16,34.3"/><path class="cls-2" d="M47,44.71c.19-3.23.24-7.73.24-10.39S47.22,27.05,47,23.8a10.5,10.5,0,0,0-7.91,10.46A10.48,10.48,0,0,0,47,44.71M51,45.91a6.09,6.09,0,0,0,.4,2.22c.6.94,2.32.83,2.32.83v.42c-2.12.1-2.8-.24-4.73-.19s-2.61.29-4.73.19V49s1.72.11,2.32-.83a5.87,5.87,0,0,0,.4-2.22c-6.55-.85-11.58-5.75-11.58-11.68s5-10.83,11.57-11.68a5.5,5.5,0,0,0-.39-2.08c-.6-.94-2.32-.83-2.32-.83v-.42c2.12-.1,2.8.24,4.73.19s2.61-.29,4.73-.19v.42s-1.72-.11-2.32.83A5.45,5.45,0,0,0,51,22.55c6.55.84,11.58,5.75,11.58,11.68S57.53,45.07,51,45.91m-.31-11.59c0,2.66,0,7.16.23,10.39a10.48,10.48,0,0,0,7.92-10.45A10.5,10.5,0,0,0,50.9,23.8c-.2,3.25-.24,7.83-.24,10.52"/><path class="cls-3" d="M89.77,45.23a4.49,4.49,0,0,0-2.61-.7,6.59,6.59,0,0,0-1.27.12,3.41,3.41,0,0,0-1.11.41,2.21,2.21,0,0,0-.78.77,2.32,2.32,0,0,0-.29,1.2,1.47,1.47,0,0,0,.42,1.09,3,3,0,0,0,1.12.69,9,9,0,0,0,1.58.44c.59.12,1.19.24,1.8.38s1.21.3,1.79.48a6.13,6.13,0,0,1,1.59.75,3.64,3.64,0,0,1,1.12,1.19,3.95,3.95,0,0,1-.14,3.8,4.41,4.41,0,0,1-1.4,1.35,6.43,6.43,0,0,1-1.93.76,10.19,10.19,0,0,1-2.12.23,9.65,9.65,0,0,1-2.44-.3,6.16,6.16,0,0,1-2-.94,4.43,4.43,0,0,1-1.38-1.59,4.92,4.92,0,0,1-.5-2.31h1.93a3.17,3.17,0,0,0,.38,1.59,3.37,3.37,0,0,0,1,1.1,4.54,4.54,0,0,0,1.43.63,6.66,6.66,0,0,0,1.68.2A7.32,7.32,0,0,0,89,56.45,4.09,4.09,0,0,0,90.25,56a2.38,2.38,0,0,0,.91-.81,2.28,2.28,0,0,0,.34-1.31,1.8,1.8,0,0,0-.42-1.23A3,3,0,0,0,90,51.92a8.66,8.66,0,0,0-1.58-.49c-.59-.12-1.19-.24-1.79-.38s-1.21-.28-1.8-.45a6.48,6.48,0,0,1-1.58-.67,3.25,3.25,0,0,1-1.12-1.09,3.07,3.07,0,0,1-.42-1.67,3.76,3.76,0,0,1,.47-1.91,4,4,0,0,1,1.26-1.33,5.79,5.79,0,0,1,1.79-.78,7.84,7.84,0,0,1,2-.26,8.42,8.42,0,0,1,2.19.27,4.8,4.8,0,0,1,1.78.84,4.13,4.13,0,0,1,1.21,1.44,5,5,0,0,1,.48,2.08H91a3,3,0,0,0-1.19-2.29"/><path class="cls-3" d="M103.59,57.19a5.23,5.23,0,0,1-3.14.9,5.82,5.82,0,0,1-2.31-.41,4.6,4.6,0,0,1-1.65-1.14,4.89,4.89,0,0,1-1-1.77,8.19,8.19,0,0,1-.38-2.23,6,6,0,0,1,.39-2.21,5.33,5.33,0,0,1,1.09-1.75,4.92,4.92,0,0,1,1.66-1.14,5.1,5.1,0,0,1,2.09-.41,4.72,4.72,0,0,1,2.46.58,4.81,4.81,0,0,1,1.58,1.49,5.73,5.73,0,0,1,.81,2,8.09,8.09,0,0,1,.19,2H97.05a4.15,4.15,0,0,0,.17,1.33A3,3,0,0,0,99,56.29a3.92,3.92,0,0,0,1.56.28,3.31,3.31,0,0,0,1.91-.51,2.48,2.48,0,0,0,1-1.56h1.8a4.17,4.17,0,0,1-1.61,2.69m-.44-6.8a3.13,3.13,0,0,0-.67-1,3.35,3.35,0,0,0-1-.63,3.45,3.45,0,0,0-2.53,0,2.9,2.9,0,0,0-1,.65,3,3,0,0,0-.65.95,3.46,3.46,0,0,0-.28,1.16h6.39a3.59,3.59,0,0,0-.29-1.17"/><path class="cls-3" d="M115.62,60.86a5.24,5.24,0,0,1-3.92,1.29,8.73,8.73,0,0,1-1.58-.16,4.79,4.79,0,0,1-1.46-.54,3.25,3.25,0,0,1-1.09-1A2.72,2.72,0,0,1,107.1,59h1.83a1.18,1.18,0,0,0,.31.79,2.27,2.27,0,0,0,.71.54,3.73,3.73,0,0,0,.91.29,5.34,5.34,0,0,0,1,.09,3.54,3.54,0,0,0,1.53-.29,2.86,2.86,0,0,0,1-.82,3.34,3.34,0,0,0,.59-1.26,6.81,6.81,0,0,0,.18-1.62v-.7h0a3,3,0,0,1-1.43,1.45,4.57,4.57,0,0,1-2,.46,5.26,5.26,0,0,1-2.18-.43,4.75,4.75,0,0,1-1.55-1.16,4.92,4.92,0,0,1-.93-1.7,6.63,6.63,0,0,1-.31-2.06,7.83,7.83,0,0,1,.25-1.94,5.37,5.37,0,0,1,.87-1.8,4.64,4.64,0,0,1,1.59-1.33,5.14,5.14,0,0,1,2.43-.52,4.15,4.15,0,0,1,1.93.44,3.14,3.14,0,0,1,1.38,1.32h0V47.27h1.73V57a5.41,5.41,0,0,1-1.25,3.89m-2.34-4.77a2.72,2.72,0,0,0,1-.94,4.13,4.13,0,0,0,.57-1.32,5.73,5.73,0,0,0,0-2.85,4,4,0,0,0-.55-1.22,2.84,2.84,0,0,0-1-.87,3,3,0,0,0-1.47-.33,3.32,3.32,0,0,0-1.5.32,2.84,2.84,0,0,0-1,.85,3.49,3.49,0,0,0-.58,1.23,5.41,5.41,0,0,0-.19,1.46,7.81,7.81,0,0,0,.15,1.43,4,4,0,0,0,.52,1.3,2.73,2.73,0,0,0,1,.94,2.89,2.89,0,0,0,1.51.36,3,3,0,0,0,1.53-.36"/><path class="cls-3" d="M127.1,57.87V56.19h0a3.71,3.71,0,0,1-1.48,1.44,4.58,4.58,0,0,1-2.13.46,5.35,5.35,0,0,1-1.83-.27,3.07,3.07,0,0,1-1.19-.79,3,3,0,0,1-.63-1.22,6.39,6.39,0,0,1-.18-1.57v-7h1.83v7.18a2,2,0,0,0,.6,1.55,2.31,2.31,0,0,0,1.66.57,4,4,0,0,0,1.45-.24,2.66,2.66,0,0,0,1-.7,2.9,2.9,0,0,0,.61-1.05,4,4,0,0,0,.21-1.32v-6h1.83v10.6Z"/><path class="cls-3" d="M133.24,47.27v2.24h0a4.8,4.8,0,0,1,1.63-1.91,4.27,4.27,0,0,1,2.45-.57v1.84a5.44,5.44,0,0,0-1.87.29,2.91,2.91,0,0,0-1.24.84,3.35,3.35,0,0,0-.69,1.34,7.06,7.06,0,0,0-.22,1.81v4.72h-1.83V47.27Z"/><path class="cls-3" d="M138.1,50.4a4.84,4.84,0,0,1,1-1.76,4.94,4.94,0,0,1,1.7-1.18,6.53,6.53,0,0,1,4.66,0,4.86,4.86,0,0,1,2.72,2.94,7.13,7.13,0,0,1,0,4.35,4.82,4.82,0,0,1-1,1.75,4.7,4.7,0,0,1-1.68,1.17,6.67,6.67,0,0,1-4.66,0,4.73,4.73,0,0,1-2.73-2.92,6.93,6.93,0,0,1,0-4.35M140,54.29a3.29,3.29,0,0,0,1.85,2,3.37,3.37,0,0,0,1.34.26,3.3,3.3,0,0,0,2.46-1,3.58,3.58,0,0,0,.74-1.25,5.55,5.55,0,0,0,0-3.42,3.72,3.72,0,0,0-.74-1.26,3.29,3.29,0,0,0-1.11-.78,3.43,3.43,0,0,0-1.35-.27,3.38,3.38,0,0,0-1.34.27,3.29,3.29,0,0,0-1.11.78,3.56,3.56,0,0,0-.74,1.26,5.55,5.55,0,0,0,0,3.42"/><path class="cls-3" d="M152.1,55.5a2,2,0,0,0,.68.64,3.33,3.33,0,0,0,.95.33,5.49,5.49,0,0,0,1.08.11c.29,0,.59,0,.91-.06a4,4,0,0,0,.87-.23,1.65,1.65,0,0,0,.65-.48,1.2,1.2,0,0,0,.26-.81,1.17,1.17,0,0,0-.53-1,4.81,4.81,0,0,0-1.35-.56c-.54-.14-1.12-.27-1.75-.39a9.25,9.25,0,0,1-1.76-.49,3.7,3.7,0,0,1-1.34-.89,2.26,2.26,0,0,1-.54-1.6,2.45,2.45,0,0,1,.38-1.37,3,3,0,0,1,1-.94,4.93,4.93,0,0,1,1.33-.53,6.7,6.7,0,0,1,1.47-.17,9.51,9.51,0,0,1,1.75.15,4.12,4.12,0,0,1,1.4.53,2.85,2.85,0,0,1,1,1,3.63,3.63,0,0,1,.43,1.61h-1.83a1.59,1.59,0,0,0-.28-.85,1.67,1.67,0,0,0-.6-.55,2.88,2.88,0,0,0-.81-.29,4.41,4.41,0,0,0-.89-.1,4.73,4.73,0,0,0-.83.07,3,3,0,0,0-.76.21,1.48,1.48,0,0,0-.56.41,1,1,0,0,0-.21.67,1,1,0,0,0,.33.75,2.88,2.88,0,0,0,.85.49,6.69,6.69,0,0,0,1.16.32l1.29.28c.46.1.91.21,1.35.35a5,5,0,0,1,1.16.54,2.77,2.77,0,0,1,.82.85,2.49,2.49,0,0,1,.31,1.27,2.82,2.82,0,0,1-.42,1.6,3.2,3.2,0,0,1-1.1,1,4.87,4.87,0,0,1-1.53.54,9.54,9.54,0,0,1-1.68.15,8.43,8.43,0,0,1-1.77-.18,4.36,4.36,0,0,1-1.48-.61,3.14,3.14,0,0,1-1-1.1,3.84,3.84,0,0,1-.43-1.67h1.83a2,2,0,0,0,.28,1"/><path class="cls-4" d="M96.91,18.38a5.81,5.81,0,0,0-1.3-1.5,6,6,0,0,0-3.82-1.37,6.62,6.62,0,0,0-3.33.78,6.39,6.39,0,0,0-2.23,2.09,9.24,9.24,0,0,0-1.24,3,15.23,15.23,0,0,0-.39,3.46A14.09,14.09,0,0,0,85,28.14,9,9,0,0,0,86.23,31a6.24,6.24,0,0,0,2.23,2.07,6.62,6.62,0,0,0,3.33.78A5.37,5.37,0,0,0,96,32.22a7.79,7.79,0,0,0,1.83-4.4h5.64a14.07,14.07,0,0,1-1.15,4.59,11,11,0,0,1-2.45,3.5,10.4,10.4,0,0,1-3.56,2.2,12.9,12.9,0,0,1-4.49.76,13.19,13.19,0,0,1-5.47-1.09,11.73,11.73,0,0,1-4.1-3,13.35,13.35,0,0,1-2.56-4.46,16.81,16.81,0,0,1-.89-5.52,17.37,17.37,0,0,1,.89-5.64,13.73,13.73,0,0,1,2.56-4.54,11.88,11.88,0,0,1,4.1-3,13.87,13.87,0,0,1,9.61-.45A11,11,0,0,1,99.42,13a10.22,10.22,0,0,1,2.54,3,11.06,11.06,0,0,1,1.26,4.18H97.58a4.92,4.92,0,0,0-.67-1.88"/><path class="cls-4" d="M111.12,18.63v3.64h.07a6.76,6.76,0,0,1,1-1.69,7,7,0,0,1,1.44-1.33,7.26,7.26,0,0,1,1.75-.85,6.19,6.19,0,0,1,1.93-.3,4.32,4.32,0,0,1,1.15.18v5c-.25-.05-.55-.1-.9-.14s-.68-.05-1-.05a5.44,5.44,0,0,0-2.44.49A4.29,4.29,0,0,0,112.51,25a5.36,5.36,0,0,0-.87,2,11.28,11.28,0,0,0-.26,2.47v8.85h-5.27V18.63Z"/><path class="cls-4" d="M124.77,33.55a5.29,5.29,0,0,0,6.16.36,3.34,3.34,0,0,0,1.41-1.72H137a9,9,0,0,1-3.42,5A9.81,9.81,0,0,1,128,38.75a10.59,10.59,0,0,1-4.08-.74,8.44,8.44,0,0,1-3.08-2.1,9.65,9.65,0,0,1-2-3.27,12.18,12.18,0,0,1-.68-4.18,11.73,11.73,0,0,1,.7-4.1,9.74,9.74,0,0,1,2-3.28,9.38,9.38,0,0,1,3.1-2.19,9.77,9.77,0,0,1,4-.79,9,9,0,0,1,4.26,1,8.74,8.74,0,0,1,3,2.6,10.85,10.85,0,0,1,1.69,3.73,14.28,14.28,0,0,1,.37,4.36H123.47a5.56,5.56,0,0,0,1.3,3.8m6-10.33a3.64,3.64,0,0,0-2.87-1.06,4.54,4.54,0,0,0-2.1.44,4,4,0,0,0-1.33,1.08,3.91,3.91,0,0,0-.71,1.37,7,7,0,0,0-.24,1.29H132a6.35,6.35,0,0,0-1.32-3.12"/><path class="cls-4" d="M148.84,22.16a3.67,3.67,0,0,0-2.11.59,4.52,4.52,0,0,0-1.39,1.52,6.63,6.63,0,0,0-.76,2.05,11.21,11.21,0,0,0-.22,2.22,10.7,10.7,0,0,0,.22,2.16,7,7,0,0,0,.72,2,4.39,4.39,0,0,0,1.35,1.46,3.7,3.7,0,0,0,2.08.57,3.85,3.85,0,0,0,2.92-1.08,5.17,5.17,0,0,0,1.27-2.91H158a9,9,0,0,1-3,6,9.41,9.41,0,0,1-6.27,2,10.18,10.18,0,0,1-4-.74,8.63,8.63,0,0,1-3.06-2.07,9.39,9.39,0,0,1-2-3.17,11.38,11.38,0,0,1-.7-4,13.39,13.39,0,0,1,.65-4.23,9.55,9.55,0,0,1,1.91-3.39,8.85,8.85,0,0,1,3.08-2.22,10.24,10.24,0,0,1,4.15-.79,11.86,11.86,0,0,1,3.28.45A8.55,8.55,0,0,1,155,19.94a7.17,7.17,0,0,1,2,2.32,7.54,7.54,0,0,1,.9,3.28h-5.16a3.56,3.56,0,0,0-3.9-3.38"/><path class="cls-4" d="M165.87,33.55a5.29,5.29,0,0,0,6.16.36,3.34,3.34,0,0,0,1.41-1.72h4.64a9,9,0,0,1-3.42,5,9.78,9.78,0,0,1-5.56,1.52A10.59,10.59,0,0,1,165,38a8.44,8.44,0,0,1-3.08-2.1A9.65,9.65,0,0,1,160,32.64a12.18,12.18,0,0,1-.68-4.18,11.73,11.73,0,0,1,.7-4.1,9.74,9.74,0,0,1,2-3.28,9.38,9.38,0,0,1,3.1-2.19,9.77,9.77,0,0,1,4-.79,9,9,0,0,1,4.26,1,8.65,8.65,0,0,1,3,2.6A10.85,10.85,0,0,1,178,25.39a14.28,14.28,0,0,1,.37,4.36H164.57a5.56,5.56,0,0,0,1.3,3.8m5.95-10.33A3.63,3.63,0,0,0,169,22.16a4.54,4.54,0,0,0-2.1.44,4,4,0,0,0-1.33,1.08,3.72,3.72,0,0,0-.7,1.37,6.33,6.33,0,0,0-.25,1.29h8.57a6.26,6.26,0,0,0-1.32-3.12"/><path class="cls-4" d="M185.79,18.63v3.64h.08a6.18,6.18,0,0,1,1-1.69,7,7,0,0,1,1.44-1.33,7.26,7.26,0,0,1,1.75-.85,6.23,6.23,0,0,1,1.93-.3,4.19,4.19,0,0,1,1.14.18v5c-.24-.05-.54-.1-.89-.14s-.68-.05-1-.05a5.44,5.44,0,0,0-2.44.49A4.29,4.29,0,0,0,187.18,25a5.36,5.36,0,0,0-.87,2,11.28,11.28,0,0,0-.26,2.47v8.85h-5.27V18.63Z"/><polygon class="cls-4" points="86.45 77.23 86.45 70.87 83.63 75.79 83.18 75.79 80.35 70.87 80.35 77.23 79.59 77.23 79.59 69.49 80.37 69.49 83.4 74.78 86.43 69.49 87.21 69.49 87.21 77.23 86.45 77.23"/><path class="cls-4" d="M90.49,77.34a2.28,2.28,0,0,1-.8-.14,1.83,1.83,0,0,1-1-.93,1.52,1.52,0,0,1-.14-.67,1.41,1.41,0,0,1,.17-.71,1.71,1.71,0,0,1,.49-.55A2.32,2.32,0,0,1,90,74a3.32,3.32,0,0,1,1-.13,5.27,5.27,0,0,1,.87.07,4.7,4.7,0,0,1,.79.22v-.51a1.61,1.61,0,0,0-.43-1.19A1.52,1.52,0,0,0,91,72a2.44,2.44,0,0,0-.91.17,4.41,4.41,0,0,0-.92.5l-.26-.49A5.08,5.08,0,0,1,90,71.63a3.32,3.32,0,0,1,1.09-.18,2.09,2.09,0,0,1,2.25,2.26v2.56q0,.3.27.3v.66l-.17,0h-.13a.66.66,0,0,1-.4-.13.53.53,0,0,1-.2-.39l0-.45a2.54,2.54,0,0,1-1,.78,2.82,2.82,0,0,1-1.22.28m.18-.57a2.43,2.43,0,0,0,1-.21,1.91,1.91,0,0,0,.77-.59,1.07,1.07,0,0,0,.13-.21.41.41,0,0,0,0-.21v-.93a5.77,5.77,0,0,0-.77-.22,4.29,4.29,0,0,0-.79-.07,2.37,2.37,0,0,0-1.29.32,1,1,0,0,0-.49.89,1.11,1.11,0,0,0,.08.44,1.18,1.18,0,0,0,.27.4,1.51,1.51,0,0,0,.44.28,1.67,1.67,0,0,0,.62.11m.45-6.3-.49-.19.64-1h.79Z"/><path class="cls-4" d="M96.87,77.34a3.82,3.82,0,0,1-1.3-.22,3.09,3.09,0,0,1-1.09-.63l.34-.51a3.46,3.46,0,0,0,1,.59,2.72,2.72,0,0,0,1.07.2A1.85,1.85,0,0,0,98,76.49a.9.9,0,0,0,.41-.79.72.72,0,0,0-.11-.4,1,1,0,0,0-.32-.27,2.42,2.42,0,0,0-.53-.22l-.75-.19c-.33-.08-.61-.16-.85-.24a2.82,2.82,0,0,1-.6-.27,1.06,1.06,0,0,1-.35-.38,1.27,1.27,0,0,1-.11-.56,1.66,1.66,0,0,1,.17-.75,1.51,1.51,0,0,1,.46-.54,2.08,2.08,0,0,1,.67-.32,3.2,3.2,0,0,1,.83-.11,3.27,3.27,0,0,1,1.19.21,2.42,2.42,0,0,1,.86.56l-.36.44a2,2,0,0,0-.77-.49,2.73,2.73,0,0,0-.94-.16,3.12,3.12,0,0,0-.55,0,1.37,1.37,0,0,0-.44.2.86.86,0,0,0-.3.33,1,1,0,0,0-.11.47.75.75,0,0,0,.08.37.6.6,0,0,0,.25.25,2.06,2.06,0,0,0,.44.19c.18,0,.39.11.65.16s.68.18,1,.27a2.76,2.76,0,0,1,.69.3,1.15,1.15,0,0,1,.42.43,1.25,1.25,0,0,1,.14.61,1.49,1.49,0,0,1-.6,1.24,2.63,2.63,0,0,1-1.61.46"/><path class="cls-4" d="M105,77.34a3.82,3.82,0,0,1-1.3-.22,3.18,3.18,0,0,1-1.09-.63l.34-.51a3.37,3.37,0,0,0,1,.59,2.67,2.67,0,0,0,1.06.2,1.85,1.85,0,0,0,1.09-.28.88.88,0,0,0,.41-.79.65.65,0,0,0-.11-.4A1,1,0,0,0,106,75a2.42,2.42,0,0,0-.53-.22l-.75-.19c-.33-.08-.61-.16-.85-.24a2.51,2.51,0,0,1-.59-.27.91.91,0,0,1-.35-.38,1.13,1.13,0,0,1-.12-.56,1.66,1.66,0,0,1,.17-.75,1.51,1.51,0,0,1,.46-.54,2.08,2.08,0,0,1,.67-.32,3.2,3.2,0,0,1,.83-.11,3.23,3.23,0,0,1,1.19.21,2.42,2.42,0,0,1,.86.56l-.36.44a2,2,0,0,0-.77-.49A2.73,2.73,0,0,0,105,72a3.12,3.12,0,0,0-.55,0,1.48,1.48,0,0,0-.44.2.86.86,0,0,0-.3.33,1,1,0,0,0-.11.47.75.75,0,0,0,.08.37.6.6,0,0,0,.25.25,2.31,2.31,0,0,0,.44.19c.18,0,.39.11.65.16s.68.18,1,.27a2.6,2.6,0,0,1,.69.3A1.15,1.15,0,0,1,107,75a1.25,1.25,0,0,1,.14.61,1.49,1.49,0,0,1-.6,1.24,2.61,2.61,0,0,1-1.61.46"/><path class="cls-4" d="M108.37,69.27h.74v1.09h-.74Zm0,2.28h.74v5.68h-.74Z"/><path class="cls-4" d="M119.16,77.23h-.74V74.06a2.65,2.65,0,0,0-.32-1.46,1,1,0,0,0-.94-.47,1.46,1.46,0,0,0-.62.12,1.74,1.74,0,0,0-.53.33,2.17,2.17,0,0,0-.43.52,2.81,2.81,0,0,0-.29.66v3.47h-.74V74.06a2.8,2.8,0,0,0-.3-1.48,1.07,1.07,0,0,0-.94-.45,1.63,1.63,0,0,0-1.14.44,2.41,2.41,0,0,0-.72,1.18v3.48h-.74V71.55h.67v1.28a2.65,2.65,0,0,1,.92-1,2.19,2.19,0,0,1,1.25-.37,1.64,1.64,0,0,1,1.16.4,1.73,1.73,0,0,1,.52,1.06,2.43,2.43,0,0,1,2.2-1.46,1.66,1.66,0,0,1,.8.18,1.28,1.28,0,0,1,.54.49,2.42,2.42,0,0,1,.29.77,4.55,4.55,0,0,1,.1,1Z"/><path class="cls-4" d="M123.61,77.34a2.21,2.21,0,0,1-1.28-.37,2.79,2.79,0,0,1-.89-.92v3.5h-.75v-8h.67v1.1a2.68,2.68,0,0,1,.9-.87,2.34,2.34,0,0,1,1.21-.33,2.45,2.45,0,0,1,1.09.24,2.9,2.9,0,0,1,.85.66,3,3,0,0,1,.57.94,3.24,3.24,0,0,1,.2,1.1,3.33,3.33,0,0,1-.19,1.14,2.9,2.9,0,0,1-.53.94,2.5,2.5,0,0,1-.81.63,2.3,2.3,0,0,1-1,.24m-.21-.66a1.78,1.78,0,0,0,.83-.19,2.25,2.25,0,0,0,.63-.52,2.19,2.19,0,0,0,.41-.73,2.45,2.45,0,0,0,.14-.85,2.35,2.35,0,0,0-.16-.87,2.54,2.54,0,0,0-.44-.73,2.1,2.1,0,0,0-.68-.5,1.81,1.81,0,0,0-.83-.19,1.59,1.59,0,0,0-.59.12,2.66,2.66,0,0,0-.58.3,2.18,2.18,0,0,0-.46.45,1.07,1.07,0,0,0-.23.54v1.75a2.12,2.12,0,0,0,.33.56,2.18,2.18,0,0,0,.45.46,2.29,2.29,0,0,0,.56.29,1.66,1.66,0,0,0,.62.11"/><path class="cls-4" d="M127.43,69.27h.74v6.67a.68.68,0,0,0,.18.5.64.64,0,0,0,.49.18l.28,0a2.8,2.8,0,0,0,.31-.09l.13.6a2.64,2.64,0,0,1-.51.14,2.59,2.59,0,0,1-.52.05,1.13,1.13,0,0,1-.81-.28,1.14,1.14,0,0,1-.29-.82Z"/><path class="cls-4" d="M132.76,77.34a2.71,2.71,0,0,1-1.14-.24,2.78,2.78,0,0,1-.91-.64,3.05,3.05,0,0,1-.59-.94,3.13,3.13,0,0,1-.21-1.15,3.06,3.06,0,0,1,.21-1.13,2.85,2.85,0,0,1,.59-.92,3,3,0,0,1,.9-.64,2.87,2.87,0,0,1,1.14-.23,2.8,2.8,0,0,1,1.14.23,2.74,2.74,0,0,1,.89.64,3,3,0,0,1,.79,2c0,.06,0,.12,0,.18a.37.37,0,0,1,0,.12h-4.85a2.36,2.36,0,0,0,.21.84,2.49,2.49,0,0,0,.46.67,1.92,1.92,0,0,0,.65.44,1.85,1.85,0,0,0,.78.16,2.08,2.08,0,0,0,.55-.07,3.26,3.26,0,0,0,.5-.21,1.88,1.88,0,0,0,.41-.32,1.52,1.52,0,0,0,.28-.43l.64.18a1.75,1.75,0,0,1-.37.57,2.7,2.7,0,0,1-.55.45,2.41,2.41,0,0,1-.7.29,3,3,0,0,1-.79.11m2.1-3.25a2.36,2.36,0,0,0-.21-.83,2.24,2.24,0,0,0-.46-.65,2,2,0,0,0-.65-.43,2.13,2.13,0,0,0-1.57,0,1.89,1.89,0,0,0-.65.43,2,2,0,0,0-.45.65,2.47,2.47,0,0,0-.2.83Z"/><path class="cls-4" d="M136.48,77.39a.28.28,0,0,0,.15,0,.2.2,0,0,0,.08-.19v-1h.63v1.11a.66.66,0,0,1-.07.32.58.58,0,0,1-.2.21.77.77,0,0,1-.28.12,1.15,1.15,0,0,1-.31,0Z"/><path class="cls-4" d="M150.16,77.23h-.75V74.06a2.66,2.66,0,0,0-.31-1.46,1,1,0,0,0-.94-.47,1.46,1.46,0,0,0-.62.12,1.74,1.74,0,0,0-.53.33,2.77,2.77,0,0,0-.43.52,2.43,2.43,0,0,0-.28.66v3.47h-.74V74.06a2.79,2.79,0,0,0-.31-1.48,1.06,1.06,0,0,0-.94-.45,1.63,1.63,0,0,0-1.14.44,2.41,2.41,0,0,0-.72,1.18v3.48h-.75V71.55h.68v1.28a2.65,2.65,0,0,1,.92-1,2.21,2.21,0,0,1,1.25-.37,1.64,1.64,0,0,1,1.16.4,1.73,1.73,0,0,1,.52,1.06,2.44,2.44,0,0,1,2.2-1.46,1.7,1.7,0,0,1,.81.18,1.25,1.25,0,0,1,.53.49,2.42,2.42,0,0,1,.29.77,5.24,5.24,0,0,1,.1,1Z"/><path class="cls-4" d="M153.2,77.34a2.28,2.28,0,0,1-.8-.14,1.83,1.83,0,0,1-1-.93,1.62,1.62,0,0,1,0-1.38,1.71,1.71,0,0,1,.49-.55,2.42,2.42,0,0,1,.76-.35,3.32,3.32,0,0,1,1-.13,5.27,5.27,0,0,1,.87.07,5.44,5.44,0,0,1,.8.22v-.51a1.62,1.62,0,0,0-.44-1.19,1.51,1.51,0,0,0-1.16-.44,2.44,2.44,0,0,0-.91.17,4.41,4.41,0,0,0-.92.5l-.26-.49a5.08,5.08,0,0,1,1.08-.56,3.32,3.32,0,0,1,1.09-.18,2.1,2.1,0,0,1,2.26,2.26v2.56c0,.2.08.3.26.3v.66l-.17,0H156a.63.63,0,0,1-.39-.13.54.54,0,0,1-.21-.39l0-.45a2.58,2.58,0,0,1-1,.78,2.9,2.9,0,0,1-1.23.28m.18-.57a2.43,2.43,0,0,0,1-.21,1.91,1.91,0,0,0,.77-.59,1.07,1.07,0,0,0,.13-.21.42.42,0,0,0,.06-.21v-.93a6.39,6.39,0,0,0-.78-.22,4.29,4.29,0,0,0-.79-.07,2.37,2.37,0,0,0-1.29.32,1,1,0,0,0-.49.89,1.32,1.32,0,0,0,.08.44,1.18,1.18,0,0,0,.27.4,1.51,1.51,0,0,0,.44.28,1.71,1.71,0,0,0,.62.11m.45-6.3-.49-.19.64-1h.79Z"/><path class="cls-4" d="M159.58,77.34a3.82,3.82,0,0,1-1.3-.22,3.09,3.09,0,0,1-1.09-.63l.34-.51a3.46,3.46,0,0,0,1,.59,2.72,2.72,0,0,0,1.07.2,1.88,1.88,0,0,0,1.09-.28.88.88,0,0,0,.41-.79.72.72,0,0,0-.11-.4,1,1,0,0,0-.32-.27,2.42,2.42,0,0,0-.53-.22l-.75-.19c-.33-.08-.61-.16-.85-.24a2.82,2.82,0,0,1-.6-.27,1,1,0,0,1-.34-.38,1.13,1.13,0,0,1-.12-.56,1.66,1.66,0,0,1,.17-.75,1.51,1.51,0,0,1,.46-.54,2,2,0,0,1,.68-.32,3.07,3.07,0,0,1,.82-.11,3.27,3.27,0,0,1,1.19.21,2.42,2.42,0,0,1,.86.56l-.36.44a2,2,0,0,0-.77-.49,2.73,2.73,0,0,0-.94-.16,3.12,3.12,0,0,0-.55,0,1.48,1.48,0,0,0-.44.2.86.86,0,0,0-.3.33,1,1,0,0,0-.11.47.66.66,0,0,0,.08.37.6.6,0,0,0,.25.25,2.06,2.06,0,0,0,.44.19c.18,0,.39.11.65.16s.68.18,1,.27a2.6,2.6,0,0,1,.69.3,1.32,1.32,0,0,1,.42.43,1.25,1.25,0,0,1,.14.61,1.49,1.49,0,0,1-.6,1.24,2.63,2.63,0,0,1-1.61.46"/><path class="cls-4" d="M165.4,74.37a3,3,0,0,1,.21-1.13,2.91,2.91,0,0,1,.58-.94,2.81,2.81,0,0,1,2.06-.85,2.59,2.59,0,0,1,1.4.37,2.32,2.32,0,0,1,.91,1l-.72.23a1.69,1.69,0,0,0-.67-.68,1.8,1.8,0,0,0-.95-.25,1.85,1.85,0,0,0-.81.18,1.9,1.9,0,0,0-.65.47,2.18,2.18,0,0,0-.44.72,2.57,2.57,0,0,0-.16.9,2.53,2.53,0,0,0,.17.91,2.25,2.25,0,0,0,.45.73,1.9,1.9,0,0,0,.66.49,1.77,1.77,0,0,0,.8.18,2,2,0,0,0,.54-.07,1.8,1.8,0,0,0,.49-.22,1.52,1.52,0,0,0,.39-.31.85.85,0,0,0,.23-.37l.72.22a1.65,1.65,0,0,1-.35.56,2.57,2.57,0,0,1-.53.45,2.35,2.35,0,0,1-.69.29,2.88,2.88,0,0,1-.78.11,2.72,2.72,0,0,1-1.15-.24,2.64,2.64,0,0,1-.9-.64,2.9,2.9,0,0,1-.6-.94,3.13,3.13,0,0,1-.21-1.15"/><path class="cls-4" d="M174.26,77.34a2.72,2.72,0,0,1-1.15-.24,2.78,2.78,0,0,1-.91-.64,3.05,3.05,0,0,1-.59-.94,3.13,3.13,0,0,1-.21-1.15,3.06,3.06,0,0,1,.21-1.13,2.85,2.85,0,0,1,.59-.92,3,3,0,0,1,.9-.64,2.88,2.88,0,0,1,1.15-.23,2.78,2.78,0,0,1,1.13.23,2.74,2.74,0,0,1,.89.64,3,3,0,0,1,.79,2,1.09,1.09,0,0,1,0,.18s0,.09,0,.12h-4.86a2.37,2.37,0,0,0,.22.84,2.46,2.46,0,0,0,.45.67,1.92,1.92,0,0,0,.65.44,1.85,1.85,0,0,0,.78.16,2,2,0,0,0,.55-.07,3.89,3.89,0,0,0,.51-.21,2.08,2.08,0,0,0,.4-.32,1.33,1.33,0,0,0,.28-.43l.64.18a1.9,1.9,0,0,1-.36.57,2.76,2.76,0,0,1-.56.45,2.41,2.41,0,0,1-.7.29,2.94,2.94,0,0,1-.78.11m2.09-3.25a2.16,2.16,0,0,0-.21-.83,2.24,2.24,0,0,0-.46-.65,1.89,1.89,0,0,0-.65-.43,2.13,2.13,0,0,0-1.57,0,1.89,1.89,0,0,0-.65.43,2.21,2.21,0,0,0-.45.65,2.47,2.47,0,0,0-.2.83Z"/><path class="cls-4" d="M181,72.2a2.44,2.44,0,0,0-1.3.41,2.16,2.16,0,0,0-.79,1.08v3.54h-.74V71.55h.7v1.36a3,3,0,0,1,.77-1,1.64,1.64,0,0,1,1-.4H181Z"/><path class="cls-4" d="M181.63,74.37a3,3,0,0,1,.21-1.13,2.61,2.61,0,0,1,.58-.94,2.81,2.81,0,0,1,2.05-.85,2.6,2.6,0,0,1,1.41.37,2.3,2.3,0,0,1,.9,1l-.72.23a1.73,1.73,0,0,0-.66-.68,1.8,1.8,0,0,0-1-.25,1.85,1.85,0,0,0-.81.18,2,2,0,0,0-.66.47,2.16,2.16,0,0,0-.43.72,2.36,2.36,0,0,0-.16.9,2.53,2.53,0,0,0,.16.91A2.25,2.25,0,0,0,183,76a2.11,2.11,0,0,0,.66.49,1.84,1.84,0,0,0,.8.18,2,2,0,0,0,.54-.07,1.86,1.86,0,0,0,.5-.22,1.72,1.72,0,0,0,.39-.31,1,1,0,0,0,.23-.37l.72.22a1.82,1.82,0,0,1-.35.56,2.39,2.39,0,0,1-.54.45,2.24,2.24,0,0,1-.69.29,2.88,2.88,0,0,1-.78.11,2.71,2.71,0,0,1-1.14-.24,2.78,2.78,0,0,1-.91-.64,3.05,3.05,0,0,1-.59-.94,3.13,3.13,0,0,1-.21-1.15"/><path class="cls-4" d="M189.5,77.34a2.28,2.28,0,0,1-.8-.14,1.69,1.69,0,0,1-1.15-1.6,1.52,1.52,0,0,1,.17-.71,1.71,1.71,0,0,1,.49-.55A2.42,2.42,0,0,1,189,74a3.37,3.37,0,0,1,1-.13,5.27,5.27,0,0,1,.87.07,4.7,4.7,0,0,1,.79.22v-.51a1.61,1.61,0,0,0-.43-1.19A1.51,1.51,0,0,0,190,72a2.44,2.44,0,0,0-.91.17,4.41,4.41,0,0,0-.92.5l-.26-.49a5.08,5.08,0,0,1,1.08-.56,3.32,3.32,0,0,1,1.09-.18,2.09,2.09,0,0,1,2.26,2.26v2.56c0,.2.09.3.26.3v.66l-.16,0h-.14a.68.68,0,0,1-.4-.13.53.53,0,0,1-.2-.39l0-.45a2.5,2.5,0,0,1-1,.78,2.9,2.9,0,0,1-1.23.28m.18-.57a2.43,2.43,0,0,0,1-.21,1.85,1.85,0,0,0,.77-.59.74.74,0,0,0,.13-.21.41.41,0,0,0,.05-.21v-.93a5.77,5.77,0,0,0-.77-.22,4.26,4.26,0,0,0-.78-.07,2.35,2.35,0,0,0-1.29.32,1,1,0,0,0-.5.89,1.32,1.32,0,0,0,.08.44,1.18,1.18,0,0,0,.27.4,1.51,1.51,0,0,0,.44.28,1.67,1.67,0,0,0,.62.11"/></g></g></svg>