<svg xmlns="http://www.w3.org/2000/svg" viewBox="0 0 24.15 24.15"><defs><style>.cls-1{fill:#305596;}</style></defs><title>Asset 41</title><g id="Layer_2" data-name="Layer 2"><g id="Capa_1" data-name="Capa 1"><path class="cls-1" d="M12.13,13.8a21.69,21.69,0,0,1,2.42,0,3.66,3.66,0,0,1,1.62.57c1.34.94,1.28,1.77-.09,2.62a7.8,7.8,0,0,1-8.6-.36.9.9,0,0,1-.3-1.39A2.71,2.71,0,0,1,9.52,13.8C10.39,13.78,11.26,13.8,12.13,13.8Z"/><path class="cls-1" d="M12,12.34a3.3,3.3,0,1,1,3.33-3.27A3.25,3.25,0,0,1,12,12.34Z"/><path class="cls-1" d="M11.48,0h1.19l.91.1a11.58,11.58,0,0,1,4,1.21,11.91,11.91,0,0,1,4.67,4.21,11.77,11.77,0,0,1,1.84,5.06c0,.31.06.62.09.93v1.13s0,.11,0,.16c-.09.65-.13,1.3-.28,1.93a11.89,11.89,0,0,1-5.94,7.92,11.36,11.36,0,0,1-4.35,1.41l-.89.09H11.48l-.16,0a11.38,11.38,0,0,1-3.82-.88,12,12,0,0,1-6-5.32A11.59,11.59,0,0,1,.1,13.58c0-.3-.07-.6-.1-.91V11.48l0-.14c.09-.65.13-1.3.28-1.93a11.82,11.82,0,0,1,4.6-7,11.81,11.81,0,0,1,6-2.3Zm10,12.08a9.44,9.44,0,1,0-9.44,9.43A9.44,9.44,0,0,0,21.51,12.08Z"/></g></g></svg>