<svg xmlns="http://www.w3.org/2000/svg" xmlns:xlink="http://www.w3.org/1999/xlink" viewBox="0 0 2490 1080"><defs><style>.cls-1{fill:url(#Degradado_sin_nombre_77);}.cls-2{fill:url(#Degradado_sin_nombre_109);}.cls-3{fill:url(#Degradado_sin_nombre_111);}.cls-4{fill:url(#Degradado_sin_nombre_113);}.cls-25,.cls-5,.cls-52{fill:none;}.cls-6{isolation:isolate;}.cls-7{clip-path:url(#clip-path);}.cls-8{opacity:0.6;}.cls-9{clip-path:url(#clip-path-4);}.cls-10{clip-path:url(#clip-path-5);}.cls-11{mask:url(#mask);}.cls-12{fill:url(#Degradado_sin_nombre_76);}.cls-13{clip-path:url(#clip-path-6);}.cls-14{fill:#f9e5c1;}.cls-15{fill:#fefefe;}.cls-16{fill:#e8e0dd;}.cls-17{fill:#e8d6cd;}.cls-18{fill:#a8968e;}.cls-19{fill:#a5a2a0;}.cls-20{clip-path:url(#clip-path-9);}.cls-21{clip-path:url(#clip-path-10);}.cls-22{mask:url(#mask-2);}.cls-23{fill:url(#Degradado_sin_nombre_108);}.cls-24{fill:#f4efed;}.cls-25{stroke:#a8968e;stroke-width:2.38px;}.cls-25,.cls-52{stroke-miterlimit:10;}.cls-26{fill:#ff8e7d;}.cls-27{clip-path:url(#clip-path-12);}.cls-28{clip-path:url(#clip-path-13);}.cls-29{mask:url(#mask-3);}.cls-30{fill:url(#Degradado_sin_nombre_110);}.cls-31{fill:#a58778;}.cls-32{fill:#bba497;}.cls-33{fill:#a19db9;}.cls-34{clip-path:url(#clip-path-14);}.cls-35{opacity:0.18;}.cls-36{clip-path:url(#clip-path-15);}.cls-37{fill:#fcceb6;}.cls-38{clip-path:url(#clip-path-16);}.cls-39{clip-path:url(#clip-path-17);}.cls-40{clip-path:url(#clip-path-18);}.cls-41{clip-path:url(#clip-path-19);}.cls-42{clip-path:url(#clip-path-20);}.cls-43{clip-path:url(#clip-path-21);}.cls-44{clip-path:url(#clip-path-22);}.cls-45{clip-path:url(#clip-path-23);}.cls-46{clip-path:url(#clip-path-24);}.cls-47{clip-path:url(#clip-path-25);}.cls-48{clip-path:url(#clip-path-26);}.cls-49{clip-path:url(#clip-path-27);}.cls-50{clip-path:url(#clip-path-28);}.cls-51{clip-path:url(#clip-path-29);}.cls-52{stroke:#8c746d;stroke-width:3.12px;}.cls-53{fill:#8c746d;}.cls-54{fill:#96939e;}.cls-55{fill:#7fa454;}.cls-56{fill:#7270a1;}.cls-57{fill:#b2d2ea;}.cls-58{fill:#f4f4f4;}.cls-59{opacity:0.24;}.cls-60{clip-path:url(#clip-path-31);}.cls-61{fill:#bcb4b1;}.cls-62{opacity:0.2;mix-blend-mode:multiply;}.cls-63{clip-path:url(#clip-path-32);}.cls-64{fill:#b5a9a5;}.cls-65{clip-path:url(#clip-path-33);}.cls-66{fill:#5b5857;}.cls-67{fill:#d1d0cb;}.cls-68{fill:#e8e8e8;}.cls-69{fill:#fff;}.cls-70{fill:#f4f2f2;}.cls-71{fill:#e86300;}.cls-72{fill:#ffe252;}.cls-73{fill:#e7ff80;}.cls-74{opacity:0.72;}.cls-75{clip-path:url(#clip-path-34);}.cls-76{clip-path:url(#clip-path-35);}.cls-77{clip-path:url(#clip-path-36);}.cls-78{clip-path:url(#clip-path-37);}.cls-79{clip-path:url(#clip-path-38);}.cls-80{clip-path:url(#clip-path-39);}.cls-81{fill:#bace65;}.cls-82{fill:#727070;}.cls-83{fill:#5f6684;}.cls-84{fill:#1f222b;}.cls-85{opacity:0.22;}.cls-86{clip-path:url(#clip-path-40);}.cls-87{fill:#7f7674;}.cls-88{fill:#c9b7b1;}.cls-89{clip-path:url(#clip-path-42);}.cls-90{clip-path:url(#clip-path-43);}.cls-91{mask:url(#mask-4);}.cls-92{fill:url(#Degradado_sin_nombre_112);}.cls-93{clip-path:url(#clip-path-45);}.cls-94{clip-path:url(#clip-path-46);}.cls-95{clip-path:url(#clip-path-47);}.cls-96{clip-path:url(#clip-path-48);}.cls-97{clip-path:url(#clip-path-49);}.cls-98{clip-path:url(#clip-path-50);}.cls-99{fill:#8e8583;}.cls-100{fill:#998e8c;}.cls-101{clip-path:url(#clip-path-51);}.cls-102{fill:#dbb26a;}.cls-103{fill:#a3af75;}.cls-104{fill:#ce9b49;}.cls-105{clip-path:url(#clip-path-52);}.cls-106{fill:#c9c9c9;}.cls-107{fill:#e0e0e0;}.cls-108{fill:#ebebeb;}.cls-109{opacity:0.1;}.cls-110{clip-path:url(#clip-path-54);}.cls-111{fill:#305596;}.cls-112{clip-path:url(#clip-path-55);}.cls-113{clip-path:url(#clip-path-56);}.cls-114{fill:#4da9dd;}.cls-115{fill:#191919;}.cls-116{opacity:0.93;}.cls-116,.cls-118{mix-blend-mode:soft-light;}.cls-117{clip-path:url(#clip-path-57);}.cls-118{opacity:0.4;}.cls-119{clip-path:url(#clip-path-58);}.cls-120{fill:#3f2b4d;}.cls-121{fill:#222530;}.cls-122{fill:#181a1e;}.cls-123{fill:#308ab2;}.cls-124{clip-path:url(#clip-path-59);}.cls-125{fill:#1e1d1e;}.cls-126{fill:#231d18;}.cls-127{fill:#28211a;}.cls-128{fill:#233142;}.cls-129{clip-path:url(#clip-path-60);}.cls-130{clip-path:url(#clip-path-61);}.cls-131{fill:#15171e;}.cls-132{fill:#1c1f2d;}.cls-133{fill:#232323;}.cls-134{opacity:0.95;}</style><linearGradient id="Degradado_sin_nombre_77" y1="-19.67" x2="1" y2="-19.67" gradientTransform="matrix(-444.28, 0, 0, -444.28, 1377.75, -9353.9)" gradientUnits="userSpaceOnUse"><stop offset="0" stop-color="#fff"/><stop offset="1"/></linearGradient><linearGradient id="Degradado_sin_nombre_109" y1="1080" y2="1080" gradientTransform="translate(2350.58 188707.21) rotate(180) scale(174.55)" xlink:href="#Degradado_sin_nombre_77"/><linearGradient id="Degradado_sin_nombre_111" y1="1080" y2="1080" gradientTransform="translate(2365.86 113195.94) rotate(180) scale(104.43)" xlink:href="#Degradado_sin_nombre_77"/><linearGradient id="Degradado_sin_nombre_113" y1="1080.33" y2="1080.33" gradientTransform="matrix(-444.28, 0, 0, -444.28, 1377.74, 480450.51)" xlink:href="#Degradado_sin_nombre_77"/><clipPath id="clip-path"><rect class="cls-5" y="-1100" width="2490" height="1080"/></clipPath><clipPath id="clip-path-4"><rect class="cls-5" x="611.21" y="-867.44" width="849.97" height="505.3"/></clipPath><clipPath id="clip-path-5"><polygon class="cls-5" points="1024.19 -867.44 611.21 -362.14 1456.66 -374.79 1461.18 -867.44 1024.19 -867.44"/></clipPath><mask id="mask" x="368.35" y="-1275.95" width="1335.68" height="1322.32" maskUnits="userSpaceOnUse"><rect class="cls-1" x="578.67" y="-1106.25" width="915.06" height="982.92" transform="translate(903.64 582.75) rotate(-53)"/></mask><linearGradient id="Degradado_sin_nombre_76" y1="-19.67" x2="1" y2="-19.67" gradientTransform="matrix(-444.28, 0, 0, -444.28, 1377.75, -9353.9)" gradientUnits="userSpaceOnUse"><stop offset="0" stop-color="#fff"/><stop offset="1" stop-color="#f2eae9"/></linearGradient><clipPath id="clip-path-6"><rect class="cls-5" width="2490" height="1080"/></clipPath><clipPath id="clip-path-9"><rect class="cls-5" x="2274.57" y="107.53" width="90.05" height="177.11"/></clipPath><clipPath id="clip-path-10"><path class="cls-5" d="M2364.62,284.63c-2,0-89.33-43.47-89.33-43.47l-.72-133.63h90Z"/></clipPath><mask id="mask-2" x="2209.03" y="74.2" width="221.13" height="243.75" maskUnits="userSpaceOnUse"><rect class="cls-2" x="2220.4" y="119.07" width="198.4" height="154.02" transform="translate(1201.6 2237.91) rotate(-66.13)"/></mask><linearGradient id="Degradado_sin_nombre_108" y1="1080" y2="1080" gradientTransform="translate(2350.58 188707.24) rotate(180) scale(174.55)" xlink:href="#Degradado_sin_nombre_76"/><clipPath id="clip-path-12"><rect class="cls-5" x="2307.19" y="381.48" width="60.85" height="66.74"/></clipPath><clipPath id="clip-path-13"><polygon class="cls-5" points="2367.87 448.23 2307.19 416.98 2307.19 381.48 2368.04 381.48 2367.87 448.23"/></clipPath><mask id="mask-3" x="2275.25" y="352.36" width="124.73" height="124.98" maskUnits="userSpaceOnUse"><rect class="cls-3" x="2292.68" y="370.53" width="89.86" height="88.64" transform="translate(611.58 2044.99) rotate(-53.43)"/></mask><linearGradient id="Degradado_sin_nombre_110" y1="1080" y2="1080" gradientTransform="translate(2365.86 113195.94) rotate(180) scale(104.43)" xlink:href="#Degradado_sin_nombre_76"/><clipPath id="clip-path-14"><polygon class="cls-5" points="2163.5 673.73 2163.5 743.75 2163.5 905.89 2369.13 905.89 2369.13 744.44 2369.13 673.73 2163.5 673.73"/></clipPath><clipPath id="clip-path-15"><rect class="cls-5" x="2160.04" y="759.31" width="209.61" height="19.2"/></clipPath><clipPath id="clip-path-16"><rect class="cls-5" x="2257.53" y="672.71" width="114.09" height="27.86"/></clipPath><clipPath id="clip-path-17"><rect class="cls-5" x="2145.91" y="682.09" width="223.07" height="35.5"/></clipPath><clipPath id="clip-path-18"><rect class="cls-5" x="2160.55" y="703.17" width="112.63" height="47.85"/></clipPath><clipPath id="clip-path-19"><rect class="cls-5" x="2165.72" y="725.6" width="69.49" height="21.79"/></clipPath><clipPath id="clip-path-20"><rect class="cls-5" x="2303.95" y="737.1" width="68.63" height="6.87"/></clipPath><clipPath id="clip-path-21"><rect class="cls-5" x="2163.72" y="771.71" width="208.43" height="45.03"/></clipPath><clipPath id="clip-path-22"><rect class="cls-5" x="2209.06" y="745.86" width="121.28" height="17.09"/></clipPath><clipPath id="clip-path-23"><rect class="cls-5" x="2166.1" y="787.77" width="141.17" height="40.89"/></clipPath><clipPath id="clip-path-24"><rect class="cls-5" x="2166.6" y="799.61" width="100.89" height="25.85"/></clipPath><clipPath id="clip-path-25"><rect class="cls-5" x="2164.88" y="831.91" width="205.44" height="27.99"/></clipPath><clipPath id="clip-path-26"><rect class="cls-5" x="2155.51" y="823.07" width="94.45" height="13.19"/></clipPath><clipPath id="clip-path-27"><rect class="cls-5" x="2150.43" y="849.9" width="221.39" height="19.72"/></clipPath><clipPath id="clip-path-28"><rect class="cls-5" x="2155.96" y="876.88" width="217.4" height="27.37"/></clipPath><clipPath id="clip-path-29"><rect class="cls-5" x="2192.64" y="895.69" width="146.1" height="14.23"/></clipPath><clipPath id="clip-path-31"><rect class="cls-5" x="2180.77" y="634.12" width="50.9" height="40.79"/></clipPath><clipPath id="clip-path-32"><rect class="cls-5" x="783.45" y="892.8" width="603.86" height="45.07"/></clipPath><clipPath id="clip-path-33"><rect class="cls-5" x="1489.45" y="892.8" width="603.86" height="45.07"/></clipPath><clipPath id="clip-path-34"><rect class="cls-5" x="1703.16" y="600.84" width="105.54" height="2.89"/></clipPath><clipPath id="clip-path-35"><rect class="cls-5" x="1703.16" y="607.59" width="105.54" height="2.89"/></clipPath><clipPath id="clip-path-36"><rect class="cls-5" x="1703.16" y="636.28" width="105.54" height="2.89"/></clipPath><clipPath id="clip-path-37"><rect class="cls-5" x="1703.16" y="643.04" width="105.54" height="2.89"/></clipPath><clipPath id="clip-path-38"><rect class="cls-5" x="1703.16" y="613.77" width="105.54" height="2.89"/></clipPath><clipPath id="clip-path-39"><rect class="cls-5" x="1745.25" y="619.8" width="63.45" height="2.89"/></clipPath><clipPath id="clip-path-40"><rect class="cls-5" x="1766.65" y="790.89" width="142.63" height="14.81"/></clipPath><clipPath id="clip-path-42"><rect class="cls-5" x="611.21" y="232.56" width="849.97" height="505.3"/></clipPath><clipPath id="clip-path-43"><polygon class="cls-5" points="1024.19 232.56 611.21 737.86 1456.66 725.21 1461.18 232.56 1024.19 232.56"/></clipPath><mask id="mask-4" x="368.35" y="-175.95" width="1335.68" height="1322.32" maskUnits="userSpaceOnUse"><rect class="cls-4" x="578.67" y="-6.25" width="915.06" height="982.92" transform="translate(25.11 1020.79) rotate(-53)"/></mask><linearGradient id="Degradado_sin_nombre_112" y1="1080.33" y2="1080.33" gradientTransform="matrix(-444.28, 0, 0, -444.28, 1377.74, 480450.51)" xlink:href="#Degradado_sin_nombre_76"/><clipPath id="clip-path-45"><rect class="cls-5" x="908.9" y="600.84" width="105.54" height="2.89"/></clipPath><clipPath id="clip-path-46"><rect class="cls-5" x="908.9" y="607.59" width="105.54" height="2.89"/></clipPath><clipPath id="clip-path-47"><rect class="cls-5" x="908.9" y="636.28" width="105.54" height="2.89"/></clipPath><clipPath id="clip-path-48"><rect class="cls-5" x="908.9" y="643.04" width="105.54" height="2.89"/></clipPath><clipPath id="clip-path-49"><rect class="cls-5" x="908.9" y="613.77" width="105.54" height="2.89"/></clipPath><clipPath id="clip-path-50"><rect class="cls-5" x="950.98" y="619.8" width="63.46" height="2.89"/></clipPath><clipPath id="clip-path-51"><rect class="cls-5" x="1195.47" y="789" width="126.92" height="14.81"/></clipPath><clipPath id="clip-path-52"><rect class="cls-5" x="965.81" y="788.41" width="142.63" height="14.81"/></clipPath><clipPath id="clip-path-54"><rect class="cls-5" x="-5.48" y="-5.43" width="2500.96" height="1090.86"/></clipPath><clipPath id="clip-path-55"><rect class="cls-5" x="248.26" y="964.06" width="330.86" height="59.01"/></clipPath><clipPath id="clip-path-56"><rect class="cls-5" x="1836.45" y="964.06" width="396.48" height="59.01"/></clipPath><clipPath id="clip-path-57"><rect class="cls-5" x="378.04" y="603.96" width="61.85" height="368.12"/></clipPath><clipPath id="clip-path-58"><rect class="cls-5" x="342.97" y="656.66" width="82.56" height="42.28"/></clipPath><clipPath id="clip-path-59"><rect class="cls-5" x="324.14" y="536.32" width="114.99" height="103.66"/></clipPath><clipPath id="clip-path-60"><rect class="cls-5" x="1988.2" y="603.15" width="61.97" height="368.85"/></clipPath><clipPath id="clip-path-61"><rect class="cls-5" x="2002.59" y="655.96" width="82.72" height="42.37"/></clipPath></defs><title>Mesa de trabajo 17</title><g class="cls-6"><g id="Capa_1" data-name="Capa 1"><g class="cls-7"><g class="cls-7"><g class="cls-7"><g class="cls-8"><g class="cls-9"><g class="cls-10"><g class="cls-11"><rect class="cls-12" x="578.67" y="-1106.25" width="915.06" height="982.92" transform="translate(903.64 582.75) rotate(-53)"/></g></g></g></g></g></g></g><g class="cls-13"><g class="cls-13"><rect class="cls-14" width="2490" height="1080"/><rect class="cls-15" x="1634.72" width="284.06" height="721.06"/><rect class="cls-15" x="730.28" width="85.69" height="721.06"/><rect class="cls-15" x="1634.74" width="414.59" height="721.06"/><rect class="cls-16" x="1632.55" y="358.37" width="423.44" height="13.17"/><rect class="cls-16" x="1632.55" y="166.61" width="423.44" height="3.26"/><rect class="cls-16" x="1632.55" y="553.68" width="423.44" height="3.26"/><polygon class="cls-16" points="1836.24 0 1836.24 731.18 1849.41 729.16 1849.41 0 1836.24 0"/><rect class="cls-16" x="1957.61" width="3.66" height="733.71"/><rect class="cls-16" x="1729.83" width="3.66" height="733.71"/><rect class="cls-15" x="402.65" width="414.6" height="721.06"/><rect class="cls-16" x="400.46" y="358.37" width="423.44" height="13.17"/><rect class="cls-16" x="400.46" y="166.61" width="423.44" height="3.26"/><rect class="cls-16" x="400.46" y="553.68" width="423.44" height="3.26"/><rect class="cls-16" x="604.15" width="13.17" height="721.91"/><rect class="cls-16" x="497.74" width="3.66" height="733.71"/><rect class="cls-15" x="1011.93" width="414.6" height="721.06"/><rect class="cls-16" x="1009.75" y="358.37" width="423.44" height="13.17"/><rect class="cls-16" x="1009.75" y="166.61" width="423.44" height="3.26"/><rect class="cls-16" x="1009.75" y="553.68" width="423.44" height="3.26"/><rect class="cls-16" x="1213.44" width="13.17" height="721.91"/><rect class="cls-16" x="1334.81" width="3.66" height="733.71"/><rect class="cls-16" x="1107.03" width="3.66" height="733.71"/><rect class="cls-17" x="2214.4" y="105.76" width="152.08" height="226.35"/><path class="cls-18" d="M2212.64,104h155.61V333.87H2212.64Zm152.08,3.53H2216.17V330.35h148.55Z"/><rect class="cls-15" x="2229.45" y="119.72" width="121.72" height="198.27"/><rect class="cls-19" x="2256.27" y="175.93" width="68.35" height="80.11"/><g class="cls-13"><g class="cls-8"><g class="cls-20"><g class="cls-21"><g class="cls-22"><rect class="cls-23" x="2220.4" y="119.07" width="198.4" height="154.02" transform="translate(1201.6 2237.91) rotate(-66.13)"/></g></g></g></g></g><rect class="cls-24" x="2211.35" y="380.02" width="157.92" height="69.97"/><rect class="cls-25" x="2211.35" y="380.02" width="157.92" height="69.97"/><rect class="cls-26" x="2235.66" y="405.75" width="105.48" height="22.46"/><g class="cls-13"><g class="cls-8"><g class="cls-27"><g class="cls-28"><g class="cls-29"><rect class="cls-30" x="2292.68" y="370.53" width="89.86" height="88.64" transform="translate(611.58 2044.99) rotate(-53.43)"/></g></g></g></g></g><rect class="cls-31" y="865.61" width="2490" height="6.33"/><rect class="cls-32" y="872.16" width="2490" height="207.84"/><polygon class="cls-33" points="2229.11 673.73 2229.11 743.75 2229.11 905.89 2369.13 905.89 2369.13 744.44 2369.13 673.73 2229.11 673.73"/><g class="cls-34"><g class="cls-35"><g class="cls-36"><path class="cls-37" d="M2160,761.58a10.44,10.44,0,0,1,2.13-.51l2.59-.5c1-.2,2.23-.31,3.58-.5a119.06,119.06,0,0,1,23-.4c4.85.39,10.15,1,15.79,1.89s11.62,2.09,17.89,3.45c12.54,2.7,26.16,6.33,40.68,8.9s28.59,3.77,41.27,2.57a96.29,96.29,0,0,0,17.72-3.29c2.68-.89,5.29-1.69,7.72-2.69s4.76-2,7-3c4.44-1.94,8.49-3.67,12.17-4.9a45.31,45.31,0,0,1,9.67-2.25,16.72,16.72,0,0,1,1.93-.16c.6,0,1.16-.09,1.69-.06,1,0,1.94,0,2.65.13a10.25,10.25,0,0,1,2.16.36c0,.22-3-.44-8.35.35a48.07,48.07,0,0,0-9.46,2.49c-3.6,1.29-7.58,3.08-12,5.09-2.21,1-4.52,2.06-7,3.08s-5.09,1.89-7.8,2.82a96,96,0,0,1-18,3.49c-12.86,1.3-27.11.16-41.7-2.46s-28.23-6.26-40.71-9c-6.24-1.41-12.2-2.62-17.79-3.59s-10.85-1.61-15.66-2.07a131.52,131.52,0,0,0-22.83-.12c-1.35.14-2.55.2-3.58.35l-2.61.34a11.38,11.38,0,0,1-2.18.19"/></g></g><g class="cls-35"><g class="cls-38"><path class="cls-37" d="M2257.53,672.71a27.51,27.51,0,0,1,4,2.59l2.07,1.45c.77.52,1.64,1,2.55,1.61,1.84,1.12,3.87,2.52,6.29,3.77l3.73,2.06c1.31.71,2.72,1.32,4.16,2,2.84,1.46,6,2.69,9.34,4a131.16,131.16,0,0,0,45.61,8.81c3.58,0,7,0,10.18-.28,1.59-.12,3.14-.16,4.61-.34l4.23-.52c2.71-.26,5.11-.8,7.24-1.15,1.06-.2,2.06-.35,3-.54l2.46-.59a27.37,27.37,0,0,1,4.66-.91,25.5,25.5,0,0,1-4.5,1.53l-2.45.72c-.9.24-1.89.43-3,.67-2.13.45-4.54,1.07-7.26,1.41l-4.26.63c-1.49.21-3,.28-4.65.43-3.22.36-6.67.36-10.3.44a125.61,125.61,0,0,1-46.13-8.91c-3.34-1.43-6.54-2.71-9.39-4.24-1.44-.73-2.86-1.38-4.16-2.13l-3.72-2.17c-2.4-1.32-4.4-2.8-6.21-4-.9-.62-1.75-1.17-2.5-1.72s-1.39-1.11-2-1.58a26.21,26.21,0,0,1-3.61-3.1"/></g></g><g class="cls-35"><g class="cls-39"><path class="cls-37" d="M2145.91,706.74a12.32,12.32,0,0,1,1.64-1.76l2.07-2.06c.82-.82,1.89-1.61,3-2.59a80,80,0,0,1,22-12.65,86,86,0,0,1,37.15-5.34,77.85,77.85,0,0,1,21.75,5c7.28,2.74,14.24,6.78,21.3,10.83s14,8,21.14,10.59c.89.32,1.79.61,2.68.91s1.82.5,2.71.76l2.69.71c.89.24,1.81.36,2.71.54l2.69.49c.88.18,1.79.23,2.68.35,1.78.2,3.54.45,5.3.51a185.67,185.67,0,0,0,20,.11c6.28-.22,12.13-.49,17.49-.55a134.27,134.27,0,0,1,14.46.51l3.07.3c1,.13,1.92.3,2.82.44l2.59.42c.82.14,1.58.37,2.31.53,1.46.37,2.76.65,3.87,1l2.76,1a12.86,12.86,0,0,1,2.23.88,14.51,14.51,0,0,1-2.34-.57l-2.78-.81c-1.11-.28-2.42-.51-3.87-.83a113.5,113.5,0,0,0-25.1-1.67c-5.33.13-11.17.47-17.45.75a182.2,182.2,0,0,1-20.13,0c-1.78-.05-3.57-.29-5.39-.49-.9-.11-1.82-.16-2.73-.34l-2.74-.49c-.92-.18-1.85-.29-2.76-.53l-2.76-.73c-.92-.25-1.86-.45-2.78-.76s-1.83-.6-2.75-.93c-7.32-2.66-14.33-6.61-21.4-10.67s-13.94-8.06-21.06-10.76a77.09,77.09,0,0,0-21.31-4.95,86,86,0,0,0-36.61,4.93,82.81,82.81,0,0,0-22,12.07c-1.16.93-2.26,1.68-3.11,2.45s-1.57,1.41-2.17,1.93a13.44,13.44,0,0,1-1.86,1.53"/></g></g><g class="cls-35"><g class="cls-40"><path class="cls-37" d="M2243.08,750.57c0-.15,2.3.09,6.41-.2a46.17,46.17,0,0,0,16.66-4.48,13.46,13.46,0,0,0,4.55-3.11,4.9,4.9,0,0,0,.71-5.24,13.52,13.52,0,0,0-4.09-4.84c-.88-.7-1.83-1.34-2.83-2l-3-2a245.39,245.39,0,0,0-27.61-15.61,104.46,104.46,0,0,0-15.15-6.15,47.22,47.22,0,0,0-14.88-2.23,40.89,40.89,0,0,0-13.33,2.68,63,63,0,0,0-10.72,5.3c-3.15,1.91-5.86,3.85-8.21,5.61s-4.32,3.33-6,4.62l-3.72,3a6,6,0,0,1-1.37,1,7.66,7.66,0,0,1,1.16-1.21c.78-.75,2-1.83,3.53-3.21s3.48-3,5.8-4.85a92.93,92.93,0,0,1,8.15-5.86,61.45,61.45,0,0,1,10.85-5.59,41.71,41.71,0,0,1,13.77-2.92,48.23,48.23,0,0,1,15.38,2.2,103.53,103.53,0,0,1,15.39,6.22,230.14,230.14,0,0,1,27.73,15.83l3,2c1,.67,2,1.35,2.9,2.11a14.78,14.78,0,0,1,4.44,5.43,6.57,6.57,0,0,1,.45,3.5,6.31,6.31,0,0,1-1.45,3.07,14.38,14.38,0,0,1-5,3.34,44.21,44.21,0,0,1-17.13,4.07,39.19,39.19,0,0,1-4.79-.15,6.32,6.32,0,0,1-1.65-.28"/></g></g><g class="cls-35"><g class="cls-41"><path class="cls-37" d="M2175.35,747.37a33.54,33.54,0,0,1,5.16-1.36c3.34-.77,8.19-1.83,14.18-3.11l21.08-4.4,12.46-2.55c1.06-.23,2.22-.43,3.21-.68s1.86-.73,2.07-1.43-.11-1.47-.88-2.13a7.8,7.8,0,0,0-2.76-1.47,72.29,72.29,0,0,0-25.77-2.93l-3,.23c-1,.11-1.92.26-2.86.38-1.9.21-3.69.66-5.45,1s-3.42.82-5,1.3-3.12.92-4.53,1.49a75.16,75.16,0,0,0-13,6.19c-.75.41-1.39.82-1.93,1.18l-1.41.89a4.69,4.69,0,0,1-1.22.66c0-.05.32-.36,1-.92l1.32-1c.53-.41,1.14-.86,1.87-1.32a66.21,66.21,0,0,1,12.94-6.72c1.42-.62,3-1.06,4.57-1.62s3.31-.94,5.07-1.41,3.61-.83,5.53-1.07c1-.14,1.93-.3,2.92-.42l3-.28a71.79,71.79,0,0,1,12.83.16,72.82,72.82,0,0,1,13.52,2.72,9.33,9.33,0,0,1,3.35,1.8,4.79,4.79,0,0,1,1.26,1.64,3,3,0,0,1,.07,2.26,3.33,3.33,0,0,1-1.39,1.68,6.78,6.78,0,0,1-1.78.75c-1.18.3-2.22.46-3.32.69L2216.07,740,2194.92,744c-6,1.13-10.9,2-14.28,2.6a33.48,33.48,0,0,1-5.29.74"/></g></g><g class="cls-35"><g class="cls-42"><path class="cls-37" d="M2304,743.94a8.9,8.9,0,0,1,2.51-1.16c.83-.33,1.84-.71,3.05-1.08s2.56-.85,4.11-1.23,3.22-.85,5.05-1.21,3.8-.73,5.88-1.07a108.68,108.68,0,0,1,13.64-1.09,109.93,109.93,0,0,1,13.66.77c2.09.3,4.07.55,5.9.93s3.54.72,5.08,1.1,2.92.78,4.14,1.13,2.24.7,3.07,1a9.16,9.16,0,0,1,2.53,1.1c-.08.26-3.82-.88-10-2.12-1.54-.3-3.23-.63-5.06-.89s-3.78-.52-5.84-.77a126.12,126.12,0,0,0-13.47-.63,127.52,127.52,0,0,0-13.46.94c-2.05.3-4,.55-5.82.91s-3.5.67-5,1c-6.13,1.38-9.85,2.6-9.94,2.35"/></g></g><g class="cls-35"><g class="cls-43"><path class="cls-37" d="M2372.14,816.74c-.08,0-.26-.73-.88-2a16.9,16.9,0,0,0-3.77-5,30.61,30.61,0,0,0-8.35-5.31,68.36,68.36,0,0,0-12.51-4.26,138.83,138.83,0,0,0-15.84-2.73c-5.75-.7-11.94-1.25-18.43-2.1-13.05-1.59-27-5.42-41.43-9.76-7.23-2.15-14.27-4.27-21.12-6.08s-13.53-3.27-20-4.29A182.15,182.15,0,0,0,2195.4,773a192.73,192.73,0,0,0-23.22,2.21c-2.72.44-4.83.79-6.26,1.06a11.2,11.2,0,0,1-2.2.29,11.79,11.79,0,0,1,2.13-.61c1.41-.37,3.51-.83,6.23-1.36a166.49,166.49,0,0,1,23.28-2.74,176.26,176.26,0,0,1,34.73,1.85,199.55,199.55,0,0,1,20.12,4.23c6.9,1.8,14,3.91,21.18,6.06,14.42,4.34,28.25,8.18,41.17,9.84,6.44.88,12.63,1.48,18.4,2.25a133.52,133.52,0,0,1,15.95,3,66.67,66.67,0,0,1,12.61,4.55,30.37,30.37,0,0,1,8.41,5.68,15.74,15.74,0,0,1,3.63,5.28,10.59,10.59,0,0,1,.5,1.59c.08.37.11.56.08.57"/></g></g><g class="cls-35"><g class="cls-44"><path class="cls-37" d="M2209.06,746.91c0-.06.41-.19,1.23-.4A24.71,24.71,0,0,1,2214,746a42,42,0,0,1,13.58,1.33c5.64,1.34,12,4,19,6.8a104.42,104.42,0,0,0,11.13,3.9l1.48.44c.49.14,1,.24,1.5.36l3.06.72c1,.22,2.08.37,3.13.57s2.11.39,3.19.49a89.49,89.49,0,0,0,24.35-.13,92.87,92.87,0,0,0,19.31-4.93A100.67,100.67,0,0,0,2326,749.9a29.62,29.62,0,0,1,4.37-2.38,29.38,29.38,0,0,1-4.05,2.92,81.6,81.6,0,0,1-12.16,6.15,87.93,87.93,0,0,1-44.29,5.6,90.27,90.27,0,0,1-23.84-6.7c-7-2.93-13.24-5.62-18.74-7.08A45.83,45.83,0,0,0,2214,746.6c-3.18.06-4.92.46-4.94.31"/></g></g><g class="cls-35"><g class="cls-45"><path class="cls-37" d="M2289.55,828.57s.11-.12.36-.28a5.45,5.45,0,0,1,1.2-.53,12.67,12.67,0,0,1,5-.21c1.07.09,2.27.27,3.53.31a9.26,9.26,0,0,0,4-.8,4,4,0,0,0,2.62-3.21c.12-1.53-1.06-2.94-2.52-4.06a156.64,156.64,0,0,0-53.8-25.34,165.6,165.6,0,0,0-32.5-5,159.31,159.31,0,0,0-26.87.84c-3.8.51-7.25.89-10.23,1.53s-5.6,1-7.67,1.55-3.71.89-4.82,1.12a7.46,7.46,0,0,1-1.72.29,7.4,7.4,0,0,1,1.63-.6c1.08-.34,2.69-.82,4.76-1.42s4.65-1.17,7.64-1.83,6.45-1.2,10.27-1.78a150.64,150.64,0,0,1,27.08-1.19,160.66,160.66,0,0,1,32.84,4.93,158.92,158.92,0,0,1,31.1,11.64,154.41,154.41,0,0,1,23,14.37,10.25,10.25,0,0,1,2,2.17,4.61,4.61,0,0,1,.78,2.86,4.13,4.13,0,0,1-1.17,2.55,6.65,6.65,0,0,1-2.11,1.42,10,10,0,0,1-4.36.74c-1.34-.08-2.52-.31-3.58-.46a14,14,0,0,0-4.85-.09c-1.08.24-1.6.55-1.64.49"/></g></g><g class="cls-35"><g class="cls-46"><path class="cls-37" d="M2257.29,825.24a3.72,3.72,0,0,1,1.23-.15,19,19,0,0,0,3.43-.44,7.81,7.81,0,0,0,2.24-.92,5.46,5.46,0,0,0,1.86-2.05,3.44,3.44,0,0,0,.21-2.94,7.76,7.76,0,0,0-2.45-2.65,63.85,63.85,0,0,0-7.21-5.1,68.21,68.21,0,0,0-9.1-4.47,75.49,75.49,0,0,0-22.6-5.07,93.29,93.29,0,0,0-23.21,1.37,134.5,134.5,0,0,0-18.49,4.73c-5.18,1.7-9.29,3.31-12.13,4.42a29.12,29.12,0,0,1-4.47,1.61,24.65,24.65,0,0,1,4.22-2.2c2.77-1.29,6.84-3.07,12-4.91a123,123,0,0,1,18.59-5.13,91.22,91.22,0,0,1,23.59-1.51,74.62,74.62,0,0,1,23.06,5.3,67.44,67.44,0,0,1,9.23,4.71,60.43,60.43,0,0,1,7.25,5.38,8.41,8.41,0,0,1,2.66,3.13,4.36,4.36,0,0,1-.36,3.76,6.18,6.18,0,0,1-2.26,2.28,8.17,8.17,0,0,1-2.5.88,15,15,0,0,1-3.57.15,3.4,3.4,0,0,1-1.23-.18"/></g></g><g class="cls-35"><g class="cls-47"><path class="cls-37" d="M2164.88,850a11.8,11.8,0,0,1,2-.65c.69-.18,1.53-.42,2.53-.66L2173,848a77.28,77.28,0,0,1,9.75-.85,105.17,105.17,0,0,1,12.95.65c4.78.52,10,1.34,15.51,2.41s11.4,2.35,17.59,3.6c3.1.62,6.27,1.22,9.53,1.79l4.94.72c1.67.22,3.34.53,5.05.67,3.41.31,6.87.76,10.41.89l5.34.29,5.41.06a195.19,195.19,0,0,0,40.72-4,201,201,0,0,0,32.12-9.35l3.25-1.26,1.57-.61,1.5-.65,5.56-2.44c3.43-1.6,6.35-3.07,8.75-4.24s4.19-2.24,5.44-2.89a10.8,10.8,0,0,1,2-.91,10.57,10.57,0,0,1-1.79,1.2c-1.2.73-3,1.8-5.3,3.16s-5.25,2.81-8.66,4.5l-5.54,2.56-1.5.69-1.56.64-3.25,1.32a194.67,194.67,0,0,1-73.26,13.91l-5.47-.07-5.38-.3c-3.57-.13-7.06-.6-10.5-.92-1.72-.14-3.41-.47-5.09-.7l-5-.75q-4.9-.87-9.56-1.85c-6.2-1.29-12.05-2.63-17.56-3.74s-10.64-2-15.37-2.59a111.07,111.07,0,0,0-12.81-.88,85.09,85.09,0,0,0-9.68.57l-3.5.48-2.55.51a10.08,10.08,0,0,1-2.13.33"/></g></g><g class="cls-35"><g class="cls-48"><path class="cls-37" d="M2155.51,831.41a17.07,17.07,0,0,1,3.83.06c2.46.14,6,.39,10.39.74l15.38,1.31c5.78.49,12.14,1,18.8,1.1a107.5,107.5,0,0,0,18.71-1.2,74,74,0,0,0,14.75-3.92c8.15-3.17,12.41-6.69,12.58-6.42,0,0-.2.29-.7.71a27.27,27.27,0,0,1-2.25,1.74,50,50,0,0,1-9.2,5,69,69,0,0,1-14.93,4.33,101.08,101.08,0,0,1-19,1.35c-6.74-.1-13.13-.66-18.92-1.23s-11-1.16-15.35-1.65-7.9-.93-10.34-1.27a17.31,17.31,0,0,1-3.77-.68"/></g></g><g class="cls-35"><g class="cls-49"><path class="cls-37" d="M2150.43,868.34a12.68,12.68,0,0,1,1.83-1.4c.62-.43,1.43-.9,2.38-1.49s2.09-1.15,3.41-1.72a60,60,0,0,1,23.74-5,104.61,104.61,0,0,1,16.77,1.16c6,.83,12.31,2.09,18.94,3.4,3.31.66,6.71,1.32,10.19,1.91,1.74.3,3.5.56,5.28.81s3.58.49,5.4.7A195.86,195.86,0,0,0,2261,868a193.82,193.82,0,0,0,43.44-5.15c6.57-1.52,12.69-3.4,18.43-5.21s11.1-3.49,16.07-4.76c9.94-2.63,18.36-3.31,24.1-2.84,1.44.06,2.7.27,3.8.42.54.09,1.05.15,1.51.24l1.24.28a11.38,11.38,0,0,1,2.22.62,13.2,13.2,0,0,1-2.29-.29l-1.24-.21c-.45-.07-1-.1-1.5-.16-1.1-.1-2.35-.26-3.77-.27-5.68-.27-13.95.57-23.77,3.32-4.92,1.33-10.24,3.07-16,4.93s-11.88,3.82-18.49,5.39a189.81,189.81,0,0,1-66.61,4c-1.84-.22-3.65-.43-5.45-.72s-3.57-.53-5.32-.84c-3.5-.61-6.9-1.29-10.22-2-6.63-1.35-12.91-2.66-18.83-3.54a106.06,106.06,0,0,0-16.57-1.34,62,62,0,0,0-23.5,4.38c-1.32.51-2.44,1.11-3.43,1.57s-1.79,1-2.44,1.33a11.51,11.51,0,0,1-2,1.13"/></g></g><g class="cls-35"><g class="cls-50"><path class="cls-37" d="M2156,897.05a13.41,13.41,0,0,1,1.39-1.89c.49-.58,1.15-1.26,1.93-2.08a37.83,37.83,0,0,1,2.93-2.54,41.83,41.83,0,0,1,9.19-5.35,57.09,57.09,0,0,1,13.54-3.84,88.45,88.45,0,0,1,17-.86c6.12.21,12.62.84,19.44,1.39,3.41.27,6.9.5,10.46.61s7.21.06,10.92-.11c7.42-.33,15.08-1.16,22.92-2.12s15.52-2,23-2.63a163,163,0,0,1,21.58-.62,96.18,96.18,0,0,1,35.5,8.26,93.94,93.94,0,0,1,21,12.84c1.14.9,2.1,1.77,2.94,2.51s1.53,1.39,2.07,1.93a12.84,12.84,0,0,1,1.61,1.69,12.43,12.43,0,0,1-1.83-1.45c-.58-.5-1.29-1.12-2.17-1.8s-1.85-1.53-3-2.38a100.11,100.11,0,0,0-21-12.29,96.74,96.74,0,0,0-35.1-7.82,164.19,164.19,0,0,0-21.38.72c-7.41.67-15.05,1.68-22.91,2.65s-15.56,1.79-23,2.1c-3.74.16-7.43.17-11,.07s-7.13-.38-10.55-.67c-6.83-.59-13.3-1.27-19.36-1.53a88.31,88.31,0,0,0-16.8.65,57,57,0,0,0-13.37,3.54,42.69,42.69,0,0,0-9.15,5c-1.19.82-2.13,1.68-3,2.38s-1.49,1.41-2,2a12,12,0,0,1-1.63,1.67"/></g></g><g class="cls-35"><g class="cls-51"><path class="cls-37" d="M2192.64,906.65a5.47,5.47,0,0,1,1.53.17l1.82.32,2.49.38a93.41,93.41,0,0,0,16,.74,156.75,156.75,0,0,0,23.59-2.94c8.81-1.68,18.41-4.08,28.6-6.16s20.09-3.49,29.17-3.47a79.16,79.16,0,0,1,23.76,3.42,54.45,54.45,0,0,1,14.59,7l2.05,1.51c.58.45,1,.87,1.42,1.2.75.66,1.13,1,1.09,1.08a6.4,6.4,0,0,1-1.3-.82c-.41-.29-.9-.67-1.5-1.07l-2.11-1.38a59.17,59.17,0,0,0-14.57-6.44,80.58,80.58,0,0,0-23.42-3c-8.94.06-18.71,1.5-28.86,3.56s-19.76,4.43-28.64,6a144.71,144.71,0,0,1-23.84,2.61,80.94,80.94,0,0,1-16.12-1.26l-2.49-.52c-.71-.17-1.31-.35-1.8-.48a5.88,5.88,0,0,1-1.45-.49"/></g></g></g><line class="cls-52" x1="2369.13" y1="749.45" x2="2220.32" y2="749.45"/><line class="cls-52" x1="2369.13" y1="826.05" x2="2220.3" y2="826.05"/><rect class="cls-53" x="2277.79" y="749.45" width="31.43" height="6.67"/><rect class="cls-53" x="2277.79" y="673.73" width="31.43" height="6.67"/><rect class="cls-53" x="2277.79" y="825.65" width="31.43" height="6.67"/><rect class="cls-54" x="2172.83" y="673.72" width="56.82" height="232.29"/><rect class="cls-55" x="2349.05" y="578.08" width="20.07" height="95.64"/><rect class="cls-56" x="2324.87" y="587.82" width="13.99" height="85.9"/><rect class="cls-57" x="2340.52" y="587.82" width="7" height="85.9"/><g class="cls-13"><path class="cls-58" d="M2280.71,634.12l1.87,7.78-1.87,2.81v4.67l1.87,4.36-1.87,1.55v10.9l1.87,1.24-1.87,1.56v5.92h-99.94v-7.16l1.86-3.43-1.86-15.57,1.55-7.47s1.56-3.11,1.56-4-.31-3.11-.31-3.11Z"/><g class="cls-59"><g class="cls-60"><polygon class="cls-61" points="2229.28 674.9 2231.67 663.62 2229.28 658.97 2229.28 654.51 2231.67 652.18 2229.28 648.6 2229.28 634.12 2183.57 634.12 2183.88 637.23 2182.32 641.28 2180.77 648.75 2182.64 664.32 2180.77 667.75 2180.77 674.9 2229.28 674.9"/></g></g><g class="cls-62"><g class="cls-63"><path class="cls-64" d="M783.45,915.33c0,12.45,135.18,22.54,301.93,22.54s301.93-10.09,301.93-22.54-135.17-22.53-301.93-22.53-301.93,10.09-301.93,22.53"/></g></g><g class="cls-62"><g class="cls-65"><path class="cls-64" d="M1489.45,915.33c0,12.45,135.18,22.54,301.93,22.54s301.93-10.09,301.93-22.54-135.17-22.53-301.93-22.53-301.93,10.09-301.93,22.53"/></g></g><polygon class="cls-66" points="1767.81 677.16 1767.81 693.46 1818.23 693.46 1818.23 695.96 1681.73 695.96 1681.73 691.42 1729.65 691.93 1731.64 677.16 1767.81 677.16"/><rect class="cls-15" x="1683.66" y="589.94" width="132.69" height="72.72"/><polygon class="cls-67" points="1811.4 601.8 1811.4 604.89 1697.57 604.89 1698.71 600.84 1811.4 601.8"/><rect class="cls-66" x="1673.58" y="576.31" width="157.58" height="100.85"/><rect class="cls-68" x="1678.05" y="581.9" width="148.63" height="89.67"/><rect class="cls-69" x="1681.73" y="584.87" width="141.35" height="82.54"/><rect class="cls-70" x="1681.73" y="584.87" width="141.35" height="4.99"/><path class="cls-71" d="M1820.57,587.47a.68.68,0,0,0-.94-.26.69.69,0,1,0,.69,1.2.68.68,0,0,0,.25-.94"/><path class="cls-72" d="M1818,587.47a.69.69,0,0,0-1-.26.7.7,0,0,0-.26.95.7.7,0,0,0,1.21-.69"/><path class="cls-73" d="M1815.26,587.81a.7.7,0,1,0-.69.7.69.69,0,0,0,.69-.7"/><rect class="cls-70" x="1692.34" y="595.82" width="124.08" height="64.84"/><g class="cls-74"><g class="cls-75"><rect class="cls-61" x="1703.16" y="600.84" width="105.54" height="2.89"/></g></g><g class="cls-74"><g class="cls-76"><rect class="cls-61" x="1703.16" y="607.59" width="105.54" height="2.89"/></g></g><g class="cls-74"><g class="cls-77"><rect class="cls-61" x="1703.16" y="636.28" width="105.54" height="2.89"/></g></g><g class="cls-74"><g class="cls-78"><rect class="cls-61" x="1703.16" y="643.04" width="105.54" height="2.89"/></g></g><g class="cls-74"><g class="cls-79"><rect class="cls-61" x="1703.16" y="613.77" width="105.54" height="2.89"/></g></g><g class="cls-74"><g class="cls-80"><rect class="cls-61" x="1745.25" y="619.8" width="63.45" height="2.89"/></g></g><path class="cls-81" d="M1634.05,661.19l3.21-7s15.8.3,17-11.7-5-9.06-5-9.06-3.51-.58-3.51,7.31-3.81,9.36-6.44,9.36c0,0,6.44-19.59-10.53-20.76s-10.23,22.81-10.23,22.81-5.27-.34-4.68-6.9-3.8-7.72-3.8-7.72-7.32-.59-5.27,9.35,16.09,9.65,16.09,9.65v4.68Z"/><path class="cls-82" d="M1647.21,661.19c0,1.17-7.31,34.81-7.31,34.81h-23.11l-5.55-36Z"/><rect class="cls-61" x="1557.13" y="695.95" width="461.84" height="14.76"/><path class="cls-61" d="M1570.89,722.86V920.23H1999.8V721.06h-33.53V710.71h-28.18V724H1626.48v-18h-18.79v16.92Zm16,10.85h399.06v176.7H1586.85Z"/><path class="cls-83" d="M1763.16,785.68s.81,9.13,3.49,10.2,42.17,12.89,81.11,9.13,59.89-8.32,61.5-14v-5.37s-79.49-6.72-146.1,0"/><polygon class="cls-84" points="1831.59 805.69 1831.59 810.59 1856.23 810.59 1856.23 804.15 1831.59 805.69"/><rect class="cls-84" x="1840.52" y="810.59" width="6.26" height="35.96"/><path class="cls-84" d="M1836.14,846.54c-.67.89,0,59.27,0,59.27h15.31V846.54Z"/><rect class="cls-84" x="1763.67" y="904.32" width="148.93" height="6.21"/><path class="cls-84" d="M1912.61,917.19c0,3.68-2.69,6.66-6,6.66s-6-3-6-6.66,2.68-6.66,6-6.66,6,3,6,6.66"/><path class="cls-84" d="M1775.05,917.19a6.66,6.66,0,1,1-6.66-6.66,6.66,6.66,0,0,1,6.66,6.66"/><path class="cls-84" d="M1857.33,917.19a6.66,6.66,0,1,1-6.66-6.66,6.66,6.66,0,0,1,6.66,6.66"/><path class="cls-84" d="M1840.26,805.55s20.19-7.1,21.08-21.15h15.75s-5.57,18-25.53,20.3-1.1-.11-1.1-.11Z"/><path class="cls-83" d="M1793.16,683.24h0a36.21,36.21,0,0,0,36.21,36.21h66.33a36.21,36.21,0,0,0,0-72.42h-66.33a36.21,36.21,0,0,0-36.21,36.21"/><path class="cls-84" d="M1861.34,697v87.36h15.75l1.62-87.19a8.69,8.69,0,1,0-17.37-.17"/><g class="cls-85"><g class="cls-86"><path class="cls-87" d="M1766.65,795.88s91.57-6,142.61-4.83c0,0,2.94,10.32-72,14.61,0,0-38.67,1.17-70.65-9.78"/></g></g><rect class="cls-88" x="1010.06" y="-4.31" width="450.34" height="12.63"/><rect class="cls-88" x="1010.06" y="14.64" width="450.34" height="12.63"/><rect class="cls-88" x="1010.06" y="35.36" width="450.34" height="12.63"/><rect class="cls-88" x="1010.06" y="56.09" width="450.34" height="12.63"/><rect class="cls-88" x="1010.06" y="76.82" width="450.34" height="12.63"/><rect class="cls-88" x="1010.06" y="97.54" width="450.34" height="12.63"/><rect class="cls-88" x="1010.06" y="118.27" width="450.34" height="12.63"/><rect class="cls-88" x="1010.06" y="139" width="450.34" height="12.63"/><rect class="cls-88" x="1010.06" y="157.24" width="450.34" height="12.63"/><rect class="cls-88" x="1010.06" y="176.76" width="450.34" height="12.63"/><rect class="cls-88" x="1010.06" y="196.27" width="450.34" height="12.63"/><rect class="cls-88" x="1010.06" y="215.78" width="450.34" height="12.63"/></g><g class="cls-13"><g class="cls-8"><g class="cls-89"><g class="cls-90"><g class="cls-91"><rect class="cls-92" x="578.67" y="-6.25" width="915.06" height="982.92" transform="translate(25.11 1020.79) rotate(-53)"/></g></g></g></g><rect class="cls-88" x="1629.57" y="-5.7" width="424.53" height="12.63"/><rect class="cls-88" x="1629.57" y="13.82" width="424.53" height="12.63"/><rect class="cls-88" x="1629.57" y="33.33" width="424.53" height="12.63"/><rect class="cls-61" x="806.37" y="695.95" width="461.84" height="14.76"/><path class="cls-61" d="M820.13,722.86V920.23H1249V721.06h-33.53V710.71h-28.18V724H875.71v-18H856.92v16.92Zm16,10.85h399.06v176.7H836.09Z"/><polygon class="cls-66" points="973.55 677.16 973.55 693.46 1023.97 693.46 1023.97 695.96 887.47 695.96 887.47 691.42 935.39 691.93 937.38 677.16 973.55 677.16"/><rect class="cls-15" x="889.4" y="589.94" width="132.69" height="72.72"/><polygon class="cls-67" points="1017.14 601.8 1017.14 604.89 903.31 604.89 904.45 600.84 1017.14 601.8"/><rect class="cls-66" x="879.32" y="576.31" width="157.58" height="100.85"/><rect class="cls-68" x="883.79" y="581.9" width="148.63" height="89.67"/><rect class="cls-69" x="887.47" y="584.87" width="141.35" height="82.54"/><rect class="cls-70" x="887.47" y="584.87" width="141.35" height="4.99"/><path class="cls-71" d="M1026.31,587.47a.69.69,0,0,0-1-.26.7.7,0,0,0-.25.95.69.69,0,0,0,1.2-.69"/><path class="cls-72" d="M1023.69,587.47a.68.68,0,0,0-.94-.26.69.69,0,1,0,.69,1.2.68.68,0,0,0,.25-.94"/><path class="cls-73" d="M1021,587.81a.7.7,0,1,0-.69.7.69.69,0,0,0,.69-.7"/><rect class="cls-70" x="898.08" y="595.82" width="124.07" height="64.84"/></g><g class="cls-13"><g class="cls-74"><g class="cls-93"><rect class="cls-61" x="908.9" y="600.84" width="105.54" height="2.89"/></g></g><g class="cls-74"><g class="cls-94"><rect class="cls-61" x="908.9" y="607.59" width="105.54" height="2.89"/></g></g><g class="cls-74"><g class="cls-95"><rect class="cls-61" x="908.9" y="636.28" width="105.54" height="2.89"/></g></g><g class="cls-74"><g class="cls-96"><rect class="cls-61" x="908.9" y="643.04" width="105.54" height="2.89"/></g></g><g class="cls-74"><g class="cls-97"><rect class="cls-61" x="908.9" y="613.77" width="105.54" height="2.89"/></g></g><g class="cls-74"><g class="cls-98"><rect class="cls-61" x="950.98" y="619.8" width="63.45" height="2.89"/></g></g><polygon class="cls-66" points="1150.08 576.31 1150.08 680.76 1145.1 680.76 1145.1 577.26 1150.08 576.31"/><polygon class="cls-66" points="1145.1 648.93 1113.83 695.96 1150.08 695.96 1125.07 692.12 1145.1 658.41 1145.1 648.93"/><polygon class="cls-66" points="1208.23 695.96 1206.9 694.51 1162.63 693.68 1161.23 695.96 1208.23 695.96"/><polygon class="cls-87" points="1275.66 802.97 1275.66 807.87 1251.03 807.87 1251.03 801.43 1275.66 802.97"/><rect class="cls-99" x="1260.48" y="807.86" width="6.26" height="35.96"/><path class="cls-87" d="M1271.12,843.82c.67.89,0,59.26,0,59.26h-15.31V843.82Z"/><rect class="cls-87" x="1194.65" y="901.59" width="148.93" height="6.22"/><path class="cls-87" d="M1194.65,914.47c0,3.68,2.68,6.66,6,6.66s6-3,6-6.66-2.69-6.66-6-6.66-6,3-6,6.66"/><path class="cls-87" d="M1332.21,914.47a6.66,6.66,0,1,0,6.66-6.66,6.66,6.66,0,0,0-6.66,6.66"/><path class="cls-87" d="M1249.93,914.47a6.66,6.66,0,1,0,6.65-6.66,6.66,6.66,0,0,0-6.65,6.66"/><path class="cls-100" d="M1325.5,783.79s-.72,9.13-3.11,10.2-37.52,12.89-72.18,9.14-53.3-8.33-54.73-14v-5.37s70.75-6.72,130,0"/><g class="cls-85"><g class="cls-101"><path class="cls-87" d="M1322.39,794s-81.49-6-126.91-4.83c0,0-2.62,10.33,64,14.62,0,0,34.42,1.16,62.87-9.79"/></g></g><path class="cls-87" d="M1316.35,671.13s3.29.9,6,14.49-3,99.82-3,99.82l-12.12-3.3Z"/><path class="cls-100" d="M1302,735.72h0a12.29,12.29,0,0,0,13.91-10.42l9.83-68.57a12.28,12.28,0,1,0-24.31-3.49l-9.84,68.58a12.29,12.29,0,0,0,10.41,13.9"/><polygon class="cls-102" points="1100.68 660.55 1097.41 695.96 1071.82 695.96 1067.36 660.55 1100.68 660.55"/><path class="cls-103" d="M1117,590.32l-19.34,70.23h-25.88s-28.57-103-23.21-106.23l25.59,102.95s-14.29-90.16-13.1-93.43S1076,636.15,1076,636.15s-7.74-112.18-4.76-113.67,8.33,91.65,8.33,91.65-.37-72.31,2.94-73.2-.63,100.57,0,101.47,3-58.62,5.39-58.62.6,44.63.6,44.63,10.71-80.34,14.28-80.64-6.84,55.94-6.55,54.75,12.2-46.12,14.88-46.12-19.34,87.19-19.34,87.19,18.15-71.42,21.72-70.52-16.06,70.22-16.06,70.22,12.79-54.75,19.63-53"/><polygon class="cls-104" points="1097.67 660.55 1078.21 695.96 1097.41 695.96 1100.68 660.55 1097.67 660.55"/><path class="cls-100" d="M1111.93,783.2s-.81,9.13-3.49,10.2-42.17,12.89-81.11,9.13-59.89-8.32-61.5-14V783.2s79.49-6.72,146.1,0"/><polygon class="cls-87" points="1043.49 803.21 1043.49 808.11 1018.86 808.11 1018.86 801.67 1043.49 803.21"/><rect class="cls-99" x="1028.31" y="808.11" width="6.26" height="35.96"/><path class="cls-87" d="M1039,844.07c.67.88,0,59.26,0,59.26h-15.31V844.07Z"/><rect class="cls-87" x="962.48" y="901.84" width="148.93" height="6.21"/><path class="cls-87" d="M962.48,914.71c0,3.68,2.69,6.66,6,6.66s6-3,6-6.66-2.69-6.66-6-6.66-6,3-6,6.66"/><path class="cls-87" d="M1100,914.71a6.66,6.66,0,1,0,6.66-6.66,6.66,6.66,0,0,0-6.66,6.66"/><path class="cls-87" d="M1017.76,914.71a6.66,6.66,0,1,0,6.66-6.66,6.66,6.66,0,0,0-6.66,6.66"/><path class="cls-87" d="M1034.83,803.07s-20.19-7.1-21.07-21.15H998s5.57,18,25.53,20.3,1.1-.1,1.1-.1Z"/><path class="cls-100" d="M1081.93,680.76h0A36.21,36.21,0,0,1,1045.72,717H979.39a36.21,36.21,0,0,1,0-72.42h66.33a36.22,36.22,0,0,1,36.21,36.21"/><path class="cls-87" d="M1013.75,694.56v87.36H998l-1.62-87.2a8.69,8.69,0,1,1,17.37-.16"/><g class="cls-85"><g class="cls-105"><path class="cls-87" d="M1108.44,793.4s-91.57-6-142.61-4.83c0,0-2.94,10.33,72,14.62,0,0,38.67,1.16,70.65-9.79"/></g></g><rect class="cls-88" x="122.63" y="117.02" width="162.59" height="169.48"/><rect class="cls-106" x="144.49" y="139.8" width="118.87" height="123.92"/><path class="cls-107" d="M263.36,264.54a22,22,0,0,0,3,3.37c1.91,2,4.58,4.7,7.57,7.64s5.74,5.58,7.76,7.46a22.49,22.49,0,0,0,3.39,2.9,21.59,21.59,0,0,0-3-3.36c-1.9-2-4.58-4.7-7.58-7.66s-5.75-5.58-7.77-7.46a22.08,22.08,0,0,0-3.38-2.89"/><path class="cls-107" d="M144.49,264.24a22,22,0,0,0-3.37,3c-2,1.91-4.7,4.58-7.65,7.57s-5.58,5.73-7.45,7.75a22.05,22.05,0,0,0-2.9,3.4,22.59,22.59,0,0,0,3.35-3c2-1.91,4.71-4.59,7.66-7.59s5.59-5.74,7.46-7.76a22.44,22.44,0,0,0,2.9-3.38"/><path class="cls-107" d="M144.81,140.13a23.14,23.14,0,0,0-3-3.37c-1.91-2-4.58-4.69-7.57-7.64s-5.74-5.58-7.75-7.45a21.35,21.35,0,0,0-3.4-2.9,22.44,22.44,0,0,0,3,3.35c1.9,2,4.58,4.7,7.58,7.66s5.75,5.59,7.77,7.46a21.37,21.37,0,0,0,3.38,2.89"/><path class="cls-107" d="M263.69,140.43a22.82,22.82,0,0,0,3.36-3c2-1.9,4.7-4.58,7.65-7.57s5.58-5.73,7.45-7.75a22.05,22.05,0,0,0,2.9-3.4,22.59,22.59,0,0,0-3.35,3c-2,1.91-4.71,4.59-7.66,7.59s-5.59,5.75-7.46,7.76a21.76,21.76,0,0,0-2.89,3.38"/><path class="cls-107" d="M144.81,263.72s0-.21,0-.6,0-1,0-1.73c0-1.54,0-3.77.05-6.68,0-5.86.06-14.4.1-25.25.05-21.7.12-52.62.2-89.66l-.39.39,118.54.06h0l-.45-.45c0,45.48,0,88,.07,123.92l.38-.39-85.86.2-24.1.1-6.37,0-1.65,0c-.37,0-.57,0-.57,0l.53,0,1.6,0,6.3,0,24,.1,86.1.2h.38v-.38c0-35.89,0-78.44.07-123.92v-.45h-.46l-118.54.06h-.39v.39c.08,37.14.15,68.15.2,89.91,0,10.82.08,19.32.1,25.16,0,2.87,0,5.08.05,6.61,0,.72,0,1.28,0,1.68s0,.56,0,.56"/><path class="cls-108" d="M232,191.57s2.54,30.68-30.68,30.68c0-16.37,13.5-29.3,30.68-30.68"/><path class="cls-108" d="M171.19,191.59s30.68-2.54,30.68,30.68c-16.37,0-29.3-13.51-30.68-30.68"/><path class="cls-107" d="M202.78,174.8s25.06,22.5-1.37,47.45c-12.3-13-11.26-33.45,1.37-47.45"/></g><g class="cls-13"><g class="cls-109"><g class="cls-110"><rect class="cls-111" x="-5.48" y="-4.31" width="2500.95" height="1088.62"/></g></g><g class="cls-62"><g class="cls-112"><path class="cls-64" d="M248.26,993.57c0,16.29,74.06,29.5,165.43,29.5s165.43-13.21,165.43-29.5-74.07-29.51-165.43-29.51-165.43,13.21-165.43,29.51"/></g></g><g class="cls-62"><g class="cls-113"><path class="cls-64" d="M1836.46,993.57c0,16.29,88.75,29.5,198.23,29.5s198.24-13.21,198.24-29.5-88.76-29.51-198.24-29.51-198.23,13.21-198.23,29.51"/></g></g><path class="cls-114" d="M564.39,522l12.85,2.87c6.43,1.44,12.34,4.11,19.09,3.86,5.1-.18,10.35-2.09,13.52-6.08s3.66-10.26.28-14.08c-3-3.43-8-4.11-12.59-4.57l-11.19-1.14,4.11-2.49c1.62-1,3.37-2.13,3.87-4,1.83-6.78-8.81-1.69-10.88-.87l-9.92,3.91-9.78-2.68Z"/><path d="M393.9,982.3c5,.72,10,1.39,15,2.41,8.8,1.78,9.34,19.38,1.36,21.45l-.18.05c-14.83,3.83-30.37,4.3-45.6,4-6.25-.14-12.81.84-18.87-1.12-7-2.27-10.93-9.08-11-16.23-.18-11.18,4.05-14.19,15.91-11.63,13.84,3,29.55-.9,43.42,1.11"/><path d="M439.15,965.27c5,.72,10,1.39,15,2.41,8.79,1.79,9.34,19.38,1.35,21.45l-.18,0c-14.83,3.83-30.36,4.31-45.6,4-6.25-.14-12.8.84-18.87-1.12-7-2.27-10.93-9.07-11-16.23-.17-11.18,4.06-14.19,15.91-11.63,13.84,3,29.55-.9,43.42,1.11"/><path class="cls-115" d="M445.29,593.67s-11.07,227.71-6.14,267.89-.33,99.82-.33,99.82-34,16.91-60.78,9.25l50.87-374.2Z"/><g class="cls-116"><g class="cls-117"><path d="M439.6,604l-14.24,18.59L378,970.63a49.66,49.66,0,0,0,7.06,1.45c8.25-25.54,50.82-160.12,54.28-229q.11-3.57.22-7.16c.65-73.13,0-131.95,0-131.95"/></g></g><path class="cls-115" d="M343.47,660.65s2.72,109.07,0,135.85-12.29,181.79-12.29,181.79,14.12,17.22,48.2,3.82c0,0,67.12-276.5,65.91-388.44l-108,18.18Z"/><g class="cls-118"><g class="cls-119"><path class="cls-120" d="M343,656.66l.5,4s.41,16.53.76,38.3l81.3-11Z"/></g></g><path class="cls-121" d="M410.15,417.81s19.33,25.79,66.68,51.42c27.06,14.65,95.26,25.2,95.26,25.2l.33,33S461.65,524,432.65,480c-27.93-42.38-22.5-62.17-22.5-62.17"/><path class="cls-69" d="M365.63,415.24l24.83-1.95s21.45,21.71,37.59,58.83,26,173.78,26,173.78l-19.23,2.75s-21.49-154.48-69.2-233.41"/><path class="cls-122" d="M458.91,673.56c-2.16,7.89-12.69,10.89-17.66,14.56s6.9-75.55,2.8-139.67c-1.83-28.57-13.14-58.67-25.11-83.27v0a403.14,403.14,0,0,0-30.41-52.08l-.41-.58,19.84,4a7.26,7.26,0,0,1,3.92,2.21l.77.85.45.49c21.48,24,31.39,57.75,39.83,94.15q2.7,11.64,4.72,23.36c11.66,66.85,2.55,131.32,1.26,136"/><path class="cls-114" d="M378.5,420h5.64a9.16,9.16,0,0,0,9.16-9.15v-8.62h-24v8.62A9.16,9.16,0,0,0,378.5,420"/><path class="cls-123" d="M369.28,406.8s12.21,4,24-.27c0,0-4.68,6.59-24,5.4Z"/><path class="cls-121" d="M425.53,687.92c-10.39.71-103.68-3.6-108.69-19.39s12.44-144.94,16.26-178.67c3.72-32.81,8-93.95,38.95-78.45a28.56,28.56,0,0,1,2.6,1.44s2.53,3.8,6.55,10.41l1,1.58q1.38,2.28,3,4.93l.2.37c6.24,10.55,14.41,25.23,22.42,42,12.58,26.32,24.74,57.71,28.19,86.27,7.9,65.31,0,128.81-10.41,129.53"/><g class="cls-118"><g class="cls-124"><path class="cls-120" d="M439.13,639.91,330,536.32c-.44,2.86-.86,5.62-1.28,8.21-1,6.37-2.61,15.86-4.55,27.29,0,0,14.31,70.79,115,68.09h0"/></g></g><path class="cls-114" d="M431.05,644.78l10.89,7.42c5.44,3.71,9.94,8.38,16.31,10.64,4.8,1.71,10.39,1.88,14.81-.66s7.18-8.18,5.46-13c-1.55-4.3-5.95-6.79-10-8.9l-10-5.19,4.74-.79c1.87-.32,3.92-.74,5.05-2.26,4.21-5.62-7.55-4.82-9.78-4.83l-10.66,0-8.1-6.11Z"/><path class="cls-121" d="M380.65,424.81s-22.24-46.16-47.89,24.2c-19.56,53.66-9,158.75,98.9,202.22l18.25-25.05a5.71,5.71,0,0,0-1.43-8.11c-23.05-15.49-132.73-80.15-67.83-193.26"/><path class="cls-69" d="M555.73,517.53a3.33,3.33,0,1,1-4.06-2.39,3.33,3.33,0,0,1,4.06,2.39"/><path class="cls-114" d="M434.5,368.9A57,57,0,1,0,430,379.23c3-7.1,3.62-9.61,4.54-10.33"/><path class="cls-69" d="M377.47,364.65a3.64,3.64,0,1,0-4.07,6c13.39,9,25.9,12.12,36.23,12.5a61.37,61.37,0,0,0,19.51-2.45,78.48,78.48,0,0,0,4.45-9.5c-3.93,1.93-28.15,12.28-56.12-6.58"/><path class="cls-125" d="M338.71,393.18a2.48,2.48,0,0,0,.39,0,5.84,5.84,0,0,0,3.79-2.1c6.59-6.83,5.17-16.58,5-25.24a31,31,0,0,1,1.61-11.71c1.65-4.29,2.88-7.54,1.49-12.27L345,329.44c6.5,1.08,13.06-1.87,18.64-4.87,1.43-.76,15.31-7.83,13.13-10.75,2.92,3.9,6.84,7,11.62,7.94a20.29,20.29,0,0,0,14.12-2.31c4.82,4.78,12.92,6.43,19.44,4.54s11.6-4.7,13.11-11.32a19.16,19.16,0,0,0-24.9-22.39c-1.71-7.23-6.87-13.75-14-15.74a21.3,21.3,0,0,0-20.5,5.49,22.49,22.49,0,0,0-17.45-1.55,21.74,21.74,0,0,0-13,11.31c-8.86-2-18.9,1.95-24.24,9.3a24,24,0,0,0-1.21,25.71c-5.9,4-10.37,11.18-9.86,18.29A20.89,20.89,0,0,0,321.29,360c.14.08,1.16,6.75,1.51,7.6A42,42,0,0,0,327,375c2,2.9,3.95,5.76,5.71,8.79,1.26,2.2,2.84,9,6,9.41"/><path d="M406.25,318.74a12.48,12.48,0,0,0,8.73-1.55,10.36,10.36,0,0,0,3.4-3.25,11.21,11.21,0,0,0,1.28-9.3,10.3,10.3,0,0,0-2.4-4.05,12.52,12.52,0,0,0-8-3.84,11,11,0,0,1,9.36,2.35,11.27,11.27,0,0,1,3.41,4.7,12.29,12.29,0,0,1-1.59,11.58A11.21,11.21,0,0,1,415.9,319a11.05,11.05,0,0,1-9.65-.25"/><path d="M383.72,310.41a12.12,12.12,0,0,0,5.25-5.49,10.56,10.56,0,0,0-5.1-14,12.11,12.11,0,0,0-7.55-.83,10.28,10.28,0,0,1,8.16-.78,10.72,10.72,0,0,1,4.21,2.49,11.45,11.45,0,0,1,3.39,9.3,10.63,10.63,0,0,1-1.61,4.61,10.31,10.31,0,0,1-6.75,4.66"/><path d="M387.4,317.71a9.24,9.24,0,0,0,4.77-.13,6.44,6.44,0,0,0,3.85-3.17,5.15,5.15,0,0,0,.1-4.81,5.31,5.31,0,0,0-3.61-2.8,5,5,0,0,1,4.52,2.25,5.34,5.34,0,0,1,1,2.92,6.32,6.32,0,0,1-.73,3.1,6.72,6.72,0,0,1-4.85,3.54,7.42,7.42,0,0,1-5-.9"/><path d="M356.9,318a12.13,12.13,0,0,0,2.91-5.55,10.34,10.34,0,0,0-5.07-11.66,12.1,12.1,0,0,0-6-1.66,9.7,9.7,0,0,1,6.65.41,10.31,10.31,0,0,1,5.78,13.31A9.66,9.66,0,0,1,356.9,318"/><path d="M342.13,330.85a6,6,0,0,1-4,.18,7.24,7.24,0,0,1-5.25-7.29,5.94,5.94,0,0,1,1.43-3.72,10.35,10.35,0,0,0,7.8,10.83"/><path d="M333.33,337.38A4.43,4.43,0,0,1,326,333.9a7.23,7.23,0,0,0,7.38,3.48"/><path class="cls-114" d="M1846.78,358.45l-10.16-8.39c-5.08-4.19-10.82-7.21-14.77-12.7-3-4.13-4.7-9.44-3.5-14.4s5.86-9.18,11-8.86c4.56.28,8.18,3.82,11.34,7.13l7.76,8.13c-.18-1.59-.37-3.18-.55-4.77-.22-1.88-.39-4,.75-5.48,4.23-5.61,6.74,5.91,7.37,8.05q1.5,5.11,3,10.23l8.12,6.07Z"/><path class="cls-126" d="M1988.94,965.18c-5,.72-10,1.4-15,2.41-8.81,1.79-9.36,19.43-1.35,21.5l.18,0c14.86,3.83,30.42,4.31,45.69,4,6.26-.14,12.83.85,18.9-1.12,7-2.27,11-9.09,11.07-16.26.17-11.2-4.06-14.21-15.95-11.65-13.86,3-29.6-.9-43.5,1.11"/><path class="cls-127" d="M2034.29,982.24c-5,.72-10,1.4-15,2.42-8.81,1.79-9.36,19.42-1.36,21.5l.18,0c14.86,3.83,30.43,4.32,45.69,4,6.26-.15,12.83.84,18.91-1.12,7-2.27,10.95-9.1,11.06-16.27.18-11.2-4.06-14.21-15.94-11.65-13.87,3-29.61-.9-43.5,1.11"/><path class="cls-128" d="M1982.79,592.84s11.1,228.16,6.15,268.43.33,100,.33,100,34.08,16.94,60.9,9.27l-51-374.95Z"/><g class="cls-118"><g class="cls-129"><path class="cls-120" d="M1988.49,603.15l14.27,18.63,47.41,348.77a49.82,49.82,0,0,1-7.07,1.46c-8.27-25.6-50.92-160.45-54.39-229.47q-.11-3.59-.22-7.17c-.65-73.28,0-132.22,0-132.22"/></g></g><path class="cls-128" d="M2084.81,660s.35,103.19,3.07,130,9.24,188.24,9.24,188.24-14.15,17.26-48.29,3.84c0,0-67.26-277.06-66-389.22L2091,611.06Z"/><g class="cls-118"><g class="cls-130"><path class="cls-120" d="M2085.31,656l-.5,4s-.41,16.57-.76,38.38l-81.46-11.06Z"/></g></g><path class="cls-131" d="M2025.53,416.27s-55-6.63-91.64-22.43C1906.43,382,1861.16,334,1861.16,334l-24.91,20.12s45.94,62.2,92,79.87c130.82,50.24,97.33-17.7,97.33-17.7"/><path class="cls-69" d="M2062.61,414.06l-5.89-2.49a23.17,23.17,0,0,0-28.26,8.37,329.38,329.38,0,0,0-28.4,51.11c-16.18,37.19-20.13,121.79-20.13,121.79l19.27,2.76s15.6-102.45,63.41-181.54"/><path class="cls-132" d="M1969.14,672.89c2.16,7.9,12.71,10.91,17.69,14.59s-6.91-75.7-2.79-140c1.83-28.63,13.16-58.79,25.15-83.43v0a405.93,405.93,0,0,1,30.47-52.19c.27-.37.41-.58.41-.58l-12.09,2c-.83.86-17.88-1.58-18.66-.7-.17.16-17.32,20.45-17.34,20.67-2,27.33-14.21,42.86-22.66,79.33q-2.71,11.67-4.73,23.41c-11.69,67,3.26,132.17,4.55,136.86"/><path class="cls-114" d="M2041.16,422.53h5.65a9.16,9.16,0,0,0,9.16-9.15v-8.62h-24v8.62a9.15,9.15,0,0,0,9.15,9.15"/><path class="cls-123" d="M2032,409.3s12.21,4,24-.27c0,0-4.68,6.59-24,5.4Z"/><path class="cls-132" d="M2002.59,687.27c10.41.72,103.88-3.6,108.9-19.42s-12.25-145.25-16.29-179c-3.92-32.72-2.31-84.13-40.49-78.2-.93.14-3.68,4.85-7.71,11.47l-1,1.59q-1.39,2.28-3,4.93l-.2.37c-6.26,10.58-14.44,25.28-22.47,42.07-12.61,26.37-24.78,57.83-28.24,86.44-7.92,65.44,0,129.06,10.43,129.78"/><path class="cls-114" d="M2044.24,655.75,2036,666c-4.11,5.14-7,10.93-12.47,15-4.08,3-9.37,4.84-14.34,3.72s-9.28-5.71-9-10.81c.22-4.57,3.69-8.24,7-11.45l8-7.89-4.77.63c-1.87.25-4,.45-5.49-.67-5.67-4.14,5.81-6.83,7.94-7.49L2023,643.9l6-8.22Z"/><path class="cls-131" d="M2046.65,436.62c-3.4-20,17-29.21,28.91-12.81,4.16,5.7,8,14,10.91,25.87,15.34,61.33,35.51,159-40.67,215.86l-23-22.08a6.67,6.67,0,0,1-.68-8.82c33.9-44.86,52.16-35.21,24.5-198"/><path class="cls-69" d="M2040.22,636.25a3.2,3.2,0,1,0-.09-4.53,3.2,3.2,0,0,0,.09,4.53"/><path class="cls-69" d="M1989.55,371s2.61,7.23,4.33,10.84l21.12,5.54,31-15.68.7-10.52-13.32-7.44-27.22,15.24Z"/><path class="cls-114" d="M2036.76,361l-8-2.79c-4.18,11.95-21.46,17.38-39.13,13a54.93,54.93,0,1,1,4,10.09c19.94,2.88,37.73-4.94,43.09-20.27"/><path class="cls-133" d="M2073.42,331.39s-30.66,4.83-79.6.79c-5.89-1.2-15.83-45-2.18-43.42,39.85,4.74,76.51-11.59,94.69,13.94,0,0,14,5.74,17.83,34.09,2,14.81-5.47,43.86-13.94,45.8,0,0-12.88-4.46-17.69-20.85,0,0-6.06-13,.89-30.35"/></g></g></g></g></g></svg>