<svg xmlns="http://www.w3.org/2000/svg" viewBox="0 0 20.92 19.14"><defs><style>.cls-1{fill:#005da4;}</style></defs><title>Asset 21</title><g id="Layer_2" data-name="Layer 2"><g id="Capa_1" data-name="Capa 1"><path class="cls-1" d="M13.15,19.11v-.89c0-1.2,0-2.41,0-3.62,0-.2-.06-.26-.27-.26H8c-.21,0-.27.07-.27.27,0,1.43,0,2.86,0,4.28,0,.14,0,.25-.19.25a8.2,8.2,0,0,1-3.17-.6,2.2,2.2,0,0,1-1.42-1.47,2,2,0,0,1-.07-.55c0-1.58,0-3.15,0-4.73A.5.5,0,0,1,3,11.48l7-7,.2-.19c.55.51,1.08,1,1.62,1.54l5.88,5.57a.67.67,0,0,1,.24.55c0,1.64,0,3.28,0,4.91a1.75,1.75,0,0,1-.91,1.5,4.24,4.24,0,0,1-1.88.63c-.61.08-1.22.09-1.83.12Z"/><path class="cls-1" d="M1,11.17A1.91,1.91,0,0,1,.12,8.9,2.5,2.5,0,0,1,.7,8Q4.57,4.33,8.45.68A2.45,2.45,0,0,1,11.57.45a7.83,7.83,0,0,1,1.13.94l7.47,7a6,6,0,0,1,.42.46,1.2,1.2,0,0,1,0,1.61,2.68,2.68,0,0,1-.94.76l-9.54-9Z"/></g></g></svg>