<svg xmlns="http://www.w3.org/2000/svg" viewBox="0 0 27.76 27.61"><defs><style>.cls-1{fill:#005da4;}</style></defs><title>Asset 62</title><g id="Layer_2" data-name="Layer 2"><g id="Capa_1" data-name="Capa 1"><path class="cls-1" d="M7.45,27.61H.26a.91.91,0,0,1-.13-.16.7.7,0,0,1-.12-.3c0-1.43,0-2.87,0-4.3a3.83,3.83,0,0,1,7.58-.63,7.26,7.26,0,0,1,.08,1.32c0,1.17,0,2.33,0,3.5a.51.51,0,0,1-.19.47S7.47,27.58,7.45,27.61Z"/><path class="cls-1" d="M24.73,13.9H20.47a.43.43,0,0,1-.38-.35,1.34,1.34,0,0,1,0-.2c0-1.42,0-2.84,0-4.26a3.83,3.83,0,0,1,7.09-1.83,3.6,3.6,0,0,1,.57,1.94c0,1.4,0,2.81,0,4.21a.74.74,0,0,1-.24.48s-.08,0-.13,0H24.73Z"/><path class="cls-1" d="M13.7,1.78,13.76,0l4,2.48L13.61,4.72,13.66,3l-.77.11A9.81,9.81,0,0,0,9.44,4.34a8.42,8.42,0,0,0-2.28,2A10.47,10.47,0,0,0,5.1,10.84L5,11.2a.59.59,0,0,1-.63.51.56.56,0,0,1-.53-.62,8.18,8.18,0,0,1,.2-1.1A11.33,11.33,0,0,1,6.54,5.24a9.93,9.93,0,0,1,4.22-2.82,12,12,0,0,1,2.77-.62Z"/><path class="cls-1" d="M15,25.71l0,1.78-4-2.49L15,22.77l0,1.74c.26,0,.51-.06.76-.11A9.74,9.74,0,0,0,19.4,23a8.92,8.92,0,0,0,2.85-3,10.83,10.83,0,0,0,1.3-3.39c0-.13,0-.26.07-.4a.59.59,0,0,1,.64-.49.58.58,0,0,1,.52.67,11.33,11.33,0,0,1-1.64,4.42,10.23,10.23,0,0,1-2,2.32,10.47,10.47,0,0,1-1.79,1.22,11.4,11.4,0,0,1-3.86,1.23Z"/><path class="cls-1" d="M21.73,2.47a2.19,2.19,0,1,1,2.21,2.19A2.17,2.17,0,0,1,21.73,2.47Z"/><path class="cls-1" d="M3.86,18.37A2.18,2.18,0,0,1,3.77,14a2.18,2.18,0,1,1,.09,4.36Z"/><path class="cls-1" d="M13.52,8.76a5.1,5.1,0,1,0,5.05,5.1A5.1,5.1,0,0,0,13.52,8.76Zm-.46,6.8a1.36,1.36,0,0,1-1,.37,1.48,1.48,0,0,1-.84-.24,1.93,1.93,0,0,1-.61-.74l.72-.44q.33.6.75.6a.52.52,0,0,0,.37-.13.36.36,0,0,0,.15-.29.47.47,0,0,0-.11-.31,3.46,3.46,0,0,0-.5-.47A4.87,4.87,0,0,1,11,13a1.18,1.18,0,0,1-.22-.65,1.05,1.05,0,0,1,.36-.8,1.25,1.25,0,0,1,.88-.33,1.47,1.47,0,0,1,.65.15,2.65,2.65,0,0,1,.66.57l-.64.56a.89.89,0,0,0-.68-.46.45.45,0,0,0-.28.09.25.25,0,0,0-.1.2.31.31,0,0,0,.07.21,5.25,5.25,0,0,0,.63.58l.6.52a2.13,2.13,0,0,1,.37.5,1.32,1.32,0,0,1,.11.53A1.18,1.18,0,0,1,13.06,15.56Zm1.42,1.06h-.6l2-5.44h.6Z"/></g></g></svg>