<svg xmlns="http://www.w3.org/2000/svg" viewBox="0 0 27.25 18.51"><defs><style>.cls-1{fill:#005da4;}</style></defs><title>Asset 52</title><g id="Layer_2" data-name="Layer 2"><g id="Capa_1" data-name="Capa 1"><path class="cls-1" d="M16.24,11.58l1.5,1.3c.59.53.8,1.15.23,1.79s-1.29.45-1.88-.1-1-1-1.52-1.45l-.22.22c.47.46,1,.91,1.4,1.38.67.69.74,1.39.15,1.88a1.21,1.21,0,0,1-1.82-.2,6.43,6.43,0,0,1-.92-1,1.91,1.91,0,0,0-2-.95,1.82,1.82,0,0,0-2-1.76c-.3-1.53-.83-1.94-2.27-1.75,0-.84-.36-1.6-1.21-1.64a3.12,3.12,0,0,0-1.76.73,8.92,8.92,0,0,0-1.28,1.42L0,10,1.21,7.29c.69-1.49,1.38-3,2.08-4.51,1.83.77,3.51.09,5.22-.34.72-.18,1.48-.24,2.21-.35l0,.3C9.22,3.13,7.68,3.88,6.12,4.6c-.66.31-1.11.72-.93,1.5a1.27,1.27,0,0,0,1.51,1A16.65,16.65,0,0,0,10,6.46,4.45,4.45,0,0,1,14.56,7c1.79,1.44,3.61,2.84,5.41,4.27a1.19,1.19,0,0,1,.26,1.87c-.64.72-1.31.36-1.89-.17s-1.18-1.15-1.77-1.72Z"/><path class="cls-1" d="M20,3l3.14,6.84c-2.34,1.61-2.28,1.54-4.35-.17-1.61-1.32-3.37-2.46-5.09-3.65-1-.7-2.11-.37-3.18-.1s-2.26.53-3.39.75a1.41,1.41,0,0,1-.91-.1,1.19,1.19,0,0,1-.59-.72A1,1,0,0,1,6,5.1c2.25-1,4.51-2,6.8-2.89a2.45,2.45,0,0,1,1.3.09c1.11.22,2.2.55,3.31.72A19.06,19.06,0,0,0,20,3Z"/><path class="cls-1" d="M27.25,9l-3.44,1.53-4.15-9L23.09,0Z"/><path class="cls-1" d="M7.74,17.1A1.07,1.07,0,0,1,7,16.59a1.35,1.35,0,0,1,0-1.37,7.69,7.69,0,0,1,1.8-1.8,1.2,1.2,0,0,1,1.68.37,1.13,1.13,0,0,1-.27,1.32c-.45.46-.92.92-1.35,1.4a1.5,1.5,0,0,1-1,.59Z"/><path class="cls-1" d="M8.71,12.36a.67.67,0,0,1,0,.2,1.28,1.28,0,0,1-.3.59A10.94,10.94,0,0,1,6.63,15,1,1,0,0,1,5,14.81a1.8,1.8,0,0,1,.08-1.55A6.2,6.2,0,0,1,6.74,11.6,1.6,1.6,0,0,1,8,11.45,1.19,1.19,0,0,1,8.71,12.36Z"/><path class="cls-1" d="M11.89,14.89a.86.86,0,0,1,.53.26,1.23,1.23,0,0,1,.31,1,3.11,3.11,0,0,1-2.11,2.22,1.21,1.21,0,0,1-.87-.14c-.89-.55-.48-1.51.08-2.14C10.25,15.61,11.15,14.81,11.89,14.89Z"/><path class="cls-1" d="M11.89,18.1l1.48-1.87c.61.47,1,1.07.42,1.81S12.62,18.6,11.89,18.1Z"/></g></g></svg>