<svg xmlns="http://www.w3.org/2000/svg" viewBox="0 0 19.64 19.82"><defs><style>.cls-1{fill:#005da4;}</style></defs><title>Asset 72</title><g id="Layer_2" data-name="Layer 2"><g id="Capa_1" data-name="Capa 1"><path class="cls-1" d="M15.91,18c-.41-.33-.84-.65-1.26-1a.27.27,0,0,0-.4,0,7.25,7.25,0,0,1-2.46,1c-.09,0-.13.07-.14.15,0,.42-.09.83-.14,1.25l-.06.49H8.81c0-.26-.07-.51-.1-.76s-.07-.65-.11-1a.25.25,0,0,0-.11-.15A7.87,7.87,0,0,1,5.8,16.81L4.35,18,2.47,16.08l1.14-1.46a7.71,7.71,0,0,1-1-2.14A4.7,4.7,0,0,1,2.5,12c0-.09-.06-.13-.17-.14L.6,11.62V9.12C.6,9,.63,9,.74,9l1.68-.2L3,6.9l2.1,1.61c-.08.42-.18.81-.23,1.21a4.75,4.75,0,0,0,.28,2.39,5.08,5.08,0,0,0,3.89,3.33,5,5,0,0,0,4.5-1.18A5,5,0,0,0,15.33,11a5.26,5.26,0,0,0-5.78-6c-.32,0-.64.13-1,.19a.19.19,0,0,1-.15,0L6.66,3.29a8.08,8.08,0,0,1,1.92-.66L8.8.77h2.65l.23,1.87a7.71,7.71,0,0,1,2.69,1.09c.08.06.12,0,.18,0l1.36-1.06,1.87,1.89-1,1.3a.22.22,0,0,0,0,.29,7.55,7.55,0,0,1,1,2.49.74.74,0,0,0,0,.14L19.64,9v2.65l-1.84.22a8.1,8.1,0,0,1-1.16,2.78l1.15,1.46Z"/><path class="cls-1" d="M11,14a2.92,2.92,0,0,1-1.19-.09,3.12,3.12,0,0,1-2.28-2.43,2.92,2.92,0,0,1,.16-1.82.17.17,0,0,0,0-.23L5.13,7,.83,2.92C.66,2.76.48,2.6.32,2.43a1.1,1.1,0,0,1,0-1.5A8.47,8.47,0,0,1,.94.26a1.1,1.1,0,0,1,1.48,0c.4.4.79.82,1.18,1.22L5.66,3.68,9.52,7.73a.17.17,0,0,0,.21,0,3.18,3.18,0,0,1,3.77,4.41l-.28-.38L11.94,10a.83.83,0,0,0-1.24-.19c-.36.26-.73.51-1.09.78a.83.83,0,0,0-.2,1.18l1.46,2ZM1.07,1.76a.7.7,0,0,0,.71.72.7.7,0,0,0,.7-.7.73.73,0,0,0-.71-.72A.72.72,0,0,0,1.07,1.76Z"/></g></g></svg>