<svg xmlns="http://www.w3.org/2000/svg" viewBox="0 0 26.79 24.73"><defs><style>.cls-1{fill:#005da4;}</style></defs><title>Asset 102</title><g id="Layer_2" data-name="Layer 2"><g id="Capa_1" data-name="Capa 1"><path class="cls-1" d="M26.61,20.53c-1.15-1.11-2.3-2.22-3.46-3.31a.46.46,0,0,0-.46-.08.75.75,0,0,0-.22.48c0,.28,0,.58,0,.87,0,.08-.08.21-.12.21-.46,0-.93,0-1.45,0a1.07,1.07,0,0,0-.27-1.4c-.24-.26-.46-.54-.69-.82s-.37-.43-.17-1a1.29,1.29,0,0,0,.08-.26c.05-.24.16-.33.37-.32.5,0,1,0,1.49,0s.75-.3.75-.88c0-.12,0-.25,0-.37h0v-3h0c0-.57-.25-.87-.73-.87H20.47c-.52,0-.52,0-.71-.55a1.23,1.23,0,0,0-.09-.23.44.44,0,0,1,.1-.61c.35-.4.69-.81,1-1.22a.87.87,0,0,0,0-1.21l-2-2.4a.59.59,0,0,0-1,0c-.37.42-.72.87-1.1,1.28a.62.62,0,0,1-.41.2c-1,0-2,0-3,0H4.1c-.44,0-.55.14-.56.68,0,.12,0,.24,0,.44L1,3.85,3.47,1.51l.07,0v.58c0,.3.15.46.4.48H16.52A5.79,5.79,0,0,1,20.28,4a8.19,8.19,0,0,1,2.91,6c0,.35.19.55.43.53s.38-.25.36-.58a9,9,0,0,0-.1-.91c-.55-3.87-3.22-6.92-6.72-7.28h0c-.17,0-2.72,0-4.83,0h-8v-1A.59.59,0,0,0,4.11.05c-.21-.13-.38,0-.55.16L.25,3.39a.55.55,0,0,0,0,.92L3.58,7.5c.16.15.31.25.51.15a.55.55,0,0,0,.24-.57v-1h1.6a1.07,1.07,0,0,0,.25,1.35c.32.35.62.74.94,1.1A.35.35,0,0,1,7.2,9,4.41,4.41,0,0,0,7,9.6a.27.27,0,0,1-.31.24H5.13c-.47,0-.71.26-.74.79h0V11a.48.48,0,0,0,0,.17v2.86c0,.6.25.88.76.88H6.3c.57,0,.57,0,.79.61a1.18,1.18,0,0,0,.07.2.39.39,0,0,1-.07.53Q6.54,16.9,6,17.56a.86.86,0,0,0,0,1.19c.67.81,1.34,1.6,2,2.39.34.4.67.39,1,0s.7-.85,1.07-1.25a.61.61,0,0,1,.41-.21l7.55,0h4.66c.36,0,.49-.15.5-.58v-.55l2.51,2.4-2.51,2.4v-.56c0-.46-.13-.6-.51-.61H10.3a5.2,5.2,0,0,1-2.09-.38C5.48,20.6,3.94,18.29,3.6,14.86a1.4,1.4,0,0,0-.17-.47s-.13,0-.2,0-.23,0-.26,0a1,1,0,0,0-.15.46,13.77,13.77,0,0,0,.27,1.82,8.29,8.29,0,0,0,4.47,5.8,6.68,6.68,0,0,0,2.9.6h12v1.12c0,.23.05.45.24.5a.51.51,0,0,0,.46-.1c1.15-1.08,2.29-2.18,3.44-3.28A.52.52,0,0,0,26.61,20.53ZM6.12,14.59s0-.09,0-.18h0C6.15,14.5,6.15,14.55,6.12,14.59Zm7.62,2A4.21,4.21,0,1,1,18,12.4,4.23,4.23,0,0,1,13.74,16.59Z"/></g></g></svg>