<svg xmlns="http://www.w3.org/2000/svg" viewBox="0 0 18.53 22.1"><defs><style>.cls-1{fill:#005da4;}</style></defs><title>Asset 82</title><g id="Layer_2" data-name="Layer 2"><g id="Capa_1" data-name="Capa 1"><path class="cls-1" d="M17.47,7.8c.29,4.1.18,8-2.88,11A20.35,20.35,0,0,1,11,21.46a4.33,4.33,0,0,1-4.55,0A11.08,11.08,0,0,1,0,11.44C0,9.12,0,6.79,0,4.46c0-.51,0-1,.72-.94A9.87,9.87,0,0,0,8.54.08C8.6,0,8.69,0,8.6,0l5.09,3.38a10.23,10.23,0,0,0-.63.88.73.73,0,0,1-1.12.31c-.85-.49-1.73-.94-2.55-1.49a.83.83,0,0,0-1.17,0A12.07,12.07,0,0,1,2.75,5.44c-.27,0-.69.36-.69.54a53.46,53.46,0,0,0,.32,7.61c.55,3.26,2.84,5.25,5.87,6.37a2.2,2.2,0,0,0,1.29-.06A8.84,8.84,0,0,0,15.48,12,5.43,5.43,0,0,1,17.47,7.8Z"/><path class="cls-1" d="M9.52,10.72c1.9-2.44,3.72-4.78,5.55-7.11,1.39-1.77,1-1.72,2.89-.36.66.47.77.87.24,1.55-2.55,3.23-5.06,6.49-7.56,9.75-.49.65-.89.66-1.47.14C7.6,13.28,6,11.9,4.42,10.53,3.83,10,3.78,9.62,4.35,9,5.84,7.5,5.81,7.48,7.4,8.88Z"/></g></g></svg>