<svg xmlns="http://www.w3.org/2000/svg" viewBox="0 0 136.65 133.52"><defs><style>.cls-1{fill:#fff;}</style></defs><title>Asset 22</title><g id="Layer_2" data-name="Layer 2"><g id="Capa_1" data-name="Capa 1"><path class="cls-1" d="M136.65,46.51a12.33,12.33,0,0,1-3.58,5.19q-9.88,9.82-19.72,19.71c-1.93,1.94-4.15,3.09-6.95,2.42a6.7,6.7,0,0,1-3.56-11c2-2.45,4.48-4.58,6.73-6.85L113,52.51H76c-3.18,0-5.66-1.13-7-4.1a7.21,7.21,0,0,1,3.15-9.7,7.29,7.29,0,0,1,3.52-.78H113c-.43-.48-.68-.8-1-1.09-2.81-2.79-5.64-5.56-8.43-8.36a7,7,0,0,1-2-7.45c1.33-4.24,6.71-5.75,10.42-3a15.24,15.24,0,0,1,1.58,1.42q9.66,9.77,19.36,19.41a13.29,13.29,0,0,1,3.72,5.25Z"/><path class="cls-1" d="M26.46,13.68l23.47,12c1.69.87,3.38,1.76,5.09,2.61a7.34,7.34,0,0,1,4.31,7.19q-.06,27,0,53.9v1.84c.58,0,1,.07,1.44.07H78.12c3,0,4.28-1.23,4.28-4.28V61.56H95.75V96.88c0,5.08-2.66,7.76-7.71,7.76H59.22v24.65c0,3.79-2.36,5.24-5.71,3.51L4.3,107.33A7.36,7.36,0,0,1,0,100.22V7.36C0,2.72,2.72,0,7.39,0h81c4.48,0,7.28,2.6,7.33,7,.07,7.38,0,14.76,0,22.14a3.12,3.12,0,0,1-.08.52H82.39V17.46c0-2.89-1.23-4.08-4-4.08H26.52Z"/></g></g></svg>