<svg xmlns="http://www.w3.org/2000/svg" viewBox="0 0 322.08 132.4"><defs><style>.cls-1{fill:#00b1de;}.cls-2{fill:#fff;}.cls-3{fill:#005da4;}</style></defs><title>Asset 21</title><g id="Layer_2" data-name="Layer 2"><g id="Capa_1" data-name="Capa 1"><path class="cls-1" d="M0,45.63A45.64,45.64,0,1,1,45.64,91.27,45.64,45.64,0,0,1,0,45.63"/><path class="cls-2" d="M41.93,65.6c.36-6.21.45-14.83.45-19.93s-.09-14-.46-20.16c-8.65,1.87-15.16,10.14-15.16,20.05s6.52,18.17,15.17,20m7.55,2.29c.16,2.16.36,3.59.78,4.27,1.14,1.8,4.44,1.58,4.44,1.58v.82c-4.07.19-5.38-.46-9.07-.37-3.7-.09-5,.56-9.07.37v-.82s3.3.22,4.44-1.58c.42-.68.62-2.11.78-4.27-12.57-1.62-22.21-11-22.21-22.39S29.2,24.73,41.76,23.1a10.68,10.68,0,0,0-.76-4c-1.14-1.8-4.44-1.58-4.44-1.58v-.82c4.07-.19,5.37.46,9.07.37,3.69.09,5-.56,9.07-.37v.82s-3.3-.22-4.44,1.58a10.48,10.48,0,0,0-.76,4c12.57,1.62,22.2,11,22.2,22.4S62.05,66.28,49.48,67.89m-.6-22.22c0,5.1.09,13.73.45,19.93,8.66-1.86,15.18-10.13,15.18-20S58,27.37,49.34,25.51c-.37,6.21-.46,15-.46,20.16"/><path class="cls-1" d="M123.88,66.6a8.66,8.66,0,0,0-5-1.35,12.38,12.38,0,0,0-2.44.23,6.61,6.61,0,0,0-2.12.79,4.2,4.2,0,0,0-1.49,1.47,4.4,4.4,0,0,0-.55,2.3,2.82,2.82,0,0,0,.8,2.1,6.14,6.14,0,0,0,2.14,1.32,18.74,18.74,0,0,0,3,.84c1.13.22,2.27.47,3.44.73s2.32.57,3.44.92a11.83,11.83,0,0,1,3,1.43,7.05,7.05,0,0,1,2.14,2.28,7.61,7.61,0,0,1-.25,7.29,8.57,8.57,0,0,1-2.69,2.6,12.06,12.06,0,0,1-3.7,1.45,18.78,18.78,0,0,1-4.06.45,17.76,17.76,0,0,1-4.68-.59,11.72,11.72,0,0,1-3.88-1.79A8.4,8.4,0,0,1,108.41,86a9.42,9.42,0,0,1-1-4.42h3.72a6,6,0,0,0,.71,3,6.43,6.43,0,0,0,1.9,2.11A8.1,8.1,0,0,0,116.52,88a12.74,12.74,0,0,0,3.22.39,15,15,0,0,0,2.65-.23,8.21,8.21,0,0,0,2.42-.81,4.61,4.61,0,0,0,1.73-1.55,4.4,4.4,0,0,0,.66-2.51,3.42,3.42,0,0,0-.81-2.36,5.89,5.89,0,0,0-2.14-1.47,15.9,15.9,0,0,0-3-.92l-3.45-.73c-1.17-.25-2.31-.54-3.44-.86a13.32,13.32,0,0,1-3-1.3,6.45,6.45,0,0,1-2.14-2.08,5.89,5.89,0,0,1-.8-3.2,7.12,7.12,0,0,1,.91-3.68,7.63,7.63,0,0,1,2.41-2.55,11.15,11.15,0,0,1,3.42-1.5,17,17,0,0,1,8.15,0,9.54,9.54,0,0,1,3.4,1.6A7.8,7.8,0,0,1,129,67a9.3,9.3,0,0,1,.93,4h-3.71a5.81,5.81,0,0,0-2.29-4.38"/><path class="cls-1" d="M150.38,89.52a10,10,0,0,1-6,1.74,11.51,11.51,0,0,1-4.44-.79,8.81,8.81,0,0,1-3.15-2.2,9.29,9.29,0,0,1-1.92-3.38,15.21,15.21,0,0,1-.72-4.28,11.64,11.64,0,0,1,.74-4.25A10.3,10.3,0,0,1,137,73a9.52,9.52,0,0,1,3.18-2.19,10,10,0,0,1,4-.79,8.7,8.7,0,0,1,7.74,4,11.07,11.07,0,0,1,1.56,3.77,15.58,15.58,0,0,1,.36,3.89h-16a7.78,7.78,0,0,0,.33,2.53,5.64,5.64,0,0,0,1.2,2.12,5.9,5.9,0,0,0,2.1,1.48,7.71,7.71,0,0,0,3,.54,6.24,6.24,0,0,0,3.65-1,4.67,4.67,0,0,0,1.88-3h3.46a8,8,0,0,1-3.09,5.14m-.84-13a6,6,0,0,0-1.28-1.83,6.11,6.11,0,0,0-1.9-1.21,6.79,6.79,0,0,0-4.86,0,5.7,5.7,0,0,0-1.89,1.24,5.85,5.85,0,0,0-1.23,1.82,6.69,6.69,0,0,0-.54,2.22h12.25a6.64,6.64,0,0,0-.55-2.24"/><path class="cls-1" d="M173.44,96.56c-1.59,1.64-4.1,2.47-7.51,2.47a15.13,15.13,0,0,1-3-.31,9.52,9.52,0,0,1-2.8-1A6.43,6.43,0,0,1,158,95.85a5.12,5.12,0,0,1-.91-2.79h3.51a2.43,2.43,0,0,0,.6,1.53,4.41,4.41,0,0,0,1.36,1,6.64,6.64,0,0,0,1.75.56,9.84,9.84,0,0,0,1.82.18,6.8,6.8,0,0,0,2.93-.57,5.46,5.46,0,0,0,2-1.57,6.3,6.3,0,0,0,1.13-2.42,13,13,0,0,0,.35-3.1V87.36h-.08a5.68,5.68,0,0,1-2.74,2.77,8.88,8.88,0,0,1-3.9.89,9.85,9.85,0,0,1-4.17-.83,8.71,8.71,0,0,1-3-2.22,9.14,9.14,0,0,1-1.79-3.26,12.74,12.74,0,0,1-.6-3.94,15.22,15.22,0,0,1,.49-3.72,10.15,10.15,0,0,1,1.65-3.46A9.12,9.12,0,0,1,161.47,71a9.92,9.92,0,0,1,4.67-1,8.19,8.19,0,0,1,3.71.84,6.1,6.1,0,0,1,2.64,2.54h0V70.51h3.31V89.09q0,5-2.4,7.47M169,87.42a5.39,5.39,0,0,0,1.95-1.81,7.93,7.93,0,0,0,1.1-2.53,11.85,11.85,0,0,0,.35-2.83,10.65,10.65,0,0,0-.33-2.63,7.15,7.15,0,0,0-1-2.33,5.35,5.35,0,0,0-1.88-1.68A5.89,5.89,0,0,0,166.3,73a6.38,6.38,0,0,0-2.88.6,5.64,5.64,0,0,0-2,1.64,6.8,6.8,0,0,0-1.11,2.35,11.11,11.11,0,0,0-.35,2.79,13.52,13.52,0,0,0,.29,2.75,7.39,7.39,0,0,0,1,2.49,5.2,5.2,0,0,0,1.86,1.81,5.55,5.55,0,0,0,2.89.69,5.93,5.93,0,0,0,2.95-.69"/><path class="cls-1" d="M195.47,90.82V87.6h-.08a7.07,7.07,0,0,1-2.85,2.77,8.86,8.86,0,0,1-4.08.89,9.81,9.81,0,0,1-3.51-.54,5.49,5.49,0,0,1-2.27-1.51,5.58,5.58,0,0,1-1.22-2.34,12.11,12.11,0,0,1-.35-3V70.51h3.51V84.26a3.89,3.89,0,0,0,1.15,3,4.39,4.39,0,0,0,3.18,1.1,7.53,7.53,0,0,0,2.78-.46,5.19,5.19,0,0,0,2-1.34,5.61,5.61,0,0,0,1.18-2,8,8,0,0,0,.39-2.54V70.51h3.51V90.82Z"/><path class="cls-1" d="M207.23,70.51v4.28h.08a9.06,9.06,0,0,1,3.13-3.65,8.18,8.18,0,0,1,4.7-1.1v3.54a10.6,10.6,0,0,0-3.59.54,5.77,5.77,0,0,0-2.39,1.62,6.67,6.67,0,0,0-1.32,2.57,13.51,13.51,0,0,0-.41,3.48v9h-3.51V70.51Z"/><path class="cls-1" d="M216.55,76.5a9.31,9.31,0,0,1,2-3.37,9.41,9.41,0,0,1,3.26-2.27,12.59,12.59,0,0,1,8.94,0,9.32,9.32,0,0,1,5.22,5.64,13,13,0,0,1,.66,4.19,12.73,12.73,0,0,1-.66,4.16,9.19,9.19,0,0,1-5.22,5.6,12.74,12.74,0,0,1-8.94,0,9,9,0,0,1-5.23-5.6,12.73,12.73,0,0,1-.66-4.16,13,13,0,0,1,.66-4.19M220.12,84a6.8,6.8,0,0,0,1.42,2.4,6.1,6.1,0,0,0,2.12,1.46,6.78,6.78,0,0,0,5.16,0,6.1,6.1,0,0,0,2.12-1.46,6.8,6.8,0,0,0,1.42-2.4,10.64,10.64,0,0,0,0-6.57A6.93,6.93,0,0,0,230.94,75a5.92,5.92,0,0,0-2.12-1.49,6.78,6.78,0,0,0-5.16,0A5.92,5.92,0,0,0,221.54,75a6.93,6.93,0,0,0-1.42,2.41,10.64,10.64,0,0,0,0,6.57"/><path class="cls-1" d="M243.4,86.28a3.62,3.62,0,0,0,1.3,1.22,6,6,0,0,0,1.82.65,10.87,10.87,0,0,0,2.08.2,13.14,13.14,0,0,0,1.73-.12A6.71,6.71,0,0,0,252,87.8a3.1,3.1,0,0,0,1.26-.93,2.36,2.36,0,0,0,.5-1.55,2.2,2.2,0,0,0-1-2,8.91,8.91,0,0,0-2.58-1.08c-1-.28-2.16-.53-3.37-.75a18.32,18.32,0,0,1-3.36-.94,7.11,7.11,0,0,1-2.58-1.71,4.35,4.35,0,0,1-1-3.07,4.69,4.69,0,0,1,.72-2.63,5.79,5.79,0,0,1,1.86-1.79,9,9,0,0,1,2.55-1,12.57,12.57,0,0,1,2.84-.33,18.3,18.3,0,0,1,3.34.29,7.89,7.89,0,0,1,2.69,1,5.28,5.28,0,0,1,1.88,2,7.08,7.08,0,0,1,.83,3.08H253a3.19,3.19,0,0,0-.54-1.63,3.38,3.38,0,0,0-1.15-1,5.51,5.51,0,0,0-1.55-.57,8.85,8.85,0,0,0-1.71-.17,10.81,10.81,0,0,0-1.59.11,5.51,5.51,0,0,0-1.46.42,2.78,2.78,0,0,0-1.07.78,1.92,1.92,0,0,0-.42,1.28,1.85,1.85,0,0,0,.64,1.43,5.43,5.43,0,0,0,1.63.95,16.18,16.18,0,0,0,2.23.62c.83.18,1.65.35,2.47.54s1.74.4,2.58.66a8.2,8.2,0,0,1,2.23,1,5,5,0,0,1,1.57,1.63,4.56,4.56,0,0,1,.6,2.43,5.4,5.4,0,0,1-.81,3.06,6.19,6.19,0,0,1-2.1,2,9.44,9.44,0,0,1-2.93,1,18.78,18.78,0,0,1-3.24.3A15.43,15.43,0,0,1,245,90.9a8.42,8.42,0,0,1-2.85-1.16,6,6,0,0,1-2-2.12,7.1,7.1,0,0,1-.82-3.2h3.5a3.61,3.61,0,0,0,.54,1.86"/><path class="cls-3" d="M137.58,15.11a11.63,11.63,0,0,0-2.5-2.88,11.48,11.48,0,0,0-7.32-2.62,12.83,12.83,0,0,0-6.4,1.49,12.16,12.16,0,0,0-4.27,4,17.58,17.58,0,0,0-2.38,5.71,29,29,0,0,0-.75,6.63,27,27,0,0,0,.75,6.37,17.28,17.28,0,0,0,2.38,5.57,12.24,12.24,0,0,0,4.27,4,12.73,12.73,0,0,0,6.4,1.49,10.23,10.23,0,0,0,8-3.2,15,15,0,0,0,3.53-8.45h10.8a27,27,0,0,1-2.2,8.81,21,21,0,0,1-4.7,6.7,19.8,19.8,0,0,1-6.82,4.23,24.54,24.54,0,0,1-8.61,1.45,25.38,25.38,0,0,1-10.49-2.08,22.33,22.33,0,0,1-7.86-5.71,25.44,25.44,0,0,1-4.91-8.55,32.06,32.06,0,0,1-1.71-10.6,33.11,33.11,0,0,1,1.71-10.81,26,26,0,0,1,4.91-8.7,22.39,22.39,0,0,1,7.86-5.83,26.63,26.63,0,0,1,18.42-.87,21.22,21.22,0,0,1,6.68,3.6,19.38,19.38,0,0,1,4.88,5.86,21.47,21.47,0,0,1,2.42,8H138.86a9.69,9.69,0,0,0-1.28-3.6"/><path class="cls-3" d="M164.82,15.58v7H165a13,13,0,0,1,4.69-5.79A13.7,13.7,0,0,1,173,15.14a12,12,0,0,1,3.7-.58,7.8,7.8,0,0,1,2.2.36v9.62c-.47-.1-1-.18-1.71-.26a18.25,18.25,0,0,0-1.92-.11,10.54,10.54,0,0,0-4.69.95,8.08,8.08,0,0,0-3.09,2.59,10.45,10.45,0,0,0-1.68,3.82,21.32,21.32,0,0,0-.5,4.73v17H155.22V15.58Z"/><path class="cls-3" d="M191,44.2q2.28,2.25,6.55,2.25a8.89,8.89,0,0,0,5.26-1.56,6.45,6.45,0,0,0,2.7-3.31h8.9q-2.15,6.77-6.55,9.68a19,19,0,0,1-10.67,2.92,20.57,20.57,0,0,1-7.83-1.43,16.13,16.13,0,0,1-5.9-4,18.33,18.33,0,0,1-3.73-6.26,23.37,23.37,0,0,1-1.32-8,22.41,22.41,0,0,1,1.35-7.86,18.62,18.62,0,0,1,3.84-6.3,18.16,18.16,0,0,1,5.95-4.19,18.62,18.62,0,0,1,7.64-1.53,17.14,17.14,0,0,1,8.18,1.86,16.54,16.54,0,0,1,5.73,5,20.82,20.82,0,0,1,3.24,7.13,27.28,27.28,0,0,1,.7,8.37H188.5c.15,3.36,1,5.78,2.49,7.29m11.42-19.81c-1.21-1.36-3-2-5.51-2a8.56,8.56,0,0,0-4,.83,7.54,7.54,0,0,0-3.91,4.7,11.65,11.65,0,0,0-.47,2.47h16.43a12,12,0,0,0-2.52-6"/><path class="cls-3" d="M237.15,22.36a7,7,0,0,0-4.05,1.12,9,9,0,0,0-2.67,2.91A12.68,12.68,0,0,0,229,30.32a21.55,21.55,0,0,0-.43,4.27,20.6,20.6,0,0,0,.43,4.15,13,13,0,0,0,1.38,3.82A8.21,8.21,0,0,0,233,45.37a7.13,7.13,0,0,0,4,1.08,7.33,7.33,0,0,0,5.59-2.07A10,10,0,0,0,245,38.81h9.75q-1,7.5-5.7,11.43t-12,3.94a19.63,19.63,0,0,1-7.57-1.43,16.64,16.64,0,0,1-5.87-4,18.21,18.21,0,0,1-3.77-6.08A21.58,21.58,0,0,1,218.45,35a25.64,25.64,0,0,1,1.24-8.12,18.26,18.26,0,0,1,3.67-6.48,16.69,16.69,0,0,1,5.9-4.26,19.62,19.62,0,0,1,8-1.53,22.3,22.3,0,0,1,6.3.88,16.5,16.5,0,0,1,5.4,2.65,13.87,13.87,0,0,1,3.88,4.45,14.28,14.28,0,0,1,1.71,6.29h-9.89q-1-6.48-7.47-6.47"/><path class="cls-3" d="M269.8,44.2q2.28,2.25,6.55,2.25a8.89,8.89,0,0,0,5.26-1.56,6.45,6.45,0,0,0,2.7-3.31h8.9q-2.15,6.77-6.55,9.68A19,19,0,0,1,276,54.18a20.57,20.57,0,0,1-7.83-1.43,16.13,16.13,0,0,1-5.9-4,18.33,18.33,0,0,1-3.73-6.26,23.37,23.37,0,0,1-1.32-8,22.19,22.19,0,0,1,1.36-7.86,17.95,17.95,0,0,1,9.78-10.49A18.58,18.58,0,0,1,276,14.56a17.12,17.12,0,0,1,8.18,1.86,16.54,16.54,0,0,1,5.73,5,20.61,20.61,0,0,1,3.23,7.13,27,27,0,0,1,.71,8.37H267.31c.15,3.36,1,5.78,2.49,7.29m11.42-19.81c-1.21-1.36-3.05-2-5.51-2a8.56,8.56,0,0,0-4,.83,7.77,7.77,0,0,0-2.57,2.08,7.42,7.42,0,0,0-1.34,2.62,11.65,11.65,0,0,0-.47,2.47h16.44a12.14,12.14,0,0,0-2.53-6"/><path class="cls-3" d="M308,15.58v7h.15a12.71,12.71,0,0,1,1.92-3.24,12.89,12.89,0,0,1,2.77-2.55,13.7,13.7,0,0,1,3.35-1.64,12,12,0,0,1,3.7-.58,7.8,7.8,0,0,1,2.2.36v9.62c-.48-.1-1-.18-1.71-.26a18.25,18.25,0,0,0-1.92-.11,10.54,10.54,0,0,0-4.69.95,8.08,8.08,0,0,0-3.09,2.59A10.28,10.28,0,0,0,309,31.53a21.32,21.32,0,0,0-.5,4.73v17H298.4V15.58Z"/><polygon class="cls-3" points="117.52 127.95 117.52 115.76 112.1 125.19 111.25 125.19 105.81 115.76 105.81 127.95 104.37 127.95 104.37 113.1 105.85 113.1 111.67 123.26 117.48 113.1 118.96 113.1 118.96 127.95 117.52 127.95"/><path class="cls-3" d="M125.26,128.16a4.38,4.38,0,0,1-1.53-.26,3.62,3.62,0,0,1-1.18-.73,3.36,3.36,0,0,1-.77-1.06,3.12,3.12,0,0,1-.26-1.28,2.75,2.75,0,0,1,.33-1.37,3,3,0,0,1,.94-1,4.63,4.63,0,0,1,1.45-.68,6.91,6.91,0,0,1,1.88-.24,10.53,10.53,0,0,1,1.66.14,7.35,7.35,0,0,1,1.53.42v-1a3.12,3.12,0,0,0-.82-2.29,3,3,0,0,0-2.23-.85,4.94,4.94,0,0,0-1.75.34,7.86,7.86,0,0,0-1.76,1l-.51-.94a9.53,9.53,0,0,1,2.07-1.07,6.17,6.17,0,0,1,2.1-.35,4.28,4.28,0,0,1,3.15,1.15,4.24,4.24,0,0,1,1.17,3.17v4.92c0,.39.17.59.51.59V128l-.32,0h-.25a1.24,1.24,0,0,1-.76-.25,1,1,0,0,1-.39-.76l0-.85a4.68,4.68,0,0,1-1.87,1.49,5.55,5.55,0,0,1-2.35.54m.35-1.09a4.48,4.48,0,0,0,1.87-.41,3.66,3.66,0,0,0,1.48-1.12,1.84,1.84,0,0,0,.24-.41.78.78,0,0,0,.11-.4V123a9,9,0,0,0-1.48-.42,8.84,8.84,0,0,0-1.51-.14,4.45,4.45,0,0,0-2.48.62,1.91,1.91,0,0,0-1,1.7,2.3,2.3,0,0,0,.17.85,2.21,2.21,0,0,0,.51.76,2.81,2.81,0,0,0,.85.54,3.05,3.05,0,0,0,1.19.21m.86-12.09-.94-.35,1.23-1.95h1.51Z"/><path class="cls-3" d="M137.49,128.16a7.57,7.57,0,0,1-2.49-.42,6.08,6.08,0,0,1-2.09-1.21l.65-1a7,7,0,0,0,1.87,1.14,5.48,5.48,0,0,0,2,.37,3.73,3.73,0,0,0,2.1-.53,1.73,1.73,0,0,0,.78-1.52,1.31,1.31,0,0,0-.21-.76,1.92,1.92,0,0,0-.61-.54,5.41,5.41,0,0,0-1-.4c-.41-.12-.89-.24-1.43-.37s-1.17-.3-1.63-.46a5.08,5.08,0,0,1-1.14-.52,1.91,1.91,0,0,1-.67-.72,2.34,2.34,0,0,1-.22-1.08,3,3,0,0,1,1.2-2.48,3.81,3.81,0,0,1,1.3-.61,5.75,5.75,0,0,1,1.58-.21,6.17,6.17,0,0,1,2.28.4,4.73,4.73,0,0,1,1.65,1.08l-.69.84a3.79,3.79,0,0,0-1.48-.94,5.25,5.25,0,0,0-1.8-.32,4.32,4.32,0,0,0-1,.12,2.61,2.61,0,0,0-.85.37,1.81,1.81,0,0,0-.57.63,1.88,1.88,0,0,0-.21.91,1.44,1.44,0,0,0,.15.71,1.16,1.16,0,0,0,.48.48,4.76,4.76,0,0,0,.85.35c.33.1.75.21,1.24.32.7.17,1.31.34,1.84.5a5.61,5.61,0,0,1,1.32.59,2.24,2.24,0,0,1,.81.81,2.42,2.42,0,0,1,.27,1.18,2.82,2.82,0,0,1-1.15,2.38,5,5,0,0,1-3.09.88"/><path class="cls-3" d="M153,128.16a7.47,7.47,0,0,1-2.48-.42,6.22,6.22,0,0,1-2.1-1.21l.65-1A7.06,7.06,0,0,0,151,126.7a5.46,5.46,0,0,0,2,.37,3.71,3.71,0,0,0,2.1-.53,1.74,1.74,0,0,0,.79-1.52,1.31,1.31,0,0,0-.21-.76,1.86,1.86,0,0,0-.62-.54,5,5,0,0,0-1-.4c-.41-.12-.89-.24-1.43-.37s-1.17-.3-1.63-.46a5,5,0,0,1-1.15-.52,2,2,0,0,1-.67-.72,2.47,2.47,0,0,1-.22-1.08,3.15,3.15,0,0,1,.33-1.44,3.06,3.06,0,0,1,.88-1,3.76,3.76,0,0,1,1.29-.61,5.85,5.85,0,0,1,1.58-.21,6.13,6.13,0,0,1,2.28.4,4.64,4.64,0,0,1,1.65,1.08l-.69.84a3.76,3.76,0,0,0-1.47-.94,5.27,5.27,0,0,0-1.81-.32,4.3,4.3,0,0,0-1,.12,2.44,2.44,0,0,0-.85.37,1.84,1.84,0,0,0-.58.63,2,2,0,0,0-.2.91,1.45,1.45,0,0,0,.14.71,1.3,1.3,0,0,0,.48.48,5.48,5.48,0,0,0,.85.35c.34.1.76.21,1.24.32.7.17,1.31.34,1.84.5a5.7,5.7,0,0,1,1.33.59,2.24,2.24,0,0,1,.81.81,2.54,2.54,0,0,1,.27,1.18,2.82,2.82,0,0,1-1.15,2.38,5,5,0,0,1-3.1.88"/><path class="cls-3" d="M159.55,112.68H161v2.09h-1.42Zm0,4.37H161V128h-1.42Z"/><path class="cls-3" d="M180.23,128h-1.42v-6.09a5.15,5.15,0,0,0-.6-2.8,2,2,0,0,0-1.81-.9,3.1,3.1,0,0,0-1.18.23,3.64,3.64,0,0,0-1,.65,4.42,4.42,0,0,0-.82,1,5,5,0,0,0-.55,1.27V128H171.4v-6.09a5.25,5.25,0,0,0-.58-2.82,2,2,0,0,0-1.8-.88,3.23,3.23,0,0,0-2.2.86,4.81,4.81,0,0,0-1.38,2.26V128H164v-10.9h1.29v2.47a5.3,5.3,0,0,1,1.76-2,4.35,4.35,0,0,1,2.41-.7,3.13,3.13,0,0,1,2.22.77,3.28,3.28,0,0,1,1,2,4.66,4.66,0,0,1,4.22-2.8,3.33,3.33,0,0,1,1.54.33,2.59,2.59,0,0,1,1,1,4.54,4.54,0,0,1,.57,1.49,9.53,9.53,0,0,1,.18,1.93Z"/><path class="cls-3" d="M188.76,128.16a4.42,4.42,0,0,1-2.45-.7,5.55,5.55,0,0,1-1.71-1.77v6.71h-1.43V117.05h1.28v2.12a5.41,5.41,0,0,1,1.73-1.67,4.5,4.5,0,0,1,2.33-.63,4.57,4.57,0,0,1,2.08.47,5.3,5.3,0,0,1,1.64,1.25,5.88,5.88,0,0,1,1.08,1.81,6.14,6.14,0,0,1,.38,2.11,6.82,6.82,0,0,1-.35,2.18,5.69,5.69,0,0,1-1,1.8,4.93,4.93,0,0,1-1.57,1.22,4.41,4.41,0,0,1-2,.45m-.4-1.26a3.36,3.36,0,0,0,1.59-.37,4.06,4.06,0,0,0,1.22-1,4.36,4.36,0,0,0,.78-1.4,4.68,4.68,0,0,0,.28-1.62,4.51,4.51,0,0,0-.32-1.67,4.61,4.61,0,0,0-.85-1.4,4.25,4.25,0,0,0-1.29-1,3.78,3.78,0,0,0-1.6-.35,3.37,3.37,0,0,0-1.13.22,4.94,4.94,0,0,0-1.11.59,3.75,3.75,0,0,0-.88.85,2.22,2.22,0,0,0-.45,1v3.34a4.28,4.28,0,0,0,.64,1.09,4.22,4.22,0,0,0,.87.87,4.44,4.44,0,0,0,1.07.58,3.61,3.61,0,0,0,1.18.2"/><path class="cls-3" d="M196.09,112.68h1.42v12.8a1.31,1.31,0,0,0,.34,1,1.25,1.25,0,0,0,.94.35,3,3,0,0,0,.55-.06,4.41,4.41,0,0,0,.58-.17l.25,1.15a4.58,4.58,0,0,1-1,.27,5.51,5.51,0,0,1-1,.1,2.11,2.11,0,0,1-1.55-.55,2.08,2.08,0,0,1-.57-1.56Z"/><path class="cls-3" d="M206.32,128.16a5.26,5.26,0,0,1-2.19-.45,5.39,5.39,0,0,1-1.74-1.23,5.78,5.78,0,0,1-1.14-1.81,6,6,0,0,1-.41-2.2,5.73,5.73,0,0,1,.41-2.16,5.44,5.44,0,0,1,2.87-3,5.33,5.33,0,0,1,6.07,1.22,5.7,5.7,0,0,1,1.5,3.91c0,.11,0,.22,0,.34a.67.67,0,0,1,0,.23h-9.3a4.6,4.6,0,0,0,.4,1.62,4.69,4.69,0,0,0,.88,1.28,3.73,3.73,0,0,0,1.24.84,3.55,3.55,0,0,0,1.49.31,4.3,4.3,0,0,0,1.07-.14,4.52,4.52,0,0,0,1-.4,3.61,3.61,0,0,0,.78-.62,2.73,2.73,0,0,0,.54-.81l1.23.34a3.7,3.7,0,0,1-.71,1.1,5,5,0,0,1-1.07.86,5.27,5.27,0,0,1-1.33.56,5.91,5.91,0,0,1-1.51.2m4-6.23a4.77,4.77,0,0,0-.41-1.6,4.34,4.34,0,0,0-.88-1.24,3.53,3.53,0,0,0-1.25-.82,3.78,3.78,0,0,0-1.5-.29,3.87,3.87,0,0,0-1.51.29,3.68,3.68,0,0,0-1.24.82,3.87,3.87,0,0,0-.86,1.25,4.76,4.76,0,0,0-.39,1.59Z"/><path class="cls-3" d="M213.45,128.26a.63.63,0,0,0,.29-.08.39.39,0,0,0,.15-.36V125.9h1.21V128a1.09,1.09,0,0,1-.15.61,1.15,1.15,0,0,1-.38.41,1.65,1.65,0,0,1-.53.22,2.46,2.46,0,0,1-.59.08Z"/><path class="cls-3" d="M239.67,128h-1.42v-6.09a5.15,5.15,0,0,0-.6-2.8,2,2,0,0,0-1.81-.9,3.14,3.14,0,0,0-1.18.23,3.46,3.46,0,0,0-1,.65,4.45,4.45,0,0,0-.83,1,4.63,4.63,0,0,0-.54,1.27V128h-1.42v-6.09a5.24,5.24,0,0,0-.59-2.82,2,2,0,0,0-1.8-.88,3.21,3.21,0,0,0-2.19.86,4.66,4.66,0,0,0-1.38,2.26V128h-1.43v-10.9h1.3v2.47a5.13,5.13,0,0,1,1.76-2,4.29,4.29,0,0,1,2.4-.7,3.13,3.13,0,0,1,2.22.77,3.28,3.28,0,0,1,1,2,4.67,4.67,0,0,1,4.22-2.8,3.28,3.28,0,0,1,1.54.33,2.62,2.62,0,0,1,1,1,4.53,4.53,0,0,1,.56,1.49,9.53,9.53,0,0,1,.18,1.93Z"/><path class="cls-3" d="M245.5,128.16a4.29,4.29,0,0,1-1.52-.26,3.67,3.67,0,0,1-1.19-.73,3.49,3.49,0,0,1-.76-1.06,3.13,3.13,0,0,1-.27-1.28,2.86,2.86,0,0,1,.33-1.37,3.16,3.16,0,0,1,.95-1,4.63,4.63,0,0,1,1.45-.68,6.83,6.83,0,0,1,1.87-.24,10.75,10.75,0,0,1,1.67.14,7.71,7.71,0,0,1,1.53.42v-1a3.12,3.12,0,0,0-.83-2.29,3,3,0,0,0-2.22-.85,4.9,4.9,0,0,0-1.75.34,8.15,8.15,0,0,0-1.77,1l-.5-.94a9.31,9.31,0,0,1,2.07-1.07,6.16,6.16,0,0,1,2.09-.35,4.29,4.29,0,0,1,3.16,1.15,4.24,4.24,0,0,1,1.17,3.17v4.92c0,.39.17.59.5.59V128l-.31,0h-.25a1.24,1.24,0,0,1-.76-.25,1,1,0,0,1-.39-.76l0-.85a4.75,4.75,0,0,1-1.87,1.49,5.56,5.56,0,0,1-2.36.54m.36-1.09a4.52,4.52,0,0,0,1.87-.41,3.56,3.56,0,0,0,1.47-1.12,1.87,1.87,0,0,0,.25-.41.89.89,0,0,0,.11-.4V123a9.28,9.28,0,0,0-1.48-.42,8.84,8.84,0,0,0-1.51-.14,4.41,4.41,0,0,0-2.48.62,1.91,1.91,0,0,0-1,1.7,2.3,2.3,0,0,0,.17.85,2.21,2.21,0,0,0,.51.76,2.69,2.69,0,0,0,.85.54,3.05,3.05,0,0,0,1.19.21m.85-12.09-.93-.35,1.23-1.95h1.51Z"/><path class="cls-3" d="M257.73,128.16a7.51,7.51,0,0,1-2.48-.42,6.22,6.22,0,0,1-2.1-1.21l.65-1a7.17,7.17,0,0,0,1.87,1.14,5.55,5.55,0,0,0,2,.37,3.71,3.71,0,0,0,2.1-.53,1.72,1.72,0,0,0,.79-1.52,1.31,1.31,0,0,0-.21-.76,2,2,0,0,0-.62-.54,5,5,0,0,0-1-.4c-.41-.12-.89-.24-1.43-.37s-1.17-.3-1.63-.46a5,5,0,0,1-1.15-.52,2,2,0,0,1-.66-.72,2.34,2.34,0,0,1-.22-1.08,3.15,3.15,0,0,1,.32-1.44,3.06,3.06,0,0,1,.88-1,3.81,3.81,0,0,1,1.3-.61,5.73,5.73,0,0,1,1.57-.21,6.13,6.13,0,0,1,2.28.4,4.55,4.55,0,0,1,1.65,1.08l-.68.84a3.87,3.87,0,0,0-1.48-.94,5.27,5.27,0,0,0-1.81-.32,4.3,4.3,0,0,0-1,.12,2.52,2.52,0,0,0-.85.37,1.84,1.84,0,0,0-.58.63,2,2,0,0,0-.21.91,1.44,1.44,0,0,0,.15.71,1.3,1.3,0,0,0,.48.48,5.48,5.48,0,0,0,.85.35c.34.1.76.21,1.24.32.7.17,1.32.34,1.84.5a5.52,5.52,0,0,1,1.33.59,2.32,2.32,0,0,1,.81.81,2.42,2.42,0,0,1,.27,1.18,2.85,2.85,0,0,1-1.15,2.38,5,5,0,0,1-3.1.88"/><path class="cls-3" d="M268.9,122.47a5.81,5.81,0,0,1,.4-2.17,5.26,5.26,0,0,1,2.84-3,5.37,5.37,0,0,1,2.22-.44,5,5,0,0,1,2.69.7,4.47,4.47,0,0,1,1.74,1.89l-1.38.44a3.29,3.29,0,0,0-1.28-1.31,3.6,3.6,0,0,0-1.82-.47,3.55,3.55,0,0,0-1.55.34,3.91,3.91,0,0,0-1.26.91,4,4,0,0,0-.83,1.37,4.59,4.59,0,0,0-.31,1.73,4.8,4.8,0,0,0,.32,1.74,4.38,4.38,0,0,0,.86,1.41,4.16,4.16,0,0,0,1.26.94,3.5,3.5,0,0,0,1.54.34,3.34,3.34,0,0,0,1-.15,4.06,4.06,0,0,0,1-.4,3.73,3.73,0,0,0,.75-.6,2.05,2.05,0,0,0,.44-.71l1.37.42a3.41,3.41,0,0,1-.67,1.08,4.29,4.29,0,0,1-1,.85,4.88,4.88,0,0,1-1.32.57,5.7,5.7,0,0,1-1.49.2,5.23,5.23,0,0,1-2.19-.45,5.28,5.28,0,0,1-1.74-1.23,5.78,5.78,0,0,1-1.14-1.81,6,6,0,0,1-.41-2.2"/><path class="cls-3" d="M285.88,128.16a5.31,5.31,0,0,1-2.2-.45,5.5,5.5,0,0,1-1.74-1.23,5.94,5.94,0,0,1-1.13-1.81,5.78,5.78,0,0,1-.41-2.2,5.73,5.73,0,0,1,1.54-3.94,5.68,5.68,0,0,1,1.73-1.21,5.3,5.3,0,0,1,2.19-.45,5.22,5.22,0,0,1,2.18.45,5.14,5.14,0,0,1,1.71,1.22,5.7,5.7,0,0,1,1.5,3.91c0,.11,0,.22,0,.34s0,.18,0,.23h-9.3a4.39,4.39,0,0,0,.4,1.62,4.69,4.69,0,0,0,.88,1.28,3.73,3.73,0,0,0,1.24.84,3.55,3.55,0,0,0,1.49.31,4,4,0,0,0,2-.54,3.61,3.61,0,0,0,.78-.62,2.52,2.52,0,0,0,.53-.81l1.24.34a3.7,3.7,0,0,1-.71,1.1,5.31,5.31,0,0,1-1.07.86,5.19,5.19,0,0,1-1.34.56,5.77,5.77,0,0,1-1.5.2m4-6.23a4.34,4.34,0,0,0-.41-1.6,4.15,4.15,0,0,0-.88-1.24,3.49,3.49,0,0,0-1.24-.82,4.05,4.05,0,0,0-3,0,3.58,3.58,0,0,0-1.24.82,3.72,3.72,0,0,0-.86,1.25,5,5,0,0,0-.39,1.59Z"/><path class="cls-3" d="M298.82,118.31a4.5,4.5,0,0,0-2.51.79,4.13,4.13,0,0,0-1.51,2.07V128h-1.41v-10.9h1.33v2.62a5.67,5.67,0,0,1,1.49-1.91,3,3,0,0,1,2-.77h.36l.27,0Z"/><path class="cls-3" d="M300,122.47a5.8,5.8,0,0,1,.39-2.17,5.26,5.26,0,0,1,2.84-3,5.37,5.37,0,0,1,2.22-.44,5.08,5.08,0,0,1,2.7.7,4.51,4.51,0,0,1,1.73,1.89l-1.38.44a3.34,3.34,0,0,0-1.27-1.31,3.63,3.63,0,0,0-1.82-.47,3.56,3.56,0,0,0-1.56.34,3.76,3.76,0,0,0-1.25.91,4,4,0,0,0-.84,1.37,4.94,4.94,0,0,0,0,3.47,4.38,4.38,0,0,0,.86,1.41,4.16,4.16,0,0,0,1.26.94,3.53,3.53,0,0,0,1.54.34,3.29,3.29,0,0,0,1-.15,3.89,3.89,0,0,0,1-.4,3.47,3.47,0,0,0,.75-.6,1.91,1.91,0,0,0,.44-.71l1.38.42a3.6,3.6,0,0,1-.67,1.08,4.49,4.49,0,0,1-1,.85A4.88,4.88,0,0,1,307,128a5.83,5.83,0,0,1-1.5.2,5.26,5.26,0,0,1-2.19-.45,5.39,5.39,0,0,1-1.74-1.23,5.78,5.78,0,0,1-1.14-1.81,6,6,0,0,1-.4-2.2"/><path class="cls-3" d="M315.11,128.16a4.38,4.38,0,0,1-1.53-.26,3.62,3.62,0,0,1-1.18-.73,3.33,3.33,0,0,1-.76-1.06,3.13,3.13,0,0,1-.27-1.28,2.86,2.86,0,0,1,.33-1.37,3.24,3.24,0,0,1,.94-1,4.69,4.69,0,0,1,1.46-.68,6.78,6.78,0,0,1,1.87-.24,10.75,10.75,0,0,1,1.67.14,7.42,7.42,0,0,1,1.52.42v-1a3.12,3.12,0,0,0-.82-2.29,3,3,0,0,0-2.23-.85,4.94,4.94,0,0,0-1.75.34,8.32,8.32,0,0,0-1.76,1l-.5-.94a9.31,9.31,0,0,1,2.07-1.07,6.12,6.12,0,0,1,2.09-.35,4.32,4.32,0,0,1,3.16,1.15,4.24,4.24,0,0,1,1.17,3.17v4.92c0,.39.17.59.5.59V128l-.31,0h-.25a1.25,1.25,0,0,1-.77-.25,1,1,0,0,1-.39-.76l0-.85a4.61,4.61,0,0,1-1.87,1.49,5.52,5.52,0,0,1-2.35.54m.35-1.09a4.56,4.56,0,0,0,1.88-.41,3.56,3.56,0,0,0,1.47-1.12,1.87,1.87,0,0,0,.25-.41.88.88,0,0,0,.1-.4V123a9,9,0,0,0-1.48-.42,8.82,8.82,0,0,0-1.5-.14,4.41,4.41,0,0,0-2.48.62,1.89,1.89,0,0,0-.95,1.7,2.29,2.29,0,0,0,.16.85,2.24,2.24,0,0,0,.52.76,2.76,2.76,0,0,0,.84.54,3.09,3.09,0,0,0,1.19.21"/></g></g></svg>