<svg xmlns="http://www.w3.org/2000/svg" xmlns:xlink="http://www.w3.org/1999/xlink" viewBox="0 0 390 536"><defs><style>.cls-1{fill:none;}.cls-2{clip-path:url(#clip-path);}.cls-3{fill:#2c4770;}.cls-4{fill:#305596;}.cls-5{fill:#4da9dd;}.cls-6{fill:#fff;}.cls-7,.cls-9{fill:#ffbd30;}.cls-8{fill:#ff8e37;}.cls-9{opacity:0.52;}.cls-10{fill:#eabc42;}</style><clipPath id="clip-path"><rect class="cls-1" x="-17.47" y="1.34" width="387.93" height="534.79" transform="translate(352.98 537.47) rotate(-180)"/></clipPath></defs><title>SCTR-Y-VIDA-LEY-WEB-CRECER-SEGUROS-ACTUALIZADO</title><g id="Capa_1" data-name="Capa 1"><g class="cls-2"><path class="cls-3" d="M209.64,305.73a17.45,17.45,0,0,0-17.4-17.4H101.75a17.45,17.45,0,0,0-17.41,17.4V359a17.29,17.29,0,0,0,2.89,9.56,17,17,0,0,0-.28,3.05v64.22A17.19,17.19,0,0,0,88.5,443,17.19,17.19,0,0,0,87,450.12V567.18a17.46,17.46,0,0,0,17.41,17.4H127a17.45,17.45,0,0,0,17.4-17.4V450.12a17.19,17.19,0,0,0-1.54-7.13,17.19,17.19,0,0,0,1.54-7.13V376.43h5.87v59.43A17.19,17.19,0,0,0,151.8,443a17.19,17.19,0,0,0-1.55,7.13V567.18a17.46,17.46,0,0,0,17.41,17.4h22.62a17.45,17.45,0,0,0,17.4-17.4V450.12a17.19,17.19,0,0,0-1.54-7.13,17.19,17.19,0,0,0,1.54-7.13V371.64a16.81,16.81,0,0,0-.44-3.84,17.24,17.24,0,0,0,2.4-8.77Z"/><rect class="cls-4" x="79.08" y="131.65" width="138.42" height="214.53" rx="18.63" ry="18.63"/><rect class="cls-5" x="195.92" y="129.63" width="39.71" height="95.93" rx="17.44" ry="17.44" transform="translate(-53.16 101.64) rotate(-23.69)"/><path class="cls-4" d="M216.08,177.46h0c-11,4.8-19.41,9.63-22.17,3.33L182,153.63c-2.76-6.3,3.87-15.3,14.82-20.1h0c10.94-4.8,22.06-3.58,24.82,2.72l11.92,27.15C236.31,169.7,227,172.65,216.08,177.46Z"/><rect class="cls-5" x="236.7" y="89.53" width="39.71" height="140.22" rx="17.44" ry="17.44" transform="translate(114.2 -106.89) rotate(30)"/><rect class="cls-5" x="55.13" y="130.61" width="39.71" height="95.93" rx="17.44" ry="17.44" transform="translate(69.89 372.19) rotate(-155.71)"/><path class="cls-4" d="M74.69,178.44h0c10.89,4.91,19.3,9.84,22.13,3.57L109,155c2.83-6.27-3.71-15.34-14.61-20.26h0c-10.89-4.92-22-3.82-24.85,2.45l-12.2,27C54.53,170.47,63.79,173.52,74.69,178.44Z"/><rect class="cls-5" x="28.59" y="190.98" width="39.71" height="140.22" rx="17.44" ry="17.44" transform="translate(60.87 -4.17) rotate(13.19)"/><path class="cls-5" d="M198.55,53.88a54,54,0,0,0-51-36.75h0a54,54,0,0,0-51,36.74A53.15,53.15,0,0,0,93.71,71v2.49a53.31,53.31,0,0,0,2.86,17.2,54.09,54.09,0,0,0,44.31,36.19,26.71,26.71,0,0,0,15.21-.26,53.9,53.9,0,0,0,45.27-53.13V71A53.36,53.36,0,0,0,198.55,53.88Z"/><path class="cls-6" d="M147.54,105.56c-19,0-33.82-11.18-33.82-25.45h6.21c0,10.15,12.65,18.71,27.61,18.71s27.61-8.56,27.61-18.71h6.22C181.37,94.38,166.51,105.56,147.54,105.56Z"/><path class="cls-7" d="M172.76,48.34l28.15,7.32A53.61,53.61,0,0,0,94.13,57L123,48.85A95.09,95.09,0,0,1,172.76,48.34Z"/><path class="cls-8" d="M204.86,56.69l-4-1a53.89,53.89,0,0,1,.27,5.42c0,.11,0,.22,0,.33l3.1,0a2.39,2.39,0,0,0,.59-4.7Z"/><path class="cls-8" d="M94.13,57l-2.69.76a2.24,2.24,0,0,0,.63,4.4H94c0-.35,0-.71,0-1.06C94,59.7,94,58.34,94.13,57Z"/><path class="cls-9" d="M200.91,55.66l-28.15-7.32a95.09,95.09,0,0,0-49.72.51L94.13,57C94,58.34,94,59.7,94,61.08c0,.35,0,.71,0,1.06l107.19-.73c0-.11,0-.22,0-.33A53.89,53.89,0,0,0,200.91,55.66Z"/><path class="cls-8" d="M200.91,55.66l-28.15-7.32a95.09,95.09,0,0,0-49.72.51L94.13,57C94,58.34,94,59.7,94,61.08c0,.35,0,.71,0,1.06l107.19-.73c0-.11,0-.22,0-.33A53.89,53.89,0,0,0,200.91,55.66Z"/><path class="cls-7" d="M112.29,131.3s2.17,73.06-33.52,94.29V330.46a5.11,5.11,0,0,0,5.11,5.11h129.2a5.11,5.11,0,0,0,5.11-5.11V224.89s-30.35-8.7-34.36-93.75h-15s2.34,59.3-20.34,83.31c0,0-18.68-10.6-21.35-83.34C127.13,131.11,112.29,132.17,112.29,131.3Z"/><polygon class="cls-8" points="78.44 253.09 147.48 233.59 218.19 253.09 218.19 274.67 148.48 254.13 78.27 274.67 78.44 253.09"/><polygon class="cls-8" points="78.44 294.59 147.48 275.1 218.19 294.59 218.19 316.17 148.48 295.63 78.27 316.17 78.44 294.59"/><rect class="cls-4" x="147.15" y="210.11" width="2.67" height="126.18"/><path class="cls-10" d="M305.11,42.72c4.42,0,15.33,14.32,37.89,17.19,23.69,3,16.78,34.92,13.27,55.75-4.11,24.32-28.11,53.05-51.16,51.79s-45.79-30.95-49.26-51.79-10.42-52.73,13.26-55.75C291.67,57,300.69,42.72,305.11,42.72Z"/><path class="cls-4" d="M304.44,72.19h3.25c.82.08,1.64.16,2.46.26A31.55,31.55,0,0,1,321,75.75,32.6,32.6,0,0,1,333.7,87.23a32,32,0,0,1,5,13.79c.1.85.18,1.7.26,2.55v3.07c0,.15-.05.29-.07.44-.25,1.75-.36,3.54-.76,5.26A32.4,32.4,0,0,1,322,133.92a31,31,0,0,1-11.85,3.84c-.81.1-1.61.18-2.42.26h-3.25a3.39,3.39,0,0,0-.44-.08,31.13,31.13,0,0,1-10.42-2.38,32.62,32.62,0,0,1-16.31-14.51,31.66,31.66,0,0,1-3.86-11.86c-.1-.82-.17-1.64-.26-2.46v-3.25c0-.14.06-.27.08-.4.24-1.75.36-3.54.76-5.26a32.92,32.92,0,0,1,28.84-25.48Zm27.33,32.91a25.71,25.71,0,1,0-25.72,25.71A25.68,25.68,0,0,0,331.77,105.1Z"/><path class="cls-4" d="M301,108.13c.86-.88,1.65-1.71,2.45-2.52,4.45-4.45,8.9-8.92,13.37-13.35a4.66,4.66,0,0,1,7.72,1.62,4.74,4.74,0,0,1-1.37,5.34q-7.45,7.4-14.86,14.84c-1.31,1.31-2.62,2.63-3.94,3.93a4.67,4.67,0,0,1-6.49,0q-4.59-4.45-9.14-8.94a4.69,4.69,0,1,1,6.54-6.73c1.82,1.78,3.61,3.59,5.41,5.39Z"/></g></g></svg>