<svg xmlns="http://www.w3.org/2000/svg" xmlns:xlink="http://www.w3.org/1999/xlink" viewBox="0 0 390 536"><defs><style>.cls-1{fill:none;}.cls-2{clip-path:url(#clip-path);}.cls-3{fill:#1c1c1c;}.cls-4{fill:#469fc6;}.cls-5{fill:#f0f0f0;}.cls-6{fill:#4da9dd;}.cls-7{fill:#fff;}.cls-8{fill:#23549b;}.cls-9{fill:url(#linear-gradient);}.cls-10{fill:url(#linear-gradient-2);}.cls-11{fill:url(#linear-gradient-3);}.cls-12{fill:url(#linear-gradient-4);}.cls-13{fill:#333;}.cls-14{fill:#eabc42;}.cls-15{fill:#305596;}</style><clipPath id="clip-path"><rect class="cls-1" x="8.77" y="10" width="378.85" height="524.27" transform="translate(396.39 544.27) rotate(-180)"/></clipPath><linearGradient id="linear-gradient" x1="-1713.15" y1="38.93" x2="-1713.15" y2="13.05" gradientTransform="matrix(-1, -0.08, -0.08, 1, -1466.43, -1.51)" gradientUnits="userSpaceOnUse"><stop offset="0" stop-color="#e3e2fb"/><stop offset="0.29" stop-color="#cbd0f4"/><stop offset="0.75" stop-color="#acb9eb"/><stop offset="1" stop-color="#a0b0e8"/></linearGradient><linearGradient id="linear-gradient-2" x1="-1702.47" y1="40.67" x2="-1702.47" y2="11.22" gradientTransform="matrix(-1, -0.08, -0.08, 1, -1466.43, -1.51)" gradientUnits="userSpaceOnUse"><stop offset="0" stop-color="#f6f8f9"/><stop offset="1" stop-color="#cdd7fb"/></linearGradient><linearGradient id="linear-gradient-3" x1="-2254.95" y1="191.52" x2="-2254.95" y2="146.36" gradientTransform="matrix(-1, 0, 0, 1, -1982.72, 0)" gradientUnits="userSpaceOnUse"><stop offset="0" stop-color="#f6f8f9"/><stop offset="0.32" stop-color="#edf1f9"/><stop offset="0.85" stop-color="#d5defb"/><stop offset="1" stop-color="#cdd7fb"/></linearGradient><linearGradient id="linear-gradient-4" x1="-2232.69" y1="177.71" x2="-2232.69" y2="166.82" gradientTransform="matrix(-1, 0, 0, 1, -1982.72, 0)" xlink:href="#linear-gradient"/></defs><title>SCTR-Y-VIDA-LEY-WEB-CRECER-SEGUROS-ACTUALIZADO</title><g id="Capa_1" data-name="Capa 1"><g class="cls-2"><path class="cls-3" d="M331,348.4a18.16,18.16,0,0,0-18.11-18.11H218.69a18.16,18.16,0,0,0-18.11,18.11v55.48a18,18,0,0,0,3,9.95,18.44,18.44,0,0,0-.28,3.18v66.84a17.9,17.9,0,0,0,1.6,7.42,17.92,17.92,0,0,0-1.6,7.43v41.84a18.16,18.16,0,0,0,18.11,18.11H245a18.16,18.16,0,0,0,18.11-18.11V498.7a17.92,17.92,0,0,0-1.61-7.43,17.91,17.91,0,0,0,1.61-7.42V422h6.11v61.86a17.91,17.91,0,0,0,1.61,7.42,17.92,17.92,0,0,0-1.61,7.43v41.84a18.17,18.17,0,0,0,18.12,18.11h23.54A18.17,18.17,0,0,0,329,540.54V498.7a17.92,17.92,0,0,0-1.61-7.43,17.91,17.91,0,0,0,1.61-7.42V417a17.58,17.58,0,0,0-.46-4,18,18,0,0,0,2.49-9.13Z"/><path class="cls-4" d="M238.24,151.61s44.72-11.87,53.55-.83l-38.92,17.39-8.28,9.94Z"/><path class="cls-5" d="M92.57,219.45a66.48,66.48,0,0,0,19,1.42c17.4-1.56,35.05-6.68,51.49-12.79,13.48-5,34.19-5.07,46.8-12.22,11-6.25,34.54-9.84,24.76-34.31-1.66-4.14,6-9.11,0-8.28C207.52,157,101,185.81,101,185.81Z"/><rect class="cls-6" x="50.09" y="79.52" width="42.31" height="23.76" rx="11.88" ry="11.88" transform="translate(4.94 186.45) rotate(-107.17)"/><path class="cls-5" d="M93.25,219.86s29.76-7,26.56-27.57S85,94.13,85,94.13L61.84,104.2S73.82,206.48,93.25,219.86Z"/><path class="cls-7" d="M205.67,185.56c1.22-18.2,26.71-33.69,35.48-34.93l3.17,26.84L285,146.82c.45-.57,16.29,7,18.23,7.82,40.78,18.07,31.61,72,31.49,107.58q-.08,26.26-.17,52.52c0,9-.42,18-.09,27,.27,7.24,2.07,19.52-2.1,26-5.05,7.84-19.6,9.54-28,11.56a135.75,135.75,0,0,1-36,3.65,137.46,137.46,0,0,1-47.84-10.2c-5.52-2.28-15.3-5.25-18.86-10.38-3.35-4.83-2-13.16-1.89-18.64C200.89,293.78,202.34,235.53,205.67,185.56Z"/><path class="cls-8" d="M235.4,184l6.86,22.22a1.31,1.31,0,0,0,2.43.18l10.46-21.7a1.31,1.31,0,0,0-1.14-1.88l-5.47-.16a1.29,1.29,0,0,0-1.21.73l-.52,1a1.31,1.31,0,0,1-2.48-.61h0a1.31,1.31,0,0,0-1.28-1.32l-6.36-.19A1.3,1.3,0,0,0,235.4,184Z"/><path class="cls-8" d="M242.84,201.56h2.52a1.31,1.31,0,0,1,1.31,1.23L253,316a1.33,1.33,0,0,1-.39,1l-12.35,12.11a1.31,1.31,0,0,1-1.95-.12l-10.7-13.59a1.36,1.36,0,0,1-.27-1L241.54,202.7A1.31,1.31,0,0,1,242.84,201.56Z"/><path class="cls-5" d="M281,308.12a17.2,17.2,0,0,0,15-6.62c11.07-14.45,7.75-15.87,14.34-32.8a261.68,261.68,0,0,0,12.61-43c2.61-12.86,13.9-55.31-14.75-52.26-7.14.76-12.44,5.59-16,10.79C276,207.68,259.11,284.92,259.11,284.92Z"/><rect class="cls-6" x="147.47" y="201.4" width="39.02" height="22.76" rx="11.17" ry="11.17" transform="translate(205.21 480.56) rotate(-150)"/><path class="cls-5" d="M280.92,314.81a12.27,12.27,0,0,0,15-5.36c5.24-9.14,11.32-24.71.05-35.21-16.82-15.68-62.79-34.55-117.94-73.92l-13.85,25S246.72,301.56,280.92,314.81Z"/><path class="cls-9" d="M245,177.94l-14.21-2.5,10.91-23.73S245.44,177.52,245,177.94Z"/><polygon class="cls-10" points="241.65 151.71 230.74 175.44 214.64 177.2 241.8 149.88 241.65 151.71"/><polygon class="cls-11" points="295.21 153.99 272.92 191.52 249.25 167.45 285.45 146.36 295.21 153.99"/><polygon class="cls-12" points="249.36 166.82 244.56 177.71 255.39 171.7 249.36 166.82"/><circle class="cls-6" cx="260.16" cy="96.57" r="52.73"/><path class="cls-7" d="M260.1,133.28c18,0,32-10.64,32-24.16l-5.89,0c0,9.6-11.94,17.74-26.11,17.77s-26.16-8.06-26.18-17.67H228C228,122.76,242.14,133.32,260.1,133.28Z"/><path class="cls-13" d="M274.27,33.71C293,38.42,307.6,52.34,312.38,71.08A68.56,68.56,0,0,1,314,94.32c-.26,2.74-1.93,6.88-1.55,9.55-5-35.12-17.37-39.42-18.13-40-19.36,8.23-42,6.22-61.24-2.33L231,60.63c-2.2,7-5.32,14.45-10,20.23-6.58,8.24-10.69,17.12-11.87,27.69-.25,2.26-3.93-7.56-5.78-21.78C202.22,50.07,239.72,25,274.27,33.71Z"/><path class="cls-14" d="M64.94,35.16c4,0,13.91,13,34.38,15.61,21.5,2.74,15.23,31.69,12,50.59-3.73,22.07-25.5,48.15-46.42,47s-41.56-28.08-44.71-47-9.46-47.85,12-50.59C52.74,48.16,60.92,35.16,64.94,35.16Z"/><path class="cls-15" d="M64.33,61.91h3c.74.08,1.49.15,2.23.24a28.64,28.64,0,0,1,9.82,3A29.61,29.61,0,0,1,90.89,75.56a29.24,29.24,0,0,1,4.55,12.51c.09.77.16,1.54.24,2.32v2.79c0,.13-.05.26-.07.39-.23,1.6-.33,3.22-.69,4.78a29.38,29.38,0,0,1-14.69,19.58,28.16,28.16,0,0,1-10.76,3.49l-2.19.23h-3c-.14,0-.27-.06-.4-.07a28,28,0,0,1-9.46-2.16,29.67,29.67,0,0,1-14.8-13.17,28.81,28.81,0,0,1-3.5-10.76c-.09-.74-.16-1.49-.24-2.23v-3c0-.12,0-.23.07-.35.23-1.6.33-3.22.69-4.78A29.87,29.87,0,0,1,62.86,62.05Zm24.8,29.87a23.33,23.33,0,1,0-23.34,23.33A23.31,23.31,0,0,0,89.13,91.78Z"/><path class="cls-15" d="M61.22,94.53l2.23-2.29q6.06-6.06,12.13-12.12a4.24,4.24,0,0,1,7,1.47,4.3,4.3,0,0,1-1.25,4.85q-6.75,6.72-13.49,13.47-1.77,1.78-3.57,3.56a4.23,4.23,0,0,1-5.89,0q-4.16-4-8.3-8.12A4.26,4.26,0,1,1,56,89.29c1.65,1.62,3.27,3.26,4.9,4.89A4.13,4.13,0,0,1,61.22,94.53Z"/></g></g></svg>