<svg id="Capa_1" data-name="Capa 1" xmlns="http://www.w3.org/2000/svg" viewBox="0 0 251.99 251.99"><defs><style>.cls-1{fill:#00559c;}.cls-2{fill:#00acdd;}.cls-3{fill:#fff;}</style></defs><title>CANAL-DE-VENTA-CRECER-SEGUROS-AVANCE</title><path class="cls-1" d="M128.51,237.42q-53.82-.81-94-36.49c-3.47-3.07-3.64-5.48-1.63-9.33,20.14-38.64,52-60,95.44-60.14s75.4,21.1,95.77,59.64c2.37,4.48,1.75,7.05-2,10.39Q181.81,236.72,128.51,237.42Z"/><path class="cls-2" d="M128.73,13.09c30.57.07,56.07,25.77,55.84,56.25-.23,30.24-25.56,55.53-55.81,55.71S72.6,99.49,72.57,69,98.12,13,128.73,13.09Z"/><path class="cls-3" d="M128.53,108.11c-18,0-32.16-10.7-32.13-24.27h5.92c0,9.65,12,17.83,26.22,17.85S154.82,93.6,154.83,84h5.92C160.72,97.54,146.57,108.14,128.53,108.11Z"/></svg>