<svg width="124" height="40" viewBox="0 0 124 40" fill="none" xmlns="http://www.w3.org/2000/svg">
<path d="M13.7098 34.2792C13.6949 33.402 13.8781 32.5331 14.2456 31.7388C14.613 30.9446 15.1549 30.2462 15.8296 29.6972C16.5044 29.1482 17.2942 28.7631 18.1384 28.5714C18.9826 28.3797 19.8589 28.3866 20.7001 28.5914C21.4523 28.77 22.1709 29.1046 22.937 29.3002C27.847 30.406 28.9375 29.7738 30.0084 25.6795C30.3607 24.6814 30.6067 23.6408 31.0178 22.6683C31.5896 21.2894 32.6662 20.1889 34.0214 19.598C35.3766 19.0072 36.9048 18.972 38.2851 19.4998C39.6653 20.0277 40.7901 21.0775 41.4231 22.4286C42.056 23.7798 42.1479 25.3272 41.6793 26.7456C40.6839 29.7397 37.6445 31.3247 34.594 30.4316C33.1959 30.0261 31.879 29.3967 30.3802 29.3598C28.6187 29.3144 27.4723 29.7142 26.4657 31.5629C25.8198 32.7481 25.529 34.0524 25.1291 35.3198C24.1253 38.4897 21.894 40.1881 19.0196 39.984C17.5868 39.8914 16.2419 39.2511 15.2565 38.1923C14.271 37.1335 13.7183 35.7351 13.7098 34.2792Z" fill="#FF6700"/>
<path d="M9.95764 18.8036C10.8692 18.8036 11.5123 19.3026 12.0967 19.9718C12.6811 20.6409 13.0781 21.673 13.8247 21.7212C14.4901 21.7638 23.5244 15.7017 27.3383 13.2803C28.8677 12.3106 30.414 12.5488 31.2528 13.8757C32.0917 15.2027 31.675 16.7565 30.1512 17.729C25.1182 20.9424 20.074 24.1502 15.0186 27.3523C13.696 28.2029 12.2225 28.081 11.2159 26.9894C10.0359 25.7134 8.91469 24.3808 7.81861 23.0198C7.10281 22.138 7.07205 21.1144 7.60052 20.1249C7.81639 19.6895 8.15695 19.3304 8.57756 19.0946C8.99817 18.8588 9.47921 18.7574 9.95764 18.8036Z" fill="white"/>
<path d="M0.000756145 13.3689C-0.0125274 12.5945 0.149365 11.8272 0.474005 11.1261C0.798645 10.4249 1.2774 9.80857 1.87352 9.32427C2.46963 8.83997 3.16726 8.50061 3.91284 8.33226C4.65842 8.16391 5.43213 8.17105 6.17457 8.35311C6.84004 8.50905 7.47197 8.80394 8.13185 8.97689C12.463 10.2301 13.5423 9.19238 14.37 5.78425C14.6803 4.90245 14.8984 3.98378 15.2591 3.12749C15.6364 2.21653 16.2663 1.4362 17.0725 0.88121C17.8786 0.326224 18.8262 0.0204465 19.8004 0.000989984C20.7746 -0.0184665 21.7334 0.249234 22.5604 0.771602C23.3875 1.29397 24.0472 2.04854 24.4596 2.94374C24.8719 3.83893 25.0192 4.83626 24.8834 5.81467C24.7477 6.79308 24.3348 7.7105 23.6949 8.45558C23.055 9.20066 22.2156 9.74137 21.2785 10.0121C20.3414 10.2828 19.347 10.2719 18.4159 9.98062C17.1912 9.63187 16.0225 9.06479 14.7111 9.0336C13.1537 8.99391 12.0576 9.33982 11.2579 10.9758C10.7821 12.0497 10.3876 13.1587 10.0779 14.2932C9.19157 17.0889 7.22311 18.586 4.68984 18.4045C3.42419 18.3247 2.23575 17.7602 1.36514 16.8252C0.494534 15.8903 0.00682174 14.6548 0.000756145 13.3689Z" fill="#FF6700"/>
<path d="M117.125 31.0048C113.57 31.0048 111.111 29.3288 110.152 26.255C109.027 22.6538 110.184 18.5948 112.845 16.7758C115.505 14.9568 119.641 15.1407 122.072 17.0905C122.829 17.6473 123.393 18.4328 123.684 19.3346C123.902 20.1194 123.761 20.8797 123.023 21.2803C122.692 21.5037 122.29 21.5921 121.897 21.5277C121.505 21.4632 121.151 21.2508 120.907 20.9329C120.596 20.5527 120.33 20.1154 120.008 19.7597C119.622 19.2742 119.118 18.9 118.545 18.6747C117.972 18.4494 117.35 18.381 116.743 18.4763C116.136 18.5715 115.564 18.8271 115.085 19.2174C114.606 19.6077 114.236 20.119 114.014 20.6999C113.672 21.4977 113.493 22.3574 113.489 23.2272C113.484 24.0969 113.653 24.9587 113.985 25.7604C115.102 28.5236 118.46 28.9569 120.258 26.5779C120.524 26.2263 120.733 25.8298 120.995 25.4701C121.503 24.7671 122.152 24.346 123.011 24.7793C123.934 25.2494 124.184 26.0792 123.873 27.0439C123.337 28.7198 122.108 29.7335 120.564 30.3875C119.478 30.8514 118.303 31.0623 117.125 31.0048Z" fill="white"/>
<path d="M67.1329 29.2386C66.9797 26.7207 67.0119 18.7621 67.0119 18.7621C67.0119 18.7621 66.2702 18.7621 65.7301 18.7621C65.5325 18.7803 65.3333 18.7548 65.1464 18.6874C64.9595 18.6199 64.7892 18.5121 64.6474 18.3714C64.5056 18.2307 64.3956 18.0605 64.325 17.8724C64.2544 17.6844 64.2249 17.4831 64.2386 17.2824C64.2273 17.081 64.2604 16.8797 64.3357 16.693C64.411 16.5064 64.5265 16.3391 64.6737 16.2036C64.8209 16.068 64.9961 15.9675 65.1866 15.9094C65.377 15.8514 65.5779 15.8373 65.7744 15.868C66.3347 15.9007 66.9837 15.868 66.9837 15.868C66.9837 15.868 66.9837 14.9606 67.0079 14.4987C67.2054 10.6686 70.7608 8.65749 74.2113 10.3702C74.957 10.7381 75.3279 11.3267 75.086 12.1769C74.82 13.1089 74.1065 13.1375 73.3245 13.0435C71.3493 12.8064 70.8374 13.1784 70.7446 14.7971C70.7446 15.1241 70.7446 15.8599 70.7446 15.8599H72.0305C72.2945 15.8252 72.5628 15.8522 72.815 15.9386C73.0672 16.025 73.2966 16.1686 73.4857 16.3586C73.6699 16.5581 73.7936 16.8072 73.8422 17.076C73.8908 17.3449 73.8622 17.6222 73.7598 17.8751C73.5018 18.6231 72.9536 18.7539 72.3449 18.758C71.6556 18.758 70.793 18.758 70.793 18.758C70.793 18.758 70.793 26.083 70.793 28.9484C70.793 30.0766 70.277 30.89 69.1201 30.9922C68.0842 31.0944 67.3223 30.6489 67.2054 29.4716L67.1329 29.2386Z" fill="white"/>
<path d="M76.2352 17.756C76.2352 16.5297 76.7068 15.561 78.0532 15.5528C79.3995 15.5446 79.9558 16.448 79.9679 17.6865C79.9961 21.3899 80.0082 25.0892 79.9679 28.7926C79.9679 30.2559 79.1617 31.098 77.9766 30.9958C76.606 30.8814 76.2392 29.9167 76.2352 28.7108C76.2231 26.8837 76.2271 19.5791 76.2352 17.756Z" fill="white"/>
<path d="M78.1137 13.796C76.9891 13.6938 76.2716 13.1705 76.2353 11.9524C76.2209 11.6922 76.2606 11.4317 76.3516 11.188C76.4427 10.9442 76.5832 10.7225 76.764 10.5372C76.9448 10.3519 77.162 10.2072 77.4014 10.1123C77.6409 10.0174 77.8972 9.97446 78.154 9.9863C79.2787 10.0803 79.9801 10.7302 79.964 11.9075C79.9478 13.0847 79.2424 13.6774 78.1137 13.796Z" fill="white"/>
<path d="M92.2659 28.9111C92.0442 27.8484 91.2299 27.7666 90.3149 27.9751C89.3999 28.1835 88.4647 28.1345 88.0172 27.0268C87.8721 24.5537 87.9527 18.7493 87.9527 18.7493C88.5775 18.6962 89.3676 18.7943 89.9682 18.6921C90.2973 18.6453 90.5953 18.4699 90.7986 18.2033C91.0019 17.9368 91.0945 17.6003 91.0566 17.2655C91.0324 16.4766 90.5326 15.7899 89.8191 15.8798H88.0495C88.0495 15.8798 88.0495 12.5852 87.993 12.0456C87.9868 11.808 87.9342 11.574 87.8382 11.3571C87.7422 11.1402 87.6048 10.9448 87.4338 10.7821C87.2629 10.6194 87.0619 10.4927 86.8424 10.4093C86.6228 10.3259 86.3892 10.2874 86.1549 10.2961C85.1028 10.2961 84.4579 10.991 84.3772 12.0824C84.3215 12.87 84.308 13.6601 84.3369 14.4492C84.3369 14.8906 84.3369 15.9084 84.3369 15.9084C84.3369 15.9084 83.7686 15.9084 83.2808 15.9084C82.9564 15.9356 82.6553 16.0901 82.4415 16.3389C82.2277 16.5878 82.1181 16.9114 82.136 17.241C82.1177 17.4171 82.1349 17.5951 82.1864 17.7642C82.238 17.9334 82.3229 18.0902 82.4359 18.2251C82.549 18.36 82.6879 18.4702 82.8442 18.5491C83.0005 18.628 83.171 18.6738 83.3453 18.6839L84.3611 18.733C84.3611 18.733 84.3611 19.5955 84.3611 20.0328C84.3611 22.5999 84.3289 25.171 84.4458 27.7339C84.5385 29.7532 85.6027 30.7751 87.5819 30.9631C88.6953 31.1173 89.8284 31.0252 90.9034 30.6933C91.7298 30.4072 92.4836 29.9576 92.2659 28.9111Z" fill="white"/>
<path d="M62.6707 26.1284C61.9975 25.5806 61.3042 25.7441 60.6915 26.3123C60.071 26.9391 59.37 27.478 58.6074 27.9147C56.2533 29.1409 53.5566 27.9514 53.0285 25.5071C52.9725 25.1215 52.9576 24.7309 52.9842 24.3421C52.9842 24.3421 59.8369 24.4811 61.6267 24.1581C62.8924 23.9292 63.3076 23.1649 63.3237 21.9713C63.2988 20.5822 62.8362 19.2377 62.0035 18.1344C61.1709 17.0312 60.0119 16.2271 58.6961 15.8398C53.6009 14.4664 49.6264 17.2174 49.0217 22.5313C48.6791 25.6133 50.0899 28.7281 52.4279 30.0525C55.1488 31.5935 59.4418 31.2788 61.6992 29.3944C62.1628 29.0275 62.5389 28.5595 62.7997 28.025C63.1181 27.371 63.3277 26.6639 62.6707 26.1284ZM53.214 20.4261C53.8388 18.7911 55.0682 17.9736 56.729 18.1861C58.2205 18.3578 59.3088 19.5023 59.5991 21.1047C59.638 21.4056 59.6582 21.7087 59.6595 22.0121H52.9842C52.9886 21.4753 53.066 20.9416 53.214 20.4261Z" fill="white"/>
<path d="M106.717 26.1284C106.048 25.5806 105.355 25.7441 104.742 26.3123C104.124 26.9383 103.426 27.4772 102.666 27.9147C100.312 29.1409 97.6152 27.9514 97.0911 25.5071C97.0351 25.1215 97.0202 24.7309 97.0468 24.3421C97.0468 24.3421 103.9 24.4811 105.689 24.1581C106.955 23.9292 107.366 23.1649 107.382 21.9713C107.359 20.5817 106.897 19.2362 106.064 18.1326C105.232 17.029 104.071 16.2254 102.755 15.8398C97.6595 14.4664 93.689 17.2174 93.0803 22.5313C92.7377 25.6133 94.1485 28.7281 96.4905 30.0525C99.2074 31.5935 103.504 31.2788 105.762 29.3944C106.224 29.0274 106.599 28.5593 106.858 28.025C107.165 27.371 107.374 26.6639 106.717 26.1284ZM97.2605 20.4261C97.8893 18.7911 99.1147 17.9736 100.78 18.1861C102.271 18.3578 103.359 19.5023 103.65 21.1047C103.688 21.4056 103.707 21.7087 103.706 22.0121H97.0226C97.0289 21.4748 97.1089 20.941 97.2605 20.4261Z" fill="white"/>
</svg>
