<svg xmlns="http://www.w3.org/2000/svg" viewBox="0 0 26.6 21.99"><defs><style>.cls-1{fill:#fff;}</style></defs><title>Recurso 5nuevo</title><g id="Capa_2" data-name="Capa 2"><g id="Capa_1-2" data-name="Capa 1"><path class="cls-1" d="M7,3.66h.42c3.33,0,6.65-.05,10,0a8.81,8.81,0,0,1,8.36,5.44,9.12,9.12,0,0,1-6.86,12.75,10.57,10.57,0,0,1-2.45.09,2.36,2.36,0,0,1-2.1-2.41,2.4,2.4,0,0,1,2.11-2.4c.56-.07,1.13,0,1.68-.11a4.27,4.27,0,0,0,3.54-4.46,4.23,4.23,0,0,0-4.13-4c-3.46,0-6.93,0-10.39,0L7,8.59v.33c0,.71,0,1.43,0,2.14a1.06,1.06,0,0,1-.67,1.08,1.07,1.07,0,0,1-1.21-.29L.52,7.25A1.51,1.51,0,0,1,.53,5L5.14.39A1.07,1.07,0,0,1,6.38.09,1,1,0,0,1,7,1.18V3.66"/></g></g></svg>